<?xml version="1.0" encoding="UTF-8"?>
<svg id="Layer_2" data-name="Layer 2" xmlns="http://www.w3.org/2000/svg" viewBox="0 0 1722.85 388.12">
  <g id="Layer_1-2" data-name="Layer 1">
    <g>
      <path d="M1695.21,4.76c-15.24,0-27.64,12.4-27.64,27.64s12.4,27.64,27.64,27.64,27.64-12.4,27.64-27.64-12.4-27.64-27.64-27.64ZM1695.21,9.01c12.94,0,23.39,10.45,23.39,23.39s-10.45,23.39-23.39,23.39-23.39-10.45-23.39-23.39,10.45-23.39,23.39-23.39ZM1686.71,19.64v25.51h4.25v-8.5h7.24l3.39,8.5h4.25l-3.59-9.04c3.32-1.15,5.71-4.25,5.71-7.97,0-4.7-3.8-8.5-8.5-8.5h-12.76ZM1690.96,23.89h8.5c2.53,0,4.25,1.72,4.25,4.25s-1.72,4.25-4.25,4.25h-8.5v-8.5Z"/>
      <g>
        <path d="M231.84,284.31c14.21,19.92,34.23,30.78,55.66,42.07-4.78,7.13-8.33,14.52-13.76,20.08-12.71,13.02-26.44,25.05-39.51,37.73-5.11,4.96-10.09,4.75-16.1,2.02-32.78-14.87-56.99-39.01-74.29-69.99-4.63-8.29-9.65-11.28-18.87-12.5-57.24-7.58-96.57-38.46-114.76-93.55-15.14-45.85-14.24-91.6,8-135.48C34.81,41.97,60.97,19.71,95.95,8.81c43.03-13.41,85.56-11.41,126.39,8.34,32.61,15.78,53.76,42.28,65.43,76.11,12.02,34.84,14.27,70.63,4.93,106.41-8.76,33.55-26.89,61.24-55.86,81.18-1.31.9-2.62,1.81-4.99,3.46ZM105.27,117.65c-6.13,19.37-7.07,40.04-3.23,59.99.32,1.68.68,3.33,1.07,4.98,4.65,19.33,16.31,32.8,36.41,36.46,19.72,3.59,36.83-2.11,49.2-18.61,19.93-26.6,18.13-76-3.42-101.18-21.34-24.94-64.77-19.32-77.31,10.86-1.02,2.46-1.92,4.97-2.72,7.5Z"/>
        <path d="M669.05,200.2c0,3.53.02,6.42,0,9.31-.26,27.41-.66,54.83-.68,82.24,0,5.6-1.36,8.52-7.46,8.65-24.97.55-49.93,1.58-74.9,1.88-11.29.14-11.93-.84-12.22-11.74-1.09-40.29-2.55-80.58-2.9-120.87-.45-51.33,0-102.67.2-154,.04-10.24,1.93-12.89,12.02-13.05,23.87-.4,47.76.17,71.64.31,8.48.05,11.16,4.36,11.3,12.61.57,32.76,1.73,65.51,2.69,98.95h77.61c0-13.65-.17-27.52.04-41.38.29-18.81.98-37.61,1.25-56.42.08-5.78,1.71-8.98,8.23-9,26.33-.08,52.66-.44,78.98-.72,4.9-.05,7.25,1.84,7.31,7.15.13,13.16,1.08,26.31,1.07,39.47-.07,69.09-.28,138.17-.58,207.26-.04,9.93-1.13,19.85-1.22,29.78-.06,6.33-2.62,9.83-8.92,9.84-26.54.03-53.07-.06-79.61-.19-6.61-.03-5.78-5.27-5.84-9.34-.41-26.61-.98-53.22-.76-79.83.07-8.16-1.71-11.09-10.49-10.86-19.33.5-38.7-.28-58.05-.49-2.62-.03-5.25.26-8.7.44Z"/>
        <path d="M1165.08,294.06c-14.67,1.73-28.44,3.74-42.28,4.89-15.53,1.28-31.16,1.35-46.67,2.82-6.32.6-8.63-1.82-10.32-7.1-4.51-14.05-9.13-28.08-14.16-41.95-.86-2.37-3.89-5.6-5.97-5.64-21.74-.41-43.5-.25-66.35-.25-3.1,11.07-6.69,23.05-9.78,35.16-4.9,19.19-4.78,19.61-24.16,18.45-22.79-1.37-45.54-3.45-68.3-5.34-3.4-.28-6.76-1.19-11.1-1.99,3.23-11.36,6.05-21.91,9.22-32.36,19.37-63.95,38.73-127.9,58.28-191.79,5.73-18.72,11.84-37.33,18.41-55.77,1.03-2.88,5.38-6.39,8.32-6.51,34.37-1.4,68.77-2.14,103.15-3.23,7.06-.22,10.37,2.92,12.58,9.51,21.47,64.12,43.56,128.02,64.71,192.25,8.64,26.23,15.39,53.08,22.93,79.67.65,2.28.78,4.71,1.48,9.18ZM1017.72,90c-.83,0-1.66-.01-2.48-.02-7.59,28.4-15.18,56.8-22.93,85.75h48.58c-7.84-29.02-15.5-57.38-23.17-85.74Z"/>
        <path d="M1692.77,293.94c-14.28,1.75-27.51,3.8-40.81,4.9-16.87,1.4-33.79,2.23-50.71,2.8-2.23.07-5.85-2.38-6.62-4.48-5.3-14.33-10.15-28.84-14.84-43.39-1.61-5-3.97-7.23-9.67-7.13-20.92.37-41.85.15-63.34.15-4.09,14.69-8.54,29.87-12.47,45.19-1.65,6.44-4.46,9.52-11.65,8.92-26.49-2.23-53.03-3.98-79.54-6.01-2.87-.22-5.68-1.11-9.44-1.87,4.27-15.09,8.15-29.5,12.43-43.79,13.71-45.75,27.38-91.51,41.44-137.15,9.95-32.32,20.56-64.43,30.71-96.69,1.91-6.07,4.8-9.18,11.85-9.3,33.32-.56,66.62-1.63,99.93-2.64,7.04-.21,10.89,2.14,13.33,9.46,18.1,54.21,37.21,108.08,55.01,162.39,11.43,34.9,21.19,70.34,31.62,105.57,1.06,3.57,1.57,7.3,2.78,13.07ZM1545.15,89.86c-.82.09-1.64.18-2.46.27-7.59,28.37-15.17,56.74-22.8,85.28h48.45c-7.88-29.09-15.53-57.32-23.19-85.54Z"/>
        <path d="M435.19,0c30,2.42,59.16,6.31,86.9,17.84,14.38,5.98,15.65,7.78,10.39,22.3-5.84,16.11-12.44,31.96-19.3,47.67-4.12,9.43-6.25,9.14-16.27,6.47-18.87-5.03-37.86-9.86-57.08-13.12-7.79-1.32-16.49.99-24.41,3.04-2.98.77-6.91,5.55-6.84,8.42.08,3.44,3.26,8.74,6.32,9.84,11.05,3.98,22.53,6.95,34.01,9.53,20.79,4.68,41.12,10.33,59.25,22.09,32.9,21.32,42.27,60.67,32.28,95.34-9.77,33.94-34.59,53.6-67.39,63.24-46.21,13.58-91.49,7.35-135.94-8.76-5.78-2.1-11.66-4.37-16.79-7.65-2.44-1.56-5.15-6.28-4.46-8.57,6.56-21.5,13.73-42.82,21.01-64.09,1.31-3.83,4.31-4.62,8.47-2.62,12.57,6.04,25.12,12.25,38.12,17.24,15.97,6.13,32.55,9.01,49.75,5.03,6.29-1.45,11.46-4.08,12.18-10.97.76-7.29-4.15-11.87-10.22-13.8-13.01-4.14-26.22-7.84-39.56-10.74-18.1-3.94-35.15-10.07-49.77-21.6-12.84-10.12-21.19-23.47-25.1-39.37-14.86-60.41,12.06-104.21,68.48-119.44,14.9-4.02,30.62-4.96,45.97-7.32Z"/>
        <path d="M1280.71,215.62h106.47v81.81c-66.3,2.98-131.97.83-199.97-.81v-58.13c0-54.03-.13-108.06.07-162.09.08-20.68.95-41.36,1.4-62.04.09-4.3.32-8.02,6.2-8.16,26.03-.64,52.06-1.43,78.08-2.27,5.56-.18,7.44,2.29,7.44,7.68-.02,29.56.25,59.12.31,88.68.07,38.1.02,76.2.02,115.34Z"/>
      </g>
    </g>
  </g>
</svg>