<?xml version="1.0" encoding="UTF-8"?>
<svg id="Layer_2" data-name="Layer 2" xmlns="http://www.w3.org/2000/svg" viewBox="0 0 1664.68 359.32">
  <defs>
    <style>
      .cls-1 {
        fill: #fff;
      }
    </style>
  </defs>
  <g id="Layer_1-2" data-name="Layer 1">
    <g>
      <g>
        <path d="M1646.27,3.17c-10.15,0-18.41,8.26-18.41,18.41s8.26,18.41,18.41,18.41,18.41-8.26,18.41-18.41-8.26-18.41-18.41-18.41ZM1646.27,6c8.62,0,15.58,6.96,15.58,15.58s-6.96,15.58-15.58,15.58-15.58-6.96-15.58-15.58,6.96-15.58,15.58-15.58ZM1640.61,13.08v16.99h2.83v-5.66h4.82l2.26,5.66h2.83l-2.39-6.02c2.21-.77,3.81-2.83,3.81-5.31,0-3.13-2.53-5.66-5.66-5.66h-8.5ZM1643.44,15.91h5.66c1.69,0,2.83,1.15,2.83,2.83s-1.15,2.83-2.83,2.83h-5.66v-5.66Z"/>
        <g>
          <g>
            <path d="M562,349.11l-3.93-5.85c-2.09.44-4.45.7-6.81.7-16.84,0-28.63-12.22-28.63-29.06s12.13-29.06,28.63-29.06,28.45,12.22,28.45,29.06c0,10.12-4.19,18.59-11.17,23.74l6.2,9.25c.96,1.48.26,2.53-1.4,2.53h-8.81c-1.13,0-1.92-.44-2.53-1.31ZM547.77,327.73c-.96-1.48-.26-2.53,1.4-2.53h8.73c1.13,0,1.92.44,2.53,1.31l1.75,2.62c3.93-3.23,6.2-8.2,6.2-14.23,0-10.3-6.72-17.8-17.11-17.8s-17.37,7.51-17.37,17.8,6.89,17.72,17.19,17.8l-3.32-4.97Z"/>
            <path d="M588,327.73v-22.52c0-1.31.79-2.09,2.09-2.09h6.72c1.31,0,2.09.79,2.09,2.09v20.77c0,7.07,4.97,8.73,8.12,8.73s7.85-1.66,7.85-8.73v-20.77c0-1.31.79-2.09,2.09-2.09h6.72c1.31,0,2.09.79,2.09,2.09v35.96c0,1.31-.79,2.09-2.09,2.09h-6.72c-1.31,0-2.09-.7-2.09-1.83v-1.83c-3.05,3.23-7.24,4.36-11.17,4.36-7.24,0-15.71-3.93-15.71-16.23Z"/>
            <path d="M633.91,323.19c0-11.96,7.85-20.86,19.99-20.86s19.29,8.9,19.29,20.86v.87c0,1.31-.79,2.09-2.09,2.09h-26.71c1.05,5.41,4.97,8.64,9.95,8.64,4.01,0,6.55-1.4,8.2-2.88.96-.87,1.83-1.05,2.88-.26l4.1,3.05c1.13.87,1.4,1.75.61,2.71-3.58,4.19-9.16,6.72-15.8,6.72-12.31,0-20.42-8.99-20.42-20.95ZM662.97,319.26c-.96-4.71-3.93-8.29-9.08-8.29s-8.29,3.23-9.34,8.29h18.41Z"/>
            <path d="M678.94,336.54c-.7-1.13-.35-2.09.79-2.88l4.1-2.71c1.05-.7,1.92-.44,2.79.52,1.92,2.09,5.67,4.28,9.6,4.28s5.76-1.13,5.76-3.75c0-3.23-5.15-4.1-8.29-5.15-3.14-1.05-13.88-3.58-13.88-12.39s7.51-12.22,16.15-12.22c7.59,0,12.92,3.05,15.53,6.72.79,1.13.44,2.18-.7,2.88l-3.67,2.36c-1.05.7-2.01.52-2.97-.35-1.92-1.66-5.24-3.32-8.55-3.32-3.58,0-5.15,1.4-5.15,3.4,0,3.23,4.97,4.1,8.12,5.15,3.14,1.05,14.05,3.84,14.05,12.48s-6.28,12.92-16.58,12.92c-8.73,0-14.49-3.75-17.11-7.94Z"/>
            <path d="M722.39,331.66v-20.25h-3.14c-1.31,0-2.09-.79-2.09-2.09v-4.1c0-1.31.79-2.09,2.09-2.09h3.14v-10.21c0-1.31.79-2.09,2.09-2.09h6.72c1.31,0,2.09.79,2.09,2.09v10.21h6.46c1.31,0,2.09.79,2.09,2.09v4.1c0,1.31-.79,2.09-2.09,2.09h-6.46v18.5c0,4.71,2.88,4.89,5.41,4.89h.61c1.31,0,2.09.79,2.09,2.09v4.28c0,1.31-.79,2.09-2.09,2.09h-5.15c-8.03,0-11.78-4.19-11.78-11.61Z"/>
            <path d="M749.53,291.08c0-3.75,3.05-5.76,6.02-5.76s6.02,2.01,6.02,5.76-3.14,6.11-6.02,6.11-6.02-2.27-6.02-6.11ZM750.06,341.17v-35.96c0-1.31.79-2.09,2.09-2.09h6.81c1.31,0,2.09.79,2.09,2.09l-.09,35.96c0,1.31-.79,2.09-2.09,2.09h-6.72c-1.31,0-2.09-.79-2.09-2.09Z"/>
            <path d="M769.69,323.19c0-12.13,8.55-20.86,20.68-20.86s20.68,8.73,20.68,20.86-8.47,20.95-20.68,20.95-20.68-8.99-20.68-20.95ZM800.32,323.19c0-6.02-3.93-10.47-9.95-10.47s-9.95,4.45-9.95,10.47,4.01,10.47,9.95,10.47,9.95-4.45,9.95-10.47Z"/>
            <path d="M819.17,341.17v-35.96c0-1.31.79-2.09,2.09-2.09h6.72c1.31,0,2.09.7,2.09,1.92v1.92c3.05-3.32,7.33-4.45,11.26-4.45,7.24,0,15.62,3.93,15.62,16.23v22.43c0,1.31-.79,2.09-2.09,2.09h-6.72c-1.31,0-2.09-.79-2.09-2.09v-20.77c0-7.07-4.97-8.73-8.03-8.73s-7.94,1.66-7.94,8.73v20.77c0,1.31-.79,2.09-2.09,2.09h-6.72c-1.31,0-2.09-.79-2.09-2.09Z"/>
            <path d="M865.07,336.54c-.7-1.13-.35-2.09.79-2.88l4.1-2.71c1.05-.7,1.92-.44,2.79.52,1.92,2.09,5.67,4.28,9.6,4.28s5.76-1.13,5.76-3.75c0-3.23-5.15-4.1-8.29-5.15-3.14-1.05-13.88-3.58-13.88-12.39s7.51-12.22,16.15-12.22c7.59,0,12.92,3.05,15.53,6.72.79,1.13.44,2.18-.7,2.88l-3.67,2.36c-1.05.7-2.01.52-2.97-.35-1.92-1.66-5.24-3.32-8.55-3.32-3.58,0-5.15,1.4-5.15,3.4,0,3.23,4.97,4.1,8.12,5.15,3.14,1.05,14.05,3.84,14.05,12.48s-6.28,12.92-16.58,12.92c-8.73,0-14.49-3.75-17.11-7.94Z"/>
            <path d="M923.32,324.9c0-5.89,4.34-10.08,10.39-10.08s10.23,4.19,10.23,10.08-4.34,10.39-10.23,10.39-10.39-4.34-10.39-10.39Z"/>
            <path d="M1007.68,349.11l-3.93-5.85c-2.09.44-4.45.7-6.81.7-16.84,0-28.63-12.22-28.63-29.06s12.13-29.06,28.63-29.06,28.45,12.22,28.45,29.06c0,10.12-4.19,18.59-11.17,23.74l6.2,9.25c.96,1.48.26,2.53-1.4,2.53h-8.81c-1.13,0-1.92-.44-2.53-1.31ZM993.46,327.73c-.96-1.48-.26-2.53,1.4-2.53h8.73c1.13,0,1.92.44,2.53,1.31l1.75,2.62c3.93-3.23,6.2-8.2,6.2-14.23,0-10.3-6.72-17.8-17.11-17.8s-17.37,7.51-17.37,17.8,6.89,17.72,17.19,17.8l-3.32-4.97Z"/>
            <path d="M1033.69,327.73v-22.52c0-1.31.79-2.09,2.09-2.09h6.72c1.31,0,2.09.79,2.09,2.09v20.77c0,7.07,4.97,8.73,8.12,8.73s7.85-1.66,7.85-8.73v-20.77c0-1.31.79-2.09,2.09-2.09h6.72c1.31,0,2.09.79,2.09,2.09v35.96c0,1.31-.79,2.09-2.09,2.09h-6.72c-1.31,0-2.09-.7-2.09-1.83v-1.83c-3.05,3.23-7.24,4.36-11.17,4.36-7.24,0-15.71-3.93-15.71-16.23Z"/>
            <path d="M1081.07,341.17v-35.96c0-1.31.79-2.09,2.09-2.09h6.72c1.31,0,2.09.79,2.09,2.09v5.15c2.97-4.71,7.42-7.07,11.96-7.68,1.4-.17,2.18.61,2.18,2.01v6.02c0,1.31-.7,2.01-2.01,2.09-4.63.44-12.13,2.27-12.13,12.04v16.32c0,1.31-.79,2.09-2.09,2.09h-6.72c-1.31,0-2.09-.79-2.09-2.09Z"/>
            <path d="M1113.1,291.08c0-3.75,3.05-5.76,6.02-5.76s6.02,2.01,6.02,5.76-3.14,6.11-6.02,6.11-6.02-2.27-6.02-6.11ZM1113.62,341.17v-35.96c0-1.31.79-2.09,2.09-2.09h6.81c1.31,0,2.09.79,2.09,2.09l-.09,35.96c0,1.31-.79,2.09-2.09,2.09h-6.72c-1.31,0-2.09-.79-2.09-2.09Z"/>
            <path d="M1133.26,323.19c0-12.13,8.55-20.86,20.68-20.86s20.68,8.73,20.68,20.86-8.47,20.95-20.68,20.95-20.68-8.99-20.68-20.95ZM1163.89,323.19c0-6.02-3.93-10.47-9.95-10.47s-9.95,4.45-9.95,10.47,4.01,10.47,9.95,10.47,9.95-4.45,9.95-10.47Z"/>
            <path d="M1180.38,336.54c-.7-1.13-.35-2.09.79-2.88l4.1-2.71c1.05-.7,1.92-.44,2.79.52,1.92,2.09,5.67,4.28,9.6,4.28s5.76-1.13,5.76-3.75c0-3.23-5.15-4.1-8.29-5.15-3.14-1.05-13.88-3.58-13.88-12.39s7.51-12.22,16.15-12.22c7.59,0,12.92,3.05,15.53,6.72.79,1.13.44,2.18-.7,2.88l-3.67,2.36c-1.05.7-2.01.52-2.97-.35-1.92-1.66-5.24-3.32-8.55-3.32-3.58,0-5.15,1.4-5.15,3.4,0,3.23,4.97,4.1,8.12,5.15,3.14,1.05,14.05,3.84,14.05,12.48s-6.28,12.92-16.58,12.92c-8.73,0-14.49-3.75-17.11-7.94Z"/>
            <path d="M1221.22,291.08c0-3.75,3.05-5.76,6.02-5.76s6.02,2.01,6.02,5.76-3.14,6.11-6.02,6.11-6.02-2.27-6.02-6.11ZM1221.75,341.17v-35.96c0-1.31.79-2.09,2.09-2.09h6.81c1.31,0,2.09.79,2.09,2.09l-.09,35.96c0,1.31-.79,2.09-2.09,2.09h-6.72c-1.31,0-2.09-.79-2.09-2.09Z"/>
            <path d="M1245.48,331.66v-20.25h-3.14c-1.31,0-2.09-.79-2.09-2.09v-4.1c0-1.31.79-2.09,2.09-2.09h3.14v-10.21c0-1.31.79-2.09,2.09-2.09h6.72c1.31,0,2.09.79,2.09,2.09v10.21h6.46c1.31,0,2.09.79,2.09,2.09v4.1c0,1.31-.79,2.09-2.09,2.09h-6.46v18.5c0,4.71,2.88,4.89,5.41,4.89h.61c1.31,0,2.09.79,2.09,2.09v4.28c0,1.31-.79,2.09-2.09,2.09h-5.15c-8.03,0-11.78-4.19-11.78-11.61Z"/>
            <path d="M1279.52,356.88l5.41-13.61-14.84-37.7c-.52-1.4.09-2.44,1.66-2.44h6.9c1.13,0,1.92.61,2.36,1.66l9.25,23.39,9.34-23.39c.44-1.05,1.31-1.66,2.44-1.66h6.89c1.57,0,2.27,1.05,1.66,2.44l-20.77,52.1c-.44,1.05-1.22,1.66-2.36,1.66h-6.28c-1.57,0-2.18-1.05-1.66-2.44Z"/>
            <path d="M1335.06,324.9c0-5.89,4.34-10.08,10.39-10.08s10.23,4.19,10.23,10.08-4.34,10.39-10.23,10.39-10.39-4.34-10.39-10.39Z"/>
            <path d="M1419.42,349.11l-3.93-5.85c-2.09.44-4.45.7-6.81.7-16.84,0-28.63-12.22-28.63-29.06s12.13-29.06,28.63-29.06,28.45,12.22,28.45,29.06c0,10.12-4.19,18.59-11.17,23.74l6.2,9.25c.96,1.48.26,2.53-1.4,2.53h-8.81c-1.13,0-1.92-.44-2.53-1.31ZM1405.2,327.73c-.96-1.48-.26-2.53,1.4-2.53h8.73c1.13,0,1.92.44,2.53,1.31l1.75,2.62c3.93-3.23,6.2-8.2,6.2-14.23,0-10.3-6.72-17.8-17.11-17.8s-17.37,7.51-17.37,17.8,6.89,17.72,17.19,17.8l-3.32-4.97Z"/>
            <path d="M1445.42,327.73v-22.52c0-1.31.79-2.09,2.09-2.09h6.72c1.31,0,2.09.79,2.09,2.09v20.77c0,7.07,4.97,8.73,8.12,8.73s7.85-1.66,7.85-8.73v-20.77c0-1.31.79-2.09,2.09-2.09h6.72c1.31,0,2.09.79,2.09,2.09v35.96c0,1.31-.79,2.09-2.09,2.09h-6.72c-1.31,0-2.09-.7-2.09-1.83v-1.83c-3.05,3.23-7.24,4.36-11.17,4.36-7.24,0-15.71-3.93-15.71-16.23Z"/>
            <path d="M1491.33,323.19c0-11.96,7.85-20.86,19.99-20.86s19.29,8.9,19.29,20.86v.87c0,1.31-.79,2.09-2.09,2.09h-26.71c1.05,5.41,4.97,8.64,9.95,8.64,4.01,0,6.55-1.4,8.2-2.88.96-.87,1.83-1.05,2.88-.26l4.1,3.05c1.13.87,1.4,1.75.61,2.71-3.58,4.19-9.16,6.72-15.8,6.72-12.31,0-20.42-8.99-20.42-20.95ZM1520.39,319.26c-.96-4.71-3.93-8.29-9.08-8.29s-8.29,3.23-9.34,8.29h18.41Z"/>
            <path d="M1536.36,336.54c-.7-1.13-.35-2.09.79-2.88l4.1-2.71c1.05-.7,1.92-.44,2.79.52,1.92,2.09,5.67,4.28,9.6,4.28s5.76-1.13,5.76-3.75c0-3.23-5.15-4.1-8.29-5.15-3.14-1.05-13.88-3.58-13.88-12.39s7.51-12.22,16.15-12.22c7.59,0,12.92,3.05,15.53,6.72.79,1.13.44,2.18-.7,2.88l-3.67,2.36c-1.05.7-2.01.52-2.97-.35-1.92-1.66-5.24-3.32-8.55-3.32-3.58,0-5.15,1.4-5.15,3.4,0,3.23,4.97,4.1,8.12,5.15,3.14,1.05,14.05,3.84,14.05,12.48s-6.28,12.92-16.58,12.92c-8.73,0-14.49-3.75-17.11-7.94Z"/>
            <path d="M1579.82,331.66v-20.25h-3.14c-1.31,0-2.09-.79-2.09-2.09v-4.1c0-1.31.79-2.09,2.09-2.09h3.14v-10.21c0-1.31.79-2.09,2.09-2.09h6.72c1.31,0,2.09.79,2.09,2.09v10.21h6.46c1.31,0,2.09.79,2.09,2.09v4.1c0,1.31-.79,2.09-2.09,2.09h-6.46v18.5c0,4.71,2.88,4.89,5.41,4.89h.61c1.31,0,2.09.79,2.09,2.09v4.28c0,1.31-.79,2.09-2.09,2.09h-5.15c-8.03,0-11.78-4.19-11.78-11.61Z"/>
            <path d="M1605.47,336.54c-.7-1.13-.35-2.09.79-2.88l4.1-2.71c1.05-.7,1.92-.44,2.79.52,1.92,2.09,5.67,4.28,9.6,4.28s5.76-1.13,5.76-3.75c0-3.23-5.15-4.1-8.29-5.15-3.14-1.05-13.88-3.58-13.88-12.39s7.51-12.22,16.15-12.22c7.59,0,12.92,3.05,15.54,6.72.79,1.13.44,2.18-.7,2.88l-3.67,2.36c-1.05.7-2.01.52-2.97-.35-1.92-1.66-5.24-3.32-8.55-3.32-3.58,0-5.15,1.4-5.15,3.4,0,3.23,4.97,4.1,8.12,5.15,3.14,1.05,14.05,3.84,14.05,12.48s-6.28,12.92-16.58,12.92c-8.73,0-14.49-3.75-17.11-7.94Z"/>
          </g>
          <g>
            <path d="M671.57,189.37c9.46,13.26,22.8,20.5,37.08,28.02-3.19,4.75-5.55,9.67-9.16,13.37-8.47,8.67-17.61,16.68-26.32,25.13-3.4,3.3-6.72,3.16-10.73,1.35-21.83-9.9-37.96-25.98-49.48-46.62-3.08-5.52-6.43-7.51-12.57-8.33-38.12-5.05-64.32-25.61-76.44-62.31-10.08-30.54-9.48-61.01,5.33-90.24,11.05-21.79,28.47-36.61,51.77-43.87,28.66-8.93,56.99-7.6,84.18,5.56,21.72,10.51,35.81,28.16,43.58,50.69,8.01,23.21,9.51,47.04,3.28,70.88-5.84,22.35-17.91,40.79-37.2,54.07-.87.6-1.74,1.21-3.32,2.3ZM582.32,99.24c1.37,9.02,1.93,15.83,3.51,22.39,3.09,12.88,10.86,21.85,24.25,24.28,13.14,2.39,24.53-1.4,32.77-12.4,13.27-17.72,12.08-50.62-2.28-67.39-14.21-16.61-43.14-12.87-51.49,7.24-3.63,8.74-4.89,18.46-6.76,25.88Z"/>
            <path d="M962.78,133.35c0,2.35.02,4.28,0,6.2-.17,18.26-.44,36.52-.45,54.78,0,3.73-.91,5.68-4.97,5.76-16.63.36-33.26,1.05-49.89,1.25-7.52.09-7.94-.56-8.14-7.82-.73-26.83-1.7-53.67-1.93-80.51-.3-34.19,0-68.38.13-102.58.03-6.82,1.28-8.58,8.01-8.7,15.9-.27,31.81.11,47.71.21,5.65.03,7.43,2.9,7.53,8.4.38,21.82,1.15,43.64,1.79,65.91h51.69c0-9.09-.11-18.33.03-27.56.19-12.53.65-25.05.83-37.58.06-3.85,1.14-5.98,5.48-6,17.54-.05,35.07-.29,52.61-.48,3.26-.04,4.83,1.22,4.87,4.76.09,8.76.72,17.53.71,26.29-.04,46.02-.19,92.03-.39,138.05-.03,6.61-.75,13.22-.81,19.84-.04,4.21-1.75,6.55-5.94,6.55-17.67.02-35.35-.04-53.02-.13-4.4-.02-3.85-3.51-3.89-6.22-.27-17.72-.65-35.45-.51-53.17.04-5.43-1.14-7.39-6.99-7.24-12.88.34-25.78-.19-38.67-.33-1.75-.02-3.5.17-5.79.29Z"/>
            <path d="M1293.17,195.86c-9.77,1.15-18.94,2.49-28.16,3.25-10.34.85-20.76.9-31.08,1.88-4.21.4-5.75-1.21-6.88-4.73-3-9.36-6.08-18.7-9.43-27.94-.57-1.58-2.59-3.73-3.98-3.75-14.48-.27-28.97-.17-44.19-.17-2.06,7.38-4.45,15.35-6.51,23.42-3.26,12.78-3.18,13.06-16.09,12.29-15.18-.91-30.33-2.3-45.49-3.56-2.27-.19-4.5-.8-7.39-1.33,2.15-7.57,4.03-14.6,6.14-21.55,12.9-42.59,25.79-85.19,38.82-127.74,3.82-12.47,7.89-24.87,12.26-37.15.68-1.92,3.58-4.26,5.54-4.34,22.89-.93,45.8-1.42,68.7-2.15,4.7-.15,6.91,1.94,8.38,6.34,14.3,42.71,29.02,85.27,43.1,128.05,5.75,17.47,10.25,35.36,15.27,53.07.43,1.52.52,3.14.98,6.12ZM1195.02,59.94c-.55,0-1.1,0-1.65-.01-5.06,18.91-10.11,37.83-15.27,57.12h32.36c-5.22-19.33-10.33-38.22-15.43-57.11Z"/>
            <path d="M1644.64,195.78c-9.51,1.17-18.32,2.53-27.19,3.27-11.23.94-22.51,1.49-33.77,1.86-1.48.05-3.9-1.59-4.41-2.99-3.53-9.55-6.76-19.21-9.88-28.9-1.07-3.33-2.64-4.81-6.44-4.75-13.93.25-27.88.1-42.19.1-2.72,9.78-5.69,19.9-8.31,30.1-1.1,4.29-2.97,6.34-7.76,5.94-17.65-1.49-35.32-2.65-52.98-4-1.91-.15-3.78-.74-6.29-1.25,2.84-10.05,5.43-19.65,8.28-29.17,9.13-30.47,18.24-60.95,27.6-91.35,6.63-21.53,13.7-42.91,20.45-64.4,1.27-4.05,3.2-6.11,7.89-6.19,22.19-.37,44.38-1.08,66.56-1.76,4.69-.14,7.25,1.42,8.88,6.3,12.05,36.11,24.79,71.99,36.64,108.16,7.62,23.24,14.11,46.85,21.06,70.31.7,2.38,1.05,4.86,1.85,8.71ZM1546.32,59.85c-.55.06-1.09.12-1.64.18-5.05,18.9-10.11,37.79-15.19,56.8h32.27c-5.25-19.38-10.35-38.18-15.44-56.98Z"/>
            <path d="M807.01,0c19.98,1.61,39.41,4.2,57.88,11.88,9.58,3.98,10.43,5.18,6.92,14.85-3.89,10.73-8.29,21.29-12.86,31.75-2.74,6.28-4.16,6.09-10.83,4.31-12.57-3.35-25.22-6.56-38.02-8.74-5.19-.88-10.98.66-16.26,2.02-1.98.51-4.6,3.7-4.56,5.61.05,2.29,2.17,5.82,4.21,6.55,7.36,2.65,15,4.63,22.65,6.35,13.85,3.12,27.39,6.88,39.47,14.71,21.91,14.2,28.15,40.41,21.5,63.5-6.51,22.61-23.04,35.7-44.89,42.12-30.78,9.04-60.94,4.9-90.54-5.83-3.85-1.4-7.76-2.91-11.18-5.09-1.62-1.04-3.43-4.19-2.97-5.71,4.37-14.32,9.14-28.52,14-42.69.87-2.55,2.87-3.08,5.64-1.74,8.37,4.02,16.73,8.16,25.39,11.48,10.64,4.08,21.68,6,33.14,3.35,4.19-.97,7.64-2.72,8.11-7.31.5-4.86-2.76-7.91-6.81-9.19-8.67-2.76-17.47-5.22-26.35-7.15-12.06-2.62-23.42-6.71-33.15-14.39-8.55-6.74-14.11-15.63-16.72-26.22-9.9-40.24,8.03-69.41,45.61-79.55,9.92-2.68,20.4-3.3,30.62-4.87Z"/>
            <path d="M1370.18,143.62h70.91v54.49c-44.16,1.98-87.9.55-133.19-.54v-38.72c0-35.99-.09-71.98.04-107.96.05-13.78.63-27.55.93-41.33.06-2.86.21-5.34,4.13-5.44,17.34-.43,34.67-.95,52.01-1.51,3.7-.12,4.96,1.53,4.96,5.12-.01,19.69.17,39.38.2,59.07.04,25.38.01,50.75.01,76.83Z"/>
          </g>
        </g>
      </g>
      <g>
        <g>
          <path d="M304.56,134.05c.28,11.79,9.98,21.78,21.32,21.96,12.36.2,21.85-9.99,21.6-23.19-.23-12.47-9.14-21.22-21.47-21.08-12.33.13-21.75,9.93-21.45,22.31ZM364.6,137.34c.08,11.37,7.8,19.38,18.63,19.35,9.89-.04,18.92-9.31,19.03-19.56.12-11.13-8.56-19.71-19.67-19.45-11.27.25-18.07,7.69-17.99,19.66Z"/>
          <path d="M.08,182.66c.41,16.29,2.28,32.4,6.73,48.13,4.82,17.02,12.45,32.61,23.72,46.33,9.23,11.24,20.24,20.42,32.6,28.02,12.32,7.57,25.49,13.32,39.16,17.94,14.44,4.87,29.21,8.42,44.19,11.19,10.42,1.93,20.88,3.52,31.41,4.7,9.6,1.07,19.23,1.92,28.85,2.71,16.09,1.32,32.21,1.98,48.34,2.37,8.44.2,16.88.33,25.32.44,2.87.04,5.75-.19,8.62-.36.92-.05,1.86-.21,2.72-.52,3.81-1.41,7.83-1.52,11.8-1.99,34.83-4.19,65.64-17.23,91.14-41.71,17.98-17.26,30.11-38.13,37.26-61.94,3.26-10.87,5.28-21.97,6.33-33.26.73-7.9.96-15.8.45-23.72-1.59-24.98-7.74-48.65-20.3-70.47-7.46-12.94-16.77-24.37-27.9-34.33-.61-.55-1.22-1.1-1.81-1.67-.09-.08-.14-.2-.22-.37-6.53-5.64-13.52-10.75-20.92-15.26-1.58-.96-3.18-1.9-4.8-2.81-.19.09-.39.18-.59.28-8.7-4.57-17.78-8.38-27.2-11.39-.1-.03-.19-.06-.28-.09,0-.14.03-.27.06-.39-.08-.2-.15-.41-.22-.64,0-.03-.01-.06-.03-.08-8.24-2.66-16.79-4.64-25.56-5.9-4.28-.61-8.61-1.04-12.99-1.29-.16.26-.31.53-.45.8-.03,0-.06,0-.09,0-.58.05-1.15.13-1.71.11-8.33-.32-16.66-.33-24.96.48-6.83.68-13.52,1.68-20.05,3.05h-.01c-28.3,5.91-53.65,18.5-75.27,39.33-17.87,17.22-29.9,38.04-37.01,61.75-3.26,10.86-5.27,21.96-6.33,33.26-.72,7.8-.95,15.6-.46,23.42,1.7,27.14,8.75,52.64,23.38,75.79.92,1.45,1.85,2.91,3.18,5.01-2.53-.38-4.25-.62-5.96-.9-11.98-1.97-23.81-4.56-35.29-8.62-5.72-2.03-11.28-4.44-16.63-7.32-18.18-9.81-30.28-24.63-36.48-44.29-2.8-8.87-4.31-17.97-5.11-27.21-.69-7.91-.82-15.83-.49-23.74.31-7.29.75-14.59,1.56-21.84,1.63-14.54-7.66-27.94-21.95-30.91-16.93-3.52-31.68,8.56-33.45,23.9-1.68,14.63-2.66,29.29-2.3,44.02ZM364.6,137.34c-.08-11.97,6.72-19.41,17.99-19.66,11.12-.26,19.79,8.32,19.67,19.45-.11,10.25-9.14,19.52-19.03,19.56-10.83.04-18.55-7.97-18.63-19.35ZM326.01,111.74c12.32-.14,21.24,8.61,21.47,21.08.25,13.2-9.24,23.39-21.6,23.19-11.34-.19-21.04-10.17-21.32-21.96-.3-12.38,9.12-22.17,21.45-22.31Z"/>
          <path class="cls-1" d="M304.56,134.05c.28,11.79,9.98,21.78,21.32,21.96,12.36.2,21.85-9.99,21.6-23.19-.23-12.47-9.14-21.22-21.47-21.08-12.33.13-21.75,9.93-21.45,22.31ZM311.66,132.96c.2-7.46,5.66-12.94,12.73-12.78,6.87.15,12.22,6.03,12.19,13.4-.03,8.13-5.23,13.19-13.27,12.87-7.42-.28-11.87-5.44-11.65-13.49Z"/>
          <path class="cls-1" d="M364.6,137.34c.08,11.37,7.8,19.38,18.63,19.35,9.89-.04,18.92-9.31,19.03-19.56.12-11.13-8.56-19.71-19.67-19.45-11.27.25-18.07,7.69-17.99,19.66ZM381.1,125.16c5.96.73,10.54,3.59,11.05,10.79.49,6.89-4.08,12.5-10.67,12.5-6.85,0-11.02-3.61-11.58-10.63-.56-6.96,4.1-12.37,11.19-12.66Z"/>
          <path d="M324.39,120.18c-7.07-.16-12.53,5.32-12.73,12.78-.22,8.06,4.23,13.21,11.65,13.5,8.04.31,13.25-4.74,13.27-12.88.02-7.37-5.32-13.25-12.19-13.41Z"/>
          <path d="M381.1,125.16c-7.09.29-11.75,5.7-11.19,12.66.56,7.02,4.73,10.63,11.58,10.63,6.59,0,11.16-5.61,10.67-12.5-.51-7.2-5.09-10.06-11.06-10.79Z"/>
        </g>
        <path d="M295.19,37.86c13.85.69,27.29,3.27,40.02,7.49-.08-.12-.17-.25-.24-.39-.08-.15-.15-.31-.22-.48-.08-.2-.15-.41-.22-.64,0-.03-.01-.06-.03-.08-3.37-12.03-6.85-24.01-10.29-36.02-.48-1.65-.86-3.33-1.48-4.92-.87-2.25-2.86-3.2-5.18-2.69-.98.22-1.81.68-2.39,1.5-.43.61-.8,1.27-1.16,1.92-5.86,10.59-11.72,21.17-17.56,31.76-.37.65-.68,1.32-1.02,2.06-.07.15-.15.32-.23.48Z"/>
        <path d="M359.14,55.19c12.6,6.3,24.19,14.39,34.44,23.95-.49-.81-.86-1.69-1.11-2.7-2.25-9.29-4.67-18.54-7.03-27.8-1.53-5.98-3.07-11.94-4.62-17.91-.16-.59-.33-1.2-.6-1.74-1.47-2.86-5.21-3.21-7.15-.65-.55.73-.94,1.59-1.35,2.42-3.71,7.34-7.4,14.69-11.12,22.03-.41.81-.65,1.75-1.46,2.4Z"/>
        <path class="cls-1" d="M360.3,184.07c2.46-3.75,4.87-7.43,7.3-11.11.22-.34.52-.64.76-.97.77-1.09-.04-2.17-.91-2.48-.37-.13-.81-.12-1.21-.14-4.93-.16-9.85-.32-14.78-.46-.92-.03-1.86-.04-2.76.1-1.48.23-2.11,1.24-1.6,2.67.41,1.15.91,2.3,1.55,3.34,1.39,2.28,2.89,4.49,4.35,6.73.33.51.64,1.04.98,1.59-.47,1.81-1.56,3.14-2.82,4.36-4.77,4.6-12.88,5.55-18.6,2.19-1.52-.9-2.82-2.05-3.89-3.46-.43-.57-.8-1.21-1.3-1.72-.51-.53-1.17-.86-1.95-.61-.78.25-1.08.87-1.22,1.63-.22,1.28.02,2.52.79,3.51.8,1.05,1.71,2.09,2.77,2.85,4.96,3.56,10.57,4.91,16.61,4.43,2.85-.22,5.33-1.56,7.4-3.48,1.42-1.32,2.61-2.88,3.88-4.35.39-.45.73-.95,1.04-1.36.93.11,1.01.83,1.31,1.3,1.09,1.76,2.35,3.37,3.93,4.71,2.63,2.22,5.64,3.24,9.11,3,3.1-.21,6.12-.71,8.93-2.09,1.39-.69,2.7-1.48,3.69-2.71.75-.93,1.07-1.97.89-3.16-.21-1.38-1.55-2.09-2.76-1.4-.43.24-.82.62-1.14,1-5.81,6.91-17.82,3.51-20.34-3.89Z"/>
      </g>
    </g>
  </g>
</svg>