<?xml version="1.0" encoding="UTF-8"?>
<svg id="Layer_1" data-name="Layer 1" xmlns="http://www.w3.org/2000/svg" viewBox="0 0 782.89 482.23">
  <defs>
    <style>
      .cls-1 {
        fill: #fff;
      }
    </style>
  </defs>
  <path d="M274.67,352.59c-.82-2.38-1.28-3.88-1.84-5.33-6.28-16.17-10.4-32.91-12.86-50.05-2.18-15.24-3.04-30.56-2.05-45.94,1.94-30.31,8.62-59.44,22.06-86.82,19.72-40.15,49.86-70.06,89.53-90.44,22.38-11.5,46.12-18.76,71.02-22.38,19.09-2.78,38.21-3.35,57.41-1.55,3.66.34,7.3.88,10.95,1.32.94.11,1.88.19,2.64.26,1.05-1.71,1.9-3.22,2.87-4.65,9.52-14.03,19.05-28.05,28.59-42.06.72-1.06,1.4-2.17,2.3-3.06,3.25-3.25,8.51-2.16,10.24,2.12.42,1.02.61,2.15.82,3.24,3.52,18.53,7.02,37.06,10.54,55.59.3,1.56.7,3.09,1.01,4.45,8.66,4.38,17.04,8.61,25.68,12.97.87-1.32,1.77-2.62,2.59-3.96,6.27-10.22,12.53-20.45,18.8-30.68.67-1.09,1.32-2.2,2.08-3.22,1.6-2.14,3.79-2.84,6.37-2.34,2.65.51,4.31,2.18,4.82,4.74,1.09,5.49,2.04,11,2.96,16.52,2.97,17.82,5.93,35.64,8.84,53.46.5,3.06,1.6,5.65,3.69,8.09,21.54,25.15,35.47,54.14,43.15,86.24,3.81,15.92,5.76,32.09,6.53,48.41.5,10.74-.39,21.41-1.52,32.08-1.5,14.19-4.17,28.15-8.37,41.79-19.08,61.98-58.95,105.13-118.52,130.23-19.41,8.18-39.7,13.22-60.63,15.62-2.7.31-5.41.52-8.1.88-1.41.19-2.86.45-4.16.99-4.95,2.07-10.09,2.97-15.43,3.03-21.12.23-42.23-.02-63.3-1.46-23.63-1.62-47.11-4.42-70.3-9.38-18.64-3.99-36.87-9.33-54.48-16.66-31.75-13.22-58.76-32.94-80.79-59.34-7.38-8.83-14.28-18.06-21.33-27.17-7.14-9.23-14.05-18.65-21.33-27.78-3.98-4.99-8.35-9.7-12.81-14.27-18.47-18.96-40.8-31.07-66.49-37.15-15.47-3.66-31.19-5.33-47.05-5.71-9.49-.23-17.97-3.21-25.01-9.53-12.35-11.09-16.59-25.03-11.93-40.85,4.61-15.64,15.62-24.84,31.8-27.66,5.57-.97,11.17-.55,16.76-.36,13.59.47,27.15,1.4,40.6,3.48,19.2,2.96,37.86,7.83,55.66,15.73,24.74,10.99,45.3,27.41,62.67,48.02,7.64,9.06,14.62,18.61,21.49,28.25,5.66,7.94,11.28,15.92,17.08,23.76,6.57,8.89,13.75,17.27,21.79,24.88,1.25,1.18,2.35,2.61,4.97,3.64ZM529.98,178.77c-7.16-.65-19.59-.46-23.21.35-.13.81-.37,1.73-.39,2.65-.05,2.56-.19,5.13.05,7.67.75,7.91,4.3,14.31,10.8,18.96,10.61,7.57,26.41,7.56,37-.04,6.65-4.77,10.13-11.35,10.81-19.46.05-.55-.12-1.13-.27-2.27-1.16,1.39-1.92,2.37-2.74,3.28-6.73,7.43-19.6,7.94-26.87,1.06-2.52-2.39-4.05-5.32-4.67-8.73-.2-1.07-.33-2.16-.53-3.46ZM587.69,186.34c-.12.44-.33.88-.34,1.33-.06,1.28-.12,2.56-.03,3.83.65,9.74,5.05,17.09,14.11,21.09,8.34,3.69,16.79,3.52,25.01-.5,6.55-3.2,10.7-8.48,12.34-15.6,1.01-4.41.98-8.89.03-13.32-.33-1.52-.97-2.96-1.55-4.67-3.11-.02-5.96-.14-8.81-.02-2.8.11-5.69-.59-8.59.6.15,4.12.39,8.13-1.84,11.74-2.33,3.76-5.73,6-9.98,6.82-3.99.77-7.94.48-11.68-1.36-4.28-2.11-6.62-5.75-8.66-9.93ZM575.37,235.98s0-.07,0-.11c-2.06,0-4.14-.14-6.19.04-1.99.17-2.76,1.4-2.19,3.37.39,1.36.96,2.72,1.68,3.93,2.44,4.11,4.98,8.16,7.48,12.23.25.4.52.81.85,1.15.75.78,1.8,1.03,2.59.39,1.48-1.18,2.97-2.45,4.1-3.94,2.97-3.94,5.76-8.02,8.62-12.05.18-.26.33-.54.46-.83.43-1-.18-2.45-1.22-2.76-.6-.18-1.25-.24-1.88-.29-4.76-.38-9.53-.75-14.29-1.12Z"/>
  <path d="M724.21,224.5c4.23.75,9.31,1.38,14.26,2.58,9.77,2.35,19.46,5.04,29.19,7.54,3.55.91,7.13,1.71,10.72,2.45,4.13.86,5.87,5.06,3.33,8.36-1.14,1.48-2.6,2.14-4.6,1.72-12.95-2.74-25.94-5.3-38.88-8.13-4.82-1.06-9.56-2.54-14.24-4.11-2.23-.75-4.31-2.05-6.32-3.32-1.25-.79-1.92-2.08-1.53-3.73.39-1.6,1.46-2.47,2.95-2.78,1.4-.28,2.84-.34,5.12-.59Z"/>
  <path d="M306.14,92.77c-.06,2.23-.81,3.77-2.42,4.78-1.31.82-2.72.97-4.05.02-.91-.64-1.77-1.37-2.61-2.11-11.26-9.97-21.95-20.52-31.71-31.98-2.28-2.67-4.34-5.53-6.36-8.4-.91-1.29-1.54-2.79-2.19-4.24-.55-1.23-.6-2.48.49-3.53,1.12-1.08,2.46-1.64,3.93-1.05,1.47.6,2.96,1.29,4.2,2.24,2.41,1.84,4.78,3.76,6.93,5.89,3.85,3.83,7.55,7.81,11.26,11.78,7.2,7.7,13.46,16.25,21.22,23.45,1.02.95,1.26,2.17,1.31,3.13Z"/>
  <path d="M782.21,174.86c-.28.5-.6,1.67-1.36,2.33-1.43,1.24-3.01,2.41-4.72,3.2-3.76,1.73-7.55,3.47-11.47,4.74-8.33,2.7-16.75,5.14-25.15,7.63-5.34,1.59-10.8,2.85-16.04,4.7-4.55,1.6-7.38-2.81-6.55-6,.42-1.63,1.29-2.97,2.99-3.43,14.01-3.83,27.22-9.99,41.15-14.03,3.67-1.06,7.38-2.05,11.13-2.74,2.32-.43,4.76-.39,7.12-.25,1.78.11,2.81,1.53,2.89,3.85Z"/>
  <path d="M230.07,104.99c3.31.62,7.3,1.08,11.11,2.14,9.21,2.58,18.33,5.45,27.5,8.18,5.49,1.64,10.99,3.26,16.51,4.81,2.06.58,3.36,1.75,3.82,3.82.46,2.04-.14,3.82-1.62,5.22-1.09,1.03-2.38,1.43-3.96,1.02-14.18-3.74-28.39-7.35-42.54-11.18-3.83-1.04-7.55-2.56-11.21-4.12-1.88-.8-3.58-2.06-5.25-3.26-1.3-.94-1.49-2.38-1.09-3.89.38-1.41,1.4-2.09,2.75-2.3,1.1-.17,2.21-.25,3.98-.45Z"/>
  <path class="cls-1" d="M529.98,178.77c.2,1.3.33,2.39.53,3.46.62,3.41,2.14,6.34,4.67,8.73,7.27,6.88,20.14,6.37,26.87-1.06.82-.91,1.58-1.88,2.74-3.28.14,1.15.31,1.72.27,2.27-.68,8.1-4.16,14.68-10.81,19.46-10.59,7.6-26.39,7.62-37,.04-6.51-4.64-10.06-11.05-10.8-18.96-.24-2.54-.1-5.11-.05-7.67.02-.92.26-1.84.39-2.65,3.63-.81,16.05-1,23.21-.35Z"/>
  <path class="cls-1" d="M587.69,186.34c2.03,4.18,4.37,7.82,8.66,9.93,3.75,1.85,7.69,2.13,11.68,1.36,4.25-.82,7.65-3.05,9.98-6.82,2.24-3.61,1.99-7.62,1.84-11.74,2.91-1.19,5.79-.49,8.59-.6,2.85-.11,5.7,0,8.81.02.58,1.71,1.23,3.15,1.55,4.67.95,4.43.99,8.9-.03,13.32-1.64,7.12-5.79,12.4-12.34,15.6-8.22,4.02-16.68,4.19-25.01.5-9.06-4.01-13.46-11.36-14.11-21.09-.09-1.27-.02-2.55.03-3.83.02-.45.22-.88.34-1.33Z"/>
  <path class="cls-1" d="M575.37,235.98c4.76.37,9.53.74,14.29,1.12.63.05,1.28.12,1.88.29,1.04.3,1.65,1.75,1.22,2.76-.12.29-.27.57-.46.83-2.85,4.03-5.64,8.11-8.62,12.05-1.13,1.5-2.62,2.76-4.1,3.94-.79.64-1.84.38-2.59-.39-.33-.34-.6-.74-.85-1.15-2.51-4.07-5.05-8.12-7.48-12.23-.72-1.22-1.28-2.57-1.68-3.93-.57-1.97.2-3.2,2.19-3.37,2.05-.17,4.13-.04,6.19-.04,0,.04,0,.07,0,.11Z"/>
</svg>