<?xml version="1.0" encoding="UTF-8"?>
<svg id="Layer_1" data-name="Layer 1" xmlns="http://www.w3.org/2000/svg" viewBox="0 0 867.96 371.78">
  <defs>
    <style>
      .cls-1 {
        fill: #8b8b8b;
      }

      .cls-2 {
        fill: #fcfcfc;
      }

      .cls-3 {
        fill: #7e7e7e;
      }

      .cls-4 {
        fill: #fff;
      }

      .cls-5 {
        fill: #cecece;
      }

      .cls-6 {
        fill: #606060;
      }

      .cls-7 {
        fill: #878787;
      }

      .cls-8 {
        fill: #fcb017;
      }

      .cls-9 {
        fill: #fffefd;
      }

      .cls-10 {
        fill: #fffefc;
      }

      .cls-11 {
        fill: #31b2e8;
      }

      .cls-12 {
        fill: #30b2e8;
      }

      .cls-13 {
        fill: #fffffe;
      }

      .cls-14 {
        fill: #9d9d9d;
      }

      .cls-15 {
        fill: #fdfdfd;
      }

      .cls-16 {
        fill: #32b3e8;
      }
    </style>
  </defs>
  <path class="cls-12" d="M161.25,39.11c22.23,0,44.47,0,66.7,0,7.37,0,6.26-.23,6.32,6.57.04,4.48.11,8.96-.03,13.44-.07,2.25.84,3.5,2.77,4.5,7.39,3.86,14.37,8.37,20.96,13.46,30.9,23.89,50.86,54.84,59.66,92.9,3.34,14.42,4.57,29.07,3.68,43.82-1.99,32.79-12.72,62.45-32.66,88.65-13.75,18.06-30.59,32.58-50.49,43.56-5.5,3.03-4.67,1.7-4.79,8.06-.08,4.16-.01,8.32-.02,12.48,0,1.12,0,2.24-.05,3.36-.04,1.1-.59,1.79-1.75,1.83-.96.04-1.92.05-2.88.04-40.31-.09-80.62-.17-120.93-.29-6.07-.02-12.15-.2-18.22-.35-1.88-.05-2.25-.41-2.28-2.3-.06-4.32-.03-8.64-.04-12.96,0-.8.03-1.6.02-2.4-.08-6.03.79-4.79-4.4-7.76-1.8-1.03-3.62-2.04-5.39-3.14-35.93-22.32-59.84-53.78-71.58-94.42-2.66-9.22-4.24-18.67-5.15-28.25-.56-5.91-.82-11.81-.69-17.72.61-28.06,7.82-54.31,22.11-78.49,15.24-25.79,36.06-45.88,62.44-60.15.42-.23.82-.5,1.27-.68,1.7-.68,2.34-1.89,2.31-3.74-.09-4.8-.03-9.6-.02-14.4,0-1.44.03-2.88.11-4.31.05-.89.57-1.47,1.5-1.53,1.12-.06,2.24-.09,3.35-.09,22.71,0,45.43,0,68.14,0v.31Z"/>
  <g>
    <path d="M605.82,349c-3.55,11.54-13.38,19.34-24.88,19.97-12.35.67-23.25-6.55-27.68-17.53-.3-.74-.5-1.52-.76-2.27-.41-1.2-1.22-1.69-2.54-1.7-3.84-.05-7.67-.16-11.5-.36-23.88-1.26-46.16-8.01-66.98-19.67-.42-.23-.88-.43-1.24-.73-2.13-1.83-4.12-1.44-6.44-.1-4.7,2.72-9.5,5.27-14.37,7.67-8.45,4.15-17.04,4.15-25.36-.22-17.6-9.23-20.3-32.99-5.11-46,1.21-1.04,2.53-1.94,3.81-2.91.36-1.11-.54-1.71-1.02-2.46-2.59-4.03-5.3-7.99-7.77-12.1-1.02-1.69-2.06-2.49-4.14-2.45-7.03.13-14.07-.02-21.11.04-3.08.03-6.09-.35-8.98-1.29-14.47-4.68-20.82-18.21-19.45-29.58,2.03-16.78,15.96-24.85,26.67-24.88.96,0,1.92-.05,2.88-.02,4.95.15,4.19-.03,3.82-4.02-.99-10.54-1.1-21.1.03-31.62,2.98-27.77,12.62-53.01,29.12-75.58,1.7-2.32,3.41-4.65,5.32-6.8,1.56-1.76,2.33-3.75,2.71-6,1.97-11.82,3.95-23.64,5.96-35.45.8-4.72,1.7-9.43,2.56-14.15.11-.63.15-1.27.3-1.89.5-2.08,1.83-3.37,3.93-3.69,1.95-.3,3.39.7,4.45,2.25.63.92,1.18,1.9,1.76,2.85,4.4,7.24,8.78,14.49,13.2,21.71,1.26,2.06,1.36,2.08,3.29.91,4.65-2.81,9.36-5.53,14.3-7.78,1.65-.75,2.38-1.92,2.7-3.58,1.06-5.49,2.19-10.96,3.24-16.46,1.4-7.38,2.74-14.77,4.12-22.15.18-.94.38-1.89.7-2.79,1.22-3.43,5.27-4.22,7.68-1.47.84.95,1.48,2.08,2.19,3.14,6.09,9.01,12.25,17.96,18.2,27.06,1.52,2.32,3.08,3.15,5.85,2.66,7.89-1.41,15.87-1.93,23.88-1.72,50.47,1.31,91.32,21.88,122.24,61.74,15.47,19.94,24.91,42.69,29.09,67.55,3.46,20.59,2.64,41.09-2.08,61.43-.11.47-.3.91-.4,1.38-.19.97.34,1.56,1.31,1.41,3.15-.51,6.31-1,9.45-1.58,16.08-2.96,31.71-7.4,46.56-14.37,11.8-5.54,22.67-12.48,32.11-21.54,9.73-9.35,17.23-20.19,21.38-33.09,6.04-18.78,3.97-36.92-5.07-54.32-6.7-12.91-16.41-23.15-28.33-31.35-12.14-8.35-25.54-13.79-39.83-17.08-4.82-1.11-9.71-1.97-14.6-2.71-12.6-1.91-22.48-12.92-23.25-25.65-.84-13.86,8.36-25.53,20.63-28.77,4.43-1.17,8.89-1.05,13.33-.38,21.01,3.15,41.14,9.14,59.94,19.17,24.37,13.01,44.13,30.98,58.35,54.8,9.9,16.58,15.95,34.51,17.53,53.76,2.75,33.51-6.52,63.55-27.14,90.05-13.05,16.77-29.23,29.88-47.65,40.33-17.63,10-36.44,16.99-56.04,21.94-15.52,3.92-31.26,6.59-47.22,7.92-6.37.53-12.75,1-19.13,1.41-1.56.1-2.63.66-3.67,1.85-4.16,4.75-4.2,4.72-4.21,11.02-.03,12.96-.14,25.91-.07,38.87.06,11-7.5,22.99-20.45,26.51-13.54,3.68-27.77-3.18-33.16-16.11-.55-1.32-.84-2.74-1.26-4.11-1.38-.91-1.31.41-1.67,1.08Z"/>
    <path class="cls-6" d="M605.82,349c.04-.56-.02-1.16.14-1.68.16-.5.48-1.19,1.16-.93.66.26.5.95.36,1.53-.56.36-1.11.72-1.67,1.08Z"/>
    <path class="cls-15" d="M503.04,154.13c6.79-1.56,11.32-5.66,13.56-12.21,3.38-9.87-2.33-20.67-12.35-23.5-1.38-.39-2.8-.64-4.2-.95-.32-.21-.42-.43-.32-.64.1-.22.2-.33.31-.33,12.06-3.45,24.71,5.25,25.95,17.73,1.14,11.4-6.52,21.43-17.97,23.21-4.07.63-7.91-.18-11.66-1.7,1.63-3.02,4.67-.17,6.68-1.6Z"/>
    <path class="cls-2" d="M440.61,153.87c2.35.3,4.65.69,7.09.39,5.8-.71,12.02-5.84,13.1-12.73,1.13-7.27-2.14-13.99-8.47-17.08-1.27-.62-2.69-.9-4.05-1.34-.48-.72-2.43.22-1.89-1.67,2.87-.34,5.73-.46,8.55.35,10.49,3.01,16.15,14.12,12.39,24.31-3.65,9.91-15.09,14.73-24.85,10.46-1.01-.44-1.93-1.11-2.89-1.68-.21-.88-.02-1.36,1.01-1.01Z"/>
    <path class="cls-2" d="M483.44,173.93c-.1.29-.19.77-.42,1.17-2.3,3.84-4.58,7.68-6.95,11.48-.88,1.41-2.14,1.55-3.11.31-2.75-3.53-5.46-7.09-8.08-10.71-1.05-1.45-.28-2.78,1.62-2.93,4.62-.36,9.25-.65,13.87-.95.63-.04,1.31-.09,1.9.09.59.18,1.08.65,1.17,1.55Z"/>
    <path class="cls-3" d="M503.04,154.13c-1,1.08-2.34.77-3.58.9-1.06.11-2.26-.36-3.11.7-.56-.2-1.13-.37-1.66-.63-.22-.11-.43-.41-.49-.66-.09-.39.16-.56.56-.55,2.76.08,5.52.16,8.27.24Z"/>
    <path class="cls-1" d="M446.4,121.44c.63.56,1.26,1.11,1.89,1.67h-5.31c.94-1.43,1.94-2.03,3.43-1.67Z"/>
    <path class="cls-14" d="M440.61,153.87c-.34.34-.67.67-1.01,1.01-1.13-.14-1.84-.79-2.21-1.84.41-.47.87-.51,1.35-.11.77.03,1.42.3,1.87.95Z"/>
    <path class="cls-5" d="M500.04,116.49c0,.32,0,.65.01.97-.58.02-1.16.05-1.74.04-.12,0-.34-.2-.33-.25.07-.21.18-.54.32-.57.57-.11,1.16-.13,1.74-.18Z"/>
    <path class="cls-7" d="M438.74,152.92c-.45.04-.9.08-1.35.11-.15-.2-.31-.4-.46-.61.24-.07.52-.26.7-.19.4.16.75.44,1.12.68Z"/>
  </g>
  <path class="cls-4" d="M253.91,138.16c.43,1.38-.48,2.47-.78,3.67-1.47,5.84.76,11.59,5.71,15.11,3.73,2.65,11.39,2.83,15.42-.24,4.74-3.61,6.84-9.14,5.4-14.79-.31-1.21-1.12-2.32-.84-3.66,1.21-.7,2.52-.27,3.77-.4,2.08-.22,3.18.84,4.08,2.59,5.85,11.45,10.16,23.44,12.71,36.05,2.19,10.84,3.27,21.81,2.86,32.88-1.05,28.37-9.55,54.29-25.97,77.5-14.04,19.85-32.09,35.06-53.96,45.68-13.31,6.47-27.31,10.7-42.02,12.67-11.8,1.58-23.67,1.65-35.41.45-22.79-2.33-43.85-10.03-62.83-22.97-31.56-21.51-51.47-51.02-59.77-88.28-2.69-12.06-3.67-24.35-2.91-36.69,1.25-20.34,6.24-39.71,15.79-57.81.3-.57.63-1.12.9-1.69.53-1.13,1.37-1.7,2.64-1.68,1.28.03,2.56-.01,3.84,0,34.38.14,68.76,0,103.13.51,34.85.51,69.7.37,104.56.68,1.24.01,2.54-.31,3.7.44Z"/>
  <path class="cls-8" d="M29.76,224.69c4.51-4.56,8.56-8.87,12.85-12.93,7.86-7.43,21.15-7.19,28.76.4,2.94,2.94,5.87,5.89,8.81,8.83.65.65,1.36.76,2.13.24.53-.36,1.05-.74,1.55-1.13,8.96-7.04,18.62-12.96,28.73-18.19,2.26-1.17,4.43-2.55,6.54-4,1.31-.9,2.5-2.01,3.59-3.17,5.33-5.67,5.16-11.31-.48-16.78-.8-.78-1.7-1.45-2.57-2.16-.49-.4-1.06-.74-1.49-1.19-.35-.36-.3-.84.13-1.19.11-.09.3-.1.46-.12,30.1-3.84,58.26,1.49,83.98,18.01,4.99,3.2,10.13,6.01,15.56,8.42,12.92,5.75,24.8,13.25,35.77,22.17.87.71,1.75,1.4,2.56,2.17.87.82.87,1.57-.14,2.41-2.2,1.85-4.41,3.71-6.72,5.42-15.81,11.72-32.94,20.81-51.98,26.1-3.08.85-6.19,1.59-9.32,2.21-1.5.3-2.61.93-3.6,2.09-6.31,7.35-14.42,11.48-23.88,13.1-5.27.9-10.51.6-15.69-.71-.82-.21-.86-.94-.49-1.5,1.15-1.76,2.1-3.55,2.45-5.67.24-1.45.21-2.83.01-4.28-.33-2.32-1.33-3.51-3.8-4.1-21.82-5.22-41.15-15.55-58.87-29.11-.38-.29-.75-.6-1.13-.89-2.18-1.64-2.19-1.65-4.31.4-1.84,1.78-3.64,3.6-5.46,5.4-.68.68-1.35,1.37-2.04,2.03-9.29,8.79-22.22,7.54-29.8-.13-3.93-3.98-7.88-7.93-12.09-12.17Z"/>
  <path class="cls-11" d="M258.16,179.37c-.02,5.88-4.89,10.74-10.7,10.67-5.95-.07-10.45-4.78-10.57-10.79-.1-5.09,3.71-10.43,10.68-10.65,5.79-.19,10.61,4.89,10.59,10.77Z"/>
  <path class="cls-16" d="M266.09,206.49c.03,4.06-2.83,7.01-6.81,7.02-3.84.01-6.96-3.16-6.89-7.01.07-3.82,2.8-6.57,6.65-6.68,4.14-.12,7.02,2.6,7.05,6.68Z"/>
  <path class="cls-10" d="M127.87,222.64c0-5.59,0-11.18,0-16.76,0-.96.03-1.91.12-2.86.08-.79.97-1.22,1.82-1.03,1.13.26,2.04.88,2.89,1.62,1.6,1.38,2.8,3.08,3.61,5.01,3.97,9.44,4.02,18.92.03,28.36-1.06,2.52-2.62,4.75-5.07,6.2-2.44,1.44-3.47.93-3.49-1.86-.04-6.23-.01-12.45-.01-18.68h.09Z"/>
  <path class="cls-9" d="M151.69,223.05c0-6.22-.02-12.45.01-18.67.01-2.49,1.05-2.99,3.29-1.75,1.89,1.04,3.16,2.65,4.24,4.44,2.2,3.63,3.15,7.67,3.61,11.8.69,6.12-.1,12.1-2.56,17.79-1.09,2.52-2.56,4.8-4.91,6.34-.65.43-1.42.73-2.17.94-.64.18-1.33,0-1.43-.8-.12-.94-.12-1.9-.12-2.86,0-5.74,0-11.49,0-17.23h.04Z"/>
  <path class="cls-13" d="M175.57,222.99c0-5.73,0-11.46,0-17.19,0-.95.02-1.91.14-2.85.1-.77.72-1,1.4-.86,2.15.46,3.62,1.91,4.9,3.57,1.98,2.57,3.12,5.56,3.82,8.67,1.5,6.64,1.31,13.27-.73,19.79-.67,2.13-1.59,4.16-2.94,5.97-1.16,1.55-2.5,2.88-4.3,3.69-1.31.59-2.25.14-2.32-1.21-.06-1.11-.05-2.23-.05-3.34,0-5.41,0-10.82,0-16.23.02,0,.04,0,.07,0Z"/>
  <path class="cls-10" d="M220.39,207.29c-3.42.59-6.19,1.89-6.24,5.78-.04,2.8,1.71,4.36,6.14,5.64-1.15,2.32-3.38,2.83-5.53,3.16-2.47.37-4.72-.52-6.61-2.13-3.81-3.23-4.16-9.15-.8-12.8,1.69-1.84,3.78-2.88,6.29-2.99,2.59-.11,4.19.66,6.76,3.33Z"/>
</svg>