<?xml version="1.0" encoding="UTF-8"?>
<svg id="Layer_1" data-name="Layer 1" xmlns="http://www.w3.org/2000/svg" viewBox="0 0 1133.98 783.12">
  <defs>
    <style>
      .cls-1 {
        fill: #010101;
      }

      .cls-2 {
        fill: #fff;
      }
    </style>
  </defs>
  <path class="cls-1" d="M1133.95,478.01c.94,64.09-21.59,118.89-66.32,164.6-21.47,21.94-46.34,39.32-73.16,54.02-31.13,17.09-64.06,29.9-97.96,40.23-35.29,10.77-71.23,18.7-107.56,24.93-28.27,4.85-56.63,8.72-85.15,11.52-24.74,2.46-49.55,4.22-74.32,5.89-43.79,2.96-87.67,3.34-131.55,3.9-164.25,2.2-307.51-106.46-349.06-265.42-9.92-37.93-13.28-76.52-10.2-115.68,5.86-74.26,32.49-140.14,79.42-197.87,2.9-3.56,4.56-7.33,5.29-11.77,3.46-20.74,6.96-41.52,10.45-62.26,3.02-17.88,9.85-57.67,10.7-59.49,2.96-6.36,11.17-7.87,16.15-2.86,1.79,1.83,3.15,4.19,4.53,6.42,9.95,16.18,19.86,32.39,29.81,48.6,1.51,2.46,3.12,4.85,5.04,7.77,7.15-4.09,13.91-8.09,20.78-11.87,6.89-3.81,13.91-7.37,21.31-11.24,1.89-9.29,3.9-18.7,5.67-28.14,4.25-22.41,8.37-44.86,12.56-67.24.38-2.01.76-4.09,1.57-5.92,2.86-6.48,10.92-8.18,16.05-3.31,1.89,1.79,3.31,4.09,4.75,6.26,14.32,21.03,28.61,42.09,42.9,63.15,1.64,2.39,3.37,4.72,5.26,7.33,95.98-14.48,184.9,3.49,264.42,59.75,79.39,56.19,128.43,132.84,145.08,228.69,16.62,95.72-4.03,184.08-58.8,264.83,1.76.16,2.64.44,3.46.28,40.26-7.74,79.89-17.72,117.82-33.59,15.68-6.55,30.82-14.2,45.05-23.48,10.32-6.74,19.99-14.29,28.74-22.98,23.64-23.58,32.36-52.06,28.61-84.9-2.49-21.72-9.1-42.24-17.66-62.2-7.74-18.04-17.03-35.29-27.23-52-6.58-10.77-10.32-22.29-10.14-34.91.6-38.91,32.52-63.62,63.05-63.33,23.14.22,41.74,9.44,54.02,28.9,25.21,40.01,45.39,82.41,57.32,128.43,5.51,21.31,8.97,42.97,9.29,64.97Z"/>
  <path class="cls-1" d="M776.06,159.64c-7.21-.08-11.27-6.33-8.62-11.78.87-1.79,2.27-3.39,3.65-4.86,20-21.31,40.04-42.59,60.09-63.86,1.2-1.27,2.45-2.56,3.9-3.49,3.31-2.12,7.82-1.48,10.47,1.26,2.85,2.95,3.31,6.87.98,10.43-1.11,1.69-2.55,3.19-3.94,4.68-19.42,20.66-38.85,41.31-58.29,61.95-1.2,1.27-2.33,2.71-3.77,3.64-1.64,1.07-3.6,1.67-4.46,2.05Z"/>
  <path class="cls-1" d="M901.32,180.1c-.03,1.1-1.43,3.61-4.27,5.01-2.08,1.02-4.36,1.66-6.6,2.3-26.68,7.59-53.38,15.16-80.07,22.72-1.97.56-3.92,1.2-5.93,1.56-4.65.82-8.92-1.94-10.1-6.35-1.03-3.89,1.16-8.06,5.37-9.88,1.87-.8,3.88-1.29,5.84-1.84,26.69-7.57,53.38-15.13,80.09-22.65,2.51-.71,5.12-1.42,7.7-1.47,4.8-.09,8.16,3.71,7.96,10.6Z"/>
  <path class="cls-1" d="M112.75,314.6c6.42-3.28,7.27-10.69,2.46-14.39-1.58-1.22-3.54-2.02-5.44-2.72-27.41-10.15-54.84-20.26-82.27-30.36-1.64-.6-3.33-1.2-5.05-1.39-3.91-.42-7.66,2.16-8.81,5.8-1.24,3.92.1,7.62,3.78,9.77,1.75,1.02,3.7,1.72,5.62,2.43,26.59,9.83,53.2,19.64,79.8,29.44,1.64.61,3.29,1.38,5,1.58,1.95.22,3.96-.11,4.91-.15Z"/>
  <path class="cls-1" d="M1.81,387.89c.51.97,2.89,2.59,6.05,2.58,2.31-.01,4.64-.46,6.93-.89,27.27-5.11,54.53-10.24,81.8-15.38,2.01-.38,4.05-.67,6-1.25,4.53-1.34,7.12-5.72,6.2-10.19-.81-3.94-4.63-6.7-9.21-6.44-2.03.11-4.04.58-6.05.96-27.26,5.13-54.53,10.27-81.78,15.45-2.56.49-5.22,1.02-7.54,2.12-4.33,2.06-5.65,6.96-2.4,13.04Z"/>
  <path class="cls-2" d="M528.2,255.68c-29.09,1.92-58.42,3.87-87.98,5.82-9.51-21.44-3.46-44.79,14.29-58.27,17.63-13.38,41.96-12.94,59.21,1.04,15.55,12.62,22.13,35.41,14.48,51.4Z"/>
  <path class="cls-2" d="M407.8,357.49c-3.51-5.2-7.26-10.74-11-16.28-2.45-3.63-5.05-7.18-7.3-10.93-2.3-3.82-.54-6.72,4.05-7.09.87-.07,1.75-.05,2.63-.05,12.86,0,25.72-.01,38.59.01,2.3,0,4.8-.39,6.32,2.02,1.78,2.83-.05,5-1.5,7.16-4.58,6.78-9.22,13.52-13.79,20.31-.96,1.43-1.72,3-2.79,4.88,5.56,13.67,16.19,20.31,30.35,21.37,12.06.9,22.34-3.44,30.34-12.75,1.33-1.54,2.57-3.19,4.07-4.54,1.47-1.33,4.03-1.17,5.73.02,1.9,1.32,2.7,3.26,2.02,5.35-.62,1.89-1.7,3.71-2.92,5.3-17.09,22.06-52.36,23.48-71.19,2.89-1.76-1.93-3.36-4.01-5.29-6.33-2.38.85-3.25,3.14-4.67,4.76-12.6,14.39-33.56,18.22-50.33,9.14-4.69-2.54-8.77-5.82-11.76-10.29-1.74-2.6-1.41-5.21.69-7.1,1.91-1.72,4.41-1.98,6.38-.34,1.78,1.49,3.25,3.35,5,4.89,15,13.15,38.83,7.08,46.39-12.38Z"/>
  <path class="cls-2" d="M398.92,256.22c-.57,3.84-1.57,4.72-5.79,5.04-6.7.5-13.38.88-20.08,1.29-16.9,1.04-33.78,2.11-50.68,3.15-.85.03-1.73-.13-3.49-.25-5.07-9.95-5.04-19.96-1.76-29.94,5.67-17.25,22.1-29.87,42.34-28.9,18.6.91,34.69,13.98,39,32.2,1.39,5.73,1.32,11.58.47,17.41Z"/>
  <path class="cls-1" d="M502.67,235.39c-.09,15.42-12.46,27.78-27.68,27.67-15.27-.12-27.41-12.61-27.29-28.08.12-15.51,12.33-27.64,27.71-27.53,15.41.12,27.36,12.36,27.27,27.94Z"/>
  <path class="cls-1" d="M356.02,264.79c-12.49.53-25.06-9.1-25.32-25.21-.22-13.43,11.08-24.48,24.55-24.77,14.21-.31,25.76,10.64,25.98,24.65.22,14.02-11.01,25.32-25.21,25.34Z"/>
</svg>