<?xml version="1.0" encoding="UTF-8"?>
<svg id="Layer_1" data-name="Layer 1" xmlns="http://www.w3.org/2000/svg" viewBox="0 0 627.37 428.29">
  <defs>
    <style>
      .cls-1 {
        fill: #fff;
      }
    </style>
  </defs>
  <path d="M591.07,351.44c-11.73,11.99-25.33,21.5-40,29.54-17.04,9.34-35.04,16.34-53.59,22-19.29,5.88-38.94,10.21-58.81,13.63-15.46,2.65-30.98,4.77-46.57,6.31-13.53,1.33-27.09,2.29-40.65,3.21-23.95,1.63-47.94,1.82-71.94,2.14-89.83,1.19-168.16-58.23-190.89-145.16-5.43-20.74-7.27-41.84-5.58-63.27,3.21-40.62,17.76-76.64,43.44-108.21,1.58-1.94,2.49-4.02,2.89-6.44,1.88-11.35,3.8-22.7,5.71-34.05,1.65-9.78,3.28-19.55,4.95-29.32.19-1.1.44-2.22.9-3.22,1.62-3.48,6.12-4.3,8.83-1.57.99,1,1.72,2.29,2.47,3.51,5.45,8.85,10.87,17.73,16.31,26.59.82,1.34,1.72,2.65,2.76,4.25,3.92-2.25,7.6-4.43,11.36-6.49,3.77-2.08,7.62-4.02,11.66-6.14,1.03-5.09,2.13-10.24,3.1-15.4,2.32-12.26,4.57-24.52,6.87-36.78.2-1.09.4-2.22.85-3.22,1.58-3.56,5.97-4.48,8.79-1.81,1.02.98,1.79,2.24,2.6,3.42,7.83,11.51,15.64,23.02,23.46,34.53.9,1.31,1.85,2.58,2.88,4.02,52.49-7.93,101.11,1.91,144.6,32.68,43.41,30.71,70.23,72.64,79.34,125.07,9.1,52.33-2.21,100.66-32.15,144.81.96.09,1.44.25,1.88.16,22.02-4.23,43.7-9.69,64.45-18.37,8.57-3.58,16.84-7.75,24.64-12.84,5.64-3.68,10.92-7.8,15.7-12.57,12.93-12.88,17.7-28.47,15.65-46.42-1.36-11.88-4.97-23.1-9.65-34.02-4.23-9.86-9.31-19.29-14.9-28.45-3.58-5.87-5.64-12.18-5.54-19.08.33-21.29,17.79-34.79,34.49-34.64,12.65.12,22.83,5.16,29.53,15.8,13.8,21.88,24.83,45.07,31.35,70.24,3.02,11.66,4.91,23.5,5.09,35.54.51,35.05-11.82,65.01-36.28,90.02Z"/>
  <path d="M59.57,203.18c.08,2.11-.87,3.71-2.85,4.52-.87.36-1.83.52-2.76.74-15.52,3.63-31.04,7.26-46.57,10.87-.77.18-1.57.34-2.35.37-2.44.1-4.39-1.38-4.93-3.66-.5-2.12.79-4.37,3.09-5.3.73-.3,1.52-.46,2.3-.64,15.53-3.6,31.06-7.2,46.59-10.8.93-.21,1.86-.52,2.8-.55,2.57-.07,4.58,1.89,4.68,4.43Z"/>
  <path d="M431.62,87.31c-3.94-.04-6.17-3.46-4.72-6.44.48-.98,1.24-1.85,2-2.66,10.94-11.66,21.9-23.29,32.86-34.93.65-.69,1.34-1.4,2.13-1.91,1.81-1.16,4.28-.81,5.73.69,1.56,1.61,1.81,3.75.53,5.7-.61.93-1.39,1.74-2.16,2.56-10.62,11.3-21.25,22.59-31.88,33.88-.66.7-1.27,1.48-2.06,1.99-.9.59-1.97.91-2.44,1.12Z"/>
  <path d="M56.68,175.75c-.62-.15-1.72-.35-2.77-.69-15.06-4.84-30.12-9.7-45.17-14.57-1.05-.34-2.15-.7-3.07-1.29-1.86-1.19-2.49-3.54-1.67-5.5.81-1.93,2.98-3.18,5.06-2.81,1.09.2,2.16.58,3.22.93,14.6,4.7,29.2,9.41,43.8,14.13,1.21.39,2.46.77,3.56,1.38,1.76.97,2.57,3.1,2.08,4.93-.59,2.23-2.26,3.5-5.05,3.49Z"/>
  <path d="M500.13,98.49c-.01.6-.78,1.98-2.34,2.74-1.14.56-2.38.91-3.61,1.26-14.59,4.15-29.19,8.29-43.79,12.43-1.08.3-2.15.66-3.24.85-2.54.45-4.88-1.06-5.52-3.48-.56-2.13.63-4.41,2.94-5.4,1.02-.44,2.12-.7,3.19-1.01,14.6-4.14,29.2-8.28,43.8-12.39,1.37-.39,2.8-.78,4.21-.8,2.62-.05,4.46,2.03,4.36,5.8Z"/>
  <path class="cls-1" d="M218.64,182.28c-5.19-11.74-1.89-24.51,7.82-31.86,9.65-7.31,22.96-7.08,32.39.57,8.49,6.89,12.1,19.37,7.91,28.1-15.9,1.06-31.94,2.12-48.12,3.19ZM240.41,165.95c.03-5.31-4.04-9.47-9.28-9.51-5.24-.04-9.39,4.09-9.43,9.37-.04,5.27,4.09,9.52,9.29,9.56,5.18.04,9.39-4.17,9.42-9.42Z"/>
  <path class="cls-1" d="M200.91,234.77c-1.92-2.84-3.97-5.87-6.02-8.9-1.34-1.99-2.76-3.93-3.99-5.98-1.26-2.09-.3-3.68,2.22-3.88.48-.04.96-.03,1.44-.03,7.03,0,14.07,0,21.1,0,1.26,0,2.63-.22,3.45,1.11.97,1.55-.03,2.74-.82,3.92-2.5,3.71-5.04,7.4-7.54,11.11-.53.78-.94,1.64-1.53,2.67,3.04,7.47,8.85,11.11,16.6,11.69,6.59.49,12.22-1.88,16.59-6.97.73-.84,1.41-1.74,2.23-2.48.8-.72,2.2-.64,3.13,0,1.04.72,1.47,1.79,1.1,2.92-.34,1.03-.93,2.03-1.6,2.9-9.35,12.07-28.64,12.84-38.93,1.58-.96-1.06-1.84-2.19-2.89-3.46-1.3.46-1.78,1.72-2.55,2.6-6.89,7.87-18.36,9.97-27.52,5-2.57-1.39-4.8-3.18-6.43-5.63-.95-1.42-.77-2.85.38-3.88,1.04-.94,2.41-1.08,3.49-.19.98.81,1.78,1.83,2.73,2.67,8.21,7.19,21.24,3.87,25.37-6.77Z"/>
  <path class="cls-1" d="M152.28,184.44c-2.77-5.45-2.75-10.92-.96-16.38,3.1-9.44,12.07-16.34,23.16-15.8,10.16.49,18.97,7.65,21.33,17.61.74,3.14.73,6.34.25,9.52-.31,2.11-.85,2.59-3.17,2.76-3.66.27-7.32.48-10.99.71-9.24.58-18.47,1.15-27.71,1.71-.47.03-.94-.06-1.92-.12ZM178.01,180.58c5.26,0,9.42-4.19,9.34-9.39-.08-5.19-4.36-9.25-9.63-9.13-4.99.11-9.18,4.2-9.1,9.18.1,5.97,4.76,9.54,9.38,9.34Z"/>
  <path d="M250.43,169.07c-.05,8.36-6.75,15.05-15,14.99-8.28-.06-14.85-6.83-14.79-15.22.06-8.41,6.68-14.98,15.02-14.91,8.35.06,14.82,6.7,14.77,15.14Z"/>
  <path d="M174.79,186.04c-6.91.3-13.87-5.04-14.02-13.96-.12-7.43,6.14-13.55,13.59-13.71,7.86-.17,14.25,5.89,14.38,13.64.12,7.76-6.09,14.01-13.95,14.03Z"/>
</svg>