<?xml version="1.0" encoding="UTF-8"?>
<svg id="Layer_1" data-name="Layer 1" xmlns="http://www.w3.org/2000/svg" viewBox="0 0 679.49 453.39">
  <defs>
    <style>
      .cls-1 {
        fill: #010101;
      }

      .cls-2 {
        fill: #f6f6f6;
      }

      .cls-3 {
        fill: #f9f9f9;
      }

      .cls-4 {
        fill: #fcb813;
      }

      .cls-5 {
        fill: #e5a413;
      }
    </style>
  </defs>
  <path class="cls-1" d="M233.16,341.46c-1.51-.88-3.01-1.8-4.54-2.64-19.26-10.53-36.43-23.7-50.76-40.42-16.29-19-27.42-40.75-34.34-64.72-4.14-14.32-6.62-28.95-7.94-43.8-1.43-16.13-1.32-32.28-.5-48.42.57-11.17,1.76-22.31,3.18-33.42.75-5.89.7-11.82-.6-17.66-2.58-11.5-9.62-19.36-23.91-20.23-6.86-.42-13.31,1.34-19.44,4.35-7.01,3.45-12.81,8.4-17.71,14.43-3.75,4.61-6.79,9.67-9.25,15.08-1.93,4.27-4.49,8.14-7.99,11.27-10.26,9.17-22.08,12.06-35.17,7.74-13.13-4.33-20.9-13.79-23.53-27.25-1.24-6.36-.74-12.84,1.93-18.84C16.43,45.76,37.99,22.08,69.86,8.64,84.8,2.34,100.46-.72,116.66.14c30.8,1.65,56.14,13.98,74.34,39.46,8.21,11.49,13.12,24.43,15.79,38.25,2.79,14.45,2.49,28.94.63,43.46-2.39,18.6-3.31,37.28-2.3,56.01.82,15.21,3.22,30.18,8.43,44.6,6.11,16.92,15.83,31.31,29.86,42.68.99.8,2.03,1.55,3.08,2.27.59.4,1.26-.04,1.28-.79,0-.32,0-.64-.02-.96-1.21-36.18,6.77-70.23,24.76-101.61,27.98-48.81,69.52-80.17,124.08-94.01,20.47-5.19,41.35-6.46,62.38-4.61,2.04.18,3.21-.32,4.34-2.01,8.48-12.6,17.05-25.14,25.6-37.7.72-1.06,1.38-2.18,2.23-3.12,3.04-3.38,8.18-2.42,9.59,1.89.79,2.41,1.13,4.98,1.6,7.49,2.64,13.97,5.28,27.95,7.84,41.93.38,2.05,1.02,3.44,3.21,4.22,6.93,2.48,13.52,5.74,20.06,9.11,1.75.9,1.88.87,2.99-.92,5.62-9.12,11.2-18.25,16.8-27.38.58-.95,1.19-1.9,1.77-2.85,1.41-2.3,3.46-3.27,6.1-2.81,2.71.47,4.13,2.32,4.62,4.88.75,3.92,1.4,7.87,2.06,11.81,2.35,14.19,4.67,28.38,7.04,42.57.83,4.94.88,4.93,4.5,8.53,12.32,12.25,22.85,25.87,31.56,40.9,12.23,21.12,20.17,43.78,23.84,67.88,2.29,15.07,2.78,30.21,1.52,45.44-1.89,22.86-7.59,44.67-17.16,65.5-.2.43-.3.9-.45,1.36-1.59.07-3.19.2-4.78.2-125.15,0-250.3,0-375.45,0-1.75,0-3.5-.22-5.24-.34ZM514.99,203.51c-1-.26-1.87.21-2.79.45-9.63,2.46-18.21-4.24-19.64-12.22-.21-1.18-.01-2.57-1.05-3.51-8.62-.49-19.88-.33-23.47.33-.38,2.23.03,4.39.65,6.54,2.98,10.26,9.58,16.84,20.05,19.1,10.51,2.27,19.17-1.22,26.09-9.29.38-.45.85-.98.08-1.52.21.32.45.38.59.1.07-.13-.06-.36-.1-.54-.14.19-.28.38-.42.56ZM534.76,259.9c3.05,6.26,7.54,11.4,12.87,15.84.85.71,1.77,1.37,2.73,1.92,1.1.62,2.6.21,3.42-.8.8-.97.86-2.58.02-3.54-.62-.71-1.38-1.32-2.11-1.93-2.44-2.06-4.74-4.27-6.79-6.74-2.37-2.84-4.24-5.98-5.62-9.41-.58-1.45-.45-2.7.51-4.03,1.97-2.71,3.8-5.52,5.68-8.29,1.25-1.85,2.57-3.66,3.7-5.58.98-1.67.15-3.24-1.73-3.53-.63-.1-1.27-.11-1.91-.11-7.18,0-14.37-.01-21.55,0-.79,0-1.6.08-2.36.27-1.3.33-1.95,1.83-1.31,3.03.52.98,1.16,1.91,1.78,2.83,2.33,3.43,4.57,6.93,7.05,10.25,1.36,1.82,1.3,3.35.3,5.26-1.72,3.29-3.89,6.21-6.54,8.79-2.87,2.81-6.12,5.1-9.54,7.19-.95.58-1.92,1.16-2.73,1.9-.87.78-.88,2.6-.1,3.54.75.89,1.7,1.51,2.93,1.1.75-.25,1.48-.6,2.17-.99,6.85-3.96,12.93-8.79,17.28-15.53.34-.53.58-1.15,1.83-1.45ZM541.18,188.04c-1.14,1.9-1.09,3.68-.94,5.41.87,9.94,5.75,17.06,15.13,20.77,9.73,3.86,19.78.17,25.36-6.06.45-.5.77-.99.39-1.66-1.4,0-2.82.04-4.23,0-6.67-.24-12.1-5.06-13.19-11.65-.27-1.59-.23-3.15-.02-4.75.24-1.8.05-2.01-1.66-2.03-4.46-.04-8.93-.02-13.39-.02-2.54,0-5.07,0-7.44,0Z"/>
  <path class="cls-5" d="M624.7,394.63c-.06,1.92-.16,3.83-.16,5.75-.01,15.66,0,31.33-.01,46.99,0,1.44-.02,2.88-.07,4.31-.03.92-.56,1.48-1.48,1.52-1.6.07-3.19.09-4.79.09-50.51,0-101.03,0-151.54,0-76.89,0-153.78,0-230.67-.03-2.52,0-5.09.49-7.56-.41-1.21-2.58-.56-5.32-.57-7.97-.07-19.34-.04-38.68-.04-58.02,11.04,0,22.08-.02,33.11,0,1.27,0,2.63-.1,3.8.3,2.04.7,4.09.63,6.16.63,12.16.02,24.32,0,36.47.03,1.43,0,2.97-.17,4.28.27,2.21.73,4.41.65,6.64.66,12,.02,24,.01,35.99.03,1.44,0,2.98-.21,4.29.24,2.36.8,4.73.69,7.11.69,11.84.02,23.68,0,35.51.04,1.59,0,3.26-.09,4.75.34,1.9.56,3.78.58,5.69.58,12.16.01,24.32,0,36.47.03,1.59,0,3.27-.14,4.76.31,2.06.62,4.09.62,6.16.62,12.16.01,24.32,0,36.47.03,1.43,0,2.97-.17,4.28.26,2.21.74,4.41.66,6.64.66,12,.02,24,0,35.99.04,1.59,0,3.25-.06,4.75.37,1.9.55,3.78.55,5.69.55,12.16.02,24.32,0,36.47.04,1.59,0,3.26-.1,4.75.33,1.9.55,3.78.58,5.69.59,8.32.05,16.63.09,24.95.13Z"/>
  <path class="cls-4" d="M624.7,394.63c-8.32-.04-16.63-.09-24.95-.13-1.91-.01-3.79-.04-5.69-.59-1.49-.43-3.16-.33-4.75-.33-12.16-.03-24.32-.02-36.47-.04-1.91,0-3.79,0-5.69-.55-1.49-.43-3.16-.37-4.75-.37-12-.03-24-.02-35.99-.04-2.23,0-4.43.07-6.64-.66-1.31-.44-2.85-.26-4.28-.26-12.16-.02-24.32-.02-36.47-.03-2.07,0-4.11,0-6.16-.62-1.48-.45-3.16-.3-4.76-.31-12.16-.03-24.32-.02-36.47-.03-1.91,0-3.79-.03-5.69-.58-1.49-.44-3.16-.34-4.75-.34-11.84-.03-23.68-.01-35.51-.04-2.39,0-4.75.11-7.11-.69-1.3-.44-2.85-.24-4.29-.24-12-.02-24-.01-35.99-.03-2.23,0-4.43.08-6.64-.66-1.31-.44-2.85-.27-4.28-.27-12.16-.02-24.32-.02-36.47-.03-2.07,0-4.12.07-6.16-.63-1.16-.4-2.52-.3-3.8-.3-11.04-.01-22.08,0-33.11,0-6.53-.27-13.06-.61-19.6-.8-6.38-.18-12.77-.2-19.15-.3-.47,0-.98-.13-1.06-.7-.04-.28.05-.65.23-.87.6-.74,1.25-1.45,1.91-2.14,11.46-12.22,22.99-24.39,34.34-36.71,2.2-2.39,4.42-4.01,7.74-3.74.31.02.63-.09.95-.14,1.75.12,3.5.34,5.24.34,125.15.02,250.3.02,375.45,0,1.59,0,3.19-.13,4.78-.2,4.52-.54,7.64,1.65,10.79,4.72,15.53,15.16,31.27,30.1,46.93,45.13,1.12,1.07,2.17,2.22,3.14,3.23-.15.44-.16.63-.27.72-.1.1-.29.12-.45.13-.47.04-.95.09-1.43.09-11.49-.17-22.98-.33-34.47-.53-5.9-.11-11.8-.3-17.7-.46-.16,0-.32,0-.48,0Z"/>
  <path class="cls-2" d="M534.76,259.9c-1.24.31-1.48.93-1.83,1.45-4.36,6.74-10.44,11.57-17.28,15.53-.69.4-1.42.74-2.17.99-1.23.41-2.19-.21-2.93-1.1-.78-.94-.77-2.76.1-3.54.82-.74,1.79-1.32,2.73-1.9,3.41-2.09,6.67-4.38,9.54-7.19,2.64-2.58,4.82-5.5,6.54-8.79,1-1.91,1.06-3.44-.3-5.26-2.48-3.32-4.72-6.82-7.05-10.25-.63-.92-1.26-1.85-1.78-2.83-.65-1.21,0-2.71,1.31-3.03.76-.19,1.57-.27,2.36-.27,7.18-.02,14.37-.01,21.55,0,.64,0,1.28.01,1.91.11,1.88.29,2.71,1.86,1.73,3.53-1.13,1.92-2.45,3.73-3.7,5.58-1.88,2.77-3.71,5.59-5.68,8.29-.96,1.32-1.09,2.58-.51,4.03,1.37,3.44,3.25,6.57,5.62,9.41,2.05,2.46,4.35,4.67,6.79,6.74.73.62,1.49,1.22,2.11,1.93.84.96.77,2.56-.02,3.54-.82,1.01-2.32,1.43-3.42.8-.96-.55-1.88-1.21-2.73-1.92-5.33-4.44-9.82-9.58-12.87-15.84Z"/>
  <path class="cls-3" d="M514.91,203.39c.77.55.3,1.08-.08,1.52-6.92,8.07-15.59,11.56-26.09,9.29-10.47-2.26-17.07-8.84-20.05-19.1-.62-2.15-1.03-4.31-.65-6.54,3.59-.66,14.86-.81,23.47-.33,1.04.94.84,2.33,1.05,3.51,1.43,7.98,10.02,14.68,19.64,12.22.92-.24,1.79-.71,2.79-.45l-.08-.12Z"/>
  <path class="cls-3" d="M541.18,188.04c2.36,0,4.9,0,7.44,0,4.46,0,8.93-.02,13.39.02,1.71.02,1.9.23,1.66,2.03-.21,1.6-.24,3.16.02,4.75,1.1,6.59,6.52,11.41,13.19,11.65,1.41.05,2.82,0,4.23,0,.38.67.06,1.16-.39,1.66-5.57,6.23-15.62,9.92-25.36,6.06-9.38-3.72-14.25-10.83-15.13-20.77-.15-1.73-.2-3.52.94-5.41Z"/>
  <path class="cls-3" d="M514.99,203.51c.14-.19.28-.38.42-.56.04.18.17.41.1.54-.14.27-.39.22-.59-.1,0,0,.08.12.08.12Z"/>
</svg>