<?xml version="1.0" encoding="UTF-8"?>
<svg id="Layer_1" data-name="Layer 1" xmlns="http://www.w3.org/2000/svg" viewBox="0 0 985.01 750.36">
  <defs>
    <style>
      .cls-1 {
        fill: #010101;
      }

      .cls-2 {
        fill: #da9700;
      }

      .cls-3 {
        fill: #fff;
      }

      .cls-4 {
        fill: #2fb1e6;
      }

      .cls-5 {
        fill: #30b2e7;
      }

      .cls-6 {
        fill: #fab81b;
      }

      .cls-7 {
        fill: #ffd13e;
      }

      .cls-8 {
        fill: #2b6ab2;
      }
    </style>
  </defs>
  <g>
    <g>
      <path class="cls-1" d="M984.99,524.46c.7,47.45-15.99,88.02-49.1,121.86-15.89,16.24-34.31,29.11-54.16,39.99-23.05,12.65-47.43,22.14-72.53,29.78-26.13,7.97-52.74,13.84-79.63,18.46-20.93,3.59-41.93,6.46-63.04,8.53-18.32,1.82-36.68,3.12-55.02,4.36-32.42,2.19-64.91,2.47-97.39,2.89-121.61,1.63-227.67-78.82-258.43-196.51-7.34-28.08-9.83-56.66-7.55-85.65,4.34-54.98,24.05-103.76,58.8-146.5,2.14-2.63,3.38-5.43,3.92-8.72,2.56-15.36,5.15-30.74,7.74-46.1,2.24-13.24,4.45-26.48,6.71-39.69.26-1.49.58-3.01,1.21-4.36,2.19-4.71,8.27-5.83,11.96-2.12,1.33,1.35,2.33,3.1,3.36,4.75,7.36,11.98,14.71,23.98,22.07,35.98,1.12,1.82,2.31,3.59,3.73,5.76,5.29-3.03,10.3-5.99,15.38-8.79,5.1-2.82,10.3-5.45,15.78-8.32,1.4-6.88,2.89-13.84,4.19-20.84,3.15-16.59,6.2-33.21,9.3-49.78.28-1.49.56-3.03,1.17-4.38,2.12-4.8,8.09-6.06,11.89-2.45,1.4,1.33,2.45,3.03,3.52,4.64,10.6,15.57,21.18,31.16,31.77,46.75,1.21,1.77,2.49,3.5,3.89,5.43,71.06-10.72,136.9,2.59,195.77,44.23,58.78,41.6,95.09,98.35,107.41,169.31,12.31,70.87-2.98,136.29-43.53,196.07,1.31.12,1.96.33,2.56.21,29.81-5.73,59.15-13.12,87.23-24.87,11.61-4.85,22.82-10.51,33.35-17.39,7.64-4.99,14.8-10.58,21.28-17.01,17.5-17.46,23.96-38.55,21.18-62.85-1.84-16.08-6.74-31.28-13.07-46.05-5.73-13.35-12.61-26.13-20.16-38.5-4.87-7.97-7.64-16.5-7.5-25.85.44-28.81,24.07-47.1,46.68-46.89,17.13.16,30.9,6.99,39.99,21.39,18.67,29.62,33.61,61.01,42.44,95.09,4.08,15.78,6.64,31.81,6.88,48.1Z"/>
      <path class="cls-1" d="M720.02,288.75c-5.34-.06-8.35-4.69-6.38-8.72.65-1.33,1.68-2.51,2.7-3.6,14.81-15.78,29.65-31.54,44.49-47.28.89-.94,1.81-1.9,2.89-2.59,2.45-1.57,5.79-1.1,7.75.93,2.11,2.19,2.45,5.08.72,7.72-.82,1.25-1.89,2.36-2.92,3.46-14.38,15.3-28.76,30.58-43.16,45.86-.89.94-1.72,2-2.79,2.7-1.22.79-2.66,1.23-3.3,1.52Z"/>
      <path class="cls-1" d="M812.76,303.89c-.02.81-1.06,2.67-3.16,3.71-1.54.76-3.23,1.23-4.89,1.7-19.76,5.62-39.52,11.22-59.28,16.82-1.46.41-2.91.89-4.39,1.15-3.44.6-6.61-1.44-7.47-4.7-.76-2.88.86-5.97,3.98-7.31,1.38-.59,2.87-.95,4.32-1.36,19.76-5.6,39.52-11.2,59.3-16.77,1.86-.52,3.79-1.05,5.7-1.08,3.55-.07,6.04,2.75,5.9,7.85Z"/>
      <g>
        <path class="cls-3" d="M536.51,359.86c-21.53,1.42-43.25,2.87-65.14,4.31-7.04-15.87-2.56-33.16,10.58-43.14,13.05-9.9,31.07-9.58,43.84.77,11.51,9.35,16.38,26.22,10.72,38.06Z"/>
        <path class="cls-3" d="M447.37,435.23c-2.6-3.85-5.37-7.95-8.14-12.05-1.82-2.69-3.74-5.32-5.41-8.1-1.7-2.83-.4-4.98,3-5.25.65-.05,1.3-.04,1.95-.04,9.52,0,19.04-.01,28.57,0,1.7,0,3.56-.29,4.68,1.5,1.32,2.1-.03,3.7-1.11,5.3-3.39,5.02-6.83,10.01-10.21,15.04-.71,1.06-1.28,2.22-2.07,3.61,4.12,10.12,11.98,15.04,22.47,15.82,8.93.67,16.54-2.55,22.46-9.44.98-1.14,1.9-2.36,3.01-3.36,1.09-.98,2.98-.86,4.24.01,1.41.98,2,2.42,1.49,3.96-.46,1.4-1.26,2.75-2.16,3.92-12.65,16.34-38.77,17.38-52.7,2.14-1.31-1.43-2.49-2.97-3.92-4.69-1.76.63-2.41,2.32-3.46,3.52-9.33,10.65-24.85,13.49-37.26,6.77-3.48-1.88-6.49-4.31-8.71-7.62-1.29-1.93-1.04-3.86.51-5.26,1.41-1.28,3.27-1.46,4.72-.25,1.32,1.1,2.41,2.48,3.7,3.62,11.11,9.74,28.75,5.25,34.35-9.16Z"/>
        <path class="cls-3" d="M440.8,360.25c-.42,2.84-1.17,3.5-4.29,3.73-4.96.37-9.9.65-14.87.96-12.52.77-25.01,1.56-37.52,2.33-.63.02-1.28-.09-2.59-.19-3.75-7.36-3.73-14.78-1.3-22.16,4.19-12.77,16.36-22.12,31.35-21.39,13.77.68,25.68,10.35,28.88,23.84,1.03,4.24.98,8.58.35,12.89Z"/>
        <path class="cls-1" d="M510.85,337.55c-.07,11.42-9.22,20.57-20.5,20.48-11.31-.09-20.29-9.33-20.21-20.79.09-11.49,9.13-20.47,20.52-20.38,11.41.09,20.25,9.15,20.19,20.69Z"/>
        <path class="cls-1" d="M402.27,359.31c-9.24.39-18.55-6.74-18.75-18.67-.16-9.94,8.21-18.12,18.18-18.34,10.52-.23,19.07,7.88,19.23,18.25.17,10.38-8.15,18.74-18.67,18.76Z"/>
      </g>
    </g>
    <path class="cls-1" d="M406.34,517.82l-.09.1c-15.17,17.84-70.52,75.48-145.64,67.95-39.69-3.97-77.41-25.62-106.22-60.95-37.1-45.49-54.58-108.37-47.96-172.54,2.71-26.25,26.18-45.33,52.43-42.62,26.25,2.71,45.33,26.18,42.62,52.43-4.03,39.09,5.79,76.39,26.96,102.34,12.46,15.28,27.66,24.85,41.7,26.26,24.56,2.46,51.36-20.7,63.33-34.78,17.09-20.1,47.25-22.54,67.35-5.45,20.07,17.07,22.53,47.15,5.53,67.24Z"/>
  </g>
  <g>
    <path class="cls-6" d="M281.53,230.57c16.21-17.77,25.85-40.86,26.12-64.58.07-5.94-.46-11.91-1.57-17.81-3.3-17.64-11.72-34.63-24.56-48.25-27.77-29.47-71.56-41.61-111.67-42.82-27.82-.84-55.79,9.09-75.28,26.88-22.95,20.95-34.09,52.6-29.14,82.88,4.15,25.39,18.58,48.45,30.37,71.92,7.89,15.69,14.76,32.64,16.5,49.5-.61-.42-1.21-.85-1.81-1.28-3.85-2.78-9.75-.34-11.87,3.41-2.08,3.67-1.04,7.4,1.47,10.15-2.06.78-3.89,2.25-4.88,4.01-1.77,3.12-1.28,6.29.45,8.86-1.42.82-2.63,1.98-3.38,3.3-2.38,4.19-.68,8.47,2.62,11.26-2.65.52-5.17,2.26-6.41,4.45-2.56,4.51-.4,9.12,3.41,11.87,5.64,4.08,11.59,7.7,17.76,10.85-.23.7-.43,1.41-.6,2.14-3.65,15.14,5.66,30.38,20.8,34.03,15.14,3.65,30.38-5.66,34.03-20.8.04-.15.07-.29.1-.44,6.82.45,13.69.4,20.53-.17,8.79-.73,10.36-11.73,5.12-15.91,6.34-1.4,8.19-8.65,5.75-13.31,4.51-2.91,5.15-9.68,2.07-13.46,8.16-3.36,6.83-17.65-3.37-16.8-1.25.1-2.51.19-3.76.26,7.91-14.18,20.82-26.14,34.37-36.21,19.28-14.32,40.86-26.41,56.82-43.91Z"/>
    <path class="cls-7" d="M281.53,230.57c2.91-3.19,5.61-6.56,8.08-10.07.21-.31.43-.61.64-.92.21-.31.42-.62.63-.93.21-.31.41-.62.62-.93.2-.31.41-.62.61-.94.2-.31.4-.63.6-.94.1-.16.2-.32.29-.47.2-.32.39-.63.58-.95.19-.32.38-.64.57-.96s.38-.64.56-.96c.18-.32.37-.65.55-.97.18-.32.36-.65.54-.98.53-.98,1.05-1.97,1.55-2.96.42-.83.82-1.66,1.21-2.5.16-.34.31-.67.47-1.01.23-.51.46-1.01.68-1.52.15-.34.29-.68.44-1.02.22-.51.43-1.02.63-1.54.14-.34.27-.69.41-1.03.07-.17.13-.34.2-.52.2-.52.39-1.04.58-1.56.13-.35.25-.7.37-1.04.18-.52.36-1.05.54-1.57.06-.18.12-.35.17-.53.23-.7.45-1.41.66-2.11.21-.71.42-1.42.61-2.13.1-.36.19-.71.29-1.07.05-.18.09-.36.14-.54.09-.36.18-.72.27-1.07h0c.09-.36.17-.72.26-1.08.17-.71.32-1.43.47-2.15.12-.56.23-1.11.33-1.67.06-.34.13-.68.19-1.03.04-.21.07-.41.11-.62.06-.34.11-.67.17-1.01.18-1.13.34-2.26.47-3.4.04-.32.08-.64.11-.97l.02-.14c.03-.3.06-.6.09-.9.05-.46.09-.92.13-1.39.04-.45.07-.9.1-1.35.12-1.71.19-3.43.21-5.15,0-.6,0-1.21,0-1.81,0-.28,0-.55-.01-.83v-.29c-.01-.27-.02-.54-.03-.82-.02-.61-.04-1.22-.07-1.83-.02-.38-.04-.77-.07-1.15-.03-.49-.07-.97-.1-1.46-.07-.87-.15-1.74-.25-2.61-.03-.24-.05-.47-.08-.71-.25-2.11-.57-4.21-.96-6.31-.82-4.41-1.97-8.78-3.42-13.07-.09-.27-.18-.54-.28-.8-.47-1.34-.96-2.66-1.49-3.98-1.26-3.16-2.7-6.27-4.3-9.3-.27-.51-.54-1.01-.81-1.51-.28-.5-.56-1-.84-1.5-.29-.5-.58-.99-.87-1.48-.29-.49-.59-.98-.9-1.47-.15-.24-.3-.49-.46-.73-.31-.49-.62-.97-.94-1.45-.95-1.44-1.94-2.86-2.98-4.26-.34-.46-.69-.93-1.05-1.39-.18-.23-.35-.46-.53-.69-1.79-2.28-3.69-4.49-5.69-6.62l-.16-.17c-.17-.18-.35-.37-.52-.55-.1-.11-.2-.21-.31-.32-.13-.14-.26-.27-.4-.41-.11-.11-.21-.22-.32-.33-.13-.13-.26-.26-.39-.39-.11-.11-.22-.22-.33-.33-.13-.13-.26-.25-.38-.38-.11-.11-.22-.22-.34-.33-.13-.13-.26-.25-.39-.38-.11-.11-.22-.21-.33-.31-.14-.13-.28-.27-.42-.4-.1-.1-.21-.19-.31-.29-.15-.14-.3-.28-.45-.42-.09-.09-.19-.18-.28-.26-.19-.18-.39-.36-.59-.54l-.15-.14c-.25-.23-.5-.45-.75-.67l-.18-.16c-.19-.17-.38-.34-.58-.51l-.26-.22c-.17-.15-.34-.29-.51-.44-.09-.08-.19-.16-.28-.24-.17-.14-.34-.29-.51-.43l-.27-.23c-.17-.14-.35-.29-.52-.43l-.27-.22c-.18-.15-.37-.3-.55-.45l-.23-.19c-.21-.17-.41-.33-.62-.49l-.17-.14c-.81-.64-1.64-1.28-2.47-1.9l-.06-.04c-.26-.19-.51-.38-.77-.57l-.12-.09c-.24-.18-.48-.35-.72-.52l-.13-.09c-.24-.17-.48-.35-.73-.52l-.12-.08c-.26-.18-.52-.36-.77-.54l-.06-.04c-.2-.14-.4-.28-.6-.41l-.24-.16c-.12-.08-.24-.16-.36-.24-.11-.07-.22-.14-.32-.22l-.27-.18c-.12-.08-.23-.16-.35-.23l-.26-.17c-.12-.08-.24-.15-.35-.23l-.25-.16c-.13-.08-.26-.17-.39-.25l-.19-.12c-.15-.09-.29-.19-.44-.28l-.14-.09c-.16-.1-.31-.2-.47-.29l-.12-.08c-.17-.1-.33-.21-.5-.31h-.01c-10.87-6.75-22.85-11.93-35.34-15.74,1.93,1.03,3.84,2.12,5.72,3.26,14.65,8.96,26.82,21.28,35.7,35.97,9.36,15.49,16.18,33.06,15.77,51.38-.38,17.03-6.3,33.55-16.43,47.21-10.28,13.86-24.89,24.41-41.29,29.77-8.05,2.63-16.38,3.85-24.68,5.35-2.62.48-5.28,1.01-7.89,1.71-10.2,21.97-16.31,45.93-17.83,70.09,5.96.55,11.99.67,18.05.34,1.23-2.21,2.58-4.36,4.04-6.46.21-.3.42-.6.63-.9.21-.3.43-.59.64-.89.22-.3.43-.59.66-.88.66-.88,1.34-1.75,2.04-2.61.7-.86,1.41-1.71,2.14-2.56.24-.28.49-.56.73-.84.12-.14.25-.28.37-.42.37-.42.75-.83,1.12-1.24.5-.55,1.02-1.09,1.53-1.64.39-.41.78-.81,1.17-1.21.26-.27.53-.53.79-.8.53-.53,1.07-1.06,1.61-1.58.14-.13.27-.26.41-.39.41-.39.82-.78,1.23-1.17.41-.39.83-.77,1.25-1.15.42-.38.84-.76,1.26-1.14.28-.25.56-.5.85-.75,3.83-3.37,7.84-6.56,11.91-9.58,18.38-13.65,38.84-25.27,54.54-41.48.77-.8,1.53-1.61,2.28-2.43Z"/>
    <path class="cls-5" d="M189.65,354c6.34-1.4,8.19-8.65,5.75-13.31,4.51-2.91,5.15-9.68,2.07-13.46,8.16-3.36,6.83-17.65-3.37-16.8-1.25.1-2.51.19-3.76.26-6.07.32-12.1.2-18.05-.34,1.52-24.16,7.63-48.12,17.83-70.09,3.03-6.53,6.43-12.89,10.17-19.03,5.5-.34,10.92-2.26,15.3-5.58,2.61-1.97,4.21-4.03,4.89-6.28.97-3.22-.27-6.73-2.89-8.16-3.48-1.9-7.78,0-11.51,5.09-2.73,3.73-5.33,7.57-7.78,11.5-2.08-.02-4.16-.31-6.16-.86-6.57-1.83-12.31-6.64-15.38-12.77,1.9-1.15,3.71-2.45,5.43-3.87,1.81-1.51,3.91-3.61,3.98-6.51.06-2.41-1.3-4.41-3.64-5.35-2.93-1.18-6.74-.45-8.66,1.66-2.68,2.94-3.23,7.58-1.53,12.56-8.62,4.48-18.68,6.09-28.25,4.56-.65-3.78-1.74-7.52-3.5-11.07-1.71-3.43-3.71-5.76-6.13-7.12-3.36-1.89-7.46-1.59-9.97.72-3.18,2.93-2.86,7.84-.95,10.97,2.05,3.36,5.64,5.27,8.17,6.42,2.98,1.35,6.09,2.36,9.28,3.05.67,5.49.47,11.09.16,16.26-1.4,23.71-5.5,47.19-12.2,69.95-.15.5-.3,1-.45,1.5-5.59-2.78-11.01-5.99-16.21-9.61-.6-.42-1.21-.85-1.8-1.28-3.85-2.78-9.75-.34-11.87,3.41-2.08,3.67-1.04,7.4,1.47,10.15-2.06.78-3.89,2.25-4.88,4.01-1.77,3.12-1.28,6.29.45,8.86-1.42.82-2.63,1.98-3.38,3.3-2.38,4.19-.68,8.47,2.62,11.26-2.65.52-5.17,2.26-6.41,4.45-2.56,4.51-.4,9.12,3.41,11.87,5.64,4.08,11.59,7.7,17.76,10.85-.23.7-.43,1.41-.6,2.14-3.65,15.14,5.66,30.38,20.8,34.03,15.14,3.65,30.38-5.66,34.03-20.8.04-.15.07-.29.1-.44h0c6.82.45,13.69.4,20.53-.17,8.79-.73,10.36-11.73,5.12-15.91ZM208.9,208.35c1.75-2.39,4.4-4.8,6.46-4.3.19.05.38.12.56.21,1.3.71,1.65,2.68,1.22,4.09-.46,1.52-1.66,3-3.65,4.51-3.15,2.38-6.92,3.94-10.83,4.59,1.99-3.1,4.08-6.13,6.25-9.1ZM133.16,203.96c-3.4-1.54-5.44-3.1-6.63-5.05-1.18-1.93-1.39-5,.33-6.59,1.14-1.05,2.81-1.22,4.31-.86.56.14,1.1.35,1.58.61,1.79,1.01,3.33,2.85,4.72,5.63,1.39,2.79,2.32,5.74,2.94,8.76-2.48-.62-4.9-1.45-7.24-2.51ZM176.46,192.44c.84-.93,2.69-1.31,4.2-.95.2.05.39.11.57.18,1.49.6,1.46,1.67,1.45,2.02-.04,1.49-1.47,2.87-2.72,3.91-1.43,1.19-2.94,2.28-4.51,3.27-.84-2.91-.93-6.31,1.01-8.43ZM168.81,309.98c-12.85-1.55-25.34-5.11-37.1-10.54.18-.6.36-1.21.54-1.81,6.81-23.09,10.98-46.91,12.4-70.97.3-5.02.5-10.43-.06-15.84,9.9,1.35,20.22-.38,29.13-4.94,3.52,6.92,10.03,12.35,17.49,14.42,1.64.45,3.32.75,5.02.89-3.93,6.6-7.46,13.44-10.59,20.46-9.58,21.53-15.34,44.83-16.84,68.32Z"/>
    <path class="cls-4" d="M109.66,355.16c-.23.7-.43,1.41-.6,2.14-3.65,15.14,5.66,30.38,20.8,34.03,15.14,3.65,30.38-5.66,34.03-20.8.04-.15.07-.29.1-.44-18.89-1.24-37.47-6.33-54.33-14.93Z"/>
    <path class="cls-8" d="M129.34,381.21c-10.68-2.58-18.46-10.92-20.84-20.93h0s-.01.1-.01.1l-.02.16c-.01.11-.03.22-.04.33l-.02.16c-.01.11-.02.22-.03.33v.13s-.03.28-.03.28v.12c-.02.12-.03.23-.03.35v.13c-.01.12-.02.24-.03.36v.09c0,.12-.01.23-.02.35v.05c0,.13,0,.26,0,.39v.08c0,.13,0,.26,0,.39v.07c0,.14,0,.27,0,.41h0s0,.32,0,.32v.02s.01.31.01.31h0c.06,1.31.21,2.59.44,3.85h0s.06.31.06.31h0s.06.31.06.31h0s.06.31.06.31v.02s.07.3.07.3v.02s.08.3.08.3h0s.09.35.09.35c.06.23.12.46.19.68.06.23.13.45.2.68.11.34.22.67.34,1.01v.03s.11.28.11.28v.02s.11.27.11.27v.03s.11.26.11.26l.02.04.1.25.02.06.1.24.02.06.1.24.02.04.11.25v.02c.31.67.63,1.32.98,1.96h0s.13.24.13.24l.03.05.12.22.03.06.12.21.04.07.12.2.05.08.12.19.05.09.12.19.06.09.12.18.06.09.12.19.05.07.14.2.03.04.15.22.03.04c.12.16.23.33.35.49.12.16.24.32.36.48v.02s.16.19.16.19l.05.07.14.18.06.07.13.16.08.09.12.15.09.1.12.14.09.11.12.14.09.1.13.15.09.1.13.14.09.1.13.14.08.09.14.15.08.08.14.15.08.08.16.16h0c.2.2.4.39.6.58l.09.09.15.14.09.08.14.13.11.1.15.13.1.09.15.13.11.09.14.12.12.1.13.1.14.11.12.1.13.1.14.11.13.1.13.1.15.11.12.09.14.1.14.1.12.09.15.1.14.1.13.09.27.18.14.09.14.09.13.08.16.1.11.07.18.11.13.08.16.1.13.08.16.09.13.07.17.1.13.07.16.09.14.08.16.09.13.07.17.09.13.07.17.09.14.07.16.08.14.07.19.09.12.06.21.09.1.05c.21.09.42.19.63.28l.09.04.23.09.13.05.19.07.14.05.18.07.14.05.18.07.15.06.18.06.14.05.18.06.15.05.17.06.15.05.19.06.14.04.19.06.15.04.2.06.13.04.23.06.1.03.24.06.1.03c.11.03.23.06.34.08h0c1.42.34,2.84.57,4.25.69.35.03.71.05,1.06.07.7.03,1.4.04,2.1.02.58-.02,1.16-.05,1.73-.1.23-.02.46-.04.69-.07.23-.03.46-.06.68-.09.34-.05.68-.1,1.02-.16.45-.08.9-.17,1.34-.27.44-.1.89-.21,1.32-.34.22-.06.44-.13.65-.19.76-.23,1.51-.5,2.24-.79.21-.08.42-.17.63-.26.52-.22,1.03-.46,1.54-.71.2-.1.4-.2.6-.31.2-.11.4-.21.59-.32.2-.11.39-.22.59-.34l.29-.17c.19-.12.38-.24.57-.36,5.88-3.79,10.37-9.76,12.13-17.09.03-.13.06-.26.09-.39v-.06c-1.57-.1-3.15-.23-4.72-.39-6.42,9.4-18.2,14.35-29.92,11.52Z"/>
    <path class="cls-2" d="M218.32,51.88c3.78-14.63,7.41-29.3,10.96-43.99,1.98-8.19-10.75-11.28-12.73-3.07-3.55,14.69-7.18,29.36-10.96,43.99-2.11,8.17,10.62,11.24,12.73,3.07Z"/>
    <path class="cls-2" d="M185.97,45.87c0,8.43,13.09,8.02,13.1-.42,0-8.37-.08-16.73-.2-25.1-.12-8.42-13.22-8.02-13.1.42.12,8.37.2,16.73.2,25.1Z"/>
    <path class="cls-2" d="M240.21,58.96c3.81-7.45,7.7-14.86,11.62-22.25,3.96-7.45-7.5-13.8-11.46-6.35-3.92,7.39-7.81,14.8-11.62,22.25-3.84,7.5,7.62,13.86,11.46,6.35Z"/>
    <path class="cls-2" d="M311.6,114.92c12.22-8.89,24.35-17.9,36.43-26.98,6.69-5.03-.08-16.25-6.83-11.18-12.08,9.08-24.21,18.09-36.43,26.98-6.78,4.93,0,16.14,6.83,11.18Z"/>
    <path class="cls-2" d="M102.55,64.48c3.81,7.53,14.96.65,11.18-6.83-6.82-13.48-13.51-27.03-20.12-40.62-3.69-7.59-14.84-.7-11.18,6.83,6.61,13.59,13.3,27.14,20.12,40.62Z"/>
    <path class="cls-2" d="M275.9,262.89c-3.81-7.53-14.96-.65-11.18,6.83,6.82,13.48,13.51,27.03,20.12,40.62,3.69,7.59,14.84.7,11.18-6.83-6.61-13.59-13.3-27.14-20.12-40.62Z"/>
    <path class="cls-2" d="M66.85,212.46c-12.22,8.89-24.35,17.9-36.43,26.98-6.69,5.03.08,16.25,6.83,11.18,12.08-9.08,24.21-18.09,36.43-26.98,6.78-4.93,0-16.14-6.83-11.18Z"/>
    <path class="cls-2" d="M51.86,138.53c-14.69-3.55-29.35-7.18-43.99-10.96-8.17-2.11-11.24,10.62-3.07,12.73,14.63,3.78,29.3,7.41,43.99,10.96,8.19,1.98,11.28-10.75,3.07-12.73Z"/>
    <path class="cls-2" d="M359.04,212.64c-14.69-3.55-29.35-7.18-43.99-10.96-8.17-2.11-11.24,10.62-3.07,12.73,14.63,3.78,29.3,7.41,43.99,10.96,8.19,1.98,11.28-10.75,3.07-12.73Z"/>
    <path class="cls-2" d="M314.42,189.08c.07,3.19,3.27,6.9,6.76,6.34,8.26-1.33,16.53-2.57,24.81-3.77,3.53-.51,6.42-2.94,6.34-6.76-.07-3.24-3.26-6.84-6.76-6.34-8.28,1.2-16.55,2.45-24.81,3.77-3.52.56-6.42,2.9-6.34,6.76Z"/>
    <path class="cls-2" d="M335.27,236.57c-6.87-4.78-13.78-9.49-20.72-14.17-7-4.72-13.29,6.78-6.35,11.46,6.94,4.68,13.85,9.39,20.72,14.17,6.92,4.82,13.2-6.69,6.35-11.46Z"/>
    <path class="cls-2" d="M34.12,116.4c6.82,4.84,13.62,9.73,20.36,14.67,2.88,2.11,7.32.24,8.9-2.56,1.93-3.4.28-6.82-2.56-8.9-6.75-4.95-13.54-9.83-20.37-14.67-2.91-2.06-7.3-.27-8.9,2.56-1.91,3.36-.31,6.87,2.56,8.9Z"/>
    <path class="cls-2" d="M51.57,157.68c-9.47,1.14-18.94,2.32-28.4,3.59-8.27,1.1-7.95,14.21.42,13.1,9.46-1.26,18.93-2.45,28.4-3.59,8.3-1,7.97-14.11-.42-13.1Z"/>
    <path class="cls-7" d="M176.63,246.48c-3.18,2.45-5.64,5.69-7.43,9.26-2.37,4.74-3.31,9.99-4.29,15.15-1.88,9.85-4.72,20.6-14.3,25.69-5.82,3.09-12.31,2.95-18.36,1.04-.18.6-.36,1.21-.54,1.81,11.76,5.44,24.25,8.99,37.1,10.54,1.5-23.49,7.26-46.79,16.84-68.32-3.21,1.18-6.27,2.71-9.01,4.83Z"/>
    <path class="cls-7" d="M128.96,296.4c-.68-.29-1.35-.6-2.01-.93-5.91-2.95-11.08-7.12-15.3-12.15h0c.27,1.65.49,3.31.66,4.97,5.2,3.63,10.62,6.83,16.21,9.61.15-.5.3-1,.45-1.5Z"/>
    <path class="cls-3" d="M112.43,303.31c10.27,7.47,21.83,12.81,33.91,15.73,3.55.86,7.15,1.5,10.77,1.93,1.28.15,2.43-.76,2.59-2.04.15-1.28-.76-2.42-2.04-2.59-15.15-1.79-29.84-7.6-42.49-16.8-1.04-.75-2.5-.53-3.25.51-.76,1.04-.53,2.5.51,3.25Z"/>
    <path class="cls-3" d="M153.4,333.96c-4.77-.55-9.5-1.48-14.14-2.78-9.85-2.76-19.31-7.16-27.95-13.05-1.08-.74-2.16-1.5-3.22-2.29-.28-.21-.59-.34-.92-.41-.86-.18-1.78.14-2.34.89-.77,1.03-.55,2.49.48,3.26,10.91,8.09,23.2,13.86,36.07,16.96,3.78.91,7.62,1.6,11.48,2.04,1.28.15,2.43-.77,2.58-2.05.06-.49-.04-.95-.26-1.35-.35-.65-1-1.13-1.79-1.23Z"/>
    <path class="cls-3" d="M149.3,350.5c-.36-.38-.84-.64-1.4-.71-1.73-.22-3.45-.48-5.16-.79-14.1-2.54-27.71-8.21-39.65-16.54-1.06-.73-2.51-.48-3.24.58-.74,1.05-.48,2.51.58,3.24,10.83,7.56,22.97,13.02,35.63,16.07,3.72.9,7.49,1.59,11.27,2.06,1.28.16,2.44-.75,2.6-2.02.09-.72-.16-1.4-.62-1.89Z"/>
    <path class="cls-3" d="M109.88,189.95c-1.7-13.38,4.11-27.84,18.9-23.3,10.04,3.08,25.07,20.66,36.09,10.34,4.26-3.98,4.36-11.09,8.7-14.98,6.44-5.77,16.36-.74,24.97-.02,21.5,1.8,34-22.36,32.78-40.83-2.7-40.66-52.98-56.25-88.5-46.56-36.78,10.03-63.61,44.16-61.6,82.82,1.6,30.8,22.71,66.86,34.4,94.02,7.27-7.96,6.95-20.33,3.92-30.68-3.03-10.35-8.31-20.11-9.67-30.81Z"/>
  </g>
  <path class="cls-1" d="M161.17,399.23s-27.23-25.05-7.09-44.41c24.73-23.76,46.55,4.83,46.55,4.83l-35.6,41.53-3.86-1.94Z"/>
</svg>