<?xml version="1.0" encoding="UTF-8"?>
<svg id="Layer_1" data-name="Layer 1" xmlns="http://www.w3.org/2000/svg" viewBox="0 0 570.74 430.26">
  <defs>
    <style>
      .cls-1 {
        fill: #fff;
      }
    </style>
  </defs>
  <path d="M89.19,71.64c8-4.41,15.53-8.56,23.28-12.83,1.28-6.47,2.63-13.03,3.87-19.62,2.04-10.84,4-21.69,6.02-32.53.2-1.1.43-2.22.86-3.23,1.52-3.56,5.92-4.57,8.77-1.96,1.04.95,1.82,2.21,2.63,3.4,7.92,11.63,15.83,23.27,23.75,34.91.89,1.31,1.85,2.57,2.88,4,44.82-7.02,87.37-.49,127.19,21.41,32.17,17.69,57.31,42.67,75.49,74.56,13.49,23.65,21.54,49.09,24.25,76.2,2.7,27.1-.02,53.62-8.36,79.56-8.33,25.91-21.72,48.96-39.48,69.26.51,1.36,1.41,1.14,2.15,1.17,1.6.06,3.2.03,4.8.03,62.7,0,125.39,0,188.09.02,2.71,0,5.44.12,8.12.48,15.91,2.17,27.03,16.4,27.24,31.2.2,13.77-9.09,28.77-26.26,32.12-1.71.34-3.5.35-5.25.42-1.92.07-3.84.02-5.76.02-108.28,0-216.56,0-324.84,0-6.56,0-13.12.14-19.67-.08-50.65-1.72-94.26-20.27-130.56-55.54-27.44-26.65-45.21-58.91-53.7-96.23C.01,257.76-1.09,236.92,1.04,215.91c3.93-38.79,18.41-73.22,42.94-103.45,1.68-2.07,2.75-4.23,3.18-6.82,1.64-9.94,3.3-19.87,4.97-29.8,1.91-11.35,3.82-22.7,5.77-34.04.67-3.9,2.21-5.77,5.03-6.16,3.19-.44,4.98,1.46,6.49,3.95,5.65,9.29,11.35,18.55,17.04,27.82.83,1.35,1.72,2.67,2.73,4.24ZM163.99,153.77c-4.59-10.94-17.51-16.89-29.32-13.98-12.78,3.15-20.98,14.5-20.11,27.79.84,12.68,11.43,23.16,24.41,24.17,10.56.81,22.43-6.06,24.49-14.18-9.44,5.47-17.19,4.93-22.94-1.57-5.04-5.7-5.34-14.31-.7-20.33,1.48-1.93,3.32-3.45,5.49-4.55,2.18-1.11,4.49-1.54,6.93-1.65,4.33-.19,7.94,1.68,11.75,4.32ZM49.9,161.79c-4.52,11.29,1.28,24.37,12.66,29.08,10.43,4.32,23.93.07,27.83-9.08-1.09.39-1.95.74-2.83,1-10.57,3.05-19.99-5.22-18.15-16.02.29-1.69,1.21-3.26,1.82-4.89.24-.65.46-1.3.82-2.32-7.75.74-15.04,1.25-22.15,2.23ZM103.63,210.89c-3.3.18-6.17.3-9.04.53-1.26.1-2.52.35-3.75.68-.93.25-1.37,1.47-.93,2.37.28.57.61,1.12,1,1.63,2.99,3.95,5.98,7.89,8.99,11.83.38.5.82.98,1.3,1.39.71.62,1.98.54,2.61-.16.43-.47.81-.99,1.14-1.53,2.56-4.24,5.12-8.48,7.65-12.73.4-.68.72-1.42.96-2.17.29-.91-.39-2.08-1.3-2.24-.78-.13-1.59-.18-2.37-.13-2.23.15-4.46.38-6.26.54Z"/>
  <path class="cls-1" d="M163.99,153.77c-3.81-2.64-7.42-4.51-11.75-4.32-2.43.11-4.75.55-6.93,1.65-2.17,1.1-4.01,2.62-5.49,4.55-4.64,6.03-4.34,14.63.7,20.33,5.75,6.51,13.5,7.04,22.94,1.57-2.06,8.13-13.93,15-24.49,14.18-12.98-1-23.57-11.49-24.41-24.17-.88-13.29,7.33-24.64,20.11-27.79,11.81-2.91,24.72,3.04,29.32,13.98Z"/>
  <path class="cls-1" d="M49.9,161.79c7.11-.97,14.4-1.49,22.15-2.23-.36,1.01-.57,1.67-.82,2.32-.62,1.63-1.54,3.21-1.82,4.89-1.84,10.8,7.58,19.07,18.15,16.02.88-.26,1.74-.61,2.83-1-3.9,9.15-17.4,13.4-27.83,9.08-11.39-4.72-17.18-17.79-12.66-29.08Z"/>
  <path class="cls-1" d="M103.63,210.89c1.8-.16,4.03-.39,6.26-.54.79-.05,1.6,0,2.37.13.91.15,1.59,1.32,1.3,2.24-.24.75-.56,1.49-.96,2.17-2.53,4.26-5.09,8.5-7.65,12.73-.33.54-.71,1.06-1.14,1.53-.63.7-1.9.78-2.61.16-.48-.42-.92-.89-1.3-1.39-3.01-3.93-6.01-7.88-8.99-11.83-.38-.51-.72-1.06-1-1.63-.44-.89,0-2.12.93-2.37,1.22-.32,2.49-.58,3.75-.68,2.87-.23,5.74-.34,9.04-.53Z"/>
</svg>