<?xml version="1.0" encoding="UTF-8"?>
<svg id="Layer_1" data-name="Layer 1" xmlns="http://www.w3.org/2000/svg" viewBox="0 0 682.81 507.66">
  <defs>
    <style>
      .cls-1 {
        fill: #fff;
      }
    </style>
  </defs>
  <path d="M439.9,406.69c3.94-.59,6.61-.96,9.27-1.39,18.64-3.06,37.04-7.1,54.89-13.41,8.91-3.15,17.54-6.9,25.87-11.39,28.28-15.26,47.09-38.3,56.74-68.89,4.35-13.79,6.7-27.95,7.95-42.33,1.07-12.3,1.27-24.61.76-36.92-.48-11.34-1.16-22.69-2.42-33.97-2.53-22.63,11.91-43.47,34.14-48.09,26.33-5.47,49.29,13.32,52.04,37.19,2.62,22.75,4.14,45.56,3.57,68.46-.63,25.34-3.54,50.39-10.47,74.86-7.5,26.47-19.36,50.72-36.89,72.07-14.36,17.49-31.49,31.76-50.71,43.58-19.17,11.78-39.64,20.72-60.91,27.9-22.46,7.58-45.44,13.08-68.73,17.4-16.2,3-32.48,5.47-48.84,7.31-14.93,1.67-29.91,2.99-44.89,4.22-38.12,3.14-76.34,3.86-114.57,4.37-4.47.06-8.94-.29-13.4-.56-1.42-.08-2.89-.32-4.22-.81-5.93-2.19-12.18-2.36-18.35-3.1-54.17-6.51-102.09-26.8-141.76-64.88-27.97-26.85-46.83-59.31-57.96-96.34-5.08-16.9-8.22-34.16-9.85-51.73-1.14-12.29-1.5-24.58-.71-36.9,2.49-38.85,12.04-75.68,31.59-109.61,11.59-20.13,26.08-37.91,43.4-53.39.95-.85,1.9-1.71,2.82-2.6.21-.2.29-.53.57-1.06-1.23-.91-2.47-1.88-3.76-2.79-9.01-6.37-18.03-12.73-27.05-19.09-.91-.65-1.84-1.28-2.69-2-1.52-1.28-2.48-2.91-2.86-4.86-.43-2.2.01-4.27,1.76-5.67,1.6-1.28,3.41-2.39,5.29-3.19,4.32-1.81,8.93-2.48,13.57-2.76,11.59-.68,22.98.58,34.18,3.7,5.12,1.43,9.86,3.73,14.66,5.9,2.47,1.12,4.91,2.31,7.59,3.58,13.67-7.18,27.93-13.16,42.75-17.86-.11-1.67-1.3-2-2.12-2.58-9.66-6.84-19.27-13.75-29.04-20.43-3.02-2.06-4.07-4.71-4.1-8.1-.04-3.58,1.67-6.09,4.7-7.77,2.99-1.66,6.27-2.36,9.65-2.58,6.74-.45,13.43-.03,20.07,1.14,14.55,2.57,28.63,6.73,41.95,13.19,3.87,1.88,7.59,4.11,11.23,6.41,3.54,2.24,6.57,5.1,8.6,9.06.95.06,1.88.21,2.8.17,12.96-.49,25.91-.52,38.83.75,56.71,5.57,106.88,26.03,148.28,65.92,27.79,26.78,46.51,59.15,57.57,96.03,5.07,16.9,8.2,34.17,9.83,51.74,1.13,12.13,1.48,24.27.72,36.42-2.65,42.21-13.61,81.87-36.37,117.88-1.43,2.27-2.87,4.53-4.95,7.8ZM144.77,165.69c-2.99,5.82-3.61,11.81-3.09,17.92,1.05,12.21,7.12,21.03,18.53,25.74,9.95,4.11,19.98,3.84,29.75-.75,8.64-4.06,14.06-10.81,16.13-20.19,1.08-4.91,1-9.85.28-14.76-.25-1.66-.32-3.52-1.79-5.06-3.43,1.64-6.83,3.26-10.49,5,0,1.72.1,3.47-.02,5.2-.45,6.66-3.2,12.05-9.23,15.26-7.15,3.8-14.45,3.74-21.53-.21-4.89-2.72-7.81-7.02-8.5-12.62-.25-2.04-.16-4.14-.18-6.21,0-1.1.09-2.2.15-3.3-3.38-2.04-6.62-3.99-10-6.02ZM104.35,173.99c.52,1.91,1.02,3.27,1.25,4.67,1.54,9.4-2.49,16.83-10.62,19.62-4.89,1.68-9.79,1.55-14.51-.55-5.37-2.39-8.54-6.53-9.29-12.45-.37-2.9-.16-5.74.52-8.57.21-.89.39-1.79.61-2.81-2.96-1.24-5.72-2.4-8.67-3.64-.67,1.13-1.31,2.02-1.76,3.01-2.13,4.64-2.41,9.58-2.12,14.57.62,10.53,5.68,18.2,15.27,22.57,8.92,4.07,18.02,3.97,26.96-.06,7.27-3.27,12.08-8.84,14.2-16.54,1.56-5.66,1.53-11.41-.02-17.08-.62-2.26-1.18-4.65-3.17-6.39-2.83,1.19-5.61,2.36-8.66,3.64ZM132.19,236.05c0,.06,0,.11,0,.17-5.88.43-11.76.87-17.64,1.3-.48.04-.96.06-1.42.18-2.04.51-2.75,2.31-1.57,4.01,2.28,3.26,4.57,6.52,6.9,9.75,1.3,1.81,2.63,3.6,4.07,5.31.81.96,1.79,1.82,2.82,2.56,1.47,1.07,2.66.92,3.65-.66,3.29-5.27,6.51-10.58,9.66-15.93.63-1.07.93-2.37,1.17-3.6.29-1.45-.5-2.61-1.92-2.78-1.89-.22-3.8-.21-5.71-.3Z"/>
  <path class="cls-1" d="M144.77,165.69c3.38,2.03,6.62,3.99,10,6.02-.05,1.1-.15,2.2-.15,3.3.01,2.07-.08,4.16.18,6.21.7,5.61,3.62,9.9,8.5,12.62,7.08,3.95,14.38,4.01,21.53.21,6.03-3.21,8.79-8.59,9.23-15.26.12-1.73.02-3.47.02-5.2,3.66-1.74,7.06-3.36,10.49-5,1.47,1.54,1.54,3.4,1.79,5.06.73,4.92.81,9.86-.28,14.76-2.07,9.38-7.49,16.13-16.13,20.19-9.76,4.59-19.79,4.86-29.75.75-11.41-4.71-17.48-13.53-18.53-25.74-.53-6.11.1-12.11,3.09-17.92Z"/>
  <path class="cls-1" d="M104.35,173.99c3.05-1.28,5.82-2.45,8.66-3.64,1.99,1.74,2.55,4.12,3.17,6.39,1.55,5.67,1.58,11.42.02,17.08-2.12,7.71-6.94,13.27-14.2,16.54-8.94,4.03-18.04,4.12-26.96.06-9.59-4.37-14.65-12.04-15.27-22.57-.29-4.99-.01-9.93,2.12-14.57.45-.98,1.09-1.87,1.76-3.01,2.94,1.23,5.7,2.39,8.67,3.64-.22,1.01-.39,1.92-.61,2.81-.68,2.83-.89,5.67-.52,8.57.75,5.92,3.93,10.06,9.29,12.45,4.72,2.1,9.62,2.22,14.51.55,8.13-2.79,12.17-10.21,10.62-19.62-.23-1.41-.73-2.77-1.25-4.67Z"/>
  <path class="cls-1" d="M132.19,236.05c1.9.09,3.82.08,5.71.3,1.43.17,2.21,1.33,1.92,2.78-.24,1.23-.54,2.54-1.17,3.6-3.15,5.35-6.36,10.67-9.66,15.93-.99,1.58-2.18,1.73-3.65.66-1.02-.74-2-1.6-2.82-2.56-1.44-1.7-2.77-3.5-4.07-5.31-2.33-3.23-4.62-6.49-6.9-9.75-1.19-1.7-.48-3.5,1.57-4.01.46-.11.94-.14,1.42-.18,5.88-.44,11.76-.87,17.64-1.3,0-.06,0-.11,0-.17Z"/>
</svg>