<?xml version="1.0" encoding="UTF-8"?>
<svg id="Layer_1" data-name="Layer 1" xmlns="http://www.w3.org/2000/svg" viewBox="0 0 634.31 641.47">
  <defs>
    <style>
      .cls-1 {
        fill: #fff;
      }
    </style>
  </defs>
  <path d="M91.48,273.81c7.93-4.36,15.6-8.59,23.73-13.06.61-2.85,1.38-6.1,2-9.37,2.69-14.29,5.34-28.59,8.01-42.89.26-1.41.47-2.86.95-4.21,1.43-4,6.34-5.15,9.38-2.18,1.02.99,1.78,2.25,2.59,3.44,8.1,11.9,16.18,23.8,24.28,35.7.89,1.31,1.84,2.58,2.87,4.01,49.32-7.7,95.7.38,138.29,26.6,42.69,26.28,71.83,63.58,86.54,111.57,14.63,47.75,11.16,94.68-8.61,140.58,1.31.43,1.85-.48,2.46-1.02,6.64-5.81,12.72-12.18,18.13-19.13,5.79-7.45,11.36-15.06,16.88-22.72,7.1-9.86,14.02-19.86,21.76-29.25,10.22-12.41,21.62-23.55,34.88-32.72,16.51-11.42,34.7-19.05,54.09-23.93,15.55-3.91,31.37-6.16,47.38-6.92,7.35-.35,14.71-.78,22.05-.66,16.2.26,29.92,11.15,33.99,26.83,5.92,22.8-10.88,44.13-33.38,44.96-8.31.31-16.63.43-24.92,1.01-11.83.82-23.47,2.86-34.79,6.55-14.44,4.7-26.87,12.55-37.38,23.49-5.33,5.55-10.15,11.52-14.65,17.75-5.62,7.78-11.03,15.71-16.74,23.42-5.61,7.58-11.27,15.14-17.27,22.42-23.31,28.26-52.37,48.55-86.42,61.86-18.67,7.3-37.92,12.53-57.59,16.29-21.86,4.18-43.92,6.78-66.15,7.87-12.3.6-24.61,1.1-36.92,1.34-26.47.52-52.26-3.29-77.16-12.6-64.37-24.07-110.96-79.42-125.01-143.75-4.06-18.58-5.58-37.34-4.27-56.25,2.9-41.89,17.48-79.33,43.82-112.09,2.27-2.82,3.77-5.71,4.34-9.36,1.95-12.64,4.17-25.23,6.29-37.84,1.38-8.2,2.75-16.39,4.14-24.59.24-1.42.45-2.87.92-4.21,1.49-4.2,6.71-5.22,9.71-1.89.85.94,1.48,2.08,2.14,3.17,5.69,9.27,11.36,18.54,17.05,27.81.82,1.34,1.73,2.63,2.62,3.98ZM170.68,365.41c-7.54,3.28-15.11,5.04-22.78,5.79-.93,1.17-1.61,2.29-2.54,3.12-1.53,1.37-3.08,2.82-4.88,3.78-6.75,3.59-14.84,1.87-19.98-3.96-.89-1.01-1.2-2.64-2.86-2.99-.44,12.27,11.29,27.29,29.11,25.66,18.37-1.68,26.97-18.88,23.92-31.39ZM50.62,367.64c-2.83,10.69,1.1,20.89,10,26.51,8.82,5.57,20.21,4.76,28.16-1.99,6.58-5.59,10.02-15.39,7.42-21.66-.5,1.16-.88,2.2-1.39,3.18-2.64,5.1-6.76,8.01-12.58,8.19-5.79.17-10.16-2.34-13.09-7.33-.64-1.08-1.19-2.22-1.64-3.07-5.75-1.31-11.18-2.54-16.88-3.84ZM109.62,416.05v.13c-5.11.37-10.21.7-15.31,1.15-1.95.17-2.88,1.91-1.76,3.45,3.48,4.78,7.1,9.46,10.69,14.17.19.24.49.55.75.56.75.04,1.63.17,2.22-.16.64-.35,1.07-1.15,1.48-1.82,2.58-4.23,5.12-8.48,7.67-12.73.33-.55.66-1.1.9-1.69.65-1.6-.16-2.96-1.85-3.03-1.59-.07-3.19-.01-4.79-.01Z"/>
  <path d="M76.96,6.04c3.84,4.44,7.44,8.51,10.94,12.67,3.91,4.65,7.85,9.29,11.54,14.12,1.82,2.39,3.43,5.05,4.58,7.82,2.89,6.95,1.4,13.14-4.06,18.34-3.3,3.14-7.25,5.23-11.51,6.73-2.11.74-4.29,1.29-6.38,2.08-1.64.61-3.31,1.27-4.76,2.22-3.95,2.58-5.04,6.48-3.25,10.87,1.05,2.56,2.73,4.69,4.62,6.66,3.01,3.14,6.51,5.67,10.2,7.93,4.91,3.01,9.86,5.94,14.8,8.9,6.72,4.03,13.46,8.03,20.16,12.09,2.05,1.24,4.11,2.5,5.97,4,1.85,1.5,3.68,3.13,5.12,5.01,4.16,5.4,3.86,11.99-.58,17.15-2.22,2.58-4.95,4.54-7.93,6.13-3.39,1.8-6.82,3.51-10.22,5.3-4.24,2.23-8.54,4.38-12.69,6.79-7.5,4.36-14.42,9.5-20.51,15.71-3.27,3.33-6.12,6.97-8.32,11.1-1.68,3.16-2.7,6.48-2.52,10.11.25,5.08,2.9,8.42,7.84,9.54,1.69.38,3.48.46,5.23.5,2.08.04,4.16-.16,6.23-.17.95,0,1.93.09,2.84.33,1.02.28,1.55,1.16,1.55,2.17,0,1.04-.59,1.79-1.63,2.11-.3.09-.63.16-.94.15-4.47-.17-8.97-.13-13.42-.59-7.14-.74-11.83-5.78-12.52-12.99-.34-3.57.24-7,1.64-10.31,1.44-3.42,3.41-6.51,5.66-9.43,4.23-5.48,9.2-10.22,14.65-14.46,6.21-4.83,12.81-9.01,19.93-12.39,4.62-2.19,9.23-4.44,13.69-6.93,2.49-1.39,4.87-3.11,6.94-5.07,3.76-3.57,4.01-7.47.79-11.54-1.57-1.98-3.49-3.76-5.51-5.29-2.67-2.02-5.53-3.81-8.41-5.53-7.28-4.35-14.65-8.53-21.9-12.91-4.38-2.64-8.66-5.46-12.9-8.32-3.46-2.34-6.55-5.13-9.12-8.44-2.08-2.68-3.7-5.61-4.46-8.94-1.1-4.88.28-8.87,4.51-11.68,1.46-.97,3-1.85,4.59-2.57,2.33-1.06,4.74-1.92,7.1-2.9,2.22-.91,4.49-1.73,6.6-2.84,1.82-.96,3.62-2.09,5.15-3.46,4.52-4.03,5.53-8.83,2.88-14.27-1.18-2.42-2.73-4.71-4.42-6.81-3.9-4.87-7.96-9.61-11.99-14.37-3.83-4.51-7.71-8.98-11.56-13.48-.73-.85-1.47-1.7-2.08-2.63-1.01-1.56-.35-3.1,1.47-3.75,1.72-.62,3.43-.63,5.17-.03,1.95.67,2.5,1.56,2,3.64-.14.6-.48,1.15-.83,1.96Z"/>
  <path d="M147.28,11.83c1.85.18,3.77.29,5.66.57.75.11,1.53.49,2.16.93,1.16.83.93,3.14-.38,3.63-1.18.44-2.46.62-3.7.92-4.03.98-8.08,1.9-12.09,2.97-1.6.43-2.46,1.77-2,3.28.5,1.65,1.15,3.37,2.17,4.73,1.73,2.29,3.81,4.3,5.72,6.45,2.01,2.27,4.12,4.47,5.95,6.88,1.04,1.37,1.74,3.05,2.36,4.67,1.04,2.73.18,5.1-2.01,6.85-1.35,1.08-2.98,1.84-4.53,2.64-2.41,1.25-4.97,2.24-7.29,3.63-7.37,4.4-9.01,10.35-4.92,17.9,1.21,2.23,2.8,4.27,4.32,6.32,1.9,2.57,3.97,5.02,5.85,7.6,2.1,2.88,3.52,6.09,4.11,9.62.18,1.08.18,2.23.02,3.32-.16,1.06-1.05,1.59-2.09,1.62-1.02.03-1.89-.36-2.25-1.42-.15-.45-.23-.93-.27-1.4-.4-4.47-2.39-8.25-5.07-11.72-1.76-2.27-3.72-4.4-5.41-6.73-1.69-2.32-3.43-4.66-4.66-7.23-3.34-6.97-2-13.47,3.6-18.76,2.7-2.55,5.83-4.46,9.25-5.91,1.18-.5,2.38-.96,3.49-1.59,2.46-1.39,2.98-2.97,2.12-5.62-.67-2.05-1.99-3.63-3.44-5.13-2.89-2.99-5.86-5.91-8.66-8.98-1.61-1.76-3.19-3.62-4.36-5.67-1.93-3.4-1.17-6.03,2.03-8.29.91-.64,1.91-1.19,2.94-1.6,1.37-.54,2.51-1.16,3.28-2.57.38-.7,1.47-1.26,2.32-1.4,1.88-.33,3.81-.36,5.8-.51Z"/>
  <path d="M176.4,192.49c2.09-1.52,4.14-3.02,6.2-4.51.65-.47,1.3-.93,1.98-1.33,1.43-.84,2.6-.65,3.32.5.72,1.16.52,2.38-.66,3.39-.85.72-1.8,1.32-2.68,2-1.25.96-2.48,1.95-3.99,3.14.86.97,1.56,1.75,2.25,2.55,2.28,2.66,4.58,5.3,6.82,8,.6.73,1.2,1.56,1.45,2.44.18.66,0,1.6-.38,2.19-.55.86-1.6,1.09-2.57.71-1.54-.62-2.53-1.81-3.34-3.26-2.04-3.66-4.94-6.55-8.36-9.06-3.6,2.73-6.47,5.94-9.38,9.1-.86.94-1.68,1.93-2.59,2.81-.93.89-2.16.88-3,.09-.86-.81-1.12-2.07-.51-3.04.51-.8,1.11-1.57,1.75-2.26,2.17-2.34,4.38-4.64,6.58-6.94.87-.91,1.79-1.79,2.91-2.9-.67-.64-1.13-1.26-1.74-1.62-2.34-1.37-4.72-2.65-7.1-3.96-.84-.46-1.73-.83-2.51-1.36-.96-.66-1.23-1.93-.78-2.98.46-1.08,1.58-1.65,2.78-1.09,2.89,1.34,5.73,2.79,8.53,4.3,1.68.9,3.24,2.01,4.99,3.11Z"/>
  <path d="M49.91,151.02c1.99-1.7,3.89-3.39,5.86-4.99,1.24-1,2.54-1.93,3.89-2.78,2.03-1.29,3.26-1.17,4.13.26.77,1.26.43,2.32-1.25,3.6-1.39,1.07-2.87,2.02-4.23,3.12-1.1.88-2.08,1.9-3.35,3.08,1.35,1.49,3,2.07,4.41,2.97,1.34.85,2.76,1.6,4.02,2.55.81.61,1.04,1.56.49,2.56-.61,1.12-1.7,1.72-2.76,1.28-1.17-.48-2.28-1.13-3.4-1.74-2.07-1.13-4.13-2.29-6.28-3.49-2.43,2.1-3.72,4.67-5.16,7.12-.81,1.37-1.42,2.85-2.2,4.24-.5.89-1.29,1.41-2.38,1.1-1.31-.37-2.24-1.72-1.86-2.92.38-1.21.9-2.39,1.52-3.5,1.47-2.63,3.04-5.22,4.67-7.98-1.87-1.78-4.28-1.89-6.57-2.2-1.57-.22-3.18-.06-4.78-.16-1.29-.08-2.1-.97-2.08-2.14.02-1.19.76-2.39,1.88-2.41,2.69-.05,5.42-.1,8.07.29,2.34.35,4.59,1.29,7.36,2.11Z"/>
  <path d="M233.05,183.23c2.39,1.27,4.23,2.2,6.02,3.2,1.49.83,3.07.57,4.66.61.66.02,1.69.57,1.88,1.12.26.78.16,1.91-.24,2.64-.87,1.58-2.47,2.01-4.14,1.61-1.38-.33-2.73-.87-4.02-1.48-2.59-1.23-5.12-2.58-7.91-3.99-.8.63-1.72,1.22-2.48,1.96-2.51,2.45-4.97,4.96-7.46,7.43-.68.67-1.35,1.39-2.15,1.87-.88.53-1.9.39-2.64-.36-.7-.71-1.11-1.64-.51-2.6.5-.8,1.11-1.55,1.77-2.23,2-2.06,4.06-4.07,6.06-6.12.77-.78,1.45-1.65,2.32-2.64-.71-.63-1.3-1.12-1.86-1.64-.46-.43-1-.84-1.28-1.37-.46-.9-.45-1.97.38-2.61.55-.43,1.53-.78,2.12-.58,1.62.56,3.13,1.43,4.8,2.24,2.34-1.57,4.11-3.64,6.13-5.4,1.08-.94,2.1-1.97,3.21-2.87,1.5-1.21,2.85-1.27,3.85-.28.98.98.84,2.42-.53,3.74-1.95,1.88-3.99,3.68-5.96,5.53-.56.53-1.03,1.15-2.01,2.25Z"/>
  <path class="cls-1" d="M170.68,365.41c3.05,12.51-5.55,29.71-23.92,31.39-17.83,1.63-29.55-13.39-29.11-25.66,1.66.35,1.96,1.98,2.86,2.99,5.15,5.83,13.24,7.55,19.98,3.96,1.79-.95,3.35-2.41,4.88-3.78.93-.83,1.61-1.95,2.54-3.12,7.67-.74,15.23-2.51,22.78-5.79Z"/>
  <path class="cls-1" d="M50.62,367.64c5.7,1.3,11.13,2.53,16.88,3.84.45.85,1,1.99,1.64,3.07,2.94,4.98,7.3,7.5,13.09,7.33,5.82-.18,9.94-3.09,12.58-8.19.51-.97.88-2.01,1.39-3.18,2.59,6.26-.84,16.06-7.42,21.66-7.95,6.76-19.34,7.56-28.16,1.99-8.9-5.62-12.83-15.82-10-26.51Z"/>
  <path class="cls-1" d="M109.62,416.05c1.6,0,3.2-.05,4.79.01,1.68.07,2.49,1.44,1.85,3.03-.24.59-.57,1.14-.9,1.69-2.55,4.25-5.1,8.5-7.67,12.73-.41.67-.84,1.47-1.48,1.82-.59.33-1.47.2-2.22.16-.26-.01-.56-.32-.75-.56-3.58-4.71-7.21-9.38-10.69-14.17-1.12-1.54-.19-3.28,1.76-3.45,5.1-.45,10.2-.77,15.31-1.15v-.13Z"/>
</svg>