<?xml version="1.0" encoding="UTF-8"?>
<svg id="Layer_1" data-name="Layer 1" xmlns="http://www.w3.org/2000/svg" viewBox="0 0 532.7 390.41">
  <defs>
    <style>
      .cls-1 {
        fill: #fff;
      }
    </style>
  </defs>
  <path d="M245.16,390.21c-18,0-36-.43-53.98.11-22.53.67-44.63-2.31-66.13-8.27-23.49-6.51-44.36-18.58-63.12-34.31-21.06-17.66-37.19-39.13-47.8-64.25-5.44-12.88-9.03-26.83-11.4-40.65C.43,229.5-.45,215.65.22,202.13c1.77-35.67,13.49-68.09,35.95-96.08,6.37-7.94,6.53-17.14,8.34-26.07,2.95-14.5,5.27-29.13,8.18-43.64.32-1.62,2.7-3.92,4.17-3.95,1.86-.05,4.46,1.45,5.53,3.08,5.47,8.34,10.7,16.84,15.68,25.47,1.84,3.2,3.75,3.28,6.47,1.68,1.57-.93,3.03-2.25,4.72-2.76,10.31-3.1,13.99-10.65,15.28-20.65,1.36-10.55,3.52-21.01,5.82-31.4.6-2.73,2.45-6.18,4.71-7.31,3.63-1.8,5.95,1.77,7.84,4.51,7.06,10.25,14.11,20.51,20.97,30.89,2.03,3.07,4.31,3.22,7.66,2.75,17.21-2.45,34.56-3.23,51.63.47,13.93,3.02,28.06,6.1,41.27,11.27,23.62,9.26,44.13,23.6,61.55,42.31,14,15.04,25.51,31.72,33.31,50.62,13.82,33.48,18.73,67.91,11.02,104.03-5.35,25.05-15,47.79-29.59,68.62-1.34,1.91-2.93,3.63-4.24,5.55-.6.89-1.39,2.63-1.05,2.98.79.82,2.22,1.45,3.37,1.42,6.16-.18,12.35-.26,18.46-.98,37.33-4.36,71.23-16.46,97.95-44.27,15.48-16.12,25.37-35.38,29.92-57.13,2.44-11.69,3.19-23.72,4.91-35.57,2.26-15.56,20.51-27.15,35.96-23.96,18.82,3.89,28.35,21.76,26.49,37.27-2.15,17.85-3.47,35.75-9.34,52.97-16.93,49.66-48.47,86.65-95.45,110.15-17.16,8.58-35.16,14.82-54.05,18.74-25.44,5.28-51.14,6.75-76.99,6.88-17.16.09-34.33.02-51.49.02,0,.06,0,.12,0,.18ZM127.65,173.23c12.07-.07,23.71-11.57,23.9-23.64.2-12.31-11.5-24.18-24.12-23.57-14.22.68-23.41,9.76-23.14,23.55.28,14.78,9.17,21.77,23.36,23.66ZM64.77,173.75c12.8-.76,19.95-9.07,20.53-20.76.53-10.85-10.52-21.27-21.09-21.03-10.76.24-20.43,10.2-20.5,21.1-.07,11.36,9.57,20.83,21.07,20.69ZM58.33,211.67c1,1.12,1.92,2.48,3.13,3.48,8.67,7.16,18.36,6.9,27.59-.66,1.86-1.52,3.48-4.07,6-.65,4.52,6.14,11.32,7.29,18.21,7.45,7.24.17,13.29-2.82,17.48-8.87.69-1,.4-2.68.56-4.05-1.32.12-2.72.02-3.94.44-.86.29-1.48,1.29-2.2,1.99-5.26,5.17-11.64,6.25-18.5,4.64-8.92-2.1-11.57-8.85-6.66-16.32,1.37-2.08,2.87-4.09,4.08-6.26,1.4-2.53.75-4.21-2.42-4.21-6.49-.01-12.98-.06-19.47.06-3.49.07-3.91,1.98-2.21,4.62,1.7,2.66,3.52,5.24,5.32,7.83,3.19,4.59,2.5,8.27-2.17,11.41-5.74,3.86-12.83,3.43-18.94-1.53-2.21-1.79-3.79-2.58-5.85.64Z"/>
  <path class="cls-1" d="M127.65,173.23c-14.18-1.88-23.08-8.88-23.36-23.66-.26-13.8,8.93-22.87,23.14-23.55,12.62-.61,24.32,11.26,24.12,23.57-.2,12.07-11.83,23.57-23.9,23.64ZM129.65,163.57c7.82.1,14.51-6.31,14.58-13.98.07-7.28-7.01-14.91-14.32-14.48-7.38.43-13.96,4.91-14.4,13.67-.41,8.18,6.01,14.68,14.14,14.79Z"/>
  <path class="cls-1" d="M64.77,173.75c-11.5.14-21.13-9.33-21.07-20.69.07-10.9,9.75-20.86,20.5-21.1,10.57-.24,21.62,10.18,21.09,21.03-.57,11.69-7.73,20-20.53,20.76ZM79.03,152.68c.42-7.67-6.36-11.94-12.46-12.25-6.83-.35-12.61,6.08-12.42,13.01.19,7.04,5.46,12.13,12.58,12.16,6.99.03,12.37-5.62,12.3-12.93Z"/>
  <path class="cls-1" d="M58.33,211.67c2.06-3.22,3.65-2.43,5.85-.64,6.12,4.97,13.2,5.39,18.94,1.53,4.67-3.14,5.36-6.82,2.17-11.41-1.8-2.59-3.62-5.18-5.32-7.83-1.69-2.64-1.28-4.55,2.21-4.62,6.49-.12,12.98-.07,19.47-.06,3.17,0,3.82,1.68,2.42,4.21-1.2,2.17-2.71,4.18-4.08,6.26-4.92,7.47-2.27,14.22,6.66,16.32,6.86,1.61,13.24.53,18.5-4.64.71-.7,1.34-1.69,2.2-1.99,1.22-.42,2.62-.32,3.94-.44-.16,1.37.13,3.05-.56,4.05-4.19,6.06-10.23,9.04-17.48,8.87-6.89-.16-13.69-1.31-18.21-7.45-2.51-3.42-4.14-.87-6,.65-9.23,7.56-18.92,7.82-27.59.66-1.21-1-2.14-2.36-3.13-3.48Z"/>
  <path d="M129.65,163.57c-8.13-.1-14.55-6.61-14.14-14.79.44-8.76,7.03-13.24,14.4-13.67,7.31-.43,14.38,7.2,14.32,14.48-.07,7.67-6.76,14.08-14.58,13.98Z"/>
  <path d="M79.03,152.68c.06,7.3-5.31,12.95-12.3,12.93-7.12-.03-12.39-5.12-12.58-12.16-.19-6.93,5.59-13.36,12.42-13.01,6.1.31,12.88,4.58,12.46,12.25Z"/>
</svg>