<?xml version="1.0" encoding="UTF-8"?>
<svg id="Layer_1" data-name="Layer 1" xmlns="http://www.w3.org/2000/svg" viewBox="0 0 1006.82 593.18">
  <defs>
    <style>
      .cls-1 {
        fill: #010101;
      }

      .cls-2 {
        fill: #fff;
      }
    </style>
  </defs>
  <g>
    <path class="cls-1" d="M1005.82,151.61c-7.24,38.37-47.35,55.79-79.34,40.01-11.76-5.8-20.33-14.83-25.83-26.73-4.47-9.69-9.94-18.73-16.96-26.79-8.43-9.68-18.31-17.41-30.24-22.27-10.48-4.28-21.25-6.2-32.61-4.21-15.11,2.66-25.15,11.1-30,25.61-3.68,11-3.92,22.39-2.5,33.75,2.26,17.82,4.19,35.66,5.06,53.58,1.22,25.26,1.41,50.52-.87,75.77-2.09,23.22-5.98,46.08-12.39,68.5-12.69,44.3-34.35,83.47-66.87,116.37-21.5,21.77-46.16,39.22-73.3,53.26-3.76,1.74-7.73,1.77-11.78,1.77-11.51,2.72-26.43,4.3-42.45,0-12.19-3.27-20.33-8.69-22.22-9.88-35.94-22.6-273.34-63.95-396.28-14.58,0,0-56.5,22.69-109.57,24.42-2.21.07-16.44.02-21.25-.02-2.24-.02-4.47-.17-6.72-.3-.28-.01-.57-.03-.85-.05-.36-.93-.68-1.9-1.09-2.8C7.2,491.35-1.98,444.02.36,395c.03-.63.06-1.26.09-1.9.44-8.46,1.23-16.96,2.37-25.52,3.54-26.7,10.51-52.45,20.91-77.27,16.03-38.27,38.9-71.9,68.53-100.92,1.39-1.36,2.51-2.73,3.38-4.24,3.71-3.54,7.51-6.97,11.4-10.32,15.65-13.48,32.69-25.42,50.84-35.58.92-.51,1.83-1.01,2.75-1.52.74.38,1.57.08,3.08-.73,10.26-5.45,20.79-10.37,31.66-14.48,1.52-.57,2.62-1.31,3.4-2.31,4.65-1.75,9.34-3.42,14.1-4.95,20.31-6.58,41.55-11.1,63.46-13.33,1.17,1.11,2.43.71,7.32.4,3.27-.21,6.53-.65,9.82-.79,28.44-1.19,56.67.89,84.29,7.78,93.19,23.29,161.85,77.87,205.81,163.21,15.4,29.89,24.76,61.86,29.17,95.17.63,4.79,1.19,9.6,1.64,14.4,0,.06,0,.13.02.19,1.09,11.73,1.52,23.51.92,35.33-.03.76-.08,1.5-.13,2.26-.03.54-.33,1.31-.03,1.85.13.24.38.43.84.52,1.75-.14,2.77-1.38,3.92-2.29,23.35-18.26,39.46-41.66,49.45-69.45,8.09-22.56,11.86-45.97,13.18-69.76,1.66-29.59.22-59.12-3.53-88.53-2.94-22.97-3.51-45.84.85-68.7,5.01-26.29,15.14-50.3,32.53-70.81C741.64,18.28,779.64,1.9,824.21.13c24.03-.96,47.33,3.43,69.64,12.46,51.5,20.84,86.32,58.54,108.75,108.51,4.36,9.72,5.19,20.16,3.22,30.51Z"/>
    <g>
      <path class="cls-1" d="M322.94,101.88c-33.4,1.87-65.64,8.02-96.2,17.91-.71-.87-1.74-1.28-2.55-1.87-15.27-10.81-30.46-21.74-45.91-32.28-4.77-3.27-6.43-7.45-6.48-12.8-.06-5.66,2.64-9.63,7.43-12.28,4.74-2.62,9.91-3.73,15.26-4.08,10.65-.71,21.25-.05,31.74,1.8,23,4.06,45.24,10.64,66.3,20.85,6.12,2.97,12,6.5,17.77,10.13,5.07,3.21,9.47,7.23,12.63,12.62Z"/>
      <path class="cls-1" d="M97.82,184.37c.06-.14.14-.32.24-.49-1.93-1.44-3.9-2.97-5.94-4.41-14.24-10.07-28.5-20.12-42.75-30.18-1.45-1.03-2.91-2.04-4.27-3.18-2.39-2.01-3.9-4.6-4.51-7.68-.68-3.48.02-6.75,2.77-8.96,2.53-2.02,5.39-3.78,8.38-5.03,6.81-2.88,14.1-3.94,21.44-4.36,18.34-1.09,36.33.9,54.03,5.85,8.09,2.26,15.57,5.9,23.18,9.33,3.45,1.57,6.85,3.21,10.53,4.96-22.53,12.6-43.66,27.41-63.09,44.15Z"/>
    </g>
    <path class="cls-2" d="M347.8,269.02c.6,25.66-20.09,50.15-49.8,50.54-27.7.38-50.46-22.08-50.7-49.69-.22-28.2,22.16-50.92,50.22-50.89,29.93.02,50.7,24.72,50.27,50.03Z"/>
    <path class="cls-2" d="M209.55,277.02c.35,23.14-18.83,44.3-44.45,44.22-25.21-.06-44.25-20.99-44.22-44.53.03-21.39,16.9-44.31,44.55-44.19,27.9.13,44.75,23.36,44.12,44.5Z"/>
    <path d="M325.24,274.97c.5,13.68-10.43,30.32-30.32,30.4-19.75.08-30.96-16.44-30.64-30.94.37-16.8,13.88-30.11,30.8-29.97,16.97.14,30.2,13.52,30.16,30.51Z"/>
    <path d="M167.53,309.29c-14.98.14-27.08-11.65-27.24-26.54-.16-14.84,11.82-26.89,26.67-27.21,11.42-.25,26.85,8.11,27.18,26.65.29,16.21-12.81,27.22-26.61,27.1Z"/>
  </g>
  <g>
    <path class="cls-1" d="M61.89,522.99l136.38-21.35c.3,1.19.61,2.35.94,3.53,9.49,34.73-7.97,70.79-41.56,83.46-39.79,14.98-80.22-8.75-90.36-45.36-1.87-6.75-3.67-13.51-5.4-20.28Z"/>
    <path class="cls-1" d="M558.96,520.19l-135.44-26.67c-.34,1.17-.7,2.33-1.07,3.49-10.84,34.33,5.2,71.05,38.26,85.02,39.17,16.53,80.51-5.61,92.06-41.79,2.13-6.67,4.19-13.35,6.19-20.05Z"/>
  </g>
  <path class="cls-2" d="M237.55,381.25c2.36-4.18,4.89-8.64,7.41-13.11,1.65-2.92,3.42-5.79,4.91-8.8,1.52-3.06,0-5.17-3.53-5.17-.67,0-1.34.07-2.01.12-9.82.78-19.65,1.56-29.47,2.37-1.75.14-3.69,0-4.7,1.93-1.18,2.27.34,3.82,1.59,5.38,3.91,4.9,7.87,9.76,11.77,14.67.82,1.03,1.5,2.19,2.43,3.56-3.41,10.78-11.12,16.5-21.87,18.18-9.15,1.43-17.27-1.27-23.95-7.88-1.11-1.1-2.16-2.28-3.39-3.22-1.2-.92-3.15-.64-4.37.36-1.37,1.12-1.86,2.66-1.21,4.21.59,1.4,1.52,2.73,2.56,3.87,14.4,15.81,41.43,14.73,54.54-2.15,1.23-1.58,2.32-3.27,3.66-5.16,1.87.5,2.68,2.2,3.86,3.35,10.5,10.22,26.75,11.87,38.99,3.91,3.43-2.23,6.34-4.98,8.35-8.58,1.17-2.1.76-4.06-.96-5.38-1.56-1.2-3.49-1.24-4.89.13-1.27,1.25-2.28,2.76-3.52,4.04-10.66,10.96-29.22,7.78-36.18-6.62Z"/>
</svg>