<?xml version="1.0" encoding="UTF-8"?>
<svg id="Layer_1" data-name="Layer 1" xmlns="http://www.w3.org/2000/svg" viewBox="0 0 730.47 521.89">
  <defs>
    <style>
      .cls-1 {
        fill: #0f3f52;
      }

      .cls-2 {
        fill: #fff;
      }

      .cls-3 {
        fill: #feffff;
      }
    </style>
  </defs>
  <path d="M308.95,488.24c-3.69,15.78-13.42,26.03-28.94,30.28-20.46,5.6-41.35-6.21-47.93-26.03-.26-.78-.49-1.57-.8-2.33-.21-.49-.72-.55-1.2-.55-.48,0-.97.08-1.17.58-.26.66-.45,1.34-.67,2.01-5.29,16.06-16.3,25.88-32.98,28.23-21.32,3.02-38.31-10.71-43.5-27.83-.37-1.24-.66-2.5-1.03-3.89-.95.57-.9,1.53-1.12,2.36-3.63,13.89-12.06,23.64-25.6,28.45-23.51,8.36-47.76-6.53-52.37-29.62-.54-2.68-.71-5.37-.75-8.08-.22-16.15-.42-32.3-.63-48.45,0-.59-.05-1.18,0-1.77.11-1.17-.42-1.98-1.23-2.78-3.26-3.24-6.57-6.44-9.7-9.81-27.05-29.17-45.02-63.17-53.91-101.93-2.32-10.11-3.8-20.37-4.65-30.73-.88-10.72-.98-21.45-.33-32.16,1.37-22.5,6.1-44.31,14.2-65.36,8.36-21.73,19.88-41.65,34.53-59.76,1.22-1.51,2.06-3.05,2.36-5.01,1.02-6.76,2.17-13.49,3.23-20.24,1.34-8.61,2.63-17.23,3.96-25.85,1.27-8.27,2.56-16.53,3.86-24.79.31-1.98.55-3.98,1.04-5.91.87-3.46,3.65-5.29,7.14-4.9,1.74.19,3.12,1.03,4.16,2.4.57.75,1.06,1.56,1.56,2.35,6.91,10.97,13.82,21.94,20.73,32.91.5.8,1,1.6,1.52,2.38.37.54.85.77,1.48.37.59-.38,1.19-.76,1.79-1.14,19.29-12.35,39.97-21.57,62.13-27.45.23-.06.44-.21.67-.22,2.38-.12,2.96-1.57,3.32-3.71,2.46-14.64,5.06-29.25,7.64-43.86.16-.92.33-1.87.72-2.71,1.82-3.97,6.92-4.97,10.08-1.98.84.8,1.5,1.81,2.17,2.78,8.72,12.46,17.42,24.93,26.13,37.4.47.68.94,1.36,1.42,2.03,2.34,3.24,1.49,2.74,5.11,2.69,6.73-.09,13.45.29,20.14.88,9.75.87,19.4,2.39,28.96,4.55,32.25,7.28,61.49,20.99,87.42,41.43,40.38,31.83,66.89,72.73,79.22,122.7,3.14,12.73,4.92,25.66,5.77,38.75.7,10.74.46,21.45-.37,32.15-.48,6.22-1.26,12.42-2.39,18.57-.08.46-.16.93-.19,1.4-.03.53.26.9.75,1.04.45.13.92.2,1.39.23,8.03.42,16.03.49,23.94-1.28,7.1-1.59,13.73-4.19,19.62-8.53,8.79-6.48,13.88-15.23,15.81-25.89,1.31-7.28,1.01-14.56-.15-21.82-2.01-12.63-2.52-25.33-2.03-38.08.69-17.81,4.07-35.08,10.65-51.67,6.38-16.09,15.43-30.47,27.87-42.59,15.97-15.55,34.96-25.37,56.9-29.48,10.63-1.99,21.32-2.4,32.05-1.16,15.02,1.73,29.22,6.19,42.68,13.07,15.06,7.69,28.29,17.83,40.09,29.89,4.54,4.64,8.87,9.48,12.8,14.65,15.63,20.58,7.92,50.31-15.71,60.69-16.33,7.17-35.45,2.67-46.77-11.11-4.58-5.57-9.39-10.9-15.05-15.41-5.95-4.74-12.37-8.61-19.71-10.82-5.98-1.8-12-2.39-18.13-.8-7.02,1.82-12.53,5.88-16.88,11.57-4.15,5.42-6.8,11.58-8.48,18.13-2.47,9.66-3.22,19.49-2.57,29.46.41,6.24,1.44,12.4,2.14,18.61,1.02,9.03,1.3,18.09.57,27.18-.67,8.37-1.9,16.63-4.22,24.69-11.35,39.56-36.6,66.47-74.71,81.53-10.45,4.13-21.35,6.57-32.51,8-9.51,1.22-19.05,1.56-28.6,1.09-9.55-.48-19.01-1.73-28.38-3.67-.58-.12-1.15-.28-1.73-.36-.63-.08-1.13.14-1.48.71-.49.81-1.01,1.59-1.52,2.39-5.41,8.45-11.29,16.57-17.9,24.12-1.86,2.12-2.53,4.21-2.45,6.97.3,11.67.42,23.34.58,35.01.11,8.49.13,16.98.24,25.47.23,17.89-12.09,34.07-29.55,38.59-22.79,5.9-43.97-8.14-49.13-29.12-.11-.45-.14-.93-.2-1.4-1.63-.74-.54,1.12-1.22,1.28Z"/>
  <path class="cls-1" d="M308.95,488.24c0-.58-.04-1.15,0-1.72.04-.51.35-.94.87-.76.51.18.44.74.35,1.2-.41.43-.82.85-1.22,1.28Z"/>
  <path class="cls-2" d="M215.33,191.88c-.44,2.66-.76,5.23-1.31,7.75-3.9,17.8-18.57,32.17-36.42,36.03-25.43,5.5-50.45-10.24-56.68-35.29-.31-1.26-.55-2.53-.86-3.79-.18-.7-.75-.81-1.38-.77-.5.04-.91.19-1.02.75-.18.93-.36,1.85-.51,2.78-2.78,16.96-16.54,30.52-33.11,33.55-22.58,4.13-43.69-10.46-48.18-32.37-4.58-22.33,9.72-44.62,33.03-48.93,24.1-4.45,44.73,12.31,48.26,33.54.12.69.27,1.39.54,2.04.09.23.56.42.85.42.3,0,.78-.21.85-.44.21-.66.3-1.37.35-2.07,1.3-18.83,14.52-35.8,33.15-41.73,26.74-8.51,55.35,7.95,61.22,35.31.12.58.29,1.14.41,1.72.65,3.26.65,3.25,4.01,2.63,15.3-2.79,30.6-5.57,45.89-8.37,13.56-2.48,27.11-4.98,40.67-7.48,3.94-.72,7.88-1.44,11.82-2.16.46-.08.93-.15,1.4-.16,2.05-.03,3.75,1.3,4.08,3.18.39,2.21-.65,4.03-2.84,4.6-2.16.56-4.38.91-6.58,1.32-12.63,2.31-25.26,4.62-37.89,6.91-12.29,2.23-24.58,4.44-36.86,6.66-6.72,1.21-13.45,2.42-20.17,3.66-.92.17-1.81.46-2.71.7Z"/>
  <path class="cls-2" d="M123.81,411.6c-.59-.33-1.02-.54-1.41-.8-7.18-4.93-14.37-9.87-21.54-14.82-1.82-1.26-1.83-1.31-1.33-3.49,2.39-10.32,4.79-20.63,7.18-30.94,2.64-11.34,5.24-22.7,7.95-34.02.42-1.73-.02-2.83-1.19-4.05-7.44-7.72-14.82-15.51-22.21-23.27-.79-.83-1.57-1.68-2.27-2.41.11-.35.11-.49.18-.56.08-.07.22-.08.34-.09,2.46-.22,4.93-.47,7.39-.65,16.68-1.23,33.36-2.45,50.01-3.67.35,1.22-.6,1.59-1.09,2.13-8.36,9.12-16.75,18.22-25.13,27.32q-2.2,2.39-.96,5.41c8.43,20.57,16.86,41.14,25.29,61.72q1.12,2.74-1.06,4.65c-6.03,5.28-12.07,10.55-18.1,15.82-.62.54-1.26,1.06-2.07,1.73Z"/>
  <path class="cls-2" d="M118.12,268.95c-.31.53-.45.72-.55.93-4.29,8.68-11.46,13.24-20.91,14.2-6.73.69-12.83-1.17-18.03-5.62-.62-.53-1.24-1.11-1.72-1.77-1.07-1.46-.84-3.3.45-4.45,1.12-.99,2.93-1.06,4.25-.13.29.2.54.45.79.7,4.12,4.01,9.16,5.24,14.66,4.48,5.9-.81,10.64-3.64,13.69-8.91.53-.91.88-1.92,1.31-2.89.58-1.31.43-2.36-.62-3.5-3.67-3.99-7.22-8.09-10.81-12.15-.63-.71-1.26-1.4-1.86-2.13-.29-.36-.57-.76-.75-1.18-.51-1.26.12-2.78,1.42-3.16,1.12-.33,2.3-.5,3.47-.65,6.89-.9,13.78-1.78,20.68-2.65,1.64-.21,3.28-.45,4.92-.5,2.09-.07,3.26,1.59,2.55,3.55-.28.77-.73,1.47-1.1,2.21-2.5,4.93-4.97,9.88-7.53,14.78-.63,1.21-.57,2.14.15,3.26,2.58,4.02,6.08,6.87,10.62,8.33,8.39,2.7,16.04,1.18,22.88-4.34,1.95-1.57,3.44-3.54,4.7-5.7.41-.71.76-1.48,1.28-2.1,1.01-1.18,2.87-1.37,4.2-.54,1.19.75,1.84,2.35,1.38,3.69-.31.88-.71,1.75-1.2,2.55-5.3,8.64-13.08,13.33-23.13,14.22-3.89.34-7.75.03-11.53-1.18-4.59-1.47-8.55-3.89-11.83-7.42-.56-.6-1.12-1.19-1.83-1.95Z"/>
  <path d="M207.16,189.14c.12,21.67-18.1,39.7-39.98,39.59-21.71-.11-39.73-18.12-39.61-40.01.12-21.83,18.26-39.69,40.03-39.6,21.36.09,39.86,17.81,39.57,40.01Z"/>
  <path d="M76.31,158.96c17.02-.24,33.32,13.35,33.45,33.11.12,19.13-15.22,33.38-33.06,33.53-18.61.15-33.63-14.91-33.62-33.33,0-18.82,15.46-33.42,33.24-33.32Z"/>
  <path class="cls-2" d="M166.02,175.21c5.25-.09,9.46,1.24,13.31,3.72,5.62,3.61,9.47,8.73,12.37,14.64,1.64,3.35-1.01,6.32-3.94,5.95-1.26-.16-2.22-.78-2.87-1.82-.56-.89-1.01-1.86-1.54-2.77-2.04-3.49-4.48-6.64-7.9-8.9-5.54-3.66-11.21-3.83-16.96-.52-2.16,1.24-3.99,2.91-5.6,4.81-1.99,2.35-3.56,4.96-4.79,7.78-.37.86-.72,1.76-1.26,2.51-.88,1.22-2.17,1.84-3.69,1.59-1.48-.24-2.59-1.08-3.18-2.51-.37-.91-.43-1.87-.06-2.76,4.01-9.89,10.04-17.78,20.82-20.99,1.95-.58,3.94-.62,5.3-.73Z"/>
  <path class="cls-3" d="M97.96,196.4c.02,1.8-1.06,3.33-2.66,3.84-1.67.53-3.43.06-4.44-1.29-.49-.65-.86-1.4-1.25-2.13-1.12-2.09-2.48-4.01-4.18-5.67-5.67-5.57-12.75-5.62-18.56-.15-2.18,2.05-3.81,4.48-5.07,7.17-.4.85-.72,1.75-1.2,2.55-1.05,1.73-3.04,2.36-4.92,1.63-1.68-.65-2.64-2.33-2.39-4.26.06-.46.18-.93.35-1.36,2-4.86,4.78-9.18,8.85-12.59,8.7-7.29,19.94-6.95,28.19.87,2.77,2.62,4.89,5.72,6.6,9.11.38.75.71,1.49.67,2.27Z"/>
</svg>