<?xml version="1.0" encoding="UTF-8"?>
<svg id="Layer_1" data-name="Layer 1" xmlns="http://www.w3.org/2000/svg" viewBox="0 0 1158.67 698.33">
  <defs>
    <style>
      .cls-1 {
        fill: #010101;
      }

      .cls-2 {
        fill: #fff;
      }
    </style>
  </defs>
  <g>
    <path d="M683.13,697.71c-57.41,0-114.15-22.86-153.96-63.36-18.88-19.21-18.62-50.08.59-68.96,19.21-18.88,50.09-18.61,68.96.59,25.55,25.99,66.05,38.82,103.18,32.68,21.15-3.5,49.65-14.5,65.31-47.02,7.14-14.83,11.24-33.21,15.58-52.66,8.44-37.81,17.99-80.66,52.92-116.61,25.32-26.07,59.85-44.42,97.23-51.67,37.35-7.25,76.22-3.16,109.45,11.51,42.24,18.64,76.63,53.11,96.84,97.03,19.2,41.74,24.4,89.08,14.64,133.29-5.81,26.3-31.83,42.91-58.13,37.11-26.3-5.81-42.91-31.83-37.11-58.13,10.77-48.81-13.66-101.55-55.62-120.07-31.52-13.91-73.36-5.79-97.33,18.89-15.7,16.17-21.26,41.07-27.69,69.9-5.1,22.87-10.89,48.79-22.9,73.74-26.01,54.01-76.04,90.79-137.26,100.92-11.5,1.9-23.11,2.83-34.69,2.83Z"/>
    <g>
      <g>
        <path class="cls-1" d="M565.25,97.31c-32.53-11.67-65.68-18.79-98.73-21.67-.33-1.11-1.14-1.92-1.67-2.8-10.18-16.43-20.24-32.94-30.69-49.19-3.23-5.03-3.13-9.67-1.01-14.79,2.22-5.41,6.39-8.1,12.01-8.7,5.57-.59,10.93.44,16.16,2.26,10.42,3.61,20.23,8.5,29.48,14.49,20.25,13.12,38.77,28.33,54.69,46.52,4.62,5.29,8.8,11.01,12.83,16.79,3.54,5.1,6.1,10.68,6.94,17.09Z"/>
        <path class="cls-1" d="M316.75,93.55c.12-.11.26-.24.42-.37-1.26-2.15-2.52-4.4-3.88-6.59-9.5-15.31-19.02-30.62-28.53-45.92-.97-1.56-1.95-3.11-2.78-4.74-1.46-2.87-1.86-5.95-1.2-9.12.75-3.58,2.73-6.42,6.24-7.42,3.22-.91,6.65-1.43,9.99-1.41,7.64,0,15,1.93,22.15,4.47,17.89,6.34,34.2,15.48,49.06,27.31,6.79,5.41,12.44,11.88,18.3,18.2,2.65,2.88,5.22,5.81,8.02,8.96-26.5,2.92-52.58,8.51-77.8,16.62Z"/>
      </g>
      <path d="M744.38,463.14c-3.43,12.71-7.69,25.22-12.79,37.56-7.15,17.41-15.97,34.48-26.41,51.17-2.56,4.03-5.23,8-7.97,11.91-5.05,7.19-10.39,14.14-16.02,20.87-53.39,63.95-131.56,106.5-219.77,112.85-7.63.56-15.32.83-23.09.83-2.48,0-4.96-.03-7.43-.08-.51-.02-1.03-.03-1.54-.05-82.1-2.56-157.43-36.13-213.07-90.93-4.57-4.51-9.01-9.16-13.31-13.95-2.34-2.6-4.62-5.24-6.88-7.92-28.47-33.92-50.12-74.23-62.63-119.15-.47-1.65-.91-3.32-1.36-4.98-2.01-7.72-3.72-15.48-5.14-23.27-.28-1.52-.54-3.05-.8-4.59-.16-1.08-.34-2.16-.51-3.23-.2-1.31-.39-2.61-.57-3.92-1.72-11.95-2.71-23.99-2.97-36.08-.05-2.4-.08-4.82-.1-7.23v-.41c.02-8.18.36-16.36,1-24.6,1.96-24.82,6.52-48.59,13.65-71.33.98-3.1,1.99-6.19,3.07-9.24,3.72-10.73,8.05-21.23,13-31.5.87-1.83,1.75-3.66,2.68-5.47.24-.49.49-.98.75-1.47.69-1.34,1.37-2.68,2.09-4.02.56-1.08,1.13-2.16,1.71-3.22.95-1.75,1.91-3.49,2.91-5.23,8.9-15.66,19.27-30.74,31.06-45.24.06-.1.15-.2.23-.29.98-1.22,1.78-2.48,2.45-3.82,20.25-23.89,44-44.73,70.44-61.75.02.05.05.08.08.13,6.37-3.64,12.35-7.19,18.44-10.53,1.65-.91,3.3-1.8,4.96-2.68,4.61-2.45,9.31-4.85,14.19-7.41.02-.1.05-.21.07-.31,3.46-1.6,6.94-3.15,10.47-4.64,21.74-9.18,44.72-15.99,68.62-20.12.05.07.08.11.13.18,1.27-.2,2.53-.38,3.81-.56,9.77-1.37,19.43-2.38,29.02-2.99.67-.07,1.32-.1,1.99-.13,1.14-.07,2.3-.13,3.45-.18,1.14-.07,2.29-.11,3.43-.16,2.29-.08,4.57-.15,6.84-.2,1.14-.02,2.29-.03,3.41-.05.78-.02,1.57-.02,2.35-.02,1.6,0,3.22.02,4.82.03,5.94.07,11.84.29,17.7.69h.02c35.75,2.29,70.14,10.45,103.05,24.92,10.71,4.72,21.26,10.09,31.65,16.15,8.31,4.85,16.51,10.13,24.61,15.86,8.66,6.11,16.9,12.51,24.76,19.17.95.8,1.91,1.63,2.86,2.48,16.1,13.98,30.43,29.13,42.97,45.43,1.29,1.67,2.55,3.35,3.79,5.05,7.56,10.27,14.44,20.99,20.59,32.14.36.64.72,1.27,1.06,1.93,10.34,19.04,18.68,39.33,24.95,60.85,3.51,12.02,6.38,24.42,8.61,37.2,2.25,13,3.74,25.84,4.46,38.53.03.23.03.46.05.69,1.85,33.15-1.52,65.28-9.9,96.34Z"/>
      <path d="M99.22,260.59c-.41,3.42-2.36,5.75-5.76,6.56-1.5.36-3.09.38-4.64.49-25.97,1.87-51.93,3.73-77.9,5.57-1.29.09-2.61.15-3.89,0-3.97-.46-6.73-3.35-7-7.17-.26-3.54,2.39-6.84,6.35-7.75,1.26-.29,2.57-.35,3.87-.44,25.97-1.82,51.94-3.64,77.91-5.45,1.55-.11,3.14-.36,4.66-.16,4.16.54,6.9,4.23,6.41,8.35Z"/>
      <path d="M729.03,169.27c-6.35-1.08-9.06-7.17-5.95-11.6,1.02-1.46,2.48-2.67,3.9-3.78,20.64-15.99,41.3-31.95,61.97-47.89,1.23-.95,2.52-1.92,3.93-2.53,3.22-1.41,7.1-.21,9.06,2.58,2.1,3.01,1.96,6.52-.6,9.33-1.22,1.34-2.7,2.46-4.14,3.57-20.03,15.5-40.07,30.98-60.12,46.45-1.24.96-2.43,2.06-3.83,2.68-1.6.71-3.41.97-4.22,1.18Z"/>
      <path d="M101.61,215.61c-.95-.4-2.68-1.01-4.29-1.83-23.05-11.68-46.09-23.37-69.11-35.09-1.61-.82-3.28-1.68-4.62-2.87-2.69-2.4-3.11-6.35-1.27-9.3,1.81-2.9,5.62-4.37,8.88-3.23,1.72.6,3.33,1.49,4.96,2.32,22.34,11.34,44.68,22.68,67.01,34.04,1.85.94,3.76,1.88,5.39,3.15,2.59,2.02,3.35,5.67,2.1,8.49-1.53,3.44-4.54,5.07-9.04,4.33Z"/>
      <path d="M836.64,204.91c-.18.97-1.77,2.98-4.47,3.82-1.98.61-4.08.85-6.15,1.1-24.6,2.95-49.21,5.87-73.82,8.79-1.81.22-3.63.51-5.45.54-4.22.07-7.6-2.96-8.01-7.02-.36-3.57,2.15-6.95,6.13-7.96,1.76-.45,3.6-.59,5.41-.8,24.61-2.92,49.21-5.85,73.82-8.73,2.31-.27,4.72-.53,7-.21,4.24.6,6.68,4.42,5.53,10.47Z"/>
      <path class="cls-2" d="M432.28,293.64c2.85,0,5.71-.12,8.55.04,1.9.11,3.16,2.22,2.55,4-.33.97-.79,1.91-1.32,2.8-4.8,8.02-9.62,16.03-14.43,24.04-.27.44-.56.88-.87,1.29-2.01,2.62-4.34,2.83-6.41.17-6.21-8-12.35-16.07-18.33-24.25-2.07-2.83-.56-5.75,3.05-6.04,9.06-.74,18.14-1.28,27.22-1.91,0-.05,0-.1,0-.14Z"/>
      <g>
        <path class="cls-2" d="M535.34,204.35c.62,26.51-20.76,51.8-51.44,52.21-28.61.39-52.13-22.82-52.37-51.33-.23-29.13,22.9-52.6,51.88-52.57,30.92.02,52.37,25.54,51.93,51.69Z"/>
        <path class="cls-2" d="M392.52,212.62c.36,23.91-19.45,45.76-45.92,45.68-26.05-.07-45.71-21.69-45.68-46.01.03-22.1,17.46-45.78,46.02-45.65,28.82.13,46.23,24.14,45.58,45.97Z"/>
        <path d="M509.11,225.33c.51,14.13-10.77,31.32-31.33,31.4-20.41.08-31.98-16.99-31.65-31.96.39-17.35,14.34-31.1,31.82-30.96,17.53.15,31.2,13.97,31.16,31.52Z"/>
        <path d="M346.17,260.79c-15.47.15-27.97-12.03-28.14-27.42-.17-15.33,12.21-27.78,27.55-28.11,11.8-.26,27.74,8.38,28.08,27.53.3,16.75-13.23,28.12-27.49,28Z"/>
      </g>
    </g>
  </g>
  <ellipse class="cls-2" cx="425.51" cy="354.25" rx="22.79" ry="26.41" transform="translate(-35.21 47.19) rotate(-6.1)"/>
</svg>