<?xml version="1.0" encoding="UTF-8"?>
<svg id="Layer_1" data-name="Layer 1" xmlns="http://www.w3.org/2000/svg" viewBox="0 0 800.28 408.26">
  <defs>
    <style>
      .cls-1 {
        fill: #fcb816;
      }

      .cls-2 {
        fill: #fff;
      }

      .cls-3 {
        fill: #ed342f;
      }
    </style>
  </defs>
  <g>
    <path d="M452.03,208.15c-2.09,21.07-8.35,41.76-18.71,60.75-6.55,12.01-14.74,23.33-24.56,33.64-2.48,2.6-5.06,5.13-7.75,7.6-10.3,9.45-21.5,17.31-33.3,23.57-8.82,4.68-17.97,8.47-27.33,11.37-17.05,5.3-34.78,7.67-52.41,7.14-41.61-1.26-82.68-18.65-113.06-51.74-6.5-7.08-12.25-14.6-17.24-22.44-3.35-5.27-6.37-10.68-9.04-16.22-.15-.32-.31-.63-.46-.95-8.22-17.31-13.13-35.75-14.79-54.4-4.22-47.86,13.05-97.09,51.18-132.09,12.89-11.83,27.2-21.15,42.32-27.99,10.4-4.7,21.2-8.23,32.18-10.59,9.63-2.07,19.41-3.23,29.19-3.51,13.28-.37,26.58.91,39.57,3.81,30.8,6.88,59.88,22.92,82.85,47.93,32.09,34.96,45.71,80.34,41.36,124.12Z"/>
    <ellipse class="cls-2" cx="191.86" cy="127.18" rx="24.12" ry="18.12" transform="translate(3.71 259.78) rotate(-68.71)"/>
    <ellipse class="cls-2" cx="244.82" cy="138.15" rx="30.99" ry="20.31" transform="translate(27.22 316.12) rotate(-68.71)"/>
    <path d="M374.59,401.67c-5.29,4.86-12.62,7.41-20.3,6.36-39.96-5.45-60.87-38.78-66.92-57.61l47.6-15.3-.09-.27c.3.86,7.55,21.1,26.17,23.64,13.68,1.87,23.26,14.47,21.39,28.15-.82,6.01-3.71,11.23-7.85,15.03Z"/>
    <path d="M462.68,365.78c-6.04,5.54-14.68,8.01-23.2,5.8-7.43-1.93-14.79-4.36-21.88-7.23-22.4-9.08-42.71-22.67-60.37-40.41-9.74-9.78-9.71-25.61.07-35.36,9.8-9.75,25.61-9.71,35.36.07,12.89,12.94,27.6,22.82,43.72,29.35,5.07,2.05,10.34,3.8,15.66,5.18,13.36,3.47,21.39,17.11,17.92,30.48-1.26,4.84-3.85,8.98-7.27,12.12Z"/>
    <path d="M787.82,368.61c-.21.19-.41.37-.63.56-10.47,9-26.26,7.8-35.25-2.67-19.66-22.88-41.59-37.57-65.17-43.65-26.26-6.77-47.37-1.13-71.82,5.4-24.75,6.61-52.8,14.1-86.25,6.81-44.24-9.64-83.4-42.27-116.38-96.98-7.13-11.82-3.32-27.19,8.5-34.32,11.82-7.13,27.19-3.32,34.32,8.5,25.6,42.47,53.93,67.35,84.21,73.95,21.61,4.71,40.66-.38,62.71-6.26,27.3-7.29,58.23-15.55,97.2-5.51,33.68,8.68,64.17,28.69,90.62,59.48,8.82,10.26,7.85,25.62-2.04,34.7Z"/>
    <path d="M128.67,194.58c-32.44-19.42-60.68-44.43-83.93-74.33-8.48-10.9-24.18-12.87-35.08-4.39-10.9,8.47-12.86,24.18-4.39,35.08,27.07,34.81,59.95,63.93,97.72,86.54,19.12,11.45,39.09,20.97,59.77,28.56,2.69-17.26,4.56-34.67,4.51-51.94-13.25-5.56-26.14-12.07-38.6-19.53Z"/>
    <path d="M225.14,48.83s19.14-27.23,32.54-39.59c1.74-1.61,4.53-.11,4.11,2.23-.97,5.45-2.2,14.15-2.81,25.68l-33.84,11.68Z"/>
    <path d="M286.04,33.8S321.75,9.15,339.8.26c2.19-1.08,4.44,1.34,3.22,3.45-5.74,9.85-15.96,28.62-15.9,37.22l-41.07-7.14Z"/>
    <ellipse cx="190.29" cy="120.85" rx="14.96" ry="11.23" transform="translate(8.6 254.29) rotate(-68.71)"/>
    <ellipse cx="240.91" cy="129.4" rx="16.88" ry="11.06" transform="translate(32.89 306.91) rotate(-68.71)"/>
    <path class="cls-2" d="M211.9,197.44c1.23-1.95,2.54-4.04,3.84-6.13.86-1.37,1.77-2.7,2.55-4.11.8-1.43.12-2.48-1.58-2.56-.32-.02-.65,0-.97.01-4.73.16-9.46.31-14.19.48-.84.03-1.77-.09-2.3.82-.62,1.06.08,1.84.64,2.62,1.77,2.44,3.56,4.86,5.32,7.3.37.51.67,1.08,1.09,1.76-1.88,5.1-5.7,7.67-10.9,8.24-4.42.48-8.26-.99-11.32-4.31-.51-.55-.98-1.14-1.55-1.62-.56-.47-1.5-.38-2.11.08-.68.51-.95,1.23-.68,1.99.25.69.67,1.35,1.14,1.91,6.56,7.9,19.55,7.99,26.22.18.63-.73,1.19-1.52,1.87-2.39.89.28,1.24,1.11,1.78,1.69,4.81,5.14,12.57,6.29,18.62,2.74,1.7-.99,3.15-2.25,4.2-3.93.61-.98.45-1.93-.34-2.6-.72-.61-1.65-.67-2.35-.05-.64.57-1.15,1.27-1.78,1.86-5.36,5.02-14.2,3.09-17.22-3.98Z"/>
    <path d="M94.04,157.28c-1.72,0-3.3-1.11-3.83-2.84-.64-2.11.55-4.35,2.67-4.99l28.71-8.72c2.11-.64,4.35.55,4.99,2.66.64,2.11-.55,4.35-2.67,4.99l-28.71,8.72c-.39.12-.78.17-1.16.17Z"/>
    <path d="M121.71,132.66c-.42.05-.85.04-1.29-.05l-40.57-8.05c-2.17-.43-3.57-2.53-3.14-4.7.43-2.17,2.54-3.58,4.7-3.14l40.57,8.05c2.17.43,3.57,2.53,3.14,4.7-.34,1.73-1.76,2.98-3.41,3.19Z"/>
    <path d="M127.54,117.28c-.47-.11-.93-.33-1.34-.64l-24.05-18.51c-1.56-1.2-1.85-3.44-.65-5,1.2-1.56,3.44-1.85,5-.65l24.05,18.51c1.56,1.2,1.85,3.44.65,5-.88,1.15-2.33,1.61-3.66,1.29Z"/>
  </g>
  <path class="cls-3" d="M402.79,80.64c31.71,12.32,54.69,10.7,69.5,7.21,32.51-7.66,43.73-28.54,91.49-44.57,17.73-5.95,27.17-9.12,39.68-9.55,61.93-2.15,111.81,65.83,143.58,109.13,15.09,20.56,35.31,51.68,53.25,93.51-3.62-1.12-8.84-2.74-15.13-4.67-29.18-8.96-43.9-13.46-50.65-14.73-9.66-1.82-25.29-4.73-44.44-1.82-16.56,2.52-19.37,6.84-45.99,14.02-9.72,2.62-22.53,6.08-37.35,7.74-11.99,1.34-27.8,1.79-59.96-3.7-37.95-6.48-36.79-10.66-69.34-16.45-38.79-6.91-82.47-.13-82.47-.13-23.61,3.67-39.36,9.3-69.88,20.4-49.83,18.13-87.02,37.52-87.11,37.33-.07-.15,25.2-11.29,51.11-25.11,61.17-32.64,101.53-54.18,115.93-94.23,4.46-12.41,10.25-37.21-2.21-74.37Z"/>
  <path d="M547.49,120.71c-7.27,6.68-18.14,8.67-27.61,4.18-17.92-8.48-36.99-13.1-56.68-13.73-29.81-.95-48.57-.2-55.74,2.25-13.07,4.46-27.28-2.51-31.74-15.58-4.46-13.07,2.51-27.28,15.58-31.74,16.14-5.51,41.05-5.95,73.5-4.91,26.59.85,52.32,7.08,76.47,18.51,12.48,5.91,17.81,20.81,11.9,33.29-1.42,3.01-3.37,5.6-5.68,7.72Z"/>
  <path class="cls-3" d="M236.77,274.8c-37.56-4.07-57.34-1.74-68.6,1.48-1.96.57-6.16,1.87-10.5,1.76-3.35-5.27-6.37-10.68-9.04-16.22,3.69.48,9.85,3.54,19.1,5.87,12.41,3.12,15.84,1.26,36.3,2.82,7.69.58,18.96,1.74,32.74,4.29Z"/>
  <circle class="cls-1" cx="240.77" cy="271.24" r="14.37"/>
  <g>
    <path d="M241.63,271.48c0,2.03-.91,4.01-2.68,5.1.55.81,1.48,1.31,2.23,1.69-.32.84-1.96,2.31-2.42,2.53-1.51-.47-2.93-1.98-3.57-3.39-.55-.03-1.09-.12-1.58-.27-2.43-.75-3.96-2.9-3.96-6.04s1.91-5.95,5.97-5.95c3.64,0,6,2.4,6,6.32ZM235.71,268.47c-1.38,0-2.1,1.02-2.1,2.8,0,1.98.91,2.72,2.03,2.72,1.33,0,2.15-1.04,2.15-2.8,0-1.59-.86-2.72-2.08-2.72Z"/>
    <path d="M241.95,265.51c.08-.13,8.62-.34,9.17-.18.29.05.24,3.14.12,3.15-.3.05-1.42.1-2.78.15.02,3.4.05,8.27-.03,8.38-.08.12-3.62.22-3.64.08-.07-.69-.1-5.27-.07-8.5-1.24.02-2.26,0-2.68-.05-.13-.67-.17-2.92-.08-3.04Z"/>
  </g>
</svg>