<?xml version="1.0" encoding="UTF-8"?>
<svg id="Layer_1" data-name="Layer 1" xmlns="http://www.w3.org/2000/svg" viewBox="0 0 1065.99 642.47">
  <defs>
    <style>
      .cls-1 {
        fill: #ff2cfa;
      }

      .cls-1, .cls-2, .cls-3, .cls-4, .cls-5 {
        fill-rule: evenodd;
      }

      .cls-6 {
        fill: #ea71b3;
      }

      .cls-7 {
        fill: #010101;
      }

      .cls-2 {
        fill: #5dc28f;
      }

      .cls-8 {
        opacity: .92;
      }

      .cls-3 {
        fill: #4f6ac9;
      }

      .cls-9 {
        fill: #fff;
      }

      .cls-4 {
        fill: #41e573;
      }

      .cls-10 {
        fill: #b7ce2d;
      }

      .cls-11 {
        fill: #f4ea40;
      }

      .cls-5 {
        fill: #40bccf;
      }

      .cls-12 {
        fill: none;
        stroke: #000;
        stroke-linecap: round;
        stroke-linejoin: round;
        stroke-width: 89.73px;
      }
    </style>
  </defs>
  <path class="cls-12" d="M1017.76,517.05c13.94-63.13-16.1-134.36-76.87-161.18-46.05-20.33-104.75-8.96-139.84,27.17-38.22,39.36-32.23,97.11-54.79,143.95-42.11,87.45-164,89.7-227.43,25.18"/>
  <g>
    <g>
      <path class="cls-7" d="M520.03,89.53c-29.93-10.73-60.42-17.28-90.84-19.94-.3-1.02-1.05-1.76-1.54-2.58-9.36-15.12-18.62-30.31-28.23-45.25-2.97-4.63-2.88-8.9-.93-13.61,2.04-4.98,5.88-7.45,11.05-8,5.12-.54,10.06.4,14.86,2.08,9.59,3.32,18.62,7.82,27.12,13.33,18.63,12.07,35.67,26.06,50.32,42.8,4.26,4.87,8.1,10.13,11.8,15.45,3.25,4.69,5.61,9.83,6.39,15.72Z"/>
      <path class="cls-7" d="M291.42,86.07c.11-.1.24-.22.39-.34-1.16-1.97-2.32-4.05-3.57-6.06-8.74-14.09-17.5-28.17-26.25-42.24-.89-1.44-1.79-2.86-2.56-4.36-1.35-2.64-1.71-5.47-1.1-8.39.69-3.3,2.51-5.9,5.74-6.82,2.96-.83,6.12-1.31,9.2-1.3,7.03,0,13.8,1.77,20.38,4.12,16.46,5.83,31.47,14.24,45.13,25.13,6.25,4.98,11.45,10.93,16.83,16.74,2.44,2.65,4.8,5.34,7.38,8.24-24.38,2.69-48.37,7.83-71.58,15.29Z"/>
    </g>
    <path d="M684.84,426.1c-3.16,11.69-7.08,23.2-11.76,34.56-6.58,16.02-14.69,31.72-24.3,47.07-2.36,3.71-4.81,7.36-7.33,10.95-4.64,6.61-9.56,13.01-14.74,19.2-49.12,58.84-121.04,97.98-202.19,103.82-7.02.51-14.09.77-21.25.77-2.28,0-4.57-.03-6.84-.08-.47-.01-.95-.03-1.41-.04-75.53-2.36-144.84-33.24-196.03-83.66-4.21-4.15-8.29-8.43-12.25-12.83-2.15-2.39-4.25-4.82-6.33-7.29-26.19-31.21-46.11-68.29-57.62-109.62-.44-1.52-.84-3.05-1.25-4.58-1.85-7.11-3.43-14.24-4.73-21.41-.26-1.4-.5-2.81-.74-4.22-.15-.99-.32-1.98-.47-2.97-.18-1.2-.36-2.4-.53-3.61-1.58-11-2.49-22.07-2.74-33.19-.04-2.21-.07-4.43-.09-6.66v-.38c.01-7.53.33-15.06.92-22.63,1.8-22.84,5.99-44.7,12.56-65.63.9-2.85,1.83-5.69,2.82-8.5,3.43-9.87,7.41-19.53,11.96-28.98.8-1.68,1.61-3.37,2.46-5.03.23-.45.45-.9.69-1.35.63-1.23,1.26-2.46,1.92-3.7.51-.99,1.04-1.98,1.58-2.96.87-1.61,1.76-3.22,2.67-4.81,8.19-14.41,17.73-28.28,28.58-41.62.06-.09.13-.18.21-.27.9-1.13,1.64-2.28,2.25-3.52,18.63-21.98,40.48-41.15,64.8-56.81.02.05.05.08.08.12,5.86-3.35,11.36-6.61,16.96-9.69,1.52-.84,3.04-1.65,4.57-2.46,4.24-2.25,8.56-4.46,13.06-6.82.01-.09.04-.2.06-.29,3.19-1.47,6.39-2.9,9.63-4.27,20-8.44,41.14-14.71,63.14-18.51.05.06.08.1.12.17,1.17-.18,2.33-.35,3.5-.51,8.98-1.26,17.88-2.19,26.7-2.75.62-.06,1.22-.09,1.83-.12,1.05-.06,2.12-.12,3.17-.17,1.05-.06,2.1-.11,3.16-.15,2.1-.07,4.21-.13,6.3-.18,1.05-.02,2.1-.03,3.14-.05.72-.02,1.44-.02,2.16-.02,1.47,0,2.96.02,4.43.03,5.47.06,10.89.27,16.29.63h.01c32.89,2.1,64.53,9.62,94.81,22.93,9.86,4.34,19.56,9.29,29.12,14.86,7.65,4.46,15.19,9.32,22.64,14.59,7.96,5.62,15.55,11.51,22.78,17.64.87.74,1.76,1.5,2.63,2.28,14.81,12.86,27.99,26.8,39.53,41.8,1.19,1.53,2.34,3.08,3.49,4.64,6.96,9.45,13.28,19.31,18.95,29.57.33.59.66,1.17.98,1.77,9.51,17.52,17.19,36.18,22.96,55.98,3.23,11.06,5.87,22.46,7.92,34.23,2.07,11.96,3.44,23.77,4.1,35.44.03.21.03.42.04.63,1.7,30.5-1.4,60.05-9.11,88.63Z"/>
    <path d="M91.28,239.75c-.37,3.15-2.17,5.29-5.3,6.04-1.38.33-2.84.35-4.27.45-23.89,1.72-47.78,3.43-71.67,5.13-1.19.08-2.4.13-3.58,0-3.65-.43-6.19-3.08-6.44-6.6-.24-3.26,2.2-6.29,5.84-7.13,1.16-.26,2.37-.32,3.56-.4,23.89-1.68,47.78-3.35,71.68-5.01,1.43-.1,2.89-.33,4.29-.15,3.83.5,6.35,3.89,5.9,7.68Z"/>
    <path d="M670.72,155.73c-5.84-.99-8.33-6.59-5.48-10.67.94-1.34,2.28-2.46,3.59-3.48,18.99-14.71,38-29.39,57.02-44.06,1.13-.87,2.32-1.76,3.61-2.33,2.96-1.29,6.54-.19,8.33,2.38,1.93,2.76,1.8,6-.56,8.59-1.12,1.23-2.48,2.26-3.81,3.29-18.43,14.26-36.87,28.5-55.31,42.73-1.14.88-2.24,1.89-3.53,2.47-1.47.66-3.13.89-3.89,1.09Z"/>
    <path d="M93.48,198.37c-.88-.37-2.46-.93-3.95-1.69-21.2-10.74-42.4-21.5-63.58-32.29-1.48-.76-3.02-1.55-4.25-2.64-2.48-2.21-2.86-5.84-1.17-8.55,1.66-2.67,5.17-4.02,8.17-2.98,1.58.55,3.07,1.37,4.56,2.13,20.55,10.43,41.11,20.86,61.65,31.32,1.71.87,3.46,1.73,4.96,2.9,2.38,1.86,3.08,5.21,1.93,7.81-1.41,3.16-4.18,4.66-8.32,3.99Z"/>
    <path d="M769.72,188.52c-.16.89-1.63,2.75-4.11,3.51-1.82.56-3.75.79-5.65,1.01-22.63,2.71-45.27,5.4-67.91,8.09-1.67.2-3.34.47-5.01.5-3.88.06-6.99-2.73-7.37-6.46-.33-3.29,1.98-6.39,5.64-7.32,1.62-.41,3.31-.54,4.98-.74,22.64-2.69,45.28-5.38,67.92-8.03,2.13-.25,4.34-.49,6.44-.19,3.9.55,6.14,4.07,5.09,9.63Z"/>
    <path class="cls-9" d="M397.7,270.15c2.62,0,5.25-.11,7.87.04,1.75.1,2.9,2.04,2.35,3.68-.3.89-.73,1.76-1.21,2.57-4.41,7.38-8.85,14.75-13.28,22.12-.25.41-.51.81-.8,1.19-1.85,2.41-3.99,2.6-5.89.15-5.72-7.36-11.36-14.78-16.87-22.31-1.91-2.6-.52-5.29,2.8-5.56,8.34-.68,16.69-1.18,25.04-1.75,0-.04,0-.09,0-.13Z"/>
    <g>
      <path class="cls-9" d="M492.52,188.01c.57,24.39-19.1,47.66-47.33,48.04-26.32.36-47.96-20.99-48.19-47.22-.21-26.8,21.07-48.4,47.73-48.37,28.44.02,48.19,23.5,47.78,47.55Z"/>
      <path class="cls-9" d="M361.12,195.61c.33,22-17.89,42.1-42.25,42.03-23.97-.06-42.06-19.95-42.02-42.33.03-20.33,16.06-42.12,42.34-42,26.52.12,42.54,22.21,41.93,42.3Z"/>
      <path d="M468.38,207.3c.47,13-9.91,28.82-28.82,28.89-18.77.07-29.42-15.63-29.12-29.41.36-15.96,13.19-28.62,29.27-28.48,16.13.14,28.7,12.85,28.67,29Z"/>
      <path d="M318.49,239.93c-14.23.14-25.73-11.07-25.89-25.22-.15-14.1,11.24-25.55,25.35-25.86,10.86-.23,25.52,7.71,25.84,25.32.27,15.41-12.17,25.87-25.29,25.76Z"/>
    </g>
  </g>
  <path class="cls-9" d="M420.74,322.52c-7.53-20.53-51.07-20.66-58.79,0-4.12-32.53,62.82-32.67,58.79,0Z"/>
  <g class="cls-8">
    <path class="cls-5" d="M245.71,304.53c2.42.08,2.07-2.06,4.26-2.16,2.72.61,3.3,3.9,4.63,6.24,2.31.17,1.72-1.99,4.32-1.6,1.75.57,2.58,2.26,3.77,3.53,4.98-1.58,6.45,1.23,9.27,2.35.88-.99.87-2.68,2.47-3.09,5.56,1.63,5.42-5.42,11.43-3.51,1.14-6.55,5.64-10.67,12.87-10.99-.18-3.37-4.04-2.13-5-4.52-1.5-4.75,1.1-6.21,1.18-9.69-2.2-2.91-4.07-7.34-5.37-12.92-2.86.41-3.62-1.81-4.87-3.4-2.92.7-4.9.21-5.81-1.61-.94-2.95.72-3.82.44-6.24-2.49,1.55-4.35,3.61-7.97,4.25-2.65-1.53-4.57-4-9.82-2.29-.11,1.76-1.02,2.9-2.41,3.64-1.78-.52-1.86-3.16-4.26-2.9-1.72,1.31,1.61,6.21-2.04,6.98-2.32.37-2.02-2.54-4.7-1.73-.32,2.61-.21,3.63.68,6.11-3.41,2.66-4.77-2.26-6.86-.93.28,2.4,2.99,1.74,3.26,4.14-2.15,3.7,1.93,9.88-1.37,13.09-2.34,1.51-10.68-.54-13.78,2.64,10.83-4.29,20.77,4.61,15.67,14.6Z"/>
    <path class="cls-3" d="M161.97,369.25l.15,1.38c2,.42,1.66.2,3.38-1.07,1.41.83,2.25-.01,3.57.66.43-1.56,1.29-2.76,3.92-2.53.9-3,3.98-5.47,3.55-9.15-.22-1.93-2.44-3.63-1.3-5.46,6.4,5.39,19.27-2.46,26.51-1.17-.59,2.79-1.67,5.18-2.28,7.96-1.25.49-2.63,2.16-1.35,3.65,4.48-2.1,3.66-8.43,8.31-10.37,2.11,1.89,4.28,2.24,6.77,4.16.82,5.05,3.51,7.28,5.68,10.23.9,1.22.81,3.09,2.77,2.85.14-.52.45-.91.92-1.15.05-2.03-1.23-2.4-1.18-4.43,3.35-2.34,9.63-.52,13.76.94.18-2.2-1.08-2.59-1.19-4.42,3.42-2.24,5.98.17,9.28-1.73,2.04,1,3.02,3.32,5.65,3.59,2.52,1.71,3.29,5.61,6.34,6.66-.18-2.37-1.37-2.51-2.54-3.92-1.34-1.61-2.78-4.5-4.15-5.86-1.79-1.76-3.88-2.19-3.96-4.11-.11-2.64,2.93-3.11,5.08-4.77,1.1-9.82,12.37-8.08,20.32-6.44-4.74-1.84-10.7-2.15-14.88-4.67,2.34-2.34,4.5-4.81,5.77-8,2.05-.07,2.75,1.56,5.35.81.09-1.95-2.02-1.15-2.69-2.15,5.24-1.83,7.95,2.61,13.77.93.13.49.64.53.81.96.36,1.24-.61,1.42-.43,2.5,1.66.99,3.03,2.5,2.96,4.58,2.58.86,4.82,2.12,5.49,5.36,1.73.12.74-1.94,2.62-1.69,1.25,2.77,2.75.65,5.42,1.5.35-.56.27-1.46.85-1.84,3.83.44,3.54-2.43,5.58-3.42,2.44.62,3.77,2.4,6.42,1.04-.3-1.86-3.33-.3-4.04-1.66.91-3.37,1.42-7.06,2.74-10.11-1.54-.75-2.6-2.7-1.96-5.04-2.36-1.74-4.79-3.81-5.92-6.01-1.29-.09-1.25.9-2.34.96-1.17-.65-2.32-1.31-2.77-2.85-3.17,2.19-6.95,2.43-10.47,3.61-.52.52.1,1.98-.43,2.5-1.06.2-1.91.56-2.69,1-.83.54.51,1.66-.15,1.77-4.81-.12-12.2,1.4-16.27-1.36-1.49-3.61-2.68-7.22-1.22-11.08.55-.49,2.33.01,3.8-.42.92.17.78,1.66,1.92,1.54,5.93-1.77,9.77-5.21,11.09-10.68-.56-1.79-1.08-3.63-1.34-5.81-2.03-3.24-5.87-4.22-8.45-6.78-.56,1.48-3.19,1.55-4.47.84-3.67,2.42-7.27,4.91-8.05,9.65-5.19.57-5.91-4.44-9.42-5.97.37-5.28,1.46-9.98,2.21-14.96-2.33,2.33-2.81,6.67-2.95,11.54-1.39.57-2.28,1.54-3.61,2.15-.97-.76-2.47-.86-2.73-2.5-.17-1.3,1.13-1.41,1.12-2.57-3.98.88-10.41,1.97-10.65-4.44-2.06-.38-1.14,1.61-2.62,1.69-3.55-2.04-5.36-11.8-3.8-15.35,2.36,2.35,2.53,6.47,6.57,5.58,4.01-.88,4.13-6.81,1.01-9.92-3.67-.79-7.07-2.7-8.58,1.65-4.01-2.82-2.56-10.91.64-13.39,1.38-.47,2.73-.97,2.88-2.42-.27-.04-.43-.24-.42-.66-1.32-.58-3.76.24-5.58.27-1.13-1.61-2.63-2.76-3.03-5.27.84-1.22,3.67-2.52,2.69-4.15-.71,1.87-4.43,2.79-6.46,1.76-.28-1.23-.71-2.27-1.08-3.38-2.6-.66-4.82-2.68-7.88-1.59-1.01-.97-.85-3.4-2.19-3.96-2.02.06-1.14,2.45-3.23,2.46-.92-.95-.1-4.08-2.15-3.62-1.35.61-.45,3.01-1.31,4-2.81,1.08-4.59.44-7.27.8-.46-.47-.58-1.37-1.22-1.62-.14.64,1.17,1.33.19,1.73-1.45.11-1.71-1.28-3.58-.65.2,1.47.98,2.46.43,3.8-6.61,1.12-6.54,7.59-9.59,11.57-4.16,1.24-7.25-.93-9.84-.32,1.31.6,3.27.37,4.03,1.66-.62,1-2.39,1.58-1.42,2.96,2.21-.11,2.74-1.59,3.92-2.53,1.19.62,3.35.02,4,1.32.69,2.54-.81,3.34-1.58,4.72.46,1.66,1.71,2.33,1.88,4.35-.08,1.41-2.45.98-2.15,2.69.25,1.4,2.34.49,3.27,1.04.72,2.48.12,2.81.22,5.23,2.41.41,4.59,1.1,4.69,4.39,2.76.1,5.22.57,5.34,3.97.73.8,2.36.47,2.96,1.43-.38.15-1.02,1.64-.16,1.77.54-2.19,4.71-1.07,5.93-.3,1.32-.41,1.14-2.04,2.93-2.07.21.64.84.79.87,1.66-2.22,1.9-7.04,1.72-9.42,3.49.43,3.71,2.58,7.18.87,11.12-.35.04-.38.33-.65.42-.63-.53-1.54-.7-2.85-.39-3.5-3.97-8.83-3.48-13.26-5.89,2.66,3.78,12.08,2.51,11.76,11.32,2.33.28,1.45-3.33,3.23-2.46-.47,2.89-3.44,3.76-4.58,6.11-8.1,3.35-14.38-3.68-22.08-.02-1.28,9.81,15.78,5.94,17.18,12.82.87,4.26-3.16,3.36-5.77,4.84,1.14,2.66,5.02.07,6.5,1.74.49,3.02-2.47,3.28-4.04,4.65.93,3.32-1.74,3.86-2.81,6.27,1.04,1.73,4.18.82,4.88,2.97-1.58,2.95-3.64,9.1-8.39,6.53-1.81,1.81-3.36.32-5-.85-1.07,1.68-2.52,1.03-4.47.85-1.97,3.24-7.3,6.14-4.73,11.03.03,1.39-1.27,1.73-1.05,3.27,2.75,1.69,3.5,5.86,7.34,6.2Z"/>
    <path class="cls-2" d="M245.29,358.99c-4.19-.71-8.31-.46-6.48-6.05-4.75,1.65-9.83-1.03-13.91-3.3-6.76,2.43-11.06,1.54-16.46-.13-1.25,8.29-8.98,11.4-14.67,16.14,2.13,4.43,1.43,8.44-2.77,9.98-.27,9.48,7.14,12.44,4.33,21.78,9.87,1.1,13.78,9.64,21.76,13.09.53-2.19,1.5-4.03,4.36-4.36,2.66.31,2.83,3.73,6.16,3.19.79-4.64,5.7-6.43,11.04-5.08,2.22-6.95,6.77-12.01,12.77-15.92-5.48-3.95-.83-11.37,1.29-14.65-2.62-6.09-7.39-6.96-7.42-14.67Z"/>
    <path class="cls-6" d="M211.83,284.44c.35-2.37,2.68-.18,4.3-.97,1.29-1.6,1.45-3.46,1.85-5.34-.61-1.15-3.92-1.16-2.64-2.89,1.66-.43,2.42,2.05,4.09.53,2.05-1.33-.02-3.55.66-5.09,1.61,1.29,2.62-.66,4.4,0-.27-3.52,1.16-3.92,3.07-5.36.98,1.12,2.65,1.91,4.2,1.49.79-.57-.05-1.58.62-2.15,2.29-.25,3.25,6.24,5.16,1.39-.05-.48-.21-.95,0-1.23,1.62,1.42-.69,4.85,2.04,4.06.65-.68-.01-2.2,1.36-2.1-.35,1.38-.48,2.37,1.28,2.79,1.98.28,1.6-2.12,3.18-2.18,3.67-2.24,4.28-6.71,6.94-9.2.97.01,1.38,1.44,1.72,2.38,0,2.2-2.04,4.75-3.8,6.54,1.39,2.66-.72,5.69-1.32,7.97,1.28.59,1.76-1.78,2.87-1.66.32,1.68-2.48,1.86-1.45,3.46,1.14.36,2.56,2.16,3.53.96-.06.62-1.5.9-1.01,1.95.71.9,2.6-.78,2.42.95-2.62.65.1,3.05,0,4.4,1,1.24,3.08.27,3.95,1.4-1.7.18-3.23,1.83-4.26,3.52.36,1.07,3.41.97,1.74,2.5-.9-.39-1.8-.89-2.67.05-1.12,2.08.39,3.5.6,5.44-1.24,1-2.93-2.13-3.62.4-.89.83-1.6,2.13-1.18,3.67-.84,1.31-1.67-.8-2.61-.45-1.34,1.25-2.05,2.55-1.46,4.56-.54.67-1.7.19-2.02-.51-2.44.02-5.48-.87-7.63.59-2.15-1.72-3.27-4.16-4.04-6.64-1.01-.38-2.34-.24-3.3-1.11-1.45,1.26-2.88,1.55-4.67,1.98.57-1.53,2.06-3.41.8-4.99-1.81,1.31-4.76,1.14-6.49-.01-.75-1.26,1.11-1.1.99-2.19-.71-2-4.52-1.09-3.58-3.65.39-.9,2.05-.35,1.77-1.66-.3-.58-.26-1.32-.33-1.93-1.85-.17-3.48-1.69-5.45-1.72Z"/>
    <path class="cls-11" d="M253.46,374.55c-2.04,1.86-1.67-4.1-5.04-1.28-.52.88,1.45,2.09-.09,2.87-7.67.84-14.66,7.74-20.61,13.09.62-1.7-1.46-3.92-.02-5.72,2.12-3.1,9.26-4.89,5.27-9.58-2.42-5.24-1.91-11.83.35-17.18-4.09-7.52-13.08-.2-17.75-7.45.2-1.86,1.48-3.23,3.02-4.01,4.26-2.1,8.93,1.26,12.66-1.81-.63-1.97-2.06-3.86-1.47-5.96,2.65-5.6,4.36-12.33,6.95-16.7,2.39,1.37,3.17,4.75,5.68,5.31.59-2.11,4.14-1.49,3.19-4.44,1.68-1.41,3.72.41,5.06,1.49,2.47-1.72-2.14-10.19,2.45-7.42,2.15-.86,1.12,2.73,1.61,3.5-.58.27-1.13.94-1.48,1.39,3.85,5.3,4.75,11.73,8.41,17.05,5.43-.81,7.19-7.12,12.22-9.52.18,1.61-2.51,3.13-2.91,5.02l.71,4.62c5.77.38,4.95,5.98,8.84,7.81-.97.51-3.04.34-4.16,1.27-3.86.23-.51,4.55-3.45,5.7.26,2.42,3.44,3.49,4.87,5.38,2.58-.7,4.44,1.35,6.77.28,2.48.33-.54,2.5.19,3.65-4.95-.47-10.32-2.95-15.23-1.18.76,3.18-3.48-.03-2.31,3.11l2.03,1.81c-1,.11-1.77.61-1.64,1.81,1.17,1.3,2.56,2.79,4.1,3.84-.99.31-2.86.11-3.51,1.61l1.4,3.32c-2.33-2.61-5.33-3.91-8.58-3.76-.87,1.32,1.32,2.72.77,3.19-.48-.57-1.45-2.09-2.47-1.98-1.23,3.61-1.44,9.15.53,12.2-.54-1.16-.97.52-1.57.58-1.65-3.9-2.56-8.5-4.79-11.93Z"/>
    <path class="cls-10" d="M204.67,274.21l1.08-.12c-1.47.59-2.17,2.21-3.35,3.44.73.58,1.23,1.18,2.3.84l.38-.48c-.34.92-3.69.41-2.32,2.89l.69.36c-4.84-.13-5.23,4.31-9.64,4.14-3.02,4.5-7.88.21-10.9.76.03-1.76-1.99-2.19-3-3.41l-.98-8.89c1.63-1.05,2.31-2.88,3.61-5-2.74-1.01-5.82-3.09-6.99-5.59-2.49-4.78,2.89-5.81,3.79-9.42,2.32,1.06,4.78-.53,6.61-1.82l.98-.98c-1.52,4.1,4.63,2.12,7.11,2.72l1.52-.17c-.78.97-2.53.93-2.36,2.45l3.69-.41c-.64.29-1.5.39-2.06,1.34l1.26,1.39c-.89-.12-1.01.77-1.41,1.25-.14.67.77,1.02,1.26,1.4l-1.62,1.27c1.45,1.16,2.99,1.21,2.58,3.45l5.29.3-1.4,1.24c.75.8,1.66,1.14,2.72.81l.39-.48-.92,1.63,3.74.04c-.25,1.78-5.17,2.99-2.08,5.06Z"/>
    <path class="cls-6" d="M289.47,353.3c1.38-4.5,5-4.93,9.27-5.75,1.92,1.53,5.09,2.16,6.2,4.1-2.35,2.33,2.55,5.84-1.77,6.47,1.86,2.67-2.34,3.08-3.93,4.09-2.21.8-4.56-.24-6.33-1.25-.86-1.07-1.25-2.46-2.87-2.95-.04-1.48,1.74-3.86-.56-4.72Z"/>
    <path class="cls-4" d="M410.33,490.41l1.4-.67c-.3-2.23-.4-1.81-2.36-3.14.36-1.77-.84-2.34-.62-3.97-1.78.13-3.35-.33-4.08-3.17-3.45.16-7.16-2.15-10.84-.37-1.94.94-2.89,3.88-5.22,3.35,3.29-8.64-9.59-19.2-10.89-27.22,3.12-.4,6.02-.15,9.14-.53.96,1.13,3.2,1.95,4.3.08-3.81-3.91-10.13-.74-13.86-4.9,1.21-2.88.79-5.27,1.87-8.57,4.98-2.69,6.32-6.32,8.61-9.66.94-1.38,2.92-1.97,1.96-3.92-.6.04-1.11-.13-1.54-.54-2.14.69-2.05,2.17-4.19,2.85-3.66-2.64-4.06-9.86-4.05-14.71-2.36.61-2.31,2.07-4.19,2.86-3.57-2.75-1.99-6.31-5.17-9.05.29-2.49,2.35-4.36,1.67-7.2.86-3.26,4.66-5.48,4.64-9.04-2.41,1.05-2.13,2.33-3.17,4.07-1.2,1.99-3.68,4.54-4.59,6.46-1.19,2.51-.88,4.85-2.85,5.63-2.71,1.08-4.32-1.92-6.83-3.56-10.65,2.43-12.94-9.96-14.13-18.84-.19,5.61,1.66,11.94.55,17.23-3.28-1.59-6.65-2.95-10.44-3.11-.82-2.12.61-3.44-1.1-5.87-2.07.61-.47,2.53-1.27,3.59-3.82-4.79-.17-9.24-4.05-14.7.46-.32.32-.85.71-1.19,1.16-.84,1.69.11,2.76-.47.42-2.09,1.49-4.07,3.7-4.75-.04-3,.45-5.81,3.58-7.69-.5-1.85-2.28-.06-2.71-2.11,2.44-2.32-.32-3.11-.41-6.21-.72-.16-1.63.24-2.23-.21-.94-4.16-3.82-2.81-5.6-4.58-.25-2.78,1.13-4.81-1.25-7.08-1.82.99.89,3.59-.26,4.82-3.85.28-7.89,1.09-11.55.83-.22,1.87-1.87,3.69-4.55,3.88-.95,3.1-2.22,6.39-4.11,8.37.38,1.38,1.39.97,1.86,2.1-.25,1.46-.52,2.9-1.96,3.93,3.44,2.51,5.06,6.36,7.58,9.6.74.35,2.02-.82,2.76-.47.6,1.03,1.29,1.79,2.02,2.45.87.67,1.55-1.14,1.91-.48,1.63,5.07,5.91,12.22,4.51,17.46-3.22,2.88-6.54,5.44-11.11,5.31-.72-.4-.83-2.43-1.83-3.82-.15-1.02,1.44-1.41.9-2.57-4-5.54-9-8.29-15.19-7.67-1.66,1.24-3.39,2.46-5.57,3.52-2.65,3.3-2.26,7.67-3.98,11.29,1.75.03,2.77,2.76,2.51,4.35,3.86,2.95,7.77,5.79,12.99,4.88,2.49,5.2-2.47,7.78-2.79,12-5.64,1.53-10.95,2.12-16.42,3.15,3.28,1.57,7.99.49,13.11-1.15,1.09,1.25,2.43,1.82,3.56,2.99-.44,1.29,0,2.89-1.61,3.76-1.29.66-1.88-.66-3.1-.22,2.38,3.82,5.86,10.13-.74,12.73.35,2.28,2.1.6,2.72,2.11-.83,4.45-10.36,9.9-14.63,9.56,1.59-3.32,5.82-5,3.42-8.89-2.38-3.86-8.6-1.83-10.72,2.57.53,4.11-.23,8.36,4.85,8.35-1.48,5.22-10.44,6.66-14.19,4.23-.99-1.27-2-2.5-3.58-2.13.05.31-.1.54-.53.68-.13,1.59,1.61,3.84,2.31,5.72-1.26,1.77-1.91,3.75-4.39,5.09-1.59-.43-3.97-2.91-5.32-1.3,2.21.07,4.53,3.6,4.19,6.1-1.19.74-2.12,1.57-3.14,2.36.27,2.95-1.03,6.01,1.23,8.8-.65,1.41-3.24,2.13-3.34,3.73.8,2.09,2.98.29,3.75,2.47-.65,1.31-4.23,1.59-2.99,3.57,1.12,1.18,3.3-.63,4.65-.09,2.15,2.53,2.13,4.62,3.49,7.29-.33.66-1.22,1.11-1.24,1.87.71-.09.95-1.71,1.74-.83.64,1.48-.72,2.25.61,3.97,1.47-.74,2.21-1.92,3.82-1.83,3.58,6.48,10.31,4.05,15.57,5.79,2.81,3.87,1.68,7.9,3.26,10.38.15-1.58-.81-3.55.26-4.82,1.27.29,2.52,1.92,3.6.41-.93-2.27-2.66-2.29-4.08-3.17.22-1.46-1.2-3.5-.09-4.65,2.41-1.64,3.79-.38,5.51-.07,1.57-1.08,1.81-2.64,3.86-3.55,1.5-.42,1.91,2.2,3.59,1.27,1.37-.77-.34-2.62-.1-3.79,2.33-1.65,2.89-1.16,5.38-2.14-.47-2.66-.54-5.19,2.86-6.49-.91-2.92-1.31-5.66,2.19-7.02.57-1.05-.36-2.63.41-3.61.3.35,2.09.47,1.9-.49-2.47.23-2.83-4.51-2.48-6.07-.91-1.23-2.54-.45-3.23-2.3.59-.46.51-1.16,1.4-1.52,2.8,1.63,4.37,6.72,7.08,8.56,3.71-1.81,6.56-5.32,11.28-4.96.17.35.48.28.68.53-.33.84-.17,1.86.63,3.11-2.87,5.1-.41,10.48-1.31,15.99,2.98-4.15-1.79-13.52,7.52-16.4-.55-2.53-4-.3-3.74-2.48,3.18-.56,5.18,2.22,8.05,2.55,6.44,7.23,1.4,16.34,8.03,23.04,10.71-2.24.44-18.63,7.11-22.6,4.13-2.46,4.66,2.06,7.16,4.25,2.35-2.16-1.75-5.26-.56-7.41,2.97-1.61,4.32,1.38,6.33,2.52,3.11-2.18,4.66.41,7.56.65,1.42-1.71-.67-4.66,1.31-6.17,3.65.58,10.82.48,9.87,6.37,2.55,1.22,1.55,3.38.94,5.52,2.14.5,1.98,2.25,2.5,4.35,4.1.87,9.07,5.37,13.24.92,1.45-.55,2.27.68,3.79-.11.76-3.48,4.84-5.8,3.78-9.92Z"/>
  </g>
  <g class="cls-8">
    <path class="cls-5" d="M555.6,366.91c1.59-.72,1.95.81,3.43.28,1.65-1.15,1.14-3.5,1.39-5.43,1.5-.74,1.69.86,3.32-.11,1.01-.86,1.11-2.21,1.55-3.38,3.76-.3,3.97-2.58,5.54-4.1.85.42,1.31,1.55,2.49,1.39,3.27-2.61,5.1,2.14,8.59-.78,2.55,4.06,6.68,5.59,11.59,3.82.8,2.3-2.12,2.53-2.11,4.38.3,3.58,2.43,3.85,3.44,6.15-.67,2.54-.71,6.01-.06,10.09-2.02.51-1.92,2.19-2.32,3.6-2.14.33-3.33,1.2-3.44,2.66.18,2.22,1.52,2.35,2,4.05-2.09-.36-3.89-1.23-6.49-.66-1.35,1.75-1.96,3.92-5.93,4.21-.55-1.15-1.47-1.65-2.6-1.77-1.04.84-.38,2.62-2.05,3.1-1.51-.4-.62-4.58-3.27-4.1-1.65.39-.66,2.25-2.67,2.44-.93-1.65-1.13-2.37-1.21-4.27-3-.84-2.57,2.81-4.32,2.5-.47-1.68,1.52-1.98,1.05-3.66-2.45-1.88-1.41-7.12-4.49-8.37-1.97-.37-6.99,3.28-9.92,2,8.4-.09,12.61-8.75,6.48-14.03Z"/>
    <path class="cls-3" d="M482,346.56l-.28-.97c1.22-.82,1.05-.59,2.55-.21.71-.94,1.51-.61,2.21-1.42.71.93,1.62,1.49,3.31.62,1.42,1.76,4.15,2.57,4.87,5.14.38,1.35-.64,3.09.62,4,2.8-5.35,13.54-3.62,18.02-6.46-1.15-1.7-2.53-3.01-3.69-4.69-.97.01-2.34-.72-1.9-2.07,3.56.18,4.75,4.63,8.38,4.66.89-1.84,2.24-2.67,3.39-4.63-.83-3.6.36-5.82,1-8.39.27-1.06-.3-2.29,1.07-2.66.24.31.55.48.93.52.59,1.34-.17,1.94.42,3.28,2.87.65,6.57-2.28,8.94-4.38.72,1.42-.02,2.02.41,3.28,2.89.56,3.95-1.75,6.67-1.38,1.09-1.22,1.11-3.04,2.79-3.94,1.22-1.83.66-4.64,2.42-6.18.53,1.64-.23,2.05-.63,3.31-.45,1.44-.63,3.76-1.17,5.05-.71,1.66-1.99,2.52-1.52,3.83.65,1.79,2.8,1.28,4.7,1.8,3.42,6.26,10.47,2.02,15.33-1.25-2.66,2.52-6.56,4.36-8.66,7.18,2.2.92,4.32,1.98,6.04,3.76,1.39-.52,1.41-1.79,3.35-2,.59,1.28-1.04,1.32-1.21,2.17,4-.21,4.6-3.92,8.94-4.38-.04-.36.28-.52.28-.86-.1-.93-.79-.78-.97-1.55.84-1.11,1.34-2.5.72-3.87,1.49-1.28,2.64-2.73,2.21-5.08,1.12-.55,1.02,1.09,2.21.41.08-2.19,1.66-1.19,3.21-2.48.38.28.58.9,1.07,1,2.43-1.34,3.03.66,4.66.76,1.46-1.08,1.86-2.63,4-2.45.31,1.32-2.14,1.11-2.24,2.21,1.53,2,2.88,4.33,4.59,6-.82.92-1,2.51.07,3.9-1.1,1.81-2.16,3.85-2.31,5.63-.84.41-1.08-.26-1.82,0-.61.75-1.19,1.51-1.07,2.66-2.72-.59-5.31.28-7.98.45-.49-.21-.47-1.35-.97-1.55-.76.16-1.43.15-2.07.07-.7-.13-.11-1.25-.58-1.14-3.18,1.4-8.53,2.4-10.5,5.35,0,2.82.18,5.55,2.21,7.73.5.18,1.55-.64,2.65-.76.57-.36.07-1.32.86-1.55,4.44-.44,7.95.81,10.32,4.11.12,1.35.27,2.72.69,4.24-.47,2.72-2.77,4.42-3.79,6.84-.78-.84-2.55-.16-3.21.66-3.11-.61-6.19-1.29-8.01-4.24-3.62,1.04-2.73,4.58-4.66,6.56,1.69,3.42,3.7,6.27,5.56,9.39-2.19-.92-3.7-3.69-5.12-6.9-1.08,0-1.94-.4-3-.45-.44.77-1.41,1.25-1.14,2.42.24.91,1.14.63,1.45,1.41-2.9.5-7.49,1.52-5.9,5.87-1.27.82-1.2-.76-2.21-.41-1.82,2.33-.36,9.35,1.66,11.29.94-2.21-.08-5.01,2.86-5.52,2.92-.51,4.62,3.42,3.38,6.35-2.23,1.53-3.99,3.73-6.18,1.24-1.91,2.98,1.27,7.99,4.08,8.77,1.05-.06,2.08-.1,2.58.83-.17.1-.22.28-.1.55-.73.75-2.58.87-3.8,1.34-.32,1.38-1,2.56-.58,4.35.9.59,3.14.68,2.93,2.04-.99-1.05-3.72-.66-4.79.59.15.9.15,1.71.2,2.55-1.56,1.15-2.49,3.1-4.83,3.21-.41.92.36,2.5-.38,3.24-1.36.51-1.43-1.33-2.83-.76-.35.88,1.05,2.75-.45,3-1.07-.04-1.12-1.89-1.97-2.31-2.17.05-3.18.96-5.07,1.45-.18.44-.02,1.07-.37,1.41-.27-.39.42-1.21-.35-1.21-1,.32-.79,1.32-2.21,1.41-.27-1.04-.01-1.91-.75-2.66-4.72,1.05-6.44-3.29-9.56-5.11-3.11.31-4.59,2.6-6.49,2.9.71-.76,2.08-1.14,2.24-2.21-.69-.5-2.02-.4-1.75-1.59,1.51-.53,2.26.31,3.31.62.62-.74,2.24-.93,2.31-1.97-.24-1.89-1.45-2.01-2.34-2.72-.15-1.23.51-2.02.07-3.42-.44-.92-1.9.01-2.17-1.21-.22-1,1.43-.97,1.9-1.59-.2-1.85-.69-1.91-1.28-3.55,1.5-.93,2.77-1.99,1.93-4.21,1.82-.82,3.33-1.81,2.48-4.11.27-.73,1.44-.96,1.59-1.76-.3,0-1.13-.81-.59-1.14.96,1.31,3.44-.57,4.04-1.42.99-.09,1.31,1.05,2.52.59-.03-.49.34-.75.13-1.35-2-.66-5.17.78-7.24.24-.73-2.59-.24-5.5-2.46-7.66-.24.07-.34-.12-.55-.1-.28.53-.84.89-1.8,1.04-1.26,3.61-4.94,4.74-7.25,7.56.75-3.25,7.38-4.97,4.76-10.77,1.48-.82,1.88,1.82,2.83.76-1.1-1.8-3.32-1.57-4.73-2.83-6.32-.02-8.59,6.39-14.74,6.04-3.54-6.2,8.92-8.27,7.97-13.25-.58-3.09-3.03-1.38-5.18-1.66.04-2.09,3.33-1.42,3.86-2.93-.5-2.15-2.55-1.52-3.97-2-.29-2.47-2.22-2.1-3.59-3.42.22-1.44,2.57-1.69,2.45-3.31-1.86-1.54-4.92-5.08-7.38-2.07-1.7-.72-2.33.71-3.11,1.94-1.17-.83-1.96,0-3.21.65-2.2-1.63-6.55-2.11-6.17-6.08-.36-.94-1.32-.81-1.59-1.9,1.38-1.88.74-4.87,3.21-6.14Z"/>
    <path class="cls-2" d="M540.45,330.66c-2.6,1.62-5.42,2.58-2.67,5.81-3.62.19-6.28,3.37-8.39,6-5.18.22-7.81,1.99-10.95,4.58-3.1-5.2-9.11-5.17-14.2-6.77.22-3.54-1.35-6.02-4.58-5.9-2.77-6.26,1.37-10.25-3.05-15.73,6.29-3.43,6.57-10.2,10.96-14.68.96,1.32,2.1,2.28,4.1,1.72,1.69-.93.87-3.26,3.24-3.82,1.79,2.89,5.56,2.74,8.76.38,3.38,4.03,7.8,6.17,12.87,7.15-2.58,4.13,2.55,7.82,4.86,9.44-.09,4.78-3.04,6.67-.95,11.82Z"/>
    <path class="cls-6" d="M541.63,386.95c-.12-.43-.35-.91-.31-1.38-.17-.95-1.12-.13-1.63-.62-1.32-1.45,1.47-1.88,1.39-3.41-.22-.76-1.41-.15-1.26-1.19.84-1.24,2.76-2.16,4.33-1.78.42-1.4-1.1-2.25-1.89-3.11,1.31-.19,2.35-.4,3.66.05.4-.84,1.33-1.11,1.9-1.64-.16-1.87-.08-3.8.89-5.54,1.84.39,3.62-1.04,5.26-1.69.02-.55.67-1.19,1.21-.89.15,1.51.98,2.18,2.22,2.65.72-.02.7-1.66,1.62-1.01.14,1.14.97,1.82,1.79,2.13,1.15,1.5,1.43-1.05,2.53-.72.39,1.35-.23,2.71,1.09,3.79.84.39,1.31-.19,1.8-.69,1.54.56-.53,1.33-.48,2.14,1.15.85,2.62,1.53,3.81,1.19-.27.99-1.92.92-2.25,2.01.43.88-.73,3.22,1.2,2.94.59,1.1-1.13.5-1.36,1.29-.04.83,1,.63,1.2,1.03-.98-.54-1.43,1.05-2.1,1.6-.25,1.35,1.67.71,1.91,1.92-.71.38-1.68-1.07-2.37-.33,1.02,1.36,3.26,2.81,3.06,4.96,1.66.71,3.72,1.86,4.32,3.33.03.72.14,1.79-.5,2.06-2.46-.94-4.09-3.76-7.15-4.25-1.07.4-1.47-1.31-2.72-.59-1.06.76-.7,1.38-.09,2.21-.89.44-.86-.76-1.48-1.03-2.04.22.44,1.88-.25,3.27-.21-.13-.23-.49-.33-.82-2.6-2.72-1.47,1.88-3.07,2.34-.6-.2-.31-1.1-1-1.27-1.15.14-2.05,1.13-2.4,2.14-1.67-.44-2.73-.31-3.52-2.74-1,.93-2.21-.09-2.93,1.21-.88-.84-.1-2.89-1.83-3.22-1.53-.56-1.36,1.3-2.59,1.47-1.33-.8.88-1.71.97-2.65-.78-1.14-1.4-2.34-2.69-3.06-1.3-.08-2.26,2.01-3.14.53,1.31-.55,1.98-2.02,3.17-2.63Z"/>
    <path class="cls-11" d="M541.66,318.04c-1.87-.69,0,3.19-3.01,2.23-.59-.44.4-1.79-.84-1.9-5.35,1.53-11.91-1.17-17.34-3.12.88.97.1,3.02,1.55,3.83,2.26,1.49,7.52.74,6.14,4.96-.18,4.16,1.95,8.42,4.93,11.38-.68,6.14-8.68,3.71-9.82,9.82.64,1.19,1.87,1.75,3.11,1.85,3.42.24,5.62-3.28,8.95-2.25.12,1.49-.32,3.14.65,4.38,3.3,3.02,6.28,7.04,9.2,9.26,1.22-1.57.82-4.04,2.34-5.09.97,1.25,3.17-.14,3.35,2.1,1.51.48,2.37-1.29,2.97-2.38,2.12.47,1.35,7.39,3.66,4.29,1.67-.02,0-2.13.12-2.78-.46-.02-1.01-.32-1.37-.52,1.12-4.59-.03-9.13.96-13.68,3.85-.94,6.75,2.79,10.76,3.02-.32-1.12-2.53-1.41-3.31-2.56l-.79-3.28c3.75-1.83,1.67-5.35,3.77-7.63-.79-.08-2.12.61-3.12.29-2.64.9-1.59-2.9-3.86-2.86-.48-1.69,1.35-3.27,1.79-4.93,1.91-.24,2.6-2.11,4.45-2.04,1.57-.9-1.04-1.52-.87-2.49-3.18,1.67-6.09,4.79-9.85,4.95-.36-2.33-2.31.97-2.39-1.45l.86-1.77c-.7.2-1.35.08-1.59-.77.43-1.19.95-2.56,1.69-3.69-.75.06-1.94.71-2.78-.12l.03-2.6c-.84,2.38-2.49,4.07-4.71,4.85-.94-.65.14-2.17-.36-2.34-.16.51-.4,1.79-1.11,2-1.81-2.07-3.46-5.71-2.98-8.29-.04.92-.79-.08-1.21.04-.04,3.05.61,6.37.06,9.27Z"/>
    <path class="cls-10" d="M536.47,398.37l.75-.22c-1.14,0-2.05-.88-3.18-1.38.33-.59.5-1.12,1.3-1.19l.39.22c-.48-.52-2.58.73-2.34-1.29l.36-.43c-3.2,1.41-4.67-1.45-7.57-.13-3.25-2.18-5.32,2.01-7.49,2.47.5,1.17-.73,2.01-1.08,3.09l1.78,6.21c1.38.26,2.33,1.29,3.78,2.35-1.55,1.42-3.04,3.65-3.14,5.64-.36,3.87,3.51,3.09,5.11,5.26,1.26-1.34,3.34-.95,4.91-.59l.92.39c-2.13-2.33,2.52-2.68,4.01-3.76l1.06-.3c-.78-.43-1.95.07-2.25-.99l2.58-.74c-.51-.02-1.11.15-1.74-.33l.46-1.27c-.56.33-.89-.24-1.28-.45-.28-.41.24-.89.46-1.28l-1.43-.41c.65-1.17,1.67-1.62.78-3.01l3.45-1.65-1.27-.45c.28-.74.8-1.21,1.6-1.28l.39.22-1.06-.84,2.49-1.05c-.65-1.12-4.27-.58-2.77-2.81Z"/>
    <path class="cls-6" d="M571.51,322.39c2.15,2.63,4.68,1.93,7.76,1.31.86-1.55,2.81-2.83,3.02-4.43-2.21-.91.11-4.6-2.95-3.84.51-2.29-2.4-1.42-3.74-1.66-1.7.07-2.98,1.4-3.89,2.57-.28.95-.16,1.98-1.11,2.75.38,1,2.21,2.1.92,3.3Z"/>
    <path class="cls-1" d="M614.78,197.83l1.11.06c.41,1.57.22,1.32-.72,2.74.72,1.09.08,1.79.67,2.82-1.23.4-2.14,1.14-1.86,3.23-2.35.83-4.19,3.39-7.14,3.2-1.55-.1-2.99-1.8-4.4-.81,4.56,4.87-1.16,15.44.16,21.15,2.19-.59,4.06-1.54,6.25-2.14.33-1.01,1.6-2.18,2.85-1.23-1.48,3.65-6.56,3.26-7.92,7.05,1.59,1.6,1.97,3.3,3.59,5.22,4.06.44,5.94,2.49,8.39,4.1,1.01.67,2.49.52,2.38,2.08-.41.13-.71.39-.88.78-1.62.13-1.96-.89-3.57-.76-1.72,2.76-.02,7.7,1.31,10.93-1.75.24-2.11-.75-3.58-.76-1.63,2.81.39,4.76-.98,7.45.88,1.58,2.76,2.27,3.08,4.35,1.46,1.94,4.6,2.39,5.57,4.77-1.9-.04-2.06-.98-3.23-1.85-1.35-1-3.7-2.03-4.83-3.06-1.48-1.35-1.91-3-3.44-2.98-2.11.02-2.36,2.46-3.59,4.24-7.78,1.29-5.92,10.19-4.29,16.44-1.66-3.69-2.15-8.43-4.34-11.66-1.76,1.96-3.64,3.79-6.12,4.93.03,1.64,1.35,2.13.87,4.22-1.55.16-1.01-1.56-1.83-2.05-1.24,4.24,2.41,6.22,1.31,10.92.39.09.44.48.8.6,1,.24,1.1-.54,1.97-.44.85,1.28,2.11,2.31,3.77,2.16.79,2.02,1.89,3.76,4.49,4.16.17,1.37-1.51.66-1.24,2.15,2.26.88.64,2.16,1.42,4.26-.44.3-1.15.28-1.43.75.51,3.04-1.79,2.92-2.49,4.59.59,1.92,2.06,2.9,1.1,5.07-1.49-.16-.38-2.64-1.49-3.15-2.65.86-5.56,1.43-7.94,2.6-.66-1.19-2.25-1.96-4.1-1.35-1.48-1.81-3.23-3.66-5.03-4.46-.12-1.02.67-1.03.67-1.91-.56-.91-1.14-1.79-2.38-2.09,1.61-2.61,1.64-5.63,2.44-8.48.4-.44,1.58,0,1.97-.44.12-.85.37-1.55.68-2.19.4-.69,1.35.33,1.4-.2-.3-3.83.61-9.77-1.76-12.89-2.93-1.04-5.85-1.84-8.87-.51-.37.46.11,1.85-.18,3.05.18.72,1.35.55,1.3,1.47-1.16,4.8-3.75,8-8.05,9.27-1.45-.38-2.94-.71-4.68-.83-2.67-1.48-3.6-4.5-5.74-6.45,1.16-.5,1.1-2.6.49-3.59,1.78-3.03,3.61-5.99,7.34-6.81.24-4.15-3.78-4.52-5.14-7.25-4.19.52-7.89,1.57-11.82,2.38,1.76-1.95,5.2-2.51,9.07-2.81.39-1.13,1.13-1.88,1.56-2.97-.65-.74-.79-1.93-2.11-2.07-1.04-.09-1.08.96-2.01,1,.54-3.2,1.15-8.37-3.97-8.3-.39-1.62,1.23-.98,1.24-2.15-1.77-2.74-9.62-3.78-12.38-2.39,1.96,1.78,5.25,1.75,4.71,5-.53,3.22-5.25,3.57-7.86,1.21-.77-2.89-2.44-5.52.96-6.9-2.41-3.08-8.79-1.6-10.63,1.05-.32,1.12-.66,2.21-1.81,2.4-.05-.22-.21-.34-.54-.31-.52-1.03.03-3.01-.02-4.45-1.32-.84-2.3-1.98-4.32-2.2-.95.72-1.86,3.03-3.2,2.32,1.46-.65,2.04-3.64,1.13-5.22-.99-.17-1.84-.47-2.74-.72-.62-2.04-2.33-3.73-1.58-6.21-.82-.77-2.75-.54-3.25-1.58-.04-1.61,1.91-1.01,1.83-2.67-.8-.7-3.26.09-2.97-1.57.42-1.1,2.37-.48,3.13-1.21.75-2.28.16-3.67.34-5.82-.4-.35-1.12-.41-1.34-.91.5-.14,1.1.88,1.39.08.02-1.16-1.1-1.3-.68-2.82,1.18.1,2,.68,3.05.18.62-5.3,5.78-5.52,8.82-8.11.82-3.35-1.04-5.73-.66-7.83.53,1.02.43,2.59,1.49,3.15.77-.54,1.16-1.97,2.29-1.26,0,1.77-1.15,2.26-1.86,3.23.54.91.15,2.67,1.21,3.13,2.06.44,2.63-.78,3.7-1.46,1.34.3,1.93,1.27,3.55,1.32,1.11-.12.68-1.99,2.05-1.83,1.13.14.49,1.84.97,2.56,2.01.47,2.25-.01,4.18-.04.41,1.91,1.06,3.61,3.68,3.55.19,2.2.67,4.14,3.38,4.09.67.55.47,1.86,1.26,2.3.11-.31,1.27-.88,1.4-.2-1.72.52-.66,3.79,0,4.73-.27,1.07-1.57.99-1.53,2.42.52.15.66.64,1.35.63,1.43-1.85,1.08-5.68,2.39-7.65,2.97.19,5.83,1.76,8.89.24.02-.28.25-.32.31-.54-.45-.47-.62-1.2-.43-2.25-3.31-2.63-3.14-6.89-5.24-10.32,3.12,1.96,2.49,9.52,9.5,8.9.32,1.84-2.59,1.29-1.82,2.67,2.28-.49,2.85-2.9,4.68-3.9,2.33-6.59-3.53-11.29-.93-17.58,7.76-1.43,5.38,12.32,10.92,13.15,3.43.52,2.55-2.65,3.62-4.8,2.16.8.27,3.99,1.65,5.1,2.43.27,2.51-2.1,3.54-3.41,2.68.61,3-1.55,4.87-2.5,1.41.75.82,3.3,2.56,3.76,2.28-1.38,7.1-3.28,4.85-6.95,1.37-1.51.11-2.68-.88-3.94,1.29-.92.71-2.05.48-3.59,2.5-1.7,4.59-6.06,8.59-4.23,1.12-.03,1.33-1.08,2.56-.96,1.46,2.12,4.81,2.55,5.23,5.59Z"/>
  </g>
  <g>
    <path class="cls-9" d="M274.96,403.26c-35.93,12.89-63.32,51.43-63.72,89.65-.21,20.51-12.94,38.16-30.82,45.66-26.19-31.21-46.11-68.29-57.62-109.62,6.16-17.01,14.71-33.34,25.36-48.35,23.51-33.09,56.52-58.51,92.96-71.58,5.47-1.97,11.16-2.96,16.92-2.96,21.07,0,40,13.33,47.12,33.16,9.33,25.98-4.22,54.71-30.2,64.04Z"/>
    <path d="M161.19,539.45c-.17,0-.34,0-.5,0-25.99-.27-46.84-21.56-46.57-47.55.4-38.08,13.36-76.99,36.5-109.55,23.16-32.59,55.66-57.62,91.52-70.5,24.46-8.78,51.41,3.93,60.2,28.4,8.78,24.46-3.93,51.41-28.4,60.2-37.04,13.3-65.29,53.04-65.7,92.44-.27,25.82-21.29,46.57-47.05,46.57Z"/>
  </g>
  <g>
    <path class="cls-9" d="M684.84,426.1c-3.16,11.69-7.08,23.2-11.76,34.56-6.58,16.02-14.69,31.72-24.3,47.07-2.36,3.71-4.81,7.36-7.33,10.95-4.64,6.61-9.56,13.01-14.74,19.2-17.07-7.86-29.04-25.06-29.25-44.97-.41-38.22-27.8-76.76-63.72-89.65-25.98-9.33-39.53-38.06-30.2-64.04,7.12-19.83,26.05-33.16,47.12-33.16,5.75,0,11.45.99,16.92,2.96,36.44,13.07,69.45,38.49,92.94,71.58,10.07,14.17,18.24,29.52,24.33,45.5Z"/>
    <path d="M647.51,539.45c-25.76,0-46.78-20.75-47.05-46.57-.41-39.4-28.66-79.15-65.7-92.44-24.46-8.78-37.18-35.73-28.4-60.2,8.78-24.46,35.74-37.17,60.2-28.4,35.86,12.87,68.36,37.91,91.52,70.5,23.14,32.56,36.1,71.47,36.5,109.55.27,25.99-20.58,47.28-46.57,47.55-.17,0-.34,0-.5,0Z"/>
  </g>
</svg>