<?xml version="1.0" encoding="UTF-8"?>
<svg id="Layer_1" data-name="Layer 1" xmlns="http://www.w3.org/2000/svg" viewBox="0 0 792.39 617.74">
  <defs>
    <style>
      .cls-1 {
        fill: #fff;
      }
    </style>
  </defs>
  <path d="M791.86,174.06c-2.24,31.47-13.8,58.9-36,81.62-6.74,6.9-14.03,13.2-21.62,19.15-5.98,4.69-12,9.33-17.97,14.03-2.04,1.6-3.99,3.33-5.97,4.99-15.78,13.3-25.28,30.28-29.42,50.37-1.96,9.44-3.06,19-3.63,28.64-1.12,19.12.19,38.14,1.89,57.16,1.59,17.74,2.5,35.51,1.46,53.31-.94,16-3.95,31.6-10.13,46.48-8.7,20.91-22.6,37.69-40.93,50.86-13.98,10.05-29.47,17.04-45.81,22.23-15.4,4.89-31.18,8.07-47.18,10.28-24.27,3.35-48.68,4.54-73.17,4.54-62.83-.02-125.67-.01-188.5-.01-7.41,0-14.83.09-22.24-.1-76.5-2.04-147.48-38.23-194.82-96.94-26.9-33.38-44.52-71.12-52.9-113.16-4.18-20.99-5.76-42.23-4.53-63.6,3.26-56.49,22.6-106.86,58.24-150.87,2.57-3.17,4.09-6.46,4.74-10.39,3.35-20.47,6.75-40.93,10.18-61.39,1.31-7.84,2.75-15.69,4.14-23.52.15-.92.23-1.85.5-2.73.9-2.9,2.87-4.75,5.83-5.38,3.01-.64,5.5.43,7.38,2.79.92,1.16,1.63,2.47,2.41,3.73,7.66,12.48,15.3,24.96,22.96,37.43.87,1.4,1.82,2.76,2.68,4.05.58-.08.98-.03,1.27-.2,9.84-5.54,19.66-11.1,29.93-16.89.81-3.9,1.8-8.23,2.61-12.58,3.5-18.56,6.94-37.13,10.42-55.7.31-1.63.56-3.3,1.05-4.88,1.83-5.84,8.71-7.4,12.82-2.9,1.11,1.23,1.97,2.69,2.91,4.07,10.64,15.62,21.26,31.26,31.89,46.88,1.14,1.67,2.32,3.31,3.57,5.11,35.37-5.78,70.35-4.98,105.03,3.29,34.7,8.28,66.37,23.12,94.98,44.43,28.62,21.32,51.94,47.41,69.93,78.21,17.99,30.81,29.2,63.96,33.4,99.37,4.21,35.38,1.49,70.27-8.56,104.52-10.02,34.19-26.51,64.96-49.66,93.29,7.83,0,14.31.22,20.76-.06,9.26-.39,18.51-.96,27.74-1.81,14.6-1.32,29.06-3.53,43.14-7.7,6.41-1.9,12.57-4.36,18.5-7.5,8.91-4.73,13.66-12.07,15.08-21.95,1.44-9.98,1.2-19.96.53-29.95-1.1-16.45-2.58-32.89-3.51-49.34-.98-17.42-.29-34.83,1.58-52.18,1.81-16.81,5.02-33.31,10.2-49.42,9.73-30.32,26.26-56.29,50.07-77.47,7.61-6.77,15.7-12.99,23.61-19.41,4.46-3.63,9.03-7.12,13.5-10.72,1.45-1.16,2.78-2.47,4.16-3.71,7.25-6.5,11.17-14.68,11.86-24.34.9-12.69-.09-25.19-4.18-37.32-3.01-8.9-7.57-16.9-14.37-23.48-9.05-8.75-19.83-13.51-32.51-13.51-10.25-.01-19.2,3.57-26.8,10.45-5.02,4.54-8.84,9.98-11.83,16.01-5.26,10.59-7.91,21.92-9.01,33.62-.54,5.9-.87,11.83-.93,17.75-.22,21.17-16.41,42.88-42.23,45.4-24.05,2.35-45.52-13.49-50.43-36.76-.49-2.35-.93-4.76-.97-7.15-.52-29.8,3.93-58.73,15.7-86.27,10.47-24.53,25.99-45.25,47.59-61.1C592.27,8.19,619.2-.18,648.91,0c42.5.28,87.47,21.79,115.24,62.39,13.51,19.75,21.68,41.6,25.63,65.13,2.6,15.44,3.17,30.98,2.07,46.54Z"/>
  <g>
    <path class="cls-1" d="M219.07,280.36c-7.22,13.94-23.63,20.81-38.85,17.14-15.5-3.74-27.05-18.21-26.81-34.57.24-16.38,11.31-30.31,27.42-34.1,14.91-3.51,31.34,3.67,38.02,16.93-2.14-.24-3.53-1.57-5.14-2.24-10.29-4.25-21.98-.17-27.21,9.58-4.27,7.95-3.15,17.59,2.82,24.35,5.93,6.7,15.47,9,23.82,5.69,1.7-.67,3.32-1.55,5.93-2.78Z"/>
    <path class="cls-1" d="M130.85,346.26c-.77-1.21-1.62-2.63-2.54-4-3.21-4.76-6.47-9.49-9.67-14.25-.71-1.06-1.39-2.19-1.83-3.38-.53-1.41.43-3.12,1.88-3.51.88-.24,1.82-.34,2.73-.34,9.82-.02,19.64-.02,29.45-.01,1.86,0,3.84-.12,4.78,1.97.8,1.79-.26,3.2-1.21,4.59-3.12,4.59-6.27,9.18-9.38,13.78-1.03,1.52-1.99,3.08-2.97,4.6,1.64,5.45,4.98,9.29,9.47,12.15,11.29,7.18,26.63,4.77,35.25-5.49.83-.99,1.56-2.09,2.48-2.97,1.27-1.22,3.2-1.26,4.6-.29,1.65,1.14,2.26,3.08,1.31,4.87-.69,1.3-1.56,2.52-2.5,3.66-13.47,16.29-39.83,16.23-53.21-.1-.91-1.11-1.86-2.2-2.9-3.42-1.38,1.69-2.48,3.15-3.7,4.51-10.16,11.28-28.55,12.88-40.33,3.4-1.85-1.49-3.45-3.35-4.88-5.26-1.26-1.68-.82-3.65.68-4.98,1.49-1.32,3.43-1.36,5.03.04.97.85,1.75,1.91,2.69,2.8,11.97,11.39,31.85,4.33,34.75-8.35Z"/>
    <path class="cls-1" d="M120.83,286.16c-5.24,10.54-22.17,17.06-36.28,11.44-13.98-5.56-22.46-20.74-18.97-34.3,4.32-1.31,22.27-3.19,29.36-3.03-.18,1.08-.2,2.15-.54,3.13-3.95,11.47,6.15,27.28,23.15,23.44,1.01-.23,2.03-.42,3.28-.67Z"/>
  </g>
</svg>