<?xml version="1.0" encoding="UTF-8"?>
<svg id="Layer_1" data-name="Layer 1" xmlns="http://www.w3.org/2000/svg" viewBox="0 0 1191.22 863.5">
  <defs>
    <style>
      .cls-1 {
        fill: #010101;
      }

      .cls-2 {
        fill: #fff;
      }

      .cls-3 {
        fill: #5e5e5e;
      }

      .cls-4 {
        fill: #fdb913;
      }

      .cls-5 {
        fill: #db9700;
      }

      .cls-6 {
        fill: #d8d8d8;
      }

      .cls-7 {
        fill: #d3d3d3;
      }

      .cls-8 {
        fill: #858585;
      }

      .cls-9 {
        fill: #aaa;
      }

      .cls-10 {
        fill: #0a0a0a;
      }

      .cls-11 {
        opacity: .5;
      }

      .cls-12 {
        opacity: .7;
      }

      .cls-13 {
        fill: #b5b5b5;
      }
    </style>
  </defs>
  <g>
    <path class="cls-1" d="M1191.19,558.38c.94,64.09-21.59,118.89-66.32,164.6-21.47,21.94-46.34,39.32-73.16,54.02-31.13,17.09-64.06,29.9-97.96,40.23-35.29,10.77-71.23,18.7-107.56,24.93-28.27,4.85-56.63,8.72-85.15,11.52-24.74,2.46-49.55,4.22-74.32,5.89-43.79,2.96-87.67,3.34-131.55,3.9-164.25,2.2-307.51-106.46-349.06-265.42-9.92-37.93-13.28-76.52-10.2-115.68,5.86-74.26,32.49-140.14,79.42-197.87,2.9-3.56,4.56-7.33,5.29-11.77,3.46-20.74,6.96-41.52,10.45-62.26,3.02-17.88,9.85-57.67,10.7-59.49,2.96-6.36,11.17-7.87,16.15-2.86,1.79,1.83,3.15,4.19,4.53,6.42,9.95,16.18,19.86,32.39,29.81,48.6,1.51,2.46,3.12,4.85,5.04,7.77,7.15-4.09,13.91-8.09,20.78-11.87,6.89-3.81,13.91-7.37,21.31-11.24,1.89-9.29,3.9-18.7,5.67-28.14,4.25-22.41,8.37-44.86,12.56-67.24.38-2.01.76-4.09,1.57-5.92,2.86-6.48,10.92-8.18,16.05-3.31,1.89,1.79,3.31,4.09,4.75,6.26,14.32,21.03,28.61,42.09,42.9,63.15,1.64,2.39,3.37,4.72,5.26,7.33,95.98-14.48,184.9,3.49,264.42,59.75,79.39,56.19,128.43,132.84,145.08,228.69,16.62,95.72-4.03,184.08-58.8,264.83,1.76.16,2.64.44,3.46.28,40.26-7.74,79.89-17.72,117.82-33.59,15.68-6.55,30.82-14.2,45.05-23.48,10.32-6.74,19.99-14.29,28.74-22.98,23.64-23.58,32.36-52.06,28.61-84.9-2.49-21.72-9.1-42.24-17.66-62.2-7.74-18.04-17.03-35.29-27.23-52-6.58-10.77-10.32-22.29-10.14-34.91.6-38.91,32.52-63.62,63.05-63.33,23.14.22,41.74,9.44,54.02,28.9,25.21,40.01,45.39,82.41,57.32,128.43,5.51,21.31,8.97,42.97,9.29,64.97Z"/>
    <path class="cls-1" d="M833.31,240.01c-7.21-.08-11.27-6.33-8.62-11.78.87-1.79,2.27-3.39,3.65-4.86,20-21.31,40.04-42.59,60.09-63.86,1.2-1.27,2.45-2.56,3.9-3.49,3.31-2.12,7.82-1.48,10.47,1.26,2.85,2.95,3.31,6.87.98,10.43-1.11,1.69-2.55,3.19-3.94,4.68-19.42,20.66-38.85,41.31-58.29,61.95-1.2,1.27-2.33,2.71-3.77,3.64-1.64,1.07-3.6,1.67-4.46,2.05Z"/>
    <path class="cls-1" d="M958.57,260.47c-.03,1.1-1.43,3.61-4.27,5.01-2.08,1.02-4.36,1.66-6.6,2.3-26.68,7.59-53.38,15.16-80.07,22.72-1.97.56-3.92,1.2-5.93,1.56-4.65.82-8.92-1.94-10.1-6.35-1.03-3.89,1.16-8.06,5.37-9.88,1.87-.8,3.88-1.29,5.84-1.84,26.69-7.57,53.38-15.13,80.09-22.65,2.51-.71,5.12-1.42,7.7-1.47,4.8-.09,8.16,3.71,7.96,10.6Z"/>
    <path class="cls-2" d="M585.45,336.05c-29.09,1.92-58.42,3.87-87.98,5.82-9.51-21.44-3.46-44.79,14.29-58.27,17.63-13.38,41.96-12.94,59.21,1.04,15.55,12.62,22.13,35.41,14.48,51.4Z"/>
    <path class="cls-2" d="M465.04,437.86c-3.51-5.2-7.26-10.74-11-16.28-2.45-3.63-5.05-7.18-7.3-10.93-2.3-3.82-.54-6.72,4.05-7.09.87-.07,1.75-.05,2.63-.05,12.86,0,25.72-.01,38.59.01,2.3,0,4.8-.39,6.32,2.02,1.78,2.83-.05,5-1.5,7.16-4.58,6.78-9.22,13.52-13.79,20.31-.96,1.43-1.72,3-2.79,4.88,5.56,13.67,16.19,20.31,30.35,21.37,12.06.9,22.34-3.44,30.34-12.75,1.33-1.54,2.57-3.19,4.07-4.54,1.47-1.33,4.03-1.17,5.73.02,1.9,1.32,2.7,3.26,2.02,5.35-.62,1.89-1.7,3.71-2.92,5.3-17.09,22.06-52.36,23.48-71.19,2.89-1.76-1.93-3.36-4.01-5.29-6.33-2.38.85-3.25,3.14-4.67,4.76-12.6,14.39-33.56,18.22-50.33,9.14-4.69-2.54-8.77-5.82-11.76-10.29-1.74-2.6-1.41-5.21.69-7.1,1.91-1.72,4.41-1.98,6.38-.34,1.78,1.49,3.25,3.35,5,4.89,15,13.15,38.83,7.08,46.39-12.38Z"/>
    <path class="cls-2" d="M456.17,336.59c-.57,3.84-1.57,4.72-5.79,5.04-6.7.5-13.38.88-20.08,1.29-16.9,1.04-33.78,2.11-50.68,3.15-.85.03-1.73-.13-3.49-.25-5.07-9.95-5.04-19.96-1.76-29.94,5.67-17.25,22.1-29.87,42.34-28.9,18.6.91,34.69,13.98,39,32.2,1.39,5.73,1.32,11.58.47,17.41Z"/>
    <path class="cls-1" d="M550.79,305.93c-.09,15.42-12.46,27.78-27.68,27.67-15.27-.12-27.41-12.61-27.29-28.08.12-15.51,12.33-27.64,27.71-27.53,15.41.12,27.36,12.36,27.27,27.94Z"/>
    <path class="cls-1" d="M404.13,335.32c-12.49.53-25.06-9.1-25.32-25.21-.22-13.43,11.08-24.48,24.55-24.77,14.21-.31,25.76,10.64,25.98,24.65.22,14.02-11.01,25.32-25.21,25.34Z"/>
  </g>
  <g>
    <g>
      <path class="cls-7" d="M817.13,259.4c3.1,12.19,5.48,24.63,7.1,37l.3,2.31-31.94,8.11-.34-2.96c-1.47-12.19-3.74-24.44-6.78-36.41-38.5-151.58-193.15-243.57-344.73-205.07-151.58,38.5-243.57,193.13-205.07,344.71,3.04,11.97,6.88,23.82,11.42,35.23l1.1,2.77-31.96,8.12-.84-2.17c-4.47-11.64-8.31-23.71-11.41-35.9-42.93-169.04,59.68-341.49,228.72-384.43,169.04-42.93,341.49,59.66,384.42,228.7Z"/>
      <path class="cls-13" d="M803.15,261.47c3.24,12.75,5.65,25.81,7.22,38.79l.23,1.98-18,4.57-.34-2.96c-1.47-12.19-3.74-24.44-6.78-36.41-38.5-151.58-193.15-243.57-344.73-205.07-151.58,38.5-243.57,193.13-205.07,344.71,3.04,11.97,6.88,23.82,11.42,35.23l1.1,2.77-17.99,4.57-.74-1.85c-4.83-12.14-8.93-24.78-12.17-37.53-41.02-161.51,57.01-326.29,218.52-367.31,161.51-41.02,326.3,57,367.32,218.51Z"/>
      <path class="cls-10" d="M211.61,462.17l-3.26-8.42c-4.6-11.97-8.53-24.34-11.69-36.77-21.26-83.71-8.58-170.8,35.7-245.22,44.28-74.42,114.77-127.12,198.48-148.38,83.71-21.26,170.8-8.59,245.22,35.69,74.42,44.28,127.12,114.76,148.38,198.47h0c3.16,12.42,5.6,25.17,7.27,37.87l1.15,8.97-46.82,11.89-1.32-11.56c-1.44-11.94-3.66-23.87-6.59-35.41-37.47-147.54-188-237.08-335.54-199.61-147.54,37.47-237.08,187.99-199.61,335.52,2.96,11.66,6.7,23.2,11.12,34.3l4.28,10.77-46.79,11.88ZM551.31,31.13c-38.51-5.16-78-2.94-116.74,6.9-165.01,41.91-265.16,210.24-223.25,375.24,2.65,10.44,5.87,20.83,9.6,30.95l17.14-4.35c-3.78-10.07-7.04-20.45-9.7-30.92-39.52-155.61,54.92-314.37,210.54-353.89,155.63-39.53,314.39,54.92,353.91,210.53,2.63,10.38,4.72,21.05,6.23,31.8l17.11-4.34c-1.56-10.66-3.68-21.34-6.33-31.78h0c-20.27-79.8-70.51-146.99-141.46-189.2-36.51-21.72-76.22-35.47-117.03-40.93Z"/>
      <path class="cls-8" d="M604.92,86.48c-110.75-33.87-215.72-7.24-296.94,75.42-9.31,9.48-24.61,9.33-33.58-.46-3.66-3.99-7.32-7.98-10.97-11.98-8.11-8.86-8.14-22.52.08-31.27C360.05,15.42,489.23-17.4,623.14,26.85c11.41,3.77,17.9,15.79,15,27.44-1.31,5.25-2.62,10.51-3.93,15.76-3.21,12.89-16.59,20.32-29.29,16.43Z"/>
      <g class="cls-12">
        <path class="cls-2" d="M638.8,49.95c-2.71-4.46-6.96-8-12.26-9.75-133.91-44.25-263.11-11.42-359.64,91.34-3.82,4.07-5.87,9.21-6.14,14.42-5.32-8.69-4.44-20.1,2.75-27.77C360.04,15.43,489.24-17.4,623.15,26.85c9.98,3.29,16.21,12.92,15.65,23.1Z"/>
      </g>
      <path class="cls-3" d="M638.13,54.29c-1.3,5.26-2.61,10.51-3.91,15.75-3.21,12.9-16.59,20.33-29.29,16.45-110.76-33.87-215.74-7.25-296.94,75.42-9.31,9.48-24.61,9.33-33.59-.47-3.66-3.98-7.31-7.97-10.97-11.97-5.93-6.45-7.54-15.47-4.76-23.27,3.13,3.42,6.26,6.83,9.39,10.27,8.98,9.79,24.28,9.94,33.58.46,81.21-82.65,186.17-109.29,296.94-75.42,12.7,3.89,26.08-3.54,29.3-16.43,1.11-4.51,2.23-9.01,3.35-13.5,6.14,5.54,9.03,14.24,6.9,22.73Z"/>
      <path class="cls-10" d="M287.21,176.18c-7.06-.95-13.49-4.29-18.38-9.64l-10.97-11.98c-10.77-11.75-10.7-30,.15-41.55,49.05-52.21,106.06-86.85,169.45-102.95,63.4-16.1,130.03-12.87,198.06,9.61,15.05,4.97,23.81,20.98,19.96,36.45l-3.93,15.76c-2.05,8.21-7.23,15.03-14.6,19.2-7.32,4.15-16.16,5.11-24.24,2.63h0c-107.68-32.93-210.43-6.83-289.34,73.49-5.92,6.03-14.14,9.4-22.56,9.25-1.22-.02-2.42-.11-3.61-.27ZM551.91,17.99c-106.02-14.19-204.59,22.02-282.9,105.38-5.47,5.82-5.48,15.04-.02,21l10.97,11.97c2.89,3.15,6.83,4.93,11.11,5.01,4.35.08,8.44-1.61,11.51-4.73,83.06-84.54,191.2-112.01,304.54-77.35h0c4.2,1.28,8.59.81,12.38-1.33,3.72-2.11,6.34-5.55,7.37-9.7l3.93-15.76c1.95-7.84-2.45-15.94-10.03-18.44-23.2-7.67-46.21-13.01-68.86-16.04Z"/>
    </g>
    <g>
      <path class="cls-6" d="M903.59,371.83c-9.41,3.74-14.12,5.61-23.53,9.36-5.97,2.38-12.77-.62-15.28-6.65-25.01-57.54-55.68-110.43-93.21-160.72-3.98-5.17-3.21-12.56,1.82-16.56,7.92-6.31,11.88-9.46,19.81-15.77,17.72-13.57,41.95-7.24,54.45,10.16,28.3,40.82,52.78,83.04,74.16,127.87,8.89,19.49,2.36,43.67-18.22,52.31Z"/>
      <path class="cls-9" d="M880.07,381.19c9.4-3.74,14.11-5.63,23.52-9.36,20.59-8.64,27.12-32.83,18.23-52.31-8.97-18.78-18.47-37.1-28.57-55.05,1.99,16.28-5.48,32.87-21.78,39.71-9.42,3.75-14.13,5.61-23.53,9.35-5.97,2.39-12.75-.61-15.28-6.64-16.81-38.66-36.16-75.19-58.44-110.26-.27.2-.55.42-.82.65-5.02,3.99-5.8,11.38-1.8,16.55,37.51,50.29,68.18,103.18,93.19,160.71,2.53,6.03,9.31,9.03,15.3,6.65Z"/>
      <path class="cls-10" d="M873.34,389.37c-6.67-.89-12.76-5.26-15.54-11.92-24.81-57.07-55.01-109.15-92.29-159.11-6.41-8.33-5.02-20.48,3.17-26.99l19.81-15.77c9.46-7.25,20.97-10.31,32.75-8.5,12.84,1.9,24.7,9.25,32.54,20.16,28.73,41.45,53.19,83.62,74.85,129.03,5.63,12.34,6.12,26.29,1.39,38.38-4.31,11.02-12.66,19.6-23.51,24.16l-.13.05-23.53,9.36c-3.11,1.24-6.37,1.59-9.51,1.17ZM818.61,181.97c-5.39-.72-13.24-.29-20.82,5.52l-19.69,15.68c-1.77,1.41-2.02,4.12-.54,6.04,38.05,51,68.83,104.06,94.15,162.31.98,2.34,3.45,3.47,5.56,2.64l23.46-9.33c8.99-3.8,13.24-10.63,15.22-15.7,3.25-8.3,2.88-17.96-1.01-26.49-21.25-44.55-45.3-86.03-73.5-126.7-5.39-7.51-13.59-12.62-22.41-13.92-.14-.02-.28-.04-.42-.06ZM903.59,371.83h.02s-.02,0-.02,0Z"/>
      <g>
        <path class="cls-4" d="M861.62,407.13c10.58-4.21,15.85-6.32,26.44-10.52,23.14-9.71,30.49-36.89,20.49-58.79-8.31-17.43-17.03-34.48-26.21-51.25-3.38-6.16-6.8-12.29-10.29-18.36-9.57-16.72-19.64-33.16-30.23-49.37-5.39-8.31-10.94-16.55-16.62-24.76-14.06-19.55-41.3-26.68-61.22-11.42-8.9,7.11-13.35,10.64-22.26,17.72-5.65,4.5-6.52,12.81-2.05,18.64,9.91,13.28,19.4,26.71,28.48,40.36,10.95,16.45,21.31,33.16,31.08,50.23,3.31,5.75,6.53,11.53,9.71,17.34,12.84,23.55,24.64,47.73,35.5,72.71,2.84,6.78,10.46,10.15,17.18,7.48Z"/>
        <g class="cls-11">
          <path class="cls-4" d="M799.22,309.6c20.26-6.88,52.18-20.23,72.82-41.4-9.57-16.72-19.64-33.16-30.23-49.37-20.98,5.65-49.82,17.19-73.67,40.55,10.95,16.45,21.31,33.16,31.08,50.23Z"/>
        </g>
        <g class="cls-11">
          <path class="cls-2" d="M750.14,233.35c-3.2-5.67-2.02-12.91,3.12-17.02,8.91-7.09,13.36-10.62,22.26-17.72,18.21-13.95,42.56-9.18,57.34,6.71-2.52-3.77-5.07-7.51-7.67-11.24-14.06-19.55-41.3-26.68-61.22-11.42-8.9,7.11-13.35,10.64-22.26,17.72-5.65,4.5-6.52,12.81-2.05,18.64,3.54,4.75,7.05,9.53,10.48,14.34Z"/>
        </g>
        <g class="cls-12">
          <path class="cls-2" d="M852.28,407.22c-9.83-22.02-20.4-43.4-31.8-64.31-19.72-36.19-41.88-70.88-66.74-104.51,20.25,28.63,38.59,58.04,55.2,88.54,12.84,23.55,24.64,47.73,35.5,72.71,1.52,3.64,4.43,6.3,7.84,7.57Z"/>
        </g>
        <g class="cls-12">
          <path class="cls-2" d="M751.21,234.98c.85,1.14,1.7,2.27,2.53,3.42-1.19-1.69-2.39-3.37-3.6-5.05.3.56.67,1.11,1.07,1.62Z"/>
        </g>
        <path class="cls-5" d="M861.62,407.13c10.58-4.21,15.85-6.32,26.44-10.52,23.14-9.71,30.49-36.89,20.49-58.79-8.31-17.43-17.03-34.48-26.21-51.25.29,1.54,4.78,28.36-25.72,45.19-23.34,12.89-36.68,6.73-47.68-4.81,12.84,23.55,24.64,47.73,35.5,72.71,2.84,6.78,10.46,10.15,17.18,7.48Z"/>
      </g>
      <path class="cls-10" d="M854.19,415.4c-7.18-.96-13.73-5.66-16.72-12.84-27.92-64.22-61.91-122.82-103.85-179.04-6.9-8.97-5.41-22.04,3.39-29.05l22.26-17.73c10.41-7.98,23.24-11.23,36.09-9.36,14.18,2.1,27.29,10.22,35.96,22.28,32.26,46.54,59.73,93.9,84.05,144.89,6.22,13.63,6.76,29.04,1.54,42.39-4.75,12.15-13.95,21.6-25.91,26.63l-.13.05-26.44,10.52c-3.34,1.33-6.85,1.7-10.22,1.25ZM792.67,182.27c-6.23-.83-15.32-.33-24.1,6.39l-22.15,17.64c-2.39,1.9-2.73,5.54-.76,8.1,42.72,57.25,77.28,116.84,105.71,182.25,1.29,3.09,4.61,4.59,7.45,3.46l26.38-10.49c10.42-4.4,15.33-12.3,17.63-18.17,3.74-9.57,3.32-20.69-1.16-30.5-23.91-50.13-50.98-96.8-82.7-142.56-6.22-8.65-15.66-14.54-25.82-16.05-.16-.02-.32-.05-.48-.07ZM888.06,396.61h.02s-.02,0-.02,0Z"/>
    </g>
    <g>
      <path class="cls-6" d="M181.87,555.13c10.06-1.2,15.08-1.8,25.14-3,6.38-.76,10.92-6.64,10.26-13.13-5.48-62.5-3.76-123.62,5.22-185.72,1.03-6.45-3.17-12.57-9.5-13.69-9.97-1.76-14.96-2.65-24.93-4.41-22.05-3.47-40.32,13.66-43.01,34.91-5.39,49.38-6.76,98.16-4.16,147.76,1.49,21.37,18.76,39.5,40.98,37.28Z"/>
      <path class="cls-9" d="M207.01,552.14c-10.05,1.2-15.09,1.79-25.13,2.99-22.22,2.23-39.5-15.91-40.98-37.27-1.07-20.78-1.47-41.41-1.16-62.02,6.02,15.26,20.5,26.27,38.09,24.5,10.07-1.2,15.09-1.81,25.14-3.01,6.39-.75,10.92-6.62,10.27-13.13-3.67-41.99-4.1-83.34-1.26-124.78.33.04.68.11,1.03.18,6.32,1.11,10.53,7.24,9.48,13.69-8.97,62.09-10.68,123.21-5.2,185.7.65,6.5-3.88,12.38-10.27,13.15Z"/>
      <path class="cls-10" d="M172.53,562.49c-8.06-1.08-15.67-4.44-22.09-9.85-9.92-8.37-16.15-20.86-17.08-34.26-2.65-50.37-1.28-99.1,4.18-149.11,1.7-13.46,8.62-25.57,18.99-33.37,9.46-7.11,21.07-10.02,32.7-8.19l25.07,4.44c10.3,1.82,17.32,11.84,15.65,22.32-8.9,61.58-10.6,121.76-5.16,183.86,1.07,10.45-6.5,20.06-16.89,21.3l-25.28,3.02c-3.41.34-6.79.28-10.1-.16ZM181.87,555.13h.02s-.02,0-.02,0ZM186.07,342.52c-9.21-1.23-16.2,2.26-20.45,5.46-7.13,5.36-11.89,13.76-13.07,23.06-5.35,49.07-6.7,97-4.11,146.42.64,9.22,4.93,17.88,11.74,23.63,4.16,3.51,11.15,7.48,20.87,6.53l25.06-2.99c2.25-.27,3.88-2.45,3.63-4.86-5.55-63.39-3.83-124.71,5.26-187.57.4-2.5-1.11-4.77-3.34-5.16l-24.93-4.41c-.23-.04-.45-.07-.67-.1Z"/>
      <g>
        <path class="cls-4" d="M235.6,566.13c-11.31,1.35-16.95,2.01-28.26,3.37-24.97,2.51-44.4-17.87-46.07-41.89-1.02-19.28-1.48-38.43-1.42-57.55.03-7.02.11-14.04.29-21.05.43-19.26,1.43-38.51,3.01-57.82.77-9.87,1.72-19.77,2.79-29.69,3.03-23.89,23.56-43.16,48.35-39.25,11.21,2,16.81,2.98,28.02,4.96,7.12,1.26,11.84,8.14,10.69,15.4-2.38,16.4-4.3,32.73-5.77,49.06-1.77,19.68-2.9,39.31-3.35,58.97-.16,6.63-.24,13.25-.26,19.87-.05,26.82,1.12,53.7,3.5,80.84.74,7.31-4.35,13.91-11.53,14.77Z"/>
        <g class="cls-11">
          <path class="cls-4" d="M243.89,450.65c-21.09,3.62-55.51,7.12-83.75-1.63.43-19.26,1.43-38.51,3.01-57.82,21.13-5.05,51.98-8.67,84.09.48-1.77,19.68-2.9,39.31-3.35,58.97Z"/>
        </g>
        <path class="cls-2" d="M250.64,360.22c.11-6.51-4.38-12.31-10.86-13.46-11.21-1.98-16.81-2.96-28.02-4.96-22.66-3.57-41.78,12.24-47.19,33.26.42-4.51.87-9.02,1.38-13.54,3.03-23.89,23.56-43.16,48.35-39.25,11.21,2,16.81,2.98,28.02,4.96,7.12,1.26,11.84,8.14,10.69,15.4-.84,5.87-1.65,11.74-2.36,17.6Z"/>
        <g class="cls-12">
          <path class="cls-2" d="M243.85,561.75c-1.87-24.04-2.78-47.88-2.75-71.69.06-41.22,2.98-82.27,8.79-123.69-4.13,34.82-6.22,69.42-6.25,104.15-.05,26.82,1.12,53.7,3.5,80.84.4,3.92-.89,7.65-3.28,10.39Z"/>
        </g>
        <g class="cls-12">
          <path class="cls-2" d="M250.48,362.15c-.2,1.4-.41,2.81-.59,4.22.24-2.05.49-4.1.75-6.15,0,.63-.06,1.3-.17,1.94Z"/>
        </g>
        <path class="cls-5" d="M235.6,566.13c-11.31,1.35-16.95,2.01-28.26,3.37-24.97,2.51-44.4-17.87-46.07-41.89-1.02-19.28-1.48-38.43-1.42-57.55.48,1.49,9.33,27.2,44.17,27.44,26.66.19,35.44-11.59,39.61-26.98-.05,26.82,1.12,53.7,3.5,80.84.74,7.31-4.35,13.91-11.53,14.77Z"/>
      </g>
      <path class="cls-10" d="M196.96,576.84c-8.89-1.19-17.28-4.89-24.35-10.86-10.96-9.25-17.84-23.05-18.87-37.86-2.97-56.55-1.43-111.28,4.7-167.44,1.88-14.86,9.52-28.25,20.98-36.87,10.43-7.84,23.24-11.01,36.05-9.02l28.17,4.98c11.08,1.96,18.63,12.74,16.83,24.02-10.02,69.31-11.93,137.02-5.8,206.9,1.16,11.26-6.99,21.59-18.16,22.93l-28.4,3.39c-3.76.38-7.49.31-11.13-.18ZM207.34,569.5h.02s-.02,0-.02,0ZM212.19,329.59c-10.68-1.43-18.76,2.61-23.69,6.31-8.21,6.17-13.7,15.85-15.05,26.55-6.03,55.22-7.54,109.15-4.62,164.75.74,10.63,5.68,20.6,13.53,27.23,4.81,4.06,12.91,8.66,24.16,7.55l28.18-3.37c3.04-.36,5.24-3.27,4.91-6.49-6.24-71.17-4.3-140.02,5.91-210.61.53-3.3-1.51-6.33-4.52-6.86l-28.02-4.96c-.26-.04-.53-.08-.79-.11Z"/>
    </g>
  </g>
  <path class="cls-1" d="M272.64,726.34l-.17.04c-31.03,6.15-137.97,20.7-211.16-50.3C22.63,638.56.87,584,.03,522.43c-1.09-79.27,33.19-160.5,94.04-222.85,24.89-25.51,65.75-26.01,91.25-1.11,25.51,24.89,26,65.74,1.11,91.25-37.07,37.99-57.97,85.71-57.35,130.94.37,26.63,8.42,49.52,22.09,62.78,23.92,23.21,71.73,21.19,96.2,16.34,34.96-6.93,68.92,15.79,75.85,50.75,6.92,34.9-15.72,68.8-50.58,75.81Z"/>
</svg>