<?xml version="1.0" encoding="UTF-8"?>
<svg id="Layer_1" data-name="Layer 1" xmlns="http://www.w3.org/2000/svg" viewBox="0 0 934.55 484.13">
  <defs>
    <style>
      .cls-1 {
        fill: #010101;
      }

      .cls-2 {
        fill: #fff;
      }

      .cls-3 {
        fill: none;
        stroke: #010101;
        stroke-linecap: round;
        stroke-linejoin: round;
        stroke-width: 79.07px;
      }
    </style>
  </defs>
  <g>
    <path class="cls-1" d="M928.74,332.96c-4.42,19.32-11.27,37.74-20.19,54.97-.34.65-.68,1.3-1.02,1.96-.38.69-.73,1.4-1.12,2.09-13.41,25.03-31.27,47.32-52.52,65.81-16.38,14.25-37.33,22.18-59.05,22.47-20.46.27-37.49.72-50.21,1.12-48.11,1.53-70.63,3.56-108.64,2.4-10.61-.32-20.36-.83-29-1.41-19.5-1.3-38.14-8.67-53.07-21.28-25.22-21.3-58.06-57.08-74.4-109.92-6.72-21.72-10.33-44.79-10.33-68.71,0-128.3,104.01-232.31,232.31-232.31,12.6,0,24.95,1.02,37,2.94v-1.19c2.53.62,4.43-.04,5.63-2.5.47-.95,1.16-1.77,1.75-2.64,9.14-13.44,18.26-26.87,27.39-40.3.79-1.16,1.55-2.36,2.39-3.49,1.86-2.57,4.42-3.5,7.44-2.7,2.84.75,4.41,2.78,4.91,5.65.34,1.91.69,3.81,1.06,5.72,3.54,18.72,7.13,37.43,10.58,56.17.41,2.25,1.61,3.26,3.45,4.19,5.34,2.73,10.63,5.55,15.89,8.43,2.94,1.61,5.78,3.39,8.9,5.24,1.02-1.57,1.99-3.01,2.89-4.49,6.65-10.83,13.27-21.66,19.91-32.49.55-.9,1.14-1.79,1.68-2.7,1.64-2.7,4.01-3.95,7.13-3.46,3.19.51,4.84,2.64,5.59,5.63.08.34.14.69.2,1.03.71,4,1.45,7.99,2.12,11.99,3.56,21.22,7.14,42.45,10.6,63.7.62,3.76,1.98,6.89,4.42,9.91,31.04,38.32,48.19,82.18,51.58,131.33,1.55,22.49-.24,44.82-5.27,66.82Z"/>
    <path class="cls-2" d="M815.77,270.7c2.07-2.63,4.27-5.43,6.47-8.24,1.44-1.84,2.96-3.63,4.3-5.54,1.37-1.94.54-3.56-1.88-3.93-.46-.07-.93-.1-1.4-.13-6.84-.49-13.68-.99-20.52-1.47-1.22-.09-2.54-.39-3.44.83-1.05,1.44-.17,2.66.53,3.87,2.17,3.78,4.39,7.54,6.56,11.33.46.8.8,1.66,1.3,2.7-3.48,7.06-9.38,10.18-16.96,10.21-6.45.02-11.75-2.69-15.65-7.94-.65-.87-1.24-1.79-1.99-2.57-.73-.76-2.1-.77-3.05-.21-1.06.63-1.56,1.63-1.28,2.77.26,1.03.76,2.04,1.35,2.93,8.24,12.39,26.95,14.49,37.75,4.25,1.01-.96,1.94-2.01,3.06-3.16,1.23.54,1.61,1.79,2.3,2.71,6.15,8.13,17.15,10.97,26.41,6.78,2.59-1.17,4.89-2.76,6.65-5.02,1.03-1.32.95-2.72-.09-3.8-.95-.99-2.27-1.22-3.38-.42-1.01.72-1.86,1.66-2.85,2.41-8.48,6.42-20.92,2.28-24.2-8.36Z"/>
    <path class="cls-2" d="M797.15,197.34c0,5.97-1.67,11.55-4.56,16.3-1.24,2.03-3.64,3.02-5.95,2.46-6.43-1.56-13.49-2.41-20.89-2.41s-14.45.85-20.88,2.41c-2.31.56-4.71-.43-5.94-2.46-3.13-5.14-4.83-11.23-4.53-17.75.71-15.86,13.53-28.91,29.38-29.88,18.25-1.12,33.38,13.33,33.38,31.33Z"/>
    <path class="cls-2" d="M876.76,202.1c0,5.23-1.44,10.11-3.96,14.28-1.2,1.98-3.54,2.95-5.8,2.46-5.97-1.31-12.44-2.02-19.2-2.02-6,0-11.77.56-17.17,1.6-2.26.43-4.56-.58-5.7-2.58-2.32-4.05-3.64-8.74-3.64-13.75,0-14.52,11.6-26.84,26.09-27.67,16.05-.92,29.37,11.82,29.37,27.69Z"/>
    <circle class="cls-1" cx="760.46" cy="192.52" r="19.29"/>
    <circle class="cls-1" cx="843.74" cy="197.88" r="16.4"/>
  </g>
  <path class="cls-3" d="M42.86,357.39c-13.74-62.23,15.87-132.46,75.78-158.9,45.39-20.04,103.27-8.84,137.86,26.78,37.68,38.8,31.77,95.73,54.01,141.91,41.52,86.21,161.68,88.43,224.2,24.82"/>
</svg>