<?xml version="1.0" encoding="UTF-8"?>
<svg id="Layer_2" data-name="Layer 2" xmlns="http://www.w3.org/2000/svg" viewBox="0 0 1691.96 529.8">
  <g id="Layer_1-2" data-name="Layer 1">
    <g>
      <path d="M1664.82,4.67c-14.97,0-27.14,12.18-27.14,27.14s12.18,27.14,27.14,27.14,27.14-12.18,27.14-27.14-12.18-27.14-27.14-27.14ZM1664.82,8.85c12.71,0,22.97,10.26,22.97,22.97s-10.26,22.97-22.97,22.97-22.97-10.26-22.97-22.97,10.26-22.97,22.97-22.97ZM1656.47,19.29v25.06h4.18v-8.35h7.11l3.33,8.35h4.18l-3.52-8.87c3.26-1.13,5.61-4.18,5.61-7.83,0-4.62-3.74-8.35-8.35-8.35h-12.53ZM1660.64,23.46h8.35c2.49,0,4.18,1.69,4.18,4.18s-1.69,4.18-4.18,4.18h-8.35v-8.35Z"/>
      <g>
        <g>
          <path d="M66.12,514.75l-5.79-8.62c-3.09.64-6.56,1.03-10.04,1.03-24.84,0-42.21-18.02-42.21-42.85s17.89-42.85,42.21-42.85,41.95,18.02,41.95,42.85c0,14.93-6.18,27.41-16.47,35l9.14,13.64c1.42,2.19.39,3.73-2.06,3.73h-13c-1.67,0-2.83-.64-3.73-1.93ZM45.15,483.22c-1.42-2.19-.39-3.73,2.06-3.73h12.87c1.67,0,2.83.64,3.73,1.93l2.57,3.86c5.79-4.76,9.14-12.1,9.14-20.97,0-15.18-9.91-26.25-25.22-26.25s-25.61,11.07-25.61,26.25,10.17,26.12,25.35,26.25l-4.89-7.33Z"/>
          <path d="M104.46,483.22v-33.2c0-1.93,1.16-3.09,3.09-3.09h9.91c1.93,0,3.09,1.16,3.09,3.09v30.63c0,10.42,7.33,12.87,11.97,12.87s11.58-2.44,11.58-12.87v-30.63c0-1.93,1.16-3.09,3.09-3.09h9.91c1.93,0,3.09,1.16,3.09,3.09v53.02c0,1.93-1.16,3.09-3.09,3.09h-9.91c-1.93,0-3.09-1.03-3.09-2.7v-2.7c-4.5,4.76-10.68,6.43-16.47,6.43-10.68,0-23.16-5.79-23.16-23.93Z"/>
          <path d="M172.15,476.53c0-17.63,11.58-30.75,29.47-30.75s28.44,13.13,28.44,30.75v1.29c0,1.93-1.16,3.09-3.09,3.09h-39.38c1.54,7.98,7.33,12.74,14.67,12.74,5.92,0,9.65-2.06,12.1-4.25,1.42-1.29,2.7-1.54,4.25-.39l6.05,4.5c1.67,1.29,2.06,2.57.9,3.99-5.28,6.18-13.51,9.91-23.29,9.91-18.14,0-30.11-13.25-30.11-30.88ZM215,470.74c-1.42-6.95-5.79-12.22-13.38-12.22s-12.22,4.76-13.77,12.22h27.15Z"/>
          <path d="M238.54,496.22c-1.03-1.67-.51-3.09,1.16-4.25l6.05-3.99c1.54-1.03,2.83-.64,4.12.77,2.83,3.09,8.36,6.31,14.15,6.31s8.49-1.67,8.49-5.53c0-4.76-7.59-6.05-12.22-7.59-4.63-1.54-20.46-5.28-20.46-18.27s11.07-18.02,23.81-18.02c11.2,0,19.04,4.5,22.9,9.91,1.16,1.67.64,3.22-1.03,4.25l-5.4,3.47c-1.54,1.03-2.96.77-4.38-.51-2.83-2.44-7.72-4.89-12.61-4.89-5.28,0-7.59,2.06-7.59,5.02,0,4.76,7.33,6.05,11.97,7.59,4.63,1.54,20.72,5.66,20.72,18.4s-9.27,19.04-24.45,19.04c-12.87,0-21.36-5.53-25.22-11.71Z"/>
          <path d="M302.62,489.01v-29.85h-4.63c-1.93,0-3.09-1.16-3.09-3.09v-6.05c0-1.93,1.16-3.09,3.09-3.09h4.63v-15.06c0-1.93,1.16-3.09,3.09-3.09h9.91c1.93,0,3.09,1.16,3.09,3.09v15.06h9.52c1.93,0,3.09,1.16,3.09,3.09v6.05c0,1.93-1.16,3.09-3.09,3.09h-9.52v27.28c0,6.95,4.25,7.21,7.98,7.21h.9c1.93,0,3.09,1.16,3.09,3.09v6.31c0,1.93-1.16,3.09-3.09,3.09h-7.59c-11.84,0-17.37-6.18-17.37-17.11Z"/>
          <path d="M342.63,429.17c0-5.53,4.5-8.49,8.88-8.49s8.88,2.96,8.88,8.49-4.63,9.01-8.88,9.01-8.88-3.35-8.88-9.01ZM343.41,503.04v-53.02c0-1.93,1.16-3.09,3.09-3.09h10.04c1.93,0,3.09,1.16,3.09,3.09l-.13,53.02c0,1.93-1.16,3.09-3.09,3.09h-9.91c-1.93,0-3.09-1.16-3.09-3.09Z"/>
          <path d="M372.35,476.53c0-17.89,12.61-30.75,30.5-30.75s30.5,12.87,30.5,30.75-12.48,30.88-30.5,30.88-30.5-13.25-30.5-30.88ZM417.52,476.53c0-8.88-5.79-15.44-14.67-15.44s-14.67,6.56-14.67,15.44,5.92,15.44,14.67,15.44,14.67-6.56,14.67-15.44Z"/>
          <path d="M445.31,503.04v-53.02c0-1.93,1.16-3.09,3.09-3.09h9.91c1.93,0,3.09,1.03,3.09,2.83v2.83c4.5-4.89,10.81-6.56,16.6-6.56,10.68,0,23.03,5.79,23.03,23.93v33.07c0,1.93-1.16,3.09-3.09,3.09h-9.91c-1.93,0-3.09-1.16-3.09-3.09v-30.63c0-10.42-7.34-12.87-11.84-12.87s-11.71,2.44-11.71,12.87v30.63c0,1.93-1.16,3.09-3.09,3.09h-9.91c-1.93,0-3.09-1.16-3.09-3.09Z"/>
          <path d="M512.99,496.22c-1.03-1.67-.51-3.09,1.16-4.25l6.05-3.99c1.54-1.03,2.83-.64,4.12.77,2.83,3.09,8.36,6.31,14.15,6.31s8.49-1.67,8.49-5.53c0-4.76-7.59-6.05-12.22-7.59-4.63-1.54-20.46-5.28-20.46-18.27s11.07-18.02,23.81-18.02c11.2,0,19.04,4.5,22.9,9.91,1.16,1.67.64,3.22-1.03,4.25l-5.4,3.47c-1.54,1.03-2.96.77-4.38-.51-2.83-2.44-7.72-4.89-12.61-4.89-5.28,0-7.59,2.06-7.59,5.02,0,4.76,7.33,6.05,11.97,7.59,4.63,1.54,20.72,5.66,20.72,18.4s-9.27,19.04-24.45,19.04c-12.87,0-21.36-5.53-25.22-11.71Z"/>
          <path d="M598.87,479.04c0-8.69,6.4-14.86,15.32-14.86s15.09,6.17,15.09,14.86-6.4,15.32-15.09,15.32-15.32-6.4-15.32-15.32Z"/>
          <path d="M723.26,514.75l-5.79-8.62c-3.09.64-6.56,1.03-10.04,1.03-24.84,0-42.21-18.02-42.21-42.85s17.89-42.85,42.21-42.85,41.95,18.02,41.95,42.85c0,14.93-6.18,27.41-16.47,35l9.14,13.64c1.42,2.19.39,3.73-2.06,3.73h-13c-1.67,0-2.83-.64-3.73-1.93ZM702.29,483.22c-1.42-2.19-.39-3.73,2.06-3.73h12.87c1.67,0,2.83.64,3.73,1.93l2.57,3.86c5.79-4.76,9.14-12.1,9.14-20.97,0-15.18-9.91-26.25-25.22-26.25s-25.61,11.07-25.61,26.25,10.17,26.12,25.35,26.25l-4.89-7.33Z"/>
          <path d="M761.6,483.22v-33.2c0-1.93,1.16-3.09,3.09-3.09h9.91c1.93,0,3.09,1.16,3.09,3.09v30.63c0,10.42,7.34,12.87,11.97,12.87s11.58-2.44,11.58-12.87v-30.63c0-1.93,1.16-3.09,3.09-3.09h9.91c1.93,0,3.09,1.16,3.09,3.09v53.02c0,1.93-1.16,3.09-3.09,3.09h-9.91c-1.93,0-3.09-1.03-3.09-2.7v-2.7c-4.5,4.76-10.68,6.43-16.47,6.43-10.68,0-23.16-5.79-23.16-23.93Z"/>
          <path d="M831.47,503.04v-53.02c0-1.93,1.16-3.09,3.09-3.09h9.91c1.93,0,3.09,1.16,3.09,3.09v7.59c4.38-6.95,10.94-10.42,17.63-11.32,2.06-.26,3.22.9,3.22,2.96v8.88c0,1.93-1.03,2.96-2.96,3.09-6.82.64-17.89,3.35-17.89,17.76v24.06c0,1.93-1.16,3.09-3.09,3.09h-9.91c-1.93,0-3.09-1.16-3.09-3.09Z"/>
          <path d="M878.69,429.17c0-5.53,4.5-8.49,8.88-8.49s8.88,2.96,8.88,8.49-4.63,9.01-8.88,9.01-8.88-3.35-8.88-9.01ZM879.46,503.04v-53.02c0-1.93,1.16-3.09,3.09-3.09h10.04c1.93,0,3.09,1.16,3.09,3.09l-.13,53.02c0,1.93-1.16,3.09-3.09,3.09h-9.91c-1.93,0-3.09-1.16-3.09-3.09Z"/>
          <path d="M908.41,476.53c0-17.89,12.61-30.75,30.5-30.75s30.5,12.87,30.5,30.75-12.48,30.88-30.5,30.88-30.5-13.25-30.5-30.88ZM953.58,476.53c0-8.88-5.79-15.44-14.67-15.44s-14.67,6.56-14.67,15.44,5.92,15.44,14.67,15.44,14.67-6.56,14.67-15.44Z"/>
          <path d="M977.9,496.22c-1.03-1.67-.51-3.09,1.16-4.25l6.05-3.99c1.54-1.03,2.83-.64,4.12.77,2.83,3.09,8.36,6.31,14.15,6.31s8.49-1.67,8.49-5.53c0-4.76-7.59-6.05-12.22-7.59-4.63-1.54-20.46-5.28-20.46-18.27s11.07-18.02,23.81-18.02c11.2,0,19.04,4.5,22.9,9.91,1.16,1.67.64,3.22-1.03,4.25l-5.4,3.47c-1.54,1.03-2.96.77-4.38-.51-2.83-2.44-7.72-4.89-12.61-4.89-5.28,0-7.59,2.06-7.59,5.02,0,4.76,7.33,6.05,11.97,7.59,4.63,1.54,20.72,5.66,20.72,18.4s-9.27,19.04-24.45,19.04c-12.87,0-21.36-5.53-25.22-11.71Z"/>
          <path d="M1038.11,429.17c0-5.53,4.5-8.49,8.88-8.49s8.88,2.96,8.88,8.49-4.63,9.01-8.88,9.01-8.88-3.35-8.88-9.01ZM1038.89,503.04v-53.02c0-1.93,1.16-3.09,3.09-3.09h10.04c1.93,0,3.09,1.16,3.09,3.09l-.13,53.02c0,1.93-1.16,3.09-3.09,3.09h-9.91c-1.93,0-3.09-1.16-3.09-3.09Z"/>
          <path d="M1073.88,489.01v-29.85h-4.63c-1.93,0-3.09-1.16-3.09-3.09v-6.05c0-1.93,1.16-3.09,3.09-3.09h4.63v-15.06c0-1.93,1.16-3.09,3.09-3.09h9.91c1.93,0,3.09,1.16,3.09,3.09v15.06h9.52c1.93,0,3.09,1.16,3.09,3.09v6.05c0,1.93-1.16,3.09-3.09,3.09h-9.52v27.28c0,6.95,4.25,7.21,7.98,7.21h.9c1.93,0,3.09,1.16,3.09,3.09v6.31c0,1.93-1.16,3.09-3.09,3.09h-7.59c-11.84,0-17.37-6.18-17.37-17.11Z"/>
          <path d="M1124.06,526.2l7.98-20.07-21.88-55.59c-.77-2.06.13-3.6,2.44-3.6h10.17c1.67,0,2.83.9,3.47,2.44l13.64,34.49,13.77-34.49c.64-1.54,1.93-2.44,3.6-2.44h10.17c2.32,0,3.35,1.54,2.44,3.6l-30.63,76.82c-.64,1.54-1.8,2.44-3.47,2.44h-9.26c-2.32,0-3.22-1.54-2.45-3.6Z"/>
          <path d="M1205.95,479.04c0-8.69,6.4-14.86,15.32-14.86s15.09,6.17,15.09,14.86-6.4,15.32-15.09,15.32-15.32-6.4-15.32-15.32Z"/>
          <path d="M1330.34,514.75l-5.79-8.62c-3.09.64-6.56,1.03-10.04,1.03-24.84,0-42.21-18.02-42.21-42.85s17.89-42.85,42.21-42.85,41.95,18.02,41.95,42.85c0,14.93-6.18,27.41-16.47,35l9.14,13.64c1.42,2.19.39,3.73-2.06,3.73h-13c-1.67,0-2.83-.64-3.73-1.93ZM1309.37,483.22c-1.42-2.19-.39-3.73,2.06-3.73h12.87c1.67,0,2.83.64,3.73,1.93l2.57,3.86c5.79-4.76,9.14-12.1,9.14-20.97,0-15.18-9.91-26.25-25.22-26.25s-25.61,11.07-25.61,26.25,10.17,26.12,25.35,26.25l-4.89-7.33Z"/>
          <path d="M1368.68,483.22v-33.2c0-1.93,1.16-3.09,3.09-3.09h9.91c1.93,0,3.09,1.16,3.09,3.09v30.63c0,10.42,7.33,12.87,11.97,12.87s11.58-2.44,11.58-12.87v-30.63c0-1.93,1.16-3.09,3.09-3.09h9.91c1.93,0,3.09,1.16,3.09,3.09v53.02c0,1.93-1.16,3.09-3.09,3.09h-9.91c-1.93,0-3.09-1.03-3.09-2.7v-2.7c-4.5,4.76-10.68,6.43-16.47,6.43-10.68,0-23.16-5.79-23.16-23.93Z"/>
          <path d="M1436.37,476.53c0-17.63,11.58-30.75,29.47-30.75s28.44,13.13,28.44,30.75v1.29c0,1.93-1.16,3.09-3.09,3.09h-39.38c1.54,7.98,7.34,12.74,14.67,12.74,5.92,0,9.65-2.06,12.1-4.25,1.42-1.29,2.7-1.54,4.25-.39l6.05,4.5c1.67,1.29,2.06,2.57.9,3.99-5.28,6.18-13.51,9.91-23.29,9.91-18.14,0-30.11-13.25-30.11-30.88ZM1479.22,470.74c-1.41-6.95-5.79-12.22-13.38-12.22s-12.22,4.76-13.77,12.22h27.15Z"/>
          <path d="M1502.76,496.22c-1.03-1.67-.51-3.09,1.16-4.25l6.05-3.99c1.54-1.03,2.83-.64,4.12.77,2.83,3.09,8.36,6.31,14.15,6.31s8.49-1.67,8.49-5.53c0-4.76-7.59-6.05-12.22-7.59-4.63-1.54-20.46-5.28-20.46-18.27s11.07-18.02,23.81-18.02c11.2,0,19.04,4.5,22.9,9.91,1.16,1.67.64,3.22-1.03,4.25l-5.4,3.47c-1.54,1.03-2.96.77-4.37-.51-2.83-2.44-7.72-4.89-12.61-4.89-5.28,0-7.59,2.06-7.59,5.02,0,4.76,7.34,6.05,11.97,7.59,4.63,1.54,20.72,5.66,20.72,18.4s-9.27,19.04-24.45,19.04c-12.87,0-21.36-5.53-25.22-11.71Z"/>
          <path d="M1566.84,489.01v-29.85h-4.63c-1.93,0-3.09-1.16-3.09-3.09v-6.05c0-1.93,1.16-3.09,3.09-3.09h4.63v-15.06c0-1.93,1.16-3.09,3.09-3.09h9.91c1.93,0,3.09,1.16,3.09,3.09v15.06h9.52c1.93,0,3.09,1.16,3.09,3.09v6.05c0,1.93-1.16,3.09-3.09,3.09h-9.52v27.28c0,6.95,4.25,7.21,7.98,7.21h.9c1.93,0,3.09,1.16,3.09,3.09v6.31c0,1.93-1.16,3.09-3.09,3.09h-7.59c-11.84,0-17.37-6.18-17.37-17.11Z"/>
          <path d="M1604.67,496.22c-1.03-1.67-.51-3.09,1.16-4.25l6.05-3.99c1.54-1.03,2.83-.64,4.12.77,2.83,3.09,8.36,6.31,14.15,6.31s8.49-1.67,8.49-5.53c0-4.76-7.59-6.05-12.22-7.59-4.63-1.54-20.46-5.28-20.46-18.27s11.07-18.02,23.81-18.02c11.2,0,19.04,4.5,22.91,9.91,1.16,1.67.64,3.22-1.03,4.25l-5.4,3.47c-1.54,1.03-2.96.77-4.38-.51-2.83-2.44-7.72-4.89-12.61-4.89-5.28,0-7.59,2.06-7.59,5.02,0,4.76,7.33,6.05,11.97,7.59,4.63,1.54,20.72,5.66,20.72,18.4s-9.27,19.04-24.45,19.04c-12.87,0-21.36-5.53-25.22-11.71Z"/>
        </g>
        <g>
          <path d="M227.69,279.22c13.95,19.56,33.62,30.22,54.67,41.31-4.7,7-8.18,14.26-13.51,19.72-12.48,12.79-25.97,24.6-38.81,37.05-5.02,4.87-9.91,4.67-15.82,1.98-32.19-14.6-55.97-38.31-72.96-68.74-4.55-8.14-9.48-11.08-18.53-12.28-56.21-7.45-94.84-37.77-112.7-91.87-14.87-45.03-13.98-89.96,7.86-133.05C34.18,41.22,59.87,19.36,94.23,8.65c42.25-13.17,84.02-11.21,124.12,8.19,32.03,15.5,52.79,41.52,64.25,74.74,11.81,34.22,14.02,69.36,4.84,104.51-8.61,32.95-26.41,60.14-54.85,79.73-1.29.89-2.57,1.78-4.9,3.39ZM102.96,116.92c-5.62,18.59-6.42,38.32-2.77,57.39.32,1.7.68,3.37,1.08,5.03,4.56,18.99,16.02,32.22,35.75,35.81,19.37,3.52,36.17-2.07,48.31-18.28,19.57-26.12,17.81-74.64-3.36-99.37-20.96-24.49-63.61-18.98-75.92,10.67-1.19,2.86-2.21,5.8-3.1,8.75Z"/>
          <path d="M657.06,196.61c0,3.46.02,6.3,0,9.14-.25,26.92-.65,53.85-.67,80.77,0,5.5-1.34,8.37-7.33,8.5-24.52.54-49.04,1.55-73.56,1.85-11.09.14-11.71-.83-12-11.53-1.07-39.57-2.51-79.13-2.85-118.7-.44-50.41,0-100.83.2-151.24.04-10.06,1.89-12.65,11.8-12.82,23.44-.39,46.9.17,70.35.3,8.33.05,10.96,4.28,11.1,12.39.56,32.17,1.7,64.34,2.64,97.18h76.22c0-13.4-.17-27.02.04-40.64.28-18.47.96-36.94,1.23-55.41.08-5.68,1.68-8.82,8.08-8.84,25.86-.08,51.71-.43,77.57-.71,4.81-.05,7.12,1.8,7.18,7.02.13,12.92,1.06,25.84,1.05,38.76-.07,67.85-.27,135.7-.57,203.55-.04,9.75-1.11,19.5-1.2,29.25-.06,6.21-2.57,9.66-8.76,9.66-26.06.03-52.12-.06-78.18-.19-6.49-.03-5.67-5.17-5.73-9.17-.4-26.13-.97-52.27-.75-78.4.07-8.01-1.68-10.89-10.31-10.67-18.99.5-38.01-.28-57.01-.48-2.58-.03-5.15.25-8.54.43Z"/>
          <path d="M1144.19,288.79c-14.41,1.7-27.93,3.68-41.52,4.8-15.25,1.26-30.6,1.33-45.83,2.77-6.21.59-8.48-1.78-10.14-6.97-4.43-13.8-8.97-27.58-13.9-41.2-.84-2.33-3.82-5.5-5.87-5.53-21.35-.4-42.72-.25-65.16-.25-3.04,10.87-6.57,22.64-9.6,34.53-4.81,18.84-4.69,19.26-23.72,18.12-22.38-1.34-44.73-3.39-67.08-5.24-3.34-.28-6.63-1.17-10.9-1.96,3.17-11.16,5.95-21.52,9.05-31.78,19.02-62.8,38.03-125.6,57.24-188.35,5.63-18.38,11.63-36.66,18.08-54.77,1.01-2.83,5.29-6.28,8.17-6.39,33.75-1.38,67.53-2.1,101.3-3.17,6.93-.22,10.19,2.87,12.35,9.34,21.08,62.97,42.78,125.73,63.55,188.8,8.48,25.76,15.11,52.13,22.52,78.24.64,2.24.76,4.62,1.45,9.02ZM999.48,88.38c-.81,0-1.63-.01-2.44-.02-7.46,27.89-14.91,55.78-22.52,84.22h47.71c-7.7-28.5-15.23-56.35-22.75-84.2Z"/>
          <path d="M1662.42,288.67c-14.03,1.72-27.02,3.73-40.08,4.82-16.56,1.38-33.19,2.19-49.8,2.75-2.19.07-5.74-2.34-6.51-4.4-5.2-14.08-9.97-28.33-14.57-42.61-1.58-4.91-3.89-7.1-9.5-7-20.55.37-41.1.15-62.21.15-4.02,14.42-8.39,29.34-12.25,44.38-1.62,6.33-4.38,9.35-11.44,8.76-26.02-2.19-52.08-3.91-78.12-5.9-2.81-.22-5.58-1.09-9.27-1.84,4.19-14.82,8-28.97,12.21-43,13.46-44.93,26.89-89.87,40.69-134.69,9.77-31.74,20.19-63.27,30.16-94.95,1.88-5.96,4.72-9.01,11.64-9.13,32.72-.55,65.43-1.6,98.14-2.59,6.91-.21,10.69,2.1,13.09,9.29,17.77,53.24,36.55,106.14,54.02,159.48,11.23,34.27,20.81,69.08,31.05,103.67,1.04,3.51,1.54,7.17,2.73,12.84ZM1517.44,88.25c-.81.09-1.61.17-2.42.26-7.45,27.86-14.9,55.73-22.39,83.75h47.58c-7.74-28.57-15.26-56.29-22.77-84.01Z"/>
          <path d="M427.38,0c29.46,2.38,58.1,6.2,85.34,17.52,14.12,5.87,15.37,7.64,10.2,21.9-5.74,15.82-12.22,31.39-18.95,46.82-4.04,9.26-6.13,8.98-15.98,6.36-18.53-4.94-37.18-9.68-56.06-12.89-7.65-1.3-16.2.97-23.98,2.98-2.93.76-6.78,5.45-6.72,8.27.08,3.38,3.2,8.58,6.21,9.66,10.85,3.91,22.12,6.82,33.4,9.36,20.42,4.6,40.39,10.15,58.19,21.69,32.31,20.94,41.51,59.58,31.71,93.63-9.6,33.34-33.97,52.64-66.18,62.11-45.38,13.34-89.85,7.22-133.5-8.6-5.68-2.06-11.45-4.29-16.49-7.51-2.39-1.53-5.06-6.17-4.38-8.42,6.45-21.11,13.48-42.05,20.64-62.94,1.29-3.76,4.24-4.54,8.32-2.57,12.34,5.93,24.67,12.03,37.44,16.93,15.68,6.02,31.97,8.85,48.86,4.94,6.17-1.43,11.26-4.01,11.96-10.77.74-7.16-4.07-11.66-10.04-13.56-12.78-4.06-25.75-7.7-38.85-10.55-17.78-3.87-34.52-9.89-48.88-21.22-12.61-9.94-20.81-23.05-24.65-38.66-14.59-59.33,11.84-102.34,67.26-117.3,14.63-3.95,30.07-4.87,45.14-7.19Z"/>
          <path d="M1257.75,211.76h104.56v80.35c-65.11,2.92-129.61.81-196.39-.79v-57.09c0-53.06-.13-106.12.07-159.19.08-20.31.93-40.62,1.37-60.93.09-4.22.31-7.88,6.08-8.02,25.56-.63,51.13-1.4,76.68-2.23,5.46-.18,7.31,2.25,7.31,7.54-.02,29.03.25,58.06.3,87.09.06,37.42.02,74.83.02,113.27Z"/>
        </g>
      </g>
    </g>
  </g>
</svg>