<?xml version="1.0" encoding="UTF-8"?>
<svg id="Layer_1" data-name="Layer 1" xmlns="http://www.w3.org/2000/svg" viewBox="0 0 1098.43 834.24">
  <defs>
    <style>
      .cls-1 {
        fill: #fff;
      }

      .cls-2 {
        fill: #383838;
      }

      .cls-3 {
        fill: #3c7a05;
      }

      .cls-4 {
        fill: #75b543;
      }

      .cls-5 {
        fill: #30b2e7;
      }
    </style>
  </defs>
  <g>
    <g>
      <g>
        <g>
          <path d="M467.95,825.97c32.12,7.68,64.62,9.94,97.46,7.08,3.15-.28,6.3-.61,9.43-.98,44.25-5.32,88.82-7.33,133.29-4.58,2.03.13,4.02.25,5.99.37,22.56,1.36,43.91,2.03,64.21,2.03,59.12,0,109.4-5.8,155.04-17.74,38.52-10.05,82.81-25.04,118.93-59.91,26.7-25.76,43.38-63.04,45.79-102.32,3.16-52.27-16.27-103.71-52.01-137.64-17.77-16.83-45.87-16.12-62.74,1.69-16.87,17.77-16.12,45.87,1.66,62.7,16.68,15.85,26.06,41.84,24.48,67.82-1.05,17.36-7.91,33.37-18.79,43.87-21.35,20.6-50.95,30.39-79.72,37.92-43.14,11.24-92.4,16-152.84,14.61-.57-.01-.87-.69-.48-1.11,18.88-20.15,35.03-42.9,47.83-67.65h-.04c41.5-86.46,44.74-173.42,6.97-261.35-40.37-86.34-106.96-141.8-198.39-168.41-.2-.22-.43-.47-.64-.69-1.63-8.08-3.26-16.12-4.85-24.2-3.58-18.04-7.08-36.08-10.66-54.15-.34-1.69-.72-3.54-1.51-5.08-2.56-4.9-9-6.14-13.07-2.45-1.85,1.69-3.28,3.92-4.74,5.99-14.8,20.52-29.56,41.09-44.32,61.65-2.33,3.23-4.82,6.29-7.27,9.53l-.53.28c-17.46.83-34.64,3.16-51.99,6.44l-.73-.39c-1.24-2.71-2.37-5.09-3.39-7.46-9.26-21.31-18.53-42.67-27.75-63.98-1.02-2.37-1.96-4.78-3.2-6.97-1.53-2.69-3.86-4.12-6.78-4.29-3.99-.23-7.63,2.5-9.04,6.23-.76,2.03-1.34,4.14-1.88,6.23-6.29,24.25-12.54,48.5-18.83,72.76-1.85,7.16-4.03,14.23-5.54,21.5-.45,2.07-1.21,3.69-2.3,5.01-1.13,1.43-2.6,2.52-4.44,3.58-19.09,10.58-36.75,23.2-52.87,37.88-49.94,45.27-81.94,100.81-94.64,167.09-30.92,161.14,71.78,312.49,224.9,349.09ZM473.3,334c-.29-.48.14-1.1.7-1.01,3.59.54,7.1,1.28,10.64,1.35,4.41.08,8.51-1.47,12.28-3.84,3.54-2.22,6.59-5.08,8.28-8.85,1.67-3.79,2.79-7.85,4.12-11.8.08-.25.28-.42.54-.45,7.95-.9,28.96-.66,34.86.4.3.05.5.31.53.61,1,10.13-3.58,20.67-11.43,28.33-.72.72-1.47,1.39-2.22,2.03-1.54,1.28-3.2,2.49-4.9,3.58-2.6,1.62-5.39,2.97-8.32,3.95-16.57,5.63-37.02-.82-45.08-14.31ZM411.43,380.32c1.24-.23,2.52-.34,3.8-.34,4.07-.04,8.17-.04,12.24-.04v-.15c4.33,0,8.66-.04,12.99.04,1.24,0,2.56.26,3.73.68,1.32.49,1.88,1.73,1.54,3.09-.11.38-.23.75-.41,1.09-.08.23-.19.45-.3.68-.19.34-.38.64-.6.94v.04c-4.63,6.7-9.26,13.41-13.97,20.07-.41.64-.94,1.21-1.51,1.69-1.13,1.02-3.35,1.09-4.14-.11-5.27-7.83-10.43-15.7-15.52-23.65-1.02-1.62.23-3.65,2.15-4.03ZM370.64,336.9c1.21.11,2.15.19,3.09.3,4.1.49,7.98-.15,11.37-1.62,1.32-.56,2.56-1.24,3.73-2.03.6-.38,1.17-.83,1.69-1.28.53-.45,1.05-.9,1.54-1.43,4.29-4.29,6.74-10.28,6.29-16.53-.11-1.66-.79-3.5.64-5.01,6.68-.85,25.83-.83,33.56.02.28.03.49.23.57.51,3.8,14.44-4.98,33.17-22.61,39.54-15.06,5.46-33.48-.15-39.88-12.46Z"/>
          <path class="cls-1" d="M472.62,332.79c7.53,14.31,28.7,21.31,45.75,15.52,2.94-1.02,5.72-2.33,8.32-3.95,1.69-1.09,3.35-2.3,4.9-3.58.75-.64,1.51-1.32,2.22-2.03,7.98-7.8,12.58-18.57,11.37-28.85-5.23-1.17-27.9-1.43-35.74-.45-1.39,4.07-2.52,8.28-4.26,12.2-1.69,3.77-4.74,6.63-8.28,8.85-3.77,2.37-7.87,3.92-12.28,3.84-3.99-.08-7.95-1.02-12.01-1.54Z"/>
          <path class="cls-1" d="M370.64,336.9c6.4,12.31,24.82,17.93,39.88,12.46,17.81-6.44,26.59-25.49,22.48-39.99-7.42-.9-27.19-.94-34.01-.08-1.43,1.51-.75,3.35-.64,5.01.45,6.25-2,12.24-6.29,16.53-.45.49-.98.98-1.54,1.43-.53.45-1.09.9-1.69,1.28-1.17.79-2.41,1.47-3.73,2.03-3.39,1.47-7.27,2.11-11.37,1.62-.94-.11-1.88-.19-3.09-.3Z"/>
          <path class="cls-1" d="M409.28,384.35c5.08,7.95,10.24,15.82,15.52,23.65.79,1.21,3.01,1.13,4.14.11.56-.49,1.09-1.05,1.51-1.69,4.71-6.67,9.34-13.37,13.97-20.07v-.04c.23-.3.41-.6.6-.94.11-.23.23-.45.3-.68.19-.34.3-.72.41-1.09.34-1.36-.23-2.6-1.54-3.09-1.17-.41-2.49-.68-3.73-.68-4.33-.08-8.66-.04-12.99-.04v.15c-4.07,0-8.17,0-12.24.04-1.28,0-2.56.11-3.8.34-1.92.38-3.16,2.41-2.15,4.03Z"/>
        </g>
        <path d="M379.97,482.98h-.19s4.72,116.6,4.72,116.6c-4.59.19-46.35,1.5-99.9-9.32-75.16-15.19-137.32-47.5-179.78-93.42-26.46-28.63-45.61-62.57-56.92-100.87-12.15-41.17-15.24-87.75-9.18-138.43,3.83-32,32.87-54.83,64.86-51.01s54.83,32.87,51.01,64.86c-7.63,63.78,4.04,111.51,35.62,145.91,63.49,69.14,188.5,65.72,189.76,65.68Z"/>
      </g>
      <path class="cls-1" d="M432.35,403.61c2.43-3.6,5.03-7.45,7.63-11.29,1.7-2.52,3.5-4.98,5.06-7.58,1.59-2.65.37-4.66-2.81-4.92-.6-.05-1.22-.04-1.82-.04-8.92,0-17.84,0-26.75,0-1.59,0-3.33-.27-4.38,1.4-1.23,1.97.03,3.47,1.04,4.97,3.17,4.7,6.39,9.38,9.56,14.08.67.99,1.2,2.08,1.94,3.38-3.86,9.48-11.22,14.08-21.05,14.82-8.36.63-15.49-2.39-21.03-8.84-.92-1.07-1.78-2.21-2.82-3.15-1.02-.92-2.79-.81-3.97.01-1.32.92-1.87,2.26-1.4,3.71.43,1.31,1.18,2.58,2.03,3.67,11.85,15.3,36.31,16.28,49.36,2,1.22-1.34,2.33-2.78,3.67-4.39,1.65.59,2.26,2.18,3.24,3.3,8.73,9.98,23.27,12.63,34.89,6.34,3.25-1.76,6.08-4.04,8.15-7.13,1.21-1.81.98-3.61-.48-4.93-1.32-1.19-3.06-1.37-4.42-.23-1.24,1.03-2.25,2.33-3.47,3.39-10.4,9.12-26.92,4.91-32.17-8.58Z"/>
    </g>
    <g>
      <path d="M219.79,69.69l-.33-1.35L252.02,2.44l1.26-.56.79,1.13-9.16,107.03-.4.75-38.58,30.63-1.16.12-39.94-19.73-.6-1.06,4.06-47.68.35-.71L248.08.06l1.38-.06.32,1.34-32.56,65.89-1.27.55c-5.7-1.68-11.94.9-14.66,6.4-3.04,6.17-.51,13.62,5.65,16.68,6.17,3.03,13.62.51,16.68-5.65,2.72-5.5.98-12.03-3.82-15.53Z"/>
      <path class="cls-5" d="M84.42,227.37l85.45,42.23C116.05,374.49,28.15,505.76,5.52,494.58c-22.61-11.17,28.26-160.74,78.89-267.21Z"/>
      <path class="cls-4" d="M183.51,138.25c19.54,9.65,38.42,12.94,14.7,73.9l-82.34-40.68c34.02-55.87,48.09-42.87,67.63-33.22Z"/>
      <path class="cls-3" d="M198.22,212.15c-2.67,6.87-5.88,14.47-9.7,22.89l-84.93-41.96c4.37-8.15,8.46-15.32,12.29-21.6l82.34,40.68Z"/>
      <path class="cls-2" d="M103.59,193.08l84.93,41.96c-3.33,7.36-7.08,15.29-11.38,23.99-2.33,4.73-4.78,9.55-7.28,14.42l-85.45-42.23c2.34-4.93,4.69-9.81,7.03-14.54,4.3-8.69,8.32-16.48,12.15-23.6Z"/>
    </g>
    <path d="M84.59,216.66s35.07,21.36,19.61,64c-15.46,42.64-61.86,31.07-61.86,31.07l42.25-95.06Z"/>
  </g>
  <path d="M777.5,304.73c-6.18-.07-9.66-5.42-7.39-10.1.75-1.54,1.94-2.91,3.13-4.17,17.14-18.26,34.31-36.5,51.5-54.73,1.02-1.09,2.1-2.2,3.34-2.99,2.84-1.82,6.7-1.27,8.97,1.08,2.45,2.53,2.84,5.88.84,8.93-.95,1.45-2.18,2.73-3.38,4.01-16.64,17.7-33.29,35.4-49.95,53.08-1.03,1.09-2,2.32-3.23,3.12-1.41.92-3.08,1.43-3.82,1.76Z"/>
  <path d="M884.84,322.27c-.02.94-1.23,3.1-3.66,4.29-1.78.87-3.74,1.42-5.66,1.97-22.87,6.51-45.74,12.99-68.61,19.47-1.69.48-3.36,1.03-5.08,1.33-3.99.7-7.65-1.66-8.65-5.45-.88-3.33.99-6.91,4.6-8.46,1.6-.69,3.32-1.1,5.01-1.58,22.87-6.48,45.75-12.97,68.63-19.41,2.15-.61,4.39-1.21,6.6-1.26,4.11-.08,6.99,3.18,6.82,9.09Z"/>
</svg>