<?xml version="1.0" encoding="UTF-8"?>
<svg id="Layer_1" data-name="Layer 1" xmlns="http://www.w3.org/2000/svg" xmlns:xlink="http://www.w3.org/1999/xlink" viewBox="0 0 1172.05 658.39">
  <defs>
    <style>
      .cls-1 {
        stroke: #000;
        stroke-miterlimit: 10;
        stroke-width: 2.15px;
      }

      .cls-1, .cls-2 {
        fill: none;
      }

      .cls-3 {
        fill: #010101;
      }

      .cls-4 {
        fill: #fff;
      }

      .cls-5 {
        fill: #ef7072;
      }

      .cls-6 {
        fill: #30b2e7;
      }

      .cls-7 {
        fill: #1b1f3e;
      }

      .cls-8 {
        clip-path: url(#clippath);
      }
    </style>
    <clipPath id="clippath">
      <path class="cls-2" d="M84.48,266.55c-25.03,54.75-58.12,93.28-73.93,86.06-15.8-7.22-8.32-57.46,16.7-112.22,25.03-54.75,58.12-93.28,73.93-86.06,15.8,7.22,8.32,57.46-16.7,112.22Z"/>
    </clipPath>
  </defs>
  <g>
    <g>
      <g>
        <path class="cls-3" d="M1171.49,185.52c-2.38,33.52-14.71,62.76-38.35,86.98-7.2,7.36-14.97,14.06-23.05,20.41-6.37,5.01-12.79,9.94-19.15,14.95-2.17,1.7-4.25,3.54-6.36,5.32-16.82,14.18-26.93,32.28-31.35,53.69-2.09,10.06-3.26,20.25-3.86,30.52-1.2,20.37.2,40.65,2.01,60.92,1.7,18.9,2.67,37.85,1.56,56.81-.99,17.05-4.2,33.69-10.79,49.54-9.27,22.29-24.09,40.17-43.63,54.21-14.9,10.71-31.4,18.16-48.82,23.7-16.41,5.21-33.23,8.61-50.27,10.95-25.88,3.57-51.9,4.84-78,4.84-66.96-.02-133.94,0-200.9-.01-7.9,0-15.81.11-23.71-.11-81.53-2.17-157.19-40.75-207.63-103.31-28.68-35.57-47.47-75.8-56.39-120.6-4.46-22.36-6.14-45.01-4.83-67.78,3.47-60.22,24.09-113.91,62.09-160.81,2.73-3.38,4.35-6.89,5.04-11.08,3.57-21.82,7.2-43.63,10.85-65.42,1.41-8.37,2.94-16.72,4.41-25.08.17-.98.25-1.98.54-2.91.96-3.07,3.06-5.05,6.21-5.73,3.2-.68,5.85.46,7.85,2.98.98,1.23,1.74,2.63,2.57,3.98,8.16,13.3,16.31,26.6,24.47,39.9.93,1.49,1.94,2.94,2.85,4.32.62-.09,1.05-.04,1.36-.21,10.48-5.9,20.95-11.82,31.89-18,.88-4.16,1.91-8.77,2.79-13.41,3.72-19.78,7.4-39.58,11.09-59.36.33-1.75.6-3.53,1.12-5.21,1.95-6.22,9.29-7.88,13.67-3.09,1.2,1.31,2.11,2.86,3.11,4.33,11.32,16.66,22.66,33.31,33.98,49.96,1.21,1.78,2.47,3.53,3.82,5.45,37.69-6.16,74.96-5.31,111.93,3.52,36.98,8.82,70.74,24.63,101.23,47.35,30.51,22.71,55.36,50.52,74.53,83.35,19.18,32.83,31.12,68.17,35.6,105.91,4.48,37.71,1.59,74.89-9.11,111.42-10.68,36.43-28.26,69.22-52.94,99.41,8.35,0,15.25.23,22.14-.06,9.85-.42,19.72-1.02,29.55-1.91,15.56-1.42,30.97-3.78,45.98-8.22,6.83-2.03,13.41-4.64,19.72-7.99,9.5-5.03,14.57-12.87,16.08-23.39,1.54-10.64,1.28-21.29.57-31.93-1.16-17.53-2.74-35.04-3.74-52.59-1.05-18.57-.3-37.11,1.68-55.62,1.93-17.92,5.35-35.5,10.87-52.68,10.37-32.31,27.99-60,53.37-82.57,8.11-7.21,16.74-13.84,25.18-20.68,4.75-3.86,9.61-7.59,14.39-11.42,1.53-1.23,2.95-2.63,4.42-3.94,7.73-6.94,11.92-15.66,12.64-25.96.98-13.52-.1-26.83-4.46-39.76-3.21-9.5-8.05-18.03-15.31-25.03-9.64-9.34-21.14-14.41-34.64-14.41-10.93-.01-20.47,3.8-28.57,11.15-5.33,4.83-9.41,10.62-12.61,17.05-5.61,11.29-8.43,23.36-9.59,35.83-.59,6.29-.93,12.61-1,18.92-.22,22.56-17.48,45.71-45,48.39-25.65,2.51-48.53-14.37-53.75-39.18-.53-2.51-1-5.06-1.05-7.61-.56-31.77,4.2-62.6,16.73-91.95,11.16-26.14,27.7-48.23,50.74-65.12C958.78,8.72,987.48-.21,1019.14,0c45.29.28,93.23,23.21,122.82,66.48,14.4,21.05,23.12,44.34,27.33,69.42,2.75,16.46,3.37,33.02,2.2,49.61Z"/>
        <g>
          <path class="cls-4" d="M483.21,340.4c2.3,0,4.6-.09,6.89.03,1.53.09,2.54,1.78,2.06,3.22-.26.78-.64,1.54-1.06,2.25-3.86,6.46-7.75,12.92-11.63,19.37-.22.36-.45.71-.7,1.04-1.62,2.11-3.5,2.28-5.16.13-5.01-6.45-9.95-12.95-14.77-19.53-1.67-2.28-.45-4.63,2.45-4.87,7.3-.6,14.62-1.03,21.93-1.54,0-.04,0-.08,0-.12Z"/>
          <circle class="cls-4" cx="432.23" cy="281.95" r="32.94"/>
          <circle class="cls-3" cx="415.98" cy="281.95" r="19.55"/>
          <circle class="cls-4" cx="530.81" cy="276.29" r="38.08"/>
          <circle class="cls-3" cx="514.52" cy="276.47" r="22.42"/>
        </g>
      </g>
      <path d="M370.11,505.2c-14,0-31.7-.68-50.71-3.07-63.68-8-110.37-30.42-138.78-66.64-15.15-19.32-11.77-47.26,7.54-62.41,19.32-15.15,47.26-11.77,62.41,7.55,13.05,16.64,41.43,28.46,79.9,33.3,33.08,4.15,61.41,1.62,61.69,1.59,24.44-2.36,46.16,15.53,48.53,39.97,2.36,24.44-15.53,46.16-39.97,48.52-.86.08-12.72,1.19-30.61,1.19Z"/>
    </g>
    <path class="cls-4" d="M471.63,364.03c-2.57-3.32-5.32-6.87-8.07-10.41-1.8-2.32-3.69-4.58-5.36-7-1.7-2.46-.65-4.47,2.4-4.92.58-.08,1.17-.11,1.76-.15,8.6-.56,17.2-1.13,25.81-1.67,1.54-.1,3.2-.47,4.31,1.08,1.31,1.82.19,3.35-.69,4.86-2.77,4.74-5.58,9.45-8.34,14.19-.58,1-1.02,2.08-1.65,3.39,4.31,8.9,11.71,12.88,21.23,12.97,8.1.08,14.79-3.28,19.74-9.85.82-1.09,1.58-2.24,2.53-3.22.93-.95,2.64-.96,3.83-.24,1.33.8,1.95,2.07,1.58,3.49-.33,1.29-.97,2.56-1.73,3.67-10.47,15.5-34,17.98-47.49,5.03-1.26-1.21-2.42-2.54-3.82-4-1.56.67-2.04,2.24-2.92,3.39-7.8,10.17-21.66,13.65-33.26,8.31-3.25-1.5-6.12-3.51-8.31-6.37-1.28-1.67-1.17-3.42.15-4.78,1.2-1.24,2.87-1.51,4.25-.5,1.26.92,2.32,2.1,3.56,3.05,10.61,8.14,26.28,3.05,30.49-10.3Z"/>
  </g>
  <g>
    <g>
      <path class="cls-4" d="M278.44,376.44h0c8.55,3.91,18.64.14,22.55-8.4l4.35-9.51c3.91-8.55.14-18.64-8.4-22.55h0c-8.55-3.91-18.64-.14-22.55,8.4l-4.35,9.51c-3.91,8.55-.14,18.64,8.4,22.55Z"/>
      <path class="cls-4" d="M222.35,460.96c-1.1,3.92-2.43,11.38-2.93,17.64-.25,3.14-2.82,5.96-5.29,5.67-8.66-.99-17.5-8.6-16.75-14.62-.64-33.54,15.39-68.78,30-93.11,4.16-6.92,12.69-9.09,18.04-14.35,5.43-5.34,9.28-12.46,16.69-12.7,3.56-.12,6.69,1.49,8.91,4.29,1.95,2.46,5.16,5.44,4.95,9.92-.16,3.25-1.75,6.8-3.96,9.28-37.17,41.86-45.08,71.67-49.66,87.97Z"/>
      <path class="cls-4" d="M11.2,352.18c79.84,3.22,158.48,13.96,236.02,31.7l33.03-72.26c-62.89-44.84-122.16-97.86-178.42-157.72L11.2,352.18Z"/>
      <path class="cls-7" d="M84.48,266.55c-25.03,54.75-58.12,93.28-73.93,86.06-15.8-7.22-8.32-57.46,16.7-112.22,25.03-54.75,58.12-93.28,73.93-86.06,15.8,7.22,8.32,57.46-16.7,112.22Z"/>
      <path class="cls-6" d="M224.51,381.07l2.97,1.36c23.41,10.7,51.06.4,61.77-23.02h0c10.7-23.41.4-51.07-23.02-61.77l-2.97-1.36-38.75,84.78Z"/>
      <g class="cls-8">
        <path class="cls-5" d="M46.48,249.72c-7.66,16.76-.93,36.26,15.03,43.56,15.96,7.3,35.11-.38,42.77-17.14,7.66-16.76.93-36.26-15.03-43.56-15.96-7.3-35.11.38-42.77,17.14Z"/>
      </g>
      <path class="cls-7" d="M14.77,355.82c-1.85,0-3.58-.36-5.19-1.1-19.23-8.79-7.19-65.52,15.56-115.29,12.19-26.67,26.67-50.4,40.77-66.82,14.91-17.36,27.44-24.41,36.23-20.39,8.79,4.02,11.66,18.1,8.29,40.73-3.18,21.4-11.65,47.88-23.85,74.56h0c-12.19,26.67-26.67,50.4-40.77,66.82-12.18,14.18-22.78,21.49-31.04,21.49ZM97.04,155.79c-6.69,0-16.66,7.1-27.61,19.84-13.83,16.09-28.06,39.44-40.07,65.72C2.83,299.39-1.29,344.65,11.51,350.5c6.44,2.92,17.94-4.24,30.78-19.19,13.83-16.09,28.06-39.44,40.07-65.72h0c12.02-26.29,20.36-52.32,23.48-73.31,2.9-19.5.8-32.89-5.63-35.83-.95-.43-2.01-.65-3.17-.65Z"/>
    </g>
    <path class="cls-1" d="M237.05,303.25c-30.58-23.23-61.16-46.47-91.73-69.7"/>
    <path class="cls-1" d="M134.34,225.3c-3.28-2.63-6.27-5.62-8.9-8.9"/>
    <path class="cls-1" d="M278.19,319.52c7.25,12.03,6.6,28.37-1.6,39.78"/>
    <path class="cls-1" d="M269.14,369.6c-3.2,3.38-7.89,5.3-12.55,5.13"/>
  </g>
  <path class="cls-3" d="M216.91,391.49c.73.6,9.2,8.86,8.2,22.56-1,13.71-25.31,23.86-25.31,23.86l17.12-46.42Z"/>
</svg>