<?xml version="1.0" encoding="UTF-8"?>
<svg xmlns="http://www.w3.org/2000/svg" xmlns:xlink="http://www.w3.org/1999/xlink" viewBox="0 0 828.98 742.15">
  <defs>
    <style>
      .cls-1 {
        opacity: .2;
      }

      .cls-1, .cls-2, .cls-3, .cls-4, .cls-5, .cls-6, .cls-7, .cls-8, .cls-9 {
        fill: #fff;
      }

      .cls-10 {
        fill: #45840f;
      }

      .cls-10, .cls-11, .cls-4, .cls-12, .cls-13, .cls-14, .cls-15, .cls-16, .cls-17, .cls-18, .cls-19 {
        fill-rule: evenodd;
      }

      .cls-2 {
        opacity: .47;
      }

      .cls-20 {
        fill: #8b8b8b;
      }

      .cls-21 {
        fill: #dacfe5;
      }

      .cls-22, .cls-11, .cls-23, .cls-24, .cls-25, .cls-26, .cls-27, .cls-28, .cls-29 {
        mix-blend-mode: multiply;
      }

      .cls-22, .cls-29 {
        opacity: .51;
      }

      .cls-22, .cls-30 {
        fill: #a865af;
      }

      .cls-31 {
        fill: #ddd0e2;
      }

      .cls-32 {
        fill: #fcfcfc;
      }

      .cls-33 {
        fill: #eaa328;
      }

      .cls-34 {
        fill: url(#_åçûìßííûé_ãðàäèåíò_170);
      }

      .cls-35 {
        fill: #7e7e7e;
      }

      .cls-11, .cls-24 {
        fill: #960f0f;
        opacity: .28;
      }

      .cls-36 {
        fill: #d6446a;
      }

      .cls-37 {
        fill: #e1b26a;
      }

      .cls-38 {
        fill: #ec911d;
      }

      .cls-39 {
        opacity: .53;
      }

      .cls-40 {
        fill: #cecece;
      }

      .cls-41 {
        fill: #e2a645;
      }

      .cls-42 {
        fill: #ff90a8;
      }

      .cls-43 {
        fill: #606060;
      }

      .cls-44 {
        fill: #e75f7a;
      }

      .cls-23 {
        fill: #d1a666;
      }

      .cls-23, .cls-27 {
        opacity: .44;
      }

      .cls-12 {
        fill: #3d3d3c;
      }

      .cls-45 {
        fill: #f6c03b;
      }

      .cls-46 {
        fill: #bc8c23;
      }

      .cls-47 {
        fill: #cf92d6;
      }

      .cls-25 {
        fill: #bc446a;
        opacity: .36;
      }

      .cls-48 {
        fill: #f46487;
      }

      .cls-49 {
        fill: #ffd96e;
      }

      .cls-26 {
        fill: #5e9970;
        opacity: .37;
      }

      .cls-50 {
        fill: #d99be0;
      }

      .cls-51 {
        fill: #dc7500;
        opacity: .81;
      }

      .cls-52 {
        clip-path: url(#clippath-1);
      }

      .cls-53 {
        fill: url(#_åçûìßííûé_ãðàäèåíò_174);
      }

      .cls-5, .cls-54 {
        opacity: .38;
      }

      .cls-27 {
        fill: #925990;
      }

      .cls-55 {
        fill: url(#_åçûìßííûé_ãðàäèåíò_169);
      }

      .cls-56 {
        fill: #ffe3b7;
      }

      .cls-56, .cls-6, .cls-57 {
        mix-blend-mode: soft-light;
      }

      .cls-58 {
        isolation: isolate;
      }

      .cls-28 {
        fill: #dd9c33;
      }

      .cls-28, .cls-59 {
        opacity: .39;
      }

      .cls-60 {
        fill: url(#_åçûìßííûé_ãðàäèåíò_172);
      }

      .cls-61 {
        fill: #b276b8;
      }

      .cls-62 {
        fill: #e83d66;
      }

      .cls-63 {
        fill: #878787;
      }

      .cls-6 {
        opacity: .52;
      }

      .cls-64 {
        fill: #ab171a;
      }

      .cls-65 {
        fill: #f6f2f8;
        opacity: .5;
      }

      .cls-66 {
        fill: url(#_åçûìßííûé_ãðàäèåíò_173);
      }

      .cls-67 {
        fill: #f4d390;
      }

      .cls-29 {
        fill: #b7b1ba;
      }

      .cls-68 {
        fill: url(#_åçûìßííûé_ãðàäèåíò_575);
      }

      .cls-13 {
        fill: #ecc861;
      }

      .cls-69 {
        fill: url(#_åçûìßííûé_ãðàäèåíò_635);
      }

      .cls-70 {
        fill: #cc9342;
      }

      .cls-71 {
        fill: url(#_åçûìßííûé_ãðàäèåíò_171);
      }

      .cls-57 {
        fill: #3dffff;
        opacity: .33;
      }

      .cls-72 {
        opacity: .26;
      }

      .cls-73 {
        fill: url(#_åçûìßííûé_ãðàäèåíò_631);
      }

      .cls-7 {
        opacity: .32;
      }

      .cls-74 {
        fill: url(#_åçûìßííûé_ãðàäèåíò_174-2);
      }

      .cls-75 {
        fill: #6ecca6;
      }

      .cls-14 {
        fill: #6a986d;
      }

      .cls-15 {
        fill: url(#_2);
      }

      .cls-8 {
        opacity: .48;
      }

      .cls-16 {
        fill: #cd5b3b;
      }

      .cls-76 {
        fill: url(#_åçûìßííûé_ãðàäèåíò_631-2);
        opacity: .42;
      }

      .cls-17 {
        fill: #731602;
      }

      .cls-77 {
        fill: #eb9300;
        opacity: .89;
      }

      .cls-18 {
        fill: #2f5b29;
      }

      .cls-78 {
        fill: #c6324f;
      }

      .cls-79 {
        fill: #9d9d9d;
      }

      .cls-80 {
        clip-path: url(#clippath);
      }

      .cls-19 {
        fill: #575756;
      }

      .cls-9 {
        opacity: .34;
      }

      .cls-81 {
        fill: #fdfdfd;
      }
    </style>
    <linearGradient id="_2" data-name="2" x1="169.68" y1="66.96" x2="224.13" y2="17.52" gradientUnits="userSpaceOnUse">
      <stop offset="0" stop-color="#b07908"/>
      <stop offset=".11" stop-color="#c79b2e"/>
      <stop offset=".24" stop-color="#dfbd55"/>
      <stop offset=".34" stop-color="#eed36d"/>
      <stop offset=".41" stop-color="#f4db76"/>
      <stop offset=".52" stop-color="#e9cc65"/>
      <stop offset=".75" stop-color="#cea539"/>
      <stop offset=".97" stop-color="#b07908"/>
    </linearGradient>
    <linearGradient id="_åçûìßííûé_ãðàäèåíò_174" data-name="åçûìßííûé ãðàäèåíò 174" x1="565.48" y1="580.14" x2="758.12" y2="691.67" gradientUnits="userSpaceOnUse">
      <stop offset=".4" stop-color="#ff1c30"/>
      <stop offset="1" stop-color="#e30040"/>
    </linearGradient>
    <clipPath id="clippath">
      <polygon class="cls-45" points="742.82 572.79 666.64 557.24 678.49 486.09 758.56 504.45 742.82 572.79"/>
    </clipPath>
    <clipPath id="clippath-1">
      <polygon class="cls-45" points="761.63 505.39 675.1 486.64 677.91 470.21 765.29 488.94 761.63 505.39"/>
    </clipPath>
    <linearGradient id="_åçûìßííûé_ãðàäèåíò_631" data-name="åçûìßííûé ãðàäèåíò 631" x1="711.16" y1="548.9" x2="731.18" y2="583.01" gradientUnits="userSpaceOnUse">
      <stop offset="0" stop-color="#fff"/>
      <stop offset=".78" stop-color="#ebe1ef"/>
    </linearGradient>
    <linearGradient id="_åçûìßííûé_ãðàäèåíò_631-2" data-name="åçûìßííûé ãðàäèåíò 631" x1="680.13" y1="596.73" x2="691.41" y2="596.73" xlink:href="#_åçûìßííûé_ãðàäèåíò_631"/>
    <linearGradient id="_åçûìßííûé_ãðàäèåíò_575" data-name="åçûìßííûé ãðàäèåíò 575" x1="559.87" y1="566.01" x2="780.75" y2="579.21" gradientUnits="userSpaceOnUse">
      <stop offset="0" stop-color="#ebe1ef"/>
      <stop offset=".09" stop-color="#f4eff6"/>
      <stop offset=".2" stop-color="#fbfafc"/>
      <stop offset=".32" stop-color="#fefefe"/>
      <stop offset=".63" stop-color="#f7f3f8"/>
      <stop offset="1" stop-color="#ebe1ef"/>
    </linearGradient>
    <radialGradient id="_åçûìßííûé_ãðàäèåíò_635" data-name="åçûìßííûé ãðàäèåíò 635" cx="729.06" cy="569.06" fx="729.06" fy="569.06" r="19.19" gradientUnits="userSpaceOnUse">
      <stop offset="0" stop-color="#ebe1ef"/>
      <stop offset=".2" stop-color="#efe7f2"/>
      <stop offset="1" stop-color="#fefefe"/>
    </radialGradient>
    <linearGradient id="_åçûìßííûé_ãðàäèåíò_174-2" data-name="åçûìßííûé ãðàäèåíò 174" x1="-1607.72" y1="2028.32" x2="-1533" y2="2007.65" gradientTransform="translate(1305.39 -2026.4) rotate(-16.57)" xlink:href="#_åçûìßííûé_ãðàäèåíò_174"/>
    <linearGradient id="_åçûìßííûé_ãðàäèåíò_173" data-name="åçûìßííûé ãðàäèåíò 173" x1="-1623.71" y1="1899.5" x2="-1582.98" y2="1928.28" gradientTransform="translate(1305.39 -2026.4) rotate(-16.57)" gradientUnits="userSpaceOnUse">
      <stop offset="0" stop-color="#f1edf5"/>
      <stop offset="1" stop-color="#dacfe5"/>
    </linearGradient>
    <radialGradient id="_åçûìßííûé_ãðàäèåíò_172" data-name="åçûìßííûé ãðàäèåíò 172" cx="-1891.04" cy="2447.9" fx="-1891.04" fy="2447.9" r="83.17" gradientTransform="translate(1546.75 -2317.33) rotate(-16.39) scale(1.04 .96) skewX(.34)" gradientUnits="userSpaceOnUse">
      <stop offset=".23" stop-color="#fffeff"/>
      <stop offset="1" stop-color="#ebe1ef"/>
    </radialGradient>
    <linearGradient id="_åçûìßííûé_ãðàäèåíò_171" data-name="åçûìßííûé ãðàäèåíò 171" x1="-1576.63" y1="2063.95" x2="-1595.28" y2="2120.37" gradientTransform="translate(1305.39 -2026.4) rotate(-16.57)" gradientUnits="userSpaceOnUse">
      <stop offset="0" stop-color="#ff9ba2"/>
      <stop offset=".3" stop-color="#f09eab"/>
      <stop offset=".86" stop-color="#caa6c3"/>
      <stop offset=".99" stop-color="#c1a9ca"/>
    </linearGradient>
    <linearGradient id="_åçûìßííûé_ãðàäèåíò_170" data-name="åçûìßííûé ãðàäèåíò 170" x1="-1613.22" y1="1886.34" x2="-1589.16" y2="1969.74" gradientTransform="translate(1305.39 -2026.4) rotate(-16.57)" gradientUnits="userSpaceOnUse">
      <stop offset="0" stop-color="#fff"/>
      <stop offset="1" stop-color="#ebe1ef"/>
    </linearGradient>
    <linearGradient id="_åçûìßííûé_ãðàäèåíò_169" data-name="åçûìßííûé ãðàäèåíò 169" x1="-1631.77" y1="1914.54" x2="-1582.08" y2="1921.82" gradientTransform="translate(1305.39 -2026.4) rotate(-16.57)" gradientUnits="userSpaceOnUse">
      <stop offset="0" stop-color="#ffb1b5"/>
      <stop offset=".63" stop-color="#cea3bd"/>
      <stop offset=".99" stop-color="#b89dc2"/>
    </linearGradient>
  </defs>
  <g class="cls-58">
    <g id="Layer_1" data-name="Layer 1">
      <g>
        <g>
          <polygon class="cls-17" points="202.96 524.43 175.51 524.43 169.32 524.43 136.57 677.56 241.91 677.56 209.15 524.43 202.96 524.43"/>
          <g>
            <g>
              <g>
                <path class="cls-10" d="M195.4,42.65c-2.13,1.14-.96,8.28-8.43,28.52-8.09,21.94-30.88,52.11-39.74,62.07-8.86,9.96,9.38,5.41,12.83,4.83,3.45-.58-48.78,41.35-48.04,53.76.74,12.41,45.41-25.43,44.49-19.12-.91,6.32-35.87,34.26-37.02,43.54-1.15,9.28,4.46,8.44,4.46,8.44,0,0-51.69,56.88-51.85,64.53-.17,7.65,16.51-4.25,18.85-1.52s-11.21,18.29.28,18.33c11.5.04,17.72-8.84,2.43,18.07-6.36,11.2-14.22,19.04-18.12,26.35-3.65,6.83,8.31,8.06,15.24,5.36,16.96-6.61-54.88,70.54-55.71,81.27-.72,9.31,19.86,1.97,29.21-3.27,9.35-5.24-31.93,32.87-29.83,44.1,2.11,11.24,22.82,2.2,22.82,2.2,0,0-56.63,47.82-57.22,56.88-1.3,19.72,24.58,34.31,63.19,43.87,8.87,2.19,16.17,8.23,26.21,9.9,98.29,16.3,246.46,3.14,275.7-30.13,8.41-9.57-33.93-43.91-33.93-43.91,0,0,.36.88,10.97,1.28,10.61.4-33.08-51.12-33.08-51.12,0,0,19.3,9.16,18.92-2.36-.38-11.53-35.72-50.04-35.72-50.04,0,0,16.5,12.35,30.95,18.16,14.45,5.81,11.86-4.61-1.96-29.54-13.82-24.92-26.01-48.86-26.01-48.86,0,0,29.81,16.37,22.18-.41-7.64-16.78-51.73-63.21-51.73-63.21,0,0,16.44,13.2,32.52,14.45,16.09,1.25-23.89-54.23-23.89-54.23,0,0,24.78,4.48,8.38-20.21-16.39-24.69-45.87-61.9-29.4-49.13,16.47,12.78,40.53,9.96,22.47-4.22-18.06-14.18-41.3-38.55-29.03-32.06,12.27,6.49,23.41.11,14.63-7.38-8.79-7.5-44.67-49.89-52.5-75.19-7.07-22.83-10.96-23.93-13.53-20Z"/>
                <path class="cls-15" d="M191.45,17.17c-.44,1.27-.87,2.55-1.3,3.83-8.76,1.28-16.79,2.62-22.23,3.68-17.61,3.16-9.4,7.02,3.55,12.05,4.32,1.68,7.31,1.41,11.44,2.83-11.61,34.81-6.64,34.94,1.51,27.55,4.99-4.53,11.69-13.41,15-14.42,4.88-1.48,7.88,1.57,20.48,10.85,11.44,8.42,6.12-7.67-.96-26.79,10.31-6.18,21.8-14.21,22.69-18.76.48-2.45-13.72-1.65-30.34.24-.88-1.9-1.75-3.72-2.6-5.41-10.9-21.68-11.26-12.9-17.23,4.34Z"/>
                <path class="cls-16" d="M166.28,108.78c-2.69-1.64-3.54-5.16-1.9-7.85,1.64-2.69,5.16-3.54,7.85-1.9,8.9,5.45,18.22,7.57,27.13,7.59,11.42.03,22.25-3.35,30.77-7.65,2.81-1.42,6.25-.29,7.67,2.53,1.42,2.82.29,6.25-2.53,7.67-9.86,4.98-22.48,8.89-35.91,8.85-10.87-.03-22.23-2.62-33.07-9.25Z"/>
                <path class="cls-16" d="M126.69,205.08c-2.28-2.17-2.37-5.79-.2-8.07,2.17-2.28,5.79-2.37,8.07-.2,22.95,21.89,46.73,36.47,67.67,41.89,9.48,2.45,18.33,2.99,26.18,1.43,7.53-1.5,14.15-4.98,19.52-10.61,5.5-5.77,9.78-13.83,12.51-24.38.79-3.05,3.9-4.88,6.95-4.09,3.05.79,4.88,3.9,4.09,6.95-3.24,12.52-8.48,22.25-15.29,29.38-7.08,7.43-15.77,12.01-25.6,13.96-9.51,1.89-20.06,1.28-31.23-1.61-22.79-5.9-48.33-21.45-72.68-44.66Z"/>
                <path class="cls-16" d="M91.82,326.11c-2.56-1.84-3.14-5.4-1.3-7.96,1.84-2.56,5.4-3.14,7.96-1.3,5.71,4.1,11.44,7.76,17.18,11.01,37.52,21.23,74.1,23.96,103.66,18.08,29.21-5.81,51.32-19.83,60.45-32.54.66-.92,1.26-1.85,1.79-2.79,1.56-2.74,5.04-3.7,7.78-2.15,2.74,1.56,3.7,5.04,2.15,7.78-.7,1.24-1.52,2.51-2.46,3.82-10.54,14.67-35.32,30.7-67.52,37.1-31.85,6.33-71.21,3.42-111.49-19.38-6.03-3.41-12.11-7.29-18.21-11.68Z"/>
                <path class="cls-16" d="M66.04,394.28c-2.43-2-2.78-5.6-.78-8.03,2-2.43,5.59-2.78,8.02-.78,45.08,36.99,86.91,59.02,126.05,66.52,38.64,7.4,74.8.57,109.05-20.07,2.7-1.63,6.22-.76,7.85,1.94,1.63,2.7.76,6.22-1.94,7.85-36.74,22.14-75.57,29.46-117.1,21.5-41.02-7.86-84.53-30.69-131.15-68.93Z"/>
                <path class="cls-18" d="M123.04,222.93c15.42,4.1,23.71-10.24,16.9,12.48-5.91,19.72,21.46,2.01,23.85,3.45,1.65,8.34-4.4,14.42,8.57,13.42l-.12.04c1.88-.49.91-.34,2.91-.42-6.2,6.25-15.19,4.11-15.46-6.74-3.25,2.24-6.53,4.45-10.49,5.21-18.22,3.47-17.36-7.95-15.39-18.43-4.37,1.07-7.85.54-14.25-.88-2.24-.96-3.28-3.56-2.31-5.8.96-2.24,3.56-3.28,5.8-2.31h0ZM139.84,229.77c.37-.11.75-.27,1.11-.49-.38.17-.75.34-1.11.49Z"/>
                <path class="cls-18" d="M261.58,185.28c-14-4.13-13.64-19.27-19.13,1.71-4.77,18.22-17.72-8.64-20.27-8.65-5.26,5.73-3.42,13.35-13.08,6.4l.07.09c-1.23-1.27-.55-.7-2.07-1.71,1.87,7.83,9.91,10.44,15.28,2.09,1.47,3.3,2.98,6.58,5.71,9.06,12.58,11.38,17.34,2.05,20.79-7.08,2.9,2.92,5.87,4.15,11.55,6.09,2.21.31,4.25-1.22,4.57-3.43.31-2.21-1.22-4.25-3.43-4.57h0ZM245.21,182.63c-.24-.26-.46-.57-.63-.92.22.32.43.62.63.92Z"/>
                <path class="cls-18" d="M307.12,423.19c-20.28-11.42-17.53-31.59-25.73-.28-7.11,27.19-26.44-12.89-30.25-12.91-7.84,8.56-5.11,19.92-19.51,9.56l.11.13c-1.84-1.9-.82-1.04-3.08-2.56,2.8,11.69,14.79,15.57,22.81,3.12,2.2,4.92,4.45,9.83,8.53,13.52,18.77,16.98,25.87,3.06,31.02-10.56,4.33,4.35,8.76,6.2,17.24,9.09,3.3.47,11.39,1.82,11.86-1.48.47-3.29-9.49-5.54-12.99-7.62Z"/>
                <path class="cls-18" d="M57.52,475.68c20.28-11.42,17.53-31.59,25.73-.28,7.11,27.18,26.44-12.89,30.25-12.91,7.84,8.56,5.11,19.92,19.51,9.56l-.11.13c1.84-1.9.82-1.04,3.08-2.56-2.8,11.69-14.79,15.57-22.81,3.12-2.2,4.92-4.45,9.83-8.53,13.52-18.77,16.98-25.87,3.05-31.02-10.56-4.33,4.35-8.76,6.2-17.24,9.09-3.29.47-11.39,1.81-11.86-1.48-.47-3.29,9.49-5.53,12.99-7.62Z"/>
                <path class="cls-18" d="M111.33,300.59c15.71-8.85,13.58-24.47,19.93-.22,5.51,21.06,20.48-9.98,23.44-10,6.08,6.63,3.96,15.44,15.12,7.4l-.08.1c1.43-1.47.63-.81,2.39-1.98-2.17,9.05-11.46,12.07-17.67,2.41-1.7,3.81-3.45,7.61-6.61,10.47-14.54,13.15-20.04,2.37-24.03-8.18-3.36,3.37-6.79,4.8-13.36,7.04-2.55.36-8.83,1.41-9.19-1.15-.36-2.55,7.35-4.29,10.06-5.9Z"/>
                <path class="cls-18" d="M323.05,508.69c-25.34-14.27-21.91-39.47-32.15-.35-8.89,33.97-33.04-16.11-37.8-16.14-9.8,10.69-6.38,24.9-24.39,11.94l.13.16c-2.3-2.38-1.02-1.3-3.86-3.2,3.5,14.6,18.48,19.46,28.5,3.89,2.74,6.15,5.56,12.28,10.65,16.89,23.45,21.22,32.33,3.82,38.76-13.2,5.41,5.44,10.95,7.75,21.54,11.36,4.12.59,14.24,2.27,14.82-1.85.59-4.12-11.86-6.92-16.23-9.52Z"/>
                <path class="cls-16" d="M24.68,507.58c-1.65-2.68-.82-6.19,1.86-7.85,2.68-1.65,6.19-.83,7.85,1.86,4.19,6.8,9.12,12.74,14.67,17.89,29.76,27.64,77.53,32.52,125.3,26,48.46-6.61,96.66-24.91,126.49-43.29,9.47-5.83,17-11.63,21.98-16.98,2.15-2.31,5.76-2.44,8.07-.29,2.31,2.15,2.44,5.76.29,8.07-5.64,6.07-13.98,12.52-24.35,18.91-30.98,19.08-80.9,38.07-130.96,44.9-50.77,6.92-101.92,1.38-134.6-28.96-6.26-5.81-11.83-12.54-16.59-20.26Z"/>
                <path class="cls-18" d="M155.43,137.34c9.84-2.91,9.59-13.55,13.45,1.2,3.35,12.8,12.45-6.07,14.25-6.08,3.69,4.03,2.41,9.38,9.19,4.5l-.05.06c.87-.9.39-.49,1.45-1.2-1.32,5.5-6.97,7.33-10.74,1.47-1.04,2.32-2.1,4.63-4.02,6.37-8.84,8-12.19,1.44-14.61-4.97-2.04,2.05-4.13,2.92-8.12,4.28-1.55.22-2.99-.86-3.21-2.41-.22-1.55.86-2.99,2.41-3.21Z"/>
                <path class="cls-12" d="M89.63,329.73c-.79-.06-1.37-.75-1.31-1.54.06-.79.75-1.37,1.54-1.31,16.57,1.32,24.9,9.68,32.81,17.63,1.96,1.97,3.9,3.92,5.98,5.74,5.13,4.52,11.45,8.07,18.49,9.97,6.4,1.73,13.4,2.1,20.66.61,4.48-.92,9.1-3.42,14.3-6.24,12.62-6.84,28.5-15.45,55.36-9.1,17.24,4.08,30.58,4.03,40.46,1.17,11.09-3.21,17.78-9.99,20.66-18.41.25-.75,1.06-1.15,1.81-.89.75.25,1.15,1.06.89,1.81-3.17,9.28-10.48,16.73-22.57,20.23-10.33,2.99-24.16,3.07-41.9-1.12-25.81-6.1-41.15,2.21-53.35,8.83-5.38,2.91-10.17,5.51-15.09,6.52-7.73,1.59-15.17,1.19-21.97-.64-7.49-2.02-14.2-5.79-19.64-10.58-2.07-1.82-4.08-3.84-6.11-5.88-7.55-7.57-15.49-15.55-31.01-16.79Z"/>
                <g>
                  <path class="cls-19" d="M120.34,346.13c2.15,1.08,3.12,3.5,2.16,5.41-.96,1.91-3.48,2.58-5.63,1.5-2.15-1.08-3.12-3.5-2.16-5.41.96-1.91,3.48-2.58,5.63-1.5Z"/>
                  <path class="cls-16" d="M118.65,349.5c2.02,1.01,4.07,7.8,1.22,13.47-2.85,5.67-10.18,7.75-11.53,7.08-1.35-.68-4.07-7.8-1.22-13.48,2.85-5.67,9.51-8.09,11.53-7.07Z"/>
                  <path class="cls-4" d="M115.07,352.39c.09-.19.32-.27.51-.18.19.09.27.32.18.51-.74,1.55-1.75,2.96-2.76,4.07.76.19,1.5.51,2.13.95.14.1.26.2.39.31.04-.99.19-1.96.47-2.7.89-2.33.9-2.38.9-2.38.09-.19.32-.26.51-.17.19.09.26.32.17.51,0,0,.01,0-.87,2.31-.32.84-.45,2.03-.43,3.17.53.61.93,1.27,1.17,1.86.17.41.26.78.28,1.1.02.39-.08.71-.3.9-.12.1-.27.17-.45.18-.1,0-.2,0-.3-.04h-.03c-.33-.16-.59-.58-.77-1.17-.16-.53-.28-1.21-.33-1.95-.01-.19-.02-.38-.03-.58-.25-.26-.53-.51-.83-.72-.67-.48-1.5-.79-2.31-.93-.5.5-.99.91-1.43,1.22-.42.29-.79.49-1.1.58h-.02c-.42.13-.75.07-.97-.18-.14-.16-.21-.38-.19-.67.02-.32.12-.6.29-.84.26-.37.68-.63,1.19-.78.47-.14,1.03-.2,1.62-.16l.34.03c1.06-1.1,2.16-2.58,2.96-4.24h0ZM110.52,358.04c.26-.19.55-.41.84-.67-.36,0-.7.05-.99.14-.35.11-.63.27-.79.49-.09.12-.14.27-.15.44,0,.07,0,.12,0,.13.01,0,.07-.01.18-.04h.02c.24-.08.54-.24.89-.48h0ZM116.74,360.94c-.1-.24-.22-.49-.38-.74.06.45.14.86.24,1.19.11.37.23.61.33.67.03-.04.04-.13.03-.27-.01-.23-.09-.52-.22-.85Z"/>
                </g>
                <g>
                  <path class="cls-19" d="M154.65,358.61c2.34.56,3.84,2.7,3.34,4.78-.5,2.07-2.8,3.3-5.14,2.74-2.34-.56-3.84-2.7-3.34-4.77.5-2.08,2.8-3.3,5.14-2.74Z"/>
                  <path class="cls-13" d="M153.78,362.27c2.19.53,5.74,6.67,4.26,12.84-1.48,6.17-8.15,9.87-9.62,9.52-1.47-.35-5.74-6.67-4.26-12.84,1.48-6.17,7.42-10.04,9.62-9.52Z"/>
                  <path class="cls-4" d="M150.95,365.91c.04-.21.25-.33.46-.29.2.04.33.25.29.45-.37,1.68-1.03,3.29-1.76,4.6.78,0,1.58.15,2.29.44.16.06.3.13.45.21-.19-.97-.26-1.95-.16-2.74.33-2.47.33-2.53.33-2.53.05-.2.25-.33.46-.28.21.05.33.25.28.46,0,0,.01,0-.32,2.45-.12.89.03,2.08.3,3.19.66.47,1.2,1.03,1.57,1.55.25.36.43.7.52,1,.11.38.09.71-.09.95-.1.13-.23.22-.39.28-.1.03-.2.04-.3.02h-.03c-.36-.07-.71-.42-1.02-.96-.28-.48-.55-1.12-.77-1.82-.06-.18-.11-.36-.16-.55-.3-.19-.63-.37-.97-.51-.76-.31-1.64-.43-2.46-.38-.38.6-.76,1.11-1.11,1.51-.34.38-.66.66-.94.82h-.02c-.38.22-.72.25-.99.05-.17-.13-.29-.33-.34-.61-.06-.32-.02-.61.09-.88.17-.42.52-.76.98-1.03.43-.25.96-.43,1.54-.53l.34-.05c.78-1.31,1.52-3.01,1.91-4.81h0ZM147.8,372.44c.21-.24.44-.52.67-.85-.35.09-.67.21-.93.36-.32.18-.55.41-.66.66-.06.14-.07.29-.05.46.01.07.02.12.04.13,0,0,.07-.03.16-.09h.01c.21-.13.47-.36.75-.68h0ZM154.53,373.85c-.15-.21-.33-.42-.53-.63.16.43.33.81.51,1.1.19.33.36.55.47.58.02-.04,0-.14-.03-.27-.06-.22-.21-.49-.41-.78Z"/>
                </g>
                <g>
                  <path class="cls-19" d="M187.74,354.63c2.31-.68,4.67.43,5.27,2.48.6,2.05-.78,4.26-3.09,4.94-2.31.68-4.67-.43-5.27-2.48-.6-2.05.79-4.26,3.1-4.94Z"/>
                  <path class="cls-16" d="M188.8,358.24c2.16-.63,8.29,2.93,10.08,9.02,1.79,6.09-2.15,12.61-3.61,13.04-1.45.43-8.29-2.93-10.08-9.02-1.79-6.09,1.44-12.4,3.61-13.04Z"/>
                  <path class="cls-4" d="M188.16,362.81c-.06-.2.05-.42.25-.48.2-.06.41.05.48.25.52,1.64.74,3.36.76,4.86.68-.38,1.45-.65,2.21-.75.16-.02.33-.04.49-.04-.64-.75-1.2-1.56-1.5-2.3-.94-2.31-.97-2.36-.97-2.36-.06-.2.06-.41.26-.47.2-.06.41.06.47.26,0,0,0-.01.94,2.28.34.83,1.05,1.79,1.85,2.61.81.08,1.55.3,2.13.56.4.18.73.4.95.61.28.27.43.57.39.86-.02.16-.08.31-.2.43-.07.08-.15.13-.25.17h-.03c-.34.13-.82,0-1.36-.31-.48-.28-1.03-.7-1.57-1.2-.14-.13-.28-.26-.42-.4-.36-.02-.73,0-1.1.04-.81.11-1.63.44-2.32.9-.03.71-.1,1.34-.21,1.86-.11.5-.24.9-.41,1.18v.02c-.23.37-.52.56-.85.52-.21-.02-.41-.14-.6-.36-.21-.25-.32-.52-.36-.81-.06-.45.07-.92.34-1.38.25-.43.62-.85,1.08-1.22l.27-.21c.02-1.53-.18-3.37-.73-5.12h0ZM188.68,370.03c.07-.31.12-.67.16-1.06-.26.25-.48.51-.63.78-.19.32-.28.63-.24.9.02.15.08.29.19.42.05.06.08.09.09.09,0,0,.04-.06.1-.15h0c.12-.23.23-.56.32-.97h0ZM195.22,367.92c-.23-.11-.49-.2-.78-.28.35.29.69.53.99.71.33.19.59.3.7.27,0-.05-.06-.12-.16-.22-.17-.16-.42-.32-.74-.47Z"/>
                </g>
                <g>
                  <path class="cls-19" d="M224.8,343.35c2.37-.4,4.59.97,4.95,3.08.36,2.1-1.28,4.14-3.65,4.54-2.37.4-4.59-.98-4.95-3.08-.36-2.11,1.27-4.14,3.65-4.54Z"/>
                  <path class="cls-13" d="M225.43,347.06c2.22-.38,7.9,3.88,8.96,10.14,1.07,6.26-3.61,12.27-5.1,12.53-1.49.25-7.9-3.88-8.96-10.14-1.07-6.26,2.88-12.15,5.1-12.53Z"/>
                  <path class="cls-4" d="M224.26,351.52c-.04-.21.1-.41.3-.45.21-.04.41.1.45.3.32,1.69.34,3.43.19,4.92.72-.3,1.51-.48,2.28-.49.16,0,.33,0,.5.01-.55-.82-1.01-1.69-1.22-2.46-.67-2.4-.69-2.45-.69-2.45-.04-.21.1-.4.31-.44.21-.04.4.1.44.31,0,0,.01-.01.67,2.38.24.87.84,1.9,1.53,2.81.79.18,1.5.47,2.05.81.37.23.68.48.88.72.25.3.36.61.29.9-.04.15-.12.29-.25.41-.08.07-.17.11-.27.14h-.03c-.35.09-.81-.1-1.31-.47-.44-.33-.94-.81-1.42-1.37-.12-.14-.24-.29-.36-.44-.36-.06-.73-.1-1.1-.09-.82.01-1.67.25-2.41.62-.11.7-.26,1.32-.43,1.82-.16.48-.35.87-.54,1.13h-.01c-.26.36-.57.51-.89.44-.21-.05-.39-.19-.55-.43-.17-.27-.26-.55-.26-.85,0-.45.18-.91.5-1.33.29-.39.71-.77,1.21-1.09l.29-.18c.2-1.51.21-3.36-.13-5.17h0ZM223.93,358.76c.1-.3.2-.65.28-1.04-.29.22-.53.46-.71.7-.22.29-.35.59-.34.86,0,.15.05.3.14.44.04.06.07.1.08.1,0,0,.05-.05.12-.14h0c.15-.21.3-.52.43-.93h0ZM230.67,357.42c-.22-.13-.47-.26-.74-.37.31.33.62.61.9.82.31.23.55.36.66.35,0-.05-.05-.13-.14-.24-.15-.18-.38-.37-.68-.55Z"/>
                </g>
                <g>
                  <path class="cls-19" d="M266.51,349.69c2.05-1.26,4.62-.81,5.74,1.01,1.12,1.82.36,4.31-1.69,5.57-2.05,1.26-4.62.81-5.74-1.01-1.12-1.82-.36-4.31,1.69-5.57Z"/>
                  <path class="cls-16" d="M268.48,352.9c1.92-1.18,8.77.65,12.09,6.06,3.32,5.41,1.22,12.74-.06,13.53-1.29.79-8.77-.65-12.1-6.06-3.32-5.41-1.86-12.35.07-13.53Z"/>
                  <path class="cls-4" d="M269.06,357.47c-.11-.18-.06-.41.11-.53.18-.11.41-.06.53.11.93,1.45,1.6,3.05,2.01,4.49.56-.54,1.22-1.01,1.93-1.31.15-.06.31-.12.46-.17-.82-.55-1.57-1.19-2.05-1.82-1.51-1.98-1.55-2.02-1.55-2.02-.11-.18-.05-.41.12-.52.18-.11.41-.06.52.12,0,0,0-.01,1.51,1.96.55.72,1.49,1.45,2.47,2.04.8-.13,1.57-.12,2.2-.02.43.07.8.19,1.08.34.34.19.56.44.61.73.02.16,0,.31-.08.47-.05.09-.11.17-.19.23l-.02.02c-.3.2-.79.2-1.39.04-.53-.14-1.17-.4-1.83-.74-.17-.09-.33-.18-.51-.28-.35.08-.7.18-1.05.32-.76.32-1.46.86-2,1.47.16.69.25,1.32.28,1.85.03.51,0,.93-.08,1.25v.02c-.12.41-.35.67-.68.73-.21.03-.43-.03-.67-.19-.26-.18-.45-.42-.56-.69-.17-.41-.17-.91-.04-1.42.13-.48.38-.98.72-1.47l.2-.27c-.38-1.48-1.05-3.2-2.05-4.75h0ZM271.46,364.31c-.02-.32-.06-.68-.13-1.07-.19.31-.32.62-.4.92-.1.36-.1.68,0,.93.06.14.16.26.29.36.06.04.1.06.11.06,0,0,.03-.07.06-.17v-.02c.07-.24.09-.58.06-1.01h0ZM277.21,360.56c-.25-.04-.53-.07-.83-.07.42.19.81.33,1.14.42.37.1.64.14.74.08-.01-.04-.09-.1-.22-.17-.2-.11-.49-.2-.84-.26Z"/>
                </g>
                <g>
                  <path class="cls-4" d="M183.57,151.04c-.11-2.22.2-4.22.77-5.6.31-.75.71-1.35,1.18-1.75.58-.49,1.25-.69,1.99-.52.48.11.95.37,1.42.81,1.8,1.72.18,4.24-1.55,6.05-.56.58-1.11,1.09-1.54,1.44-.76.63-1.57.78-1.88.55-.36-.28-.5-.61-.38-.98h0ZM185.13,149.59c1.3-.5,2.12-1.28,2.61-2.26.82-1.65.45-3.64-1.09-2.34-1.29,1.09-1.42,2.89-1.52,4.6Z"/>
                  <path class="cls-19" d="M183.91,159.29c2.61,0,4.74-2.13,4.74-4.74s-2.13-4.74-4.74-4.74-4.74,2.13-4.74,4.74,2.13,4.74,4.74,4.74Z"/>
                  <path class="cls-13" d="M180.98,189.98c9.79,0,17.77-7.98,17.77-17.77s-7.98-17.77-17.77-17.77-17.77,7.98-17.77,17.77,7.98,17.77,17.77,17.77Z"/>
                  <path class="cls-16" d="M181.02,154.44c-3.41,4.35-5.76,9.95-7.21,15.81-1.44,5.83-1.99,11.88-1.83,17.27-2.24-1.32-4.17-3.12-5.65-5.26.21-4.37.84-8.94,1.93-13.37,1.09-4.41,2.65-8.7,4.74-12.57,2.4-1.21,5.1-1.89,7.97-1.89h.04ZM175.15,189c1.8.62,3.73.97,5.74.98-.23-5.55.31-11.85,1.81-17.9,1.41-5.69,3.65-11.12,6.9-15.41-1.72-.95-3.61-1.63-5.61-1.97-3.17,4.68-5.4,10.25-6.83,16.02-1.51,6.12-2.12,12.51-2,18.29h0ZM184.02,189.72c.06-5.14.69-10.66,2.01-15.98,1.34-5.43,3.4-10.7,6.29-15.2,1.54,1.28,2.87,2.83,3.91,4.56-2.07,3.61-3.6,7.74-4.66,12.01-1.03,4.17-1.61,8.46-1.79,12.54-1.75,1-3.7,1.72-5.76,2.07Z"/>
                </g>
                <g>
                  <path class="cls-4" d="M145.93,264.43c-.22-1.79-.74-3.35-1.39-4.38-.35-.56-.75-.98-1.18-1.24-.54-.32-1.1-.38-1.67-.15-.37.15-.71.43-1.02.85-1.21,1.62.44,3.42,2.07,4.63.53.39,1.04.72,1.43.94.69.4,1.37.41,1.58.18.25-.27.32-.56.17-.84h0ZM144.49,263.48c-1.12-.23-1.88-.73-2.4-1.45-.89-1.21-.86-2.85.55-2.02,1.19.7,1.53,2.12,1.85,3.47Z"/>
                  <path class="cls-19" d="M146.42,262.57c2.1-.36,4.09,1.05,4.45,3.15.36,2.1-1.05,4.09-3.15,4.45-2.1.36-4.09-1.05-4.45-3.15-.36-2.1,1.05-4.09,3.15-4.45Z"/>
                  <g>
                    <path class="cls-13" d="M155.95,298.2c9.79,0,17.77-7.98,17.77-17.77s-7.98-17.77-17.77-17.77-17.77,7.98-17.77,17.77,7.98,17.77,17.77,17.77Z"/>
                    <path class="cls-16" d="M145.61,265.98c8.95,2.51,17.9,3.89,25.15,4.65,1.19,1.79,2.06,3.8,2.53,5.97-8.72-.77-20.58-2.42-32.16-5.97,1.2-1.8,2.72-3.38,4.48-4.64h0ZM139.42,273.9c-.69,1.74-1.11,3.63-1.21,5.59,13.35,3.76,26.74,5.1,34.9,5.57.4-1.48.61-3.03.61-4.63,0-.35-.01-.7-.03-1.04-7.9-.45-21.12-1.74-34.26-5.49h0ZM138.49,283.75c12.77,3.49,25.46,4.71,33.08,5.13-1.13,2.09-2.67,3.93-4.51,5.41-6.94-.55-16.23-1.67-25.87-3.96-1.31-1.95-2.25-4.18-2.7-6.58Z"/>
                  </g>
                </g>
                <g>
                  <path class="cls-4" d="M208.53,402.06c-.24-1.94-.8-3.62-1.5-4.73-.38-.6-.81-1.06-1.28-1.33-.58-.34-1.19-.41-1.8-.16-.4.16-.77.46-1.1.91-1.3,1.75.48,3.69,2.24,5,.57.42,1.13.78,1.54,1.02.75.43,1.48.44,1.71.19.27-.29.34-.6.19-.9h0ZM206.97,401.04c-1.2-.24-2.03-.79-2.59-1.57-.96-1.31-.93-3.08.6-2.18,1.28.75,1.65,2.29,1.99,3.75Z"/>
                  <path class="cls-19" d="M209.05,400.06c2.26-.39,4.42,1.13,4.81,3.4.39,2.27-1.13,4.42-3.4,4.81-2.27.39-4.42-1.14-4.81-3.4-.39-2.27,1.13-4.42,3.4-4.81Z"/>
                  <g>
                    <path class="cls-13" d="M218.94,436.3c9.79,0,17.77-7.98,17.77-17.77s-7.98-17.77-17.77-17.77-17.77,7.98-17.77,17.77,7.98,17.77,17.77,17.77Z"/>
                    <path class="cls-16" d="M208.61,404.08c8.95,2.51,17.9,3.89,25.15,4.65,1.19,1.79,2.06,3.8,2.53,5.97-8.72-.77-20.58-2.42-32.16-5.97,1.2-1.8,2.72-3.38,4.48-4.64h0ZM202.41,412c-.69,1.74-1.11,3.62-1.22,5.59,13.35,3.76,26.74,5.1,34.9,5.57.4-1.48.61-3.03.61-4.63,0-.35-.01-.7-.03-1.04-7.9-.44-21.12-1.74-34.26-5.49h0ZM201.48,421.85c12.77,3.49,25.46,4.71,33.09,5.14-1.13,2.09-2.67,3.93-4.51,5.4-6.94-.55-16.23-1.67-25.87-3.96-1.31-1.95-2.25-4.18-2.7-6.58Z"/>
                  </g>
                </g>
                <g>
                  <path class="cls-4" d="M98.52,415.8c.24-1.94.8-3.62,1.5-4.73.38-.6.81-1.06,1.28-1.33.58-.34,1.19-.41,1.8-.16.39.16.77.46,1.1.91,1.3,1.75-.47,3.69-2.24,5-.57.42-1.12.78-1.54,1.02-.75.44-1.48.44-1.71.2-.27-.29-.34-.6-.19-.9h0ZM100.08,414.77c1.2-.24,2.03-.79,2.59-1.57.96-1.31.93-3.08-.59-2.18-1.28.75-1.66,2.29-2,3.75Z"/>
                  <path class="cls-19" d="M97.99,413.79c-2.27-.39-4.42,1.13-4.81,3.4-.39,2.27,1.14,4.42,3.4,4.81,2.26.39,4.42-1.14,4.8-3.4.39-2.27-1.13-4.42-3.4-4.81Z"/>
                  <g>
                    <path class="cls-13" d="M88.11,450.03c9.79,0,17.77-7.98,17.77-17.77s-7.98-17.77-17.77-17.77-17.77,7.98-17.77,17.77,7.98,17.77,17.77,17.77Z"/>
                    <path class="cls-16" d="M98.44,417.81c-8.95,2.51-17.9,3.89-25.15,4.65-1.19,1.79-2.06,3.8-2.53,5.97,8.72-.77,20.58-2.42,32.16-5.97-1.2-1.81-2.72-3.38-4.48-4.64h0ZM104.63,425.73c.69,1.74,1.11,3.62,1.21,5.59-13.35,3.76-26.74,5.1-34.9,5.57-.4-1.48-.61-3.03-.61-4.63,0-.35.01-.7.03-1.04,7.9-.45,21.12-1.74,34.26-5.49h0ZM105.56,435.58c-12.77,3.49-25.46,4.71-33.09,5.13,1.13,2.09,2.67,3.93,4.51,5.41,6.94-.55,16.23-1.67,25.87-3.96,1.31-1.95,2.25-4.18,2.7-6.58Z"/>
                  </g>
                </g>
                <g>
                  <path class="cls-4" d="M248.55,254.34c1.16-1.38,1.95-2.83,2.26-4,.17-.64.21-1.22.1-1.71-.14-.61-.47-1.06-1.03-1.32-.36-.17-.8-.23-1.32-.17-2.01.22-2.2,2.65-1.97,4.68.07.65.19,1.25.28,1.69.18.78.64,1.28.95,1.28.37,0,.62-.15.73-.44h0ZM248.26,252.63c-.6-.97-.74-1.87-.58-2.74.28-1.47,1.5-2.57,1.86-.98.3,1.34-.51,2.57-1.28,3.72Z"/>
                  <path class="cls-19" d="M250.24,253.42c1.69,1.29,2.02,3.71.73,5.4-1.29,1.69-3.71,2.02-5.4.73-1.69-1.29-2.02-3.71-.73-5.4,1.29-1.69,3.71-2.02,5.4-.73Z"/>
                  <g>
                    <path class="cls-13" d="M256.66,260.46c-6.69-7.18-17.93-7.57-25.11-.87-7.18,6.69-7.57,17.94-.87,25.11,6.69,7.18,17.93,7.57,25.11.88,7.18-6.69,7.57-17.94.87-25.11Z"/>
                    <path class="cls-16" d="M247.19,255.16c4.27,8.25,9.37,15.74,13.76,21.56-.5,2.09-1.38,4.1-2.63,5.92-5.39-6.9-12.27-16.7-17.57-27.59,2.14-.35,4.32-.32,6.44.11h0ZM237.18,256.04c-1.75.69-3.41,1.66-4.92,2.93,6.36,12.33,14.51,23.03,19.73,29.32,1.35-.72,2.63-1.62,3.81-2.71.26-.24.5-.48.74-.73-5.06-6.08-13.13-16.63-19.35-28.8h0ZM229.34,262.08c-1.45,1.97-2.44,4.17-2.97,6.46,4.9,8.61,10.42,16.17,14.75,21.62,2.34.34,4.73.21,7.03-.38-4.89-5.87-12.65-15.98-18.81-27.7Z"/>
                  </g>
                </g>
                <path class="cls-12" d="M120.49,208.79c-.55,0-1-.45-.99-1,0-.55.45-.99,1-.99,11.58.07,17.8,5.45,23.71,10.56,1.47,1.27,2.91,2.52,4.45,3.68,3.8,2.88,8.37,5.02,13.37,5.98,4.53.87,9.42.77,14.39-.64,3.07-.87,6.15-2.85,9.62-5.07,8.42-5.4,19.01-12.2,38.01-9.17,12.19,1.95,21.46,1.23,28.18-1.27,7.55-2.8,11.84-7.86,13.41-13.86.14-.53.68-.85,1.21-.72.53.14.85.68.71,1.21-1.72,6.61-6.42,12.17-14.64,15.22-7.03,2.61-16.64,3.38-29.18,1.37-18.25-2.92-28.49,3.66-36.62,8.88-3.59,2.3-6.78,4.35-10.15,5.31-5.29,1.5-10.48,1.61-15.3.68-5.31-1.02-10.17-3.29-14.2-6.34-1.53-1.16-3.03-2.46-4.55-3.77-5.64-4.88-11.57-10.01-22.42-10.07Z"/>
                <g>
                  <path class="cls-19" d="M212.13,211.35c2.32-.64,4.66.51,5.23,2.57.57,2.06-.85,4.24-3.18,4.88-2.32.64-4.66-.51-5.23-2.57-.57-2.06.85-4.24,3.18-4.88Z"/>
                  <path class="cls-14" d="M213.13,214.98c2.17-.6,8.25,3.06,9.93,9.18,1.69,6.12-2.36,12.58-3.82,12.98-1.46.4-8.25-3.06-9.93-9.18-1.69-6.12,1.65-12.38,3.82-12.98Z"/>
                  <path class="cls-4" d="M212.42,219.53c-.06-.2.06-.41.26-.47.2-.06.41.05.47.26.49,1.65.69,3.37.68,4.87.68-.37,1.45-.63,2.22-.72.17-.02.33-.03.49-.04-.63-.76-1.17-1.58-1.46-2.32-.9-2.32-.93-2.37-.93-2.37-.06-.2.06-.41.27-.47.2-.06.41.06.47.26,0,0,0-.01.91,2.3.33.84,1.03,1.81,1.8,2.64.81.1,1.55.32,2.12.6.39.19.72.41.94.63.28.28.42.58.38.87-.02.16-.09.3-.21.43-.07.07-.16.13-.25.17h-.03c-.34.13-.82-.01-1.35-.33-.47-.28-1.02-.71-1.55-1.22-.14-.13-.27-.27-.41-.41-.36-.03-.73-.02-1.1.02-.81.09-1.64.42-2.33.86-.04.71-.13,1.34-.25,1.86-.11.5-.26.9-.43,1.17v.02c-.24.37-.53.55-.86.51-.21-.03-.41-.15-.59-.37-.2-.25-.31-.53-.34-.82-.05-.45.09-.92.36-1.37.25-.42.63-.84,1.1-1.21l.27-.21c.05-1.53-.12-3.37-.65-5.13h0ZM212.82,226.77c.07-.31.13-.67.17-1.06-.26.25-.48.51-.64.77-.19.31-.29.62-.26.89.02.15.08.29.18.43.05.06.08.09.09.09,0,0,.04-.06.1-.15h0c.13-.23.24-.55.34-.96h0ZM219.39,224.75c-.23-.11-.49-.21-.77-.3.35.3.68.55.98.72.33.2.58.31.69.28,0-.05-.06-.12-.16-.22-.16-.16-.42-.33-.73-.48Z"/>
                </g>
                <g>
                  <path class="cls-19" d="M167.98,225.35c2.34.56,3.84,2.7,3.34,4.77-.5,2.08-2.8,3.3-5.14,2.74-2.34-.56-3.83-2.7-3.34-4.77.5-2.08,2.8-3.3,5.14-2.74Z"/>
                  <path class="cls-13" d="M167.1,229.01c2.19.53,5.74,6.67,4.26,12.84-1.48,6.17-8.14,9.87-9.62,9.51-1.47-.35-5.74-6.67-4.26-12.84,1.48-6.17,7.42-10.04,9.62-9.51Z"/>
                  <path class="cls-4" d="M164.28,232.65c.05-.21.25-.34.45-.29.21.04.34.25.29.45-.37,1.68-1.03,3.29-1.76,4.6.78,0,1.58.15,2.29.44.16.06.31.13.45.21-.19-.97-.26-1.95-.16-2.74.33-2.47.33-2.53.33-2.53.05-.2.26-.33.46-.28.21.05.33.25.28.46,0,0,.01,0-.32,2.45-.12.89.02,2.08.3,3.19.66.47,1.2,1.03,1.57,1.55.25.36.43.7.52,1,.11.38.09.71-.09.95-.09.13-.22.22-.39.28-.1.03-.2.04-.3.02h-.03c-.36-.07-.71-.42-1.02-.96-.28-.48-.55-1.12-.77-1.82-.06-.18-.11-.36-.16-.55-.3-.2-.63-.37-.97-.51-.76-.31-1.64-.43-2.46-.37-.38.6-.76,1.11-1.11,1.51-.34.38-.66.66-.94.82h-.02c-.38.22-.72.24-.99.05-.17-.13-.29-.33-.34-.61-.06-.32-.02-.61.09-.88.17-.42.52-.76.98-1.03.43-.25.96-.43,1.54-.53l.34-.05c.78-1.31,1.52-3.01,1.91-4.81h0ZM161.13,239.18c.21-.24.44-.52.67-.85-.35.09-.67.21-.93.36-.32.18-.55.41-.65.66-.06.14-.08.29-.05.46.01.08.03.12.04.13,0,0,.07-.03.16-.08h.01c.21-.13.47-.36.75-.68h0ZM167.85,240.6c-.15-.21-.33-.42-.53-.63.16.43.33.81.51,1.11.19.33.36.55.47.58.02-.04,0-.14-.03-.27-.06-.22-.21-.49-.41-.78Z"/>
                </g>
                <g>
                  <path class="cls-19" d="M249.36,208.2c2.34-.56,4.64.67,5.14,2.74s-1,4.21-3.34,4.77c-2.34.56-4.64-.67-5.14-2.74-.5-2.08,1-4.21,3.34-4.77Z"/>
                  <path class="cls-13" d="M250.23,211.86c2.19-.52,8.13,3.35,9.61,9.52,1.48,6.17-2.79,12.49-4.26,12.84-1.47.35-8.14-3.35-9.61-9.52-1.47-6.17,2.07-12.31,4.27-12.84Z"/>
                  <path class="cls-4" d="M249.36,216.38c-.06-.2.07-.41.27-.47.2-.05.41.07.46.27.43,1.67.57,3.4.51,4.89.7-.34,1.48-.58,2.24-.64.17-.01.33-.02.5-.02-.61-.78-1.12-1.62-1.38-2.37-.82-2.35-.85-2.4-.85-2.4-.05-.2.08-.41.28-.46.2-.05.41.08.46.28,0,0,0-.01.83,2.33.3.85.96,1.84,1.71,2.7.8.12,1.53.37,2.1.67.39.2.7.43.92.66.27.28.4.59.35.88-.03.16-.1.3-.23.42-.07.07-.16.12-.26.16h-.03c-.35.11-.82-.04-1.34-.38-.46-.3-.99-.75-1.51-1.28-.13-.14-.26-.27-.4-.42-.36-.04-.73-.05-1.1-.02-.82.07-1.65.36-2.36.78-.06.71-.17,1.33-.31,1.85-.13.49-.29.89-.47,1.16v.02c-.25.36-.55.53-.88.48-.21-.03-.4-.16-.58-.39-.19-.26-.29-.54-.32-.83-.04-.45.12-.92.41-1.36.27-.41.66-.81,1.13-1.17l.28-.2c.1-1.52,0-3.37-.47-5.15h0ZM249.51,223.63c.08-.31.16-.67.21-1.06-.27.24-.5.49-.67.74-.2.31-.31.61-.29.88.01.15.06.3.17.43.05.06.08.09.09.1,0,0,.05-.06.11-.15h0c.14-.22.26-.54.37-.95h0ZM256.15,221.84c-.23-.12-.48-.23-.76-.33.33.31.66.57.95.76.32.21.57.32.68.3,0-.05-.06-.13-.15-.23-.16-.17-.41-.34-.72-.51Z"/>
                </g>
                <path class="cls-12" d="M164,111.6c4.43.8,9.19.67,14.03-.7,3.07-.87,6.15-2.85,9.62-5.07,8.42-5.4,19.01-12.2,38.01-9.17.65.1,1.3.2,1.93.29.51.74,1.03,1.48,1.55,2.21-1.23-.15-2.5-.32-3.79-.53-18.25-2.91-28.49,3.66-36.62,8.88-3.59,2.3-6.78,4.35-10.15,5.31-5.29,1.5-10.48,1.61-15.3.68-.18-.03-.36-.07-.53-.11.42-.59.84-1.18,1.26-1.78Z"/>
                <g>
                  <path class="cls-19" d="M219.47,94.32c2.34-.56,4.64.67,5.14,2.75.5,2.08-1,4.21-3.34,4.77-2.34.56-4.64-.67-5.14-2.74-.5-2.08,1-4.21,3.34-4.77Z"/>
                  <path class="cls-13" d="M220.35,97.98c2.19-.52,8.14,3.35,9.61,9.52,1.47,6.18-2.8,12.49-4.27,12.84-1.47.35-8.14-3.35-9.61-9.52-1.47-6.17,2.07-12.31,4.27-12.84Z"/>
                  <path class="cls-4" d="M219.48,102.51c-.05-.2.07-.41.27-.47.2-.05.41.07.46.27.43,1.67.57,3.4.51,4.89.7-.34,1.48-.58,2.24-.64.17-.01.33-.02.5-.02-.6-.78-1.12-1.62-1.38-2.37-.82-2.35-.85-2.4-.85-2.4-.05-.2.08-.41.28-.46.2-.05.41.08.46.28,0,0,0-.01.83,2.33.3.85.96,1.84,1.71,2.7.8.12,1.54.37,2.1.67.39.2.7.43.92.66.27.28.4.59.35.88-.02.16-.1.3-.22.42-.07.07-.16.12-.26.16h-.03c-.34.11-.82-.04-1.34-.38-.46-.3-.99-.75-1.51-1.28-.13-.14-.26-.27-.39-.42-.36-.04-.73-.05-1.1-.02-.82.07-1.65.36-2.36.78-.06.7-.17,1.33-.31,1.85-.13.49-.29.89-.47,1.16v.02c-.25.36-.55.53-.88.48-.21-.03-.41-.16-.58-.39-.19-.26-.29-.54-.32-.83-.04-.45.12-.92.41-1.36.27-.41.66-.82,1.13-1.17l.28-.2c.1-1.52,0-3.37-.47-5.15h0ZM219.63,109.75c.08-.31.16-.67.21-1.06-.27.24-.5.49-.67.74-.2.31-.31.61-.29.88.01.15.06.3.17.43.05.06.07.09.09.1,0,0,.05-.06.11-.15h0c.14-.22.26-.54.37-.95h0ZM226.27,107.97c-.23-.12-.48-.23-.76-.32.33.31.66.57.95.76.32.21.57.32.68.3,0-.05-.06-.13-.15-.23-.16-.17-.41-.34-.72-.51Z"/>
                </g>
                <g>
                  <path class="cls-19" d="M195.58,100.3c2.32-.64,4.66.51,5.23,2.57.57,2.06-.85,4.24-3.18,4.88-2.32.64-4.66-.51-5.23-2.57-.57-2.06.85-4.24,3.17-4.88Z"/>
                  <path class="cls-14" d="M196.58,103.93c2.17-.6,8.25,3.06,9.93,9.18,1.69,6.12-2.36,12.58-3.82,12.98-1.46.4-8.24-3.06-9.93-9.18-1.69-6.12,1.65-12.38,3.82-12.98Z"/>
                  <path class="cls-4" d="M195.86,108.48c-.06-.2.06-.42.26-.48.2-.06.41.06.47.26.49,1.65.68,3.37.68,4.87.69-.37,1.46-.63,2.22-.72.16-.02.33-.03.49-.04-.63-.76-1.17-1.58-1.46-2.32-.9-2.32-.93-2.37-.93-2.37-.06-.2.06-.41.26-.47.2-.06.41.06.47.26,0,0,0-.01.91,2.3.33.84,1.03,1.81,1.8,2.64.8.1,1.54.32,2.12.6.39.19.72.41.94.63.28.28.42.58.38.87-.02.16-.09.3-.21.43-.07.07-.16.13-.25.17h-.03c-.34.13-.82-.01-1.35-.33-.47-.28-1.02-.71-1.55-1.22-.14-.13-.27-.27-.41-.41-.36-.03-.73-.02-1.1.02-.81.09-1.64.42-2.33.86-.04.71-.13,1.34-.25,1.86-.11.5-.26.9-.43,1.17v.02c-.24.37-.53.55-.86.51-.21-.03-.41-.15-.59-.37-.2-.25-.31-.53-.35-.82-.05-.45.09-.92.36-1.37.26-.42.63-.84,1.09-1.21l.27-.21c.05-1.53-.13-3.37-.65-5.13h0ZM196.26,115.72c.07-.31.13-.67.18-1.06-.26.25-.48.51-.64.77-.19.32-.29.62-.26.89.02.15.08.3.18.43.05.06.08.09.09.09,0,0,.04-.06.1-.15h.01c.13-.23.24-.55.34-.96h0ZM202.83,113.71c-.23-.11-.49-.21-.77-.3.35.3.68.55.98.72.33.2.58.3.69.28,0-.05-.06-.12-.16-.22-.16-.16-.41-.33-.73-.48Z"/>
                </g>
                <g>
                  <path class="cls-19" d="M177.66,111.99c2.04,1.28,2.78,3.78,1.64,5.59-1.13,1.81-3.71,2.24-5.75.96-2.04-1.28-2.78-3.78-1.64-5.59,1.13-1.81,3.7-2.24,5.75-.96Z"/>
                  <path class="cls-16" d="M175.66,115.18c1.91,1.2,3.32,8.15-.05,13.53-3.37,5.38-10.87,6.76-12.15,5.96-1.28-.8-3.31-8.15.06-13.53,3.37-5.38,10.24-7.15,12.15-5.96Z"/>
                  <path class="cls-4" d="M171.82,117.74c.11-.18.34-.24.52-.13.18.11.24.34.13.52-.88,1.48-2.02,2.79-3.13,3.8.74.26,1.45.64,2.03,1.15.13.11.25.22.36.34.13-.98.37-1.93.72-2.65,1.1-2.23,1.12-2.29,1.12-2.29.11-.18.35-.23.52-.12.18.11.23.35.12.52,0,0,.01,0-1.08,2.22-.4.81-.64,1.98-.73,3.12.47.66.81,1.36.99,1.97.13.42.19.8.17,1.12-.01.39-.14.7-.38.87-.13.09-.28.14-.46.14-.1,0-.2-.03-.29-.07h-.02c-.32-.19-.54-.63-.66-1.24-.11-.54-.16-1.23-.15-1.97,0-.19,0-.38.02-.57-.22-.28-.48-.55-.76-.8-.62-.54-1.41-.93-2.21-1.14-.55.45-1.07.81-1.53,1.07-.44.25-.84.42-1.15.48h-.02c-.42.09-.75,0-.95-.28-.12-.17-.17-.4-.13-.68.05-.32.18-.59.37-.81.29-.34.73-.56,1.25-.66.48-.1,1.05-.1,1.63-.01l.33.06c1.16-.99,2.4-2.37,3.35-3.95h0ZM166.76,122.92c.28-.16.58-.36.9-.59-.36-.03-.7-.01-1,.05-.36.07-.65.21-.83.41-.1.11-.17.26-.19.42-.01.08-.01.12,0,.13,0,0,.07,0,.18-.03h.02c.24-.05.56-.19.93-.4h0ZM172.68,126.4c-.07-.25-.18-.51-.3-.77.01.46.06.87.13,1.21.08.38.17.63.26.7.03-.03.05-.13.05-.27,0-.23-.04-.53-.14-.87Z"/>
                </g>
                <path class="cls-12" d="M42.76,458.54c-.42-.61-.27-1.44.33-1.86.61-.42,1.44-.27,1.86.33,9.94,14.31,20.02,23.63,30.85,27.47,10.72,3.8,22.27,2.22,35.24-5.25,18.68-10.75,38.24-5.72,63.9.87,11.73,3.02,24.75,6.36,39.53,8.66,45.95,7.13,59.5-9.43,73.75-26.84l.12-.14h0c14.96-18.28,33.33-17.45,33.38-17.45.73.03,1.31.64,1.28,1.38-.03.73-.64,1.31-1.38,1.28-.05,0-17.11-.78-31.22,16.47h0s-.12.15-.12.15c-14.74,18.01-28.75,35.15-76.22,27.78-14.9-2.31-27.99-5.68-39.78-8.71-25.07-6.45-44.18-11.36-61.92-1.15-13.69,7.88-25.96,9.53-37.45,5.45-11.39-4.04-21.9-13.69-32.15-28.46Z"/>
                <g>
                  <path class="cls-19" d="M74.29,483.09c2.04,1.28,2.78,3.78,1.64,5.59-1.13,1.81-3.71,2.24-5.75.96-2.04-1.28-2.77-3.78-1.64-5.59,1.13-1.81,3.71-2.24,5.75-.96Z"/>
                  <path class="cls-13" d="M72.3,486.29c1.91,1.2,3.31,8.15-.06,13.53-3.37,5.38-10.87,6.76-12.15,5.95-1.28-.8-3.32-8.15.06-13.53,3.37-5.38,10.24-7.15,12.15-5.95Z"/>
                  <path class="cls-4" d="M68.46,488.84c.11-.18.34-.24.52-.13.18.11.24.34.13.52-.89,1.48-2.02,2.79-3.13,3.8.73.26,1.45.65,2.03,1.15.13.11.25.22.36.34.13-.98.37-1.93.72-2.65,1.1-2.24,1.12-2.29,1.12-2.29.11-.18.35-.23.53-.12.18.11.23.35.12.52,0,0,.01,0-1.08,2.22-.4.81-.64,1.98-.73,3.12.47.66.81,1.36.99,1.97.13.42.19.8.17,1.12-.01.39-.14.7-.39.87-.13.09-.28.14-.46.14-.1,0-.2-.03-.29-.07h-.03c-.31-.19-.53-.63-.66-1.24-.11-.54-.16-1.23-.15-1.97,0-.19.01-.38.02-.58-.22-.28-.48-.55-.76-.8-.62-.54-1.42-.92-2.21-1.14-.55.45-1.07.81-1.54,1.07-.44.25-.84.41-1.15.48h-.02c-.43.09-.76,0-.95-.28-.12-.17-.17-.4-.12-.68.05-.32.17-.58.37-.8.3-.34.74-.56,1.26-.66.48-.1,1.05-.1,1.63,0l.33.06c1.16-1,2.4-2.37,3.35-3.94h0ZM63.39,494.02c.28-.16.58-.36.9-.59-.36-.03-.7-.01-1,.05-.36.07-.65.21-.83.41-.1.11-.17.26-.19.42-.01.08-.01.12,0,.13,0,0,.07,0,.18-.03h.02c.24-.05.56-.19.93-.39h0ZM69.32,497.51c-.07-.25-.18-.51-.3-.77.01.46.06.87.13,1.21.07.38.17.63.26.7.03-.03.05-.13.06-.27.01-.23-.04-.53-.14-.87Z"/>
                </g>
                <g>
                  <path class="cls-19" d="M101.49,483.51c2.32-.64,4.66.51,5.23,2.57.57,2.06-.85,4.24-3.18,4.88-2.32.64-4.66-.51-5.23-2.57-.57-2.06.85-4.25,3.18-4.89Z"/>
                  <path class="cls-14" d="M102.49,487.14c2.17-.6,8.25,3.06,9.93,9.18,1.69,6.12-2.36,12.58-3.82,12.98-1.46.4-8.25-3.06-9.94-9.18-1.69-6.12,1.65-12.38,3.82-12.98Z"/>
                  <path class="cls-4" d="M101.78,491.69c-.06-.2.06-.41.26-.47.2-.06.41.05.47.26.49,1.65.68,3.38.68,4.87.68-.37,1.45-.63,2.22-.72.17-.02.33-.03.5-.04-.63-.76-1.17-1.58-1.46-2.32-.9-2.32-.93-2.37-.93-2.37-.06-.2.06-.41.27-.47.2-.06.41.06.47.26,0,0,0,0,.91,2.3.33.84,1.03,1.81,1.8,2.64.81.09,1.55.32,2.12.6.4.19.72.41.94.63.28.28.42.58.38.87-.02.16-.09.3-.21.43-.07.07-.16.13-.25.17h-.03c-.34.13-.82-.01-1.35-.33-.47-.28-1.02-.71-1.55-1.22-.14-.13-.27-.27-.41-.41-.36-.03-.73-.02-1.1.02-.81.09-1.64.42-2.33.86-.04.71-.13,1.34-.25,1.86-.11.5-.26.9-.43,1.17v.02c-.24.37-.53.55-.86.51-.21-.03-.41-.15-.59-.37-.2-.25-.31-.53-.34-.82-.05-.45.09-.92.36-1.37.26-.42.63-.84,1.1-1.21l.27-.21c.05-1.53-.13-3.37-.65-5.13h0ZM102.18,498.93c.07-.31.13-.67.17-1.06-.26.25-.48.51-.64.77-.19.31-.29.62-.26.89.02.15.08.3.18.43.05.06.08.09.09.09,0,0,.04-.06.1-.15h0c.13-.23.24-.55.34-.96h0ZM108.75,496.92c-.23-.11-.49-.21-.77-.3.35.3.68.55.98.72.33.2.58.31.69.28,0-.04-.06-.12-.16-.22-.16-.16-.42-.33-.73-.48Z"/>
                </g>
                <g>
                  <path class="cls-19" d="M145.33,475.01c2.36.48,3.93,2.56,3.5,4.66-.43,2.09-2.68,3.4-5.04,2.92s-3.93-2.57-3.5-4.66c.43-2.09,2.68-3.4,5.05-2.92Z"/>
                  <path class="cls-16" d="M144.58,478.69c2.21.45,5.96,6.47,4.69,12.69-1.27,6.22-7.81,10.14-9.29,9.84-1.48-.3-5.96-6.47-4.69-12.69,1.27-6.22,7.08-10.29,9.29-9.84Z"/>
                  <path class="cls-4" d="M141.88,482.43c.04-.21.24-.34.44-.31.21.04.35.24.31.44-.31,1.69-.92,3.32-1.6,4.65.78-.02,1.58.09,2.3.36.16.06.31.12.46.19-.22-.96-.33-1.94-.25-2.73.25-2.48.25-2.53.25-2.53.04-.21.24-.34.45-.3.21.04.34.24.3.45,0,0,.01,0-.24,2.46-.09.9.1,2.07.41,3.17.68.45,1.24.99,1.62,1.49.26.35.45.69.55.99.12.37.11.7-.06.95-.09.13-.22.23-.38.29-.1.04-.2.05-.3.04h-.03c-.36-.06-.72-.4-1.05-.92-.29-.46-.58-1.1-.83-1.79-.06-.18-.12-.36-.18-.55-.31-.19-.64-.35-.99-.48-.77-.28-1.65-.37-2.47-.29-.36.61-.72,1.14-1.06,1.54-.33.39-.64.68-.91.85h-.02c-.37.23-.71.27-.99.08-.18-.12-.3-.32-.36-.6-.06-.31-.04-.61.06-.89.16-.42.49-.78.94-1.06.42-.26.95-.46,1.52-.58l.33-.06c.73-1.34,1.42-3.06,1.75-4.87h0ZM138.96,489.06c.21-.25.42-.54.64-.87-.35.1-.66.23-.92.39-.31.19-.54.42-.63.68-.05.14-.07.3-.03.46.02.07.03.11.04.12.01,0,.07-.03.16-.09h.01c.21-.14.46-.38.73-.7h0ZM145.72,490.24c-.16-.2-.34-.41-.55-.62.17.42.36.8.54,1.09.2.33.38.53.49.56.02-.04,0-.14-.04-.27-.07-.22-.22-.48-.44-.76Z"/>
                </g>
                <g>
                  <path class="cls-19" d="M172.96,481.9c2.32-.64,4.66.51,5.23,2.56.57,2.06-.85,4.24-3.17,4.88-2.32.64-4.66-.51-5.23-2.56-.57-2.06.85-4.25,3.18-4.88Z"/>
                  <path class="cls-14" d="M173.97,485.53c2.17-.6,8.24,3.06,9.93,9.18,1.69,6.12-2.36,12.58-3.82,12.98-1.46.4-8.25-3.06-9.94-9.18-1.69-6.12,1.65-12.38,3.82-12.98Z"/>
                  <path class="cls-4" d="M173.25,490.08c-.06-.2.06-.41.26-.47.2-.06.41.06.47.26.49,1.65.68,3.37.68,4.87.68-.37,1.45-.63,2.22-.72.16-.02.33-.03.49-.04-.63-.76-1.17-1.58-1.46-2.32-.9-2.32-.93-2.37-.93-2.37-.06-.2.06-.41.26-.47.2-.06.41.06.47.26,0,0,0,0,.91,2.3.33.84,1.03,1.81,1.8,2.64.81.1,1.54.32,2.12.6.4.19.72.41.94.63.28.27.42.58.38.87-.02.16-.09.3-.21.43-.07.07-.16.13-.25.17h-.03c-.34.12-.82-.01-1.35-.33-.47-.28-1.02-.71-1.55-1.22-.14-.13-.27-.26-.41-.41-.36-.02-.73-.02-1.1.02-.81.09-1.64.42-2.33.86-.04.71-.13,1.34-.25,1.86-.11.5-.26.9-.43,1.17v.02c-.24.37-.53.55-.86.51-.21-.03-.41-.15-.59-.37-.2-.25-.31-.53-.34-.82-.05-.45.09-.92.36-1.37.26-.42.63-.84,1.1-1.21l.27-.21c.05-1.52-.12-3.37-.65-5.13h0ZM173.65,497.31c.07-.31.13-.67.18-1.06-.27.25-.48.51-.64.77-.19.31-.29.62-.26.89.02.15.07.29.18.43.05.06.08.09.09.09,0,0,.04-.06.1-.15h0c.13-.23.24-.55.34-.97h0ZM180.22,495.3c-.23-.11-.49-.21-.77-.3.35.3.68.55.98.73.33.2.58.3.69.28,0-.04-.06-.12-.16-.22-.16-.16-.42-.33-.73-.48Z"/>
                </g>
                <g>
                  <path class="cls-19" d="M214.01,489.56c2.04,1.28,2.78,3.78,1.64,5.59-1.13,1.81-3.71,2.24-5.75.96-2.04-1.28-2.78-3.78-1.64-5.59,1.13-1.81,3.71-2.24,5.75-.96Z"/>
                  <path class="cls-13" d="M212.01,492.75c1.91,1.2,3.31,8.15-.06,13.53-3.37,5.38-10.87,6.76-12.15,5.95-1.28-.8-3.31-8.15.06-13.53,3.37-5.38,10.24-7.15,12.15-5.95Z"/>
                  <path class="cls-4" d="M208.17,495.3c.11-.18.34-.24.52-.13.18.11.24.34.13.53-.88,1.48-2.02,2.78-3.13,3.8.74.26,1.45.65,2.03,1.15.13.11.25.22.36.34.13-.98.37-1.93.72-2.64,1.1-2.24,1.12-2.29,1.12-2.29.11-.18.35-.23.52-.12.18.11.23.35.12.52,0,0,.01,0-1.08,2.22-.4.81-.64,1.98-.73,3.12.48.66.81,1.36,1,1.97.13.42.19.8.17,1.12-.02.39-.14.7-.38.87-.13.09-.28.14-.46.14-.1,0-.2-.03-.29-.07h-.03c-.32-.19-.53-.63-.66-1.24-.11-.54-.16-1.23-.15-1.97,0-.19.01-.38.02-.57-.22-.28-.48-.55-.76-.8-.62-.54-1.42-.93-2.21-1.14-.55.45-1.07.81-1.53,1.07-.44.25-.84.41-1.15.48h-.02c-.43.09-.75,0-.95-.28-.12-.17-.17-.4-.13-.68.05-.32.18-.59.37-.81.3-.34.74-.56,1.26-.66.48-.1,1.05-.1,1.63,0l.33.06c1.16-1,2.4-2.37,3.35-3.95h0ZM203.11,500.48c.28-.16.58-.35.9-.59-.36-.03-.7-.01-1,.05-.36.07-.65.21-.83.41-.1.11-.16.26-.19.42-.01.07-.01.12,0,.13,0,0,.07,0,.18-.03h.02c.24-.05.56-.18.93-.4h0ZM209.03,503.97c-.07-.24-.18-.5-.3-.77.01.46.06.87.13,1.21.08.38.17.63.26.7.03-.03.05-.13.06-.27,0-.23-.04-.53-.14-.87Z"/>
                </g>
                <g>
                  <path class="cls-19" d="M244.3,490.22c2.05-1.26,4.62-.8,5.74,1.01,1.12,1.82.36,4.31-1.69,5.57-2.05,1.26-4.62.81-5.74-1.01-1.12-1.82-.36-4.32,1.69-5.58Z"/>
                  <path class="cls-16" d="M246.27,493.43c1.92-1.18,8.77.65,12.09,6.06,3.32,5.41,1.22,12.74-.07,13.53-1.29.79-8.77-.65-12.09-6.06-3.32-5.41-1.86-12.35.07-13.53Z"/>
                  <path class="cls-4" d="M246.85,498c-.11-.18-.06-.41.11-.53.18-.11.41-.06.53.11.93,1.45,1.59,3.05,2.01,4.49.56-.54,1.22-1.01,1.93-1.31.16-.06.31-.12.47-.17-.82-.55-1.57-1.19-2.05-1.82-1.51-1.98-1.55-2.02-1.55-2.02-.11-.18-.05-.41.12-.52.18-.11.41-.05.52.12,0,0,0-.01,1.51,1.96.55.72,1.49,1.45,2.47,2.04.8-.13,1.57-.12,2.2-.02.43.07.8.19,1.08.34.34.19.56.44.61.73.02.16,0,.32-.08.47-.05.09-.11.17-.19.23l-.02.02c-.3.21-.79.2-1.39.04-.53-.14-1.18-.4-1.83-.74-.17-.09-.34-.18-.51-.28-.35.08-.71.18-1.05.33-.76.32-1.46.86-2,1.47.16.69.25,1.32.28,1.85.03.51,0,.93-.08,1.25v.02c-.12.42-.35.67-.68.73-.21.04-.43-.03-.67-.19-.26-.19-.45-.42-.56-.69-.17-.42-.17-.91-.04-1.42.13-.48.38-.98.71-1.46l.2-.27c-.38-1.48-1.05-3.2-2.05-4.75h0ZM249.25,504.84c-.02-.32-.06-.68-.13-1.07-.18.31-.32.62-.4.91-.1.36-.1.68,0,.93.06.14.16.26.29.36.06.04.1.06.11.06,0,0,.03-.07.06-.17v-.02c.07-.24.09-.58.06-1h0ZM255,501.08c-.25-.04-.53-.07-.83-.07.42.19.81.33,1.14.42.37.1.64.13.74.08-.02-.04-.09-.1-.22-.17-.2-.11-.49-.2-.84-.26Z"/>
                </g>
                <g>
                  <path class="cls-19" d="M275.69,478.36c-1.75,1.65-1.99,4.25-.53,5.8,1.46,1.55,4.07,1.48,5.82-.17,1.75-1.65,1.99-4.25.53-5.8-1.46-1.56-4.07-1.48-5.82.17Z"/>
                  <path class="cls-13" d="M278.27,481.11c-1.64,1.54-1.68,8.63,2.67,13.26,4.35,4.63,11.97,4.53,13.07,3.49,1.1-1.04,1.68-8.64-2.67-13.26-4.35-4.63-11.43-5.04-13.07-3.49Z"/>
                  <path class="cls-4" d="M282.52,482.87c-.14-.16-.38-.17-.54-.03-.16.14-.17.38-.03.54,1.15,1.28,2.53,2.34,3.8,3.12-.67.4-1.3.91-1.77,1.52-.1.13-.2.26-.29.4-.32-.94-.74-1.82-1.22-2.46-1.51-1.98-1.54-2.03-1.54-2.03-.14-.15-.38-.16-.54-.02-.15.14-.16.38-.02.54,0,0-.01,0,1.49,1.97.55.71,1.01,1.82,1.32,2.92-.34.74-.53,1.49-.59,2.12-.04.43-.03.83.04,1.13.09.38.27.66.55.78.14.06.3.08.48.04.1-.02.19-.06.27-.13l.02-.02c.28-.23.41-.71.41-1.33,0-.55-.08-1.24-.24-1.96-.04-.19-.08-.37-.13-.56.16-.32.36-.63.59-.93.5-.65,1.21-1.18,1.95-1.54.63.33,1.21.59,1.71.76.48.16.9.25,1.22.25h.02c.43,0,.74-.15.88-.46.09-.19.09-.43,0-.7-.11-.3-.29-.54-.52-.72-.36-.28-.83-.41-1.36-.41-.49,0-1.04.11-1.6.31l-.32.12c-1.33-.75-2.81-1.86-4.05-3.22h0ZM288.49,486.97c-.31-.1-.64-.24-1-.41.35-.1.68-.15.99-.15.37,0,.68.08.9.24.12.1.21.22.27.38.02.07.04.11.03.13,0,0-.07,0-.18,0h-.02c-.25,0-.59-.07-.99-.21h0ZM283.36,491.54c.02-.25.07-.53.15-.82.07.45.11.87.11,1.21,0,.38-.04.65-.12.74-.04-.03-.07-.12-.11-.26-.05-.22-.06-.53-.03-.88Z"/>
                </g>
                <g>
                  <path class="cls-19" d="M297.34,451.61c2.32-.64,4.66.51,5.23,2.57.57,2.06-.85,4.24-3.18,4.88-2.32.64-4.66-.51-5.23-2.57-.57-2.06.85-4.24,3.18-4.88Z"/>
                  <path class="cls-14" d="M298.34,455.24c2.17-.6,8.25,3.06,9.93,9.18,1.69,6.12-2.36,12.58-3.82,12.98-1.46.4-8.24-3.06-9.93-9.18-1.69-6.12,1.65-12.38,3.82-12.98Z"/>
                  <path class="cls-4" d="M297.62,459.79c-.06-.2.06-.41.26-.47.2-.06.42.06.48.26.49,1.65.68,3.38.68,4.87.69-.37,1.45-.63,2.22-.72.17-.02.33-.03.5-.04-.63-.76-1.17-1.58-1.46-2.32-.9-2.32-.93-2.37-.93-2.37-.06-.2.06-.41.27-.47.2-.06.41.06.47.26,0,0,0-.01.9,2.3.33.84,1.03,1.81,1.8,2.64.81.09,1.55.32,2.12.6.39.19.72.41.94.63.28.28.42.58.38.87-.02.16-.09.3-.21.43-.07.08-.16.13-.25.17h-.03c-.34.12-.82-.01-1.35-.33-.47-.28-1.02-.71-1.55-1.22-.14-.13-.27-.27-.41-.41-.36-.03-.73-.02-1.1.02-.81.09-1.64.42-2.33.86-.04.71-.13,1.34-.25,1.86-.11.49-.26.9-.43,1.17v.02c-.24.37-.53.55-.86.51-.21-.03-.41-.15-.59-.37-.2-.25-.31-.53-.34-.82-.05-.45.09-.92.36-1.37.26-.42.63-.84,1.1-1.21l.27-.21c.05-1.53-.12-3.37-.65-5.13h0ZM298.02,467.03c.07-.31.13-.67.17-1.06-.26.25-.48.51-.64.77-.19.32-.29.62-.26.89.02.15.08.29.18.43.05.06.08.09.09.09,0,0,.04-.06.1-.15h0c.13-.23.25-.55.34-.96h0ZM304.59,465.02c-.23-.11-.49-.21-.77-.3.34.3.68.55.98.72.33.2.58.31.69.28,0-.04-.06-.12-.16-.22-.16-.16-.42-.33-.73-.48Z"/>
                </g>
              </g>
              <path class="cls-18" d="M313.8,568.62c-28.27-5.65-24.23-26.65-42.8-4.84-18.57,21.81-16.15,12.11-46.03,10.5-19.31-1.04-13.48,7.35-26.98,11.9-7.39,2.49-31.56,3.83-43.28,1.83-33.11-5.65-35.39-7.1-51.71-3.95-16.31,3.16-36.84-8.88-45.8-4.75,13.15,3.56,19.24,12.36,35.26,13.29,97.58,5.66,244.38.27,272.7-31.96,6.65-7.57-18.46-30.65-29.23-39.95-3.48.61-8.76-.24-11.46-.63-.76-.26-1.5-.51-2.22-.76,12,28.38,17.85,54.58-8.44,49.32Z"/>
            </g>
            <path class="cls-18" d="M47.66,576.35c16.06,2.99,17.56,5.23,22.41,14.94,4.86,9.71,11.95,15.31,38.48,9.71,26.52-5.6,39.6-8.59,72.1,13.45,32.5,22.04,35.11-1.5,60.52-11.95,25.4-10.46,39.97-8.22,74.34-6.73,34.37,1.49,36.24-10.83,34.74-17.93-1.49-7.1,7.1-6.35,19.8,1.12,12.7,7.47,17.18-1.12,7.85-15.69-9.34-14.57-25.78-26.15-27.64-23.16-1.87,2.99-5.6,21.29-19.05,29.51-13.45,8.22-39.97,9.34-79.19,13.45-34.29,3.59-61.27,19.33-160.6,6.81-14.28-1.8-26.03-10.77-43.74-13.54Z"/>
          </g>
        </g>
        <g>
          <g>
            <path class="cls-47" d="M705.43,460.1c-2.66-4.91-1.62-8.28,3.41-9.2,5.03-.93,12.37-2.1,14.95-2.13,2.58-.03,2.86.19,2.73,11.37-.12,11.17-2.33,21.88-2.33,21.88l-18.77-21.91Z"/>
            <g>
              <path class="cls-30" d="M724.41,477.13s.04-.01.06-.02l-.07-.02s.01.03.01.03Z"/>
              <path class="cls-30" d="M725.07,476.95c-.35.09-.53.14-.6.16l.56.13c.02-.1.03-.19.04-.29Z"/>
              <path class="cls-30" d="M708.29,463.44l10.6,12.37,5.51,1.28c-.06-.16-.65-1.82-2.34-3.85-5.94-5.34-13.77-9.8-13.77-9.8Z"/>
            </g>
            <path class="cls-6" d="M726.04,449.85c-.4-1.05-1.09-1.1-2.25-1.08-2.58.03-9.92,1.2-14.95,2.13-2.85.53-4.39,1.85-4.73,3.78,8.04-1.83,16.09,1.95,16.09,1.95l5.84-6.78Z"/>
            <path class="cls-30" d="M719.31,457.76c-.2,3.48,2.37,15.87,5.07,23.78.05-.25.1-.51.15-.78.59-3.23,1.97-11.7,2.06-20.49.12-11.17-.15-11.39-2.73-11.37-1.25.43-4.19,2.77-4.54,8.86Z"/>
            <g>
              <path class="cls-30" d="M721.2,482.76c-1.38-4.27,8.97-34.64,17.58-27.74,9.99,8,.91,6.58.91,6.58-3.39-.38-8.95,4.28-10.31,9.93-.37,1.53-1.4,5.71-1.02,7.3-2.64,2.37-7.16,3.94-7.16,3.94Z"/>
              <path class="cls-47" d="M691.02,472.94c-.39-.39,2.51-10.36,4.98-13.17,2.47-2.82,11.8,1.18,25.58,16.67,1.7,2.62,2.21,4.79,2.21,4.79,0,0,14.28-5.29,22.43-9.2,4.02-1.74,12.79,6.96,9.37,16.6-2.3-.01-28.12-6.52-28.12-6.52l-36.45-9.18Z"/>
              <path class="cls-6" d="M701.46,470.57s-3.21-7.61.12-10.83c-2.18-.89-3.83-1.01-4.88-.48-3.57,4.33-4.34,9.91-4.51,13.05,3.2-3.37,9.26-1.74,9.26-1.74Z"/>
              <path class="cls-30" d="M723.29,481.12s20.28,1.13,26.86-1.28c4.94-1.81,6.2.83,6.61,3.87,1.55,4.52-4.35,8.52-4.35,8.52l-29.12-11.11Z"/>
              <path class="cls-30" d="M722.9,482.85c-12.79-10.48-28.34-17.26-31.88-9.91,6.35,8.67,31.88,9.91,31.88,9.91Z"/>
              <path class="cls-47" d="M736.36,454.03c2.09.32,5.99,3.3.94,12.05-1.91,3.3-10.18,11.87-15.01,15.77-.54,2,5.39,1.46,5.39,1.46,0,0,23.32-12.08,23.77-20.21.46-8.13-15.09-9.07-15.09-9.07Z"/>
              <path class="cls-6" d="M750.28,459.33c-.98-.09-4.28,2.61-10.62-1.76.25,1.37.05,3.21-.94,5.61,2.63,1.8,8.63,4.08,11.26,3.59.86-1.27,1.4-2.51,1.46-3.67.08-1.49-.38-2.72-1.17-3.77Z"/>
              <path class="cls-30" d="M731.66,480.06c2.48-5.18-.33-14.01-5.71-13.7-5.38.31-8.5,11.1-8.36,14.28.14,3.18,13.07,1.78,13.07,1.78l1.01-2.36Z"/>
              <path class="cls-47" d="M733.41,479.01c2.55-5.17-.41-14.02-6-13.74-5.59.28-8.78,11.06-8.63,14.25.16,3.19,13.59,1.84,13.59,1.84l1.04-2.35Z"/>
              <path class="cls-6" d="M727.41,465.28c-1.26.06-2.4.67-3.41,1.6,5.12,2,3.27,12.18,3.27,12.18,0,0,5.76-3.13,5.82-3.41.71-3.24-2.11-9.1-4.54-10.28-.36-.07-.75-.1-1.15-.08Z"/>
              <path class="cls-30" d="M723.75,482.13c3.59-6.65,6.66-7.81,8.53-7.41,2.05.43,2.83,1.8-.19,7.47-6.05,11.33-8.34-.05-8.34-.05Z"/>
            </g>
            <g>
              <path class="cls-31" d="M780.73,542.47c-6.68-12.24-14.25-31.38-46.18-26.33-31.24,4.94,38.16,34.49,38.16,34.49l8.01-8.16Z"/>
              <path class="cls-53" d="M571.39,566.06c-22.88,27.01-21.83,49.38-9.79,59.2-52.16,15.44-67.29,73.4-45.61,95.5,9.88,10.07,42.52,20.67,67.48,21.15,89.18,1.72,81-6.45,100.11-5.15,57.45,4.7,104.32,4.29,123.83-1.27,26.68-7.6,16.86-42.97,9.63-50.34,27.7-41.74,9.63-165.75-80.69-160.84l-164.98,41.74Z"/>
              <path class="cls-11" d="M789.65,540.47s-.01-.02-.02-.03c-.15-.12-.32-.23-.47-.35-.9-.7-1.81-1.39-2.74-2.05-.25-.18-.51-.35-.77-.53-.94-.65-1.89-1.28-2.86-1.89-.27-.17-.54-.33-.81-.49-.98-.6-1.97-1.18-2.98-1.73-.28-.15-.56-.29-.84-.44-.71-.38-1.41-.77-2.14-1.13-7.06-3.44-14.87-5.85-23.48-6.95,2.59,9.28.91,24.36,5.58,34.02,1.41-3.06,3.51-5.67,6.12-7.08.32,2.04.48,3.68.34,4.57-.51,18.99-7.95,38.45-32.4,46.13-28.66,9.01-71.17-10.25-96.33-17.4-28.59-8.13-42.15-2.81-54.92-4.31-7.85-.93-12.4-4.62-14.94-7.84-6.12,8.49-9.79,16.4-11.54,23.49-.01,0-.02,0-.03-.01-.11.44-.19.86-.28,1.29-.03.16-.07.32-.11.48-2.44,11.89.73,21.29,7.33,26.84,23.22,9.66,58.65,10.52,75.83,8.58-50.09-6.76-72.61-17.89-79.81-29.75,9.86,6.29,23.51,11.05,29.09,11.89,15.62,2.35,33.18-.04,54.44,9.58,65.94,29.84,119.63,22.01,149.05-7.06,2.56-2.53,4.68-5.18,6.44-7.93,4.39,16.47,6.19,36.37,3.76,57.48-.01.11-.03.23-.04.34-13.56,9.7-38.4,20.41-80.35,17.12,14.84,6.66,46.38,7.23,76.77,3.75-5.74,22.62-1.18,33.67-41.58,37.52-30.89,2.94-42.54-10.84-38.99-15.36-23.11,8.84-76.43,30.19-134.03,23.86-42.91-4.71-62.38-14.51-72.85-25.47,1.59,4.27,3.87,8.08,6.9,11.17,9.88,10.07,42.52,20.67,67.48,21.15,89.18,1.72,81-6.45,100.11-5.15,57.45,4.7,104.32,4.29,123.83-1.27,26.68-7.6,16.86-42.97,9.63-50.34.57-.87,1.12-1.78,1.66-2.71.11-.2.23-.4.34-.6.52-.93,1.02-1.89,1.5-2.89.06-.13.12-.27.18-.4.45-.95.87-1.92,1.29-2.92.07-.16.13-.32.2-.48.44-1.09.86-2.22,1.26-3.37.06-.17.11-.34.17-.51.81-2.4,1.54-4.91,2.17-7.52.04-.16.07-.31.11-.47.63-2.67,1.16-5.44,1.6-8.29.01-.07.03-.14.04-.21h0c5.62-37.19-5.38-88.47-37.92-114.32Z"/>
              <g>
                <path class="cls-56" d="M607.79,641.95c-28.17-1.98-42.91-7.57-42.91-7.57-22.95,9.88-39.37,37.03-36.64,52.78,2.73,15.75,22.29,27.17,70.25,27.17,5.28,0,10.31-.19,15.13-.54-3.36-17.08-5.13-40.93-5.72-65.47-.05-2.12-.09-4.25-.12-6.37Z"/>
                <path class="cls-56" d="M644.77,642.18c-11.59.61-21.97.56-31.11.12.03,1.9.06,3.8.11,5.69.58,24.82,2.45,48.97,5.8,65.3,77.74-7.99,94.18-59.23,94.18-59.23,0,0-16.83-14.61-68.99-11.87Z"/>
              </g>
              <path class="cls-67" d="M583.01,608.08c2.71,8.49,6.92,21.98,20.78,33.32,13.86,11.35,37.17,20.48,77.78,21.11.73.01,1.45.02,2.17.02,18.73,0,33.8-3.85,45.83-9.65,18.05-8.71,29.2-21.78,35.82-32.65,6.62-10.88,8.75-19.57,8.78-19.69.22-.92-.34-1.85-1.26-2.07-.92-.22-1.85.34-2.07,1.26v.03c-.2.76-4.11,15.68-16.88,30.3-6.38,7.31-14.97,14.56-26.43,19.99-11.46,5.43-25.82,9.05-43.79,9.05-.7,0-1.41,0-2.12-.02-40.14-.63-62.59-9.63-75.66-20.34-13.07-10.72-16.96-23.22-19.69-31.71-.29-.9-1.25-1.4-2.16-1.11-.9.29-1.4,1.25-1.11,2.16h0Z"/>
              <path class="cls-23" d="M601.5,634.68c-.06,1.62-.11,3.46-.14,4.63.77.71,1.58,1.41,2.43,2.1.93.76,1.9,1.51,2.91,2.25-.09-1.33-.16-2.97-.21-4.48-.18-.14-.36-.28-.53-.42-1.62-1.33-3.11-2.69-4.46-4.07Z"/>
              <path class="cls-67" d="M622.13,701.25c-1.88-1.29-3.26-2.41-4.81-4.09-1.54-1.68-3.25-3.95-5.62-7.44-2.94-4.29-4.33-9.68-5.54-15.13-1.9-8.47-2.79-21.27-2.89-34.38-.1-13.11.59-26.58,1.8-36.5.19-1.58.4-3.08.61-4.46.15-.94-.49-1.81-1.43-1.96-.94-.15-1.81.49-1.96,1.43-.22,1.43-.43,2.96-.63,4.58-1.23,10.12-1.92,23.69-1.82,36.94.1,13.26.98,26.17,2.97,35.1,1.24,5.5,2.66,11.33,6.05,16.32,2.41,3.54,4.2,5.93,5.93,7.82,1.72,1.89,3.39,3.24,5.41,4.61.78.53,1.85.33,2.38-.45.53-.78.33-1.85-.45-2.38h0Z"/>
              <path class="cls-23" d="M605.03,604.07c-.34-.53-.69-1.05-1.09-1.54-.5-.62-1.05-1.21-1.75-1.59-.07-.04-.15-.06-.22-.09-.11.79-.22,1.61-.32,2.45-.76,6.27-1.31,13.86-1.6,21.88.36.31.79.54,1.25.65.72.17,1.47.07,2.16-.19.28-7.92.82-15.4,1.55-21.57Z"/>
              <path class="cls-23" d="M583.01,608.08c.4,1.24.84,2.61,1.34,4.06.93.28,1.9.45,2.98.37.25-.02.51-.05.76-.09-.69-1.91-1.28-3.73-1.81-5.38-.29-.9-1.25-1.4-2.16-1.11s-1.4,1.25-1.11,2.16h0Z"/>
              <path class="cls-44" d="M676.9,478.25c-5.5-3.74-14.47-3.1-19.76,1.26-4.32-6.46-13.75-9.74-21.12-10.28-.31-.02-.61,0-.54.36,1.99,9.85,11.48,16.12,19.66,20.8,2,1.14,6.04,1.71,2.15-.51-4.46-2.55-8.85-5.54-12.14-9.56-.7-.85-4.24-5.36-3.56-6.5,3.07.82,6.14,1.64,9.21,2.46,2.03,2.18,3,4.75,2.91,7.71,0,.23.23.52.57.83-.06.09-.12.18-.19.26-.67.94,4.62,2.9,5.22,2.97,4.88.55,28.84-2.16,17.58-9.8ZM661.12,484.69c3.21-3.33,9.99-8.05,12.18-5.22,2.52,3.25-5.82,4.68-12.18,5.22Z"/>
              <polygon class="cls-62" points="698.15 546.5 637.32 545.89 632.97 482.46 697.76 485.09 698.15 546.5"/>
              <path class="cls-78" d="M679.06,493.63c-6.29-.93-43.39,1.31-45.21,1.73l.16,3.07c19.16-2.66,35.27-3.21,44.03-3.44.21.07,1.16-1.36,1.02-1.36Z"/>
              <path class="cls-78" d="M635.78,494.99c-1.58-8.1-2.81-12.53-2.81-12.53l-15.76,16.19s.83,2.74,1.94,7.6c1.04.08,3.21.76,3.21.76,0,0,11.93-10.62,13.43-12.03Z"/>
              <path class="cls-78" d="M628.22,549.76c.26,4.05,13.29,10.07,12.89,2.91-.79-32.08-7.84-59.45-7.84-59.45l-12.3,11.87s5.56,18.43,7.25,44.66Z"/>
              <path class="cls-23" d="M772.9,598.47c-.92-.22-1.85.34-2.07,1.26v.03c-.2.76-4.11,15.68-16.88,30.3-6.38,7.31-14.97,14.56-26.43,19.99-.77.37-1.59.7-2.39,1.05.24,1.17.24,2.4.33,3.61,1.4-.59,2.77-1.19,4.1-1.83,18.05-8.71,29.2-21.78,35.82-32.65,6.62-10.88,8.75-19.57,8.78-19.69.22-.92-.34-1.85-1.26-2.07Z"/>
              <path class="cls-31" d="M550.77,586.11c-1.19-7.53-.88-21.79,23.27-41.38,24.15-19.59,36.78,19.03,36.78,19.03l-60.05,22.35Z"/>
              <path class="cls-64" d="M569.6,554.31c-3,3.17-5.32,6.4-4.92,11.32.39,4.84,4.81,8.48,9.44,9.62,4.63,1.14,9.82,2.3,14.57,2.01,16.1-.98,31.27,4.84,46.8,9.3,15.53,4.46,31.06,8.88,47.19,8.9,16.13.01,60.54,18.16,70.79,5.47,9.67-11.96,19.51-34.03,21.48-49.4.73-5.7-.25-27.44-33.57-27.61-15.51-7.2-33.59,2.8-52.92,7.06-24.51,5.41-45.42-4.54-69.14,3.75-20.61,7.21-32.66,6.52-49.73,19.58Z"/>
              <g>
                <g>
                  <g>
                    <polygon class="cls-42" points="582.03 537.88 645.54 509.5 605.83 517.08 555.28 538.14 582.03 537.88"/>
                    <polygon class="cls-45" points="581.63 527.16 610.52 525.15 613.32 523.89 622.68 519.71 591.43 523.08 581.63 527.16"/>
                    <path class="cls-36" d="M594.31,611.96l15.62-1.15-21.78-56.83-26.39-4.61c.38.79,24.15,59.08,24.15,59.08l8.41,3.5Z"/>
                    <path class="cls-51" d="M571.17,552.24c1.71.71,16.37,40.96,16.37,40.96l7.17.7-15.97-40.97-7.57-.7Z"/>
                    <path class="cls-48" d="M634.58,609.01l35.62-18.35s-22.59-65.63-22.97-66.42l-60.11,26.97,22.82,59.61,24.65-1.81Z"/>
                    <polygon class="cls-77" points="634.67 604.42 647.18 600.01 624.83 534.28 612.67 539.73 634.67 604.42"/>
                    <path class="cls-25" d="M648.65,532.54c1.52-.29-1.37-8.19-1.43-8.31l-85.47,25.15c.07.15.92,2.21,2.23,5.42l26.24,4.86s37.41-23.15,58.43-27.12Z"/>
                    <polygon class="cls-48" points="582.03 537.88 588.14 553.99 650.37 524.75 645.54 509.5 582.03 537.88"/>
                    <polygon class="cls-36" points="582.03 537.88 588.14 553.99 561.07 551.49 555.28 538.14 582.03 537.88"/>
                  </g>
                  <polygon class="cls-45" points="564.66 538.05 572.47 537.97 630.33 512.4 618.07 514.74 564.66 538.05"/>
                  <polygon class="cls-38" points="570.16 552.33 577.73 553.03 572.47 537.97 570.89 537.99 564.66 538.05 570.16 552.33"/>
                  <g>
                    <path class="cls-33" d="M606.84,492.38c2.82,1.4,3.74,13-6.56,28.46-.16.22,1.12,3.11,1.12,3.11,7.76-7.47,25.44-27.89,17.36-36.84-3.21-.42-11.92,5.27-11.92,5.27Z"/>
                    <path class="cls-33" d="M561.95,514.69c.1,3.41,8.93,11.12,34.89,10.28.36-.28-2.35-2.05-2.35-2.05-10.06.24-22.22-4.63-23.29-9.77-1.07-5.14-9.24,1.55-9.24,1.55Z"/>
                    <path class="cls-45" d="M598.22,524.39c-8.59-17.59-1-36.37,5.81-37.19,4.08-.35,14.73-.08,14.73-.08-9.32,5.87-17.35,20.83-17.36,36.84-2.65.81-3.18.43-3.18.43Z"/>
                    <path class="cls-45" d="M598.01,522.9c-2.98-13.4-20.96-19.24-27.94-17.51-.88.78-8.11,9.3-8.11,9.3,6.31-2.57,15.78-3.32,34.89,10.28,8.1-1.25,1.17-2.07,1.17-2.07Z"/>
                  </g>
                  <polygon class="cls-33" points="615.89 540.95 627.97 535.28 622.68 519.71 610.52 525.15 615.89 540.95"/>
                </g>
                <path class="cls-33" d="M596.33,518.21c-.79,1.38-1.84,7.18.77,6.95,2.53-.22,3.5.02,4.22-1.27-1.9-.13-4.58-5.27-4.98-5.68Z"/>
                <path class="cls-1" d="M568.33,513.24c1.09-.27,4.28.07,6.9.69,2.52-1.66,2.87-5.55,3.22-8.08-1.48-.36-2.9-.59-4.2-.68.34,1.17-2.82,6.05-5.92,8.08Z"/>
                <path class="cls-1" d="M601.75,488.12c-1.32.89-2.59,2.37-3.69,4.31,9.47-4.26,11.28-3.69,14.97-.36,1.4-1.56,2.87-2.91,4.39-4.03-4.14-1.09-11.09-.73-15.67.08Z"/>
              </g>
              <g>
                <g>
                  <polygon class="cls-45" points="742.82 572.79 666.64 557.24 678.49 486.09 758.56 504.45 742.82 572.79"/>
                  <g class="cls-80">
                    <g class="cls-72">
                      <path class="cls-3" d="M671.51,512c-.23,1.34-.47,2.68-.71,4.02l10.39,34.29,1.74-.61-11.43-37.7Z"/>
                      <path class="cls-3" d="M673.9,498.43c-.26,1.3-.5,2.6-.73,3.9l15.07,49.11,1.74-.62-16.08-52.39Z"/>
                      <path class="cls-3" d="M676.78,486.71c-.33,1.07-.64,2.14-.94,3.22l19.43,62.63,1.74-.62-20.24-65.22Z"/>
                      <polygon class="cls-3" points="681.19 486.25 702.32 553.67 704.06 553.04 683.18 486.42 681.19 486.25"/>
                      <polygon class="cls-3" points="687.87 486.82 709.37 554.79 711.1 554.16 689.87 486.99 687.87 486.82"/>
                      <path class="cls-3" d="M694.71,487.82l21.7,68.09,1.74-.64-21.33-66.91c-.7-.18-1.41-.36-2.11-.54Z"/>
                      <polygon class="cls-3" points="702.12 490.59 723.45 557.03 725.19 556.39 704.12 490.76 702.12 490.59"/>
                      <path class="cls-3" d="M708.95,491.48l21.55,66.66,1.73-.64-21.17-65.48c-.71-.17-1.41-.36-2.11-.53Z"/>
                      <path class="cls-3" d="M717.22,493.44c-.39-.09-.78-.18-1.17-.27l21.5,66.1,1.73-.65-21.12-64.96c-.31-.07-.62-.15-.93-.22Z"/>
                      <path class="cls-3" d="M745.8,559.92c.08-.35.15-.71.23-1.06l-20.54-62.81c-.77-.31-1.53-.64-2.28-1.03l21.38,65.36,1.22-.46Z"/>
                      <path class="cls-3" d="M748.69,546.64l-16-48.67c-.69-.11-1.38-.23-2.07-.38l17.28,52.55c.26-1.17.52-2.34.79-3.5Z"/>
                      <path class="cls-3" d="M751.7,535.61l-12.04-36.45c-.71-.17-1.41-.33-2.12-.51l13.23,40.04c.3-1.03.61-2.06.93-3.08Z"/>
                      <path class="cls-3" d="M755.03,525.68l-8.33-25.1c-.7-.1-1.38-.2-2.05-.31l9.38,28.28c.33-.96.66-1.91,1-2.86Z"/>
                      <path class="cls-3" d="M757.58,518.27c.23-.9.47-1.8.71-2.7l-4.66-13.97c-.68-.13-1.37-.24-2.07-.35l5.84,17.53c.06-.17.12-.34.17-.51Z"/>
                    </g>
                  </g>
                </g>
                <path class="cls-28" d="M677.47,492.2s50.24,11.2,78.58,21.37c.66-2.25,2.5-9.13,2.5-9.13l-80.07-18.36-1.02,6.11Z"/>
                <g>
                  <polygon class="cls-45" points="761.63 505.39 675.1 486.64 677.91 470.21 765.29 488.94 761.63 505.39"/>
                  <g class="cls-52">
                    <g class="cls-59">
                      <path class="cls-3" d="M676.31,476.9c-.25,1.47-.51,2.95-.78,4.42l11.41,37.64,1.92-.67-12.54-41.39Z"/>
                      <path class="cls-3" d="M678.94,461.99c-.28,1.42-.55,2.85-.81,4.28l16.54,53.9,1.91-.68-17.65-57.51Z"/>
                      <path class="cls-3" d="M682.1,449.13c-.36,1.17-.71,2.35-1.03,3.53l21.33,68.75,1.91-.68-22.21-71.6Z"/>
                      <polygon class="cls-3" points="686.94 448.62 710.14 522.63 712.04 521.95 689.13 448.81 686.94 448.62"/>
                      <polygon class="cls-3" points="694.28 449.25 717.87 523.86 719.77 523.17 696.46 449.44 694.28 449.25"/>
                      <path class="cls-3" d="M701.78,450.35l23.82,74.74,1.91-.7-23.41-73.45c-.77-.2-1.55-.4-2.32-.6Z"/>
                      <polygon class="cls-3" points="709.92 453.4 733.33 526.32 735.23 525.61 712.11 453.58 709.92 453.4"/>
                      <path class="cls-3" d="M717.41,454.37l23.65,73.17,1.9-.71-23.23-71.88c-.78-.19-1.55-.39-2.32-.58Z"/>
                      <path class="cls-3" d="M726.49,456.52c-.43-.09-.86-.2-1.29-.3l23.59,72.55,1.9-.71-23.19-71.3c-.34-.08-.68-.17-1.02-.24Z"/>
                      <path class="cls-3" d="M757.86,529.5c.08-.39.17-.78.25-1.17l-22.55-68.94c-.84-.34-1.68-.71-2.5-1.13l23.46,71.74,1.34-.5Z"/>
                      <path class="cls-3" d="M761.03,514.92l-17.56-53.42c-.76-.12-1.52-.26-2.27-.42l18.96,57.68c.28-1.28.57-2.56.87-3.84Z"/>
                      <path class="cls-3" d="M764.33,502.81l-13.22-40.01c-.77-.19-1.55-.37-2.32-.56l14.52,43.95c.33-1.13.67-2.26,1.02-3.38Z"/>
                      <path class="cls-3" d="M768,491.91l-9.14-27.56c-.77-.11-1.51-.22-2.25-.34l10.3,31.04c.36-1.05.73-2.1,1.1-3.14Z"/>
                      <path class="cls-3" d="M770.79,483.78c.25-.99.52-1.98.78-2.97l-5.11-15.34c-.75-.14-1.51-.27-2.27-.38l6.41,19.24c.06-.19.13-.37.19-.56Z"/>
                    </g>
                  </g>
                </g>
              </g>
              <g>
                <polygon class="cls-75" points="692.93 605.01 620.5 591.3 619.82 538.88 698.25 542.12 692.93 605.01"/>
                <g class="cls-54">
                  <path class="cls-3" d="M629.09,573.49c0,.77-.58,1.39-1.29,1.39s-1.29-.62-1.29-1.39.58-1.39,1.29-1.39,1.29.62,1.29,1.39Z"/>
                  <path class="cls-3" d="M638.74,564.23c0,.77-.58,1.39-1.29,1.39s-1.29-.62-1.29-1.39.58-1.39,1.29-1.39,1.29.62,1.29,1.39Z"/>
                  <path class="cls-3" d="M624.85,556.81c0,.77-.58,1.39-1.29,1.39s-1.29-.62-1.29-1.39.58-1.39,1.29-1.39,1.29.62,1.29,1.39Z"/>
                  <path class="cls-3" d="M637.94,550.27c0,.77-.58,1.39-1.29,1.39s-1.29-.62-1.29-1.39.58-1.39,1.29-1.39,1.29.62,1.29,1.39Z"/>
                  <path class="cls-3" d="M627.05,544.24c0,.77-.58,1.39-1.29,1.39s-1.29-.62-1.29-1.39.58-1.39,1.29-1.39,1.29.62,1.29,1.39Z"/>
                  <path class="cls-3" d="M647.69,556.69c0,.77-.58,1.39-1.29,1.39s-1.29-.62-1.29-1.39.58-1.39,1.29-1.39,1.29.62,1.29,1.39Z"/>
                  <path class="cls-3" d="M673.95,557.85c0,.77-.58,1.39-1.29,1.39s-1.29-.62-1.29-1.39.58-1.39,1.29-1.39,1.29.62,1.29,1.39Z"/>
                  <path class="cls-3" d="M680.03,546.48c0,.77-.58,1.39-1.29,1.39s-1.29-.62-1.29-1.39.58-1.39,1.29-1.39,1.29.62,1.29,1.39Z"/>
                  <path class="cls-3" d="M677.95,567.33c0,.77-.58,1.39-1.29,1.39s-1.29-.62-1.29-1.39.58-1.39,1.29-1.39,1.29.62,1.29,1.39Z"/>
                  <path class="cls-3" d="M671.39,578.53c0,.77-.58,1.39-1.29,1.39s-1.29-.62-1.29-1.39.58-1.39,1.29-1.39,1.29.62,1.29,1.39Z"/>
                  <path class="cls-3" d="M652.5,545.1c0,.77-.58,1.39-1.29,1.39s-1.29-.62-1.29-1.39.58-1.39,1.29-1.39,1.29.62,1.29,1.39Z"/>
                  <path class="cls-3" d="M642.29,577.32c0,.77-.58,1.39-1.29,1.39s-1.29-.62-1.29-1.39.58-1.39,1.29-1.39,1.29.62,1.29,1.39Z"/>
                  <path class="cls-3" d="M650.1,569.17c0,.77-.58,1.39-1.29,1.39s-1.29-.62-1.29-1.39.58-1.39,1.29-1.39,1.29.62,1.29,1.39Z"/>
                  <path class="cls-3" d="M653.14,583.35c0,.77-.58,1.39-1.29,1.39s-1.29-.62-1.29-1.39.58-1.39,1.29-1.39,1.29.62,1.29,1.39Z"/>
                </g>
                <polygon class="cls-49" points="653.69 596.95 666.45 598.44 668.71 540.9 654.18 540.3 653.69 596.95"/>
                <path class="cls-26" d="M619.88,543.72s45.86,1.18,77.5,12.72c.24-2.88.87-14.32.87-14.32l-78.43-3.24.06,4.84Z"/>
                <g>
                  <path class="cls-49" d="M650.84,522.29s-12.41-3.92-16.31-15.49c-.93-.74-7-5.05-7-5.05,2.69,13.05,9.25,22.95,27.74,23.55.36.25-4.43-3.02-4.43-3.02Z"/>
                  <path class="cls-41" d="M658.73,524.47c-3.08.2-13.42-1.17-13.96-12.88-.54-11.71,8.76-12.05,13.47-11.66,4.35.2,4.48.34,4.48.34-9.79,5.07-10.52,9.95-9.61,13.86.91,3.9,5.44,7.22,9.43,8.98-.91.98-3.81,1.37-3.81,1.37Z"/>
                  <path class="cls-70" d="M666.49,524.71c-2.16-2.28-7.6-6.81-5.06-15.4,2.54-8.59,14.47-11.86,18.99-5.37-8.88,1.37-11.37,13.96-6.11,18.06-3.8,2.85-7.82,2.71-7.82,2.71Z"/>
                  <path class="cls-70" d="M682.54,524.34s13.88-.39,17.51-12.89c-1.09-.2-6.35-5.86-6.35-5.86,0,0-.54,10.54-10.88,16.4-.54,1.56-.29,2.35-.29,2.35Z"/>
                  <path class="cls-49" d="M670.94,500.78s9.13-1.74,11.53-1.43c3.81.2,9.61,5.66,8.52,14.25-1.09,8.59-9.97,11.52-18.68,10.54,6.16-.98,9.97-6.64,9.79-12.1-.18-5.47-3.32-12.23-11.17-11.26Z"/>
                  <path class="cls-49" d="M657.15,524.61c14.32-1.56,9.03-24.07-2.55-24.7,2.72-.2,11.2-1.01,12.65-.62,12.33,3.9,10.85,19.4.71,25.12-3.07,1.04-10.82.2-10.82.2Z"/>
                </g>
                <path class="cls-46" d="M665.26,524.32c.19,0,24.55,1.37,24.55,1.37-.82-1.71-5.52-3.76-14.28-3.28-8.76.48-10.28,1.91-10.28,1.91Z"/>
                <path class="cls-75" d="M701.46,541.7c-.05.47-.4.82-.84.82-3.71.01-20.75,0-43.17-1.08-22-1.07-36.46-2.1-39.96-2.36-.46-.03-.81-.46-.79-.96l.56-15.29c.02-.51.42-.91.89-.89l84.09,3.08c.5.02.88.49.83,1.03l-1.61,15.65Z"/>
                <path class="cls-49" d="M652.05,523.18l-.44,17.97c1.89.1,3.82.19,5.84.29,3.01.15,5.92.27,8.72.38h0l.72-18.1-14.85-.54Z"/>
                <g class="cls-39">
                  <path class="cls-3" d="M674.71,537.98c0,.77-.58,1.39-1.29,1.39s-1.29-.62-1.29-1.39.58-1.39,1.29-1.39,1.29.62,1.29,1.39Z"/>
                  <ellipse class="cls-3" cx="683.06" cy="528.72" rx="1.29" ry="1.39"/>
                  <path class="cls-5" d="M668.11,524.05c0,.77.58,1.39,1.29,1.39s1.29-.62,1.29-1.39c0-.07-.03-.13-.04-.2l-2.5-.09c-.02.1-.05.18-.05.29Z"/>
                  <path class="cls-3" d="M701.96,525.46c0-.16-.04-.31-.09-.45l-2.4-.09c-.07.17-.1.35-.1.54,0,.77.58,1.39,1.29,1.39s1.29-.62,1.29-1.39Z"/>
                  <path class="cls-3" d="M649.14,535.62c0,.77-.58,1.39-1.29,1.39s-1.29-.62-1.29-1.39.58-1.39,1.29-1.39,1.29.62,1.29,1.39Z"/>
                  <path class="cls-3" d="M636.32,537.33c-.71,0-1.29.62-1.29,1.39,0,.44.2.82.5,1.07l1.51.06c.34-.25.58-.65.58-1.13,0-.77-.58-1.39-1.29-1.39Z"/>
                  <path class="cls-3" d="M639.7,527.7c0,.77-.58,1.39-1.29,1.39s-1.29-.62-1.29-1.39.58-1.39,1.29-1.39,1.29.62,1.29,1.39Z"/>
                  <path class="cls-3" d="M627.37,530.8c0,.77-.58,1.39-1.29,1.39s-1.29-.62-1.29-1.39.58-1.39,1.29-1.39,1.29.62,1.29,1.39Z"/>
                  <path class="cls-5" d="M647.83,523.22c0,.77.58,1.39,1.29,1.39s1.29-.62,1.29-1.39c0-.04-.02-.07-.02-.1l-2.53-.09c0,.07-.04.12-.04.19Z"/>
                  <path class="cls-3" d="M619.68,536.81c-.71,0-1.29.62-1.29,1.39,0,.34.13.65.32.89l1.9.08c.23-.25.37-.59.37-.97,0-.77-.58-1.39-1.29-1.39Z"/>
                  <path class="cls-3" d="M620.62,522.7c0,.77.58,1.39,1.29,1.39s1.29-.62,1.29-1.39c0-.21-.05-.4-.13-.58l-2.28-.08c-.1.2-.18.42-.18.67Z"/>
                  <path class="cls-3" d="M686.62,540.42c-.72,0-1.29.62-1.29,1.39,0,.01,0,.03,0,.04l2.55.11s.03-.09.03-.14c0-.77-.58-1.39-1.29-1.39Z"/>
                  <path class="cls-3" d="M695.72,533.66c0,.77-.58,1.39-1.29,1.39s-1.29-.62-1.29-1.39.58-1.39,1.29-1.39,1.29.62,1.29,1.39Z"/>
                </g>
                <path class="cls-5" d="M684.79,524.38l-61.93-2.27c4.74,1.89,12.37,3.19,28.36,3.73,22.62.77,32.59-1.25,33.57-1.46Z"/>
                <path class="cls-49" d="M664.17,523.56c4.94.5,28.78.04,29.45,13.54,2.51.56,5.83-2.12,5.83-2.12-.41-11.69-17.37-14.82-35.28-11.42Z"/>
              </g>
              <g>
                <polygon class="cls-50" points="774.25 578.34 707.17 622.4 671.86 556.56 742.25 524.59 774.25 578.34"/>
                <polygon class="cls-73" points="761.08 556.2 756.68 548.82 728.84 563.52 713.45 537.67 705.6 541.24 721.25 567.53 687.35 585.43 691.4 592.99 725.64 574.91 740.77 600.33 747.95 595.62 733.24 570.9 761.08 556.2"/>
                <polygon class="cls-30" points="684.59 629.66 708.08 629.34 672.77 563.5 652.35 612.02 684.59 629.66"/>
                <polygon class="cls-22" points="666.69 577.95 679.53 611.33 706.78 627.72 672.58 563.95 666.69 577.95"/>
                <path class="cls-61" d="M707.17,622.4l-35.31-65.84-6.16,14.63s6.74,14.14,14.69,31.26c6.28,13.52,13.24,24.99,13.24,24.99l13.54-5.04Z"/>
              </g>
              <path class="cls-76" d="M680.7,599.2c1.01,1.28,2.48,4.11-.02,3.76-1.89-.27,1.62,3.42,2.43,5.06l8.31-15.02-4.05-7.56-6.66,13.76Z"/>
              <path class="cls-29" d="M758.66,533.43c.56,4.33.84,8.44.31,11.81-.27,17.49-7.23,35.51-30.74,42.89-27.55,8.65-68.81-8.55-93.17-14.82-27.68-7.13-40.71-2.06-53.06-3.29-14.09-1.4-16.25-11.03-16.25-11.03,0,0-4.81,6.45-3.76,24.49,7.97,8.46,21.55,10.67,28.7,11.6,15.1,1.97,32.77-1.87,52.65,8.14,22.4,11.28,90.45,24.41,118.52-2.72,17.64-17.06,18.03-36.76,14.31-52.36-5.68-5.03-11.57-9.9-17.5-14.71Z"/>
              <path class="cls-37" d="M508.87,584.41c1.13,5.45,3.83,10.55,7.65,15.1,5.74,6.83,14.02,12.48,23.61,16.45,9.6,3.97,20.52,6.25,31.6,6.25,13.03,0,26.28-3.17,37.74-10.55.8-.51,1.03-1.57.51-2.37-.51-.8-1.57-1.03-2.37-.51-10.8,6.97-23.4,10-35.88,10-14.14,0-28.11-3.91-38.97-10.29-5.43-3.19-10.09-6.99-13.61-11.19-3.53-4.2-5.93-8.79-6.92-13.59-.19-.93-1.1-1.52-2.03-1.33-.93.19-1.52,1.1-1.33,2.03h0Z"/>
              <path class="cls-68" d="M791.03,552.28c-2.77-14.47-12.99-25.98-21.98-31.64-3.55-2.24-8.55-4.92-12.8-6.3-.14.6-1.51,6.53-1.88,8.37.31.96.4,1.99.71,3.3,1.46,6.22,4.79,20.99,4.22,24.64-.49,18.99-7.67,38.45-31.27,46.13-27.66,9.01-68.7-10.25-92.98-17.4-27.59-8.13-40.68-2.81-53.01-4.31-14.07-1.72-17.2-13-17.2-13,0,0-21.71,11.75-13.27,29.58,7.86,9.3,28.68,17.28,35.81,18.39,15.08,2.35,32.03-.04,52.55,9.58,63.65,29.84,115.47,22.01,143.87-7.06,17.86-18.27,14.26-43.11,7.24-60.27Z"/>
              <path class="cls-3" d="M735.7,593.56c.24,5.64,1.66,8.72,5.07,6.77,13.16-7.54,19.95-17.08,21.39-32.77,1.44-15.69-2.16-23.46-5.04-32.68l-.06.03c1.34,6.35,2.6,13.36,2.23,15.73-.43,16.74-6.08,33.84-23.59,42.92Z"/>
              <path class="cls-3" d="M642.55,581.76l-40.23-5.69c-5.49.09-17.28,1.08-23.45-.31-4.78,3.09-1.08,18.51.41,32.02,3.33,1.16,6.2,1.95,8.1,2.25,15.08,2.35,32.03-.04,52.55,9.58,21.99,10.31,42.57,16.12,61.26,18.11,12.08-8.63,23.6-23.11,26.84-40.94-24.98,8.13-60.87-6.78-85.47-15.02Z"/>
              <path class="cls-3" d="M750.77,580.39c-4.86,7.1-12.15,12.93-22.75,16.39-27.66,9.01-68.7-10.25-92.98-17.4-27.59-8.13-40.68-2.81-53.01-4.31-14.07-1.72-17.2-13-17.2-13-2.83,1.44-.18,7.83,2.53,10.69,3.59,3.79,12.06,6.73,24.14,6,21.44-1.29,35.16.27,59.61,14.43,20.63,11.94,56.82,20.52,83.34,10.29,4.91-1.89,11.62-5.87,14.3-9.96,4.46-6.8,2.58-13.94,2.02-13.12Z"/>
              <path class="cls-9" d="M671.95,556.72c19.4-2.7,66.66-27.62,70.02-32.15l-70.1,31.99.08.16Z"/>
              <path class="cls-65" d="M642.88,608.12c-3.37-3.72-6.72-7.67-11.64-9.91-6.68-3.05-15.68-2.1-21.22,2.23-3.62,2.83-5.57,6.95-5.58,11.06,10.67.71,22.34,1.94,35.49,8.1,9.23,4.33,18.2,7.85,26.89,10.64-8.72-6.79-16.75-14.19-23.94-22.12Z"/>
              <path class="cls-69" d="M762.73,569.05c.41-.4-6.19-5.26-7.7-3.77-5.98,5.9-14.45,7.25-22.21,4.69.41-.42.82-.84,1.25-1.26,5.84-5.66,17.97-17.82,6.51-24.08-9.58-5.24-16.65,5.66-17.93,14.12-.15,1.02-.11,2.29-.11,3.61-4.51-3.54-9.67-6.41-14.8-8.54-4.41-1.83-16.22-5.46-18.32,1.69-1.73,5.89,9.02,11.31,12.99,13.07,5.48,2.43,11.36,3.66,17.31,4.24-3.34,5.59-4.88,12.17-4.22,18.7,1.18,11.74,10.94,21.83,23.24,20.26.02,0-4.82-4.41-7.2-4.1-9.83,1.26-8.8-18.22-7.49-23.21,1.15-4.39,3.25-8.03,5.96-11.34.02-.01.04-.02.05-.03,0-.01,0-.02,0-.03.41-.5.83-1,1.27-1.48,10.48,4.38,22.52,6.26,31.41-2.52ZM738.11,548.66c-.03,3.95-3.53,8.34-7.3,12.16.98-5.15,3.09-9.9,7.3-12.16ZM707.35,567.78c-5.48-1.14-15.85-8.54-6.19-11.92,7.07-2.47,16.64,5.39,20.7,10.18.08.1.2.2.33.3-.31,1.16-.88,2.15-1.93,2.77-2.11,1.25-10.85-.9-12.92-1.33Z"/>
              <g>
                <path class="cls-31" d="M794.26,561.79c3.48,15.37,2.47,33.36-11.3,47.45-28.4,29.06-80.22,36.9-143.87,7.06-20.52-9.62-37.47-7.23-52.54-9.58-7.14-1.11-27.95-9.09-35.81-18.39-.36-.76-.65-1.51-.9-2.25.27,1.78.82,3.63,1.73,5.55,7.86,9.3,28.68,17.28,35.81,18.39,15.08,2.35,32.03-.04,52.55,9.58,63.65,29.84,115.47,22.01,143.87-7.06,14.77-15.12,14.86-34.72,10.47-50.75Z"/>
                <path class="cls-31" d="M790.08,548.43c.04.18.09.36.12.54.05.12.1.24.14.36-.08-.31-.18-.6-.27-.91Z"/>
              </g>
              <g>
                <path class="cls-67" d="M626.12,714.61s7.94-5.54,7.39-12.05c-3-.82-14.37-.85-14.37-.85l6.98,12.9Z"/>
                <path class="cls-67" d="M617.88,701.76c.55-1.46,2.18-2.2,3.65-1.65,1.46.55,2.2,2.19,1.65,3.65-.55,1.46-2.19,2.2-3.65,1.65-1.46-.55-2.2-2.19-1.65-3.65Z"/>
              </g>
            </g>
            <path class="cls-7" d="M675.84,508.76c-.36-2.19-1.3-4.24-2.86-5.94-2.02-1.94-4.97-3.13-9.02-2.13-1.71.42-2.76,1.06-3.38,1.79,2.24,1.96,3.88,4.84,4.68,7.88l.15.04c0-3.82,6.59-8.08,10.44-1.63Z"/>
            <path class="cls-7" d="M693.22,534.7c2.6-1.07,4.3-2.31,5.4-3.48-.63-1.48-1.61-2.76-2.87-3.86-2.38.87-5.13,1.31-7,1.53,2.13,1.46,3.75,3.35,4.47,5.82Z"/>
            <path class="cls-7" d="M677.09,501.94c3.4,2.08,4.89,6.39,5.02,10.1.03,1-.07,2.01-.29,2.99,2.28-4.22,1.23-11.52.32-12.57-1.28-1.47-3.64-.98-5.04-.51Z"/>
          </g>
          <g>
            <path d="M282.04,712.1c3.49,11.33,13.14,18.99,24.43,19.61,12.13.66,22.83-6.43,27.18-17.22.29-.73.49-1.49.74-2.23.41-1.18,1.2-1.66,2.49-1.67,3.77-.05,7.54-.15,11.3-.35,23.45-1.24,45.33-7.86,65.78-19.32.41-.23.86-.42,1.21-.72,2.1-1.8,4.05-1.41,6.33-.1,4.61,2.67,9.33,5.18,14.12,7.53,8.3,4.08,16.73,4.07,24.91-.21,17.29-9.06,19.94-32.4,5.02-45.18-1.19-1.02-2.49-1.91-3.75-2.86-.36-1.09.53-1.68,1-2.41,2.55-3.96,5.21-7.85,7.63-11.88,1-1.66,2.02-2.44,4.06-2.4,6.91.13,13.82-.02,20.73.04,3.02.03,5.98-.34,8.82-1.26,14.21-4.59,20.45-17.88,19.1-29.05-1.99-16.48-15.67-24.41-26.19-24.43-.94,0-1.89-.05-2.83-.02-4.87.15-4.12-.03-3.75-3.95.97-10.35,1.08-20.72-.03-31.05-2.93-27.27-12.39-52.06-28.6-74.22-1.67-2.28-3.35-4.56-5.22-6.68-1.53-1.73-2.29-3.68-2.66-5.9-1.93-11.61-3.87-23.22-5.85-34.82-.79-4.64-1.67-9.26-2.51-13.9-.11-.62-.15-1.25-.3-1.86-.49-2.04-1.8-3.31-3.86-3.62-1.91-.29-3.32.69-4.37,2.21-.62.9-1.16,1.86-1.73,2.8-4.32,7.11-8.62,14.23-12.96,21.33-1.24,2.03-1.33,2.05-3.23.9-4.57-2.76-9.19-5.43-14.05-7.64-1.62-.74-2.34-1.89-2.65-3.52-1.04-5.39-2.15-10.77-3.18-16.16-1.38-7.24-2.69-14.5-4.04-21.75-.17-.92-.37-1.86-.69-2.74-1.2-3.37-5.17-4.14-7.54-1.44-.82.94-1.45,2.05-2.15,3.09-5.98,8.84-12.03,17.64-17.87,26.57-1.49,2.28-3.03,3.1-5.74,2.61-7.75-1.39-15.59-1.89-23.46-1.69-49.57,1.28-89.68,21.49-120.05,60.64-15.19,19.58-24.46,41.92-28.56,66.35-3.4,20.23-2.59,40.36,2.04,60.33.11.46.3.9.39,1.36.19.95-.33,1.53-1.28,1.38-3.1-.5-6.2-.99-9.28-1.55-15.8-2.91-31.15-7.27-45.73-14.11-11.59-5.44-22.27-12.26-31.53-21.16-9.55-9.18-16.92-19.83-21-32.5-5.94-18.44-3.9-36.26,4.98-53.35,6.58-12.67,16.12-22.73,27.83-30.79,11.92-8.2,25.08-13.54,39.12-16.77,4.73-1.09,9.54-1.93,14.34-2.66,12.38-1.87,22.08-12.69,22.84-25.19.83-13.61-8.22-25.07-20.26-28.26-4.35-1.15-8.73-1.03-13.09-.38-20.64,3.09-40.4,8.97-58.87,18.83-23.93,12.78-43.34,30.42-57.3,53.82-9.72,16.29-15.66,33.9-17.22,52.8-2.7,32.91,6.4,62.41,26.65,88.44,12.81,16.47,28.71,29.35,46.8,39.61,17.31,9.82,35.79,16.69,55.04,21.55,15.24,3.85,30.7,6.47,46.38,7.78,6.26.52,12.52.99,18.79,1.39,1.53.1,2.59.65,3.61,1.81,4.09,4.67,4.12,4.63,4.13,10.82.03,12.72.14,25.45.07,38.17-.06,10.8,7.36,22.58,20.09,26.03,13.3,3.61,27.27-3.13,32.57-15.82.54-1.29.83-2.69,1.23-4.04,1.35-.9,1.28.41,1.64,1.06Z"/>
            <path class="cls-43" d="M282.04,712.1c-.04-.55.02-1.14-.14-1.65-.15-.49-.47-1.17-1.14-.91-.65.25-.49.94-.36,1.5.55.35,1.09.71,1.64,1.06Z"/>
            <path class="cls-81" d="M382.98,520.72c-6.66-1.53-11.11-5.56-13.32-12-3.32-9.69,2.29-20.3,12.13-23.08,1.36-.38,2.75-.63,4.13-.94.31-.21.41-.42.31-.63-.1-.21-.2-.32-.3-.32-11.84-3.39-24.27,5.16-25.49,17.41-1.12,11.2,6.4,21.05,17.65,22.8,4,.62,7.77-.18,11.45-1.67-1.6-2.97-4.59-.17-6.56-1.57Z"/>
            <path class="cls-32" d="M444.29,520.46c-2.31.29-4.57.67-6.96.38-5.7-.7-11.81-5.73-12.86-12.5-1.11-7.14,2.1-13.74,8.32-16.77,1.24-.61,2.64-.89,3.97-1.32.47-.71,2.39.21,1.85-1.64-2.82-.34-5.63-.46-8.4.34-10.3,2.96-15.86,13.86-12.17,23.87,3.59,9.73,14.82,14.47,24.41,10.27,1-.44,1.89-1.09,2.84-1.65.21-.87.02-1.34-.99-.99Z"/>
            <path class="cls-32" d="M402.22,540.16c.1.28.18.76.42,1.15,2.25,3.77,4.5,7.55,6.82,11.28.86,1.39,2.1,1.52,3.05.3,2.7-3.46,5.36-6.96,7.94-10.52,1.03-1.42.27-2.73-1.59-2.88-4.54-.35-9.08-.64-13.63-.93-.62-.04-1.29-.08-1.87.09-.58.17-1.06.64-1.15,1.52Z"/>
            <path class="cls-35" d="M382.98,520.72c.98,1.06,2.3.76,3.51.88,1.04.11,2.22-.36,3.05.68.55-.2,1.11-.36,1.63-.62.22-.11.42-.4.48-.65.09-.38-.16-.55-.55-.54-2.71.08-5.42.16-8.12.23Z"/>
            <path class="cls-20" d="M438.61,488.61c-.62.55-1.23,1.09-1.85,1.64,1.63,0,3.26,0,5.22,0-.93-1.4-1.9-1.99-3.37-1.64Z"/>
            <path class="cls-79" d="M444.29,520.46c.33.33.66.66.99.99,1.11-.14,1.81-.78,2.18-1.81-.41-.46-.85-.5-1.33-.11-.76.03-1.39.29-1.84.93Z"/>
            <path class="cls-40" d="M385.93,483.75c0,.32,0,.63-.01.95.57.02,1.14.05,1.71.04.11,0,.34-.2.32-.25-.06-.21-.17-.53-.31-.56-.56-.11-1.14-.13-1.71-.18Z"/>
            <path class="cls-63" d="M446.13,519.53c.44.04.89.07,1.33.11.15-.2.3-.4.45-.6-.23-.07-.51-.25-.68-.18-.39.15-.73.44-1.1.67Z"/>
          </g>
          <g>
            <path class="cls-74" d="M453.62,447.11c5.04-6.8,3.06-15.83.3-23.43-14.42-39.63-45.36-73.3-85.03-92.54-11.7-5.67-19.96-5.46-32.65-8.88-7.21-1.95-16.9-38.04-21.85-69.31-3.39,14.75-21,69.9-16.14,88.55,2.06,7.9,10.22,14.88,15.87,13.43-9.31,8.87-15.26,35.61-10.82,42.87,14.29,23.38,56.17,43.92,93.93,51.32,38.42,7.54,51.5,4.63,56.41-2Z"/>
            <path class="cls-57" d="M452.99,422.42c-14.42-39.63-45.36-73.3-85.03-92.54-11.7-5.67-19.96-5.46-32.65-8.88-3.36-.91-7.26-9.24-10.97-21.03l-3.42-2.61c.23,10.52.86,21.84,4.56,31.47,3.49,7.22,8.79,12.81,16.76,14.82,6.08-3.99,13.51-15.35,18.48-12.04,38.9,25.93,55.99,93.77,58.55,105.2,1.7,7.62-15.58,7.48-10.37,13.3,28.79,4.55,39.48,1.6,43.81-4.25,5.04-6.8,3.06-15.83.3-23.43Z"/>
            <path class="cls-24" d="M348.55,339.11c-15.84,7.49-37.24,12.33-45.16,11.22,3.3,3.39,7.44,5.42,10.73,4.58-9.31,8.87-15.26,35.61-10.82,42.87,1.53,2.5,3.38,4.96,5.5,7.38h0c4.53,4.64,10.18,9.03,16.52,13.44,1.44-31.42,13.97-66.34,24.04-78.55.45-.54-.15-1.25-.8-.94Z"/>
            <path class="cls-27" d="M312.9,353.96c-1.39.18-2.6.31-3.72.42,1.72.68,3.42.92,4.94.53-7.8,7.43-13.24,27.4-12.19,37.95,4-6.72,15.47-22.07,47.61-53.45-12.25,5.78-13.8,9.46-36.64,14.55Z"/>
            <path class="cls-66" d="M298.4,298.62c-4-1.84-6.46-6.13-5.94-10.34-7.19-1.42-13-7.16-14.13-13.94-1.13-6.78,2.5-14.21,8.81-18.05-3.41-4.61-2.9-11.48,1.17-15.87,4.07-4.39,11.33-5.89,16.76-3.47.51-4.83,5.32-9.07,10.51-9.28,5.19-.21,10.04,3.65,10.6,8.43,1.33-2,4.29-2.93,6.55-2.05,2.26.88,3.54,3.45,2.83,5.69,5.82-1.01,10.66,6.2,7.24,10.77,6.95,1.28,12.44,7.18,12.84,13.8.4,6.63-4.32,13.42-11.05,15.9.2,7.47-4.81,15.02-12.14,18.33-6.87,3.1-11.42.84-18.03-.03-5.21-.69-10.88,2.46-16.02.1Z"/>
            <path class="cls-21" d="M355.46,424.02c18.73,5.9,40.22,6.7,60.04,3.36,5.83-.98,10.9-1.77,15.02-2.52,14.59-2.67,17.61-3.44,19.48-4.19,9.17,1.94,7.15,19.18,6.06,28.43,2.43,5.29,10.26,17.34-11.7,28.09-15.87,7.76-34.75,6.26-52.12,3.98-35.17-4.61-72.87-18.48-97.4-41.8-4.42-4.2-8.63-9.21-8.95-15.19-.32-5.96,3.77-12.06,9.73-14.5.96-.4,1.01-12.55,5.84-14.77,1.01.97.05,12.11,54.01,29.11Z"/>
            <path class="cls-60" d="M392.24,481.17c12.83,1.68,26.47,2.93,39.13.35-.45-2.98-1.57-5.89-3.23-8.38-4.52-6.78-12.05-11.19-19.34-15.39,4.01-5.01,3.74-12.09.81-17.49-2.42-4.45-6.35-7.95-10.65-10.95-14.81.76-29.89-1-43.49-5.29-22.78-7.17-35.75-13.3-43.23-18.06-1.82,1.47-3.29,3.27-4.2,5.38-2.22,5.17.55,11.73,5.58,13.74-4.59.22-9.21,3.95-10.62,8.32-1.52,4.74-.32,9.69,1.59,14.25,24.13,18.36,56.85,29.48,87.65,33.52Z"/>
            <path class="cls-71" d="M451.86,419.24c-.36.56-1.32,1.41-4.59,2.25-.3.08-.51.34-.5.64.49,13.39-7.44,27.43-20.06,34.4-.65.36-.33,1.3.4,1.2,2.32-.34,4.65-.47,6.92-.11,3.97.63,7.8,3.16,8.48,6.85,1.21,6.58-7.21,11.19-14.2,13.1-2.46.67-4.94,1.27-7.43,1.82-2.25.25-4.75.44-7.51.51-12.52.34-29.82-1.83-48.07-6.87-18.27-4.99-34.02-11.6-44.86-17.21-10.89-5.56-16.92-10.06-17.34-9.6-.32.31,5.14,5.61,15.85,11.86,10.65,6.28,26.5,13.4,45.1,18.49,15.95,4.4,31.35,6.37,43.57,6.19,12.68.79,25.46-.05,36.72-5.56,21.96-10.75,14.13-22.8,11.7-28.09,1.07-9.07,5.03-27.6-3.45-30.16-.29-.09-.59.05-.75.3Z"/>
            <path class="cls-8" d="M365.5,434.02c43.06,8.91,81.24-12.4,81.24-12.4h0c-5.34,1.42-12.77,2.67-31.24,5.77-19.82,3.33-41.3,2.54-60.04-3.36-53.97-17-53.01-28.14-54.01-29.11-.32,2.94,1.6,26.18,64.05,39.11Z"/>
            <path class="cls-34" d="M306.39,288.69c4.06,3.32,10.34,4.62,15.25,2.13,4.91-2.49,7.19-9.24,3.72-13.1,5.08,3.59,13.76,1.33,16.43-4.29,2.66-5.61-1.53-12.81-7.93-13.62,3.37-1.57,6.22-4.81,5.92-8.25-.31-3.44-4.89-6.08-7.99-4.06-.24-2.4-2.24-4.5-4.76-5.01-2.52-.5-5.38.63-6.83,2.69,1.79-3.19.65-7.46-2.48-9.35-2.44-1.47-5.83-1.34-8.4.09-.37.77-.62,1.58-.7,2.4-.05.47-.35.9-.79,1.14-.44.24-.98.26-1.43.06-2.65-1.19-5.89-1.29-8.84-.42-2.2.65-4.22,1.83-5.71,3.43-2.69,2.88-3.61,7.17-2.51,10.78.32,1.08.82,2.09,1.49,3,.23.31.31.71.22,1.09-.09.38-.34.72-.69.93-2.81,1.71-5.05,4.24-6.45,7.11-1.4,2.87-1.96,6.07-1.46,9.09.09.56.22,1.12.39,1.67,1.59,5.32,6.49,9.71,12.29,10.84.74.15,1.24.79,1.15,1.5-.14,1.09-.03,2.21.29,3.27.24.81.62,1.58,1.09,2.29,3.58-.37,7.05-2.4,8.74-5.44Z"/>
            <path class="cls-55" d="M352.28,253.65c-1.32-1.23-2.8-2.23-4.36-2.98-.77-.39-1.58-.69-2.39-.95-.28-.08-.23-.06-.36-.08l-.26-.05c.04-.1.08-.12.13-.3l.08-.24c.03-.08.09-.44.12-.64.19-.96.11-1.88-.05-2.73-.35-1.71-1.21-3.13-2.26-4.24-1.05-1.11-2.33-1.92-3.69-2.32-1.57-.47-2.19-.25-2.7-.24.05-.28.05-.53-.01-.87-.08-.47-.24-1.02-.44-1.43-.42-.85-.97-1.45-1.49-1.84-1.06-.78-1.82-.78-1.86-.67-.08.15.51.45,1.19,1.28.33.42.67.99.88,1.7.09.38.16.71.16,1.21.02.6-.28,1.55-.52,2.38.58.09,1.57-.11,2.25,0,.9,0,1.23.17,1.73.34.95.37,1.87,1.06,2.6,1.96.73.9,1.3,2.04,1.46,3.27.06.61.09,1.24-.08,1.84l-.05.23c-.02.09,0,.12-.11.3l-.49.92c-.29.61-.8,1.3-1.21,1.97.58.17,1.28.32,1.93.48.63.14,1.45.36,1.9.53.65.24,1.31.51,1.93.86,1.26.67,2.45,1.54,3.49,2.59,2.1,2.08,3.65,4.92,3.94,8.04.31,3.09-.7,6.51-2.86,9.35-1.07,1.42-2.4,2.71-3.96,3.72-.4.23-.78.51-1.2.7l-.62.32s-.4.17-.6.26l-.71.29-.71.3-.36.15c-.14.03-.04.2-.08.3l-.02,1.36c0,1.12-.07,1.31-.11,1.81-.47,4.03-2.55,7.85-5.41,10.7-2.87,2.82-6.63,4.79-10.25,5.17-3.64.41-7.4-.74-11.19-1.22-.9-.13-2.01-.24-2.99-.2-.99.03-1.94.14-2.83.28-1.78.28-3.39.64-4.87.84-1.48.21-2.84.27-4.06.08-1.21-.18-2.29-.61-3.23-1.16-1.87-1.13-3.06-2.67-3.76-4.03-1.4-2.78-1.11-4.69-1.46-4.69-.11-.01-.35.44-.46,1.34-.1.89-.11,2.28.49,3.92.57,1.64,1.72,3.58,3.87,5.14,1.06.76,2.41,1.43,3.97,1.77,1.55.34,3.23.35,4.88.2,3.34-.27,6.59-1.21,9.81-.5,1.74.29,3.56.73,5.54,1.11,1.97.37,4.19.69,6.54.47,9.46-.91,18.13-9.06,19.35-18.97.05-.5.13-1.32.11-1.2l.06-.19h.03s.13-.08.13-.08l.8-.41c.54-.26,1.03-.6,1.53-.91,1.97-1.3,3.62-2.93,4.94-4.71,2.64-3.55,3.86-7.84,3.38-11.81-.48-3.97-2.51-7.37-5.14-9.81Z"/>
            <path class="cls-2" d="M300.93,343.04c1.58-.44,3.79-42.22,2.42-40.07-1.41,2.21-6.61,29.02-2.42,40.07Z"/>
          </g>
          <g>
            <path class="cls-67" d="M506.56,617.61c.31-.72.34-1.57-.03-2.33-.31-.67-.86-1.14-1.49-1.4-1.02-6.3-2.23-15.13-2.23-22.28,0-2.81.19-5.36.62-7.31.21-.98.48-1.8.79-2.42.3-.63.64-1.04.93-1.28.74-.59.86-1.67.27-2.41-.59-.74-1.67-.86-2.41-.27-.81.65-1.41,1.51-1.88,2.46-.69,1.43-1.11,3.12-1.38,5.02-.27,1.89-.37,3.99-.37,6.22,0,7.66,1.29,16.8,2.33,23.2-.6.81-.76,1.92-.3,2.9.25.54.66.96,1.14,1.23l-2.23,7.99c-.3,1.06.45,2.13,1.55,2.18,3.06.14,8.67-.15,11.58-3.72-.97-1.63-4.38-5.21-6.9-7.76Z"/>
            <path class="cls-37" d="M506.56,617.61c.31-.72.34-1.57-.03-2.33-.31-.67-.86-1.14-1.49-1.4-.21-1.27-.42-2.67-.63-4.11-.06.04-.06.16,0,.53.46,2.91.08,6.99-.03,9.56-.21,4.76-2.06,6.35-4.08,7.89.16.72.77,1.3,1.57,1.34,3.06.14,8.67-.15,11.58-3.72-.97-1.63-4.38-5.21-6.9-7.76Z"/>
          </g>
          <path class="cls-3" d="M407.97,551.51c-1.17-1.99-2.42-4.12-3.66-6.24-.82-1.39-1.69-2.76-2.43-4.19-.76-1.46-.04-2.49,1.66-2.51.32,0,.65.02.97.04,4.73.3,9.46.6,14.19.91.84.06,1.78-.03,2.28.89.59,1.08-.13,1.84-.72,2.6-1.84,2.39-3.71,4.76-5.55,7.15-.39.5-.7,1.06-1.14,1.73,1.72,5.16,5.48,7.85,10.66,8.57,4.41.61,8.3-.74,11.45-3.98.52-.54,1.02-1.11,1.6-1.58.57-.45,1.51-.33,2.11.14.67.53.92,1.26.62,2.01-.27.68-.71,1.33-1.2,1.88-6.8,7.71-19.81,7.41-26.24-.61-.6-.75-1.14-1.55-1.8-2.45-.9.26-1.27,1.08-1.83,1.64-4.97,5-12.77,5.91-18.72,2.18-1.67-1.04-3.09-2.35-4.08-4.06-.58-1-.4-1.95.42-2.6.74-.59,1.67-.62,2.35.03.62.59,1.12,1.31,1.72,1.91,5.21,5.19,14.11,3.52,17.35-3.46Z"/>
        </g>
      </g>
    </g>
  </g>
</svg>