<?xml version="1.0" encoding="UTF-8"?>
<svg xmlns="http://www.w3.org/2000/svg" viewBox="0 0 773.49 502.94">
  <defs>
    <style>
      .cls-1 {
        fill: #c9c9c9;
      }

      .cls-2 {
        fill: #fff;
      }

      .cls-3 {
        opacity: .4;
      }

      .cls-3, .cls-4 {
        fill: #9b9b9b;
        mix-blend-mode: multiply;
      }

      .cls-5 {
        isolation: isolate;
      }

      .cls-4 {
        opacity: .3;
      }
    </style>
  </defs>
  <g class="cls-5">
    <g id="Layer_1" data-name="Layer 1">
      <g>
        <g>
          <path d="M231.64,272.14c-21.77-45.38-23.48-91.02-3.66-137.18,21.24-45.39,56.28-74.53,104.42-88.47.87-4.32,1.74-8.65,2.6-12.98,1.87-9.47,3.72-18.95,5.6-28.42.18-.91.36-1.87.79-2.68,1.34-2.57,4.71-3.22,6.85-1.28.98.89,1.72,2.05,2.5,3.13,7.76,10.78,15.5,21.58,23.27,32.36,1.25,1.74,2.59,3.41,3.92,5.14,9.32.43,18.46,1.69,27.71,3.45.71-1.54,1.34-2.84,1.92-4.17,4.86-11.2,9.7-22.4,14.56-33.6.53-1.23,1.02-2.5,1.68-3.65.95-1.66,2.47-2.4,4.4-2.22,1.77.16,3.03,1.08,3.69,2.7.5,1.24.87,2.54,1.21,3.83,3.3,12.72,6.58,25.45,9.87,38.17.97,3.76,2.12,7.49,2.92,11.29.46,2.21,1.64,3.44,3.54,4.5,10.01,5.56,19.27,12.19,27.75,19.89,26.2,23.77,43,52.93,49.67,87.72,16.22,84.58-37.67,164.02-118.04,183.23-16.87,4.03-33.93,5.21-51.16,3.71-13.15-1.15-25.98-3.93-38.41-8.42-1.13-.41-2.28-.8-3.42-1.18-.25-.08-.52-.09-1.06-.17-.62.33-1.44.74-2.24,1.21-8.45,4.96-17.23,5.57-26.26,1.85-12.65-5.22-25.4-10.16-38.44-14.34-11.64-3.72-23.41-6.87-35.45-9.01-8.47-1.51-16.99-2.52-25.62-1.98-6.33.4-12.49,1.61-18.4,4.01-3.12,1.27-6.06,2.87-8.75,4.91-8.45,6.43-12.28,14.99-11.77,25.55.21,4.32,1.14,8.49,2.54,12.58,2.8,8.13,4.98,16.43,6.24,24.95,2.8,19.03,2.01,37.79-5.25,55.83-9.54,23.72-26.45,39.73-51,47.23-15.16,4.63-30.47,4.19-45.68.1-17.18-4.63-32.22-13.28-45.27-25.24-8.67-7.95-11.45-18.06-7.92-29.35,3.47-11.12,11.38-17.7,22.81-19.63,7.74-1.3,14.93.61,21.27,5.36,1.29.96,2.48,2.05,3.73,3.07,5.45,4.45,11.35,8.13,18.09,10.27,4.77,1.52,9.61,2.34,14.66,1.39,6.02-1.13,10.64-4.24,14.03-9.27,2.44-3.62,3.77-7.68,4.57-11.94,1.28-6.83.82-13.63-.36-20.41-.88-5.03-2.34-9.91-3.96-14.75-3.56-10.64-5.58-21.56-5.34-32.81.61-29.21,12.74-52.5,36.33-69.71,12.01-8.77,25.6-14.02,40.13-16.83,13.95-2.69,27.98-3.14,42.06-1.1,6.63.96,13.23,2.15,19.85,3.22.64.1,1.29.1,2.29.16ZM406.34,94.02c-2.15.29-4.22.77-6.31.81-2.31.04-4.47-.76-6.45-2.01-1.86-1.17-3.45-2.67-4.34-4.65-.92-2.05-1.5-4.26-2.23-6.4-4.13-.51-16.02-.37-18.77.23-.98,8.31,5.24,17.17,14.08,20.17,8.94,3.03,20.06-.63,24.01-8.16ZM427.14,81.74c-2.17,7.6,2.44,17.6,11.79,20.99,7.9,2.87,17.57-.08,20.94-6.55-.63.06-1.14.1-1.64.16-7.43.88-13.4-5.25-12.92-12.02.06-.88.41-1.85-.34-2.64-3.57-.45-13.95-.44-17.84.05ZM430.04,118.78s0-.06,0-.09c-2.28,0-4.55-.03-6.83.02-.65.01-1.33.14-1.94.37-.7.26-1,.9-.81,1.62.13.5.38,1,.68,1.43,2.43,3.53,4.88,7.04,7.33,10.55.23.32.51.62.8.89.58.53,1.75.57,2.18-.07,2.75-4.11,5.47-8.23,8.13-12.41.54-.85-.12-1.93-1.13-2.11-.65-.12-1.32-.18-1.99-.19-2.14-.02-4.28,0-6.43,0Z"/>
          <path class="cls-2" d="M406.34,94.02c-3.95,7.53-15.07,11.19-24.01,8.16-8.84-3-15.06-11.87-14.08-20.17,2.75-.6,14.64-.74,18.77-.23.73,2.14,1.31,4.34,2.23,6.4.89,1.99,2.48,3.48,4.34,4.65,1.97,1.25,4.14,2.05,6.45,2.01,2.09-.04,4.16-.52,6.31-.81Z"/>
          <path class="cls-2" d="M427.14,81.74c3.88-.49,14.27-.5,17.84-.05.75.79.4,1.76.34,2.64-.48,6.77,5.49,12.89,12.92,12.02.5-.06,1.01-.1,1.64-.16-3.37,6.47-13.04,9.42-20.94,6.55-9.35-3.39-13.96-13.39-11.79-20.99Z"/>
          <path class="cls-2" d="M430.04,118.78c2.14,0,4.28-.01,6.43,0,.66,0,1.34.07,1.99.19,1.01.18,1.67,1.26,1.13,2.11-2.65,4.17-5.38,8.3-8.13,12.41-.43.64-1.6.59-2.18.07-.29-.27-.58-.56-.8-.89-2.45-3.51-4.9-7.02-7.33-10.55-.3-.43-.55-.93-.68-1.43-.18-.72.11-1.36.81-1.62.61-.23,1.29-.35,1.94-.37,2.27-.04,4.55-.02,6.83-.02,0,.03,0,.06,0,.09Z"/>
        </g>
        <g>
          <path class="cls-1" d="M752.82,218.59c-14.16-13.03-26.96-26.17-35.6-43.65-6.68-13.5-9.77-28.28-13.03-42.92-.65-3.95-1.33-7.9-2.47-11.69-.28-.95-.61-1.83-.95-2.67-.03-.11-.05-.21-.08-.31-.01-.03-.04,0-.06,0-1.92-4.5-4.86-7.67-9.42-10.41-5.55-3.33-11.87-5.27-17.56-8.34-5.8-3.12-10.97-7.18-16.79-10.25-1.72-3.39-3.82-6.69-6.97-8.51-2.94-1.69-8.23.95-10.58,2.79-3.06,2.41-5.16,5.5-7.12,8.73.4-.73.78-1.46,1.22-2.16.14-.23-.14-.23-.25-.07-6.04,9.15-8.67,20.98-12.33,31.24-4.26,11.99-8.19,23.72-14.23,34.97-5.83,10.86-12.58,22.23-20.51,31.67-4.04,4.81-7.84,9.8-11.54,14.87-2.85,3.9-6.1,7.78-8.18,12.17-.08.16-.24.67.09.7,4.46.33,6.38,8.27,7.26,11.69,1.12,4.38,1.36,9,2.09,13.45,1.29,7.91,2.34,18.12,8.19,24.16-.97,2.82-1.88,5.66-1.4,8.55.69,4.14,7.1,6.85,9.83,9.54,8.63,8.47,12.99,20.9,18.29,31.51,4.5,8.99,10.65,17.12,18.71,23.19,4.84,3.65,10.66,6.21,16.69,7.81,0,.02,0,.04.03.05,2.29.97,4.79,1.39,7.37,1.44.2.03.4.03.6.06,2.14-.1,4.27-.57,6.38-.83.3-.03.6-.08.9-.13,2.9-.64,5.71-1.56,8.21-2.57,9.31-3.79,17.77-11.19,25.87-17.03,7.23-5.21,14.91-10.48,23.18-14.03.58,2.51.86,7.05,3.68,7.52,1.06.18,2.39-1.05,3.11-1.6,2.57-1.95,4.8-4.04,7.59-5.77.82-.51,3.71-3.11,3.11-4.71-.52-9.01-2.36-17.83-5.83-26.17-.06-.15-.13-.3-.19-.44,5.9-7.31,10.5-14.83,18.06-20.81,4.09-3.23,8.76-6.38,13.6-8.35,3.04-1.23,6.48-1.62,9.36-3.19,9.94-5.41-15.15-26.53-18.35-29.48Z"/>
          <path class="cls-2" d="M733.88,309.11c-.55,1.45-2.45,2.36-3.88,3.02-.64.41-1.28.85-1.87,1.32-1.1.88-5.61,6.33-6.75,2-.41-1.55-.77-3.01-1.55-4.36,1.45-.59,2.92-1.14,4.42-1.61.59-.19,1.18-.37,1.78-.55,1.49-.96,3.07-1.84,4.74-2.07,1.31-.19,3.87.32,3.13,2.25Z"/>
          <path class="cls-2" d="M768.76,247.58c-1.81.42-3.52.94-5.23,1.67-6.74,2.9-12.71,6.49-18.41,11.21-6.32,5.23-10.91,11.98-15.52,18.68-4.13-9.54-9.36-18.66-13.88-28.01-4.7-9.72-10.43-19.1-13.45-29.56-2.53-8.75-4.54-17.69-6.85-26.53-1.57-10.22-3.29-20.42-5.31-30.56-1.57-7.84-3.2-15.64-4.26-23.58-1.01-7.53-2.58-17.52,2.15-24.25-.76.68-1.47,1.43-2.09,2.25-5.01,8.96-1.63,22.96-.15,31.8,2.89,17.28,6.41,34.41,9.07,51.75,5.07,33.11,6.48,67.32-2.49,99.86,1.68-3.87,2.8-7.95,4.01-12.06.32-1.05.6-2.12.91-3.18,4.6-23.78,4.17-49.01.99-72.53-.49-3.6-1-7.19-1.52-10.8,1.25,5.61,2.52,11.2,3.72,16.82,2.14,10.06,7.39,19.41,12.04,28.47,4.78,9.29,9.37,18.7,14.01,28.07.68,1.37,1.29,2.73,1.87,4.11,0,.19.06.33.17.41,3.29,7.86,5.17,15.85,6.42,24.37-3.45-1.6-8.91,1.3-12.06,2.31-12.88,4.11-24.03,13.54-34.89,21.25-9.35,6.64-20.15,14.24-31.87,15.44-3.49-.52-6.79-1.27-9.49-1.98-9.47-2.49-17.5-7.64-24.1-14.78-13.48-14.6-16.43-36.09-31.27-49.61-1.62-1.47-3.58-2.66-5.32-3.99-3.11-2.39-1.95-6.15-.86-9.17,1.68-4.7,2.53-9.63,3.67-14.48,2.47-10.55,5.93-20.73,9.9-30.8,4.87-12.36,10.61-24.35,16.9-36.04.38-.9.75-1.81,1.16-2.69,1-2.17,2.04-4.32,3.07-6.47-9.57,16.04-17.77,32.85-24.45,50.33-4.16,10.87-7.43,22.03-9.72,33.44-.27,1.33-.71,2.68-1.17,4.02-5.35-7.04-6.37-17.06-7.76-25.52-1.19-7.25-2.06-13.47-5.12-20.19-.22-.46-3.63-4.28-3.82-3.91,1.86-3.86,5.02-7.29,7.59-10.68,5.61-7.43,11.7-14.52,16.99-22.18,8.78-12.71,17.57-26.17,22.93-40.74,3-8.15,5.88-16.42,8.51-24.71,2.05-6.47,3.9-13.69,6.76-20.12,2.51-3.63,4.74-7.49,8.02-10.5,2.58-2.36,8.1-4.64,11.49-2.66,1.84,1.08,3,3.42,4.12,5.16.16.24.29.47.44.71-.05.08-.06.16,0,.2.08.05.15.11.23.16,4.42,7.05,7.88,14.77,11.96,22.08.48.3.95.6,1.43.9-2.92-5.76-6.02-11.43-8.84-17.23-.58-1.21-1.18-2.51-1.8-3.82,4.43,3.17,8.78,6.45,13.44,9.3,4.88,2.98,10.24,5.01,15.42,7.37,5.73,2.62,10.59,6.16,13.04,12.14.9,2.21,1.61,4.52,2.24,6.86.87,5.94,1.76,11.9,3.02,17.72.89,4.15,2.67,8.09,3.87,12.15,1.42,4.77,2.68,9.6,4.39,14.28,5.9,16.23,17.2,30.69,29.64,42.44,6.4,6.04,13.17,11.6,19.26,17.97,3.11,3.24,6.04,6.66,8.49,10.43,1.55,2.39,3.29,6.03-1.62,7.16Z"/>
          <path class="cls-4" d="M752.82,218.59c-14.16-13.03-26.96-26.17-35.6-43.65-6.68-13.5-9.77-28.28-13.03-42.92-.65-3.95-1.33-7.9-2.47-11.69-.28-.95-.61-1.83-.95-2.67-.03-.11-.05-.21-.08-.31-.01-.03-.04,0-.06,0-1.92-4.5-4.86-7.67-9.42-10.41-5.55-3.33-11.87-5.27-17.56-8.34-5.8-3.12-10.97-7.18-16.79-10.25-1.72-3.39-3.82-6.69-6.97-8.51-2.94-1.69-8.23.95-10.58,2.79-3.06,2.41-5.16,5.5-7.12,8.73.4-.73.78-1.46,1.22-2.16.14-.23-.14-.23-.25-.07-6.04,9.15-8.67,20.98-12.33,31.24-.77,2.18-1.54,4.35-2.3,6.5,4.31-7.01,8.67-14,11.9-21.58.35-.83,1.63-.53,1.83.24,3.17,12.07-3.77,23.03-7.02,34.35,11.45-7.66,18.13-23.57,21.05-36.35.19-.84,1.42-.98,1.82-.24,5.73,10.49,4.91,24.08,5.23,35.65.39,14.02.11,27.84-.86,41.76,5.06-15.82,9.04-32.05,16.84-46.82.35-.68,1.35-.62,1.72,0,5.86,9.6,5.29,21.82,3.54,32.52-2.02,12.3-5.61,24.36-10.53,35.82-5.97,13.9-13.58,27.03-22.64,39.15-7.48,10.01-16.06,19.11-24.06,28.69,4.45-2.73,8.58-6.76,11.94-9.62,6.69-5.67,12.97-11.8,18.79-18.36,12.41-13.97,21.69-29.32,29.89-46.05.39-.8,1.6-.54,1.82.24,7.18,24.96,7.26,53.13,1.16,78.33-2.95,12.21-7.3,24.61-14.77,34.85-4.5,6.17-10.24,13.01-17.84,15.34-13.11,4.01-24.42-6.8-33.22-14.98-3.41-3.17-7.05-6.76-10.95-10.06,2.28,4.67,4.36,9.43,6.58,13.89,4.5,8.99,10.65,17.12,18.71,23.19,4.84,3.65,10.66,6.21,16.69,7.81,0,.02,0,.04.03.05,2.29.97,4.79,1.39,7.37,1.44.2.03.4.03.6.06,2.14-.1,4.27-.57,6.38-.83.3-.03.6-.08.9-.13,2.9-.64,5.71-1.56,8.21-2.57,9.31-3.79,17.77-11.19,25.87-17.03,7.23-5.21,14.91-10.48,23.18-14.03.58,2.51.86,7.05,3.68,7.52,1.06.18,2.39-1.05,3.11-1.6,2.57-1.95,4.8-4.04,7.59-5.77.82-.51,3.71-3.11,3.11-4.71-.52-9.01-2.36-17.83-5.83-26.17-.06-.15-.13-.3-.19-.44.19-.24.38-.49.57-.73-5.25-18.29-11.1-36.39-16.92-54.51-6.03-18.8-14.6-37.69-16.05-57.57-.07-.97,1.43-1.38,1.86-.5,5.01,10.13,10.73,20.02,18.16,28.6,6.69,7.72,14.45,14.1,22.3,20.59,11.3,9.35,22.56,19.59,28.2,32.97,1-.32,1.98-.68,2.89-1.19,9.94-5.41-15.15-26.53-18.35-29.48ZM702.45,240.81c.15-.93,1.39-.88,1.82-.24,14.8,21.77,21.1,60.97-6.01,76.16-.63.36-1.53-.09-1.5-.86.62-16.11,3.26-32.03,4.91-48.04-.29-9.03-.72-18.06.78-27.02Z"/>
          <path class="cls-4" d="M637.96,111.88c1.75-5.82,5.26-19.11,11.84-14.94,4.28,2.72,6.05,7.18,7.33,11.89,1.73,6.42,4.59,12.11,8.63,17.27-.97-6.1-2.79-12.04-3.56-18.18-.09-.72.92-1.29,1.5-.86,3.22,2.39,4.91,6.02,6.6,9.56,2.47,5.2,5.92,9.85,8.27,15.11,3.06,6.81,5.42,13.89,7.58,21.04-.7-7.02-.86-14.11-.52-21.05.12-2.48,2.3-13.3,6.85-7.5,2.99,3.83,4.88,9.05,6.75,13.51,2.59,6.17,5.06,12.39,7.53,18.61,3.31,8.32,7.16,16.98,13.2,23.65-.94-1.65-1.87-3.33-2.74-5.07-6.68-13.5-9.77-28.28-13.03-42.92-.65-3.95-1.33-7.9-2.47-11.69-.28-.95-.61-1.83-.95-2.67-.03-.11-.05-.21-.08-.31-.01-.03-.04,0-.06,0-1.92-4.5-4.86-7.67-9.42-10.41-5.55-3.33-11.87-5.27-17.56-8.34-5.8-3.12-10.97-7.18-16.79-10.25-1.72-3.39-3.82-6.69-6.97-8.51-2.94-1.69-8.23.95-10.58,2.79-3.06,2.41-5.16,5.5-7.12,8.73.4-.73.78-1.46,1.22-2.16.14-.23-.14-.23-.25-.07-.89,1.35-1.68,2.76-2.44,4.21,1.94,6.39,3.68,12.9,7.25,18.56Z"/>
          <path class="cls-3" d="M602.5,214.72c6.1-13.48,11.61-27.34,18.49-40.45,5.31-10.11,11.17-19.94,16.41-30.1-10.43,12.11-19.25,25.58-27.54,39.23-4.85,8.01-9.05,16.37-12.87,24.91-3.04,6.81-4.63,14.75-8.84,20.98-3.2,4.73-7.35,7.36-10.78,1.31-2.58-4.56-5.08-14.85-10.89-16.8-.03.08-.08.15-.12.23-.08.16-.24.67.09.7,4.46.33,6.38,8.27,7.26,11.69,1.12,4.38,1.36,9,2.09,13.45,1.29,7.91,2.34,18.12,8.19,24.16-.97,2.82-1.88,5.66-1.4,8.55.08.42.22.83.4,1.23,1.94-20.6,11.1-40.52,19.5-59.09Z"/>
        </g>
        <path d="M518.59,171.95l.06-.08-50.01-35.36c1.39-1.97,14.22-19.76,35.86-38.57,30.38-26.4,63.72-41.92,96.41-44.87,20.38-1.84,40.63,1.05,60.18,8.61,21.02,8.13,41.38,21.75,60.52,40.5,12.08,11.83,12.29,31.22.45,43.31-11.83,12.08-31.22,12.29-43.31.45-24.09-23.59-47.68-34.02-72.1-31.89-49.08,4.28-87.68,57.37-88.07,57.91Z"/>
      </g>
    </g>
  </g>
</svg>