<?xml version="1.0" encoding="UTF-8"?>
<svg id="Layer_1" data-name="Layer 1" xmlns="http://www.w3.org/2000/svg" viewBox="0 0 822.06 506.05">
  <defs>
    <style>
      .cls-1 {
        fill: #fff;
      }
    </style>
  </defs>
  <path d="M199.58,84.04c.78-.37,1.65-.76,2.49-1.19,6.99-3.53,13.92-7.18,20.99-10.55,2.27-1.08,3.36-2.39,3.82-4.9,3.38-18.39,6.93-36.75,10.43-55.12.48-2.51.82-5.06,1.52-7.51,1-3.47,3.82-5.15,7.34-4.7,1.49.19,2.78.76,3.75,1.91.72.85,1.37,1.77,2,2.69,10.16,14.94,20.32,29.88,30.47,44.84.89,1.31,1.64,2.71,2.6,4.31.95,0,2.22.15,3.44-.02,12.54-1.77,25.14-2.66,37.79-2.41,46.62.91,90.09,12.72,129.24,38.51,42.98,28.32,71.36,67.6,86.12,116.81,4.42,14.74,7.38,29.78,8.81,45.11.59,6.37,1.08,12.75,1.48,19.13.56,8.97-.19,17.92-.96,26.83-1.25,14.35-3.62,28.53-7.33,42.48-2.31,8.66-5.03,17.17-8.32,25.51-.51,1.29-.92,2.62-1.7,4.88,1.52-1.06,2.28-1.48,2.91-2.06,8.41-7.68,16.03-16.1,22.88-25.18,6.07-8.04,11.94-16.23,17.79-24.43,7.34-10.29,14.63-20.6,22.67-30.37,9.18-11.15,19.18-21.46,30.47-30.5,19.64-15.74,41.84-26.38,65.99-33.12,13.58-3.79,27.4-6.27,41.4-7.92,13.05-1.54,26.15-2,39.25-2.4,4.98-.15,9.89.24,14.74,1.5,16.89,4.39,31.85,20.93,30.29,43.02-1.17,16.56-13.39,33.94-34.76,37.5-1.88.31-3.82.31-5.74.38-12.8.48-25.54,1.44-38.17,3.7-23.8,4.25-45.87,12.62-65.22,27.45-10.08,7.73-19.09,16.58-27.1,26.39-6.88,8.42-13.41,17.12-20.07,25.71-8.43,10.87-16.58,21.96-25.29,32.59-28.47,34.78-64.68,58.12-107.26,71.93-18.9,6.13-38.19,10.57-57.79,13.7-24.83,3.97-49.82,6.22-74.95,6.87-14.07.36-28.14.43-42.22.61-5.98.08-11.75-1-17.35-3.16-1.9-.73-4-1.13-6.04-1.31-21.31-1.86-42.02-6.42-62.09-13.76-34.41-12.59-64.29-32.02-88.74-59.48-21.65-24.31-36.45-52.37-45.33-83.61-4.82-16.97-7.77-34.28-8.89-51.89-2.53-39.82,4.06-78.05,20.23-114.55,7.95-17.96,18.39-34.38,31.18-49.29,2.04-2.38,3.36-4.81,3.86-7.99,2.3-14.68,4.84-29.33,7.32-43.99,1.6-9.46,3.22-18.91,4.85-28.36.16-.94.35-1.9.71-2.77,1.91-4.62,7.65-5.65,11-1.93.95,1.06,1.66,2.34,2.41,3.57,6.69,10.9,13.36,21.82,20.07,32.71.82,1.33,1.34,2.94,3.01,3.82ZM209.89,270.21c-4.18,11.43-22.97,16.29-31.77,5.35-.49-.61-1.08-1.2-1.74-1.6-1.86-1.11-3.98-.05-4.35,2.08-.32,1.85.15,3.47,1.28,4.94,1.5,1.95,3.51,3.23,5.65,4.35,4.33,2.26,9,3.13,13.82,3.57,5.38.49,10.1-.99,14.27-4.35,2.52-2.02,4.52-4.49,6.28-7.18.47-.73.63-1.85,2.08-1.98.47.65.98,1.44,1.57,2.15,1.93,2.33,3.73,4.81,5.88,6.9,3.15,3.06,6.97,5.23,11.39,5.67,9.36.95,18.14-.95,25.98-6.32,1.68-1.15,3.12-2.74,4.41-4.34,1.23-1.52,1.65-3.43,1.35-5.44-.18-1.18-.63-2.16-1.84-2.57-1.2-.41-2.25.08-3.06.88-.79.78-1.38,1.75-2.08,2.62-1.71,2.16-3.76,3.91-6.17,5.25-9.01,5.03-21.59,3.28-28.85-4.05-1.91-1.93-3.57-4.05-4.23-6.87.55-.85,1.05-1.65,1.58-2.43,2.34-3.43,4.75-6.81,6.99-10.31,1.03-1.6,1.85-3.36,2.53-5.14.84-2.21-.1-3.81-2.4-4.21-1.4-.25-2.86-.26-4.3-.26-7.67.04-15.34.12-23,.2-.63,0-1.31-.03-1.89.17-1.35.45-2.65,2.1-1.5,3.82.35.53.8,1,1.14,1.54,3.64,5.81,7.27,11.62,10.96,17.53ZM230.8,205.72c2.27-.49,3.61-2.24,5.39-3.22,1.94-1.07,3.84-2.22,5.52-3.2-.21-3.47-.72-6.66-.53-9.8.41-6.61,3.82-11.41,9.81-14.25,2.92-1.39,6.06-2.08,9.31-1.94,11.31.48,18.92,8.07,18.31,19.02-.1,1.73-.01,3.47-.01,5.38,1.83.82,3.69,1.72,5.6,2.49,1.85.75,3.32,2.42,5.72,2.47.31-1.7.74-3.25.84-4.83.15-2.23.21-4.49.03-6.71-1.02-12.65-8.94-22.15-21.17-25.6-4.86-1.37-9.81-1.63-14.75-.96-11.14,1.49-24.06,8.49-25.9,25.98-.54,5.12-.23,10.2,1.81,15.17ZM205.31,202.21c.59-1.59.36-3.32.3-5.01-.34-10.57-6.29-18.98-16.18-22.72-6.8-2.57-13.72-2.8-20.64-.52-10.03,3.3-15.99,10.15-17.58,20.63-.29,1.88-.22,3.82-.24,5.73,0,.73-.21,1.63,1.02,2.11,3.1-1.52,6.33-3.11,9.57-4.71.1-4.83.95-9.16,4.3-12.58,3.45-3.52,7.79-4.97,12.56-4.96,4.25,0,8.18,1.25,11.47,4.11,4.06,3.54,5.12,8.28,5.18,13.44,3.08,1.53,6.06,3.01,9.05,4.47.24.12.6.02,1.18.02Z"/>
  <path d="M506.19,102.99c-3.23.21-5.94-3.22-5.26-6.35.22-1.02.8-2.16,1.56-2.85,5.84-5.28,10.53-11.6,15.81-17.38,5.61-6.14,11.15-12.34,16.93-18.33,2.65-2.75,5.69-5.15,8.72-7.49,1.35-1.04,3.05-1.83,4.71-2.2,2.79-.63,5.04,2.06,4.01,4.73-.68,1.78-1.56,3.53-2.66,5.08-2.32,3.25-4.71,6.47-7.31,9.5-9.93,11.54-20.76,22.19-32.17,32.26-.96.85-1.96,1.64-3,2.39-.5.36-1.12.55-1.34.65Z"/>
  <path d="M7.18,178.76c3.9.83,7.88,1.38,11.67,2.56,8.69,2.69,17.29,5.65,25.9,8.57,7.1,2.41,13.97,5.48,21.3,7.21,2.27.54,3.5,2.23,3.69,4.47.2,2.33-1.01,4.59-2.96,5.6-1.06.55-2.12.51-3.24.18-13.77-4.07-27.59-8.01-41.31-12.22-4.71-1.45-9.27-3.45-13.8-5.42-2.02-.88-3.86-2.23-5.65-3.55-1.54-1.13-2.16-2.76-1.42-4.67.68-1.74,2.22-2.18,3.85-2.38.63-.08,1.27-.01,1.91-.01.02-.11.04-.22.06-.32Z"/>
  <path d="M70.35,240.63c-.03,2.34-1.14,3.94-3.33,4.76-.6.22-1.21.4-1.83.54-18.67,4.33-37.36,8.58-56,13.05-3.23.77-5.63-.1-7.9-2.07-1.71-1.48-1.76-3.48.06-4.93,1.48-1.18,3.14-2.27,4.89-2.94,3.87-1.48,7.78-2.98,11.81-3.92,10.26-2.41,20.59-4.51,30.89-6.74,4.84-1.05,9.68-2.07,14.49-3.23,3.96-.95,6.99,1.38,6.92,5.48Z"/>
  <path d="M587.84,115.66c.02,1.64-1.08,3.25-3.23,4.14-.59.24-1.22.37-1.83.55-17.51,5-35.01,9.99-52.52,14.99-1.23.35-2.48.61-3.7.99-3.01.94-5.28-.44-7.34-2.36-1.11-1.04-1.28-2.82-.25-3.91,1.08-1.14,2.32-2.26,3.71-2.96,2.99-1.5,6.06-2.87,9.21-4.01,9.93-3.6,20.21-5.94,30.43-8.53,6.19-1.57,12.35-3.23,18.5-4.94,3.87-1.08,7.03,1.26,7.03,6.05Z"/>
  <path class="cls-1" d="M209.89,270.21c-3.69-5.91-7.32-11.73-10.96-17.53-.34-.54-.79-1.01-1.14-1.54-1.15-1.72.14-3.37,1.5-3.82.59-.2,1.26-.16,1.89-.17,7.67-.08,15.34-.16,23-.2,1.43,0,2.89,0,4.3.26,2.3.41,3.24,2.01,2.4,4.21-.68,1.78-1.5,3.54-2.53,5.14-2.24,3.49-4.66,6.87-6.99,10.31-.53.78-1.03,1.59-1.58,2.43.66,2.82,2.32,4.94,4.23,6.87,7.26,7.33,19.84,9.08,28.85,4.05,2.4-1.34,4.46-3.09,6.17-5.25.69-.88,1.29-1.85,2.08-2.62.81-.8,1.85-1.29,3.06-.88,1.2.41,1.66,1.39,1.84,2.57.3,2-.12,3.91-1.35,5.44-1.29,1.6-2.73,3.19-4.41,4.34-7.83,5.36-16.62,7.27-25.98,6.32-4.42-.45-8.24-2.61-11.39-5.67-2.16-2.1-3.95-4.58-5.88-6.9-.59-.71-1.1-1.5-1.57-2.15-1.45.13-1.6,1.25-2.08,1.98-1.76,2.7-3.76,5.16-6.28,7.18-4.17,3.35-8.89,4.84-14.27,4.35-4.82-.44-9.49-1.31-13.82-3.57-2.14-1.11-4.15-2.4-5.65-4.35-1.13-1.47-1.59-3.1-1.28-4.94.37-2.13,2.48-3.19,4.35-2.08.66.4,1.25.99,1.74,1.6,8.8,10.95,27.59,6.08,31.77-5.35Z"/>
  <path class="cls-1" d="M230.8,205.72c-2.05-4.97-2.35-10.05-1.81-15.17,1.84-17.49,14.77-24.49,25.9-25.98,4.94-.66,9.89-.4,14.75.96,12.23,3.44,20.15,12.94,21.17,25.6.18,2.22.12,4.48-.03,6.71-.1,1.57-.53,3.13-.84,4.83-2.4-.04-3.87-1.72-5.72-2.47-1.91-.77-3.77-1.67-5.6-2.49,0-1.91-.08-3.65.01-5.38.61-10.96-7-18.54-18.31-19.02-3.25-.14-6.39.56-9.31,1.94-5.99,2.84-9.41,7.64-9.81,14.25-.19,3.14.32,6.33.53,9.8-1.69.98-3.58,2.13-5.52,3.2-1.78.98-3.12,2.73-5.39,3.22Z"/>
  <path class="cls-1" d="M205.31,202.21c-.58,0-.93.1-1.18-.02-2.99-1.45-5.97-2.94-9.05-4.47-.06-5.17-1.12-9.91-5.18-13.44-3.29-2.86-7.22-4.11-11.47-4.11-4.78,0-9.12,1.44-12.56,4.96-3.35,3.42-4.2,7.76-4.3,12.58-3.24,1.59-6.48,3.18-9.57,4.71-1.23-.48-1.02-1.38-1.02-2.11.02-1.91-.05-3.85.24-5.73,1.59-10.48,7.55-17.33,17.58-20.63,6.92-2.28,13.84-2.04,20.64.52,9.89,3.74,15.84,12.14,16.18,22.72.05,1.69.28,3.43-.3,5.01Z"/>
</svg>