<?xml version="1.0" encoding="UTF-8"?>
<svg id="Layer_1" data-name="Layer 1" xmlns="http://www.w3.org/2000/svg" viewBox="0 0 587.8 443.02">
  <defs>
    <style>
      .cls-1 {
        fill: #fff;
      }
    </style>
  </defs>
  <path d="M91.92,73.66c8.23-4.53,15.91-8.76,23.95-13.19,1.03-5.2,2.15-10.66,3.18-16.14,2.33-12.41,4.62-24.83,6.93-37.24.18-.94.41-1.88.66-2.8.58-2.2,1.96-3.65,4.21-4.12,2.38-.5,4.46.06,5.98,2.06.78,1.02,1.49,2.08,2.21,3.14,8,11.77,16,23.55,24,35.32.98,1.43,1.99,2.84,3.01,4.29,43.55-6.78,85.06-1.28,124.34,18.49,33.06,16.63,59.48,40.7,79.39,71.9,2.92,4.58,5.64,9.3,8.17,14.11,2.53,4.81,4.85,9.73,6.98,14.73,2.07,4.84,3.96,9.78,5.62,14.78,1.72,5.15,3.24,10.38,4.53,15.65s2.36,10.61,3.22,15.97c.86,5.36,1.48,10.77,1.93,16.19.43,5.26.68,10.54.68,15.82,0,5.43-.26,10.88-.7,16.29-.44,5.41-1.08,10.82-1.96,16.18-.88,5.36-2,10.69-3.3,15.96-1.26,5.12-2.72,10.2-4.4,15.19-1.73,5.15-3.66,10.24-5.8,15.23-2.14,4.99-4.49,9.91-7.03,14.7-2.54,4.8-5.29,9.5-8.21,14.09-2.83,4.45-5.87,8.77-9.02,13-3.21,4.31-6.66,8.43-9.89,12.47.46,1.16,1.2.99,1.78,1,1.76.06,3.52.04,5.28.04,64.78,0,129.56,0,194.34-.01,4.34,0,8.61.34,12.79,1.62,12.93,3.98,24.08,16.93,22.94,33.87-1.01,14.98-12.08,27.55-26.94,30.28-1.41.26-2.86.35-4.29.4-2.24.08-4.48.08-6.72.08-111.8,0-223.61,0-335.41,0-5.76,0-11.52.05-17.27-.07-49.47-1.02-92.88-17.89-129.85-50.67-33-29.26-53.92-65.79-63.06-108.94C.18,264.46-.9,245.35.74,226.07c3.51-41.21,18.34-77.83,44.29-109.95,1.99-2.47,3.21-5.05,3.71-8.11,1.63-9.94,3.31-19.87,4.97-29.8,1.96-11.67,3.91-23.33,5.88-34.99.16-.94.35-1.9.69-2.79,1.68-4.42,7.02-5.26,10.02-1.56.8.99,1.42,2.13,2.08,3.22,5.6,9.13,11.19,18.27,16.8,27.4.82,1.34,1.72,2.64,2.73,4.18ZM145.06,143.16c-14.52-.33-27.12,12.04-27.12,27.1,0,14.44,11.95,27.1,27.17,27.11,14.4,0,27.13-11.77,27.1-27.16-.03-16.13-13.6-27.47-27.15-27.05ZM73.8,198.21c11.44.3,23.69-8.87,23.84-23.74.12-13.04-9.98-24.17-24.04-24.07-15.79.11-24.03,13.38-23.86,24.27.19,12.31,10.57,23.86,24.07,23.54ZM105.34,216.36c-3.51,0-7.02-.01-10.53,0-.95,0-1.92.02-2.85.18-1.56.27-2.32,1.78-1.72,3.29.17.44.4.87.67,1.26,3.94,5.81,7.85,11.64,11.87,17.39,1.49,2.13,2.98,2.05,4.61.04.2-.25.37-.52.55-.79,3.68-5.4,7.36-10.81,11.04-16.22.36-.52.7-1.07.95-1.65.63-1.47-.14-3.04-1.68-3.32-.93-.17-1.9-.18-2.85-.19-3.35-.02-6.7,0-10.05,0Z"/>
  <path class="cls-1" d="M145.06,143.16c13.55-.42,27.11,10.91,27.15,27.05.03,15.39-12.7,27.17-27.1,27.16-15.22,0-27.18-12.67-27.17-27.11,0-15.06,12.61-27.43,27.12-27.1ZM147.66,186.63c7.81.23,16.3-6.2,16.33-16.56.03-9.05-7.52-16.33-16.64-16.27-9.12.06-16.49,7.49-16.31,16.58.21,10.46,8.9,16.62,16.62,16.25Z"/>
  <path class="cls-1" d="M73.8,198.21c-13.5.33-23.88-11.22-24.07-23.54-.16-10.89,8.07-24.16,23.86-24.27,14.06-.1,24.17,11.03,24.04,24.07-.14,14.87-12.39,24.04-23.84,23.74ZM90.52,174.55c.31-7.78-5.87-14.6-14.34-14.77-7.97-.17-14.64,6.56-14.64,14.57s6.29,14.28,14.19,14.48c8.14.21,14.69-6.12,14.78-14.28Z"/>
  <path class="cls-1" d="M105.34,216.36c3.35,0,6.7-.01,10.05,0,.95,0,1.92.02,2.85.19,1.54.28,2.31,1.84,1.68,3.32-.25.58-.59,1.13-.95,1.65-3.67,5.41-7.36,10.81-11.04,16.22-.18.26-.35.54-.55.79-1.63,2.01-3.13,2.09-4.61-.04-4.02-5.75-7.93-11.58-11.87-17.39-.27-.39-.49-.82-.67-1.26-.6-1.51.16-3.02,1.72-3.29.93-.16,1.9-.18,2.85-.18,3.51-.02,7.02,0,10.53,0Z"/>
  <path d="M147.66,186.63c-7.71.37-16.41-5.79-16.62-16.25-.18-9.09,7.19-16.52,16.31-16.58,9.13-.06,16.68,7.21,16.64,16.27-.04,10.36-8.52,16.79-16.33,16.56Z"/>
  <path d="M90.52,174.55c-.09,8.16-6.64,14.49-14.78,14.28-7.91-.2-14.19-6.61-14.19-14.48s6.67-14.74,14.64-14.57c8.46.18,14.65,6.99,14.34,14.77Z"/>
</svg>