<?xml version="1.0" encoding="UTF-8"?>
<svg id="Layer_1" data-name="Layer 1" xmlns="http://www.w3.org/2000/svg" viewBox="0 0 603.58 431.3">
  <defs>
    <style>
      .cls-1 {
        fill: #fff;
      }
    </style>
  </defs>
  <path d="M599.56,183.25c-5.97-28.01-17.96-53.2-35.77-75.62-1.65-2.07-2.68-4.22-3.08-6.86-2.51-16.75-5.12-33.5-7.72-50.24-.58-3.79-1.22-7.58-1.92-11.35-.42-2.26-1.91-3.67-4.13-4.18-2.27-.53-4.08.39-5.42,2.2-.77,1.03-1.42,2.14-2.1,3.22-5.38,8.52-10.74,17.05-16.14,25.55-.56.89-1.35,1.64-2.05,2.48-.81-.45-1.39-.72-1.92-1.07-15.87-10.17-32.91-17.7-51.1-22.66-1.04-.29-2.04-.75-3.13-1.16-1.41-8.03-2.78-15.89-4.17-23.75-.91-5.2-1.82-10.4-2.77-15.58-.38-2.07-1.62-3.49-3.67-4.01-2.17-.56-4.14-.1-5.61,1.73-.8,1-1.52,2.05-2.25,3.1-6.78,9.7-13.55,19.41-20.33,29.11-1,1.44-2.06,2.83-2.98,4.09-57.21.55-105.2,21.3-142.25,64.74-37.19,43.62-49.72,94.54-41.18,151.12-.74.2-1.48.5-2.24.59-6.08.68-12.12.32-18.14-.81-4.43-.82-8.67-2.22-12.65-4.35-8.94-4.8-14.76-12.1-17.14-22-1.24-5.16-1.61-10.41-.94-15.72.65-5.07,1.3-10.15,1.79-15.24,1.69-17.53.4-34.84-4.37-51.81-5.12-18.19-13.86-34.37-27.64-47.53-15.61-14.92-34.27-23.29-55.77-25-17.63-1.4-34.36,2.29-50.22,9.99-18.34,8.91-33.34,21.9-45.83,37.88C1.81,126.4-.25,133.65.03,141.63c.66,18.66,17.92,34.77,39.2,30.83,8.01-1.48,14.56-5.57,19.65-11.95,4.11-5.15,8.68-9.83,14.01-13.74,4.81-3.52,9.99-6.3,15.83-7.78,11.14-2.81,21.12.81,27.84,10.16,3.12,4.34,5.12,9.2,6.46,14.35,2.7,10.38,2.82,20.92,1.35,31.44-1.85,13.22-2.57,26.41-.45,39.65,3.39,21.15,12.21,39.65,27.33,54.91,19.48,19.68,43.58,29.16,70.84,31.15,12.81.94,25.58.13,38.19-2.5,1.37-.29,2.8-.84,4.47.09,4.88,7.78,10.4,15.43,16.6,22.55,1.17,1.36,1.28,2.85,1.27,4.47-.09,7.2-.15,14.4-.22,21.59-.09,9.6-.16,19.2-.28,28.79-.08,6.25,1.4,12.09,4.75,17.34,6.95,10.88,17.01,16.45,29.87,15.73,13.67-.76,23.31-7.94,28.88-20.47.45-1.02.7-2.13,1.13-3.16.21-.49.62-.89,1.19-1.69.68,2.02,1.12,3.54,1.7,5.01,9.18,23.36,38.12,27.76,54.16,11.61,3.56-3.58,6.13-7.76,7.89-12.47.36-.98.9-1.9,1.53-3.21.71.79,1.23,1.16,1.46,1.67.45,1.02.7,2.13,1.1,3.17,6.09,16.03,23.27,24.77,39.78,20.06,10.9-3.12,18.2-10.25,22.26-20.8.42-1.09.11-2.67,1.82-3.15.46,1.38.89,2.74,1.36,4.09,4.42,12.77,17.31,22.79,33.21,21.87,13.9-.8,26.23-10.73,29.74-24.58.81-3.21,1.1-6.63,1.17-9.96.23-12,.24-23.99.4-35.99.08-5.78-.76-4.43,3.59-8.73,6.39-6.31,12.31-13.02,17.67-20.22,22.02-29.51,34.22-62.6,36.47-99.39,1.01-16.56-.25-32.92-3.69-49.12ZM540.02,228.46c-1.21,1.25-2.49,2.51-3.95,3.42-8.79,5.46-21.3,2.98-27.52-5.4-.85-1.14-1.59-2.35-3.06-4.51-.93,1.31-1.38,2.21-2.07,2.87-9.27,8.89-26.14,8.34-35.11-2.53-1.21-1.46-2.18-3.15-3.05-4.84-.74-1.44-.08-2.88,1.35-3.59,1.16-.56,2.43-.23,3.35,1.02.67.89,1.15,1.91,1.81,2.82,5.51,7.62,16.23,10.05,24.43,5.54,2.87-1.58,5.15-3.74,6.63-6.97-1.33-3.63-3.42-7.04-5.15-10.6-.76-1.58-1.61-3.14-2.23-4.77-.62-1.6.33-2.91,2-2.98.64-.03,1.28,0,1.92.09,6.81.88,13.61,1.78,20.42,2.68.47.06.95.16,1.4.3,1.06.35,1.72,1.76,1.18,2.74-.45.83-1.05,1.59-1.67,2.31-2.84,3.25-5.71,6.47-8.55,9.72-.52.59-.94,1.26-1.33,1.8,2.28,10.15,14.07,14.94,22.66,9.35,1.07-.69,2.01-1.59,3.08-2.27,1.11-.71,2.59-.34,3.42.7.69.87.84,2.28.04,3.1ZM548.28,192.09c-18.36,4.34-37.03-7.17-41.25-25.94-.33-1.49-.11-3.2-1.77-4.52-.39.57-.86,1-1.03,1.53-.42,1.37-.66,2.8-1.07,4.18-4.95,16.65-20.78,29.23-40,28.17-20.83-1.16-34.59-17.12-36.92-33.21-.16-1.11-.39-2.2-.63-3.52-1-.34-2-.83-3.05-1.02-26.58-4.86-53.16-9.69-79.73-14.53-1.25-.23-2.53-.46-3.71-.9-1.45-.54-2.19-2.05-1.94-3.48.23-1.39,1.5-2.56,3.04-2.54,1.43.02,2.87.2,4.28.45,25.32,4.62,50.63,9.28,75.95,13.88,1.67.3,3.38.93,5.41.39,1.89-11.15,7.06-20.41,16.36-27.11,6.97-5.03,14.8-7.46,23.36-7.46,5.17-.01,10.17,1.09,14.94,3.08,4.62,1.94,8.75,4.66,12.33,8.16,3.7,3.62,6.52,7.84,8.69,12.54,2.1,4.55,2.56,9.51,3.78,14.84.67-.88,1.17-1.28,1.32-1.79.42-1.37.64-2.8,1.03-4.18,3.86-13.72,17.36-25.26,34.45-24.44,15.28.74,28.6,11.61,31.7,26.74,4.29,20.91-9.42,36.87-25.54,40.68Z"/>
  <path class="cls-1" d="M425.86,151.03c1.89-11.15,7.06-20.41,16.35-27.11,6.97-5.03,14.8-7.46,23.37-7.46,5.17,0,10.16,1.09,14.94,3.09,4.62,1.93,8.75,4.65,12.33,8.16,3.7,3.62,6.52,7.83,8.69,12.54,2.1,4.55,2.56,9.5,3.78,14.84.67-.88,1.17-1.28,1.32-1.79.42-1.37.64-2.8,1.03-4.18,3.86-13.72,17.36-25.26,34.45-24.44,15.28.74,28.6,11.61,31.71,26.74,4.29,20.91-9.42,36.87-25.55,40.68-18.36,4.34-37.03-7.17-41.24-25.94-.34-1.49-.11-3.2-1.77-4.53-.4.58-.87,1.01-1.03,1.54-.43,1.37-.67,2.8-1.08,4.18-4.95,16.65-20.78,29.23-40,28.17-20.82-1.15-34.59-17.11-36.91-33.21-.16-1.1-.39-2.2-.64-3.52-.99-.34-2-.83-3.05-1.02-26.57-4.86-53.15-9.68-79.73-14.53-1.25-.23-2.52-.46-3.71-.9-1.45-.54-2.19-2.05-1.94-3.48.24-1.39,1.51-2.56,3.05-2.54,1.43.02,2.87.19,4.28.45,25.32,4.62,50.62,9.28,75.95,13.87,1.67.3,3.38.94,5.41.39ZM465.23,123.11c-18.09,0-33.01,14.94-32.88,33.06.12,17.17,13.49,32.59,32.69,32.73,18.72.14,33.06-14.65,33.1-32.78.04-18.93-15.2-32.9-32.91-33.02ZM540.53,186.33c15.08-.03,27.45-12.42,27.47-27.51.02-15.12-12.23-27.37-27.42-27.53-14.9-.16-27.73,11.93-27.71,27.71.02,15.05,12.57,27.36,27.65,27.33Z"/>
  <path class="cls-1" d="M505.49,221.97c-.94,1.31-1.39,2.21-2.07,2.87-9.27,8.9-26.14,8.34-35.11-2.52-1.21-1.46-2.17-3.15-3.05-4.84-.74-1.44-.08-2.88,1.35-3.58,1.16-.57,2.43-.23,3.35,1.01.66.89,1.15,1.92,1.8,2.82,5.51,7.62,16.23,10.06,24.43,5.54,2.87-1.58,5.15-3.74,6.64-6.97-1.33-3.63-3.42-7.04-5.15-10.6-.76-1.58-1.61-3.13-2.24-4.76-.62-1.6.34-2.92,2.01-2.98.64-.03,1.28,0,1.91.09,6.81.88,13.62,1.78,20.43,2.69.47.06.95.15,1.4.3,1.06.35,1.72,1.76,1.18,2.74-.45.83-1.05,1.59-1.67,2.31-2.83,3.25-5.71,6.47-8.55,9.72-.52.59-.94,1.27-1.33,1.8,2.28,10.15,14.07,14.94,22.67,9.35,1.07-.69,2-1.59,3.07-2.27,1.11-.71,2.6-.34,3.42.7.69.87.85,2.28.05,3.1-1.21,1.25-2.49,2.5-3.96,3.42-8.79,5.47-21.29,2.98-27.52-5.4-.84-1.13-1.59-2.34-3.05-4.51Z"/>
  <path d="M465.23,123.11c17.71.12,32.95,14.08,32.91,33.02-.04,18.13-14.39,32.92-33.1,32.78-19.2-.15-32.57-15.56-32.69-32.73-.13-18.12,14.79-33.06,32.88-33.06ZM465.6,144.66c-2.76.07-5.7.63-8.44,2.08-5.6,2.96-9.31,7.61-12,13.2-.14.28-.25.59-.32.9-.28,1.21.3,2.62,1.35,3.34,1.16.79,3.04.75,3.97-.27.74-.81,1.2-1.87,1.87-2.74,1.65-2.13,3.11-4.49,5.08-6.28,5.09-4.63,11.54-4.74,17.04-.61,2.87,2.15,4.88,5,6.49,8.16.5.99.89,2.06,1.48,2.99.85,1.36,2.4,1.86,3.73,1.37,1.56-.57,2.38-2.06,2.09-3.84-.08-.47-.18-.95-.37-1.38-2.51-5.84-6.09-10.82-11.66-14.15-3.08-1.84-6.43-2.73-10.32-2.78Z"/>
  <path d="M540.53,186.33c-15.09.03-27.63-12.28-27.65-27.33-.02-15.78,12.81-27.86,27.71-27.71,15.18.16,27.44,12.41,27.42,27.53-.02,15.09-12.4,27.48-27.47,27.51ZM541.63,147.83c-8.49.04-16.48,6.09-18.78,13.38-.46,1.45.08,3.02,1.29,3.77,1.37.85,3.31.59,4.32-.71.68-.88,1.09-1.97,1.78-2.83,1.29-1.61,2.53-3.33,4.11-4.63,3.74-3.07,8.45-3.08,12.41-.27,2.26,1.6,3.94,3.71,5.22,6.16.52.99.85,2.12,1.53,2.97.55.69,1.43,1.34,2.27,1.53,2.42.53,4.48-1.77,3.59-4.15-2.5-6.72-6.64-12.01-13.7-14.41-1.64-.56-3.42-.68-4.04-.8Z"/>
  <path class="cls-1" d="M465.6,144.66c3.89.05,7.24.93,10.32,2.78,5.57,3.33,9.14,8.3,11.66,14.15.19.43.29.91.37,1.38.29,1.77-.54,3.27-2.09,3.84-1.33.49-2.87-.02-3.73-1.37-.59-.94-.98-2-1.48-2.99-1.61-3.16-3.62-6.01-6.49-8.16-5.5-4.13-11.95-4.02-17.04.61-1.97,1.79-3.43,4.15-5.08,6.28-.68.88-1.13,1.93-1.87,2.74-.93,1.03-2.81,1.07-3.97.27-1.05-.72-1.63-2.13-1.35-3.34.07-.31.18-.61.32-.9,2.69-5.59,6.41-10.25,12-13.2,2.74-1.45,5.69-2.01,8.44-2.08Z"/>
  <path class="cls-1" d="M541.63,147.83c.63.12,2.41.24,4.04.8,7.06,2.39,11.2,7.69,13.7,14.41.89,2.38-1.17,4.69-3.59,4.15-.84-.18-1.73-.84-2.27-1.53-.68-.85-1.01-1.98-1.53-2.97-1.28-2.44-2.96-4.55-5.22-6.16-3.96-2.81-8.67-2.8-12.41.27-1.58,1.29-2.81,3.02-4.11,4.63-.69.86-1.1,1.95-1.78,2.83-1.01,1.31-2.94,1.57-4.32.71-1.21-.75-1.75-2.32-1.29-3.77,2.3-7.28,10.29-13.34,18.78-13.38Z"/>
  <polygon class="cls-1" points="531.37 245.03 536.22 274.78 519.66 265.8 519.52 266.14 533.49 333.32 512.33 332.54 505.9 263.33 491.44 331.19 470.29 329.61 492.56 263.61 473.53 270.63 481.92 242.13 482.52 242.02 506.22 257.17 530.49 245.17 531.37 245.03"/>
</svg>