<?xml version="1.0" encoding="UTF-8"?>
<svg id="Layer_1" data-name="Layer 1" xmlns="http://www.w3.org/2000/svg" viewBox="0 0 833.78 360.64">
  <defs>
    <style>
      .cls-1 {
        fill: #fff;
      }
    </style>
  </defs>
  <path d="M134.65,289.76c-.24-.88-.24-1.24-.42-1.44-2.63-2.99-5.29-5.96-8.05-9.05-2.87.53-5.67,1.11-8.49,1.54-17.01,2.61-34.1,2.53-51.21,1.48-10.7-.65-21.35-1.76-31.95-3.34-3.31-.49-6.67-.99-9.86-1.94-14.87-4.43-25.66-18.96-24.58-35.94.98-15.51,13-29.19,28.5-31.96,4.6-.82,9.24-.62,13.86.1,17.58,2.72,35.26,4.02,53.06,3.51,3.67-.11,7.32-.34,10.98-1.29.3-.98.67-1.87.85-2.79,3.02-14.88,9.75-28.01,18.92-39.96,2.43-3.17,5.17-6.1,7.68-9.21,1.6-1.98,3.2-3.99,4.52-6.16,11.2-18.46,22.29-36.97,33.5-55.42,2.66-4.37,5.62-8.55,8.48-12.79.71-1.06,1.46-2.14,2.38-3,3.31-3.08,8.38-1.47,9.28,2.98.44,2.19.59,4.44.81,6.67.7,7.32,1.36,14.65,2.05,21.97.06.6.25,1.18.45,2.06,1.08-.36,1.97-.6,2.82-.96,4.41-1.88,8.76-3.91,13.23-5.65,2.34-.91,4.06-2.42,5.76-4.14,11.8-11.96,23.59-23.91,35.47-35.79,4.18-4.18,8.57-8.16,12.88-12.22.81-.77,1.64-1.54,2.57-2.16,3.79-2.52,8.82.14,8.68,4.44-.13,4.15-.43,8.3-.72,12.45-.36,5.26-.81,10.52-1.17,15.79-.05.75.14,1.52.24,2.52,1.47-.12,2.74-.1,3.96-.33,12.41-2.39,24.93-4.12,37.51-5.25,17.69-1.58,35.42-2.49,53.19-1.79,8.95.36,17.91.7,26.82,1.46,42.52,3.64,83.68,12.85,122.67,30.66,11.36,5.19,22.3,11.17,32.73,18.06,1.16.76,2.38,1.42,3.74,2.22,1.09-1.91.81-3.71.91-5.41.85-14.96,3.77-29.51,9.24-43.45,15.45-39.4,43.64-65.47,83.59-78.89,17.62-5.92,35.81-8.1,54.37-7.14,37.74,1.95,71.3,15.27,101.55,37.44,5.67,4.15,11.03,8.74,16.34,13.35,7.35,6.39,11.34,14.57,11.94,24.3,1.15,18.55-12.13,33.96-29.14,36.63-11.27,1.77-21.22-1.22-29.72-8.88-12.36-11.13-26.13-19.99-41.7-25.98-10.69-4.11-21.74-6.56-33.16-7.03-12.48-.51-24.56,1.54-35.98,6.74-18.54,8.44-30.08,22.75-35.14,42.4-1.77,6.86-2.39,13.86-2.44,20.92-.11,16.23-2.01,32.22-6.25,47.91-.79,2.93-1.72,5.82-2.56,8.74-.3,1.04-.53,2.1-.89,3.54,1.41-.15,2.53-.09,3.53-.39,5.51-1.66,11.02-3.3,16.47-5.14,9.05-3.07,18.03-2.99,26.61,1.19,13.49,6.57,20.59,17.59,20.26,32.63-.33,14.83-7.8,25.43-21.34,31.42-7.46,3.3-15.36,5.44-23.26,7.46-11.95,3.07-24.05,5.21-36.38,5.98-.8.05-1.59.19-2.39.2-1.77.03-3.03.83-3.85,2.38-.79,1.5-2.3,2.64-2.51,4.71,1.28,0,2.38.1,3.46-.01,24.88-2.52,49.36-7.03,73.18-14.78,2.43-.79,4.85-1.62,7.29-2.39,18.92-6.05,39.53,5.37,44.39,25,4.25,17.16-4.83,34.85-21.55,41.18-5.82,2.2-11.8,4.03-17.78,5.79-19.82,5.82-39.99,9.98-60.45,12.79-21.91,3-43.92,4.44-66.01,4.28-31.11-.24-61.95-3.11-92.29-10.3-16.17-3.83-32.27-7.96-48.42-11.92-11.96-2.93-24.03-5.3-36.25-6.92-23.29-3.08-45.98-.66-67.92,7.74-27.42,10.49-55.71,17.71-84.56,22.87-29.23,5.23-58.69,7.34-88.36,6.36-14.07-.46-28.1-1.58-42.04-3.6-16.74-2.42-29.49-16.58-29.86-33.71-.39-17.67,11.48-31.53,27.55-35.18,3.58-.81,7.26-.97,10.97-.59,8.59.89,17.19,1.64,25.79,2.41,1.09.1,2.2.01,3.64.01ZM202.89,191.17c1.88,2.59,4.29,3.89,6.76,4.93,10.52,4.43,21.13,4.5,31.63.03,2.44-1.04,4.78-2.65,6.71-4.49,5.18-4.92,5.12-11.44.12-16.51-2.52-2.55-5.59-4.25-8.92-5.45-7.24-2.6-14.66-2.88-22.18-1.45-4.12.78-7.99,2.24-11.44,4.67-.72.51-1.26,1.28-2.48,2.55,2.84-.62,4.82-1.09,6.82-1.49,4.53-.9,8.9-.2,13.14,1.46,1.95.77,3.67,1.93,5.03,3.56,2.2,2.66,2.34,6.22-.05,8.72-1.39,1.46-3.19,2.67-5.02,3.55-3.37,1.62-7.07,2.06-10.76,1.65-2.98-.33-5.9-1.07-9.37-1.73ZM137.08,195.68c1.81,2.49,3.64,3.49,5.5,4.33,9.1,4.11,18.24,4.11,27.33-.03,2.49-1.13,4.68-2.75,6.45-4.87,4.13-4.93,4.13-10.81-.02-15.7-1.89-2.23-4.23-3.9-6.89-5.06-8.81-3.85-17.65-3.87-26.46-.04-2.02.88-3.96,1.93-5.77,4.22,2.21-.29,3.87-.59,5.53-.72,4.77-.36,9.28.43,12.99,3.69,3.9,3.42,3.82,8.22-.11,11.61-2.36,2.04-5.17,3.11-8.27,3.44-3.19.35-6.34.09-10.28-.87ZM193.63,228.23c0,.06,0,.11,0,.17-4.78.3-9.56.58-14.33.89-.95.06-1.92.14-2.85.33-1.98.4-2.68,1.89-1.48,3.53,3.3,4.5,6.67,8.96,10.11,13.35,1.26,1.61,2.84,1.54,3.91-.17,3.04-4.87,6.01-9.79,8.89-14.76,1.02-1.76.1-3.23-1.86-3.34-.79-.04-1.59,0-2.39,0Z"/>
  <path class="cls-1" d="M202.89,191.17c3.46.66,6.39,1.4,9.37,1.73,3.69.41,7.39-.03,10.76-1.65,1.83-.88,3.63-2.09,5.02-3.55,2.39-2.5,2.25-6.06.05-8.72-1.36-1.64-3.08-2.8-5.03-3.56-4.24-1.66-8.61-2.37-13.14-1.46-2,.4-3.98.87-6.82,1.49,1.22-1.27,1.76-2.04,2.48-2.55,3.45-2.42,7.31-3.88,11.44-4.67,7.52-1.42,14.94-1.15,22.18,1.45,3.33,1.2,6.4,2.89,8.92,5.45,5,5.07,5.06,11.6-.12,16.51-1.93,1.83-4.27,3.45-6.71,4.49-10.5,4.47-21.11,4.4-31.63-.03-2.47-1.04-4.88-2.35-6.76-4.93Z"/>
  <path class="cls-1" d="M137.08,195.68c3.94.96,7.09,1.22,10.28.87,3.1-.34,5.91-1.4,8.27-3.44,3.93-3.39,4.01-8.19.11-11.61-3.71-3.26-8.21-4.05-12.99-3.69-1.67.13-3.32.43-5.53.72,1.81-2.29,3.76-3.35,5.77-4.22,8.81-3.83,17.66-3.81,26.46.04,2.66,1.17,5,2.83,6.89,5.06,4.15,4.89,4.15,10.77.02,15.7-1.77,2.12-3.97,3.74-6.45,4.87-9.09,4.14-18.23,4.14-27.33.03-1.86-.84-3.69-1.84-5.5-4.33Z"/>
  <path class="cls-1" d="M193.63,228.23c.8,0,1.6-.04,2.39,0,1.96.11,2.88,1.57,1.86,3.34-2.88,4.97-5.85,9.88-8.89,14.76-1.07,1.71-2.65,1.78-3.91.17-3.44-4.4-6.81-8.85-10.11-13.35-1.2-1.64-.5-3.13,1.48-3.53.93-.19,1.9-.26,2.85-.33,4.78-.31,9.55-.6,14.33-.89,0-.06,0-.11,0-.17Z"/>
</svg>