<?xml version="1.0" encoding="UTF-8"?>
<svg id="Layer_1" data-name="Layer 1" xmlns="http://www.w3.org/2000/svg" viewBox="0 0 750.19 711.9">
  <defs>
    <style>
      .cls-1 {
        fill: #7c8484;
      }

      .cls-2 {
        fill: #fff;
      }

      .cls-3 {
        fill: #acc4c4;
      }

      .cls-4 {
        fill: #acbfbf;
      }
    </style>
  </defs>
  <path d="M422.08,385.2c.39.38.84.37,1.3.26,6.89-1.59,13.87-2.71,20.85-3.8,4.65-.73,9.37-1.08,14.02-1.78,5.39-.81,10.83-.63,16.23-1.07,3.05-.25,6.13-.16,9.19.07,2.59.19,5.19.19,7.78.37,27.66,2.01,53.53,9.51,76.63,25.28,17.08,11.66,30.51,26.62,40,45.02,6.37,12.36,10.42,25.47,12.2,39.29.95,7.39,1.46,14.79,1.09,22.22-.54,10.97-2.17,21.8-5.23,32.37-1.28,4.41-2.76,8.76-4.13,13.15-3.6,11.55-5.8,23.32-5.28,35.48.29,6.87,1.5,13.58,4.3,19.92,2.58,5.84,6.29,10.78,11.66,14.35,4.52,3,9.5,4.58,14.93,4.9,8.84.53,17.05-1.72,24.95-5.44,6.87-3.24,13.13-7.43,18.9-12.34,3.24-2.76,6.55-5.38,10.39-7.29,23.1-11.52,52.38,1.09,57.56,28.73,2.63,14.05-1.55,26.4-11.91,36.37-5.96,5.73-12.62,10.63-19.48,15.25-13.6,9.15-28.18,16.19-44,20.6-7.28,2.03-14.67,3.38-22.2,4.17-6.48.68-12.97.83-19.43.38-18.31-1.26-35.39-6.53-51.02-16.24-21.6-13.43-36.65-32.25-45.86-55.84-4.01-10.26-6.55-20.9-7.97-31.8-1.43-11.03-1.51-22.14-.64-33.19,1.28-16.27,4.76-32.13,10.12-47.57,1.63-4.69,2.95-9.46,3.55-14.38,1.75-14.41-1.66-27.16-12.5-37.37-5.31-5-11.58-8.5-18.4-10.99-6.56-2.4-13.34-3.86-20.3-4.48-3.06-.27-6.1-.51-9.17-.59-7.22-.19-14.37.61-21.49,1.61-12.96,1.81-25.73,4.6-38.37,8-16.29,4.38-32.26,9.69-48.04,15.62-8.94,3.35-17.82,6.85-26.59,10.61-5.26,2.26-10.7,3.67-16.44,3.7-7.34.04-14.23-1.74-20.6-5.45-.81-.48-1.68-.89-2.4-1.49-1.26-1.05-2.52-.99-3.95-.43-5.16,2.01-10.42,3.75-15.74,5.3-11.56,3.36-23.3,5.82-35.26,7.28-10.32,1.26-20.66,2.03-31.05,1.79-8.25-.19-16.47-.76-24.68-1.77-27.09-3.33-52.65-11.45-76.76-24.19-14.97-7.91-28.85-17.43-41.63-28.54-23.47-20.38-41.97-44.57-55.44-72.58-8.53-17.73-14.52-36.29-18.08-55.63-1.6-8.69-2.68-17.45-3.19-26.29-.28-4.95-.46-9.89-.48-14.84-.03-9.56.74-19.06,1.93-28.55,1.83-14.67,5.19-28.97,9.97-42.94,8.98-26.28,22.4-50.06,40.25-71.35,17.7-21.11,38.59-38.36,62.65-51.75,2.03-1.13,3.1-2.52,3.67-4.77,4.09-16.21,8.3-32.4,12.51-48.58,2.16-8.32,4.38-16.63,6.59-24.93.27-1.02.58-2.05,1-3.01,1.04-2.37,2.91-3.68,5.48-3.85,2.59-.18,4.58.96,5.91,3.15.61,1,1.04,2.11,1.51,3.19,7.45,17.19,14.88,34.39,22.37,51.57,2.27,5.2,1.01,4.15,6.34,3.22,5.57-.97,11.14-1.95,16.77-2.56,5.39-.58,10.78-1.25,16.21-1.31,1.31-.02,2.22-.48,2.98-1.52,2.71-3.72,5.5-7.37,8.18-11.11,10.12-14.07,20.21-28.16,30.31-42.25.48-.67.94-1.36,1.47-1.99,1.74-2.08,3.96-3,6.61-2.3,2.61.69,4.26,2.44,4.82,5.12.46,2.19.89,4.39,1.32,6.58,3.36,17.22,6.73,34.44,10.09,51.66.11.58.24,1.15.42,1.71.18.59.57,1,1.21,1.16.8.21,1.58.47,2.38.68,20.84,5.71,40.39,14.34,58.72,25.76,17.32,10.8,32.87,23.75,46.63,38.81,17.25,18.88,30.93,40.08,40.91,63.66,6.18,14.59,10.77,29.67,13.73,45.22,1.54,8.1,2.57,16.28,3.22,24.51.64,8.01.69,16.02.53,24.03-.26,13.23-1.9,26.3-4.61,39.25-3.97,19.02-10.36,37.19-19.12,54.54-.37.72-.89,1.4-.87,2.26Z"/>
  <path class="cls-2" d="M175.68,132.94c1.02.28,2.03.57,3.05.84,9.89,2.66,21.33-4.38,22.41-15.76.27-2.86.45-2.63,2.94-2.62,7.42.03,14.84.03,22.26.05.71,0,1.42,0,2.12.07.52.05.8.45.84.96.15,2.26-.27,4.48-.81,6.64-3.65,14.52-15.52,21.66-25.08,22.77-11.86,1.38-21.48-2.49-28.69-12.11-.08-.75.13-1.15.97-.84Z"/>
  <path class="cls-2" d="M100.68,136.43c2.12.04,4.21.15,6.33-.33,8.62-1.95,13.89-10.57,12.29-18.73-.11-.57-.22-1.15-.32-1.67.56-.48,1.15-.43,1.73-.43,7.67,0,15.34.02,23.01.03.24,0,.47,0,.71,0,.82,0,1.3.33,1.41,1.2.5,4.15.39,8.28-1.04,12.23-3.48,9.61-10.14,15.83-20.26,17.74-10.2,1.93-18.83-1.16-25.58-9.16.04-1.34.85-1.16,1.72-.88Z"/>
  <path class="cls-2" d="M141.19,168.18c3.18,0,6.36,0,9.54,0,.82,0,1.66,0,2.46.12,1.38.21,2.19,1.65,1.67,2.92-.22.54-.57,1.02-.91,1.51-3.49,5.03-6.99,10.05-10.48,15.07-.07.1-.16.18-.21.28-1.19,2.34-3.64,2.14-4.98,0-3.32-5.28-6.81-10.45-10.25-15.65-.39-.6-.72-1.2-.73-1.94-.01-.96.62-1.94,1.53-2.1.81-.14,1.64-.15,2.46-.16,3.3-.02,6.6,0,9.9,0v-.05Z"/>
  <path class="cls-4" d="M100.68,136.43c-.57.29-1.38.13-1.72.88-.25-.2-.54-.37-.75-.62-.35-.41-.36-.88.27-.92.78-.05,1.59.03,2.2.65Z"/>
  <path class="cls-3" d="M175.68,132.94c-.32.28-.65.56-.97.84-.43-.01-.57-.32-.68-.66-.24-.37-.2-.72.11-1.03.6.13,1.21.24,1.54.85Z"/>
  <path class="cls-1" d="M174.14,132.09l-.11,1.03c-.2-.25-.45-.48-.58-.77-.06-.13.07-.43.2-.53.2-.15.41-.01.49.27Z"/>
</svg>