<?xml version="1.0" encoding="UTF-8"?>
<svg id="Layer_1" data-name="Layer 1" xmlns="http://www.w3.org/2000/svg" viewBox="0 0 1485.36 902.79">
  <defs>
    <style>
      .cls-1 {
        fill: #010101;
      }

      .cls-2 {
        fill: #fff;
      }
    </style>
  </defs>
  <g>
    <path class="cls-1" d="M1483.88,223.67c-10.68,56.6-69.85,82.3-117.06,59.03-17.35-8.56-29.99-21.88-38.11-39.44-6.6-14.3-14.67-27.64-25.03-39.53-12.43-14.27-27.01-25.68-44.62-32.86-15.46-6.32-31.35-9.14-48.11-6.2-22.3,3.92-37.11,16.37-44.27,37.78-5.43,16.23-5.78,33.02-3.68,49.79,3.33,26.28,6.18,52.62,7.46,79.04,1.8,37.27,2.08,74.54-1.28,111.78-3.08,34.26-8.82,67.98-18.28,101.05-18.73,65.35-50.68,123.14-98.65,171.68-31.72,32.11-68.1,57.86-108.15,78.57-5.55,2.57-11.4,2.61-17.38,2.61h-62.62c-259.69-.05-519.39-.05-779.06-.05-10.45,0-20.9.05-31.35-.02-3.31-.02-6.6-.26-9.91-.44-.42-.02-.84-.05-1.26-.07-.54-1.38-1-2.8-1.61-4.13C10.62,724.89-2.93,655.06.53,582.74c.05-.93.09-1.87.14-2.8.65-12.48,1.82-25.02,3.5-37.64,5.22-39.39,15.51-77.38,30.86-114,23.65-56.46,57.4-106.07,101.1-148.89,2.05-2.01,3.71-4.03,4.99-6.25,5.48-5.22,11.08-10.29,16.82-15.23,23.09-19.89,48.23-37.5,75-52.5,1.35-.75,2.71-1.49,4.06-2.24,1.1.56,2.31.12,4.55-1.07,15.14-8.05,30.67-15.3,46.71-21.36,2.24-.84,3.87-1.94,5.01-3.4,6.86-2.59,13.78-5.04,20.8-7.3,29.97-9.7,61.29-16.37,93.62-19.66,1.73,1.63,3.59,1.05,10.8.58,4.83-.3,9.63-.96,14.48-1.17,41.96-1.75,83.61,1.31,124.36,11.47,137.49,34.35,238.77,114.89,303.63,240.78,22.72,44.1,36.52,91.26,43.03,140.4.93,7.07,1.75,14.16,2.43,21.25,0,.09,0,.19.02.28,1.61,17.31,2.24,34.68,1.35,52.12-.05,1.12-.12,2.22-.19,3.34-.05.79-.49,1.94-.05,2.73.19.35.56.63,1.24.77,2.59-.21,4.08-2.03,5.78-3.38,34.45-26.94,58.21-61.45,72.95-102.45,11.94-33.28,17.49-67.82,19.45-102.92,2.45-43.66.33-87.23-5.2-130.61-4.34-33.89-5.18-67.63,1.26-101.36,7.39-38.78,22.34-74.21,48-104.46C1094.14,26.97,1150.2,2.81,1215.95.19c35.45-1.42,69.83,5.06,102.74,18.38,75.98,30.74,127.34,86.36,160.43,160.09,6.44,14.34,7.65,29.74,4.76,45.01Z"/>
    <g>
      <path class="cls-1" d="M476.43,150.3c-49.28,2.75-96.83,11.83-141.92,26.42-1.05-1.28-2.57-1.89-3.76-2.75-22.53-15.95-44.94-32.07-67.73-47.62-7.04-4.83-9.49-10.98-9.56-18.89-.09-8.35,3.89-14.2,10.96-18.12,7-3.87,14.62-5.5,22.51-6.02,15.72-1.05,31.35-.07,46.83,2.66,33.93,5.99,66.75,15.7,97.81,30.76,9.03,4.39,17.7,9.59,26.21,14.95,7.49,4.74,13.97,10.66,18.63,18.61Z"/>
      <path class="cls-1" d="M144.32,272.01c.09-.21.21-.47.35-.72-2.85-2.12-5.76-4.39-8.77-6.51-21.01-14.86-42.05-29.69-63.06-44.52-2.15-1.52-4.29-3.01-6.3-4.69-3.52-2.96-5.76-6.79-6.65-11.33-1-5.13.02-9.96,4.08-13.22,3.73-2.98,7.95-5.57,12.36-7.42,10.05-4.25,20.8-5.81,31.63-6.44,27.05-1.61,53.59,1.33,79.72,8.63,11.94,3.34,22.97,8.7,34.19,13.76,5.08,2.31,10.1,4.74,15.53,7.32-33.23,18.59-64.42,40.44-93.08,65.14Z"/>
    </g>
    <path class="cls-2" d="M513.11,396.88c.89,37.85-29.64,73.98-73.47,74.56-40.86.56-74.45-32.58-74.79-73.3-.33-41.61,32.7-75.12,74.1-75.07,44.15.02,74.79,36.48,74.17,73.82Z"/>
    <path class="cls-2" d="M309.15,408.68c.51,34.14-27.78,65.35-65.58,65.23-37.2-.09-65.28-30.97-65.23-65.7.05-31.56,24.93-65.37,65.72-65.19,41.16.19,66.03,34.47,65.09,65.65Z"/>
    <path d="M479.83,405.66c.73,20.18-15.38,44.73-44.74,44.85-29.14.12-45.67-24.26-45.2-45.65.55-24.78,20.48-44.42,45.44-44.21,25.04.21,44.55,19.95,44.5,45.01Z"/>
    <path d="M247.15,456.3c-22.09.21-39.95-17.18-40.19-39.15-.24-21.89,17.44-39.67,39.35-40.14,16.85-.36,39.62,11.96,40.1,39.31.43,23.92-18.89,40.15-39.26,39.98Z"/>
  </g>
  <g>
    <path class="cls-1" d="M104.75,780.51l203.59,5.01c.12,1.8.26,3.58.43,5.38,4.6,52.91-30.26,100.65-82.36,110.17-61.7,11.24-114.13-33.88-119.18-89.69-.94-10.29-1.76-20.57-2.48-30.86Z"/>
    <path class="cls-1" d="M813.49,780.51l-203.59,5.01c-.12,1.8-.26,3.58-.43,5.38-4.6,52.91,30.26,100.65,82.36,110.17,61.7,11.24,114.13-33.88,119.18-89.69.94-10.29,1.76-20.57,2.48-30.86Z"/>
  </g>
  <path class="cls-2" d="M350.45,562.45c3.49-6.17,7.21-12.75,10.92-19.34,2.44-4.32,5.04-8.55,7.24-12.98,2.24-4.51,0-7.62-5.2-7.63-.99,0-1.98.1-2.97.18-14.49,1.16-28.98,2.3-43.47,3.49-2.59.21-5.45-.01-6.94,2.85-1.75,3.35.5,5.63,2.34,7.93,5.77,7.23,11.61,14.4,17.37,21.64,1.22,1.53,2.21,3.23,3.58,5.25-5.03,15.9-16.41,24.34-32.27,26.81-13.51,2.11-25.49-1.87-35.33-11.63-1.63-1.62-3.18-3.36-5-4.75-1.78-1.36-4.64-.95-6.45.53-2.02,1.66-2.74,3.92-1.79,6.2.87,2.07,2.25,4.03,3.77,5.7,21.24,23.32,61.11,21.74,80.47-3.17,1.81-2.33,3.43-4.82,5.39-7.61,2.76.74,3.95,3.24,5.69,4.94,15.49,15.08,39.46,17.51,57.53,5.76,5.06-3.29,9.36-7.35,12.32-12.65,1.73-3.09,1.12-6-1.41-7.94-2.31-1.77-5.15-1.83-7.22.19-1.88,1.84-3.36,4.07-5.19,5.96-15.72,16.17-43.11,11.48-53.38-9.76Z"/>
</svg>