<?xml version="1.0" encoding="UTF-8"?>
<svg id="Layer_1" data-name="Layer 1" xmlns="http://www.w3.org/2000/svg" viewBox="0 0 636.88 387.09">
  <defs>
    <style>
      .cls-1 {
        fill: #010101;
      }

      .cls-2 {
        fill: #fff;
      }
    </style>
  </defs>
  <g>
    <path class="cls-1" d="M636.25,95.9c-4.58,24.27-29.95,35.29-50.19,25.31-7.44-3.67-12.86-9.38-16.34-16.91-2.83-6.13-6.29-11.85-10.73-16.95-5.33-6.12-11.58-11.01-19.13-14.09-6.63-2.71-13.44-3.92-20.63-2.66-9.56,1.68-15.91,7.02-18.98,16.2-2.33,6.96-2.48,14.16-1.58,21.35,1.43,11.27,2.65,22.56,3.2,33.89.77,15.98.89,31.96-.55,47.93-1.32,14.69-3.78,29.15-7.84,43.33-8.03,28.02-21.73,52.8-42.3,73.61-13.6,13.77-29.2,24.81-46.37,33.69-2.38,1.1-4.89,1.12-7.45,1.12h-26.85c-111.35-.02-222.7-.02-334.04-.02-4.48,0-8.96.02-13.44-.01-1.42,0-2.83-.11-4.25-.19-.18,0-.36-.02-.54-.03-.23-.59-.43-1.2-.69-1.77C4.56,310.81-1.25,280.87.23,249.86c.02-.4.04-.8.06-1.2.28-5.35.78-10.73,1.5-16.14,2.24-16.89,6.65-33.18,13.23-48.88,10.14-24.21,24.61-45.48,43.35-63.84.88-.86,1.59-1.73,2.14-2.68,2.35-2.24,4.75-4.41,7.21-6.53,9.9-8.53,20.68-16.08,32.16-22.51.58-.32,1.16-.64,1.74-.96.47.24.99.05,1.95-.46,6.49-3.45,13.15-6.56,20.03-9.16.96-.36,1.66-.83,2.15-1.46,2.94-1.11,5.91-2.16,8.92-3.13,12.85-4.16,26.28-7.02,40.14-8.43.74.7,1.54.45,4.63.25,2.07-.13,4.13-.41,6.21-.5,17.99-.75,35.85.56,53.32,4.92,58.95,14.73,102.38,49.26,130.19,103.24,9.74,18.91,15.66,39.13,18.45,60.2.4,3.03.75,6.07,1.04,9.11,0,.04,0,.08.01.12.69,7.42.96,14.87.58,22.35-.02.48-.05.95-.08,1.43-.02.34-.21.83-.02,1.17.08.15.24.27.53.33,1.11-.09,1.75-.87,2.48-1.45,14.77-11.55,24.96-26.35,31.28-43.93,5.12-14.27,7.5-29.08,8.34-44.13,1.05-18.72.14-37.4-2.23-56-1.86-14.53-2.22-29,.54-43.46,3.17-16.63,9.58-31.82,20.58-44.79C469.14,11.56,493.18,1.2,521.37.08c15.2-.61,29.94,2.17,44.05,7.88,32.58,13.18,54.6,37.03,68.79,68.64,2.76,6.15,3.28,12.75,2.04,19.3Z"/>
    <g>
      <path class="cls-1" d="M204.28,64.44c-21.13,1.18-41.52,5.07-60.85,11.33-.45-.55-1.1-.81-1.61-1.18-9.66-6.84-19.27-13.75-29.04-20.42-3.02-2.07-4.07-4.71-4.1-8.1-.04-3.58,1.67-6.09,4.7-7.77,3-1.66,6.27-2.36,9.65-2.58,6.74-.45,13.44-.03,20.08,1.14,14.55,2.57,28.62,6.73,41.94,13.19,3.87,1.88,7.59,4.11,11.24,6.41,3.21,2.03,5.99,4.57,7.99,7.98Z"/>
      <path class="cls-1" d="M61.88,116.63c.04-.09.09-.2.15-.31-1.22-.91-2.47-1.88-3.76-2.79-9.01-6.37-18.03-12.73-27.04-19.09-.92-.65-1.84-1.29-2.7-2.01-1.51-1.27-2.47-2.91-2.85-4.86-.43-2.2.01-4.27,1.75-5.67,1.6-1.28,3.41-2.39,5.3-3.18,4.31-1.82,8.92-2.49,13.56-2.76,11.6-.69,22.98.57,34.18,3.7,5.12,1.43,9.85,3.73,14.66,5.9,2.18.99,4.33,2.03,6.66,3.14-14.25,7.97-27.62,17.34-39.91,27.93Z"/>
    </g>
    <path class="cls-2" d="M220.01,170.17c.38,16.23-12.71,31.72-31.5,31.97-17.52.24-31.92-13.97-32.07-31.43-.14-17.84,14.02-32.21,31.77-32.19,18.93.01,32.07,15.64,31.8,31.65Z"/>
    <path class="cls-2" d="M132.56,175.23c.22,14.64-11.91,28.02-28.12,27.97-15.95-.04-27.99-13.28-27.97-28.17.02-13.53,10.69-28.03,28.18-27.95,17.65.08,28.31,14.78,27.91,28.15Z"/>
    <path d="M195.04,178.54c.31,8.65-6.6,19.18-19.18,19.23-12.5.05-19.58-10.4-19.38-19.57.24-10.63,8.78-19.05,19.48-18.96,10.74.09,19.1,8.55,19.08,19.3Z"/>
    <path d="M95.28,200.26c-9.47.09-17.13-7.37-17.23-16.79-.1-9.39,7.48-17.01,16.87-17.21,7.23-.16,16.99,5.13,17.19,16.85.18,10.26-8.1,17.22-16.83,17.14Z"/>
    <path class="cls-2" d="M151.56,224.06c1.75,0,3.49-.07,5.23.03,1.16.06,1.93,1.36,1.56,2.45-.2.59-.48,1.17-.81,1.71-2.94,4.91-5.89,9.82-8.84,14.72-.16.27-.34.54-.54.79-1.23,1.6-2.66,1.73-3.92.1-3.8-4.9-7.56-9.84-11.23-14.85-1.27-1.73-.34-3.52,1.87-3.7,5.55-.45,11.11-.79,16.67-1.17,0-.03,0-.06,0-.09Z"/>
  </g>
  <g>
    <path class="cls-1" d="M44.91,334.66l87.29,2.15c.05.77.11,1.53.18,2.31,1.97,22.69-12.97,43.15-35.31,47.24-26.46,4.82-48.94-14.53-51.1-38.46-.4-4.41-.75-8.82-1.07-13.23Z"/>
    <path class="cls-1" d="M348.8,334.66l-87.29,2.15c-.05.77-.11,1.53-.18,2.31-1.97,22.69,12.97,43.15,35.31,47.24,26.46,4.82,48.94-14.53,51.1-38.46.4-4.41.75-8.82,1.07-13.23Z"/>
  </g>
</svg>