<?xml version="1.0" encoding="UTF-8"?>
<svg id="Layer_1" data-name="Layer 1" xmlns="http://www.w3.org/2000/svg" viewBox="0 0 1128.47 666.36">
  <defs>
    <style>
      .cls-1 {
        fill: #fcb816;
      }

      .cls-2 {
        fill: #fff;
      }

      .cls-3 {
        fill: none;
        stroke: #000;
        stroke-miterlimit: 10;
        stroke-width: 3.68px;
      }

      .cls-4 {
        fill: #53af47;
      }
    </style>
  </defs>
  <path class="cls-2" d="M356.38,273.58l49.42-70.32,112.24-22.92s44.39,97.16,46.91,98,49.42,85.44,49.42,85.44c0,0-66.86,61.98-69.87,62.82s-106.46,36.86-106.46,36.86l-81.66-81.83v-108.05Z"/>
  <g>
    <g>
      <polyline class="cls-4" points="269.72 583.92 431.96 583.92 539 664.52 6.71 664.52 118.89 597.86"/>
      <polygon points="544.5 666.36 0 666.36 117.95 596.28 119.83 599.44 13.42 662.68 533.49 662.68 431.34 585.76 269.72 585.76 269.72 582.08 432.58 582.08 544.5 666.36"/>
    </g>
    <g>
      <g>
        <path class="cls-1" d="M247.33,468.29h12.86v47.4c-4.57-3.98-10.55-6.4-17.1-6.4-1.6,0-3.16.14-4.67.42"/>
        <path d="M262.03,519.74l-3.05-2.66c-5.5-4.8-13.14-6.84-20.23-5.56l-.65-3.62c6.89-1.25,14.35.23,20.26,4.09v-41.86h-11.03v-3.68h14.71v53.29Z"/>
      </g>
      <g>
        <path class="cls-1" d="M217.46,531.03c-.23,1.38-.34,2.8-.34,4.24,0,14.35,11.63,26,25.98,26,6.55,0,12.52-2.42,17.1-6.4v47.39h-62.57c4.51-4.11,7.33-10.03,7.33-16.61,0-12.39-10.04-22.44-22.44-22.44s-22.45,10.04-22.45,22.44c0,6.58,2.82,12.49,7.35,16.61h-41.18v-38.26c-4.91,3.2-10.79,5.05-17.1,5.05-17.42,0-31.55-14.12-31.55-31.55s14.13-31.55,31.55-31.55c6.3,0,12.18,1.85,17.1,5.05v-42.7h40.69"/>
        <path d="M262.03,604.1h-69.17l3.52-3.2c4.27-3.9,6.73-9.46,6.73-15.25,0-11.35-9.24-20.6-20.59-20.6s-20.61,9.24-20.61,20.6c0,5.79,2.46,11.35,6.74,15.24l3.53,3.2h-47.79v-36.9c-4.68,2.42-9.89,3.69-15.26,3.69-18.41,0-33.38-14.98-33.38-33.39s14.98-33.39,33.38-33.39c5.37,0,10.58,1.26,15.26,3.69v-41.34h42.53v3.68h-38.84v44.26l-2.85-1.85c-4.77-3.11-10.33-4.75-16.09-4.75-16.38,0-29.7,13.33-29.7,29.7s13.32,29.71,29.7,29.71c5.76,0,11.33-1.64,16.09-4.75l2.85-1.86v39.82h35.16c-3.22-4.21-5.01-9.4-5.01-14.76,0-13.39,10.9-24.28,24.29-24.28s24.27,10.89,24.27,24.28c0,5.36-1.78,10.55-5,14.76h56.56v-41.85c-4.52,2.95-9.81,4.54-15.26,4.54-15.34,0-27.82-12.48-27.82-27.83,0-1.56.12-3.09.37-4.55l3.63.61c-.21,1.25-.32,2.58-.32,3.94,0,13.31,10.83,24.15,24.14,24.15,5.84,0,11.48-2.11,15.89-5.95l3.05-2.66v53.27Z"/>
      </g>
    </g>
    <path d="M529.46,371.01c-.08-.16-.39-.16-.39,0-1.57,4.54-1.88,9.08-2.58,13.69-.55,2.58-1.25,5.24-2.35,7.67.7-.31,1.41-.55,2.19-.94,1.09-1.88,1.96-3.99,2.74-6.02,1.8-4.62,2.35-9.7.39-14.4ZM529.46,371.01c-.08-.16-.39-.16-.39,0-1.57,4.54-1.88,9.08-2.58,13.69-.55,2.58-1.25,5.24-2.35,7.67.7-.31,1.41-.55,2.19-.94,1.09-1.88,1.96-3.99,2.74-6.02,1.8-4.62,2.35-9.7.39-14.4ZM1089.27,439.08h-337.77c29.89-40.37,47.65-90.45,47.65-144.67,0-134.42-109.07-243.49-243.49-243.49-24.57,0-48.28,3.68-70.57,10.41L447.7,2.33c-2.5-4.07-8.76-2.5-9.08,2.27l-6.1,79.73c-15.49,9.08-29.81,19.87-42.88,32l-22.06-48.35c-1.41-3.05-6.02-1.96-5.87,1.49l3.29,73.62c-31.37,39.43-50.78,88.8-52.66,142.71-20.81,5.48-116.66,38.57-145.45,182.46-1.33,6.81-2.58,13.85-3.6,21.13-3.05,21.52,11.81,41.31,33.25,44.36,1.88.31,3.76.39,5.63.39,5.4,0,10.56-1.1,15.26-3.13,9.39-3.99,16.98-11.5,20.97-21.28,1.17-2.89,2.03-5.95,2.5-9.15,1.64-11.74,3.83-22.46,6.42-32.31,18.46-70.1,57.12-95.14,75.27-103.2,30.2,100.07,123.15,172.91,233.08,172.91,34.74,0,67.83-7.35,97.72-20.42h435.88c21.67,0,39.2-17.6,39.2-39.28s-17.53-39.2-39.2-39.2ZM473.52,224.15c17.53-1.64,33.72,17.37,36.15,42.56,2.43,25.19-9.86,46.94-27.38,48.59-2.66.23-5.32.08-7.9-.7.23.08.55.08.78.08,11.66.55,21.52-8.45,22.06-20.11.55-11.74-8.53-21.59-20.19-22.14-11.66-.47-21.52,8.53-22.06,20.19-.16,3.13.39,6.1,1.49,8.84-5.4-7.43-9.23-17.45-10.33-28.64-2.43-25.19,9.86-46.94,27.38-48.67ZM412.57,309.9c-7.43-.31-13.69,5.4-14.01,12.75-.08,2.66.55,5.09,1.8,7.2-6.57-6.02-10.72-16.66-10.17-28.64.78-18.23,12.21-32.55,25.35-31.92,13.22.55,23.24,15.8,22.46,34.11-.7,14.79-8.29,26.91-18.15,30.67,3.21-2.35,5.32-5.95,5.48-10.17.31-7.43-5.4-13.69-12.75-14.01ZM555.9,378.67c-5.63,6.42-11.5,11.66-17.45,15.49-11.42,7.43-23.32,10.17-35.52,8.22-16.98-2.82-30.59-14.08-38.49-22.3-.63,6.81-2.74,15.41-8.76,22.14-6.34,7.28-15.73,10.95-27.85,10.95h-1.25c-2.27-.08-4.07-1.88-3.99-4.15.08-2.27,1.88-4.07,4.15-3.99,10.17.23,17.84-2.5,22.77-8.14,8.06-9.08,7.2-23.32,6.89-26.68-.08-.08-.16-.08-.16-.16l-27.15-15.41c-5.24-2.89-4.46-10.64,1.17-12.52l40.22-13.46c5.71-1.96,10.95,3.83,8.45,9.31l-12.99,28.95c-.23.55-.55,1.02-.94,1.41,4.62,5.63,19.64,22.69,39.28,25.98.7.08,1.41.23,2.11.23,4.23-5.95,8.68-14.24,11.03-24.88,4.38-25.66,23.78-8.22,21.36,1.33,0,0,.31,6.18-1.1,13.69,4.15-3.05,8.22-6.89,12.13-11.34,1.49-1.72,4.07-1.88,5.71-.39,1.72,1.49,1.88,4.07.39,5.71ZM529.07,371.01c-1.57,4.54-1.88,9.08-2.58,13.69-.55,2.58-1.25,5.24-2.35,7.67.7-.31,1.41-.55,2.19-.94,1.09-1.88,1.96-3.99,2.74-6.02,1.8-4.62,2.35-9.7.39-14.4-.08-.16-.39-.16-.39,0ZM529.46,371.01c-.08-.16-.39-.16-.39,0-1.57,4.54-1.88,9.08-2.58,13.69-.55,2.58-1.25,5.24-2.35,7.67.7-.31,1.41-.55,2.19-.94,1.09-1.88,1.96-3.99,2.74-6.02,1.8-4.62,2.35-9.7.39-14.4ZM529.46,371.01c-.08-.16-.39-.16-.39,0-1.57,4.54-1.88,9.08-2.58,13.69-.55,2.58-1.25,5.24-2.35,7.67.7-.31,1.41-.55,2.19-.94,1.09-1.88,1.96-3.99,2.74-6.02,1.8-4.62,2.35-9.7.39-14.4Z"/>
    <path class="cls-3" d="M425.32,323.9c-.16,4.22-2.27,7.82-5.48,10.17-2.27.94-4.77,1.33-7.28,1.25-4.54-.23-8.68-2.19-12.21-5.48-1.25-2.11-1.88-4.54-1.8-7.2.31-7.35,6.57-13.07,14.01-12.75,7.35.31,13.07,6.57,12.75,14.01Z"/>
    <path class="cls-3" d="M425.32,323.9c-.16,4.22-2.27,7.82-5.48,10.17-2.35,1.72-5.32,2.74-8.53,2.58-4.77-.23-8.84-2.9-10.95-6.81-1.25-2.11-1.88-4.54-1.8-7.2.31-7.35,6.57-13.07,14.01-12.75,7.35.31,13.07,6.57,12.75,14.01Z"/>
    <path class="cls-3" d="M497.22,294.56c-.55,11.66-10.41,20.66-22.06,20.11-.23,0-.55,0-.78-.08-6.73-1.64-12.91-6.26-17.84-12.99,0-.08-.08-.16-.08-.16-1.1-2.74-1.64-5.71-1.49-8.84.55-11.66,10.41-20.66,22.06-20.19,11.66.55,20.73,10.41,20.19,22.14Z"/>
    <path class="cls-3" d="M497.22,294.56c-.55,11.66-10.41,20.66-22.06,20.11-.23,0-.55,0-.78-.08-8.14-.63-14.94-5.87-17.84-12.99,0-.08-.08-.16-.08-.16-1.1-2.74-1.64-5.71-1.49-8.84.55-11.66,10.41-20.66,22.06-20.19,11.66.55,20.73,10.41,20.19,22.14Z"/>
    <path class="cls-3" d="M529.07,385.4c-.78,2.03-1.64,4.15-2.74,6.02-.78.39-1.49.63-2.19.94,1.1-2.43,1.8-5.09,2.35-7.67.7-4.62,1.02-9.15,2.58-13.69,0-.16.31-.16.39,0,1.96,4.69,1.41,9.78-.39,14.4Z"/>
    <path class="cls-3" d="M529.07,385.4c-.78,2.03-1.64,4.15-2.74,6.02-.78.39-1.49.63-2.19.94,1.1-2.43,1.8-5.09,2.35-7.67.7-4.62,1.02-9.15,2.58-13.69,0-.16.31-.16.39,0,1.96,4.69,1.41,9.78-.39,14.4Z"/>
    <path d="M793.56,213.3c-1.81,0-3.58-.85-4.69-2.45-1.8-2.59-1.17-6.15,1.42-7.96l37.52-26.13c2.59-1.8,6.15-1.17,7.96,1.42,1.8,2.59,1.17,6.15-1.42,7.96l-37.52,26.13c-1,.69-2.13,1.03-3.26,1.03Z"/>
    <path d="M804.4,233.59c-2.55,0-4.87-1.72-5.53-4.31-.78-3.06,1.07-6.17,4.13-6.95l74.21-18.9c3.06-.78,6.17,1.07,6.95,4.13.78,3.06-1.07,6.17-4.13,6.95l-74.21,18.9c-.47.12-.95.18-1.42.18Z"/>
    <path d="M847.48,265.56c-.5,0-1.01-.07-1.52-.21l-42.53-11.67c-3.04-.84-4.83-3.98-4-7.02.84-3.04,3.98-4.83,7.02-4l42.53,11.67c3.04.84,4.83,3.98,4,7.02-.7,2.54-3,4.2-5.51,4.2Z"/>
    <path d="M286.31,242.49c-.71,0-1.44-.13-2.14-.42l-44.75-18.07c-2.93-1.18-4.34-4.51-3.16-7.44,1.18-2.93,4.51-4.34,7.44-3.16l44.75,18.07c2.93,1.18,4.34,4.51,3.16,7.44-.9,2.23-3.04,3.58-5.3,3.58Z"/>
    <path d="M286.04,263.05c-.08,0-.16,0-.24,0l-73.1-3.06c-3.15-.13-5.6-2.79-5.47-5.95.13-3.15,2.8-5.6,5.95-5.47l73.1,3.06c3.15.13,5.6,2.8,5.47,5.95-.13,3.07-2.66,5.48-5.71,5.48Z"/>
    <path d="M239.89,293.35c-2.72,0-5.13-1.95-5.62-4.72-.55-3.11,1.52-6.07,4.63-6.63l46.97-8.34c3.09-.55,6.07,1.52,6.63,4.63.55,3.11-1.52,6.07-4.63,6.63l-46.97,8.34c-.34.06-.67.09-1,.09Z"/>
  </g>
</svg>