<?xml version="1.0" encoding="UTF-8"?>
<svg id="Layer_1" data-name="Layer 1" xmlns="http://www.w3.org/2000/svg" viewBox="0 0 910.91 785.87">
  <defs>
    <style>
      .cls-1 {
        fill: #010101;
      }

      .cls-2 {
        fill: #fff;
      }

      .cls-3 {
        fill: #75b543;
      }
    </style>
  </defs>
  <path class="cls-1" d="M315.07,712.03c-.94,2.88-1.86,5.77-2.84,8.63-6.22,18.11-16.34,33.55-31.45,45.51-12.03,9.52-25.71,15.32-40.78,18.03-4.42.8-8.89,1.03-13.33,1.54-3.7.42-7.34-.28-10.99-.66-13.89-1.44-27.44-4.32-40.44-9.56-8.5-3.43-16.46-7.8-23.56-13.63-6.5-5.33-11.9-11.58-15.67-19.16-3.42-6.88-5-14.11-4.44-21.81.22-3.06.96-5.98,1.92-8.87.22-.41.48-.8.66-1.23,3.09-7.49,8.47-12.54,16.07-15.34,5.71-2.1,11.6-2.29,17.43-1.16,8.36,1.62,16.19,4.58,22.76,10.35,3.11,2.73,6.69,4.88,10.29,6.94.56.32,1.07.68,1.75.53,5.92,3.82,12.48,5.5,19.44,5.83,4.54.22,8.92-.53,13.01-2.61,1.55-.79,3.22-1.46,4.03-3.19.61-.49,1.3-.91,1.81-1.49,7.9-8.95,10.1-19.73,9.63-31.2-.38-9.26-2.12-18.36-3.96-27.44-2.72-13.44-5.62-26.83-6.62-40.58-.78-10.64.07-21.02,2.9-31.27.8-2.91,1.81-5.77,2.72-8.65.77-1.39,1.59-2.76,2.32-4.18,5.48-10.6,17.64-25.65,26.44-32.55,11.17-8.74,23.58-15.26,36.73-20.45,11.65-4.59,23.65-7.88,36.11-9.21,6.84-.73,13.72-.87,20.56.32,2.99.52,6,.74,9.05.8,6.56.13,13.09.68,19.53,2.05,1.22.26,2.47.68,3.78.24.71-1.19-.2-2.15-.52-3.09-9.56-28.3-19.19-56.56-28.73-84.87-.78-2.3-2.07-3.75-4.11-4.94-9.1-5.33-18.14-10.78-27.18-16.2-1.78-1.07-3.6-2.11-5.23-3.38-10-7.8-13.94-18-11.69-30.48,1.84-10.23,7.04-18.49,15.54-24.44,9.54-6.69,19.81-7.51,30.47-2.81,1.89.83,3.69,1.91,5.47,2.97,11.81,7.03,23.6,14.09,35.4,21.14,1.1.66,2.18,1.33,3.3,1.95,1.21.67,1.69.54,2.32-.58.39-.69.73-1.42,1.1-2.13,4.07-7.81,8.57-15.35,13.83-22.42,1.39-1.86,2.09-3.78,2.29-6.13.82-9.56,2.67-18.99,4.27-28.44.99-5.83,2.04-11.65,2.67-17.54.3-2.76.08-5.36-.66-8.02-3.24-11.53-6.38-23.1-9.58-34.64-.94-3.41-1.57-6.83-1.55-10.39.05-7.53,2.46-14.23,7.61-19.65,10.51-11.03,23.46-14.66,38.09-10.77,10.34,2.75,17.38,9.89,20.13,20.1,4.32,16.04,9.88,31.73,13.22,48.04.1.47.23.93.37,1.39.57,1.94-.06,4.18,1.49,5.87,2.1-.16,3.92-1.22,5.85-1.9,15.59-5.51,31.6-9.08,48.06-10.7,15.19-1.49,30.36-1.42,45.49.38,23.37,2.79,45.65,9.35,66.65,20.06,1.14.58,2.25,1.21,3.4,1.76.39.19.86.34,1.28-.06.48-.44.13-.89.03-1.32-.22-.93-.5-1.85-.75-2.78-1.89-7-2.8-14.1-2.38-21.36.25-4.35,1.19-8.53,2.75-12.59,6.77-17.59,26.01-24.76,42.27-17.68,10.6,4.61,17.37,12.67,20.74,23.71,2.15,7.02,4.53,13.97,6.83,20.95,2.3,6.98,4.47,13.99,5.69,21.27.69,4.14.81,8.27.5,12.43-.2,2.75-.98,5.36-2.33,7.75-4.26,7.53-7.29,15.63-11.02,23.41-.94,1.97-.86,3.41.34,5.25,6.22,9.53,11.29,19.67,15.42,30.27,5.36,13.75,9.1,27.93,11.15,42.56.58,4.12,1.15,8.24,1.56,12.37.16,1.63.89,2.53,2.27,3.3,7.67,4.28,15.31,8.64,22.94,13,5.69,3.25,11.37,6.52,17.04,9.8,1.11.64,2.25,1.25,3.23,2.06,3.32,2.75,2.44,7.84-1.61,9.27-1.34.47-2.8.65-4.21.89-12.75,2.22-25.5,4.47-38.27,6.58-2.22.37-2.72,1.02-2.97,2.96-.86,6.66-2.28,13.22-3.88,19.75-.59,2.42-.5,2.56,1.83,3.58,9.51,4.15,19.04,8.27,28.57,12.41,1.47.64,3,1.17,4.36,1.99,3.69,2.23,3.55,7.35-.24,9.42-.97.53-2.08.81-3.13,1.17-14.82,5.01-29.65,10.01-44.48,15.02-1.06.36-2.11.76-3.19,1.04-1.18.3-1.93,1.04-2.51,2.06-4.96,8.8-11.07,16.8-17.2,24.79-1.91.07-3.83.21-5.74.2-49.7-.29-99.41-.7-149.11-.86-61.7-.19-123.4-.16-185.09-.24-6.07,0-12.14-.19-18.04,1.67-.6.19-1.26.18-1.9.26-7.6.96-15.21,1.87-22.8,2.91-5.7.77-11.36,1.74-16.8,3.72-4.71,1.72-9.15,3.91-12.46,7.79-7.04,8.24-10.81,17.68-9.8,28.66.45,4.94,1.57,9.76,3.22,14.46,4.41,12.56,7.3,25.43,8.43,38.74.88,10.26.58,20.42-1,30.56-.64,4.09-1.42,8.16-2.14,12.24ZM728.54,406.42c-1.01-.96-2.08-1.77-3.69-1.33.44,1.3,1.28,2.08,2.43,2.57,4.23,6.15,4.24,12.68-.06,18.15-3.01,3.83-7,5.52-11.83,4.7-5-.85-9.06-3.14-10.81-8.27-1.8-5.26-.73-10.07,2.56-14.43.87-1.14,1.96-2.11,3.15-3.36-3.86.98-6.65,3.04-8.96,5.73-5.09,5.91-7.06,12.85-5.93,20.5,1.02,6.9,4.72,12.15,11.09,15.24,4.24,2.06,8.76,2.88,13.5,2.48,3.1-.26,5.91-1.26,8.51-2.93,12.94-8.32,15.19-30.89.05-39.05ZM698.69,464.26c-1.52-1.22-3.29-1.56-5.18-1.53-1.59-.09-3.19-.2-4.78-.28-8.03-.37-14.2,3.1-18.88,9.39-4.37,5.89-6.12,12.6-5.42,19.87.83,8.59,5.04,14.99,12.86,18.86,2.01,1,4.15,1.6,6.33,2.14,12.97,3.2,22.5-3.41,26.96-12.15.94-1.84,1.76-3.77,2.33-5.75,3.88-13.48-2.11-26.52-14.22-30.56ZM661.91,425.34c0-.05-.01-.11-.02-.16-2.53.31-5.07.55-7.58.96-1.24.2-2.46.63-3.64,1.1-1.15.46-1.52,1.54-.89,2.72,2.1,3.93,4.19,7.86,6.45,11.7.93,1.57,1.82,3.73,4.06,3.53,1.98-.18,2.48-2.28,3.22-3.82,2.13-4.45,4.16-8.94,6.23-13.41.13-.29.26-.58.35-.88.4-1.35-.58-2.59-2.03-2.45-2.06.19-4.1.48-6.15.72ZM723.13,404.39l-.02.14.36-.02-.34-.12Z"/>
  <path class="cls-3" d="M315.07,712.03c.72-4.08,1.51-8.14,2.14-12.24,1.58-10.14,1.88-20.3,1-30.56-1.14-13.31-4.02-26.18-8.43-38.74-1.65-4.7-2.77-9.52-3.22-14.46-1.01-10.98,2.76-20.42,9.8-28.66,3.31-3.88,7.76-6.07,12.46-7.79,5.44-1.98,11.1-2.95,16.8-3.72,7.59-1.03,15.2-1.94,22.8-2.91.63-.08,1.3-.07,1.9-.26,5.9-1.85,11.97-1.67,18.04-1.67,61.7.09,123.4.05,185.09.24,49.71.15,99.41.57,149.11.86,1.91.01,3.83-.13,5.74-.2,1.43.09,2.87.24,4.3.26,22.7.32,45.41.6,68.11.95,3.99.06,7.98.37,11.97.58.97.05,1.83.21,2.43,1.19,6.03,9.85,13.48,18.65,20.57,27.71,17.43,22.29,35.17,44.35,51.84,67.23,5.56,7.62,11.03,15.31,15.84,23.44,1.79,3.02,3.33,6.19,4.93,9.31.81,1.58,1.25,3.29,1.17,5.09-.06,1.44-1.09,2.35-2.54,2.22-14.66-1.38-29.37-1.32-44.07-1.38-24.47-.1-48.93-.06-73.4.09-43.65.25-87.31.4-130.96,1.01-38.69.54-77.39.32-116.08.93-46.37.73-92.74.38-139.11.98-29.42.38-58.84.31-88.26.5Z"/>
  <path class="cls-3" d="M202.44,712.14c-.69.15-1.2-.22-1.75-.53-3.6-2.06-7.18-4.21-10.29-6.94-6.57-5.77-14.4-8.73-22.76-10.35-5.83-1.13-11.71-.94-17.43,1.16-7.6,2.8-12.98,7.85-16.07,15.34-.18.43-.44.82-.66,1.23-.98-.65-2.1-.73-3.22-.77-1.6-.05-3.2-.05-4.8-.09-20.78-.41-41.56-.7-62.33-1.29-12.62-.36-25.23-1.02-37.83-1.88-6.84-.46-13.72-.83-20.45-2.36-.78-.18-1.58-.26-2.35-.47-2.68-.75-3.11-1.66-1.75-4.1,5.08-9.06,10.21-18.1,15.35-27.13,18-31.69,36.01-63.37,54.01-95.06.16-.28.29-.57.45-.84,2.54-4.4,1.97-3.93,7.04-4.37,8.29-.72,16.61-.66,24.91-.92,33.08-1.04,66.18-.83,99.27-1.15,12.63-.12,25.25-.3,37.88-.42,1.91-.02,3.84-.24,5.72.31-.91,2.88-1.92,5.74-2.72,8.65-2.83,10.24-3.68,20.63-2.9,31.27,1,13.74,3.9,27.14,6.62,40.58,1.84,9.08,3.58,18.18,3.96,27.44.47,11.47-1.72,22.26-9.63,31.2-.51.58-1.2,1-1.81,1.49-12.16,0-24.32-.02-36.48-.03Z"/>
  <path class="cls-3" d="M635.96,170.28c1.16,1.3,2.79,1.35,4.32,1.65,10.83,2.1,21.73,3.49,32.76,4.2,13.05.85,25.86-.21,38.5-3.3,14.89-3.64,27.92-10.84,39.2-21.23,10.56-9.72,19.02-21.14,26.56-33.25,7.18-11.53,14.13-23.21,21.25-34.78,7.04-11.45,14.62-22.53,23.37-32.76,16.84-19.69,37.21-34.47,61.42-43.84,6.56-2.54,13.22-4.77,20.08-6.38,1.08-.25,2.18-.54,3.28-.6,2.06-.1,3.66,1.27,4.09,3.29.44,2.04-.45,3.86-2.42,4.68-1.18.48-2.43.78-3.66,1.11-11.13,3.02-21.91,6.99-32.25,12.11-14.46,7.17-27.32,16.55-38.48,28.21-6.76,7.06-12.68,14.8-18.11,22.93-5.95,8.92-11.29,18.19-16.53,27.54-5.78,10.32-11.56,20.64-18.18,30.46-7.56,11.2-16.38,21.27-27.09,29.59-10.74,8.34-22.76,14.19-35.73,18.09-10.12,3.04-20.46,4.93-30.97,6.11-6.05.68-12.11.86-18.16,1.26-4.74.31-9.58-.25-14.34-.74-11.44-1.18-22.8-2.95-33.98-5.71-7.14-1.76-14.22-3.85-20.88-6.99-7.8-3.68-15.54-7.58-22.6-12.56-12.62-8.92-20.6-21.16-25.05-35.87-3.06-10.12-3.78-20.48-2.69-30.86,1.77-16.7,8.1-31.47,20.22-43.44,9.4-9.28,20.8-14.8,33.65-17.19,12.09-2.25,24.18-1.92,36.06,1.59,21.33,6.29,35.55,20.18,43.14,40.9,6.15,16.78,6.33,33.82.93,50.8-5.14,16.15-14.87,28.85-29.64,37.48-4.86,2.84-10.12,4.73-15.48,6.36-.89.27-1.94.19-2.62,1.12Z"/>
  <path class="cls-2" d="M698.69,464.26c12.11,4.03,18.1,17.08,14.22,30.56-.57,1.98-1.39,3.91-2.33,5.75-4.46,8.74-13.99,15.35-26.96,12.15-2.18-.54-4.32-1.14-6.33-2.14-7.82-3.87-12.02-10.27-12.86-18.86-.7-7.27,1.05-13.98,5.42-19.87,4.67-6.29,10.85-9.76,18.88-9.39,1.59.07,3.19.18,4.78.28-.26.47-.24.94.04,1.4-7.07-1.75-12.41-.12-16.15,5.06-2.73,3.78-3.82,8.06-3.23,12.69.79,6.12,5.03,10.55,11.39,12.09,6.16,1.49,11.73-.45,15.32-5.29,4.91-6.6,4.67-17.64-2.43-22.32-.2-.72-.58-1.46.22-2.08Z"/>
  <path class="cls-2" d="M728.54,406.42c15.14,8.16,12.89,30.73-.05,39.05-2.6,1.67-5.41,2.67-8.51,2.93-4.73.4-9.25-.42-13.5-2.48-6.37-3.09-10.07-8.34-11.09-15.24-1.13-7.65.84-14.59,5.93-20.5,2.31-2.69,5.1-4.75,8.96-5.73-1.18,1.25-2.28,2.22-3.15,3.36-3.29,4.36-4.36,9.17-2.56,14.43,1.76,5.14,5.81,7.43,10.81,8.27,4.83.82,8.82-.88,11.83-4.7,4.3-5.47,4.29-12,.07-18.14.42-.41.84-.83,1.25-1.24Z"/>
  <path class="cls-2" d="M661.91,425.34c2.05-.24,4.1-.53,6.15-.72,1.45-.14,2.43,1.11,2.03,2.45-.09.3-.21.6-.35.88-2.07,4.47-4.1,8.96-6.23,13.41-.74,1.54-1.24,3.64-3.22,3.82-2.24.2-3.13-1.96-4.06-3.53-2.26-3.83-4.35-7.77-6.45-11.7-.63-1.18-.26-2.26.89-2.72,1.17-.47,2.4-.9,3.64-1.1,2.51-.41,5.05-.65,7.58-.96,0,.05.01.11.02.16Z"/>
  <path class="cls-3" d="M698.69,464.26c-.8.62-.42,1.36-.22,2.08-1.64-.74-3.28-1.48-4.92-2.22-.28-.46-.3-.92-.04-1.4,1.89-.02,3.66.32,5.18,1.53Z"/>
  <path class="cls-3" d="M728.54,406.42c-.42.42-.83.83-1.25,1.24-1.15-.5-2-1.27-2.44-2.58,1.61-.44,2.68.37,3.69,1.33Z"/>
  <polygon class="cls-3" points="723.13 404.39 723.47 404.51 723.11 404.52 723.13 404.39"/>
  <path class="cls-1" d="M693.55,464.12c1.64.74,3.28,1.48,4.92,2.22,7.09,4.68,7.33,15.72,2.43,22.32-3.6,4.84-9.16,6.78-15.32,5.29-6.36-1.53-10.6-5.97-11.39-12.09-.6-4.63.5-8.91,3.23-12.69,3.74-5.18,9.08-6.81,16.15-5.06Z"/>
</svg>