<?xml version="1.0" encoding="UTF-8"?>
<svg id="Layer_1" data-name="Layer 1" xmlns="http://www.w3.org/2000/svg" viewBox="0 0 616.96 938.97">
  <defs>
    <style>
      .cls-1 {
        fill: #010101;
      }

      .cls-2 {
        fill: #fff;
      }

      .cls-3 {
        fill: #fdb913;
      }
    </style>
  </defs>
  <path class="cls-3" d="M176.96,392.15c.07-2.24.21-4.47.21-6.71.01-90.52,0-181.04.02-271.56,0-7.17-.96-5.85,5.91-8.22,56.2-19.35,112.42-38.67,168.63-58,45.03-15.48,90.06-30.98,135.09-46.46,1.49-.51,2.92-1.3,4.5-1.2.59.54.57,1.18.58,1.8.02,1.76.02,3.52.02,5.28,0,242.13,0,484.26,0,726.39,0,2.4.13,4.79.2,7.19-.07,1.27-.19,2.55-.19,3.82-.01,20.75-.01,41.49,0,62.24,0,1.11.13,2.22.19,3.34-.07,2.07-.2,4.15-.2,6.22-.01,39.17,0,78.33-.03,117.5,0,1.71.35,3.48-.39,5.17-1.74.15-3.2-.59-4.71-1.04-27.22-8.2-54.43-16.41-81.64-24.64-59.62-18.04-119.23-36.09-178.84-54.13-14.67-4.44-29.36-8.84-44.04-13.26-.61-.18-1.22-.38-1.83-.58-3.2-1.04-3.25-1.04-3.26-4.28-.03-9.43,0-18.86-.02-28.3,0-1.75-.13-3.51-.2-5.26.08-1.75.23-3.5.23-5.26.01-85.82.01-171.64,0-257.45,0-2.07-.15-4.15-.23-6.22.35-9.8.36-19.59,0-29.39.08-2.07.24-4.15.24-6.22.01-35.17.01-70.34,0-105.51,0-1.75-.15-3.5-.23-5.26Z"/>
  <path class="cls-1" d="M176.96,392.15c.08,1.75.23,3.5.23,5.26.01,35.17.01,70.34,0,105.51,0,2.07-.15,4.15-.24,6.22-.6-.73-1.22-1.45-1.8-2.2-7.22-9.22-16.68-13.07-28.18-11.03-8.55,1.52-15.28,5.99-19.3,13.98-.39.28-.81.73-.36,1.07.54.39.67-.19.72-.64,1.38-.05,2.2-1.17,3.31-1.73,4.48-2.25,9.08-2.75,13.87-1.13,7.93,2.69,12.82,10.89,11.47,19.25-1.3,8.07-8.44,14.16-16.68,14.39-4.54.13-8.36-1.58-11.92-4.15.02-.57-.46-.68-.81-.93-.34-.25-.58-.29-.7.03-.04.12.03.31.11.44.15.25.33.49.49.73,8.78,17.36,34.08,21.25,47.7,3.91.68-.87,1.39-1.73,2.09-2.59.08,2.07.23,4.15.23,6.22.01,85.82.01,171.64,0,257.45,0,1.75-.15,3.5-.23,5.26-79.07-12.34-145.41-70.13-168.38-147.84-6.45-21.81-9.24-44.06-8.45-66.77,1.64-47.29,17.54-89.27,47.24-126.05,1.88-2.33,3.11-4.74,3.59-7.63,1.98-11.98,3.97-23.96,5.99-35.93,1.86-11.03,3.75-22.05,5.65-33.07.19-1.09.37-2.23.83-3.22,1.75-3.75,6.76-4.66,9.65-1.71.99,1.01,1.7,2.31,2.45,3.53,6.11,9.94,12.18,19.9,18.31,29.82.82,1.33,1.35,2.93,2.98,3.91,1.82-1.09,3.71-2.23,5.61-3.36,5.36-3.18,10.77-6.29,16.48-8.8,2.04-.9,2.86-2.28,3.23-4.3,1.95-10.52,3.98-21.03,5.95-31.55,1.36-7.22,2.67-14.45,4.01-21.68.2-1.1.4-2.21.73-3.27,1.44-4.68,6.96-6.02,10.29-2.48.87.92,1.54,2.04,2.25,3.09,8.63,12.68,17.26,25.37,25.89,38.06.54.79,1.19,1.53,1.6,2.38.9,1.84,2.43,1.79,4.07,1.54ZM56.45,541.59c4.93,9.05,16.25,13.65,27.13,10.88,11.66-2.97,18.61-13.58,18.8-23.77.21-11.06-6.94-21.47-18.18-24.74-10.74-3.13-22.1,1.23-28.05,11.01,2.83-.86,5.26-2.09,8-2.04,2.59.05,5.08.38,7.41,1.59,2.46,1.29,4.46,3.07,5.96,5.41,3.49,5.44,3.19,12.34-.75,17.49-4.54,5.92-10.54,7.15-20.31,4.17ZM123.02,574.38c-.38-.99-.77-1.72-1.67-1.83-.78-.09-1.59-.09-2.38-.04-6.19.39-12.39.8-18.58,1.2-1.28.08-2.65.05-3.23,1.5-.55,1.39.33,2.43,1.11,3.45,3.27,4.31,6.54,8.62,9.81,12.93.29.38.59.76.92,1.09,1.2,1.2,2.52,1.05,3.62-.38.1-.13.17-.27.26-.4,3.19-5.32,6.39-10.63,9.56-15.96.31-.52.43-1.15.57-1.56Z"/>
  <path class="cls-1" d="M492.13,810.06c-.07-1.11-.19-2.22-.19-3.34-.01-20.75-.01-41.49,0-62.24,0-1.27.12-2.55.19-3.82,30.03,0,60.06-.03,90.09.01,11.06.02,20.18,4.42,27.1,13,15.63,19.39,6.54,50.08-20.42,55.81-2.78.59-5.72.55-8.59.56-29.39.04-58.78.02-88.18.02Z"/>
  <path class="cls-2" d="M127.67,509.89c4.02-7.99,10.76-12.47,19.3-13.98,11.5-2.04,20.96,1.81,28.18,11.03.58.75,1.2,1.47,1.8,2.2.36,9.8.35,19.59,0,29.39-.7.86-1.4,1.72-2.09,2.59-13.62,17.34-38.92,13.46-47.69-3.9.31-.08.61-.18.91-.27,3.56,2.58,7.38,4.28,11.92,4.15,8.23-.23,15.37-6.33,16.68-14.39,1.35-8.36-3.54-16.56-11.47-19.25-4.79-1.63-9.39-1.13-13.87,1.13-1.11.56-1.93,1.68-3.31,1.73-.12-.14-.25-.28-.37-.43Z"/>
  <path class="cls-2" d="M56.45,541.59c9.77,2.99,15.77,1.76,20.31-4.17,3.94-5.15,4.25-12.06.75-17.49-1.5-2.33-3.5-4.12-5.96-5.41-2.33-1.22-4.81-1.54-7.41-1.59-2.74-.05-5.17,1.17-8,2.04,5.95-9.78,17.31-14.14,28.05-11.01,11.24,3.27,18.39,13.68,18.18,24.74-.19,10.19-7.14,20.8-18.8,23.77-10.88,2.77-22.2-1.83-27.13-10.88Z"/>
  <path class="cls-2" d="M123.02,574.38c-.15.41-.27,1.04-.57,1.56-3.17,5.33-6.37,10.64-9.56,15.96-.08.14-.16.28-.26.4-1.1,1.43-2.42,1.58-3.62.38-.34-.34-.64-.71-.92-1.09-3.27-4.31-6.54-8.62-9.81-12.93-.78-1.02-1.65-2.06-1.11-3.45.57-1.45,1.95-1.42,3.23-1.5,6.19-.4,12.39-.81,18.58-1.2.79-.05,1.59-.05,2.38.04.9.11,1.28.83,1.67,1.83Z"/>
  <path class="cls-3" d="M128.09,536.95c-.3.09-.61.19-.91.27-.17-.25-.35-.49-.5-.74-.07-.13-.15-.32-.11-.44.12-.31.35-.27.7-.03.35.25.83.36.81.93Z"/>
  <path class="cls-2" d="M128.04,510.32c-.05.45-.19,1.03-.72.64-.46-.33-.03-.79.36-1.07.12.14.24.28.36.42Z"/>
</svg>