<?xml version="1.0" encoding="UTF-8"?>
<svg id="Layer_1" data-name="Layer 1" xmlns="http://www.w3.org/2000/svg" viewBox="0 0 1072.06 583.67">
  <defs>
    <style>
      .cls-1 {
        fill: #010101;
      }

      .cls-2 {
        fill: #fff;
      }

      .cls-3 {
        fill: #fdb913;
      }

      .cls-4 {
        fill: #fdba16;
      }
    </style>
  </defs>
  <path class="cls-1" d="M114.11,369.16c1.14-2.1,2.23-4.23,3.43-6.29,5.01-8.6,11.28-16.28,17.88-23.68,4.17-4.67,9.27-8.33,14.5-11.77,18.13-11.91,37.87-19.88,59.24-23.61,9.66-1.69,19.4-2.06,29.12-.24,1.9.35,3.79.43,5.71.46,6.72.09,13.42.62,20.03,1.93,1.55.31,3.08.69,4.89.41-.44-1.48-.77-2.7-1.18-3.9-9.43-27.83-18.89-55.66-28.27-83.51-.86-2.56-2.22-4.32-4.61-5.7-9.13-5.28-18.14-10.76-27.19-16.18-1.37-.82-2.75-1.63-4.05-2.57-10.32-7.45-14.62-17.62-12.78-30.08,1.57-10.58,6.87-19.22,15.68-25.42,9.54-6.72,19.79-7.55,30.46-2.92,1.9.82,3.69,1.91,5.47,2.97,11.81,7.03,23.6,14.1,35.4,21.15,1.23.74,2.47,1.47,3.72,2.18.87.49,1.52.11,1.96-.66.4-.69.73-1.42,1.09-2.13,4-7.85,8.58-15.35,13.79-22.45,1.27-1.73,2.13-3.49,2.32-5.65,1.04-12.13,3.58-24.02,5.51-36.01.46-2.84.9-5.68,1.3-8.53.54-3.84.27-7.57-.83-11.36-3.18-10.89-6.09-21.85-9.14-32.77-1-3.56-1.58-7.16-1.59-10.87-.03-8.11,2.83-15.06,8.51-20.72,9.12-9.09,20.34-12.64,32.93-10.7,12.73,1.96,21.29,9.64,24.64,21.98,3.6,13.26,7.91,26.31,11.2,39.66,1.18,4.81,2.29,9.62,2.93,14.45,1.51.79,2.61-.2,3.73-.62,12.92-4.84,26.2-8.29,39.82-10.36,17.47-2.66,35.02-3.05,52.62-1.32,23.95,2.36,46.74,8.72,68.33,19.34,1.72.85,3.4,1.76,5.11,2.63.54.27,1.09.62,1.76.25.5-1.14-.13-2.15-.43-3.19-2.29-8.08-3.32-16.27-2.44-24.67.5-4.83,1.83-9.41,4.06-13.7,8.04-15.43,26.55-21.4,42.41-13.51,9.81,4.88,16.09,12.77,19.17,23.35,2.05,7.05,4.53,13.98,6.85,20.95,2.47,7.44,4.71,14.93,5.85,22.71.47,3.19.58,6.38.35,9.57-.23,3.05-.91,6.01-2.43,8.71-4.24,7.54-7.3,15.63-11.01,23.41-1.05,2.21-.7,3.76.53,5.68,7.55,11.75,13.46,24.3,17.95,37.52,4.96,14.59,8.22,29.55,9.57,44.9.27,3.13,1.33,5.11,4.25,6.71,12.74,7.02,25.31,14.33,37.94,21.55,1.11.63,2.25,1.24,3.29,1.98,1.84,1.31,2.73,3.15,2.33,5.41-.4,2.22-1.68,3.82-3.96,4.31-2.97.64-5.96,1.16-8.95,1.68-11.18,1.94-22.36,3.84-33.54,5.78-2.08.36-2.12.4-2.41,2.32-1.01,6.64-2.32,13.22-3.88,19.75-.72,3.03-.7,3.08,2,4.26,9.37,4.09,18.76,8.13,28.14,12.2,1.47.64,2.96,1.23,4.36,2,1.82,1,2.82,2.65,2.78,4.72-.04,2.24-1.1,4-3.23,4.91-1.47.62-2.99,1.12-4.5,1.63-14.54,4.88-29.06,9.8-43.63,14.57-2.74.9-4.63,2.26-6.08,4.86-4.52,8.12-10.24,15.44-15.97,22.73-1.87.61-3.8.36-5.71.35-46.86-.26-93.72-.55-140.58-.8-20.15-.11-40.3-.16-60.46-.19-47.02-.06-94.05-.09-141.07-.13-1.6,0-3.17.05-4.75.44-7.15,1.78-14.48,2.5-21.78,3.36-7.3.86-14.59,1.72-21.73,3.63-8.74,2.33-15.63,6.9-20.27,14.89-3.21,5.52-5.22,11.25-5.45,17.65-.23,6.49.9,12.75,3.06,18.82,5.21,14.71,8.36,29.81,9.01,45.44.31,7.38-.06,14.71-1.01,22.01-.64,4.9-1.59,9.76-2.4,14.64-1.1,1.63-1.25,3.59-1.82,5.4-5.91,18.72-15.72,34.9-30.96,47.52-12.46,10.33-26.79,16.6-42.7,19.39-4.27.75-8.57.98-12.86,1.48-3.86.45-7.66-.27-11.47-.67-13.88-1.46-27.44-4.35-40.41-9.63-11.06-4.51-21.16-10.53-29.47-19.27-5.24-5.51-9.33-11.74-11.81-18.98-2.67-7.78-3.1-15.62-.75-23.55.23-.76.4-1.54.6-2.31.46-.83.93-1.66,1.39-2.5,5.42-9.81,13.8-14.84,24.93-15.02,11.08-.17,20.98,3.36,29.7,10.22,4,3.15,8.02,6.28,12.85,8.14,7.45,4.51,15.52,6.56,24.17,5.59,4.58-.51,9.12-1.61,12.28-5.52,5.5-4.61,8.34-10.76,10.11-17.52,1.35-5.16,1.37-10.44,1.24-15.72-.2-8.67-1.88-17.14-3.56-25.61-2.61-13.16-5.6-26.25-6.75-39.66-.77-8.97-.52-17.86,1.08-26.74.97-5.38,2.95-10.43,4.51-15.62ZM577.49,203.61c.78.12.95-.7,1.47-.97.13-.07.24-.18.36-.27-.26-.09-.57-.32-.78-.25-.43.14-.82.43-1.22.66-10.31,4.66-15.9,16.82-12.86,27.97,2.31,8.47,8.99,13.96,18.3,15.29,12.02,1.72,19.13-5.16,22.51-12.45,1.57-3.39,2.36-6.98,2.33-10.68-.06-8.3-3.35-14.83-10.85-18.88-.58-.31-1.35-.93-1.94.09,3.25,4.03,4.02,5.7,4.14,9.42.33,9.91-8.28,18.78-19.77,13.24-4.06-1.96-6.24-5.31-6.71-9.79-.55-5.3,1.27-9.71,5.01-13.4ZM557.6,260.27c-8.39-.39-14.55,3.13-19.2,9.43-5.02,6.8-6.52,14.55-4.95,22.75,1.3,6.78,5.15,11.94,11.24,15.34,2.97,1.66,6.19,2.66,9.5,3.17,9.52,1.45,17.35-1.56,23.06-9.44,4.41-6.1,6.01-12.99,5.12-20.43-1.04-8.64-5.55-14.83-13.48-18.41-3.66-1.65-7.54-2.6-11.28-2.41ZM536.99,222.39c-4.96.55-9.86,1.06-14.76,1.65-.93.11-1.85.49-2.72.85-1.44.6-1.86,1.64-1.1,3.05,2.11,3.92,4.25,7.83,6.48,11.68.63,1.08,1.53,2.04,2.42,2.93.86.86,2.1.67,2.93-.29.21-.24.45-.48.58-.76,2.65-5.6,5.3-11.2,7.89-16.83.45-.98-.66-2.28-1.72-2.29Z"/>
  <path class="cls-2" d="M557.6,260.27c3.74-.19,7.62.76,11.28,2.41,7.92,3.58,12.44,9.77,13.48,18.41.89,7.44-.71,14.33-5.12,20.43-5.71,7.89-13.54,10.89-23.06,9.44-3.31-.5-6.53-1.51-9.5-3.17-6.09-3.4-9.94-8.56-11.24-15.34-1.57-8.21-.07-15.95,4.95-22.75,4.65-6.3,10.82-9.81,19.2-9.43ZM542.71,276.73c.01,1.91.05,3.8.7,5.65,2.03,5.83,7.18,9.46,13.92,9.8,5.63.29,9.87-2.05,12.81-6.75.91-1.46,1.71-3.11,2.09-4.78,1.35-5.93.75-11.54-4.21-15.71-6.89-5.77-19.46-6.15-24.23,6.19-.7,1.81-1.06,3.66-1.06,5.6Z"/>
  <path class="cls-2" d="M577.49,203.61c-3.74,3.69-5.56,8.1-5.01,13.4.47,4.48,2.64,7.83,6.71,9.79,11.49,5.53,20.1-3.34,19.77-13.24-.13-3.73-.9-5.39-4.14-9.42.59-1.03,1.36-.41,1.94-.09,7.5,4.05,10.8,10.58,10.85,18.88.03,3.7-.76,7.28-2.33,10.68-3.38,7.29-10.49,14.17-22.51,12.45-9.31-1.33-15.99-6.82-18.3-15.29-3.04-11.15,2.55-23.31,12.85-27.97-.2.33-.13.61.18.83Z"/>
  <path class="cls-2" d="M536.99,222.39c1.06.01,2.17,1.31,1.72,2.29-2.59,5.63-5.24,11.23-7.89,16.83-.13.28-.37.52-.58.76-.83.96-2.07,1.15-2.93.29-.89-.89-1.79-1.85-2.42-2.93-2.23-3.85-4.37-7.76-6.48-11.68-.76-1.42-.35-2.45,1.1-3.05.88-.37,1.79-.74,2.72-.85,4.89-.59,9.8-1.1,14.76-1.65Z"/>
  <path class="cls-3" d="M577.49,203.61c-.32-.22-.38-.49-.18-.83.41-.23.8-.53,1.23-.66.21-.07.52.16.78.25-.12.09-.23.21-.36.27-.53.27-.69,1.08-1.47.97Z"/>
  <path class="cls-1" d="M542.71,276.73c0-1.93.37-3.79,1.06-5.6,4.78-12.35,17.34-11.97,24.23-6.19,4.97,4.16,5.56,9.78,4.21,15.71-.38,1.67-1.18,3.31-2.09,4.78-2.93,4.7-7.17,7.04-12.81,6.75-6.73-.34-11.89-3.96-13.92-9.8-.64-1.85-.68-3.74-.7-5.65Z"/>
  <path class="cls-4" d="M822.69,361.36c5.2.13,9.98.33,14.76.36,12.79.07,25.58.05,38.38.08,11.03.03,22.07.09,33.1.13.96,0,1.92.02,2.88,0,5.55-.07,9.8-2.47,12.89-7.06.98-1.45,1.95-2.94,3.12-4.24,9.7-10.7,26.58-9.82,35.11,1.81.75,1.03,1.39,2.15,2.12,3.2,3.03,4.4,7.23,6.65,12.56,6.75,5.59.1,11.19.19,16.78.21,13.59.04,27.18.03,40.77.07,9.91.03,19.83.08,29.74.16,1.43.01,2.89.09,4.29.37,1.89.38,3.05,2.08,2.85,3.85-.18,1.64-1.38,2.92-3.09,3.17-.94.14-1.91.14-2.87.14-16.63-.09-33.26-.19-49.88-.28-2.4-.01-4.8.02-7.2.02-10.39-.03-20.79.02-31.18-.13-8.24-.12-14.77-3.62-19.36-10.55-.71-1.06-1.36-2.18-2.18-3.15-6.52-7.71-18.1-7.28-24.07.86-.57.77-1.01,1.64-1.57,2.41-4.5,6.2-10.43,9.83-18.23,9.88-8.47.06-16.95.4-25.42-.06-1.75-.09-3.52-.02-5.28-.02-13.75-.02-27.5-.02-41.25-.07-15.83-.06-31.66-.15-47.48-.27-5.62-.04-11.2-.66-16.55-2.38-23.09-7.42-37.57-23.05-41.46-46.94-5.26-32.33,15.73-57.83,41.25-65.25,31.91-9.27,65.09,9.96,72.9,42,6.25,25.67-4.63,48.95-23.3,62.05-1,.7-2.3,1.09-3.12,2.87Z"/>
</svg>