<?xml version="1.0" encoding="UTF-8"?>
<svg id="Layer_1" data-name="Layer 1" xmlns="http://www.w3.org/2000/svg" viewBox="0 0 1446.56 878.57">
  <defs>
    <style>
      .cls-1 {
        fill: #cf8a00;
      }

      .cls-2 {
        fill: #fff;
      }

      .cls-3 {
        fill: #fa0;
      }
    </style>
  </defs>
  <circle cx="546.16" cy="497.38" r="381.19"/>
  <path d="M820.43,717.21c4.8-.87,9.73-.11,14.61-.05,15.84.2,31.03-7.14,43.21-17.28,102.38-85.21,94.02-243.17,107.48-362.38,8.92-79.01,32.72-162.52,95.05-211.89,47.69-37.78,112.82-49.79,172.75-39.28,47.66,8.35,94.31,30.98,131.08,62.3,39.29,33.47,85.39,99.71,48.37,150.8-16.25,22.43-47.13,30.46-72.04,18.38-28.24-13.7-42.11-45.41-63.5-66.75-33.55-33.46-94.63-54.65-133.49-17.27-14.39,13.84-21.68,33.36-27.37,52.49-43.18,145.24-20.78,311.08-99.71,440.42-64.03,104.92-193.14,166.03-314.88,149.02-21.71-3.03-64.68-9.49-55.39-39.45,5.66-18.25,24.37-33.41,38.32-45.22,31.41-26.57,67.13-49.43,103.35-68.91,3.88-2.08,7.85-4.16,12.17-4.95Z"/>
  <path d="M187.44,512.69s-24.51-39.83-131.74-64.34c-76.6-55.96-1.53-130.21,44.43-116.43,45.96,13.79,134.81,53.62,134.81,53.62,0,0,67.4,99.57-47.49,127.15Z"/>
  <path d="M369.15,158.99c7.4-18.41,32.59-76.83,52.9-96.95,1.62-1.6,4.37-.61,4.58,1.66,1.21,12.64,5.99,45.06,24.16,65.71,1.24,1.41.65,3.62-1.1,4.28l-77.09,28.83c-2.2.82-4.32-1.35-3.45-3.53Z"/>
  <path d="M483.61,121.23c8.25-17.12,48.09-97.84,76.41-120.63,1.77-1.43,4.4-.16,4.39,2.11-.1,20.79.47,97.16,13.67,117.98,13.69,21.59-73.72,7.59-92.5,4.36-1.77-.3-2.75-2.21-1.97-3.82Z"/>
  <g>
    <path d="M161.9,209.37c-19.91-3.06-42.89,29.11-42.89,29.11,0,0-18.38,22.47-30.13,9.19,0,0-10.82-13.52,14.2-30.13,9.36-6.22,23.73-12.87,45.55-19.4,0,0,.02-.01.05-.04.4-.39,3.39-3.24,7.57-6.39,6.87-5.18,16.94-11.16,24.04-8.38.46.18.88.39,1.27.63.31.18.61.39.88.62,1.27,1.04,2.09,2.43,2.5,4.02,2.24,8.6-7.41,23.17-23.04,20.77Z"/>
    <path class="cls-3" d="M156.25,191.71c-4.18,3.15-7.17,6-7.57,6.39-.03.03-.05.04-.05.04-21.82,6.53-36.19,13.18-45.55,19.4C47.53,229.58,1.2,215.26.03,169.54c-1.53-59.74,48-44.93,48-44.93,0,0,5.62-129.2,62.81-99.07,24.96,13.15,36.69,47.9,41.98,82.89,5.18,34.16,4.21,68.55,3.43,83.28Z"/>
    <path class="cls-1" d="M191.79,175.88c-.25.19-.49.39-.73.58-3.98,3.21-6.9,6.2-8.62,8.12-.27-.23-.57-.44-.88-.62-.39-.24-.81-.45-1.27-.63-7.1-2.78-17.17,3.2-24.04,8.38.78-14.73,1.75-49.12-3.43-83.28,17.9-14.98,63.41-31.38,101.75-23.14,35.46,7.61-32.09,65.88-62.78,90.59Z"/>
    <path d="M182.27,186.83l-2.42-1.77c4.74-6.48,27.92-23.42,45.26-24.84l.25,2.99c-16.52,1.36-38.58,17.46-43.08,23.62Z"/>
    <path d="M234.41,190.46c-9.14-4.69-32.89-3.14-50.44-.39l-.46-2.96c6.51-1.02,39.65-5.79,52.27.68l-1.37,2.67Z"/>
    <circle cx="235.18" cy="190.46" r="5.51"/>
    <circle cx="226.86" cy="161.1" r="5.51"/>
  </g>
  <ellipse class="cls-2" cx="332.26" cy="239.32" rx="46.4" ry="26.11" transform="translate(-10.51 463.33) rotate(-68.93)"/>
  <ellipse cx="330.15" cy="222.5" rx="23.09" ry="16.99" transform="translate(3.83 450.58) rotate(-68.93)"/>
  <ellipse class="cls-2" cx="414.65" cy="268.03" rx="64.6" ry="40.72" transform="translate(-9.9 520.07) rotate(-63.58)"/>
  <ellipse cx="411.93" cy="242" rx="30.1" ry="21.66" transform="translate(-34.2 412.93) rotate(-51.4)"/>
  <path class="cls-2" d="M324.67,304.97c-1.54-.51-3.23.14-4.05,1.54-1.88,3.21-4.05,7.88-5.17,13.84-1.12,5.97-.78,11.12-.19,14.8.26,1.63,1.63,2.85,3.27,2.91,4.1.16,9.37-.09,15.3-1.53,7.17-1.75,12.8-4.63,16.78-7.16,1.69-1.08,2.12-3.36.93-4.97-2.55-3.43-6.3-7.64-11.58-11.52-5.65-4.15-11.13-6.52-15.28-7.89Z"/>
</svg>