<?xml version="1.0" encoding="UTF-8"?>
<svg id="Layer_1" data-name="Layer 1" xmlns="http://www.w3.org/2000/svg" viewBox="0 0 466.26 363.5">
  <defs>
    <style>
      .cls-1 {
        fill: #fff;
      }
    </style>
  </defs>
  <g>
    <path d="M464.73,75.04c-2.32-13.85-7.13-26.71-15.08-38.33C433.3,12.82,406.84.16,381.83,0c-17.48-.11-33.32,4.81-47.43,15.15-12.72,9.33-21.84,21.53-28,35.95-6.93,16.21-9.55,33.23-9.23,50.77.02,1.4.29,2.81.57,4.2,2.88,13.69,15.52,23.01,29.67,21.63,15.2-1.48,24.73-14.27,24.86-26.72.03-3.48.22-6.97.54-10.44.64-6.89,2.21-13.55,5.31-19.79,1.76-3.55,4.01-6.74,6.96-9.41,4.47-4.05,9.74-6.17,15.77-6.16,7.45,0,13.79,2.8,19.12,7.95,4.01,3.87,6.69,8.58,8.45,13.82,2.41,7.14,3,14.5,2.46,21.96-.4,5.69-2.71,10.49-6.98,14.32-.8.72-1.59,1.49-2.44,2.17-2.64,2.12-5.32,4.18-7.95,6.31-4.65,3.78-9.42,7.44-13.9,11.43-14,12.46-23.73,27.74-29.46,45.59-3.04,9.48-4.94,19.18-6,29.07-1.09,10.22-1.5,20.46-.93,30.7.55,9.69,1.42,19.35,2.07,29.04.39,5.88.53,11.76-.31,17.63-.84,5.81-3.64,10.13-8.88,12.91-3.49,1.85-7.12,3.3-10.89,4.41-8.29,2.46-16.8,3.76-25.38,4.54-5.43.49-10.88.83-16.32,1.07-3.79.16-7.6.02-12.21.02,13.61-16.67,23.32-34.77,29.21-54.88,5.92-20.16,7.51-40.68,5.04-61.51-2.48-20.84-9.06-40.34-19.65-58.46-10.59-18.14-24.3-33.48-41.16-46.03-16.83-12.54-35.47-21.27-55.88-26.14-20.41-4.87-40.99-5.35-61.81-1.94-.74-1.06-1.44-2.02-2.1-3.01-6.26-9.19-12.51-18.39-18.77-27.58-.55-.82-1.06-1.68-1.71-2.39-2.42-2.65-6.47-1.73-7.55,1.7-.29.93-.44,1.91-.62,2.87-2.04,10.92-4.07,21.86-6.12,32.78-.48,2.55-1.06,5.1-1.54,7.4-6.04,3.41-11.82,6.68-17.61,9.94-.17.09-.41.07-.75.11-.51-.76-1.07-1.55-1.57-2.39-4.51-7.33-9.02-14.68-13.52-22.02-.45-.75-.87-1.52-1.41-2.19-1.1-1.39-2.57-2.02-4.34-1.64-1.73.37-2.89,1.46-3.43,3.16-.16.52-.2,1.07-.3,1.61-.8,4.62-1.65,9.22-2.42,13.84-2.02,12.04-4.02,24.09-6,36.12-.38,2.31-1.27,4.25-2.78,6.11C13.54,139.49,2.15,169.13.24,202.38c-.72,12.57.21,25.06,2.66,37.42,4.93,24.73,15.3,46.94,31.13,66.57,27.85,34.55,69.62,55.85,114.63,57.05,4.36.11,8.73.06,13.09.06,36.97,0,73.94-.01,110.91,0,14.42,0,28.77-.7,43.06-2.66,9.42-1.3,18.7-3.17,27.76-6.05,9.61-3.06,18.72-7.17,26.95-13.08,10.79-7.75,18.98-17.62,24.09-29.92,3.64-8.75,5.41-17.94,5.96-27.35.62-10.48.08-20.94-.86-31.37-1-11.2-1.77-22.39-1.11-33.64.33-5.67.99-11.29,2.14-16.85,2.43-11.82,8.03-21.81,17.31-29.63,1.17-.99,2.31-2,3.51-2.94,3.51-2.77,7.05-5.49,10.57-8.26,4.47-3.5,8.75-7.2,12.73-11.27,13.06-13.37,19.86-29.51,21.18-48.02.65-9.15.31-18.3-1.22-27.38ZM114.87,208.27c-.4.77-.92,1.48-1.47,2.16-7.93,9.58-23.43,9.55-31.31-.06-.53-.65-1.09-1.3-1.7-2.02-.82,1-1.46,1.86-2.18,2.66-5.97,6.64-16.79,7.57-23.73,2-1.08-.87-2.02-1.98-2.86-3.1-.75-.99-.49-2.15.39-2.93.87-.78,2.02-.79,2.96.02.56.51,1.02,1.13,1.57,1.65,7.05,6.7,18.75,2.55,20.46-4.92-.46-.71-.95-1.55-1.5-2.35-1.88-2.79-3.8-5.58-5.69-8.38-.41-.62-.82-1.29-1.08-1.99-.31-.84.25-1.84,1.11-2.07.52-.14,1.07-.21,1.61-.21,5.78-.01,11.56-.01,17.33,0,1.09,0,2.26-.08,2.81,1.15.47,1.06-.16,1.88-.71,2.7-1.84,2.71-3.69,5.4-5.52,8.11-.6.9-1.17,1.81-1.75,2.71.96,3.2,2.93,5.46,5.58,7.14,6.64,4.23,15.67,2.8,20.73-3.23.49-.59.92-1.23,1.46-1.75.75-.72,1.88-.75,2.71-.18.98.68,1.33,1.81.77,2.87Z"/>
    <path class="cls-1" d="M77,203.75c-.45-.71-.95-1.55-1.5-2.35-1.89-2.8-3.81-5.58-5.69-8.39-.42-.63-.82-1.29-1.08-1.99-.31-.83.25-1.84,1.11-2.07.52-.14,1.07-.2,1.61-.2,5.78-.01,11.55-.01,17.33,0,1.09,0,2.26-.07,2.81,1.16.47,1.05-.15,1.88-.71,2.7-1.84,2.7-3.69,5.4-5.52,8.11-.6.89-1.17,1.81-1.75,2.71.97,3.21,2.93,5.46,5.57,7.15,6.65,4.23,15.67,2.8,20.74-3.23.49-.58.92-1.23,1.46-1.75.75-.72,1.88-.74,2.71-.17.97.67,1.33,1.81.77,2.87-.4.76-.92,1.48-1.47,2.15-7.92,9.59-23.44,9.55-31.31-.06-.54-.65-1.09-1.29-1.7-2.01-.81.99-1.46,1.86-2.18,2.66-5.98,6.64-16.8,7.58-23.73,2-1.09-.87-2.03-1.97-2.87-3.09-.74-.99-.48-2.15.4-2.93.88-.78,2.02-.8,2.96.03.57.5,1.03,1.12,1.58,1.65,7.04,6.7,18.74,2.55,20.45-4.91Z"/>
  </g>
  <g>
    <path class="cls-1" d="M132.17,154.58c.25,10.71-8.39,20.93-20.78,21.1-11.56.16-21.06-9.22-21.16-20.74-.1-11.77,9.24-21.25,20.96-21.24,12.49.01,21.16,10.32,20.97,20.88ZM125.78,154.71c.01-7.09-5.5-12.67-12.59-12.73-7.06-.06-12.7,5.5-12.85,12.51-.14,6.05,4.54,12.94,12.78,12.91,8.3-.03,12.86-6.98,12.65-12.69Z"/>
    <path class="cls-1" d="M74.48,157.92c.14,9.66-7.86,18.48-18.55,18.45-10.52-.03-18.46-8.76-18.45-18.59.01-8.92,7.05-18.49,18.59-18.44,11.65.05,18.68,9.75,18.42,18.57ZM57.97,169.04c5.76.05,11.23-4.54,11.11-11.31-.14-7.74-6.58-11.22-11.34-11.12-6.2.13-11.2,5.16-11.13,11.35.07,6.22,5.12,11.14,11.37,11.08Z"/>
    <path d="M125.78,154.71c.21,5.71-4.35,12.65-12.65,12.69-8.24.03-12.92-6.86-12.78-12.91.16-7.01,5.79-12.56,12.85-12.51,7.08.06,12.6,5.64,12.59,12.73Z"/>
    <path d="M57.97,169.04c-6.25.06-11.3-4.86-11.37-11.08-.07-6.19,4.93-11.22,11.13-11.35,4.77-.1,11.21,3.38,11.34,11.12.12,6.77-5.34,11.36-11.11,11.31Z"/>
  </g>
</svg>