<?xml version="1.0" encoding="UTF-8"?>
<svg id="Layer_1" data-name="Layer 1" xmlns="http://www.w3.org/2000/svg" viewBox="0 0 1303.7 832.55">
  <defs>
    <style>
      .cls-1 {
        fill: #fcb816;
      }

      .cls-2 {
        fill: #fbb817;
      }

      .cls-3 {
        fill: #010101;
      }

      .cls-4 {
        fill: #385a65;
      }

      .cls-5 {
        fill: #4f2a11;
      }

      .cls-6, .cls-7 {
        fill: #fff;
      }

      .cls-7 {
        opacity: .5;
      }

      .cls-8 {
        fill: #192e35;
      }

      .cls-9 {
        fill: #d99728;
      }
    </style>
  </defs>
  <g>
    <g>
      <path class="cls-3" d="M1303,248.28c-2.94,41.42-18.17,77.55-47.39,107.47-8.9,9.09-18.49,17.38-28.49,25.22-7.87,6.19-15.81,12.28-23.66,18.48-2.69,2.11-5.25,4.38-7.86,6.58-20.78,17.52-33.28,39.88-38.74,66.34-2.58,12.43-4.03,25.02-4.78,37.72-1.48,25.17.24,50.23,2.49,75.28,2.11,23.36,3.3,46.76,1.92,70.2-1.22,21.07-5.19,41.62-13.33,61.21-11.46,27.54-29.77,49.63-53.9,66.98-18.42,13.23-38.8,22.44-60.33,29.28-20.28,6.44-41.06,10.63-62.11,13.53-31.98,4.41-64.13,5.98-96.38,5.98-82.74-.03-165.49,0-248.23-.02-9.77,0-19.53.14-29.29-.14-100.74-2.69-194.22-50.35-256.55-127.66-35.44-43.96-58.65-93.66-69.68-149.02-5.51-27.63-7.58-55.61-5.97-83.75,4.29-74.41,29.77-140.75,76.71-198.69,3.37-4.18,5.37-8.51,6.23-13.69,4.41-26.96,8.9-53.9,13.41-80.83,1.74-10.34,3.63-20.66,5.45-30.99.21-1.21.3-2.44.67-3.6,1.19-3.8,3.78-6.24,7.67-7.08,3.95-.84,7.23.56,9.7,3.68,1.21,1.53,2.15,3.25,3.17,4.91,10.08,16.43,20.15,32.86,30.24,49.3,1.14,1.85,2.4,3.63,3.52,5.34.76-.11,1.3-.05,1.68-.26,12.95-7.29,25.89-14.6,39.41-22.25,1.08-5.14,2.36-10.83,3.45-16.57,4.59-24.44,9.14-48.9,13.7-73.34.41-2.17.75-4.36,1.39-6.44,2.41-7.69,11.47-9.73,16.89-3.81,1.48,1.62,2.61,3.54,3.84,5.36,13.99,20.58,28,41.16,41.99,61.73,1.5,2.2,3.05,4.36,4.71,6.73,46.56-7.61,92.63-6.56,138.31,4.35,45.7,10.89,87.41,30.44,125.08,58.51,37.7,28.06,68.4,62.42,92.09,102.99,23.69,40.57,38.45,84.23,43.99,130.86,5.54,46.6,1.97,92.53-11.26,137.67-13.2,45.01-34.92,85.53-65.41,122.83,10.31,0,18.84.29,27.36-.08,12.18-.52,24.37-1.27,36.51-2.36,19.22-1.75,38.26-4.67,56.82-10.16,8.44-2.5,16.57-5.74,24.37-9.87,11.73-6.21,18-15.9,19.86-28.9,1.91-13.15,1.59-26.3.7-39.45-1.43-21.67-3.39-43.3-4.62-64.98-1.3-22.95-.37-45.85,2.08-68.72,2.38-22.14,6.61-43.86,13.43-65.09,12.82-39.93,34.59-74.13,65.94-102.02,10.02-8.91,20.69-17.1,31.11-25.56,5.87-4.78,11.87-9.38,17.77-14.11,1.89-1.53,3.65-3.25,5.46-4.87,9.55-8.57,14.72-19.35,15.62-32.07,1.21-16.71-.12-33.15-5.51-49.13-3.97-11.73-9.95-22.28-18.92-30.93-11.92-11.53-26.12-17.81-42.8-17.81-13.5-.01-25.3,4.7-35.31,13.78-6.59,5.97-11.63,13.12-15.58,21.07-6.93,13.95-10.42,28.87-11.85,44.28-.73,7.77-1.14,15.58-1.24,23.37-.27,27.87-21.6,56.48-55.6,59.79-31.69,3.1-59.96-17.76-66.41-48.41-.66-3.1-1.24-6.26-1.3-9.4-.69-39.26,5.19-77.35,20.67-113.62,13.79-32.3,34.22-59.59,62.69-80.47,31.55-23.13,67.01-34.16,106.13-33.9,55.96.35,115.19,28.68,151.76,82.14,17.79,26.01,28.56,54.79,33.76,85.78,3.4,20.34,4.17,40.8,2.72,61.3Z"/>
      <g>
        <path class="cls-6" d="M452.56,439.65c2.84,0,5.68-.12,8.51.04,1.89.11,3.14,2.21,2.54,3.98-.33.97-.79,1.91-1.31,2.78-4.77,7.99-9.57,15.96-14.37,23.93-.27.44-.56.87-.87,1.28-2,2.61-4.32,2.81-6.38.17-6.18-7.97-12.29-16-18.25-24.13-2.06-2.82-.56-5.72,3.03-6.02,9.02-.74,18.06-1.28,27.09-1.9,0-.05,0-.1,0-.14Z"/>
        <circle class="cls-6" cx="389.57" cy="367.42" r="40.71"/>
        <circle class="cls-3" cx="369.5" cy="367.42" r="24.15"/>
        <circle class="cls-6" cx="511.39" cy="360.43" r="47.06"/>
        <circle class="cls-3" cx="491.26" cy="360.66" r="27.71"/>
      </g>
    </g>
    <path d="M312.82,643.27c-17.3,0-39.17-.84-62.66-3.79-78.68-9.88-136.37-37.59-171.47-82.34-18.72-23.87-14.55-58.39,9.32-77.12,23.87-18.72,58.39-14.55,77.12,9.32,16.13,20.56,51.19,35.17,98.73,41.14,40.87,5.13,75.88,2,76.22,1.97,30.2-2.92,57.04,19.19,59.96,49.38,2.92,30.19-19.19,57.04-49.38,59.96-1.06.1-15.72,1.48-37.82,1.48Z"/>
    <g>
      <g>
        <g>
          <path class="cls-5" d="M310.75,249.57c-.32,4.6-99.22,84.72-83.94,99.38,15.29,14.66,191.86-48.51,279.58-69.27,87.72-20.77,182.69-66.55,248.65-86.69,65.96-20.14,79.1-44.16,73.18-48.09-17.2-11.43-80.48,2.05-80.48,2.05,0,0-52.34-143.43-152.96-140.31-100.62,3.11-177.34-13.21-207.17-3.49-29.84,9.72-68.81,131.83-76.86,246.44Z"/>
          <path class="cls-2" d="M317.43,189.49s135.12-3.79,214.95-22.25c79.89-18.47,194.23-60.4,194.78-60.65.03-.01,1.7.3,1.71.33,7.79,14.29,14.49,28.58,20.03,42.9,0,0-255.47,92.94-337.87,101.48-82.41,8.53-100.27-1.72-100.27-1.72,0,0,2.17-59.66,6.67-60.09Z"/>
        </g>
        <path d="M509.62,34.36c1.59-1.61,34.78,45.23,155.12,42.61,60.44-1.31,5.12,33.36-39.4,24.91-44.52-8.45-163.86-18.74-115.72-67.52Z"/>
        <path class="cls-9" d="M758.87,152.59s-165.3,75.73-261.46,86.93c0,0-12.27,15.99,39.3,14.75,51.58-1.24,239.2-81.34,260.56-92.55,21.37-11.21,34.6-15.98,13.73-17.41-20.87-1.42-52.13,8.28-52.13,8.28Z"/>
      </g>
      <path class="cls-7" d="M488.2,11.36s106.57-.51,135.98,5.28c29.41,5.79,79.94,42.97,66.25,47.98-13.7,5.01-78.59-7.39-121.86-16.34-43.27-8.94-80.36-36.93-80.36-36.93Z"/>
      <path class="cls-2" d="M675.57,103.08c-.13-1.86-38.86,4.48-85.49-4.61-46.74-8.6-80.46-28.66-81.26-26.98-.34.56,7.59,6.29,21.75,13.26,14.12,6.98,34.73,14.71,58.46,19.24,23.74,4.47,45.74,4.8,61.44,3.48,15.73-1.3,25.21-3.74,25.1-4.38Z"/>
    </g>
    <g>
      <path class="cls-1" d="M100.13,421.77l64.03,176.41c2.11,5.82-.88,12.25-6.69,14.39h0c-6.06,2.23-12.75-1.1-14.63-7.28l-53.38-175.52,10.66-8Z"/>
      <g>
        <path class="cls-4" d="M16.15,230.82c1.22-5.49,3.48-9.18,6.87-10.59,14.95-6.21,45.93,34.15,69.19,90.15,23.26,56,30,106.43,15.05,112.64-2.44,1.01-5.31.77-8.49-.56,4.17-18.76-3.92-58.73-21.92-102.05-19.47-46.87-44.34-82.76-60.69-89.59Z"/>
        <path class="cls-3" d="M22.71,342.9C-.55,286.9-7.26,238.9,8.77,229.06c.88-.54,13.27-8.34,13.27-8.34,0,0-3.98,4.08-5.88,10.09-4.17,18.76,3.92,58.73,21.92,102.05,19.47,46.87,44.33,82.76,60.69,89.59,2.6,1.12,9.1.28,9.1.28,0,0-13.75,9.38-15.97,10.31-14.95,6.21-45.93-34.15-69.19-90.15Z"/>
        <path class="cls-6" d="M38.07,332.88c23.26,56,54.24,96.36,69.19,90.15,14.95-6.21,8.21-56.64-15.05-112.64-23.26-56-54.24-96.36-69.19-90.15-14.95,6.21-8.21,56.64,15.05,112.64Z"/>
        <path class="cls-8" d="M92.1,336.09c-.63.99-13.09-5.78-27.81-15.13-14.73-9.35-26.16-17.74-25.53-18.73.63-.99,13.08,5.78,27.81,15.13,14.73,9.35,26.16,17.74,25.53,18.73Z"/>
        <path class="cls-8" d="M98.41,353.96c-.55,1.04-10.09-2.96-21.29-8.93-11.21-5.97-19.84-11.65-19.29-12.69.55-1.04,10.09,2.96,21.29,8.93,11.2,5.97,19.84,11.65,19.29,12.69Z"/>
      </g>
    </g>
    <path class="cls-3" d="M103.32,508.24c1.17,0,15.74,1.17,25.59,15,9.86,13.83-5.26,42.66-5.26,42.66l-20.33-57.65Z"/>
  </g>
  <path class="cls-6" d="M438.26,468.84c-3.18-4.11-6.57-8.48-9.97-12.86-2.22-2.87-4.56-5.66-6.62-8.64-2.1-3.03-.81-5.53,2.97-6.08.72-.1,1.45-.14,2.17-.19,10.63-.69,21.26-1.39,31.89-2.07,1.9-.12,3.95-.58,5.33,1.33,1.62,2.25.23,4.14-.86,6-3.42,5.85-6.89,11.67-10.3,17.53-.72,1.24-1.26,2.57-2.04,4.18,5.33,11,14.47,15.91,26.23,16.03,10.01.1,18.28-4.05,24.39-12.17,1.01-1.35,1.95-2.77,3.12-3.97,1.14-1.17,3.26-1.18,4.74-.29,1.64.99,2.4,2.55,1.95,4.31-.41,1.59-1.2,3.16-2.13,4.53-12.94,19.15-42.01,22.22-58.67,6.21-1.56-1.5-2.99-3.13-4.71-4.95-1.92.83-2.52,2.77-3.6,4.18-9.64,12.57-26.76,16.86-41.1,10.26-4.02-1.85-7.56-4.34-10.27-7.87-1.58-2.06-1.45-4.23.19-5.91,1.48-1.53,3.54-1.87,5.25-.62,1.56,1.13,2.87,2.6,4.4,3.77,13.11,10.06,32.47,3.77,37.67-12.72Z"/>
</svg>