<?xml version="1.0" encoding="UTF-8"?>
<svg id="Layer_1" data-name="Layer 1" xmlns="http://www.w3.org/2000/svg" viewBox="0 0 1176.31 708.97">
  <defs>
    <style>
      .cls-1 {
        fill: none;
        stroke: #000;
        stroke-linecap: round;
        stroke-linejoin: round;
        stroke-width: 99.02px;
      }

      .cls-2 {
        fill: #010101;
      }

      .cls-3 {
        fill: #fff;
      }
    </style>
  </defs>
  <path class="cls-1" d="M1123.09,570.56c15.38-69.66-17.77-148.27-84.82-177.87-50.81-22.43-115.6-9.89-154.32,29.98-42.18,43.43-35.57,107.16-60.46,158.84-46.47,96.5-180.98,98.98-250.96,27.78"/>
  <g>
    <g>
      <path class="cls-2" d="M573.86,98.79c-33.03-11.84-66.68-19.07-100.24-22-.33-1.13-1.16-1.95-1.7-2.84-10.33-16.68-20.55-33.44-31.16-49.94-3.27-5.11-3.17-9.82-1.03-15.02,2.25-5.49,6.48-8.22,12.2-8.83,5.65-.6,11.1.45,16.4,2.29,10.58,3.67,20.54,8.63,29.93,14.71,20.56,13.32,39.36,28.76,55.53,47.23,4.7,5.37,8.94,11.18,13.02,17.05,3.59,5.17,6.2,10.85,7.05,17.35Z"/>
      <path class="cls-2" d="M321.58,94.98c.12-.11.27-.25.43-.38-1.28-2.18-2.56-4.47-3.94-6.69-9.64-15.55-19.31-31.08-28.96-46.62-.99-1.59-1.98-3.16-2.83-4.81-1.49-2.91-1.89-6.04-1.21-9.26.76-3.64,2.77-6.51,6.33-7.53,3.27-.92,6.75-1.45,10.15-1.43,7.76,0,15.23,1.96,22.49,4.54,18.16,6.44,34.72,15.71,49.8,27.73,6.89,5.49,12.63,12.06,18.58,18.48,2.69,2.92,5.3,5.9,8.14,9.1-26.91,2.97-53.38,8.64-78.98,16.87Z"/>
    </g>
    <path d="M755.72,470.2c-3.48,12.9-7.81,25.6-12.98,38.13-7.26,17.67-16.22,35-26.81,51.95-2.6,4.1-5.31,8.12-8.09,12.09-5.12,7.3-10.54,14.36-16.27,21.19-54.2,64.93-133.57,108.12-223.12,114.57-7.74.56-15.55.85-23.44.85-2.52,0-5.04-.03-7.54-.08-.51-.02-1.04-.03-1.56-.05-83.35-2.6-159.83-36.68-216.32-92.32-4.64-4.58-9.15-9.3-13.51-14.16-2.37-2.64-4.69-5.32-6.98-8.04-28.9-34.44-50.88-75.36-63.58-120.97-.48-1.67-.93-3.37-1.38-5.06-2.04-7.84-3.78-15.72-5.22-23.63-.28-1.54-.55-3.1-.81-4.66-.17-1.09-.35-2.19-.51-3.28-.2-1.33-.4-2.65-.58-3.98-1.74-12.14-2.75-24.36-3.02-36.63-.05-2.44-.08-4.89-.1-7.34v-.41c.02-8.31.36-16.61,1.01-24.97,1.99-25.2,6.62-49.33,13.86-72.42.99-3.15,2.02-6.28,3.12-9.38,3.78-10.89,8.17-21.55,13.2-31.98.88-1.86,1.77-3.71,2.72-5.55.25-.5.5-.99.76-1.49.7-1.36,1.39-2.72,2.12-4.08.56-1.09,1.14-2.19,1.74-3.27.96-1.77,1.94-3.55,2.95-5.31,9.04-15.9,19.56-31.2,31.54-45.93.07-.1.15-.2.23-.3.99-1.24,1.81-2.52,2.49-3.88,20.56-24.26,44.67-45.41,71.51-62.69.02.05.05.08.08.13,6.47-3.7,12.53-7.3,18.72-10.69,1.67-.93,3.35-1.82,5.04-2.72,4.68-2.49,9.45-4.92,14.41-7.53.02-.1.05-.22.07-.32,3.52-1.62,7.05-3.2,10.63-4.71,22.07-9.32,45.4-16.23,69.67-20.43.05.07.08.12.13.18,1.29-.2,2.57-.38,3.86-.56,9.91-1.39,19.73-2.42,29.46-3.03.68-.07,1.34-.1,2.02-.13,1.16-.07,2.34-.13,3.5-.18,1.16-.07,2.32-.12,3.48-.17,2.32-.08,4.64-.15,6.95-.2,1.16-.02,2.32-.03,3.46-.05.8-.02,1.59-.02,2.39-.02,1.62,0,3.27.02,4.89.03,6.03.07,12.02.3,17.97.7h.02c36.29,2.32,71.21,10.61,104.62,25.3,10.88,4.79,21.59,10.25,32.13,16.4,8.44,4.92,16.76,10.28,24.99,16.1,8.79,6.2,17.16,12.7,25.14,19.46.96.81,1.94,1.66,2.9,2.52,16.35,14.19,30.89,29.58,43.62,46.13,1.31,1.69,2.59,3.4,3.85,5.12,7.68,10.43,14.66,21.31,20.91,32.63.37.65.73,1.29,1.08,1.96,10.5,19.33,18.97,39.92,25.33,61.78,3.56,12.2,6.48,24.79,8.74,37.77,2.29,13.2,3.8,26.23,4.53,39.11.03.23.03.46.05.7,1.87,33.66-1.54,66.27-10.05,97.81Z"/>
    <path d="M100.73,264.56c-.41,3.47-2.39,5.84-5.85,6.66-1.53.36-3.14.38-4.72.49-26.36,1.9-52.72,3.79-79.08,5.66-1.31.09-2.65.15-3.95,0-4.03-.47-6.83-3.4-7.11-7.28-.26-3.6,2.43-6.94,6.44-7.86,1.28-.29,2.61-.35,3.93-.45,26.36-1.85,52.73-3.7,79.1-5.53,1.58-.11,3.19-.36,4.73-.16,4.22.55,7.01,4.29,6.51,8.47Z"/>
    <path d="M740.13,171.85c-6.45-1.1-9.19-7.28-6.04-11.78,1.04-1.48,2.51-2.71,3.96-3.83,20.95-16.23,41.93-32.43,62.92-48.62,1.25-.96,2.56-1.95,3.99-2.57,3.27-1.43,7.21-.21,9.19,2.62,2.14,3.05,1.99,6.62-.61,9.48-1.24,1.36-2.74,2.49-4.2,3.63-20.33,15.73-40.68,31.45-61.03,47.16-1.26.97-2.47,2.09-3.89,2.72-1.62.72-3.46.98-4.29,1.2Z"/>
    <path d="M103.15,218.9c-.97-.41-2.72-1.03-4.36-1.86-23.4-11.85-46.79-23.73-70.16-35.63-1.64-.83-3.33-1.71-4.69-2.92-2.73-2.44-3.16-6.44-1.29-9.44,1.83-2.94,5.7-4.44,9.01-3.28,1.74.61,3.38,1.52,5.04,2.36,22.68,11.51,45.36,23.02,68.03,34.56,1.88.96,3.82,1.91,5.47,3.2,2.63,2.05,3.4,5.75,2.13,8.62-1.55,3.49-4.61,5.14-9.18,4.4Z"/>
    <path d="M849.38,208.03c-.18.98-1.8,3.03-4.54,3.87-2.01.62-4.14.87-6.24,1.12-24.98,2.99-49.96,5.96-74.94,8.93-1.84.22-3.69.52-5.53.55-4.28.07-7.71-3.01-8.13-7.13-.37-3.63,2.19-7.06,6.22-8.08,1.79-.45,3.65-.6,5.49-.82,24.98-2.97,49.96-5.94,74.95-8.86,2.35-.27,4.79-.54,7.1-.21,4.31.6,6.78,4.49,5.62,10.63Z"/>
    <path class="cls-3" d="M438.86,298.11c2.89,0,5.79-.12,8.68.04,1.93.11,3.2,2.25,2.59,4.06-.33.99-.8,1.94-1.34,2.84-4.87,8.15-9.76,16.28-14.65,24.41-.27.45-.57.89-.89,1.31-2.04,2.66-4.41,2.87-6.5.17-6.31-8.13-12.54-16.31-18.61-24.61-2.1-2.87-.57-5.84,3.09-6.14,9.2-.75,18.42-1.3,27.63-1.94,0-.05,0-.1,0-.15Z"/>
    <g>
      <path class="cls-3" d="M543.49,207.46c.63,26.91-21.07,52.59-52.23,53.01-29.05.4-52.92-23.16-53.17-52.11-.23-29.58,23.25-53.4,52.67-53.37,31.39.02,53.17,25.93,52.72,52.48Z"/>
      <path class="cls-3" d="M398.5,215.85c.36,24.27-19.75,46.46-46.62,46.37-26.45-.07-46.41-22.02-46.37-46.71.03-22.43,17.72-46.47,46.72-46.34,29.26.13,46.94,24.5,46.27,46.67Z"/>
      <path d="M516.86,228.76c.52,14.34-10.94,31.8-31.8,31.88-20.72.08-32.47-17.24-32.13-32.45.39-17.62,14.56-31.58,32.3-31.43,17.8.15,31.67,14.18,31.63,32Z"/>
      <path d="M351.45,264.76c-15.71.15-28.4-12.21-28.57-27.84-.17-15.56,12.4-28.2,27.97-28.54,11.98-.26,28.16,8.5,28.51,27.95.3,17.01-13.43,28.54-27.91,28.43Z"/>
    </g>
  </g>
  <path class="cls-3" d="M464.28,355.9c-8.31-22.65-56.36-22.8-64.87,0-4.55-35.9,69.32-36.05,64.87,0Z"/>
  <g>
    <path class="cls-3" d="M303.42,445c-39.64,14.23-69.87,56.75-70.32,98.93-.23,22.63-14.28,42.11-34.01,50.39-28.9-34.44-50.88-75.36-63.58-120.97,6.8-18.77,16.23-36.79,27.99-53.35,25.95-36.51,62.37-64.56,102.58-78.99,6.04-2.17,12.32-3.27,18.67-3.27,23.25,0,44.14,14.71,52,36.59,10.3,28.67-4.66,60.37-33.33,70.66Z"/>
    <path d="M177.87,595.28c-.18,0-.37,0-.56,0-28.68-.3-51.69-23.79-51.39-52.47.44-42.03,14.75-84.96,40.28-120.89,25.55-35.96,61.42-63.59,100.99-77.79,26.99-9.69,56.73,4.34,66.43,31.33,9.69,27-4.34,56.73-31.34,66.42-40.88,14.67-72.05,58.53-72.5,102.01-.3,28.49-23.49,51.39-51.92,51.39Z"/>
  </g>
  <g>
    <path class="cls-3" d="M755.72,470.2c-3.48,12.9-7.81,25.6-12.98,38.13-7.26,17.67-16.22,35-26.81,51.95-2.6,4.1-5.31,8.12-8.09,12.09-5.12,7.3-10.54,14.36-16.27,21.19-18.83-8.67-32.05-27.66-32.28-49.62-.45-42.18-30.67-84.71-70.32-98.93-28.67-10.3-43.62-42-33.33-70.66,7.86-21.89,28.75-36.59,51.99-36.59,6.35,0,12.63,1.09,18.67,3.27,40.21,14.42,76.63,42.48,102.56,78.99,11.11,15.63,20.13,32.58,26.84,50.2Z"/>
    <path d="M714.52,595.28c-28.43,0-51.62-22.89-51.92-51.39-.45-43.48-31.63-87.34-72.5-102.01-27-9.69-41.02-39.43-31.34-66.42,9.69-27,39.44-41.02,66.43-31.33,39.57,14.2,75.44,41.83,100.99,77.79,25.54,35.93,39.84,78.86,40.28,120.89.3,28.68-22.71,52.17-51.39,52.47-.18,0-.37,0-.56,0Z"/>
  </g>
</svg>