<?xml version="1.0" encoding="UTF-8"?>
<svg id="Layer_1" data-name="Layer 1" xmlns="http://www.w3.org/2000/svg" viewBox="0 0 459.35 712.58">
  <defs>
    <style>
      .cls-1 {
        fill: #fcb003;
      }

      .cls-2 {
        fill: #010101;
      }

      .cls-3 {
        fill: #fd7301;
      }

      .cls-4 {
        fill: #622ca5;
      }

      .cls-5 {
        fill: #fff;
      }

      .cls-6 {
        fill: #fdb913;
      }

      .cls-7 {
        fill: #75b543;
      }

      .cls-8 {
        fill: #30b2e7;
      }

      .cls-9 {
        fill: none;
        stroke: #010101;
        stroke-linecap: round;
        stroke-linejoin: round;
        stroke-width: 19.92px;
      }

      .cls-10 {
        fill: #070707;
      }
    </style>
  </defs>
  <g>
    <g>
      <path class="cls-10" d="M451.25,425.89c-9.28-10.51-24.62-14.26-37.82-16.77-16.26-3.11-32.95-3.72-49.42-2.28-10.77.96-21.39,2.79-31.82,5.3-3.68-5.34-8.09-10-13.11-14.07,2.36-2.6,3.45-6.73,4.17-9.81,1.77-7.43,2.32-15.15,2.68-22.75.45-9.94.43-19.94.06-29.92,4.98,3.53,9.77,7.43,15.47,9.7,2.53,1,5.24,1.75,8.02,2.23-.02.62.15,1.23.62,1.83,10.43,12.81,28.18,24.75,44.88,15.86,6.43-3.41,11.32-9.88,11.73-17.26.36-6.81-3.3-13.83-9.43-16.94,2.85-3.41,3.23-8.51.72-12.34-3.32-5.04-9.62-6.7-15.26-5.09-.15.04-.3.11-.45.17-2.19-6.49-6.77-11.85-10.98-17.18-4.13-5.26-7.85-10.79-11.88-16.11-8.53-11.26-19.11-21.15-29.22-31.03-5.45-5.32-11.15-11.09-17.64-15.15-5.47-3.41-13.39-4.96-19.75-4.51h-.06c-.6.06-1.06.26-1.43.55-.91-1.45-3.28-1.85-4.34-.45-.26.28-.4.62-.51,1.02-1.51,6.26-4.79,12.15-9.87,16.17-5.6,4.45-12.54,5.43-19.45,4.26-12.13-2.02-24.11-9.56-31.41-19.58-.34-.4-.64-.83-.92-1.26-.19-.45-.55-.87-1.11-1.17-.34-.19-.66-.38-1-.57-15.43-8.64-30.63-17.66-45.67-26.94-8.21-5.07-16.39-10.24-24.47-15.51-7.56-4.94-14.81-10.34-22.45-15.13-4.09-2.55-8.62-4.6-13.51-4.77-.26,0-.51.02-.77.02.75-2.3,1.13-4.7,1.15-7.11.04-2.89-.23-6.38-2.09-8.75-1.96-2.47-5.28-3.06-8.26-2.7-2.3.26-4.41,1-6.34,2.11-4.43-5.73-11.66-9.02-18.98-8.24-8.41.89-15.75,6.64-18.9,14.45-3.32,8.22-1.87,17.56,3.06,24.79,5.38,7.85,13.56,12.85,21.67,17.49.15,1.94.53,3.85,1.32,5.68,1.49,3.51,3.81,6.62,6.21,9.58,5.28,6.51,11.19,12.6,16.77,18.88,12.49,14.03,25.56,27.77,40.71,38.88,0,.02-.02.04-.02.06-7.68,20.69-10.73,42.8-15.9,64.15-2.26,9.22-4.11,18.71-3.77,28.26.23,6.62,2.55,12.37,6.32,17.3-3.96,21.54-3.38,43.48,4.62,64-24.24-2.28-49.1,4.19-68.81,18.62-9.28,6.79-20.37,16.41-18.98,29.16.62,5.7,3.72,10.83,9.09,13.15,6.07,2.6,13.41,2.02,19.86,2.6,14.15,1.26,28.43,4,40.59,11.58-.53,3.15-.85,6.32-.96,9.51-5.87,5.43-11.83,11.49-14.28,19.09-.09.02-.17.02-.23.06-7.24,3.38-13.75,9.09-17.66,16.09-.3.55-.57,1.13-.83,1.72-5.02,1.09-9.9,2.79-14.51,5.02-.04.02-.06.06-.09.06-4.58-8.24-14.26-12.77-23.67-9.98-9.73,2.87-15.69,12.49-14.47,22.28-10.07-2.3-20.96.11-28.94,6.83-8.83,7.41-12.83,21.01-6.3,31.22,2.66,4.21,6.64,7.13,11.28,8.53-10.79,8.87-14.2,24.9-6.62,37.33,4.06,6.68,11.17,11.64,19.2,11.54,4.79-.09,9.02-2.09,12.37-5.17-.26,6.92,1.28,13.96,5.24,19.56,2.55,3.62,6.11,6.64,10.51,7.73,4.62,1.13,9.64.11,13.43-2.77,2.28-1.75,4-4.11,5.07-6.75,6.3,10.19,16.88,18.11,29.5,15.86,6.68-1.17,12.6-5.6,15.24-11.85,2.66-6.3,1.94-13.11.19-19.56,6.3.23,12.51-1.75,17.45-5.85,5.51-4.55,8.7-11.6,8.96-18.71,3.15.34,6.41-.51,9.22-1.92,4-2,7.17-5.34,10.17-8.58.43-.45.66-.96.72-1.45,7.94,2.53,16.6,2.26,23.71-2.04-1.75,16.13-6.81,31.86-14.9,45.95-3.64,6.3-7.98,13.45-4.64,20.86,3.06,6.83,11.24,7.3,17.75,7.53,31.05,1.11,61.36-13.75,79.51-38.88,9.9-13.73,15.9-30.01,17.49-46.84.02-.38-.02-.7-.11-1,10.56-4.43,20.88-9.41,31.01-14.6.09-.04.13-.09.19-.13,25.45-12.15,49.67-26.54,71.59-44.35,12.13-9.83,23.86-20.47,34.24-32.24.17-.15.32-.32.45-.51,7.85-8.94,14.92-18.52,20.79-28.9,6.81-12.05,11.94-25.09,15.03-38.59,3.13-13.68,3.85-29.37-6.02-40.59ZM383.47,318.8c.23,0,.47-.02.7-.09.51-.15,1.02-.26,1.55-.34.11-.02.38-.06.43-.06.26-.02.49-.02.75-.04.34,0,.66.02,1,.04.06,0,.3.02.4.02.45.09.87.17,1.32.3.28.09.53.17.81.28.06.04.28.13.36.17.38.19.75.45,1.11.68t.06.04c.09.06.17.13.26.21.15.15.32.3.47.45.15.15.3.32.45.47q.04.06.06.09s.04.06.11.15c.28.4.49.81.7,1.21t.04.09s.02.04.02.09c.09.23.17.47.23.72.04.17.09.36.11.55.02.06.02.19.02.32.02.21.02.43,0,.64,0,.09,0,.19-.02.28-.09.45-.21.85-.32,1.28-.02.04-.02.06-.02.09-.02.02-.02.04-.04.06-.13.21-.23.45-.36.66-.04.06-.26.36-.28.38-.09.11-.17.21-.28.32-.09.11-.21.21-.32.3-.11.04-.38.26-.45.32-1.17.74-1.74,2.4-.96,3.64.28.43.64.74,1.06.98-.04.83.34,1.64,1.38,2.09,5.21,2.28,8.17,7.85,7.51,13.47-.7,5.98-5.66,10.88-11.11,12.94-13.15,4.96-25.71-3.94-34.22-13.49,3.21-.02,6.41-.47,9.39-1.47,11.41-3.85,19.39-15.86,18.07-27.82ZM87.6,192.34c-.02.06-.02.13-.04.19-11.49-6.81-24.82-16.73-21.01-31.8,1.68-6.75,7.04-12.17,13.94-13.54,6.51-1.28,13.28,1.83,16.66,7.51.51.83,1.21,1.19,1.96,1.26.89.26,1.87-.02,2.66-.66.38-.3,0-.02.38-.28.23-.15.47-.32.72-.47.26-.15.49-.28.77-.4,0,0,.38-.19.47-.23.51-.21,1.04-.38,1.57-.53.28-.06.55-.13.85-.19.04,0,.4-.04.51-.06.53-.04,1.06-.09,1.6-.06.06.02.4.04.47.04.17.04.34.06.51.11.06.02.36.13.49.17.06.04.23.13.34.19.09.09.23.23.28.26.06.11.26.38.3.45.02.04.02.06.04.06,0,.04,0,.06.04.15.06.28.15.51.21.79.06.26.11.51.15.79,0,0,.06.47.08.57.15,1.19.17,2.38.11,3.58-.13,2.17-.7,4.49-1.64,6.7-.04.15-.09.28-.11.4-2.28.7-4.47,1.75-6.45,2.98-7.68,4.79-14.2,13-15.88,22.03ZM138.17,367.83c-1.49-8.73.28-18.66,2.34-27.16,5.36-21.9,8.51-44.69,16.15-65.98v-.02c1.89,1.28,3.79,2.55,5.75,3.75,2.94,1.79,5.62-2.81,2.68-4.6-16.32-9.96-30.12-23.35-42.99-37.39-5.75-6.26-11.24-12.73-17.03-18.96-2.6-2.83-5.24-5.66-7.58-8.73-1.98-2.6-4.15-5.55-4.81-8.81-1.79-8.64,4.13-17.58,10.45-22.86,3.53-2.94,7.96-5.28,12.64-5.36,4.72-.09,8.96,2.26,12.79,4.77,14.54,9.51,28.77,19.37,43.54,28.52,15.96,9.88,32.09,19.47,48.48,28.65,8.45,12.22,22.79,21.37,37.54,23.16,8.11,1,15.86-.72,22.26-5.96,5.13-4.17,8.7-10.07,10.64-16.37.43.4,1.02.66,1.81.62,5.21-.36,11.39.79,16.05,3.21,5.28,2.77,9.9,7.58,14.17,11.62,4.75,4.47,9.3,9.15,13.88,13.79,4.58,4.66,9.32,9.17,13.6,14.11,3.68,4.26,6.92,8.87,10.22,13.43,3.85,5.34,8.19,10.32,11.96,15.71,3.83,5.43,6.64,11.64,5.21,18.39-1.23,5.79-4.9,11.07-9.94,14.2-6.92,4.28-15.58,3.77-23.05,1.34-7.24-2.34-12.96-7.81-19.26-11.92-.4-7.43-.98-14.86-1.72-22.24-.91-9.17-2.02-18.37-3.94-27.39-.7-3.34-5.83-1.94-5.13,1.4,3.49,16.52,4.75,33.63,5.53,50.44.79,17.03,1.43,34.73-1.47,51.59-.53,3.04-1.15,6.17-2.34,9.05-.21.55-.79,1.72-1.34,2.47-.3.43-.45.66-1.26,1.02-.21.11-.38.21-.53.34-.04.02-.06.02-.09.04,0,.02-.02.02-.02.02-5.13,3.04-10.9,4.96-16.6,6.64-7.98,2.34-16.15,4.04-24.35,5.38-18.58,3.02-37.73,4.28-56.53,2.77-21.26-1.75-41.59-9.17-59.4-20.84-4.19-2.72-8.58-5.9-12.05-9.75-1.6-1.75-2.98-3.64-4.07-5.68-1.06-1.98-1.83-4.11-2.23-6.41ZM142.47,420.93c-1.55-11.51-1-23.2.85-34.65.85.79,1.74,1.57,2.66,2.32,17.03,13.81,39.2,23.16,60.87,26.2,19.49,2.75,39.5,1.83,58.95-.74,10.11-1.36,20.2-3.19,30.05-5.92,6.36-1.75,12.9-3.81,18.75-7,.02,0,.02-.02.04-.02.15.17.26.32.45.47.06.04.15.11.17.13.15.11.32.23.47.38.32.26.64.51.96.77.6.51,1.17,1.02,1.74,1.53,1.19,1.09,2.34,2.19,3.43,3.36,1.09,1.13,2.11,2.3,3.09,3.51.26.3.49.6.72.92.06.04.11.13.15.17.13.17.26.34.38.51.15.21.32.45.47.66-19.35,5.15-38.1,12.62-56.08,21.43-3.02,1.47-6.02,3.02-9,4.58-.38-.62-.72-1.23-1.09-1.85-1.7-2.98-6.3-.3-4.6,2.68,4.41,7.7,9.22,15.17,14.43,22.37,0,.02.02.02.02.04-24.41,8.39-41.22,30.8-43.61,56.42h-.02c-9.02-4.34-17.81-9.24-26.18-14.73-19.94-13.11-36.58-30.2-47.69-51.4-5.26-10.05-8.85-20.9-10.39-32.14ZM250.3,535.73c4.47,11.54,13.75,20.77,25.52,24.79,10.98,3.77,23.84,2.62,34.46-1.79,5.02-2.11,9.66-5.02,13.41-9,4.51-4.81,8.98-9.58,11.19-15.92,2.04-5.79,2.68-12.39,2.23-18.49-.51-6.94-3.4-13.37-7.36-19.03-8.26-11.79-24.43-19.67-38.76-16.81-.04,0-.09.02-.13.04-1.53-1.66-3.02-3.34-4.47-5.04,15.24-6.17,32.9.62,44.33,11.73,5.9,5.72,10.92,13.96,13.05,21.92,2,7.53,1.21,16.32-.6,23.84-1.96,8.17-6.62,14.05-12.22,20.07-4.98,5.38-10.26,9.6-17.05,12.51-13.09,5.58-29.01,6.87-42.48,2-15.3-5.55-27.01-19.22-30.31-35.07,2.98,1.17,5.96,2.28,8.98,3.28v.02c0,.3.06.62.19.96ZM318.73,495.4c-2.04-2.26-4.98-3.17-7.87-3.72-3.77-.7-7.15-1.28-10.47-3.38-1.83-1.17-3.47-2.55-5.02-4.06,10.36-.72,21.71,5,28.24,12.71,3.85,4.55,7.09,10.56,7.98,16.47.83,5.36.3,11.19-1.04,16.43-1.45,5.58-4.66,9.7-8.51,13.85-3.45,3.72-6.87,6.83-11.45,9.11-8.85,4.36-19.81,5.85-29.45,3.7-10.73-2.4-19.98-9.94-24.67-19.84,3.34.92,6.7,1.66,10.11,2.21,11.94,1.94,24.45.79,35.09-5.26,5.24-2.96,9.85-7,13.75-11.58,3.98-4.64,7.24-9.88,7.11-16.22-.06-3.66-1.3-7.66-3.79-10.43ZM295.3,491.17c2.34,1.81,4.87,3.3,7.68,4.28,2.77.94,5.72,1.04,8.53,1.83,6.53,1.79,6.62,10.26,4.13,15.37-2.49,5.11-7.32,9.77-11.79,13.17-9.15,6.98-20.54,9.43-31.88,8.43-10.45-.92-20.79-4.34-30.58-8.43,0-.06.02-.11.04-.17,3.72-22.2,19.01-41.08,40.56-48.12,4.06,4.83,8.3,9.77,13.3,13.64ZM236.41,523.69c-.66-.3-1.34-.6-2-.89-.91-.4-1.81-.81-2.7-1.23.09-.26.17-.53.19-.85,1.72-24.54,18.22-46.16,41.8-53.46,1.51,1.98,3.07,3.96,4.66,5.92l.02.02c-21.9,8.07-37.9,27.48-41.97,50.5ZM112.14,508.53c-4.96-1.6-10.09-2.77-15.24-3.58-6.15-.98-12.34-1.57-18.54-1.96-5.58-.36-12.64-.04-15.88-5.53-6.34-10.83,5.34-21.67,13.07-27.65,9.28-7.19,19.96-12.56,31.22-15.86,12.62-3.72,25.99-4.89,39.03-3.17,3.66,7.96,8.15,15.41,13.32,22.37-15.03,9.92-27.97,24.05-32.73,41.71-4.49-2.64-9.3-4.72-14.26-6.34ZM95.45,570.72c.96-3.83,3.98-7.32,6.73-10.05,2-1.98,4.24-3.66,6.62-5.11v.28c-.08,6.07,1.96,11.9,4.07,17.49.02.06.04.11.06.17-3.55,1.7-7.47,2.62-11.45,2.51-3.21-.11-7.02-1.34-6.02-5.3ZM139.76,651.53c-.06,5.87-2.66,11.47-7.11,15.32-4.43,3.79-10.75,5.41-16.45,4.36-.72-.13-1.45-.02-2.04.32-1.26.38-2.23,1.51-1.7,3.13,1.98,6,3.64,12.66,1.38,18.86-1.94,5.38-7.09,8.92-12.68,9.6-12.51,1.51-21.69-9.3-26.05-19.67-.47-1.11-1.87-1.47-2.98-1.19-1.28,0-2.66,1.11-2.66,2.45v.21c.45,4.62-1.74,9.22-6.13,11.13-3.94,1.7-8.41.87-11.58-1.96-7.51-6.68-8.34-18.73-5.64-27.8.79-2.62-2.32-4.04-4.11-2.85-.79,0-1.55.4-2.02,1.36-2.6,5.45-7.32,9.73-13.66,9.53-6.41-.19-11.71-4.72-14.58-10.17-6.13-11.62-1.21-25.86,10.15-31.95,2.79-1.49.72-5.49-1.98-4.85-.49-.64-1.28-1.04-2.13-1.15-5.19-.68-9.73-4.75-11.47-9.6-2.09-5.79-.77-12.26,2.68-17.22,7.07-10.13,21.01-12.96,32.18-8.83,2.26.83,3.6-1.45,3.11-3.3.08-.38.08-.81-.06-1.28-2.3-7.98,2.09-16.56,10.15-18.92,7.58-2.23,15.81,1.85,18.52,9.32.91,2.51,4.3,2.19,5.11.36.47,0,.92-.09,1.38-.3.57-.28,1.15-.55,1.74-.81.3-.15.6-.28.92-.4.09-.02.45-.19.47-.19,1.19-.49,2.38-.94,3.62-1.34,1.28-.43,2.58-.81,3.89-1.15.09,1.7.6,3.34,1.77,4.81,2.49,3.15,6.81,4,10.64,3.96,4.32-.04,8.56-1.04,12.47-2.83,1.36,3.41,2.79,6.83,4.3,10.17.13.26.26.51.36.77-.02.02-.04.02-.06.04-6.77,4.92-14.34,11.39-12.62,20.73,1.43,7.79,9.41,12.88,16.98,12.6,4.68-.17,9.24-1.94,12.98-4.72,2.02,2.53,4.17,5.04,6.47,7.41-2.36,2.36-4.49,5-6.19,7.87-1.98,3.34-3.43,7.56-2,11.39.91,2.45,2.66,4.38,4.85,5.7-.13.32-.21.66-.21,1.06ZM121.91,594.3c3.38,6.83,7.24,13.43,11.73,19.58-6,4.13-14.81,5.66-19.77-.89-2.21-2.89-2.47-6.49-.83-9.73,1.96-3.85,5.45-6.47,8.87-8.96ZM151.57,645.66c-2.96,1.49-6.79,1.96-9.56-.17-2.7-2.09-2.47-5.26-1.04-8.09,1.55-3.06,3.72-5.77,6.15-8.19,4,3.64,8.39,6.79,13.17,9.11-2.6,2.79-5.28,5.62-8.73,7.34ZM162.34,633.4c-8.58-4.32-15.66-11.49-21.62-18.9-6-7.49-10.85-15.88-15.03-24.5-4.34-8.96-8.92-18.71-11-28.48-1.21-5.7-.4-11.15,2.66-16.11,1.92-3.09,4.38-5.77,6.98-8.3.89,14.83,5.75,29.73,11.81,42.86,8.77,19.01,22.13,36.41,39.52,48.29,3.13,2.13,6.43,4.06,9.81,5.77-7.02,3.96-15.98,2.98-23.13-.64ZM186.24,628.46c-17.64-9.39-31.52-25.16-41.12-42.48-9.75-17.6-16.94-38.95-15.39-59.29.13-1.81.4-3.6.7-5.36l.64-3.09c4.13-17.22,16.49-31.16,31.33-40.86,2.53,3.17,5.21,6.19,8.02,9.09,4.38,25.58,10.05,51.46,22.35,74.55,10.56,19.77,25.88,37.33,44.27,50.16,9.21,6.43,19.28,11.56,29.82,15.49-5.41,1.87-10.9,3.58-16.43,5.04-10.66,2.79-21.62,4.85-32.67,4.75-11.11-.11-21.73-2.79-31.52-8ZM235.75,694.82c-12.37,7.28-26.5,11.58-40.82,12.32-3.49.17-6.98.15-10.45-.09-3-.19-6.87-.3-9.15-2.55-5.62-5.51,1.62-14.73,4.38-19.75,7.98-14.51,12.81-30.52,14.51-46.97,3.87,1.36,7.85,2.4,11.92,3.04,11.56,1.81,23.26.79,34.69-1.45,12.92-2.55,25.5-6.56,37.78-11.39-2.98,27.41-19.05,52.8-42.86,66.83ZM388.79,558.16c-23.84,20.26-50.57,36.27-78.83,49.55-.23.11-.43.23-.6.36-11.34,5.77-22.92,11.19-34.82,15.77-.21-.13-.45-.26-.72-.36-21.28-6.96-40.29-19.2-55.46-35.67-16.13-17.54-26.96-38.59-33.67-61.36-3.26-11.05-5.66-22.3-7.73-33.61,4.58,4.21,9.41,8.13,14.45,11.77,11.05,7.96,22.99,14.62,35.29,20.45,3.06,1.45,6.17,2.89,9.32,4.26-.32.51-.47,1.15-.36,1.89,2.77,16.32,13.98,30.77,28.77,38.07,14.66,7.21,32.5,7,47.72,1.6,7.43-2.62,14.56-6.58,20.03-12.32,6.02-6.32,12.05-12.71,14.96-21.11,2.85-8.22,3.68-17.75,2.58-26.35-1.15-9.24-6.28-17.96-12-25.11-6.34-7.96-15.81-13.47-25.28-16.9-9.73-3.53-20.24-3.09-29.6,1.17l-.02-.02c-6.77-8.28-12.94-17-18.49-26.13,12.11-6.3,24.58-12.05,37.35-16.92,12.77-4.85,25.88-8.83,39.27-11.58,5.02,38.86,19.26,77.11,50.35,102.6,7.28,5.98,15.17,11.02,23.71,14.94-8.13,8.92-17,17.2-26.2,25.01ZM418.69,528.99c-34.46-14.75-56.78-48.33-66.53-83.45-2.81-10.15-4.72-20.5-6.04-30.94,1.57-.28,3.13-.55,4.7-.79,1.43-.23,2.85-.43,4.3-.62,3.72,35.63,20.71,69.1,47.84,92.69,6.77,5.9,14.11,11.09,21.86,15.62-1.98,2.53-4.02,5.04-6.13,7.49ZM453.25,459.48c-2.19,13.28-6.87,26.33-13.07,38.24-3.55,6.85-7.64,13.32-12.15,19.49-29.26-16.96-51.65-44.42-61.91-76.74-2.89-9.09-4.79-18.45-5.75-27.92,12.79-1.38,25.75-1.53,38.54-.21,8.02.81,16,2.28,23.79,4.34,6.19,1.66,12.32,3.72,17.79,7.13,5.55,3.47,9.94,8.43,11.96,14.73,2.17,6.73,1.94,14.05.79,20.94Z"/>
      <path class="cls-5" d="M111.67,160.22c-.13,2.17-.7,4.49-1.64,6.7-.04.15-.09.28-.11.4-2.28.7-4.47,1.75-6.45,2.98-7.68,4.79-14.2,13-15.88,22.03-.02.06-.02.13-.04.19-11.49-6.81-24.82-16.73-21.01-31.8,1.68-6.75,7.04-12.17,13.94-13.54,6.51-1.28,13.28,1.83,16.66,7.51.51.83,1.21,1.19,1.96,1.26.89.26,1.87-.02,2.66-.66.38-.3,0-.02.38-.28.23-.15.47-.32.72-.47.26-.15.49-.28.77-.4,0,0,.38-.19.47-.23.51-.21,1.04-.38,1.57-.53.28-.06.55-.13.85-.19.04,0,.4-.04.51-.06.53-.04,1.06-.09,1.6-.06.06.02.4.04.47.04.17.04.34.06.51.11.06.02.36.13.49.17.06.04.23.13.34.19.09.09.23.23.28.26.06.11.26.38.3.45.02.04.02.06.04.06,0,.04,0,.06.04.15.06.28.15.51.21.79.06.26.11.51.15.79,0,0,.06.47.08.57.15,1.19.17,2.38.11,3.58Z"/>
      <path class="cls-5" d="M135.12,644.76c-1.43-3.83.02-8.04,2-11.39,1.7-2.87,3.83-5.51,6.19-7.87-2.3-2.36-4.45-4.87-6.47-7.41-3.75,2.79-8.3,4.55-12.98,4.72-7.58.28-15.56-4.81-16.98-12.6-1.72-9.34,5.85-15.81,12.62-20.73.02-.02.04-.02.06-.04-.11-.26-.23-.51-.36-.77-1.51-3.34-2.94-6.77-4.3-10.17-3.92,1.79-8.15,2.79-12.47,2.83-3.83.04-8.15-.81-10.64-3.96-1.17-1.47-1.68-3.11-1.77-4.81-1.32.34-2.62.72-3.89,1.15-1.23.4-2.43.85-3.62,1.34-.02,0-.38.17-.47.19-.32.13-.62.26-.92.4-.6.26-1.17.53-1.74.81-.47.21-.92.3-1.38.3-.81,1.83-4.19,2.15-5.11-.36-2.7-7.47-10.94-11.56-18.52-9.32-8.07,2.36-12.45,10.94-10.15,18.92.15.47.15.89.06,1.28.49,1.85-.85,4.13-3.11,3.3-11.17-4.13-25.11-1.3-32.18,8.83-3.45,4.96-4.77,11.43-2.68,17.22,1.75,4.85,6.28,8.92,11.47,9.6.85.11,1.64.51,2.13,1.15,2.7-.64,4.77,3.36,1.98,4.85-11.37,6.09-16.28,20.32-10.15,31.95,2.87,5.45,8.17,9.98,14.58,10.17,6.34.19,11.07-4.09,13.66-9.53.47-.96,1.23-1.36,2.02-1.36,1.79-1.19,4.9.23,4.11,2.85-2.7,9.07-1.87,21.11,5.64,27.8,3.17,2.83,7.64,3.66,11.58,1.96,4.38-1.92,6.58-6.51,6.13-11.13v-.21c0-1.34,1.38-2.45,2.66-2.45,1.11-.28,2.51.09,2.98,1.19,4.36,10.36,13.54,21.18,26.05,19.67,5.6-.68,10.75-4.21,12.68-9.6,2.26-6.19.6-12.85-1.38-18.86-.53-1.62.45-2.75,1.7-3.13.6-.34,1.32-.45,2.04-.32,5.7,1.04,12.02-.57,16.45-4.36,4.45-3.85,7.04-9.45,7.11-15.32,0-.4.09-.74.21-1.06-2.19-1.32-3.94-3.26-4.85-5.7ZM49.57,641.76c-.7,1.3-2.43,1.62-3.64.96-2.89-1.55-5.15-4.47-5.79-7.7-.72-3.66.3-7.3,2.72-10.13.96-1.13,2.77-.92,3.75,0,1.13,1.02.92,2.7,0,3.77-.04.06-.06.09-.08.11-.11.13-.19.26-.28.38-.15.26-.3.49-.43.74-.04.09-.09.17-.13.28-.02.04-.04.11-.06.19-.11.28-.19.53-.26.83-.04.17-.09.34-.11.51-.02.06-.02.09-.04.11-.04.23-.02.51-.02.7,0,.32.02.62.04.94.02.13.04.26.06.36.06.3.15.6.26.89,0,.04.04.21.09.3.02.02.04.04.06.11.13.23.26.47.4.7.06.13.13.23.21.36.02.04.06.09.09.11.34.43.7.83,1.13,1.17.02.02.11.09.17.15.04.02.09.04.11.06.26.17.51.32.79.47,1.3.7,1.6,2.4.96,3.64ZM55.91,608.22c-3.43,0-3.43-5.32,0-5.32s3.43,5.32,0,5.32ZM76.83,598.71c.3-.53.96-1.13,1.58-1.23,2.62-.45,5.11-.11,7.53.98,2.15.98,3.98,2.68,5.19,4.7.77,1.28.26,2.85-.96,3.64-1.21.79-2.92.23-3.64-.96-.11-.21-.23-.4-.38-.6,0,0,0-.02-.02-.02-.02-.04-.06-.09-.06-.11-.3-.32-.62-.64-.94-.94-.09-.06-.19-.15-.28-.21-.02,0-.02-.02-.02-.02-.11-.09-.23-.15-.34-.23-.36-.21-.72-.43-1.11-.6-.06-.02-.13-.04-.15-.06-.19-.06-.4-.13-.6-.19-.32-.09-.68-.21-1.04-.26h-.04c-.11,0-.23-.02-.34-.02-.21-.02-.43-.02-.64-.02s-.4.02-.62.02c-.02.02-.06.02-.11.02h-.09c-1.45.23-2.75-.4-3.21-1.85-.21-.64-.06-1.49.28-2.04ZM94.52,664.68c-3.24,3.96-8.79,5.73-13.73,4.58-4.79-1.13-8.68-5.02-10.05-9.7-.4-1.38.49-2.89,1.85-3.28,1.4-.38,2.87.49,3.28,1.87.45,1.53,1.19,2.75,2.45,3.92.6.55.94.81,1.81,1.3.19.09.36.17.55.26.04.02.26.13.32.15.4.15.79.26,1.19.36,0,0,.38.06.49.09.11.02.47.06.51.06.49.02.96,0,1.45,0,.06-.02.17-.02.23-.02.26-.04.51-.09.77-.15.43-.09.85-.21,1.26-.36.53-.17,1.34-.62,2.06-1.09.09-.04.15-.09.19-.11,0-.02.04-.04.09-.09.19-.15.36-.32.55-.49.34-.32.66-.68.98-1.06.92-1.11,2.81-.94,3.75,0,1.09,1.09.92,2.66,0,3.77ZM108.86,658.36c-3.43,0-3.43-5.32,0-5.32s3.43,5.32,0,5.32Z"/>
      <path class="cls-8" d="M278.61,627.99c-2.98,27.41-19.05,52.8-42.86,66.83-12.37,7.28-26.5,11.58-40.82,12.32-3.49.17-6.98.15-10.45-.09-3-.19-6.87-.3-9.15-2.55-5.62-5.51,1.62-14.73,4.38-19.75,7.98-14.51,12.81-30.52,14.51-46.97,3.87,1.36,7.85,2.4,11.92,3.04,11.56,1.81,23.26.79,34.69-1.45,12.92-2.55,25.5-6.56,37.78-11.39Z"/>
      <path class="cls-1" d="M160.3,638.31c-2.6,2.79-5.28,5.62-8.73,7.34-2.96,1.49-6.79,1.96-9.56-.17-2.7-2.09-2.47-5.26-1.04-8.09,1.55-3.06,3.72-5.77,6.15-8.19,4,3.64,8.39,6.79,13.17,9.11Z"/>
      <path class="cls-1" d="M133.63,613.88c-6,4.13-14.81,5.66-19.77-.89-2.21-2.89-2.47-6.49-.83-9.73,1.96-3.85,5.45-6.47,8.87-8.96,3.38,6.83,7.24,13.43,11.73,19.58Z"/>
      <path class="cls-1" d="M112.93,573.51c-3.55,1.7-7.47,2.62-11.45,2.51-3.21-.11-7.02-1.34-6.02-5.3.96-3.83,3.98-7.32,6.73-10.05,2-1.98,4.24-3.66,6.62-5.11v.28c-.08,6.07,1.96,11.9,4.07,17.49.02.06.04.11.06.17Z"/>
      <path class="cls-7" d="M185.48,634.04c-7.02,3.96-15.98,2.98-23.13-.64-8.58-4.32-15.66-11.49-21.62-18.9-6-7.49-10.85-15.88-15.03-24.5-4.34-8.96-8.92-18.71-11-28.48-1.21-5.7-.4-11.15,2.66-16.11,1.92-3.09,4.38-5.77,6.98-8.3.89,14.83,5.75,29.73,11.81,42.86,8.77,19.01,22.13,36.41,39.52,48.29,3.13,2.13,6.43,4.06,9.81,5.77Z"/>
      <path class="cls-3" d="M266.86,626.67c-5.41,1.87-10.9,3.58-16.43,5.04-10.66,2.79-21.62,4.85-32.67,4.75-11.11-.11-21.73-2.79-31.52-8-17.64-9.39-31.52-25.16-41.12-42.48-9.75-17.6-16.94-38.95-15.39-59.29.13-1.81.4-3.6.7-5.36l.64-3.09c4.13-17.22,16.49-31.16,31.33-40.86,2.53,3.17,5.21,6.19,8.02,9.09,4.38,25.58,10.05,51.46,22.35,74.55,10.56,19.77,25.88,37.33,44.27,50.16,9.21,6.43,19.28,11.56,29.82,15.49Z"/>
      <path class="cls-8" d="M159.13,473.16c-15.03,9.92-27.97,24.05-32.73,41.71-4.49-2.64-9.3-4.72-14.26-6.34-4.96-1.6-10.09-2.77-15.24-3.58-6.15-.98-12.34-1.57-18.54-1.96-5.58-.36-12.64-.04-15.88-5.53-6.34-10.83,5.34-21.67,13.07-27.65,9.28-7.19,19.96-12.56,31.22-15.86,12.62-3.72,25.99-4.89,39.03-3.17,3.66,7.96,8.15,15.41,13.32,22.37Z"/>
      <path class="cls-8" d="M453.25,459.48c-2.19,13.28-6.87,26.33-13.07,38.24-3.55,6.85-7.64,13.32-12.15,19.49-29.26-16.96-51.65-44.42-61.91-76.74-2.89-9.09-4.79-18.45-5.75-27.92,12.79-1.38,25.75-1.53,38.54-.21,8.02.81,16,2.28,23.79,4.34,6.19,1.66,12.32,3.72,17.79,7.13,5.55,3.47,9.94,8.43,11.96,14.73,2.17,6.73,1.94,14.05.79,20.94Z"/>
      <path class="cls-6" d="M424.82,521.49c-1.98,2.53-4.02,5.04-6.13,7.49-34.46-14.75-56.78-48.33-66.53-83.45-2.81-10.15-4.72-20.5-6.04-30.94,1.57-.28,3.13-.55,4.7-.79,1.43-.23,2.85-.43,4.3-.62,3.72,35.63,20.71,69.1,47.84,92.69,6.77,5.9,14.11,11.09,21.86,15.62Z"/>
      <path class="cls-8" d="M330.54,529.84c-1.45,5.58-4.66,9.7-8.51,13.85-3.45,3.72-6.87,6.83-11.45,9.11-8.85,4.36-19.81,5.85-29.45,3.7-10.73-2.4-19.98-9.94-24.67-19.84,3.34.92,6.7,1.66,10.11,2.21,11.94,1.94,24.45.79,35.09-5.26,5.24-2.96,9.85-7,13.75-11.58,3.98-4.64,7.24-9.88,7.11-16.22-.06-3.66-1.3-7.66-3.79-10.43-2.04-2.26-4.98-3.17-7.87-3.72-3.77-.7-7.15-1.28-10.47-3.38-1.83-1.17-3.47-2.55-5.02-4.06,10.36-.72,21.71,5,28.24,12.71,3.85,4.55,7.09,10.56,7.98,16.47.83,5.36.3,11.19-1.04,16.43Z"/>
      <path class="cls-6" d="M343.18,531.97c-1.96,8.17-6.62,14.05-12.22,20.07-4.98,5.38-10.26,9.6-17.05,12.51-13.09,5.58-29.01,6.87-42.48,2-15.3-5.55-27.01-19.22-30.31-35.07,2.98,1.17,5.96,2.28,8.98,3.28v.02c0,.3.06.62.19.96,4.47,11.54,13.75,20.77,25.52,24.79,10.98,3.77,23.84,2.62,34.46-1.79,5.02-2.11,9.66-5.02,13.41-9,4.51-4.81,8.98-9.58,11.19-15.92,2.04-5.79,2.68-12.39,2.23-18.49-.51-6.94-3.4-13.37-7.36-19.03-8.26-11.79-24.43-19.67-38.76-16.81-.04,0-.09.02-.13.04-1.53-1.66-3.02-3.34-4.47-5.04,15.24-6.17,32.9.62,44.33,11.73,5.9,5.72,10.92,13.96,13.05,21.92,2,7.53,1.21,16.32-.6,23.84Z"/>
      <path class="cls-5" d="M278.38,473.18c-21.9,8.07-37.9,27.48-41.97,50.5-.66-.3-1.34-.6-2-.89-.91-.4-1.81-.81-2.7-1.23.09-.26.17-.53.19-.85,1.72-24.54,18.22-46.16,41.8-53.46,1.51,1.98,3.07,3.96,4.66,5.92l.02.02Z"/>
      <path class="cls-3" d="M315.64,512.64c-2.49,5.11-7.32,9.77-11.79,13.17-9.15,6.98-20.54,9.43-31.88,8.43-10.45-.92-20.79-4.34-30.58-8.43,0-.06.02-.11.04-.17,3.72-22.2,19.01-41.08,40.56-48.12,4.06,4.83,8.3,9.77,13.3,13.64,2.34,1.81,4.87,3.3,7.68,4.28,2.77.94,5.72,1.04,8.53,1.83,6.53,1.79,6.62,10.26,4.13,15.37Z"/>
      <path class="cls-5" d="M414.99,533.16c-8.13,8.92-17,17.2-26.2,25.01-23.84,20.26-50.57,36.27-78.83,49.55-.23.11-.43.23-.6.36-11.34,5.77-22.92,11.19-34.82,15.77-.21-.13-.45-.26-.72-.36-21.28-6.96-40.29-19.2-55.46-35.67-16.13-17.54-26.96-38.59-33.67-61.36-3.26-11.05-5.66-22.3-7.73-33.61,4.58,4.21,9.41,8.13,14.45,11.77,11.05,7.96,22.99,14.62,35.29,20.45,3.06,1.45,6.17,2.89,9.32,4.26-.32.51-.47,1.15-.36,1.89,2.77,16.32,13.98,30.77,28.77,38.07,14.66,7.21,32.5,7,47.72,1.6,7.43-2.62,14.56-6.58,20.03-12.32,6.02-6.32,12.05-12.71,14.96-21.11,2.85-8.22,3.68-17.75,2.58-26.35-1.15-9.24-6.28-17.96-12-25.11-6.34-7.96-15.81-13.47-25.28-16.9-9.73-3.53-20.24-3.09-29.6,1.17l-.02-.02c-6.77-8.28-12.94-17-18.49-26.13,12.11-6.3,24.58-12.05,37.35-16.92,12.77-4.85,25.88-8.83,39.27-11.58,5.02,38.86,19.26,77.11,50.35,102.6,7.28,5.98,15.17,11.02,23.71,14.94Z"/>
      <path class="cls-7" d="M255.9,440.37c4.41,7.7,9.22,15.17,14.43,22.37,0,.02.02.02.02.04-24.41,8.39-41.22,30.8-43.61,56.42h-.02c-9.02-4.34-17.81-9.24-26.18-14.73-19.94-13.11-36.58-30.2-47.69-51.4-5.26-10.05-8.85-20.9-10.39-32.14-1.55-11.51-1-23.2.85-34.65.85.79,1.74,1.57,2.66,2.32,17.03,13.81,39.2,23.16,60.87,26.2,19.49,2.75,39.5,1.83,58.95-.74,10.11-1.36,20.2-3.19,30.05-5.92,6.36-1.75,12.9-3.81,18.75-7,.02,0,.02-.02.04-.02.15.17.26.32.45.47.06.04.15.11.17.13.15.11.32.23.47.38.32.26.64.51.96.77.6.51,1.17,1.02,1.74,1.53,1.19,1.09,2.34,2.19,3.43,3.36,1.09,1.13,2.11,2.3,3.09,3.51.26.3.49.6.72.92.06.04.11.13.15.17.13.17.26.34.38.51.15.21.32.45.47.66-19.35,5.15-38.1,12.62-56.08,21.43-3.02,1.47-6.02,3.02-9,4.58-.38-.62-.72-1.23-1.09-1.85-1.7-2.98-6.3-.3-4.6,2.68Z"/>
      <path class="cls-5" d="M401.35,348.64c-.7,5.98-5.66,10.88-11.11,12.94-13.15,4.96-25.71-3.94-34.22-13.49,3.21-.02,6.41-.47,9.39-1.47,11.41-3.85,19.39-15.86,18.07-27.82.23,0,.47-.02.7-.09.51-.15,1.02-.26,1.55-.34.11-.02.38-.06.43-.06.26-.02.49-.02.75-.04.34,0,.66.02,1,.04.06,0,.3.02.4.02.45.09.87.17,1.32.3.28.09.53.17.81.28.06.04.28.13.36.17.38.19.75.45,1.11.68t.06.04c.09.06.17.13.26.21.15.15.32.3.47.45.15.15.3.32.45.47q.04.06.06.09s.04.06.11.15c.28.4.49.81.7,1.21t.04.09s.02.04.02.09c.09.23.17.47.23.72.04.17.09.36.11.55.02.06.02.19.02.32.02.21.02.43,0,.64,0,.09,0,.19-.02.28-.09.45-.21.85-.32,1.28-.02.04-.02.06-.02.09-.02.02-.02.04-.04.06-.13.21-.23.45-.36.66-.04.06-.26.36-.28.38-.09.11-.17.21-.28.32-.09.11-.21.21-.32.3-.11.04-.38.26-.45.32-1.17.74-1.74,2.4-.96,3.64.28.43.64.74,1.06.98-.04.83.34,1.64,1.38,2.09,5.21,2.28,8.17,7.85,7.51,13.47Z"/>
      <path class="cls-6" d="M377.94,325.35c-1.23,5.79-4.9,11.07-9.94,14.2-6.92,4.28-15.58,3.77-23.05,1.34-3.85-1.26-7.28-3.38-10.58-5.73-2.92-2.04-5.75-4.26-8.68-6.19-.38-7.11-.94-14.24-1.64-21.3-.02-.32-.06-.62-.09-.94-.91-9.17-2.02-18.37-3.94-27.39-.7-3.34-5.83-1.94-5.13,1.4,1.75,8.28,2.94,16.73,3.79,25.2.85,8.43,1.36,16.86,1.75,25.24.26,5.64.51,11.36.6,17.09.23,11.58-.13,23.24-2.06,34.5-.53,3.04-1.15,6.17-2.34,9.05-.21.55-.79,1.72-1.34,2.47-.3.43-.45.66-1.26,1.02-.21.11-.38.21-.53.34-.04.02-.06.02-.09.04,0,.02-.02.02-.02.02-5.13,3.04-10.9,4.96-16.6,6.64-7.98,2.34-16.15,4.04-24.35,5.38-18.58,3.02-37.73,4.28-56.53,2.77-21.26-1.75-41.59-9.17-59.4-20.84-4.19-2.72-8.58-5.9-12.05-9.75-1.6-1.75-2.98-3.64-4.07-5.68-1.06-1.98-1.83-4.11-2.23-6.41-1.49-8.73.28-18.66,2.34-27.16,5.36-21.9,8.51-44.69,16.15-65.98v-.02c1.89,1.28,3.79,2.55,5.75,3.75,2.94,1.79,5.62-2.81,2.68-4.6-7.32-4.47-14.15-9.64-20.62-15.24-7.92-6.9-15.28-14.43-22.37-22.16-2.83-3.06-5.58-6.19-8.34-9.32-2.87-3.23-5.75-6.47-8.68-9.64-2.6-2.83-5.24-5.66-7.58-8.73-1.98-2.6-4.15-5.55-4.81-8.81-1.79-8.64,4.13-17.58,10.45-22.86,3.53-2.94,7.96-5.28,12.64-5.36,4.72-.09,8.96,2.26,12.79,4.77,14.54,9.51,28.77,19.37,43.54,28.52,15.96,9.88,32.09,19.47,48.48,28.65,8.45,12.22,22.79,21.37,37.54,23.16,8.11,1,15.86-.72,22.26-5.96,5.13-4.17,8.7-10.07,10.64-16.37.43.4,1.02.66,1.81.62,5.21-.36,11.39.79,16.05,3.21,5.28,2.77,9.9,7.58,14.17,11.62,4.75,4.47,9.3,9.15,13.88,13.79,4.58,4.66,9.32,9.17,13.6,14.11,3.68,4.26,6.92,8.87,10.22,13.43,3.85,5.34,8.19,10.32,11.96,15.71,3.83,5.43,6.64,11.64,5.21,18.39Z"/>
      <path class="cls-3" d="M147.15,249.82c-.32,3.36-1.32,6.28-2.68,8.77-7.92-6.9-15.28-14.43-22.37-22.16-2.83-3.06-5.58-6.19-8.34-9.32,3.04-.81,8.17-1.45,15,.19,11.6,2.77,19.75,8.3,18.39,22.52Z"/>
      <path class="cls-3" d="M336.16,328.23c-.26,2.58-.89,4.87-1.79,6.94-2.92-2.04-5.75-4.26-8.68-6.19-.38-7.11-.94-14.24-1.64-21.3,8.11,3.26,13.22,9.09,12.11,20.56Z"/>
      <path class="cls-10" d="M94.52,664.68c-3.24,3.96-8.79,5.73-13.73,4.58-4.79-1.13-8.68-5.02-10.05-9.7-.4-1.38.49-2.89,1.85-3.28,1.4-.38,2.87.49,3.28,1.87.45,1.53,1.19,2.75,2.45,3.92.6.55.94.81,1.81,1.3.19.09.36.17.55.26.04.02.26.13.32.15.4.15.79.26,1.19.36,0,0,.38.06.49.09.11.02.47.06.51.06.49.02.96,0,1.45,0,.06-.02.17-.02.23-.02.26-.04.51-.09.77-.15.43-.09.85-.21,1.26-.36.53-.17,1.34-.62,2.06-1.09.09-.04.15-.09.19-.11,0-.02.04-.04.09-.09.19-.15.36-.32.55-.49.34-.32.66-.68.98-1.06.92-1.11,2.81-.94,3.75,0,1.09,1.09.92,2.66,0,3.77Z"/>
      <path class="cls-10" d="M108.86,658.36c-3.43,0-3.43-5.32,0-5.32s3.43,5.32,0,5.32Z"/>
      <path class="cls-10" d="M90.17,606.8c-1.21.79-2.92.23-3.64-.96-.11-.21-.23-.4-.38-.6,0,0,0-.02-.02-.02-.02-.04-.06-.09-.06-.11-.3-.32-.62-.64-.94-.94-.09-.06-.19-.15-.28-.21-.02,0-.02-.02-.02-.02-.11-.09-.23-.15-.34-.23-.36-.21-.72-.43-1.11-.6-.06-.02-.13-.04-.15-.06-.19-.06-.4-.13-.6-.19-.32-.09-.68-.21-1.04-.26h-.04c-.11,0-.23-.02-.34-.02-.21-.02-.43-.02-.64-.02s-.4.02-.62.02c-.02.02-.06.02-.11.02h-.09c-1.45.23-2.75-.4-3.21-1.85-.21-.64-.06-1.49.28-2.04.3-.53.96-1.13,1.58-1.23,2.62-.45,5.11-.11,7.53.98,2.15.98,3.98,2.68,5.19,4.7.77,1.28.26,2.85-.96,3.64Z"/>
      <path class="cls-10" d="M55.91,608.22c-3.43,0-3.43-5.32,0-5.32s3.43,5.32,0,5.32Z"/>
      <path class="cls-10" d="M49.57,641.76c-.7,1.3-2.43,1.62-3.64.96-2.89-1.55-5.15-4.47-5.79-7.7-.72-3.66.3-7.3,2.72-10.13.96-1.13,2.77-.92,3.75,0,1.13,1.02.92,2.7,0,3.77-.04.06-.06.09-.08.11-.11.13-.19.26-.28.38-.15.26-.3.49-.43.74-.04.09-.09.17-.13.28-.02.04-.04.11-.06.19-.11.28-.19.53-.26.83-.04.17-.09.34-.11.51-.02.06-.02.09-.04.11-.04.23-.02.51-.02.7,0,.32.02.62.04.94.02.13.04.26.06.36.06.3.15.6.26.89,0,.04.04.21.09.3.02.02.04.04.06.11.13.23.26.47.4.7.06.13.13.23.21.36.02.04.06.09.09.11.34.43.7.83,1.13,1.17.02.02.11.09.17.15.04.02.09.04.11.06.26.17.51.32.79.47,1.3.7,1.6,2.4.96,3.64Z"/>
      <path class="cls-5" d="M287.02,229.88c-.26.28-.4.62-.51,1.02-1.51,6.26-4.79,12.15-9.87,16.17-5.6,4.45-12.54,5.43-19.45,4.26-12.13-2.02-24.11-9.56-31.41-19.58,8.58-6.79,19.73-9,30.5-8.62,6.21.23,12.34,1.28,18.39,2.62,4.13.92,8.83,1.66,12.37,4.13Z"/>
      <path class="cls-4" d="M289.38,232.05c-.7-.85-1.49-1.55-2.36-2.17-3.53-2.47-8.24-3.21-12.37-4.13-6.04-1.34-12.17-2.38-18.39-2.62-10.77-.38-21.92,1.83-30.5,8.62-.34.23-.66.51-.98.79-2.09,1.79-5.11-1.21-3.02-3,.32-.28.64-.53.98-.79,9.43-7.56,21.58-10.3,33.52-9.88,7.09.28,14.11,1.53,21.01,3.11,5.45,1.26,11.36,2.55,15.11,7.07.19.23.32.47.4.72.7,1.96-1.85,4.15-3.41,2.28Z"/>
      <path class="cls-3" d="M291.57,325.49c0,21.29-17.26,38.55-38.55,38.55s-38.55-17.26-38.55-38.55,17.26-38.55,38.55-38.55c25.35,0,38.55,17.26,38.55,38.55Z"/>
    </g>
    <g>
      <g>
        <path class="cls-10" d="M376.96,117.67c1.27-9.56-4.12-18.98-12.91-22.24,2.34-2.3,4.3-4.94,5.58-8.01,1.87-4.52,1.91-9.93-.52-14.25-4.33-7.68-12.84-9.93-21.06-10.49,5.55-11.44,4.61-25.73-6.04-34.09-11.71-9.19-26.27-3.34-37.71,3.51-.75-8.84-7.27-16.36-16.58-17.98-8.45-1.47-16.41,2.34-21.31,8.78-2.75-11.28-10.95-20.76-23.23-22.63-7.25-1.12-14.54,1.18-19.89,6.2-4.63,4.35-7.63,10-10.2,15.75-11.32-6.87-27.61-6.4-37.09,3.46-5.27,5.47-6.81,13.1-4.29,20.25,1.22,3.48,3.29,6.45,5.86,8.89-9.76.02-19.21,4.36-25.55,12.28-4.05,5.06-7.08,12.1-5.16,18.6,1.39,4.62,4.63,8.08,8.26,11.03-7.08,4.02-11.68,11.68-11.33,20.07.3,6.92,2.65,15.02,8.08,19.71-3.67,2.1-6.4,5.94-7.53,10.27-.95,3.76-1.23,7.99.58,11.54,1.61,3.22,4.88,5.4,8.34,6.19,3.87.89,7.72.32,11.52-.58.07,14.65,4.35,29.16,12.71,41.45,11.72,17.18,29.68,28.1,49.9,32.24,10.75,2.21,21.71,2.83,32.67,2.77,11-.06,22.09-.47,33.07-1.38,10.3-.86,20.76-2.68,29.98-7.56,8.65-4.58,15.67-11.76,20.77-20.05,7.79-12.68,10.83-26.86,11.8-41.34.41.38.94.65,1.67.69,6.16.36,12.21-3.51,14.18-9.43,2.01-6.03-.31-13.02-5.77-16.35-3.01-1.85-6.53-2.51-10-1.96-.03-.66-.06-1.32-.08-1.99,10.66-3.61,19.7-11.75,21.25-23.37ZM356.82,148.21c4.82-.8,9.82,2.82,10.14,7.95.32,5.35-4.15,9.58-9.29,9.27-.72-.04-1.29.19-1.73.52.26-5.91.2-11.86.04-17.75.27.04.57.07.85,0ZM167.36,143.95c-1.26,4.75-2.04,9.59-2.35,14.45-3.35.9-6.99,1.83-10.39.99-3.11-.79-5.36-2.85-5.65-6.17-.29-3.32.75-6.99,2.7-9.66,1.64-2.25,4.65-3.96,7.5-3.4,1.67,1.05,3.65,1.78,5.49,2.45.9.35,1.86.68,2.82.99-.05.13-.1.23-.13.36ZM343.37,201.08c-3.69,8.26-9.1,15.89-16.27,21.51-7.77,6.07-17.33,8.92-26.98,10.33-10.16,1.47-20.55,1.69-30.8,2-10.29.33-20.63.32-30.88-.88-19.7-2.27-38.27-9.86-51.46-25.06-15-17.26-20.44-41.26-14.58-63.34.11-.4.13-.8.06-1.15,3.06-.15,5.42-2.84,7-5.26,2.26-3.44,3.62-7.33,4.29-11.36.52-3.21.44-6.54-.17-9.75,5.18.43,10.56-1.34,14.12-5.15,1.9-2.03,3.21-4.45,3.97-7.01,5.27,3.72,12.1,5.2,18.38,3.33,5.29-1.56,9.81-5.2,12.57-9.9,4.2,5.79,10.21,10.05,17.69,11.27,8.47,1.36,17.25-2.44,21.75-9.53,2.87,8.36,10.61,14.84,19.56,15.59,7.23.61,14.24-2.67,18.88-8.04,1.18,5.76,3.61,11.15,8.3,15.08,5.05,4.22,11.96,5.43,17.79,2.89,1.01,3.72,2.95,7.2,5.63,9.96,1.49,1.53,3.19,2.9,5.05,3.94.97.54,2.07,1.12,3.18,1.43.83,19.91,1.18,40.56-7.08,59.1ZM354.23,135.95c-1.16-.68-2.76-.56-3.52.45-.19-.1-.35-.19-.52-.28-.35-.19-.7-.4-1.03-.63-.7-.44-1.33-.93-1.97-1.45-.08-.07-.18-.16-.22-.2-.16-.14-.32-.29-.49-.45-.3-.31-.63-.63-.91-.97-.3-.32-.58-.67-.86-1.01-.12-.16-.22-.29-.34-.44-.02-.04-.18-.24-.26-.36-.06-.11-.2-.31-.24-.35-.1-.15-.2-.31-.29-.48-.21-.37-.43-.75-.64-1.14-.19-.39-.38-.81-.55-1.2-.1-.2-.17-.41-.27-.61-.02-.04-.07-.22-.11-.33-.23-.8-.49-1.58-.63-2.42-.07-.28-.18-.54-.34-.79.69-2.14-2.15-4.64-4.36-2.82-4.8,3.91-11.51,2.33-15.61-1.77-4.69-4.73-6.02-11.52-6.16-17.94-.05-2.92-4.11-3.93-5.17-.99-2.61,7.23-10.1,12.32-17.84,11.66-7.79-.64-14.17-7.09-15.5-14.62-.21-1.23-1.05-1.85-1.96-1.98-.4-2.47-4.33-3.39-5.13-.52-2.28,8.12-10.6,12.46-18.7,11.06-7.11-1.24-12.7-6.3-15.92-12.55-.05-.19-.17-.39-.29-.57-.54-1.12-1.01-2.27-1.39-3.44-1.06-3.21-6.28-2.13-5.2,1.12.42,1.32.92,2.61,1.51,3.86-1.69,4.79-5.5,8.86-10.44,10.34-5.53,1.66-11.8.18-15.94-3.86-.2-.18-.41-.32-.62-.44-.13-1.93-.53-3.84-1.29-5.68-.55-1.33-2.38-1.77-3.58-1.16-1.36.71-1.7,2.25-1.16,3.58,1.67,4.06.78,9.46-2.38,12.68-3.32,3.4-8.26,4.51-12.6,3.08-.67-.23-1.29-.18-1.81.05,0,0-.02,0-.04,0-1.27.27-2.49,1.78-2.03,3.17,1.34,4.02,1.7,8.28.89,12.45-.72,3.73-2.36,8.14-5.32,10.68-.22.2-.49.36-.75.53-.32-.02-.64-.06-.98-.1-.13-.03-.38-.08-.4-.09-.38-.11-.74-.19-1.09-.29-.67-.19-1.34-.39-2.01-.62-1.32-.46-2.63-.95-3.92-1.52-.31-.15-.64-.29-.96-.41-.06-.05-.17-.09-.25-.14-.29-.14-.58-.31-.87-.47-.18-.16-.37-.25-.6-.33-.42-.19-.82-.28-1.18-.26-.27-.04-.55-.07-.8-.09-.26-.23-.55-.44-.93-.56-6.39-2.42-8.86-11.06-9.16-17.21-.37-7.63,4.31-14.9,11.77-17.13,2.21-.67,2.81-3.43.9-4.83-3.77-2.74-8.18-5.88-9.7-10.53-1.75-5.38,1.47-11.24,4.93-15.23,7.42-8.52,19.28-11.39,29.88-7.67,1.86.66,3.22-.76,3.41-2.26.5-1.29.16-2.95-1.49-3.62-5.46-2.22-10.5-6.35-12.29-12.16-1.85-5.92.03-11.72,4.76-15.62,8.95-7.39,22.56-6.46,31.46.38,1.47,1.13,3.36.1,4-1.36,4.69-10.93,11.53-23.24,25.33-21.59,13.03,1.52,20.34,14.31,20.05,26.51-.08,3.36,5.08,3.69,5.31.42.09-.17.17-.35.24-.56,2.54-7.83,9.69-13.47,18.13-12.65,8.25.81,14.79,8.59,13.12,16.96-.38,1.96,1.56,4.65,3.75,3.21,9.77-6.37,23.69-14.86,35.14-7.24,10.51,6.99,10.07,21.27,3.93,30.97-.16.25-.26.5-.32.75-.87,1.55-.26,3.95,2.04,3.97,7.16.05,16.4.56,20.65,7.38,4.55,7.26-1.46,14.99-7.16,19.3-1.15.85-1.11,2.73-.21,3.74.32.36.69.57,1.07.7.38.38.9.65,1.58.73,8.79,1.06,13.59,10.21,12.12,18.38-1.59,8.86-9.06,15.19-17.31,17.89Z"/>
        <path class="cls-10" d="M371.54,118.05c-1.59,8.86-9.06,15.19-17.31,17.89-1.16-.68-2.76-.56-3.52.45-.19-.1-.35-.19-.52-.28-.35-.19-.7-.4-1.03-.63-.7-.44-1.33-.93-1.97-1.45-.08-.07-.18-.16-.22-.2-.16-.14-.32-.29-.49-.45-.3-.31-.63-.63-.91-.97-.3-.32-.58-.67-.86-1.01-.12-.16-.22-.29-.34-.44-.02-.04-.18-.24-.26-.36-.06-.11-.2-.31-.24-.35-.1-.15-.2-.31-.29-.48-.21-.37-.43-.75-.64-1.14-.19-.39-.38-.81-.55-1.2-.1-.2-.17-.41-.27-.61-.02-.04-.07-.22-.11-.33-.23-.8-.49-1.58-.63-2.42-.07-.28-.18-.54-.34-.79.69-2.14-2.15-4.64-4.36-2.82-4.8,3.91-11.51,2.33-15.61-1.77-4.69-4.73-6.02-11.52-6.16-17.94-.05-2.92-4.11-3.93-5.17-.99-2.61,7.23-10.1,12.32-17.84,11.66-7.79-.64-14.17-7.09-15.5-14.62-.21-1.23-1.05-1.85-1.96-1.98-.4-2.47-4.33-3.39-5.13-.52-2.28,8.12-10.6,12.46-18.7,11.06-7.11-1.24-12.7-6.3-15.92-12.55-.05-.19-.17-.39-.29-.57-.54-1.12-1.01-2.27-1.39-3.44-1.06-3.21-6.28-2.13-5.2,1.12.42,1.32.92,2.61,1.51,3.86-1.69,4.79-5.5,8.86-10.44,10.34-5.53,1.66-11.8.18-15.94-3.86-.2-.18-.41-.32-.62-.44-.13-1.93-.53-3.84-1.29-5.68-.55-1.33-2.38-1.77-3.58-1.16-1.36.71-1.7,2.25-1.16,3.58,1.67,4.06.78,9.46-2.38,12.68-3.32,3.4-8.26,4.51-12.6,3.08-.67-.23-1.29-.18-1.81.05,0,0-.02,0-.04,0-1.27.27-2.49,1.78-2.03,3.17,1.34,4.02,1.7,8.28.89,12.45-.72,3.73-2.36,8.14-5.32,10.68-.22.2-.49.36-.75.53-.32-.02-.64-.06-.98-.1-.13-.03-.38-.08-.4-.09-.38-.11-.74-.19-1.09-.29-.67-.19-1.34-.39-2.01-.62-1.32-.46-2.63-.95-3.92-1.52-.31-.15-.64-.29-.96-.41-.06-.05-.17-.09-.25-.14-.29-.14-.58-.31-.87-.47-.18-.16-.37-.25-.6-.33-.42-.19-.82-.28-1.18-.26-.27-.04-.55-.07-.8-.09-.26-.23-.55-.44-.93-.56-6.39-2.42-8.86-11.06-9.16-17.21-.37-7.63,4.31-14.9,11.77-17.13,2.21-.67,2.81-3.43.9-4.83-3.77-2.74-8.18-5.88-9.7-10.53-1.75-5.38,1.47-11.24,4.93-15.23,7.42-8.52,19.28-11.39,29.88-7.67,1.86.66,3.22-.76,3.41-2.26.5-1.29.16-2.95-1.49-3.62-5.46-2.22-10.5-6.35-12.29-12.16-1.85-5.92.03-11.72,4.76-15.62,8.95-7.39,22.56-6.46,31.46.38,1.47,1.13,3.36.1,4-1.36,4.69-10.93,11.53-23.24,25.33-21.59,13.03,1.52,20.34,14.31,20.05,26.51-.08,3.36,5.08,3.69,5.31.42.09-.17.17-.35.24-.56,2.54-7.83,9.69-13.47,18.13-12.65,8.25.81,14.79,8.59,13.12,16.96-.38,1.96,1.56,4.65,3.75,3.21,9.77-6.37,23.69-14.86,35.14-7.24,10.51,6.99,10.07,21.27,3.93,30.97-.16.25-.26.5-.32.75-.87,1.55-.26,3.95,2.04,3.97,7.16.05,16.4.56,20.65,7.38,4.55,7.26-1.46,14.99-7.16,19.3-1.15.85-1.11,2.73-.21,3.74.32.36.69.57,1.07.7.38.38.9.65,1.58.73,8.79,1.06,13.59,10.21,12.12,18.38Z"/>
        <path class="cls-5" d="M167.48,143.6c-.05.13-.1.23-.13.36-1.26,4.75-2.04,9.59-2.35,14.45-3.35.9-6.99,1.83-10.39.99-3.11-.79-5.36-2.85-5.65-6.17-.29-3.32.75-6.99,2.7-9.66,1.64-2.25,4.65-3.96,7.5-3.4,1.67,1.05,3.65,1.78,5.49,2.45.9.35,1.86.68,2.82.99Z"/>
        <path class="cls-5" d="M357.67,165.44c-.72-.04-1.29.19-1.73.52.26-5.91.2-11.86.04-17.75.27.04.57.07.85,0,4.82-.8,9.82,2.82,10.14,7.95.32,5.35-4.15,9.58-9.29,9.27Z"/>
        <path class="cls-5" d="M343.37,201.08c-3.69,8.26-9.1,15.89-16.27,21.51-7.77,6.07-17.33,8.92-26.98,10.33-10.16,1.47-20.55,1.69-30.8,2-10.29.33-20.63.32-30.88-.88-19.7-2.27-38.27-9.86-51.46-25.06-15-17.26-20.44-41.26-14.58-63.34.11-.4.13-.8.06-1.15,3.06-.15,5.42-2.84,7-5.26,2.26-3.44,3.62-7.33,4.29-11.36.52-3.21.44-6.54-.17-9.75,5.18.43,10.56-1.34,14.12-5.15,1.9-2.03,3.21-4.45,3.97-7.01,5.27,3.72,12.1,5.2,18.38,3.33,5.29-1.56,9.81-5.2,12.57-9.9,4.2,5.79,10.21,10.05,17.69,11.27,8.47,1.36,17.25-2.44,21.75-9.53,2.87,8.36,10.61,14.84,19.56,15.59,7.23.61,14.24-2.67,18.88-8.04,1.18,5.76,3.61,11.15,8.3,15.08,5.05,4.22,11.96,5.43,17.79,2.89,1.01,3.72,2.95,7.2,5.63,9.96,1.49,1.53,3.19,2.9,5.05,3.94.97.54,2.07,1.12,3.18,1.43.83,19.91,1.18,40.56-7.08,59.1Z"/>
      </g>
      <path class="cls-10" d="M325.16,152.45c-3.42.04-6.51,1.46-8.7,4.1-2.03,2.45-2.78,5.6-2.43,8.72.15,1.39,1.88,2.38,3.17,2.03,1.51-.4,2.2-1.68,2.03-3.17-.04-.32-.04-.33,0-.03,0-.12,0-.25,0-.37,0-.29.04-.58.06-.86,0-.07,0-.12,0-.15,0-.03.02-.07.04-.13.06-.24.12-.48.2-.72.08-.24.17-.47.26-.7.03-.07.05-.12.06-.15.02-.03.04-.06.08-.12.15-.25.29-.5.46-.74.04-.06.3-.4.33-.45.03-.03.04-.04.09-.09.11-.12.23-.24.35-.35.18-.17.37-.33.57-.48.05-.04.08-.07.11-.09.04-.02.09-.04.16-.08.23-.13.46-.25.69-.36.12-.06.25-.11.38-.16.02,0,.02,0,.07-.02.25-.07.5-.14.76-.19.26-.05.52-.09.78-.12.08,0,.39,0,.46,0,.26,0,.52.02.78.05.08,0,.41.07.46.07.21.05.42.11.62.17.17.05.33.11.49.18.26.12.32.14.17.06.8.35,1.38.87,1.94,1.54.04.05.22.28.27.34.14.21.27.42.38.64.14.26.25.52.37.79.03.06.04.09.06.12,0,.03.02.08.04.17.11.44.2.87.26,1.32,0,.11.02.35.02.42,0,.33-.03.66-.07.99-.16,1.38,1.14,2.79,2.51,2.8,1.52.02,2.63-1.03,2.8-2.51.77-6.47-4.54-12.53-11.08-12.46Z"/>
      <path class="cls-10" d="M212.99,147.97c-5.13-2.32-10.58,1.19-12.84,5.81-1.42,2.9-1.85,6.1-2.23,9.27-.16,1.38,1.14,2.79,2.51,2.8,1.52.02,2.63-1.03,2.8-2.51.31-2.61.56-5.38,1.79-7.48.29-.49.6-.97.96-1.4.08-.08.3-.31.31-.32.25-.24.51-.45.77-.67.08-.07.11-.1.12-.11.03-.01.06-.02.16-.08.26-.14.51-.29.78-.41.08-.04.16-.07.23-.1.04,0,.06-.02.17-.05.27-.06.53-.12.81-.16.15,0,.3,0,.45,0,.09,0,.36.06.44.06.25.07.49.15.73.24.06.04.38.19.41.21.26.16.52.35.76.54.06.06.3.29.33.33.21.22.41.46.6.7.05.07.1.14.16.21.01.02.05.08.13.21.69,1.25,1,2.03,1.32,3.42.32,1.37.51,2.76.69,4.16.19,1.42,1.84,2.32,3.17,2.03,1.5-.32,2.23-1.74,2.03-3.17-.72-5.35-2.18-11.09-7.56-13.53Z"/>
      <path class="cls-10" d="M293.91,190.7c-.35.6-.75,1.17-1.18,1.7-6.03,7.81-17.2,8.14-26.32,6.46-4.58-.85-9.48-2.48-12.1-6.65-.45-.3-.88-.62-1.29-1.01-2.04-1.75-3.39-4.32-3.46-7.16-.12-5.12,4.18-9.7,9.23-10.17,2.76-.25,5.31.76,7.69,2.11,2.17,1.25,4.18,3.02,6.64,3.71,4.24,1.19,6.88-3.46,10.16-5.3,4.09-2.31,8.78-.8,11.17,3.13,2.5,4.08,1.84,9.2-.53,13.19Z"/>
      <path class="cls-3" d="M292.73,192.4c-6.03,7.81-17.2,8.14-26.32,6.46-4.58-.85-9.48-2.48-12.1-6.65-.45-.3-.88-.62-1.29-1.01,4.82-3.15,15.19-8.46,26.69-5.44,6.79,1.78,10.72,4.32,13.02,6.64Z"/>
    </g>
  </g>
  <g>
    <g>
      <path class="cls-2" d="M391.41,406.42c-.08.52-.18,1.04-.28,1.55-.04.16-.02.32-.04.48-.52.16-1.06.32-1.57.46-3.51.86-7.03,1.69-10.54,2.55-6.21.04-12.43.42-18.6,1.1.12,1.1.24,2.19.38,3.29-1.71.42-3.45.84-5.16,1.25-.18-1.29-.34-2.59-.48-3.9-1.45.18-2.87.38-4.3.62-1.57.22-3.13.5-4.7.78.2,1.55.4,3.09.62,4.64-1.71.42-3.43.84-5.14,1.23-.24-1.61-.48-3.23-.68-4.84-13.38,2.73-26.49,6.71-39.27,11.57-5.64,2.15-11.19,4.46-16.71,6.95-6.75,1.61-13.52,3.25-20.27,4.88-.58.14-1.18.22-1.75.32-.2-.06-.4-.12-.6-.18-.38-.12-.76-.24-1.14-.34h-.02c-1.65-.46-3.29-.96-4.88-1.51-5.42-1.89-10.52-4.46-15.22-7.87-5.08-3.64-9.34-8.03-12.91-13.01-1.27-1.73-2.43-3.54-3.53-5.44-.06-.1-.12-.22-.18-.32-2.53-4.42-4.52-9.08-6.15-13.92-1.77-5.26-3.03-10.63-4.06-16.05-.7-3.76-1.2-7.57-1.61-11.37-.22-2.01-.72-3.98-1.61-5.82-1.79-3.62-4.76-5.68-9.58-4.82-2.31.42-4.32,1.51-6.11,3.01-2.05,1.71-3.58,3.82-4.74,6.21-.88,1.83-1.47,3.76-1.85,5.76-.32,1.57-.86,3.07-1.75,4.4-2.69,3.86-6.37,5.78-11.09,5.4-4.7-.4-8.05-2.93-10-7.19-.94-2.01-1.27-4.2-.88-6.41,2.11-11.47,7.37-21.09,16.89-28.1,4.48-3.31,9.44-5.58,14.9-6.59,10.36-1.91,19.78.16,27.88,7.17,3.64,3.17,6.31,7.07,8.3,11.45,2.09,4.58,3.15,9.42,3.7,14.4.7,6.37,1.89,12.67,3.72,18.8,1.49,5,3.49,9.78,6.37,14.16,2.31,3.51,5.1,6.47,8.38,8.82,1.53,1.14,3.21,2.13,4.98,2.97.4.2.8.36,1.19.52.24.08.42-.12.38-.38-.02-.1-.06-.2-.08-.32-.32-1.14-.6-2.27-.86-3.41-2.43-10.81-2.19-21.63.94-32.36,5.38-18.46,16.67-32.24,33.72-41.21,6.39-3.37,13.22-5.48,20.37-6.55.68-.1,1.04-.36,1.27-1.02.92-2.45,1.85-4.92,2.77-7.37.92-2.41,1.83-4.8,2.73-7.21.14-.42.28-.84.48-1.21.3-.58.82-.94,1.35-1.04.72-.16,1.51.12,1.99.9.46.74.78,1.55,1.14,2.35,1.99,4.44,4,8.88,5.97,13.32.28.64.62,1.06,1.39,1.14,2.51.28,4.96.84,7.41,1.43.66.16.7.14.92-.56,1.14-3.49,2.25-6.97,3.39-10.46l.36-1.08c.3-.9.9-1.37,1.81-1.43.94-.06,1.55.44,1.93,1.25.56,1.23,1.1,2.51,1.61,3.76,1.93,4.52,3.84,9.06,5.76,13.58.68,1.57.7,1.57,2.19,2.47,1.57.96,3.09,1.95,4.56,3.03,1.61,1.16,3.17,2.39,4.66,3.68,1.57,1.37,3.11,2.83,4.56,4.36,3.98,4.18,7.33,8.76,10.06,13.76.92,1.63,1.75,3.35,2.51,5.08.28.6.54,1.21.8,1.83,1.97,4.82,3.35,9.82,4.14,14.98,1.14,7.23,1.1,14.42-.16,21.61Z"/>
      <g>
        <path class="cls-5" d="M341.12,359.9c-3.78-1.65-8.21-.52-10.71,2.79-2.27,2.97-2.47,7.41-.38,9.98,5.38-.92,10.79-1.85,16.25-2.81.8-4.3-1.33-8.29-5.16-9.96ZM341.62,368.56c-1.71.42-3.45-.64-3.88-2.39-.44-1.75.58-3.47,2.33-3.9,1.73-.42,3.45.62,3.88,2.37.44,1.75-.6,3.49-2.33,3.92Z"/>
        <path class="cls-5" d="M356.39,385.9c.41-1.1.85-2.27,1.29-3.44.29-.77.6-1.53.85-2.31.25-.8-.2-1.25-1.05-1.11-.16.03-.32.07-.48.11-2.34.56-4.68,1.13-7.02,1.7-.42.1-.89.14-1.06.64-.2.59.23.91.59,1.24,1.13,1.03,2.27,2.05,3.4,3.09.24.22.45.47.72.76-.41,2.73-2.05,4.4-4.58,5.22-2.15.69-4.21.35-6.08-.99-.31-.22-.61-.47-.94-.65-.33-.18-.78-.04-1.04.25-.29.32-.35.71-.13,1.06.2.32.47.6.76.83,4.08,3.26,10.55,1.97,13.07-2.6.24-.43.44-.88.68-1.38.47.05.73.43,1.06.66,2.92,2.06,6.9,1.84,9.55-.55.74-.67,1.34-1.44,1.69-2.39.2-.55.03-1.01-.44-1.26-.42-.23-.89-.17-1.18.22-.26.35-.44.75-.69,1.11-2.15,3.05-6.75,2.99-8.98-.22Z"/>
        <path class="cls-5" d="M367.53,359.74c-1.79-2.89-5.34-4.46-8.96-3.41-.46.14-.9.3-1.29.52-2.65,1.29-4.4,4.02-4.4,7.05.02,1.12.28,2.17.68,3.19.28.68.5.8,1.27.66,1.25-.2,2.49-.42,3.72-.64,3.11-.56,6.23-1.1,9.34-1.65.16-.02.32-.1.64-.2.04-.2.08-.38.12-.56.28-1.81-.18-3.45-1.12-4.96ZM359.66,366.03c-1.75.42-3.49-.64-3.86-2.37-.4-1.73.7-3.43,2.47-3.8,1.65-.36,3.39.66,3.76,2.33.44,1.99-.82,3.55-2.37,3.84Z"/>
        <path d="M337.73,366.18c.43,1.74,2.17,2.8,3.89,2.38,1.73-.43,2.76-2.18,2.32-3.92-.44-1.75-2.15-2.79-3.89-2.36-1.74.43-2.76,2.15-2.32,3.91Z"/>
        <path d="M359.65,366.04c1.55-.31,2.82-1.87,2.37-3.86-.37-1.66-2.09-2.69-3.76-2.32-1.76.38-2.86,2.08-2.47,3.81.39,1.73,2.11,2.79,3.86,2.37Z"/>
      </g>
    </g>
    <path class="cls-9" d="M300.51,401.62s7.25,20.75,25.05,27.77"/>
  </g>
</svg>