<?xml version="1.0" encoding="UTF-8"?>
<svg id="Layer_1" data-name="Layer 1" xmlns="http://www.w3.org/2000/svg" viewBox="0 0 775.79 552.02">
  <defs>
    <style>
      .cls-1 {
        fill: #fff;
      }
    </style>
  </defs>
  <path d="M107.9,86.68c4.33-2.54,8.14-4.89,12.05-7.05,4.34-2.39,8.73-4.7,13.18-6.87,1.91-.93,2.94-2.09,3.33-4.24,2.14-11.63,4.45-23.23,6.65-34.85,1.69-8.95,3.3-17.92,4.96-26.88.14-.78.34-1.57.63-2.31,1.88-4.83,7.82-6.03,11.34-2.24.97,1.05,1.72,2.3,2.53,3.49,9.72,14.28,19.42,28.57,29.14,42.84.98,1.44,2.02,2.83,3.06,4.28,51.69-8.25,100.97-1.37,147.43,22.53,46.29,23.81,81.09,59.29,104.01,106.02,23,46.9,28.84,96.31,19.67,147.83,1.42.32,2.62.73,3.84.84,10.79.95,21.4.21,31.73-3.3,4.73-1.61,9.15-3.8,13.19-6.75,9.98-7.29,15.41-17.24,17.33-29.32,1.12-7.05.68-14.04-.27-21.03-2.27-16.56-2.58-33.14-.86-49.76,1.75-16.99,5.86-33.36,12.82-48.96,9.38-21.02,22.94-38.77,41.93-52.03,21.28-14.86,44.94-21.87,70.92-21.02,20.23.66,39.05,6.32,56.75,15.87,21.61,11.66,39.54,27.68,54.12,47.32,18.04,24.29,5.65,58.8-23.7,66.05-16.49,4.08-30.63-.71-42.16-13.14-1.52-1.64-2.82-3.48-4.25-5.2-5.44-6.56-11.54-12.42-18.65-17.16-5.9-3.94-12.2-6.99-19.23-8.35-12.54-2.43-23.08,1.09-31.49,10.72-5.15,5.9-8.27,12.9-10.35,20.36-1.86,6.64-2.89,13.43-3.13,20.34-.31,8.98.37,17.87,1.5,26.78,3.89,30.69-.49,60.01-15.87,87.15-15.8,27.89-39.37,46.68-69.35,57.57-15.31,5.56-31.18,8.25-47.44,8.73-15.59.46-30.98-1.09-46.2-4.46-.93-.2-1.88-.28-3.05-.44-.75,1-1.54,1.96-2.23,3-5.74,8.68-11.88,17.08-18.83,24.82-2.29,2.55-3.27,5.1-3.24,8.56.15,20.79.07,41.59.07,62.38,0,6.82-1.36,13.32-4.37,19.48-7.14,14.62-22.49,24.59-40.21,23.64-17.51-.93-32.23-12.23-37.83-28.63-.55-1.61-1.08-3.23-1.83-5.49-1.24,1.88-1.32,3.46-1.8,4.86-4.35,12.73-12.74,21.69-25.26,26.53-21.87,8.45-46.37-2.71-54.64-24.7-.45-1.2-.79-2.43-1.23-3.63-.29-.79-.8-1.51-1.73-1.28-.53.13-1.14.63-1.36,1.12-.53,1.16-.81,2.42-1.25,3.62-5.13,14.16-18.91,27.3-39.04,27.63-19.84.32-35.2-12.44-40.71-28.67-.54-1.59-1.05-3.19-1.71-5.2-1.51,1.6-1.46,3.3-1.94,4.72-3.26,9.61-9.06,17.24-17.65,22.61-26.54,16.58-60.04.11-64.35-29.39-.41-2.84-.6-5.73-.61-8.59-.06-16-.03-31.99-.03-47.99,0-1.75,0-3.51,0-5.34-1.25-1.32-2.44-2.59-3.66-3.83-33.65-34.06-55.12-74.58-64.34-121.54-3.65-18.6-4.95-37.42-3.87-56.34,2.94-51.25,20.5-96.9,52.92-136.75,1.99-2.44,3.19-4.99,3.7-8.11,2.39-14.83,4.94-29.64,7.45-44.45,1.87-11.03,3.77-22.06,5.68-33.08.16-.94.32-1.91.68-2.78,1.94-4.78,7.99-5.82,11.39-1.94.94,1.07,1.64,2.36,2.39,3.59,6.86,11.18,13.7,22.36,20.55,33.54.83,1.35,1.72,2.66,2.78,4.28ZM201.91,199.49c.28-16-12.87-31.63-31.79-31.65-17.76-.02-31.92,14.36-31.77,32.19.14,17.46,14.55,31.68,32.07,31.44,18.78-.26,31.88-15.74,31.49-31.98ZM114.47,204.55c.4-13.37-10.26-28.07-27.92-28.15-17.49-.08-28.16,14.42-28.17,27.95-.02,14.89,12.02,28.13,27.97,28.18,16.21.04,28.34-13.33,28.12-27.97ZM118.19,276.75c-3.32,12.5-21.8,17.14-31.6,7.29-.79-.79-1.47-1.7-2.31-2.42-1.04-.9-2.27-1.13-3.56-.48-1.24.63-2.07,1.62-1.94,3.03.08.91.34,1.97.9,2.62,1.45,1.68,2.96,3.39,4.73,4.7,10.86,8.08,27.24,6.16,36.06-4.13,1-1.17,1.95-2.38,3.04-3.7.86,1.11,1.53,2,2.22,2.87,12.12,15.23,36.48,15.24,48.6,0,.79-.99,1.52-2.07,2.06-3.21.69-1.47-.02-3.24-1.46-4.15-1.25-.78-2.87-.7-4,.32-.59.52-1.06,1.19-1.56,1.8-6.7,8.32-15.37,11.17-25.63,8.74-7.44-1.76-12.8-6.22-15.49-13.79.9-1.38,1.75-2.72,2.64-4.04,2.78-4.1,5.6-8.17,8.35-12.29.85-1.28,2.19-2.5,1.4-4.31-.9-2.05-2.78-1.83-4.53-1.83-8.63,0-17.26,0-25.89,0-.95,0-1.93.02-2.85.21-1.47.29-2.39,1.91-1.84,3.33.4,1.03.99,2,1.6,2.92,2.86,4.24,5.76,8.45,8.63,12.68.89,1.31,1.7,2.67,2.43,3.82Z"/>
  <path class="cls-1" d="M201.91,199.49c.38,16.23-12.71,31.72-31.49,31.98-17.52.24-31.93-13.98-32.07-31.44-.15-17.84,14.01-32.21,31.77-32.19,18.93.02,32.07,15.65,31.79,31.65ZM192.22,199.69c.02-10.75-8.34-19.21-19.08-19.3-10.7-.09-19.24,8.33-19.48,18.96-.2,9.17,6.88,19.62,19.38,19.57,12.58-.05,19.5-10.58,19.18-19.23Z"/>
  <path class="cls-1" d="M114.47,204.55c.21,14.64-11.92,28.02-28.12,27.97-15.95-.04-27.99-13.28-27.97-28.18.02-13.53,10.69-28.02,28.17-27.95,17.66.08,28.32,14.78,27.92,28.15ZM89.44,221.41c8.73.07,17.02-6.89,16.83-17.14-.21-11.73-9.97-17.01-17.19-16.85-9.39.2-16.97,7.82-16.87,17.21.1,9.42,7.76,16.88,17.23,16.79Z"/>
  <path class="cls-1" d="M118.19,276.75c-.73-1.16-1.54-2.52-2.43-3.82-2.87-4.23-5.77-8.44-8.63-12.68-.62-.92-1.21-1.89-1.6-2.92-.54-1.42.37-3.04,1.84-3.33.93-.19,1.9-.21,2.85-.21,8.63-.01,17.26-.01,25.89,0,1.75,0,3.63-.22,4.53,1.83.79,1.81-.55,3.03-1.4,4.31-2.75,4.12-5.57,8.19-8.35,12.29-.89,1.31-1.74,2.65-2.64,4.04,2.69,7.57,8.05,12.03,15.49,13.79,10.26,2.43,18.93-.41,25.63-8.74.5-.62.97-1.28,1.56-1.8,1.14-1.01,2.75-1.1,4-.32,1.44.9,2.15,2.67,1.46,4.15-.54,1.14-1.27,2.22-2.06,3.21-12.11,15.25-36.48,15.24-48.6,0-.69-.87-1.36-1.75-2.22-2.87-1.09,1.33-2.04,2.54-3.04,3.7-8.82,10.29-25.2,12.2-36.06,4.13-1.77-1.32-3.28-3.02-4.73-4.7-.57-.66-.82-1.72-.9-2.62-.13-1.41.7-2.4,1.94-3.03,1.29-.66,2.52-.42,3.56.48.84.73,1.52,1.63,2.31,2.42,9.8,9.84,28.28,5.21,31.6-7.29Z"/>
  <path d="M192.22,199.69c.31,8.65-6.6,19.18-19.18,19.23-12.5.05-19.58-10.4-19.38-19.57.24-10.63,8.78-19.05,19.48-18.96,10.74.09,19.1,8.55,19.08,19.3Z"/>
  <path d="M89.44,221.41c-9.47.09-17.13-7.37-17.23-16.79-.1-9.39,7.48-17.01,16.87-17.21,7.23-.16,16.99,5.13,17.19,16.85.18,10.26-8.1,17.22-16.83,17.14Z"/>
</svg>