<?xml version="1.0" encoding="UTF-8"?>
<svg id="Layer_1" data-name="Layer 1" xmlns="http://www.w3.org/2000/svg" viewBox="0 0 807.84 600.87">
  <defs>
    <style>
      .cls-1 {
        fill: #f89f1b;
      }

      .cls-2 {
        fill: #010101;
      }

      .cls-3 {
        fill: #f7ef79;
      }

      .cls-4 {
        fill: #fff;
      }

      .cls-5 {
        fill: none;
      }

      .cls-6 {
        fill: #606777;
      }

      .cls-7 {
        fill: #484f5f;
      }

      .cls-8 {
        fill: #ffc90f;
      }

      .cls-9 {
        fill: #2e3545;
      }
    </style>
  </defs>
  <g>
    <g>
      <path class="cls-2" d="M807.83,412.74c.58,39.52-13.31,73.31-40.9,101.49-13.24,13.53-28.57,24.24-45.11,33.31-19.2,10.54-39.5,18.44-60.4,24.81-21.76,6.64-43.92,11.53-66.32,15.37-17.43,2.99-34.92,5.38-52.5,7.1-15.26,1.51-30.55,2.6-45.83,3.63-27,1.82-54.05,2.06-81.11,2.41-101.28,1.36-189.61-65.64-215.23-163.66-6.11-23.39-8.19-47.18-6.29-71.33,3.61-45.79,20.03-86.41,48.97-122.01,1.79-2.19,2.81-4.52,3.26-7.26,2.13-12.79,4.29-25.6,6.44-38.39,1.86-11.02,3.71-22.05,5.59-33.05.21-1.24.49-2.5,1.01-3.63,1.82-3.92,6.89-4.85,9.96-1.77,1.11,1.13,1.94,2.58,2.8,3.96,6.13,9.98,12.25,19.97,18.38,29.97.93,1.51,1.92,2.99,3.11,4.79,4.41-2.52,8.58-4.99,12.81-7.32,4.25-2.35,8.58-4.54,13.14-6.93,1.16-5.73,2.41-11.53,3.49-17.35,2.62-13.82,5.16-27.66,7.74-41.46.23-1.24.47-2.52.97-3.65,1.77-4,6.74-5.05,9.9-2.04,1.16,1.11,2.04,2.52,2.93,3.86,8.83,12.97,17.64,25.95,26.45,38.93,1.01,1.48,2.08,2.91,3.24,4.52,59.18-8.93,114.01,2.15,163.04,36.84,48.95,34.65,79.19,81.91,89.46,141.01,10.25,59.02-2.48,113.51-36.26,163.29,1.09.1,1.63.27,2.14.17,24.82-4.77,49.26-10.93,72.65-20.71,9.67-4.04,19-8.75,27.77-14.48,6.37-4.15,12.32-8.81,17.72-14.17,14.58-14.54,19.95-32.1,17.64-52.35-1.53-13.39-5.61-26.05-10.89-38.35-4.77-11.12-10.5-21.76-16.79-32.06-4.06-6.64-6.37-13.74-6.25-21.52.37-23.99,20.05-39.23,38.88-39.05,14.27.14,25.74,5.82,33.31,17.82,15.55,24.67,27.99,50.81,35.34,79.19,3.4,13.14,5.53,26.49,5.73,40.06Z"/>
      <path class="cls-2" d="M587.16,216.43c-4.45-.05-6.95-3.9-5.32-7.26.54-1.11,1.4-2.09,2.25-3,12.33-13.14,24.69-26.26,37.05-39.38.74-.78,1.51-1.58,2.4-2.15,2.04-1.31,4.82-.91,6.46.78,1.76,1.82,2.04,4.23.6,6.43-.69,1.04-1.57,1.97-2.43,2.88-11.97,12.74-23.96,25.47-35.94,38.2-.74.79-1.44,1.67-2.32,2.25-1.01.66-2.22,1.03-2.75,1.26Z"/>
      <path class="cls-2" d="M664.39,229.05c-.02.68-.88,2.23-2.63,3.09-1.28.63-2.69,1.02-4.07,1.42-16.45,4.68-32.91,9.35-49.37,14.01-1.21.34-2.42.74-3.66.96-2.87.5-5.5-1.2-6.23-3.92-.64-2.4.71-4.97,3.31-6.09,1.15-.49,2.39-.79,3.6-1.14,16.46-4.66,32.92-9.33,49.38-13.96,1.55-.44,3.16-.87,4.75-.9,2.96-.05,5.03,2.29,4.91,6.54Z"/>
      <g>
        <path class="cls-4" d="M434.33,275.66c-17.93,1.18-36.02,2.39-54.25,3.59-5.86-13.22-2.13-27.62,8.81-35.93,10.87-8.25,25.87-7.98,36.51.64,9.59,7.78,13.64,21.84,8.93,31.7Z"/>
        <path class="cls-4" d="M360.09,338.43c-2.16-3.2-4.47-6.62-6.78-10.04-1.51-2.24-3.11-4.43-4.5-6.74-1.42-2.36-.33-4.15,2.5-4.37.54-.04,1.08-.03,1.62-.03,7.93,0,15.86,0,23.79,0,1.42,0,2.96-.24,3.9,1.25,1.1,1.75-.03,3.08-.93,4.42-2.82,4.18-5.69,8.34-8.5,12.52-.59.88-1.06,1.85-1.72,3.01,3.43,8.43,9.98,12.52,18.71,13.18,7.44.56,13.78-2.12,18.71-7.86.82-.95,1.58-1.97,2.51-2.8.91-.82,2.48-.72,3.53,0,1.17.81,1.66,2.01,1.24,3.3-.38,1.16-1.05,2.29-1.8,3.27-10.54,13.6-32.29,14.48-43.89,1.78-1.09-1.19-2.07-2.47-3.26-3.9-1.47.52-2.01,1.93-2.88,2.93-7.77,8.87-20.7,11.24-31.03,5.64-2.89-1.57-5.41-3.59-7.25-6.34-1.08-1.61-.87-3.21.42-4.38,1.18-1.06,2.72-1.22,3.93-.21,1.1.92,2,2.07,3.08,3.01,9.25,8.11,23.94,4.37,28.6-7.63Z"/>
        <path class="cls-4" d="M354.61,275.99c-.35,2.37-.97,2.91-3.57,3.11-4.13.31-8.25.54-12.38.8-10.42.64-20.83,1.3-31.25,1.94-.52.02-1.07-.08-2.15-.16-3.12-6.13-3.11-12.31-1.09-18.46,3.49-10.64,13.63-18.42,26.11-17.82,11.47.56,21.39,8.62,24.05,19.86.85,3.53.82,7.14.29,10.73Z"/>
        <path class="cls-2" d="M412.96,257.08c-.06,9.51-7.68,17.13-17.07,17.06-9.42-.07-16.9-7.77-16.83-17.32.07-9.57,7.6-17.04,17.09-16.97,9.5.07,16.87,7.62,16.81,17.23Z"/>
        <path class="cls-2" d="M322.53,275.2c-7.7.33-15.45-5.61-15.61-15.55-.14-8.28,6.83-15.09,15.14-15.27,8.76-.19,15.88,6.56,16.02,15.2.14,8.65-6.79,15.61-15.55,15.63Z"/>
      </g>
    </g>
    <path class="cls-4" d="M463.09,261.77c28.91-5.24,57.81-10.56,86.72-15.84,1.61-.29,3.26-.49,4.89-.51,1.76-.02,3.2,1.31,3.48,2.9.28,1.63-.57,3.35-2.22,3.97-1.35.5-2.81.77-4.23,1.03-30.34,5.53-60.69,11.04-91.03,16.59-1.2.22-2.35.78-3.48,1.16-.28,1.51-.54,2.76-.73,4.02-2.65,18.38-18.37,36.6-42.15,37.92-21.95,1.22-40.03-13.15-45.67-32.16-.47-1.57-.74-3.2-1.23-4.77-.19-.6-.72-1.1-1.18-1.75-1.89,1.51-1.63,3.47-2.02,5.17-4.81,21.43-26.13,34.57-47.09,29.62-18.41-4.35-34.07-22.58-29.17-46.45,3.55-17.28,18.75-29.69,36.2-30.53,19.51-.94,34.92,12.24,39.33,27.91.44,1.58.69,3.21,1.17,4.78.18.58.75,1.04,1.51,2.04,1.39-6.09,1.92-11.75,4.31-16.94,2.48-5.37,5.7-10.19,9.93-14.32,4.09-4.01,8.8-7.11,14.08-9.32,5.45-2.28,11.15-3.53,17.06-3.52,9.78,0,18.72,2.78,26.68,8.52,10.61,7.65,16.51,18.23,18.67,30.96,2.32.62,4.28-.1,6.18-.45ZM374.38,268.04c.04,20.7,16.43,37.59,37.8,37.43,21.92-.17,37.19-17.77,37.33-37.37.15-20.69-16.89-37.74-37.55-37.75-20.22.13-37.62,16.08-37.58,37.7ZM357.55,271.33c.03-18.02-14.63-31.81-31.64-31.64-17.34.18-31.34,14.17-31.31,31.43.03,17.23,14.15,31.37,31.37,31.41,17.22.04,31.55-14.02,31.58-31.2Z"/>
    <path class="cls-2" d="M325.92,407.21l-.07.08c-12.64,14.86-58.73,62.86-121.29,56.59-33.05-3.31-64.47-21.33-88.47-50.76-30.89-37.88-45.45-90.26-39.94-143.69,2.26-21.86,21.8-37.75,43.66-35.5,21.86,2.25,37.75,21.8,35.5,43.66-3.36,32.55,4.83,63.62,22.45,85.23,10.38,12.73,23.04,20.7,34.72,21.87,20.45,2.05,42.77-17.24,52.74-28.96,14.24-16.74,39.35-18.77,56.09-4.54,16.71,14.21,18.76,39.26,4.61,56Z"/>
  </g>
  <g>
    <path class="cls-3" d="M112.15,9.08s-26.43,85.45-12.38,144.17c0,0,3-61.8,38.05-136.19l-25.67-7.97Z"/>
    <path class="cls-1" d="M68.49,348.34h39.09c3.37,0,6.11,2.74,6.11,6.11v8.96c0,3.37-2.74,6.11-6.11,6.11h-39.09c-3.37,0-6.11-2.74-6.11-6.11v-8.96c0-3.37,2.74-6.11,6.11-6.11Z" transform="translate(110.46 -9.96) rotate(17.26)"/>
    <path class="cls-5" d="M83.28,12.35c-8.57-.63-16.71,3.44-21.8,10.89-9.88,14.46-2.15,39.44,2.96,55.97l.15.48c6.74,21.79,16.06,44.34,28.72,69.32-6.75-48.15,2.42-96.51,9.25-123.32-3.88-7.86-10.9-12.72-19.29-13.34Z"/>
    <path class="cls-5" d="M288.36,76.07c-7.3-4.27-15.9-4.23-23.58.12-.39.22-.8.39-1.22.52-9.84,26.53-30.1,71.98-63.53,107.69,25.76-13.89,47.03-27.62,65.56-42.26l.39-.31c13.58-10.72,34.1-26.92,34.16-44.44.03-9.01-4.38-16.99-11.79-21.32Z"/>
    <path class="cls-5" d="M288.36,76.07c-7.3-4.27-15.9-4.23-23.58.12-.39.22-.8.39-1.22.52-9.84,26.53-30.1,71.98-63.53,107.69,25.76-13.89,47.03-27.62,65.56-42.26l.39-.31c13.58-10.72,34.1-26.92,34.16-44.44.03-9.01-4.38-16.99-11.79-21.32Z"/>
    <path class="cls-5" d="M83.28,12.35c-8.57-.63-16.71,3.44-21.8,10.89-9.88,14.46-2.15,39.44,2.96,55.97l.15.48c6.74,21.79,16.06,44.34,28.72,69.32-6.75-48.15,2.42-96.51,9.25-123.32-3.88-7.86-10.9-12.72-19.29-13.34Z"/>
    <path class="cls-1" d="M312.44,97.43c.05-13.44-6.63-25.39-17.87-31.97-7.9-4.62-17.02-5.92-25.77-3.9,1.4-4.39,2.07-6.88,2.07-6.88l-30.99-9.63c-7.48,32.21-32.5,113.24-104.57,179.31,0,0,3.58,9.57-9.9,22.07-15.06,13.96-8.28,36.64-3.51,53.57,4.5,15.96,5.72,34.2-.01,50.05l2.68.83,3.25,1.01c9.83-23.31,2.78-49.53-1.35-61.18-3.19-8.98-4.14-18.63-2.43-28.01,0-.05.02-.1.03-.15,1.23-6.65,4.89-12.66,10.31-16.69,3.09-2.3,5.62-5.78,6.94-10.03,1-3.21,1.18-6.44.67-9.41,0-.04-.01-.09-.02-.13.17-.18.26-.29.26-.29,4.16-1.75,8.21-3.69,12.14-5.79-1.49,5.66-1.64,12.28.73,19.64.64,1.98,2.18,3.41,4.03,3.98,1.17.36,2.45.38,3.7-.02,3.23-1.04,5-4.5,3.96-7.73-4.66-14.45,5.28-23.16,7.25-24.71.47-.22.94-.45,1.4-.67,40.71-19.69,71.78-38.41,97.78-58.94l.39-.31c15.43-12.18,38.75-30.59,38.83-54.04ZM265.99,141.83l-.39.31c-18.53,14.64-39.81,28.37-65.56,42.26,33.43-35.71,53.69-81.15,63.53-107.69.42-.13.82-.3,1.22-.52,7.68-4.35,16.28-4.4,23.58-.12,7.41,4.34,11.82,12.31,11.79,21.32-.06,17.52-20.58,33.72-34.16,44.44Z"/>
    <path class="cls-3" d="M101.33,285.45s-25.92,17.53-35.2,41.94l10.11,3.14s2.37-22.19,25.09-45.08Z"/>
    <path class="cls-8" d="M125.4,246.44c13.48-12.5,9.9-22.07,9.9-22.07,72.07-66.07,97.09-147.1,104.57-179.31l-49.73-15.45-.62-.19L108.8,4.33s-.78,2.22-2.02,6.27C100.81,4.5,92.89.73,84.18.1c-12.98-.95-25.26,5.11-32.84,16.22-13.22,19.36-4.44,47.74,1.37,66.53l.15.48c9.79,31.64,24.77,64.68,47.16,103.97.26.45.51.9.77,1.34.77,2.49,3.96,15.24-8.03,24.48-2.69,2.07-3.19,5.93-1.12,8.62.8,1.04,1.87,1.75,3.04,2.11,1.84.57,3.93.27,5.58-1,5.78-4.45,9.32-9.64,11.37-14.83,1.87,3.53,3.89,7,6.07,10.4,0,0,.02.14.05.38-2.14,2.17-3.85,4.97-4.86,8.22-1.32,4.25-1.21,8.54.03,12.19,2.18,6.4,1.79,13.43-.96,19.6l-.06.14c-3.91,8.69-10.16,16.11-17.87,21.7-9.9,7.18-30.23,24.51-35.61,48.87l-.43.69.26.08,34.78,10.81.51.16,28.35,8.81c5.74-15.85,4.51-34.09.01-50.05-4.77-16.93-11.55-39.62,3.51-53.57ZM64.59,79.69l-.15-.48c-5.11-16.53-12.84-41.5-2.96-55.97,5.08-7.45,13.23-11.52,21.8-10.89,8.39.61,15.41,5.47,19.29,13.34-6.84,26.82-16.01,75.17-9.25,123.32-12.66-24.98-21.98-47.53-28.72-69.32ZM112.15,9.08l25.67,7.97c-35.05,74.39-38.05,136.19-38.05,136.19-14.05-58.72,12.38-144.17,12.38-144.17ZM76.24,330.53l-10.11-3.14c9.29-24.41,35.2-41.94,35.2-41.94-22.72,22.89-25.09,45.08-25.09,45.08Z"/>
    <path class="cls-5" d="M83.56,333.28h8.96c3.37,0,6.11,2.74,6.11,6.11v39.09c0,3.37-2.74,6.11-6.11,6.11h-8.96c-3.37,0-6.11-2.74-6.11-6.11v-39.09c0-3.37,2.74-6.11,6.11-6.11Z" transform="translate(-280.85 336.51) rotate(-72.74)"/>
    <rect class="cls-9" x="112.58" y="361.11" width="39.76" height="30.08" transform="translate(-266.05 391.04) rotate(-72.74)"/>
    <rect class="cls-9" x="132.53" y="385.65" width="10.48" height="39.91" transform="translate(-290.45 416.84) rotate(-72.74)"/>
    <path class="cls-5" d="M83.56,333.28h8.96c3.37,0,6.11,2.74,6.11,6.11v39.09c0,3.37-2.74,6.11-6.11,6.11h-8.96c-3.37,0-6.11-2.74-6.11-6.11v-39.09c0-3.37,2.74-6.11,6.11-6.11Z" transform="translate(-280.85 336.51) rotate(-72.74)"/>
    <rect class="cls-7" x="13.53" y="339" width="39.76" height="12.74" transform="translate(-306.32 274.8) rotate(-72.74)"/>
    <path class="cls-5" d="M83.56,333.28h8.96c3.37,0,6.11,2.74,6.11,6.11v39.09c0,3.37-2.74,6.11-6.11,6.11h-8.96c-3.37,0-6.11-2.74-6.11-6.11v-39.09c0-3.37,2.74-6.11,6.11-6.11Z" transform="translate(-280.85 336.51) rotate(-72.74)"/>
    <path class="cls-7" d="M124,352.7l-71.92-22.34-11.8,37.97,71.92,22.34,11.8-37.97ZM111.21,370.82c-1,3.22-4.42,5.02-7.65,4.02l-37.33-11.6c-3.22-1-5.02-4.42-4.02-7.65l2.66-8.56c1-3.22,4.42-5.02,7.65-4.02l37.33,11.6c3.22,1,5.02,4.42,4.02,7.65l-2.66,8.56Z"/>
    <rect class="cls-6" x="22.96" y="344.79" width="39.76" height="7.01" transform="translate(-302.49 285.87) rotate(-72.74)"/>
    <rect class="cls-7" x="76.92" y="350.05" width="10.48" height="76.56" transform="translate(-313.06 351.58) rotate(-72.74)"/>
    <rect class="cls-6" x="36.72" y="372.01" width="10.48" height="7.65" transform="translate(-329.41 304.4) rotate(-72.74)"/>
    <rect class="cls-7" x="14.69" y="349.75" width="10.48" height="38.48" transform="translate(-338.36 278.55) rotate(-72.74)"/>
  </g>
  <path class="cls-2" d="M127.08,300.95s-26.38-9.59-17.92-29.03c10.38-23.85,34-10.2,34-10.2l-12.81,39.46-3.27-.23Z"/>
</svg>