<?xml version="1.0" encoding="UTF-8"?>
<svg id="Layer_1" data-name="Layer 1" xmlns="http://www.w3.org/2000/svg" viewBox="0 0 1035.88 605">
  <defs>
    <style>
      .cls-1 {
        fill: #ff8266;
      }

      .cls-2 {
        fill: #010101;
      }

      .cls-3 {
        fill: #4b241f;
      }

      .cls-4 {
        fill: #1e6cbe;
      }

      .cls-5 {
        fill: #fff;
      }

      .cls-6 {
        fill: #fcf7cf;
      }
    </style>
  </defs>
  <g>
    <g>
      <path class="cls-2" d="M1035.85,369.28c.73,49.51-16.68,91.85-51.24,127.16-16.59,16.95-35.8,30.37-56.52,41.73-24.05,13.2-49.49,23.1-75.68,31.08-27.26,8.32-55.03,14.44-83.1,19.26-21.84,3.74-43.75,6.74-65.78,8.9-19.11,1.9-38.28,3.26-57.42,4.55-33.83,2.29-67.73,2.58-101.63,3.02-126.89,1.7-237.57-82.24-269.67-205.05-7.66-29.3-10.26-59.12-7.88-89.37,4.52-57.37,25.1-108.27,61.35-152.86,2.24-2.75,3.53-5.67,4.09-9.1,2.67-16.03,5.37-32.08,8.07-48.1,2.33-13.81,4.65-27.63,7-41.41.27-1.56.61-3.14,1.26-4.55,2.29-4.91,8.63-6.08,12.47-2.21,1.39,1.41,2.43,3.23,3.5,4.96,7.68,12.5,15.34,25.02,23.03,37.55,1.17,1.9,2.41,3.74,3.89,6.01,5.52-3.16,10.75-6.25,16.05-9.17,5.33-2.94,10.75-5.69,16.46-8.68,1.46-7.17,3.02-14.45,4.38-21.74,3.28-17.31,6.47-34.65,9.7-51.94.29-1.56.58-3.16,1.22-4.57,2.21-5.01,8.44-6.32,12.4-2.55,1.46,1.39,2.55,3.16,3.67,4.84,11.06,16.24,22.11,32.51,33.15,48.78,1.26,1.85,2.6,3.65,4.06,5.67,74.15-11.19,142.85,2.7,204.27,46.16,61.33,43.41,99.22,102.62,112.08,176.67,12.84,73.95-3.11,142.21-45.43,204.59,1.36.12,2.04.34,2.68.22,31.1-5.98,61.72-13.69,91.02-25.95,12.11-5.06,23.81-10.97,34.8-18.14,7.98-5.2,15.44-11.04,22.2-17.75,18.26-18.21,25-40.22,22.11-65.59-1.92-16.78-7.03-32.64-13.64-48.05-5.98-13.93-13.16-27.26-21.04-40.17-5.08-8.32-7.98-17.22-7.83-26.97.46-30.06,25.12-49.15,48.71-48.93,17.87.17,32.25,7.3,41.73,22.32,19.48,30.91,35.07,63.67,44.28,99.22,4.26,16.46,6.93,33.19,7.17,50.19Z"/>
      <path class="cls-2" d="M759.37,123.33c-5.57-.06-8.71-4.89-6.66-9.1.67-1.38,1.75-2.62,2.82-3.76,15.45-16.47,30.93-32.91,46.42-49.34.92-.98,1.89-1.98,3.01-2.7,2.56-1.64,6.04-1.14,8.09.97,2.21,2.28,2.56,5.3.75,8.05-.86,1.31-1.97,2.46-3.05,3.61-15,15.96-30.01,31.91-45.03,47.86-.93.98-1.8,2.09-2.91,2.81-1.27.83-2.78,1.29-3.45,1.58Z"/>
      <path class="cls-2" d="M856.14,139.13c-.02.85-1.11,2.79-3.3,3.87-1.6.79-3.37,1.28-5.1,1.78-20.61,5.87-41.24,11.71-61.86,17.55-1.52.43-3.03.93-4.58,1.2-3.59.63-6.89-1.5-7.8-4.91-.8-3,.89-6.23,4.15-7.63,1.44-.62,2.99-.99,4.51-1.42,20.62-5.84,41.24-11.69,61.87-17.5,1.94-.55,3.96-1.1,5.95-1.13,3.71-.07,6.3,2.87,6.15,8.19Z"/>
      <g>
        <path class="cls-5" d="M567.89,197.53c-22.47,1.48-45.13,2.99-67.97,4.5-7.34-16.56-2.67-34.6,11.04-45.01,13.62-10.34,32.42-9.99,45.74.8,12.01,9.75,17.1,27.36,11.19,39.71Z"/>
        <path class="cls-5" d="M474.87,276.17c-2.71-4.01-5.61-8.3-8.5-12.58-1.89-2.81-3.9-5.55-5.64-8.45-1.78-2.95-.42-5.19,3.13-5.48.67-.05,1.35-.04,2.03-.04,9.94,0,19.87-.01,29.81,0,1.77,0,3.71-.3,4.88,1.56,1.37,2.19-.04,3.86-1.16,5.53-3.54,5.24-7.12,10.45-10.65,15.69-.74,1.11-1.33,2.32-2.16,3.77,4.3,10.56,12.51,15.69,23.45,16.51,9.32.7,17.26-2.66,23.44-9.85,1.02-1.19,1.99-2.46,3.15-3.51,1.14-1.02,3.11-.9,4.43.01,1.47,1.02,2.08,2.52,1.56,4.13-.48,1.46-1.31,2.87-2.26,4.09-13.2,17.05-40.45,18.14-54.99,2.23-1.36-1.49-2.6-3.1-4.09-4.89-1.84.66-2.51,2.42-3.61,3.68-9.73,11.12-25.93,14.08-38.88,7.06-3.63-1.96-6.77-4.5-9.09-7.95-1.35-2.01-1.09-4.02.53-5.49,1.47-1.33,3.41-1.53,4.93-.26,1.38,1.15,2.51,2.59,3.86,3.78,11.59,10.16,30,5.47,35.84-9.56Z"/>
        <path class="cls-5" d="M468.01,197.94c-.44,2.97-1.22,3.65-4.47,3.89-5.18.39-10.34.68-15.51,1-13.06.8-26.09,1.63-39.15,2.43-.66.02-1.34-.1-2.7-.19-3.92-7.68-3.89-15.42-1.36-23.13,4.38-13.33,17.07-23.08,32.71-22.32,14.37.71,26.8,10.8,30.13,24.88,1.07,4.43,1.02,8.95.37,13.45Z"/>
        <path class="cls-2" d="M541.11,174.25c-.07,11.92-9.62,21.46-21.39,21.37-11.8-.09-21.18-9.74-21.09-21.7.09-11.99,9.52-21.35,21.41-21.27,11.91.09,21.14,9.55,21.06,21.59Z"/>
        <path class="cls-2" d="M427.81,196.96c-9.65.41-19.36-7.03-19.56-19.48-.17-10.38,8.56-18.91,18.97-19.14,10.98-.24,19.9,8.22,20.07,19.04.17,10.83-8.51,19.56-19.48,19.58Z"/>
      </g>
    </g>
    <path class="cls-2" d="M432.06,362.36l-.09.11c-15.83,18.62-73.58,78.76-151.97,70.91-41.41-4.14-80.78-26.73-110.84-63.59-38.71-47.46-56.95-113.08-50.04-180.03,2.83-27.39,27.32-47.3,54.7-44.47,27.39,2.82,47.3,27.32,44.47,54.7-4.21,40.79,6.05,79.71,28.13,106.79,13,15.95,28.86,25.93,43.51,27.4,25.62,2.57,53.59-21.6,66.08-36.29,17.84-20.97,49.3-23.52,70.27-5.68,20.94,17.81,23.51,49.19,5.77,70.17Z"/>
  </g>
  <g>
    <g>
      <path d="M190.92,35.07c.74,2.16,1.29,4.35,1.87,6.52l.85,3.25c.3,1.07.58,2.15.93,3.22h0c.06.19-.04.39-.23.45-.15.05-.31,0-.4-.13-.69-.96-1.22-2.01-1.65-3.09-.45-1.07-.78-2.18-1.08-3.29-.57-2.23-.96-4.5-.99-6.82,0-.2.15-.36.35-.36.16,0,.29.1.34.24h0Z"/>
      <path d="M213.97,52.14c.96-1.46,1.92-2.9,2.93-4.31l2.99-4.23c.99-1.41,1.98-2.82,2.92-4.26.94-1.44,1.87-2.88,2.7-4.39h0c.08-.15.26-.21.41-.13.13.07.18.22.15.35-.49,1.71-1.23,3.33-2.07,4.88-.83,1.56-1.79,3.03-2.78,4.48-1,1.44-2.06,2.83-3.19,4.17-1.12,1.34-2.31,2.62-3.6,3.83-.12.11-.31.11-.43-.01-.1-.1-.11-.26-.03-.38Z"/>
      <path d="M202.82,48.29c-.07-1.42.12-2.78.39-4.13.29-1.34.64-2.67,1.25-3.96v-.02c.1-.19.33-.27.52-.18.13.06.21.19.22.33.06,1.41-.13,2.78-.39,4.14-.28,1.35-.63,2.69-1.25,3.97-.09.19-.32.27-.52.18-.13-.06-.21-.19-.22-.33h0Z"/>
    </g>
    <g>
      <path class="cls-1" d="M165.1,81.84s-1.7-4.55-.64-6.03c1.06-1.48,22.09-9.63,23.67-9.27s4.17,5.74,4.17,5.74l-27.2,9.56Z"/>
      <path class="cls-1" d="M42.44,137.48s-1.65-6.85-3.88-6.94c-2.23-.09-24.09,9.57-24.78,12.41-.69,2.84,3.34,6.35,3.34,6.35l25.31-11.82Z"/>
      <path class="cls-3" d="M48.02,127.34s-5.2-8.02-4.77-10.15c.43-2.13,13.86-7.46,15.67-6.75,1.81.71,5.34,10.14,5.34,10.14l-16.24,6.76Z"/>
      <path d="M68.08,127.03s-.06.03-.09.05l-18.87,7.88c-.21.09-.45.05-.62-.09-.36-.3-3.55-2.96-3.68-5.16-.04-.6.16-1.14.56-1.56,1.82-1.9,18.38-8.73,20.82-8.1,2.55.65,2.22,5.92,2.17,6.52-.02.19-.12.37-.28.47ZM48.99,133.69l18.17-7.59c.07-1.68-.14-4.58-1.28-4.87-1.74-.44-17.88,5.94-19.63,7.76-.17.17-.24.38-.22.65.08,1.28,1.96,3.18,2.96,4.05Z"/>
      <path class="cls-6" d="M204.3,65.51c-6.57-2.78-176.1,76.51-201.7,88.51-1.99.93-3.02,3.15-2.45,5.27,6.2,23.09,47.22,121.67,51.76,127.58,4.87,6.34,207.11-84.12,211.21-91.49,4.1-7.37-51.71-126.86-58.82-129.87Z"/>
      <path class="cls-4" d="M258.48,177.19c-7.06-19.06-20.6-49.28-32.48-73.49-34.29,13.28-178.65,69.59-213.85,89.48,10.26,26.6,24.31,60.41,32.79,79.37,29.45-11.82,163.33-66.06,213.54-95.36Z"/>
      <circle class="cls-6" cx="132.41" cy="173.01" r="44.82" transform="translate(-22.26 19.58) rotate(-7.8)"/>
      <path d="M156.68,211.41c-1.01.64-2.05,1.24-3.12,1.8-22.17,11.66-49.69,3.12-61.36-19.05-11.66-22.17-3.12-49.68,19.05-61.36,22.17-11.66,49.69-3.12,61.36,19.05,11.1,21.1,3.9,47.04-15.93,59.56ZM108.79,135.64c-19.3,12.18-26.3,37.42-15.5,57.95,11.35,21.57,38.13,29.89,59.7,18.54,21.59-11.36,29.89-38.13,18.54-59.7l.54-.28-.54.28c-11.35-21.57-38.13-29.89-59.7-18.54-1.04.55-2.05,1.13-3.03,1.75Z"/>
      <path d="M154.04,207.23c-.9.57-1.82,1.1-2.78,1.6-19.76,10.4-44.29,2.78-54.68-16.98-10.39-19.76-2.78-44.28,16.98-54.68,19.76-10.4,44.29-2.78,54.68,16.98,9.89,18.8,3.47,41.93-14.2,53.08ZM111.43,139.81c-17.14,10.82-23.36,33.24-13.77,51.48,10.08,19.16,33.87,26.55,53.03,16.46,19.16-10.08,26.55-33.87,16.46-53.03l.54-.28-.54.28c-10.08-19.16-33.87-26.55-53.03-16.46-.93.49-1.83,1.01-2.69,1.56Z"/>
      <circle class="cls-3" cx="132.41" cy="173.01" r="27.91" transform="translate(-17.46 14.89) rotate(-6.04)"/>
      <path class="cls-5" d="M143.41,190.4c-.46.29-.93.56-1.41.82-.3.16-.67.04-.83-.26-.16-.3-.04-.66.26-.83,9.45-4.97,13.08-16.69,8.11-26.14-.16-.3-.04-.66.26-.83.3-.16.67-.04.83.26,5.03,9.56,1.77,21.31-7.21,26.97Z"/>
      <path class="cls-5" d="M118.84,187.86c-.23.15-.54.12-.75-.08-1.56-1.51-2.86-3.26-3.88-5.19-5.28-10.04-1.41-22.5,8.63-27.79,6.06-3.19,13.28-3.16,19.32.08.3.16.41.53.25.83-.16.3-.53.41-.83.25-5.68-3.05-12.48-3.08-18.17-.08-9.44,4.97-13.08,16.69-8.12,26.14.96,1.82,2.19,3.47,3.65,4.89.24.23.25.62.01.86-.03.04-.07.07-.11.09Z"/>
      <path d="M208.56,104.53c-4.01,2.53-20.79,9.08-21.57,9.39-10.47,4.08-23.02,8.54-26.86,8.81-.55.04-1.23.03-1.58-.4-.96-1.16-13.43-23.41-11.82-25.83h0c1.43-2.14,40.59-17.96,49.1-19.2,1.2-.18,1.88-.11,2.28.22,2.4,2,12.88,23.71,11.27,26.35-.1.17-.38.39-.81.66ZM159.44,121.5c1.18.37,9.4-1.92,24.87-7.86,13.24-5.08,23.3-9.58,24.04-10.44.78-1.92-8.37-22.53-11.03-24.75-1.02-.5-9.23,1.79-25.21,8.06-12.59,4.94-23.29,9.73-24.35,10.65-.41,2.19,9.59,21.69,11.68,24.33Z"/>
      <path class="cls-3" d="M154.68,98.56c.95-1.32,37.16-16.6,39.11-15.09,1.95,1.52,8.82,16.75,7.81,18.27-1.01,1.51-37.24,16.32-38.6,14.74-1.36-1.58-9.26-16.6-8.32-17.92Z"/>
      <circle class="cls-1" cx="82.53" cy="137.6" r="6.69" transform="translate(-73.21 176.19) rotate(-72.96)"/>
      <path class="cls-5" d="M246.18,172.94s-.09.05-.15.07c-.32.1-.66-.08-.76-.4-4.94-16.11-22.26-50.81-22.44-51.16-.15-.3-.03-.67.27-.82.3-.15.67-.03.82.27.18.35,17.54,35.14,22.51,51.35.08.27-.03.55-.26.7Z"/>
      <path class="cls-5" d="M238.08,178.05s-.09.05-.14.07c-.32.1-.67-.07-.77-.39-2.22-6.9-6.83-17.83-6.88-17.94-.13-.31.01-.67.33-.8.31-.13.67.01.8.33.05.11,4.68,11.09,6.92,18.04.09.27-.02.56-.26.7Z"/>
      <path d="M75.2,161.95c-.14.09-.32.12-.49.07-13.08-3.65-17.16-7.42-18.28-9.94-.71-1.6-.23-2.65-.18-2.77.15-.3.52-.43.82-.28.3.15.42.51.28.81-.02.05-.29.71.23,1.82.87,1.85,4.3,5.5,17.45,9.17.33.09.52.43.43.75-.04.15-.14.27-.26.35Z"/>
    </g>
  </g>
  <path class="cls-2" d="M184.87,246.11s-12.96-17.06.5-26.04c16.52-11.02,26.04,7.51,26.04,7.51l-24.54,20.03-2-1.5Z"/>
</svg>