<?xml version="1.0" encoding="UTF-8"?>
<svg id="Layer_1" data-name="Layer 1" xmlns="http://www.w3.org/2000/svg" viewBox="0 0 680.65 457.95">
  <defs>
    <style>
      .cls-1 {
        fill: #fff;
      }

      .cls-2 {
        fill: none;
        stroke: #000;
        stroke-linecap: round;
        stroke-linejoin: round;
        stroke-width: 70px;
      }

      .cls-3 {
        stroke: #fff;
        stroke-miterlimit: 10;
        stroke-width: 1.84px;
      }
    </style>
  </defs>
  <circle cx="202.79" cy="255.16" r="202.79"/>
  <path class="cls-3" d="M11.39,268.84s22.31-2.08,62.8,29.98c7.35,5.82,16.7,8.75,26,7.67,30.62-3.58,33.4-45.49,15.98-58.31-20.55-15.13-65.9-40.18-65.9-40.18"/>
  <path d="M154.03,58.86c6.08-8.63,26.25-35.8,39.23-43.74,1.03-.63,2.34.22,2.17,1.42-.92,6.69-2.4,24.06,4.49,36.97.47.88-.11,1.96-1.09,2.08l-43.44,5.52c-1.24.16-2.07-1.23-1.36-2.25Z"/>
  <path d="M217.9,53.28c6.36-7.86,36.84-44.79,54.29-53.13,1.09-.52,2.3.45,2.02,1.63-2.59,10.75-11.62,50.37-7.33,62.76,4.45,12.85-39.1-5.07-48.43-9.03-.88-.37-1.15-1.48-.55-2.22Z"/>
  <path class="cls-1" d="M130.46,180.84c-.03,15.39,12.69,27.16,27.09,27.16,15.22,0,27.18-12.68,27.18-27.11-.01-15.06-12.61-27.43-27.13-27.1-13.54-.42-27.11,10.91-27.14,27.05Z"/>
  <path class="cls-1" d="M205.03,185.11c.14,14.87,12.4,24.03,23.84,23.73,13.5.33,23.88-11.22,24.06-23.53.17-10.89-8.06-24.16-23.86-24.27-14.06-.1-24.16,11.03-24.04,24.07Z"/>
  <path d="M155.01,197.26c7.71.37,16.41-5.79,16.62-16.25.18-9.09-7.19-16.52-16.31-16.58-9.13-.06-16.68,7.21-16.64,16.27.04,10.36,8.52,16.79,16.33,16.56Z"/>
  <path d="M212.14,185.18c.09,8.16,6.64,14.49,14.78,14.28,7.91-.2,14.19-6.61,14.19-14.48,0-8.01-6.67-14.74-14.64-14.57-8.46.18-14.65,6.99-14.34,14.77Z"/>
  <path class="cls-1" d="M200.68,231.83c1.89.26,3.8.41,5.66.8,1.41.29,2.08,1.52,1.67,2.93-.35,1.21-.76,2.48-1.48,3.48-3.6,5.06-7.27,10.07-11.01,15.03-1.12,1.49-2.32,1.54-3.69.34-.95-.83-1.86-1.76-2.58-2.79-1.28-1.82-2.45-3.73-3.59-5.64-2.04-3.42-4.03-6.87-6.02-10.32-1.04-1.8-.17-3.53,1.91-3.85.47-.07.95-.06,1.43-.05,5.89.08,11.79.16,17.68.24,0-.06.01-.11.02-.17Z"/>
  <path class="cls-2" d="M274.25,411.2c34.36,16.91,75.13,11.59,107.75-6.71,31.41-17.62,51.65-50.9,62.8-84.28,11.01-32.93,14.4-67.85,17.81-102.41,4.5-45.63,4.41-106.98,48.49-133.69,33.03-20.01,77.06-13.25,104.11,13.71,14.55,14.49,24.31,33.27,30.42,52.87"/>
</svg>