<?xml version="1.0" encoding="UTF-8"?>
<svg id="Layer_1" data-name="Layer 1" xmlns="http://www.w3.org/2000/svg" viewBox="0 0 893.85 601.36">
  <defs>
    <style>
      .cls-1, .cls-2, .cls-3, .cls-4, .cls-5, .cls-6, .cls-7, .cls-8, .cls-9, .cls-10 {
        fill-rule: evenodd;
      }

      .cls-1, .cls-11 {
        fill: #020202;
      }

      .cls-2 {
        fill: #a2968b;
      }

      .cls-12 {
        fill: #fff;
      }

      .cls-3 {
        fill: #bcb3ab;
      }

      .cls-4 {
        fill: #f9d1d2;
      }

      .cls-5 {
        fill: #c4bdb4;
      }

      .cls-6 {
        fill: #a89a8e;
      }

      .cls-7 {
        fill: #a99a92;
      }

      .cls-8 {
        fill: #fcfcfa;
      }

      .cls-9 {
        fill: #1a1919;
      }

      .cls-10 {
        fill: #bdb8b0;
      }
    </style>
  </defs>
  <g>
    <path class="cls-11" d="M716.19,569.42c.31-.02.63,0,.95.08,0,0-.34-.03-.95-.08Z"/>
    <path class="cls-11" d="M722.83,564.56l.82.15c-.26-.04-.53-.09-.82-.15Z"/>
    <path class="cls-1" d="M893.82,551.41c.06-.77-.3-1.08-1.08-.91-.61.17-1.14.06-1.58-.33-2.71-1.99-5.59-3.65-8.63-4.98-3.04-1.27-6.2-2.32-9.46-3.15-.28-.06-.56-.28-.83-.67.56-.72,1.13-1.46,1.75-2.24,2.05-2.71,3.37-5.72,3.98-9.04.39-2.6-.03-5.06-1.24-7.39-.94-1.99-2.49-3.29-4.65-3.9-2.71-.72-5.31-.83-7.8-.34-2.49.45-4.87,1.38-7.14,2.82-.55.33-1.02.69-1.41,1.08-.61.5-1.27.56-1.99.17-4.26-1.66-8.33-1.71-12.2-.17-3.87,1.5-6.89,4.29-9.04,8.39-1.05,2.32-1.8,4.84-2.24,7.55-.83-.11-1.63-.28-2.41-.5-.78-.28-1.55-.52-2.32-.75-9.9-2.49-19.89-3.13-29.95-1.91-6.36.66-12.31,2.6-17.84,5.81-3.82,2.27-7,5.12-9.55,8.55-3.37,3.87-5.48,9.26-6.31,16.18-.5-.05-.97-.11-1.41-.16-.56-.07-1.15-.04-1.72-.06s-1.17-.04-1.75-.06c-1.17-.04-2.34-.08-3.5-.12-2.34-.08-4.67-.16-7.01-.24-2.34-.08-4.68-.16-7.02-.23s-4.68-.16-7.02-.23c-2.34-.08-4.69-.16-7.03-.24-2.29-.08-4.57-.18-6.85-.43-1.12-.12-2.23-.27-3.34-.45-.53-.08-1.09-.1-1.63-.14-.58-.05-1.16-.08-1.74-.12-.74-.04-1.48-.08-2.22-.12-2.2-.11-4.4-.17-6.6-.21-1.41-.03-2.84-.04-4.28-.04-2.16,0-4.31.02-6.47.05-2.16.04-4.32.09-6.48.15-2.1.06-4.21.14-6.31.23-1.98.08-3.97.17-5.95.27-1.8.09-3.6.19-5.4.29-1.56.09-3.11.19-4.67.29-2.87.19-5.78.22-8.6.92-1.34.33-2.55.92-3.83,1.41-.42.16-.84.32-1.25.48-.06.03-.13.05-.19.08-1.94.78-3.85,1.69-5.73,2.74-1.72.99-3.4,2.05-5.06,3.15-1.61,1.11-3.07,2.43-4.4,3.98-1.55,1.83-2.96,3.74-4.23,5.73-2.93,4.31-6.91,7.13-11.95,8.46-1.38.39-2.76.75-4.15,1.08-.72.16-1.44.3-2.16.41-.71.11-1.44.33-2.16.66,1.22.22,2.41.3,3.57.25,1.16-.06,2.32-.08,3.49-.08,1.99-.45,3.98-.91,5.98-1.41.28-.28.61-.39,1-.33.33-.34.75-.56,1.24-.67,3.21-2.1,5.92-4.76,8.13-7.96.78-1,1.55-1.97,2.32-2.91,1.27-1.61,2.77-2.96,4.48-4.07,5.48-3.21,11.26-5.64,17.34-7.3.11-.04.22-.07.33-.09,1.49-.38,3.4-.66,5.6-.87,9.55-.9,24.73-.31,36.55.41,7.77.47,14.08,1,16.4,1.2.31-.02.63,0,.95.08,3.71.28,7.41.5,11.12.67,8.3.55,16.6,1.05,24.9,1.49,2.76.17,5.53.34,8.3.5.33,0,.63.03.91.08.27.11.47.36.58.75.83,2.88,2.21,5.51,4.15,7.88-3.66,1.83-5.86,4.62-6.64,8.38-.28,1.49-.03,2.68.75,3.57.78.89,1.94,1.33,3.49,1.33.27,0,.58-.05.91-.16s.64-.14.91-.08c.22.39.3.75.25,1.08.17,1.38.58,2.38,1.25,2.99.66.61,1.68.8,3.07.58.5-.06,1-.14,1.49-.25,3.65-.89,6.8-2.63,9.46-5.23.88-.78,1.77-1.25,2.65-1.41.94-.22,1.99-.17,3.15.16,6.86,1.77,13.83,2.16,20.91,1.16,2.16-.33,4.32-.69,6.47-1.08,2.16-.33,4.34-.55,6.56-.66,6.64-.39,12.86-2.21,18.67-5.48,3.04-1.6,5.89-3.57,8.55-5.89.72-.72,1.52-.77,2.41-.16,1.55.94,3.21,1.66,4.98,2.16,3.32.89,6.67,1.35,10.04,1.41,3.65.11,7.28.36,10.87.75,2.38.28,4.62-.11,6.72-1.16.72-.39,1.24-.91,1.57-1.58.28-.66.33-1.35.17-2.07-.17-.72-.47-1.25-.91-1.58-.44-.27-1.16-.38-2.16-.33-1.77.06-3.35-.5-4.73-1.66.39-.34.8-.5,1.24-.5,2.65-.39,5.28-.83,7.88-1.33,1.27-.16,2.41-.66,3.4-1.49.94-.78,1.49-1.72,1.66-2.82.16-1.11-.45-2.13-1.83-3.07-3.1.72-6.53.94-10.29.66,1.16-.55,2.24-1.05,3.24-1.49,1-.5,1.94-1.02,2.82-1.57,1.83-1.27,3.54-2.63,5.15-4.07.5-.83.97-1.64,1.41-2.41.55-.94.91-1.94,1.08-2.99.11-1.05.14-2.1.08-3.15ZM857.3,523.28c2.21-1.72,4.48-2.69,6.8-2.91h.08c2.27-.16,4.59.22,6.97,1.16.05.06.14.08.25.08.05.02.09.04.13.04.09.04.17.08.25.12.04.02.08.05.12.08.04.02.08.05.12.08l2.87,2.66c.67,1.09,1.03,2.42,1.08,3.98-.05.15-.07.34-.08.58v.08c0,.06-.02.13-.04.21-.16.98-.39,1.94-.67,2.86-.26.94-.58,1.85-.95,2.74-.62,1.4-1.3,2.76-2.03,4.07-.26.45-.52.89-.79,1.33-.22.33-.47.58-.75.75l-1.08.08c-.05,0-.11-.03-.17-.08h-.16l-.33-.08c-1.05-.28-2.1-.41-3.16-.41-.61.05-1-.17-1.16-.67v-.25l-.08-.08v-.08c-.06-.33-.14-.69-.25-1.08-.61-2.54-1.47-4.98-2.58-7.3-1.11-2.27-2.6-4.32-4.48-6.14-.11-.11-.19-.19-.25-.25-.5-.55-.39-1.08.33-1.57ZM767.76,591.41c-.19.19-.41.36-.66.5l-.08.08c-.28.11-.61.19-1,.25-.06,0-.08.03-.08.08-.5.06-.94,0-1.33-.16h-.04c-.15,0-.3-.04-.45-.08-.15-.1-.27-.2-.37-.29l-.04-.04-.41-.34-.41-2.16c.05-.06.08-.11.08-.17.45-2.54,1.75-4.54,3.9-5.98.61-.38,1.08-.61,1.41-.66h.08c.28,0,.61.17,1,.49.11.11.25.22.41.34.83.77,1.74,1.49,2.74,2.16-.97,1.28-1.95,2.52-2.95,3.73-.58.76-1.17,1.51-1.78,2.24ZM884.11,569.25c1.66.05,3.32-.34,4.98-1.16.22-.05.42-.08.58-.08l.41.25c.11.11.19.3.25.58.05.11.08.25.08.42l-.08.75c-.06.22-.19.44-.41.67-.11.11-.22.22-.34.33-.83.83-1.83,1.33-2.99,1.49-1.88.16-3.68.49-5.4.99-.27.06-.52.11-.74.17-2.49.72-4.76.67-6.81-.17-1.99-.83-3.96-2.02-5.89-3.57,1.49-.22,2.82-.47,3.98-.75,2.38-.5,4.82-.64,7.31-.41,1.66.22,3.35.39,5.06.5ZM890.16,556.47v.08c-.06,0-.08.03-.08.08-.05.05-.08.11-.08.16-.99,1.77-2.32,3.29-3.98,4.57-.11.11-.22.19-.34.25-.17.17-.33.3-.5.41-2.43,1.77-5.06,3.18-7.88,4.23-2.54.94-5.23,1.66-8.05,2.16-.39.06-.78.11-1.16.17-.27,0-.52.03-.75.08-1.77.16-3.57.3-5.39.41.05.06.14.08.25.08,0,.05.03.08.08.08l4.89,3.07c.22.17.45.33.67.5.11.11.25.22.41.33l3.32,2.16.08.08c.05.05.11.08.16.08l.08.08,3.82,1.83c.16.11.33.19.5.25,1.61.61,3.32.91,5.15.91.55.06,1.02.14,1.41.25l.83.5c.22.27.33.58.33.91-.06.88-.86,1.49-2.41,1.82-1.77.22-3.51.2-5.23-.08h-.34l-.08-.08h-.08l-5.81-.67h-.58c-3.21-.22-6.36-.58-9.46-1.08-.27-.06-.52-.11-.75-.17l-7.47-2.82c-.05-.05-.11-.08-.17-.08,0-.05-.03-.08-.08-.08-.06-.06-.11-.08-.17-.08-.06-.06-.14-.11-.25-.17-.56-.33-1.08-.33-1.58,0-2.43,2.32-5.12,4.29-8.05,5.9-2.54,1.6-5.2,2.99-7.96,4.15-2.77,1.16-5.64,1.96-8.63,2.4-1.72.39-3.65.39-5.81,0,1.38-.89,2.52-1.94,3.4-3.15.89-1.16,1.61-2.41,2.16-3.74.06-.11.11-.22.17-.33.11-.39.22-.75.33-1.08.61-2.05.91-4.12.91-6.23-.05-.66-.16-1.3-.33-1.91-2.16-6.03-6.45-10.26-12.86-12.7-.22-.05-.45-.11-.67-.16-.28-.05-.58-.11-.91-.17-2.1-.5-4.23-.69-6.39-.58h-.08c-.67,0-1.33.03-2,.08-.22.06-.44.08-.66.08-.88.11-1.77.36-2.65.75.17.06.36.08.58.08l1.9.09h1.41l8.47,1.66c.17.05.33.11.5.16.28.11.52.19.75.25,3.65,2.05,6.34,4.7,8.05,7.96,1.38,3.77,1.49,7.58.33,11.45-.61,1.99-1.74,3.65-3.4,4.98-3.21,2.55-6.83,4.04-10.87,4.48-3.76.39-7.47.41-11.12.08-3.7-.28-7.33-1.11-10.87-2.49h-.08l-.83-1.57c-.33.88-.55,1.49-.67,1.82-.05.11-.11.17-.16.17-1,1.05-2.02,2.08-3.07,3.07-2.43,2.32-5.28,3.79-8.55,4.4-.05.05-.11.08-.16.08-.22.05-.45.08-.67.08-.28,0-.55-.11-.83-.33-1.11-.83-1.38-1.91-.83-3.24,1.22-2.71,3.04-4.89,5.48-6.56.11-.11.25-.22.41-.33.44-.22.91-.36,1.41-.41h.17v-.09c.11-.07.28-.19.49-.33l1.49-.83c-.33-.11-.66-.19-1-.25l-.99-.16h-.08c-1.44-.06-2.69-.58-3.73-1.58-.06-.05-.14-.14-.25-.25l-.08-.08c-.05-.05-.11-.08-.16-.08,0-.05-.03-.11-.08-.17l-5.48-7.47c-.06-.05-.11-.13-.17-.25-.05-.05-.08-.14-.08-.25l-1.57-4.4c-.06-.28-.11-.58-.17-.92-.05-.22-.08-.44-.08-.66-.22-1.55-.19-3.15.08-4.82v-.16c.06-.06.08-.11.08-.17.89-4.03,2.43-7.61,4.65-10.7.05-.11.11-.22.17-.34,2.1-2.88,4.7-5.42,7.8-7.63.06-.11.14-.19.25-.25.11-.05.22-.11.33-.16,3.05-2.1,6.25-3.65,9.63-4.65.11-.06.22-.08.33-.08.06-.06.11-.08.17-.08.11-.05.22-.08.33-.08,3.82-1.05,7.75-1.61,11.79-1.66.28-.06.55-.08.83-.08h.91c8.41-.05,16.77.8,25.06,2.57.28.06.53.11.75.17.22.06.41.11.58.17l1.08.41c.22.28.3.86.25,1.74v.17c-.11,1.16-.08,2.29.08,3.4.05.28.11.52.16.75.11.44.25.83.41,1.16l1.83,2.82c1,1.05,2.21,1.91,3.65,2.58,3.04,1.38,6.23,1.93,9.54,1.66.72,0,1.41-.06,2.08-.17.39-.06.75-.14,1.08-.25.33-.11.63-.28.91-.5-.22,0-.45-.03-.67-.08l-4.82-.58c-2.65-.22-5.12-.97-7.39-2.24-1.88-1.05-3.1-2.63-3.65-4.73-.5-2.05-.7-4.12-.58-6.22.22-4.32,1.55-7.8,3.98-10.46,2.43-2.6,5.75-4.26,9.96-4.98,3.65-.67,6.92.16,9.79,2.49,1.44,1.22,2.65,2.65,3.65,4.32,1.55,2.76,2.71,5.7,3.48,8.8.11.44.22.86.34,1.24.05.28.19.52.41.75l.08.08c.05.11.14.19.25.25,0-.05.03-.11.08-.16l1.24-.83h.08c1,.27,2.02.58,3.07.91l15.35,5.81c.33.16.67.34,1,.5.16.11.33.19.5.25l2.65,1.74c.11.05.22.14.33.25l.17.17c.11.05.22.14.33.25.17.22.17.45,0,.66-.39.45-.5.8-.33,1.08.16.33.44.6.83.83.5.33.75.69.75,1.08s-.14.83-.41,1.33Z"/>
    <path class="cls-7" d="M849,553.9c.22,0,.47.03.75.08h-.08c-.28.22-.58.39-.91.5-.33.11-.69.19-1.08.25-.66.11-1.36.17-2.07.17-3.32.27-6.5-.28-9.54-1.66-1.44-.67-2.66-1.52-3.65-2.57l-1.83-2.82c-.16-.33-.3-.72-.41-1.16-.06-.22-.11-.47-.16-.75-.17-1.11-.19-2.24-.08-3.4v-.17c.05-.89-.03-1.47-.25-1.74l-1.08-.42c-.17-.06-.36-.11-.58-.17-.22-.06-.47-.11-.75-.17-8.3-1.77-16.65-2.63-25.06-2.57h-.91c-.28,0-.55.03-.83.08-4.04.06-7.97.61-11.79,1.66-.11,0-.22.03-.33.08-.06,0-.11.03-.17.08-.11,0-.22.03-.33.08-3.37,1-6.58,2.54-9.63,4.65-.11.06-.22.11-.33.17-.11.06-.19.14-.25.25-3.1,2.21-5.7,4.76-7.8,7.63-.06.11-.11.22-.17.33-2.21,3.1-3.76,6.67-4.65,10.7,0,.06-.03.11-.08.17v.17c-.28,1.66-.3,3.26-.08,4.81,0,.22.03.44.08.66.06.33.11.64.17.91l1.58,4.4c0,.11.03.19.08.25.06.11.11.19.17.25l5.48,7.47c.06.06.08.11.08.17.06,0,.11.03.17.08l.08.08c.11.11.19.2.25.25,1.05.99,2.3,1.52,3.73,1.58h.08l1,.16c.33.06.66.14,1,.25l-1.49.83c-.21.14-.38.25-.5.33v.09c1.44.88,1.83,2.16,1.16,3.82-.72,1.77-1.69,3.26-2.9,4.48-1.22,1.27-2.85,2.02-4.9,2.24.28.22.55.33.83.33.22,0,.44-.03.66-.08.06,0,.11-.03.17-.08,3.26-.61,6.11-2.07,8.55-4.4,1.05-1,2.07-2.02,3.07-3.07.06,0,.11-.06.17-.17.11-.33.33-.94.66-1.82l.83,1.58h.08c3.54,1.38,7.16,2.21,10.87,2.49,3.65.33,7.36.3,11.12-.08,4.04-.44,7.66-1.93,10.87-4.48,1.66-1.33,2.79-2.99,3.4-4.98,1.16-3.87,1.05-7.69-.33-11.45-1.72-3.26-4.4-5.92-8.05-7.97-.22-.06-.47-.14-.75-.25-.17-.06-.33-.11-.5-.16l-8.46-1.66h-1.41l-1.91-.08c-.22,0-.41-.03-.58-.08.88-.39,1.77-.63,2.66-.75.22,0,.44-.03.66-.08.67-.06,1.33-.08,1.99-.08h.08c2.16-.11,4.29.08,6.39.58.33.06.64.11.91.17.22.06.44.11.66.17,6.42,2.43,10.71,6.67,12.86,12.7.17.61.28,1.24.33,1.91,1-.05,2.02-.05,3.07,0l2.24.25c.22.06.44.11.66.16,3.43,1,6.89,1.69,10.37,2.07.89.17,1.8.14,2.74-.08,1.44-.33,2.91-.44,4.4-.33.5-.33,1.02-.33,1.58,0,.11.06.19.11.25.17.06,0,.11.03.17.08.06,0,.08.03.08.08.06,0,.11.03.17.08l7.47,2.82c.22.06.47.11.75.17,3.1.5,6.25.86,9.46,1.08h.58l5.81.67h.08l.08.08h.33c1.72.28,3.46.31,5.23.08,1.55-.33,2.35-.94,2.41-1.82,0-.33-.11-.64-.33-.91l-.83-.5c-.39-.11-.86-.19-1.41-.25-1.83,0-3.54-.3-5.15-.91-.17-.06-.33-.14-.5-.25l-3.82-1.83-.08-.08c-.06,0-.11-.03-.17-.08l-.08-.08-3.32-2.16c-.17-.11-.3-.22-.41-.33-.22-.17-.44-.33-.66-.5l-4.9-3.07c-.06,0-.08-.03-.08-.08-.11,0-.19-.03-.25-.08,1.82-.11,3.62-.25,5.39-.42.22-.06.47-.08.75-.08.39-.06.77-.11,1.16-.17,2.82-.5,5.51-1.22,8.05-2.16,2.82-1.05,5.45-2.46,7.88-4.23.16-.11.33-.25.5-.42.11-.06.22-.14.33-.25,1.66-1.27,2.99-2.79,3.98-4.56,0-.06.03-.11.08-.17,0-.05.03-.08.08-.08v-.08c.28-.5.41-.94.41-1.33s-.25-.74-.75-1.08c-.39-.22-.66-.5-.83-.83-.17-.28-.06-.64.33-1.08.16-.22.16-.44,0-.66-.11-.11-.22-.2-.33-.25-.06-.06-.11-.11-.17-.17-.11-.11-.22-.19-.33-.25l-2.66-1.74c-.17-.06-.33-.14-.5-.25-.33-.17-.66-.33-.99-.5l-15.35-5.81c-1.05-.33-2.07-.64-3.07-.91h-.08l-1.24.83c-.06.06-.08.11-.08.17-.11-.06-.19-.14-.25-.25l-.08-.08c-.22-.22-.36-.47-.41-.75-.11-.39-.22-.8-.33-1.24-.77-3.1-1.94-6.03-3.49-8.8-1-1.66-2.21-3.1-3.65-4.31-2.88-2.33-6.14-3.16-9.79-2.49-4.21.72-7.52,2.38-9.96,4.98-2.43,2.66-3.76,6.14-3.98,10.46-.11,2.1.08,4.18.58,6.22.55,2.1,1.77,3.68,3.65,4.73,2.27,1.27,4.73,2.02,7.39,2.24l4.81.58ZM852.24,535.47c.25.11.5.25.75.42.86.52,1.6,1.1,2.24,1.74l1.66,2.16c.03.06.06.11.08.17.03.06.06.11.08.17.94,1.72,1.58,3.57,1.91,5.56v.66c-.06.66-.36,1.24-.91,1.74-1.66,1.72-3.71,2.46-6.14,2.24h-.33l-5.81-1h-.25c-2.49-.61-3.79-2.21-3.9-4.81-.06-1.99.39-3.71,1.33-5.15.94-1.38,2.21-2.57,3.82-3.57.11-.05.22-.11.33-.17.66-.39,1.33-.61,1.99-.66.94-.17,1.91-.03,2.9.41l.25.08ZM867.01,553.81h-.83c-.11-.06-.19-.08-.25-.08-.83-.22-1.47-.72-1.91-1.49-.39-.72-.47-1.52-.25-2.4-.17-.33-.22-.69-.17-1.08,0-.11.03-.25.08-.42.17-.44.3-.94.42-1.5-.61-.05-1.24-.05-1.91,0h-.25c-.56,0-1.11-.08-1.66-.25-.11,0-.22-.03-.33-.08,1.27-.28,2.32-.47,3.15-.58,1.88-.06,3.51-.75,4.9-2.07.06-.11.11-.19.17-.25.11-.11.19-.19.25-.25.22-.11.41-.06.58.17.28.33.28.55,0,.66-.06,0-.14.03-.25.08-.11.06-.22.14-.33.25-.22.17-.33.41-.33.75,1.55.5,2.68,1.36,3.4,2.57.66,1.16.86,2.55.58,4.15-.33,1.27-1,2.07-1.99,2.41-1.05.39-2.07.19-3.07-.58Z"/>
    <path class="cls-5" d="M849.5,576.72c-1.49-.11-2.96,0-4.4.33-.94.22-1.85.25-2.74.08-3.49-.39-6.94-1.08-10.37-2.07-.22-.06-.44-.11-.66-.16l-2.24-.25c-1.05-.05-2.07-.05-3.07,0,0,2.1-.3,4.18-.91,6.22-.11.33-.22.69-.33,1.08-.06.11-.11.22-.17.33-.55,1.33-1.27,2.57-2.16,3.73-.88,1.22-2.02,2.27-3.4,3.15,2.16.39,4.09.39,5.81,0,2.99-.44,5.86-1.25,8.63-2.41,2.77-1.16,5.42-2.55,7.97-4.15,2.93-1.6,5.62-3.57,8.05-5.89Z"/>
    <path class="cls-3" d="M769.54,589.17c1-1.21,1.98-2.46,2.95-3.73-1-.66-1.91-1.38-2.74-2.16-.17-.11-.3-.22-.42-.33-.39-.33-.72-.5-1-.5h-.08c-.33.06-.8.28-1.41.67-2.16,1.44-3.46,3.43-3.9,5.97,0,.06-.03.11-.08.17l.41,2.16.41.33.04.04c.1.09.22.16.37.21.15.1.31.16.46.17h.04c.39.17.83.22,1.33.17,0-.06.03-.08.08-.08.39-.06.72-.14,1-.25l.08-.08c.25-.14.47-.34.66-.58.6-.71,1.2-1.42,1.78-2.16Z"/>
    <path class="cls-10" d="M770.17,596.47c2.05-.22,3.68-.97,4.9-2.24,1.22-1.22,2.18-2.71,2.9-4.48.66-1.66.27-2.93-1.16-3.82h-.17c-.5.06-.97.19-1.41.41-.17.11-.3.22-.41.33-2.43,1.66-4.26,3.85-5.48,6.56-.55,1.33-.28,2.41.83,3.24Z"/>
    <path class="cls-6" d="M874.9,524.6l-2.86-2.66s-.08-.06-.12-.08c-.04-.03-.08-.06-.12-.08-.08-.04-.16-.08-.25-.13-.04,0-.08-.02-.13-.04-.11,0-.19-.03-.25-.08-2.38-.94-4.7-1.33-6.97-1.16h-.08c-2.32.22-4.59,1.19-6.81,2.9-.72.5-.83,1.02-.33,1.57.06.06.14.14.25.25,1.88,1.82,3.37,3.87,4.48,6.14,1.11,2.32,1.96,4.76,2.57,7.3.11.39.19.75.25,1.08v.08l.08.08v.25c.17.5.55.72,1.16.66,1.05,0,2.1.14,3.15.41l.33.08h.17c.06.06.11.08.17.08l1.08-.08c.28-.17.53-.42.75-.75.27-.44.53-.88.79-1.33.72-1.34,1.37-2.7,1.95-4.07.4-.89.75-1.8,1.04-2.74.28-.93.5-1.88.67-2.86.02-.08.03-.14.04-.21v-.66c-.03-1.56-.36-2.89-1-3.98Z"/>
    <path class="cls-4" d="M855.23,537.63c-.66-.64-1.44-1.22-2.32-1.74-.21-.16-.43-.3-.66-.42l-.25-.08c-1-.44-1.96-.58-2.9-.41-.66.06-1.33.28-1.99.66-.11.06-.22.11-.33.17-1.6,1-2.88,2.18-3.82,3.57-.94,1.44-1.38,3.15-1.33,5.15.11,2.6,1.41,4.2,3.9,4.81h.25l5.81,1h.33c2.43.22,4.48-.53,6.14-2.24.55-.5.86-1.08.91-1.74v-.66c-.33-1.99-.97-3.85-1.91-5.56-.03-.05-.06-.11-.08-.17-.03-.05-.06-.11-.08-.17l-1.66-2.16Z"/>
    <path class="cls-9" d="M863.78,549.83c.88.88,1.69.88,2.41,0,.17-.33.25-.61.25-.83.06-.17.06-.3,0-.42-.06-.11-.14-.19-.25-.25-.17-.22-.36-.41-.58-.58l-.5-.5c.17-.33.33-.5.5-.5h.66c1.38-.22,2.49.05,3.32.83.83.72,1.22,1.77,1.16,3.15,0,.88-.3,1.6-.91,2.16-.22.16-.47.3-.75.42-.66.33-1.36.5-2.07.5,1,.77,2.02.97,3.07.58,1-.33,1.66-1.13,1.99-2.41.28-1.6.08-2.99-.58-4.15-.72-1.22-1.85-2.07-3.4-2.57,0-.33.11-.58.33-.75.11-.11.22-.19.33-.25.11-.06.19-.08.25-.08.28-.11.28-.33,0-.66-.17-.22-.36-.28-.58-.17-.06.06-.14.14-.25.25-.06.06-.11.14-.17.25-1.38,1.33-3.02,2.02-4.9,2.07-.83.11-1.88.3-3.15.58.11.06.22.08.33.08.55.17,1.1.25,1.66.25h.25c.66-.05,1.3-.05,1.91,0-.11.56-.25,1.05-.42,1.5-.06.16-.08.3-.08.42-.06.39,0,.75.17,1.08Z"/>
    <path class="cls-8" d="M863.78,549.83c-.22.88-.14,1.69.25,2.4.44.77,1.08,1.27,1.91,1.49.06,0,.14.03.25.08h.83c.72,0,1.41-.16,2.07-.5.28-.11.53-.25.75-.42.61-.55.91-1.27.91-2.16.06-1.39-.33-2.43-1.16-3.15-.83-.78-1.94-1.05-3.32-.83h-.66c-.17,0-.33.17-.5.5l.5.5c.22.17.42.36.58.58.11.06.19.14.25.25.06.11.06.25,0,.42,0,.22-.08.5-.25.83-.72.88-1.52.88-2.41,0Z"/>
    <path class="cls-2" d="M879.05,568.75c-2.49-.22-4.92-.08-7.3.41-1.16.28-2.49.52-3.98.75,1.94,1.55,3.9,2.74,5.89,3.57,2.05.83,4.32.89,6.81.17.22-.06.47-.11.74-.17,1.72-.5,3.51-.83,5.39-1,1.16-.17,2.16-.66,2.99-1.49.11-.11.22-.22.33-.33.22-.22.36-.44.42-.66l.08-.75c0-.17-.03-.3-.08-.42-.06-.28-.14-.47-.25-.58l-.41-.25c-.17,0-.36.03-.58.08-1.66.83-3.32,1.22-4.98,1.16-1.71-.11-3.4-.28-5.06-.5Z"/>
  </g>
  <g>
    <path d="M2.9,98.55c6.05,15.99,23.15,25.78,39.94,22.62,19.05-3.58,32.45-20.23,48.65-29.47,25.41-14.51,65.24-17.23,82.33,11.34,6.33,10.57,7.51,23.38,7.8,35.71,2.19,93.52-38.02,188.7-11.96,278.55,21.15,72.88,88.17,130.21,163.45,139.8.07,0,.15.02.22.03,18.91,2.41,37.3,7.98,54.28,16.65,63.67,32.52,141.33,35.74,210.52,1.93,116.79-57.06,165.21-197.99,108.15-314.78-57.05-116.79-197.99-165.21-314.78-108.15-103.09,50.37-152.91,166.07-123.93,272.85-45.84-67.24-15.6-159.23-4.38-231.94,7.49-48.51,6.84-102.12-22.29-141.63C218.61,21.82,181.75,4.11,144.34.66c-29.75-2.74-61.2,3.17-88.19,15.88C27.32,30.12-10.87,62.11,2.9,98.55Z"/>
    <path d="M444.31,586.46c.63,3.59,4.98,6.38,11.97,8.52h0c23.97,7.33,79.09,7.04,122.59,5.48,20.47-.74,40.95-1.29,61.43-1.72,8.02-.17,16.89-.43,25.65-.8t.01,0c10.21-.45,20.25-1.07,28.58-1.93,1.74-.19,3.41-.38,4.99-.58,11.99-1.54,23.02-12.56,28-25.91,5.59-14.99,3.54-32.92-13.4-43.63-8.45-5.34-18.63-7.16-28.49-5.53-5.91.98-11.45,1.71-16.63,2.24-15.2,1.55-27.3,1.33-36.71.33-19.51-2.07-27.44-7.5-27.44-7.5-49.94,14.96-164.09,50.94-160.55,71.03Z"/>
    <path d="M632.15,489.57s21.51,14.71,80.79,4.93c9.86-1.63,20.04.19,28.48,5.53,32.02,20.25,10.85,66.27-14.6,69.54-15.61,2.01-39.89,2.91-59.23,3.31-20.48.43-40.96.98-61.43,1.72-56.18,2.02-131.76,1.91-134.56-14-3.54-20.09,110.61-56.08,160.55-71.03Z"/>
    <path d="M722.8,378.37c8.21-9.1,33.79-38.9,39.45-55.62.45-1.33-.85-2.59-2.16-2.09-7.34,2.76-26.62,8.89-43,4.41-1.12-.31-2.19.62-2.07,1.77l4.9,50.58c.14,1.44,1.92,2.03,2.89.96Z"/>
    <path d="M712.73,304.64c7.26-9.22,41.24-53.2,46.21-75.08.31-1.37-1.1-2.49-2.36-1.87-11.51,5.69-54.03,26.07-69.15,24.4-15.69-1.74,15.77,42.95,22.65,52.5.65.9,1.97.93,2.66.06Z"/>
    <g>
      <path class="cls-12" d="M686.07,437.87c2.07.26,4.15-.14,6.14-1.11,5.11-2.48,9.7-8.66,12.5-16.82,1.1-3.22,1.92-6.75,2.39-10.48.38-3.06.5-6.04.38-8.89-10.38,1.28-21.92,2.18-34.46,2.34-.12.74-.23,1.49-.33,2.24-2.11,16.88,3.88,31.53,13.38,32.72Z"/>
      <path d="M690.98,436.68c.41.06.82.08,1.23.08,5.11-2.48,9.7-8.66,12.5-16.82-1.15-5.23-5.16-9.33-10.38-9.98-6.78-.85-13.03,4.45-13.95,11.83-.92,7.38,3.82,14.05,10.6,14.9Z"/>
      <path class="cls-12" d="M627.94,440.66c1.11.26,2.25.41,3.4.44,9.04.28,17.26-6.51,22.51-17.18,2.96-6.01,4.96-13.25,5.64-21.15-20.5-.62-38.62-3.19-53.8-6.31-.02.3-.02.61-.04.92-.68,21.85,9.05,40.2,22.29,43.28Z"/>
      <path d="M622.7,430.19c.76,4.16,2.66,7.78,5.24,10.48,1.11.26,2.25.41,3.4.44,9.04.28,17.26-6.51,22.51-17.18-2.04-9.78-10.39-16.39-18.86-14.84-8.63,1.58-14.13,11.03-12.29,21.1Z"/>
      <path class="cls-12" d="M675.58,445.9h-18.07c-2.07,0-3.18,2.44-1.81,4l9.04,10.33c.96,1.1,2.67,1.1,3.63,0l9.04-10.33c1.36-1.56.26-4-1.81-4Z"/>
    </g>
    <path class="cls-12" d="M664.84,521.29c5.52-.56,11.42-1.34,17.71-2.38,10.5-1.74,21.34.2,30.34,5.89,18.04,11.41,20.23,30.5,14.27,46.47.92-1.27,2.08-3.09,3.07-5.43,0,0,1.47-3.46,2-7.51.64-4.89.23-23.38-14.35-34.76-.99-.77-9.2-7.01-20.73-7.88-7.14-.54-14.06,1.1-24.43,3.55-3.31.78-6.03,1.53-7.88,2.06Z"/>
    <g>
      <path d="M754.89,416.53c.62,0,1.24-.19,1.79-.57,3.54-2.51,7.32-4.71,11.24-6.53,5.91-2.74,12.19-4.66,18.67-5.71,1.68-.27,2.83-1.86,2.56-3.54-.27-1.68-1.86-2.83-3.54-2.56-7.04,1.13-13.87,3.22-20.29,6.2-4.26,1.98-8.38,4.37-12.22,7.1-1.39.99-1.72,2.91-.73,4.3.6.85,1.55,1.3,2.52,1.3Z"/>
      <path d="M778.84,442.59c1.39,0,2.78-.02,4.17-.05,12.05-.27,24.13-1.73,35.91-4.33,1.66-.37,2.72-2.02,2.35-3.68-.37-1.67-2.02-2.72-3.68-2.35-11.39,2.51-23.07,3.92-34.72,4.18-11.07.25-22.23-.53-33.17-2.32-1.68-.28-3.27.86-3.55,2.55-.28,1.68.86,3.27,2.55,3.55,9.94,1.63,20.05,2.45,30.13,2.45Z"/>
      <path d="M783.74,481.32c1.37,0,2.62-.92,2.98-2.3.43-1.65-.55-3.34-2.2-3.77-5.91-1.55-11.77-3.52-17.42-5.86-5.27-2.18-10.46-4.72-15.41-7.55-1.48-.85-3.37-.33-4.21,1.15-.85,1.48-.33,3.37,1.15,4.21,5.18,2.96,10.6,5.62,16.12,7.9,5.9,2.44,12.03,4.5,18.21,6.12.26.07.53.1.79.1Z"/>
    </g>
  </g>
</svg>