<?xml version="1.0" encoding="UTF-8"?>
<svg id="Layer_1" data-name="Layer 1" xmlns="http://www.w3.org/2000/svg" viewBox="0 0 633.28 430.38">
  <defs>
    <style>
      .cls-1 {
        fill: #fff;
      }
    </style>
  </defs>
  <path d="M455.69,309.37c-4.38,10.66-9.78,21.11-16.17,31.33-1.57,2.47-3.2,4.9-4.88,7.29-32.5,46.22-84.69,77.58-144.38,81.88-4.67.34-9.38.51-14.14.51-1.52,0-3.04-.02-4.55-.05-.31,0-.63-.02-.94-.03-50.27-1.57-96.4-22.12-130.47-55.68-2.8-2.76-5.52-5.61-8.15-8.54-20.18-22.48-35.3-49.93-43.39-80.86-1.23-4.73-2.28-9.48-3.15-14.25-.17-.93-.33-1.87-.49-2.81-.1-.66-.21-1.32-.31-1.98-.12-.8-.24-1.6-.35-2.4-1.05-7.32-1.66-14.69-1.82-22.09-.03-1.47-.05-2.95-.06-4.43v-.25c0-5.01.22-10.02.61-15.06,1.2-15.2,3.99-29.75,8.36-43.68.6-1.9,1.22-3.79,1.88-5.66,2.28-6.57,4.93-13,7.96-19.29.53-1.12,1.07-2.24,1.64-3.35.15-.3.3-.6.46-.9.42-.82.84-1.64,1.28-2.46.34-.66.69-1.32,1.05-1.97.58-1.07,1.17-2.14,1.78-3.2,5.45-9.59,11.8-18.82,19.02-27.7.04-.06.09-.12.14-.18.6-.75,1.09-1.52,1.5-2.34,12.4-14.63,26.94-27.39,43.13-37.81,0,.03.03.05.05.08,3.9-2.23,7.56-4.4,11.29-6.45,1.01-.56,2.02-1.1,3.04-1.64,2.82-1.5,5.7-2.97,8.69-4.54,0-.06.03-.13.04-.19,15.18-7.06,31.42-12.22,48.43-15.16.03.04.05.07.08.11,6.77-1.02,13.47-1.75,20.1-2.17.41-.04.81-.06,1.22-.08.7-.04,1.41-.08,2.11-.11.7-.04,1.4-.07,2.1-.1,1.4-.05,2.8-.09,4.19-.12.7-.01,1.4-.02,2.09-.03.48,0,.96,0,1.44,0,.98,0,1.97,0,2.95.02,33,.36,64.22,8.59,93.33,25.57,5.09,2.97,10.11,6.2,15.07,9.71,5.3,3.74,10.35,7.66,15.16,11.74.58.49,1.17,1,1.75,1.52,9.86,8.56,18.63,17.84,26.31,27.82.79,1.02,1.56,2.05,2.32,3.09,4.63,6.29,8.84,12.85,12.61,19.68.22.39.44.78.65,1.18,6.33,11.66,11.44,24.08,15.28,37.26,2.15,7.36,3.91,14.95,5.27,22.78,1.38,7.96,2.29,15.82,2.73,23.59.02.14.02.28.03.42,1.59,28.6-3.14,55.94-13.89,81.99Z"/>
  <path d="M59.57,205.29c.08,2.11-.87,3.71-2.85,4.52-.87.36-1.83.52-2.76.74-15.52,3.63-31.04,7.26-46.57,10.87-.77.18-1.57.34-2.35.37-2.44.1-4.39-1.38-4.93-3.66-.5-2.12.79-4.37,3.09-5.3.73-.3,1.52-.46,2.3-.64,15.53-3.6,31.06-7.2,46.59-10.8.93-.21,1.86-.52,2.8-.55,2.57-.07,4.58,1.89,4.68,4.43Z"/>
  <path d="M431.62,89.41c-3.94-.04-6.17-3.46-4.72-6.44.48-.98,1.24-1.85,2-2.66,10.94-11.66,21.9-23.29,32.86-34.93.65-.69,1.34-1.4,2.13-1.91,1.81-1.16,4.28-.81,5.73.69,1.56,1.61,1.81,3.75.53,5.7-.61.93-1.39,1.74-2.16,2.56-10.62,11.3-21.25,22.59-31.88,33.88-.66.7-1.27,1.48-2.06,1.99-.9.59-1.97.91-2.44,1.12Z"/>
  <path d="M56.68,177.86c-.62-.15-1.72-.35-2.77-.69-15.06-4.84-30.12-9.7-45.17-14.57-1.05-.34-2.15-.7-3.07-1.29-1.86-1.19-2.49-3.54-1.67-5.5.81-1.93,2.98-3.18,5.06-2.81,1.09.2,2.16.58,3.22.93,14.6,4.7,29.2,9.41,43.8,14.13,1.21.39,2.46.77,3.56,1.38,1.76.97,2.57,3.1,2.08,4.93-.59,2.23-2.26,3.5-5.05,3.49Z"/>
  <path d="M500.13,100.6c-.01.6-.78,1.98-2.34,2.74-1.14.56-2.38.91-3.61,1.26-14.59,4.15-29.19,8.29-43.79,12.43-1.08.3-2.15.66-3.24.85-2.54.45-4.88-1.06-5.52-3.48-.56-2.13.63-4.41,2.94-5.4,1.02-.44,2.12-.7,3.19-1.01,14.6-4.14,29.2-8.28,43.8-12.39,1.37-.39,2.8-.78,4.21-.8,2.62-.05,4.46,2.03,4.36,5.8Z"/>
  <path class="cls-1" d="M331.35,188.1c-.08.2-.42,1.27-1.67,1.24-10-.3-12.09-1.87-21.31-1.58-10.94.34-15.58,2.72-24.28,4.61-1.28.27-1.84-1.04-1.92-1.25-4.38-11.36-.97-23.45,8.37-30.53,9.65-7.31,22.96-7.08,32.39.57,8.12,6.59,11.78,18.29,8.42,26.94Z"/>
  <path class="cls-1" d="M260.14,189.55c-.14,1.01-.35,1.65-.77,2.06-.78.75-1.95.79-2.4.71-5.12-.99-13.45-1.65-17.54-1.55-7.87.18-10.21.82-21.15,3.96-.78.22-1.49-.09-1.92-.12-2.77-5.45-2.75-10.92-.96-16.38,3.1-9.44,12.08-16.34,23.16-15.8,10.16.49,18.97,7.65,21.33,17.6.74,3.14.72,6.34.25,9.52Z"/>
  <path d="M310.11,172.73c-.03,5.25-4.24,9.46-9.42,9.42-5.2-.04-9.33-4.29-9.29-9.56.04-5.28,4.2-9.41,9.43-9.37,5.25.04,9.31,4.21,9.28,9.51Z"/>
  <path d="M240.1,186.33c-4.63.2-9.28-3.37-9.38-9.34-.08-4.98,4.11-9.07,9.1-9.18,5.26-.12,9.54,3.94,9.63,9.13.08,5.2-4.08,9.38-9.34,9.39Z"/>
  <g>
    <path class="cls-1" d="M240.88,175.45c.14.44.58,1.76-.05,2.76-1.35,2.16-6.99,1.8-8.14-.7-.55-1.2.09-2.53.2-2.76.78-1.63,2.7-2.63,4.57-2.31,1.72.29,2.96,1.6,3.42,3.02Z"/>
    <path class="cls-1" d="M246.5,182.19c.06.17.23.69-.02,1.09-.53.85-2.74.71-3.2-.28-.22-.47.03-.99.08-1.09.31-.64,1.06-1.03,1.8-.91.67.11,1.16.63,1.34,1.18Z"/>
    <path class="cls-1" d="M247.7,174.17c.02.06.07.23,0,.36-.18.28-.91.24-1.06-.09-.07-.16.01-.33.03-.36.1-.21.35-.34.6-.3.22.04.39.21.45.39Z"/>
    <path class="cls-1" d="M234.89,182.81c.02.06.07.23,0,.36-.18.28-.91.24-1.06-.09-.07-.16.01-.33.03-.36.1-.21.35-.34.6-.3.22.04.39.21.45.39Z"/>
  </g>
  <g>
    <path class="cls-1" d="M300.6,169.82c-.13.41-.54,1.65.05,2.59,1.26,2.02,6.55,1.69,7.63-.66.52-1.12-.08-2.37-.19-2.59-.73-1.52-2.53-2.46-4.29-2.17-1.61.27-2.77,1.5-3.2,2.83Z"/>
    <path class="cls-1" d="M294.26,176.79c-.06.17-.23.69.02,1.09.53.85,2.74.71,3.2-.28.22-.47-.03-.99-.08-1.09-.31-.64-1.06-1.03-1.8-.91-.67.11-1.16.63-1.34,1.18Z"/>
    <path class="cls-1" d="M293.06,168.77c-.02.06-.07.23,0,.36.18.28.91.24,1.06-.09.07-.16-.01-.33-.03-.36-.1-.21-.35-.34-.6-.3-.22.04-.39.21-.45.39Z"/>
    <path class="cls-1" d="M305.86,177.41c-.02.06-.07.23,0,.36.18.28.91.24,1.06-.09.07-.16-.01-.33-.03-.36-.1-.21-.35-.34-.6-.3-.22.04-.39.21-.45.39Z"/>
  </g>
  <g>
    <path d="M204.64,55.64l9.99-51.4c.87-4.49,6.67-5.78,9.37-2.09l34.9,47.85s-25.69,21.58-54.26,5.63Z"/>
    <path d="M291.93,54.11l21.41-49.61c1.97-4.56,8.58-4.07,9.86.72l17.67,66.13s-29.6,2.03-48.94-17.24Z"/>
  </g>
  <path class="cls-1" d="M269.29,268.58c-6.51,0-12.56-3.29-15.92-6.12l-1.48-1.24,1.19-1.52c6.36-8.13,14.98-13.43,15.35-13.65l1.4-.85,14.44,15.74-1.25,1.35c-4.28,4.64-9.12,6.3-13.73,6.3ZM257.54,260.57c3.71,2.5,13.17,7.49,21.24.29l-9.63-10.5c-2.36,1.61-7.37,5.3-11.61,10.21Z"/>
  <path class="cls-1" d="M265,244.94c-1.92-2.84-3.97-5.87-6.02-8.9-1.34-1.99-2.76-3.93-3.99-5.98-1.26-2.09-.3-3.68,2.22-3.88.48-.04.96-.03,1.44-.03,7.03,0,14.07,0,21.1,0,1.26,0,2.63-.22,3.45,1.11.97,1.55-.03,2.74-.82,3.92-2.5,3.71-5.04,7.4-7.54,11.11-.53.78-.94,1.64-1.53,2.67,3.04,7.47,8.85,11.11,16.6,11.69,6.59.49,12.22-1.88,16.59-6.97.73-.84,1.41-1.74,2.23-2.48.8-.72,2.2-.64,3.13,0,1.04.72,1.47,1.79,1.1,2.92-.34,1.03-.93,2.03-1.6,2.9-9.35,12.07-28.64,12.84-38.93,1.58-.96-1.06-1.84-2.19-2.89-3.46-1.3.46-1.78,1.72-2.55,2.6-6.89,7.87-18.36,9.97-27.52,5-2.57-1.39-4.8-3.18-6.43-5.63-.95-1.42-.77-2.85.38-3.88,1.04-.94,2.41-1.08,3.49-.19.98.81,1.78,1.83,2.73,2.67,8.21,7.19,21.24,3.87,25.37-6.77Z"/>
  <path class="cls-1" d="M227.35,368.35c-8.14,0-16.22-.86-24.17-2.59-7.46-1.62-14.81-4.02-21.83-7.12l.74-1.69c6.91,3.05,14.13,5.41,21.48,7,12.87,2.8,26.12,3.29,39.37,1.48,15.92-1.4,27.7-15.46,26.3-31.34-.68-7.69-4.31-14.66-10.23-19.62-2.07-1.74-4.37-3.16-6.84-4.24-5.76-2.52-12.48-2.82-18.91-.83-12.12,3.74-24.56,5.51-36.98,5.3-5.9-.11-11.84-.67-17.68-1.68l.31-1.82c5.75.99,11.6,1.55,17.4,1.65,12.23.22,24.48-1.54,36.41-5.22,6.85-2.12,14.02-1.79,20.19.91,2.63,1.15,5.08,2.67,7.28,4.52,6.29,5.28,10.16,12.69,10.88,20.87,1.49,16.89-11.04,31.84-27.94,33.33-5.27.72-10.54,1.08-15.8,1.08Z"/>
  <path class="cls-1" d="M318.81,355.91c-5.9,0-11.7-1.71-16.77-5.03-6.87-4.5-11.58-11.4-13.27-19.44-1.68-8.04-.13-16.25,4.37-23.13,1.58-2.41,3.48-4.57,5.66-6.43,5.12-4.37,11.9-6.78,19.06-6.72,12.49.09,24.72-1.8,36.36-5.55,5.52-1.78,10.96-4.01,16.18-6.62l.83,1.65c-5.3,2.66-10.83,4.92-16.44,6.73-11.83,3.81-24.25,5.74-36.93,5.64-6.73-.07-13.07,2.19-17.85,6.28-2.05,1.75-3.83,3.78-5.31,6.04-4.23,6.46-5.68,14.18-4.1,21.74,1.58,7.56,6.01,14.05,12.47,18.28s14.18,5.68,21.74,4.1c13.26-2.11,25.79-6.42,37.3-12.83,6.56-3.65,12.79-8,18.53-12.92l1.2,1.4c-5.83,5.01-12.16,9.43-18.83,13.14-11.7,6.51-24.44,10.89-37.86,13.03-2.1.44-4.21.66-6.31.66Z"/>
  <path d="M306.28,429.69c-11.75,0-23.54-.7-35.24-2.42-19.13-2.8-32.36-20.58-29.55-39.71,2.8-19.13,20.58-32.35,39.71-29.55,30.33,4.45,65.05-.74,98.62-5.75,7.71-1.15,15.69-2.34,23.51-3.4,41.82-5.66,76.83-13.19,111.73-31.53,15.8-8.3,29.77-19.4,38.32-30.45,7.31-9.44,10.84-22.69,9.7-36.37-1.71-20.47-11.99-39.69-26.82-50.15-15.79-11.15-19.56-32.98-8.42-48.78,11.15-15.79,32.98-19.56,48.78-8.42,31.76,22.41,52.77,60.36,56.21,101.51,2.59,30.93-6.2,61.93-24.11,85.06-14.69,18.97-36.39,36.57-61.11,49.56-46.57,24.47-92.36,33.17-134.91,38.94-7.35.99-14.74,2.1-22.56,3.27-26.2,3.91-54.88,8.2-83.87,8.2Z"/>
</svg>