<?xml version="1.0" encoding="UTF-8"?>
<svg id="Layer_1" data-name="Layer 1" xmlns="http://www.w3.org/2000/svg" viewBox="0 0 870.12 408.26">
  <defs>
    <style>
      .cls-1 {
        fill: #fff;
      }

      .cls-2 {
        fill: none;
      }
    </style>
  </defs>
  <circle cx="367.02" cy="192.26" r="160.03"/>
  <ellipse class="cls-1" cx="266.08" cy="127.18" rx="24.12" ry="18.12" transform="translate(50.99 328.94) rotate(-68.71)"/>
  <ellipse class="cls-1" cx="319.04" cy="138.15" rx="30.99" ry="20.31" transform="translate(74.49 385.28) rotate(-68.71)"/>
  <path d="M448.81,401.67c-5.29,4.86-12.62,7.41-20.3,6.36-39.96-5.45-60.87-38.78-66.92-57.61l47.6-15.3-.09-.27c.3.86,7.55,21.1,26.17,23.64,13.68,1.87,23.26,14.47,21.39,28.15-.82,6.01-3.71,11.23-7.85,15.03Z"/>
  <path d="M536.91,365.78c-6.04,5.54-14.68,8.01-23.2,5.8-7.43-1.93-14.79-4.36-21.88-7.23-22.4-9.08-42.71-22.67-60.37-40.41-9.74-9.78-9.71-25.61.07-35.36,9.8-9.75,25.61-9.71,35.36.07,12.89,12.94,27.6,22.82,43.72,29.35,5.07,2.05,10.34,3.8,15.66,5.18,13.36,3.47,21.39,17.11,17.92,30.48-1.26,4.84-3.85,8.98-7.27,12.12Z"/>
  <path d="M862.04,368.61c-.21.19-.41.37-.63.56-10.47,9-26.26,7.8-35.25-2.67-19.66-22.88-41.59-37.57-65.17-43.65-26.26-6.77-47.37-1.13-71.82,5.4-24.75,6.61-52.8,14.1-86.25,6.81-44.24-9.64-83.4-42.27-116.38-96.98-7.13-11.82-3.32-27.19,8.5-34.32,11.82-7.13,27.19-3.32,34.32,8.5,25.6,42.47,53.93,67.35,84.21,73.95,21.61,4.71,40.66-.38,62.71-6.26,27.3-7.29,58.23-15.55,97.2-5.51,33.68,8.68,64.17,28.69,90.62,59.48,8.82,10.26,7.85,25.62-2.04,34.7Z"/>
  <path d="M621.71,120.71c-7.27,6.68-18.14,8.67-27.61,4.18-17.92-8.48-36.99-13.1-56.68-13.73-29.81-.95-48.57-.2-55.74,2.25-13.07,4.46-27.28-2.51-31.74-15.58-4.46-13.07,2.51-27.28,15.58-31.74,16.14-5.51,41.05-5.95,73.5-4.91,26.59.85,52.32,7.08,76.47,18.51,12.48,5.91,17.81,20.81,11.9,33.29-1.42,3.01-3.37,5.6-5.68,7.72Z"/>
  <path d="M253.92,256.34c-5.36,4.92-12.81,7.47-20.57,6.33-46.37-6.84-90.24-22.49-130.37-46.52-37.77-22.61-70.65-51.73-97.72-86.54-8.48-10.9-6.51-26.61,4.39-35.08,10.9-8.48,26.61-6.51,35.08,4.39,23.25,29.91,51.49,54.92,83.93,74.33,34.47,20.64,72.15,34.08,111.99,39.95,13.66,2.01,23.1,14.72,21.08,28.38-.87,5.9-3.74,11.02-7.81,14.76Z"/>
  <path d="M299.37,48.83s19.14-27.23,32.54-39.59c1.74-1.61,4.53-.11,4.11,2.23-.97,5.45-2.2,14.15-2.81,25.68"/>
  <path d="M360.27,33.8S395.98,9.15,414.03.26c2.19-1.08,4.44,1.34,3.22,3.45-5.74,9.85-15.96,28.62-15.9,37.22"/>
  <ellipse cx="264.51" cy="120.85" rx="14.96" ry="11.23" transform="translate(55.88 323.45) rotate(-68.71)"/>
  <ellipse cx="315.14" cy="129.4" rx="16.88" ry="11.06" transform="translate(80.16 376.07) rotate(-68.71)"/>
  <path class="cls-1" d="M286.12,197.44c1.23-1.95,2.54-4.04,3.84-6.13.86-1.37,1.77-2.7,2.55-4.11.8-1.43.12-2.48-1.58-2.56-.32-.02-.65,0-.97.01-4.73.16-9.46.31-14.19.48-.84.03-1.77-.09-2.3.82-.62,1.06.08,1.84.64,2.62,1.77,2.44,3.56,4.86,5.32,7.3.37.51.67,1.08,1.09,1.76-1.88,5.1-5.7,7.67-10.9,8.24-4.42.48-8.26-.99-11.32-4.31-.51-.55-.98-1.14-1.55-1.62-.56-.47-1.5-.38-2.11.08-.68.51-.95,1.23-.68,1.99.25.69.67,1.35,1.14,1.91,6.56,7.9,19.55,7.99,26.22.18.63-.73,1.19-1.52,1.87-2.39.89.28,1.24,1.11,1.78,1.69,4.81,5.14,12.57,6.29,18.62,2.74,1.7-.99,3.15-2.25,4.2-3.93.61-.98.45-1.93-.34-2.6-.72-.61-1.65-.67-2.35-.05-.64.57-1.15,1.27-1.78,1.86-5.36,5.02-14.2,3.09-17.22-3.98Z"/>
  <line class="cls-2" x1="168.26" y1="153.28" x2="196.97" y2="144.56"/>
  <line class="cls-2" x1="154.68" y1="120.8" x2="193.89" y2="133.95"/>
  <line class="cls-2" x1="175.58" y1="105.31" x2="206.66" y2="119.21"/>
</svg>