<?xml version="1.0" encoding="UTF-8"?>
<svg id="Layer_1" data-name="Layer 1" xmlns="http://www.w3.org/2000/svg" viewBox="0 0 1021.86 755.74">
  <defs>
    <style>
      .cls-1 {
        fill: #fff;
      }
    </style>
  </defs>
  <g>
    <path d="M348.08,408.93c-32.72-68.2-35.28-136.78-5.5-206.14,31.91-68.21,84.58-111.99,156.91-132.94,1.3-6.5,2.62-13,3.9-19.5,2.81-14.23,5.59-28.47,8.42-42.71.27-1.37.55-2.81,1.18-4.02,2.02-3.86,7.08-4.84,10.3-1.92,1.47,1.33,2.59,3.08,3.76,4.71,11.66,16.2,23.29,32.42,34.96,48.62,1.88,2.61,3.9,5.12,5.89,7.72,14.01.65,27.74,2.54,41.64,5.18,1.06-2.31,2.02-4.27,2.88-6.27,7.3-16.83,14.58-33.66,21.88-50.49.8-1.85,1.53-3.75,2.53-5.49,1.43-2.49,3.71-3.61,6.61-3.34,2.66.24,4.56,1.63,5.54,4.06.75,1.86,1.31,3.81,1.81,5.76,4.96,19.11,9.88,38.24,14.83,57.35,1.46,5.66,3.18,11.26,4.38,16.97.7,3.32,2.46,5.17,5.32,6.76,15.04,8.36,28.96,18.32,41.71,29.88,39.36,35.72,64.61,79.53,74.63,131.81,24.38,127.1-56.6,246.47-177.37,275.34-25.34,6.06-50.98,7.84-76.87,5.57-19.75-1.73-39.03-5.9-57.72-12.65-1.71-.62-3.42-1.2-5.14-1.77-.37-.12-.79-.13-1.6-.25-.93.5-2.17,1.12-3.36,1.82-12.7,7.45-25.9,8.38-39.46,2.78-19.01-7.84-38.16-15.27-57.76-21.54-17.49-5.59-35.18-10.33-53.27-13.55-12.73-2.27-25.53-3.79-38.5-2.97-9.52.6-18.77,2.42-27.64,6.02-4.69,1.9-9.11,4.31-13.15,7.38-12.7,9.66-18.46,22.53-17.68,38.39.32,6.49,1.71,12.76,3.82,18.9,4.2,12.22,7.49,24.69,9.37,37.49,4.21,28.6,3.02,56.78-7.88,83.9-14.34,35.64-39.74,59.7-76.64,70.98-22.78,6.96-45.78,6.3-68.64.14-25.82-6.95-48.42-19.96-68.02-37.93-13.03-11.95-17.2-27.13-11.9-44.11,5.22-16.71,17.1-26.6,34.28-29.49,11.63-1.96,22.43.92,31.96,8.05,1.93,1.45,3.73,3.08,5.61,4.61,8.19,6.68,17.06,12.21,27.19,15.44,7.16,2.28,14.44,3.51,22.03,2.09,9.05-1.69,15.99-6.37,21.08-13.92,3.67-5.44,5.67-11.54,6.86-17.94,1.92-10.27,1.23-20.48-.55-30.68-1.32-7.56-3.51-14.89-5.95-22.17-5.35-15.99-8.38-32.4-8.02-49.3.92-43.89,19.15-78.89,54.59-104.75,18.05-13.17,38.46-21.07,60.31-25.28,20.95-4.04,42.05-4.73,63.2-1.66,9.97,1.45,19.88,3.23,29.83,4.83.96.15,1.94.14,3.44.25ZM610.59,141.28c-3.22.44-6.35,1.16-9.48,1.22-3.47.07-6.72-1.15-9.69-3.02-2.79-1.76-5.18-4-6.52-6.99-1.38-3.08-2.26-6.4-3.35-9.61-6.2-.77-24.07-.56-28.2.34-1.47,12.48,7.87,25.8,21.16,30.31,13.43,4.56,30.15-.94,36.08-12.25ZM641.84,122.82c-3.26,11.42,3.67,26.45,17.72,31.54,11.88,4.31,26.4-.12,31.47-9.84-.95.09-1.71.16-2.46.24-11.17,1.32-20.14-7.88-19.41-18.06.09-1.32.61-2.78-.51-3.96-5.37-.68-20.97-.66-26.8.08ZM646.2,178.48s0-.09,0-.13c-3.42,0-6.84-.04-10.26.02-.98.02-2,.21-2.92.55-1.05.39-1.5,1.35-1.22,2.44.19.75.57,1.5,1.02,2.15,3.65,5.3,7.33,10.58,11.02,15.85.34.49.77.93,1.21,1.33.88.79,2.63.86,3.27-.1,4.13-6.17,8.23-12.37,12.21-18.64.81-1.28-.18-2.9-1.69-3.18-.98-.18-1.99-.27-2.99-.28-3.22-.03-6.44-.01-9.66-.01Z"/>
    <path class="cls-1" d="M610.59,141.28c-5.93,11.31-22.65,16.81-36.08,12.25-13.29-4.51-22.63-17.83-21.16-30.31,4.13-.9,22-1.12,28.2-.34,1.1,3.21,1.97,6.53,3.35,9.61,1.34,2.98,3.73,5.23,6.52,6.99,2.96,1.87,6.22,3.08,9.69,3.02,3.13-.06,6.26-.78,9.48-1.22Z"/>
    <path class="cls-1" d="M641.84,122.82c5.84-.74,21.44-.76,26.8-.08,1.13,1.18.61,2.64.51,3.96-.72,10.18,8.24,19.38,19.41,18.06.75-.09,1.51-.15,2.46-.24-5.06,9.72-19.59,14.15-31.47,9.84-14.05-5.1-20.98-20.12-17.72-31.54Z"/>
    <path class="cls-1" d="M646.2,178.48c3.22,0,6.44-.02,9.66.01,1,.01,2.01.1,2.99.28,1.52.28,2.51,1.9,1.69,3.18-3.99,6.27-8.08,12.47-12.21,18.64-.64.96-2.4.89-3.27.1-.44-.4-.87-.84-1.21-1.33-3.69-5.27-7.37-10.55-11.02-15.85-.45-.65-.82-1.39-1.02-2.15-.28-1.09.17-2.05,1.22-2.44.92-.34,1.94-.53,2.92-.55,3.42-.06,6.84-.02,10.26-.02,0,.04,0,.09,0,.13Z"/>
  </g>
  <path d="M637.22,377.45c-17.71-5.62-41.55-21.07-42.42-40.59-1.05-23.45,17.1-43.31,40.55-44.36,36.72-1.65,70.48-8.01,103.22-19.43,35.52-12.4,59.61-26.3,75.82-43.75,8.44-9.09,15.84-20.58,22.57-31.64,1.47-2.42,2.97-5.02,4.56-7.77,1.67-2.9,14-23.54,28.45-38.51,7.97-8.26,24.14-25.02,49.22-31.58,4.27-1.12,4.05-.7,52.61-.19,25.52.27,31.26.21,37.53,5.11,11.29,8.81,14.41,25.94,11.52,39.21-.26,1.17-5.04,21.98-22.5,29.22-18.86,7.83-30.53-8.66-49.02.26-9.18,4.42-15.98,13.14-21.57,20.31-5.37,6.89-11.41,16.57-12.61,18.65-1.77,3.06-3.59,6.23-5.58,9.5-9.06,14.88-19.31,30.67-32.9,45.3-25.99,27.99-60.97,49.01-110.08,66.15-11.08,3.87-19.51,6.3-36.42,10.95-48.02,13.22-72.44,19.69-92.93,13.19Z"/>
  <path class="cls-1" d="M642.14,197.14c-1.92-2.84-3.97-5.87-6.02-8.9-1.34-1.99-2.76-3.93-3.99-5.98-1.26-2.09-.3-3.68,2.22-3.88.48-.04.96-.03,1.44-.03,7.03,0,14.07,0,21.1,0,1.26,0,2.63-.22,3.45,1.11.97,1.55-.03,2.74-.82,3.92-2.5,3.71-5.04,7.4-7.54,11.11-.53.78-.94,1.64-1.53,2.67,3.04,7.47,8.85,11.11,16.6,11.69,6.59.49,12.22-1.88,16.59-6.97.73-.84,1.41-1.74,2.23-2.48.8-.72,2.2-.64,3.13,0,1.04.72,1.47,1.79,1.1,2.92-.34,1.03-.93,2.03-1.6,2.9-9.35,12.07-28.64,12.84-38.93,1.58-.96-1.06-1.84-2.19-2.89-3.46-1.3.46-1.78,1.72-2.55,2.6-6.89,7.87-18.36,9.97-27.52,5-2.57-1.39-4.8-3.18-6.43-5.63-.95-1.42-.77-2.85.38-3.88,1.04-.94,2.41-1.08,3.49-.19.98.81,1.78,1.83,2.73,2.67,8.21,7.19,21.24,3.87,25.37-6.77Z"/>
</svg>