<?xml version="1.0" encoding="UTF-8"?>
<svg id="Layer_1" data-name="Layer 1" xmlns="http://www.w3.org/2000/svg" viewBox="0 0 751.59 711.9">
  <defs>
    <style>
      .cls-1 {
        opacity: .6;
      }

      .cls-2 {
        fill: #53af02;
      }

      .cls-3 {
        fill: #010101;
      }

      .cls-4 {
        opacity: .3;
      }

      .cls-5 {
        fill: #fff;
      }

      .cls-6 {
        opacity: .3;
      }

      .cls-6, .cls-7 {
        fill: #0f227a;
      }

      .cls-8 {
        fill: #30b2e7;
      }

      .cls-9 {
        fill: #00bdff;
      }

      .cls-10 {
        fill: #35ef4b;
      }

      .cls-11 {
        fill: #001b42;
      }

      .cls-12 {
        fill: none;
        stroke: #fff;
        stroke-miterlimit: 10;
        stroke-width: 1.63px;
      }
    </style>
  </defs>
  <g>
    <g>
      <path class="cls-8" d="M700.65,598.7c.02.79-.05,1.56-.21,2.31-.15.75-.39,1.48-.69,2.17-.24.72-.56,1.37-.96,1.97-.4.6-.86,1.14-1.39,1.63-1.18.89-2.33,1.85-3.67,2.33-.68.29-1.38.54-2.08.74-.71.21-1.42.37-2.12.5.88.02,1.71.15,2.48.37.92.26,1.74.63,2.46,1.11,3.85,2.53,5.18,7.12,6.9,11.13.38-3.82,1.72-7.83,5-10.34.62-.49,1.29-.92,2-1.29,1.41-.74,2.98-1.21,4.65-1.36-4.01,0-8.02-1.91-10.29-5.4-.37-.52-.7-1.07-.99-1.64-.41-.86-.72-1.78-.9-2.74-.09-.51-.15-1.01-.21-1.49Z"/>
      <path class="cls-8" d="M697.79,598.7c.01.54-.02,1.08-.09,1.61.03-.25.07-.51.1-.76-.13.93-.38,1.84-.74,2.71.1-.23.19-.46.29-.68-.21.49-.39,1-.6,1.49.1-.23.19-.46.29-.68-.28.65-.64,1.26-1.07,1.82.15-.19.3-.39.45-.58-.32.41-.66.79-1.04,1.14.19-.15.39-.3.58-.45-1.07.81-2.12,1.68-3.36,2.21.23-.1.46-.19.68-.29-.36.15-.72.29-1.08.44.23-.1.46-.19.68-.29-1.32.56-2.7.95-4.11,1.21-.37.09-.7.26-.97.51-.31.2-.56.47-.74.8-.1.23-.19.46-.29.68-.12.38-.14.76-.05,1.14,0,.26.07.5.2.72.12.36.31.66.59.92.57.52,1.24.81,2.03.84.39.01.77.04,1.15.09-.25-.03-.51-.07-.76-.1.84.12,1.66.34,2.45.67-.23-.1-.46-.19-.68-.29.71.31,1.37.71,1.99,1.18-.19-.15-.39-.3-.58-.45.76.59,1.43,1.29,2.03,2.05-.15-.19-.3-.39-.45-.58,1.18,1.54,2.02,3.3,2.77,5.07-.1-.23-.19-.46-.29-.68.59,1.4,1.15,2.82,1.74,4.22.15.19.3.39.45.58.26.28.57.48.92.59.57.24,1.26.34,1.87.14.47-.15.9-.4,1.26-.74.28-.26.48-.57.59-.92.18-.34.26-.71.25-1.1.03-.26.06-.52.09-.78-.03.25-.07.51-.1.76.22-1.59.6-3.17,1.22-4.65-.1.23-.19.46-.29.68.43-1.02.98-1.99,1.65-2.87-.15.19-.3.39-.45.58.58-.74,1.24-1.41,1.98-1.99-.19.15-.39.3-.58.45.26-.2.52-.4.77-.6-.19.15-.39.3-.58.45.85-.65,1.78-1.19,2.76-1.61-.23.1-.46.19-.68.29,1.01-.43,2.07-.72,3.15-.87-.25.03-.51.07-.76.1.2-.03.4-.05.6-.07.39.01.76-.07,1.1-.25.36-.12.66-.31.92-.59.5-.5.87-1.31.84-2.03-.03-.74-.28-1.51-.84-2.03-.56-.52-1.25-.84-2.03-.84-.57,0-1.15-.04-1.71-.12.25.03.51.07.76.1-1.11-.15-2.2-.45-3.24-.88.23.1.46.19.68.29-.97-.41-1.89-.94-2.72-1.58.19.15.39.3.58.45-.79-.61-1.49-1.31-2.1-2.1.15.19.3.39.45.58-.67-.88-1.28-1.82-1.71-2.84.1.23.19.46.29.68-.41-.99-.66-2.01-.81-3.07.03.25.07.51.1.76-.03-.23-.06-.46-.09-.69.01-.39-.07-.76-.25-1.1-.12-.36-.31-.66-.59-.92-.5-.5-1.31-.87-2.03-.84-.74.03-1.51.28-2.03.84-.48.52-.92,1.29-.84,2.03.11.93.2,1.87.42,2.78.22.9.56,1.75.93,2.59.28.64.64,1.24,1.03,1.81.46.67.94,1.34,1.48,1.96.9,1.03,1.99,1.92,3.15,2.65,1.15.73,2.44,1.29,3.74,1.69,1.45.44,2.99.66,4.5.66v-5.73c-1.48.13-2.94.4-4.32.96-.77.31-1.54.64-2.26,1.06-.74.43-1.42.94-2.09,1.47.19-.15.39-.3.58-.45-.82.63-1.6,1.27-2.27,2.06-.65.76-1.25,1.58-1.75,2.45-.87,1.55-1.51,3.26-1.9,5-.24,1.09-.39,2.2-.51,3.3,1.78-.48,3.56-.96,5.34-1.45-.04-.09-.07-.17-.11-.26.1.23.19.46.29.68-.99-2.34-1.83-4.76-3.07-6.98-.66-1.19-1.46-2.32-2.37-3.34-.38-.42-.78-.81-1.22-1.17-.65-.53-1.32-1.06-2.06-1.46-1.78-.97-3.76-1.44-5.77-1.5.25,1.88.51,3.75.76,5.63,1.7-.31,3.3-.85,4.88-1.53-.23.1-.46.19-.68.29.91-.33,1.78-.75,2.58-1.3.71-.48,1.38-1.02,2.06-1.54.85-.65,1.54-1.55,2.13-2.43.54-.82.94-1.73,1.25-2.66-.1.23-.19.46-.29.68.4-.93.78-1.86.98-2.86.21-1.01.33-2.05.31-3.07-.02-.74-.31-1.5-.84-2.03-.5-.5-1.31-.87-2.03-.84-.74.03-1.51.28-2.03.84-.51.55-.86,1.26-.84,2.03Z"/>
    </g>
    <g>
      <path class="cls-5" d="M738.04,557.88c.02.7-.05,1.39-.18,2.06s-.34,1.31-.61,1.93c-.21.64-.5,1.22-.85,1.75-.35.53-.77,1.01-1.23,1.45-1.05.79-2.07,1.64-3.26,2.07-.6.26-1.22.48-1.85.66-.63.18-1.26.33-1.88.44.78.02,1.52.14,2.21.33.82.23,1.54.56,2.18.99,3.42,2.25,4.61,6.32,6.13,9.89.34-3.39,1.53-6.96,4.45-9.19.55-.44,1.15-.82,1.78-1.15,1.26-.66,2.65-1.08,4.13-1.21-3.56,0-7.13-1.7-9.14-4.8-.33-.46-.62-.95-.88-1.46-.37-.77-.64-1.58-.8-2.44-.08-.45-.13-.9-.18-1.33Z"/>
      <path class="cls-5" d="M735.5,557.88c.01.48-.02.96-.08,1.43.03-.23.06-.45.09-.68-.11.83-.34,1.64-.66,2.41.09-.2.17-.41.26-.61-.19.44-.35.89-.53,1.32.09-.2.17-.41.26-.61-.25.58-.57,1.12-.95,1.62.13-.17.27-.34.4-.52-.28.36-.59.7-.92,1.01.17-.13.34-.27.52-.4-.95.72-1.88,1.49-2.99,1.96.2-.09.41-.17.61-.26-.32.13-.64.26-.96.39.2-.09.41-.17.61-.26-1.17.49-2.4.84-3.66,1.07-.33.08-.62.23-.87.46-.28.18-.5.42-.66.71-.09.2-.17.41-.26.61-.11.34-.12.68-.05,1.02,0,.23.06.44.17.64.1.32.28.59.53.82.51.47,1.1.72,1.8.75.34.01.68.04,1.03.08-.23-.03-.45-.06-.68-.09.75.11,1.48.3,2.17.59l-.61-.26c.63.27,1.22.63,1.77,1.05-.17-.13-.34-.27-.52-.4.68.53,1.27,1.14,1.8,1.82-.13-.17-.27-.34-.4-.52,1.05,1.37,1.79,2.93,2.46,4.51l-.26-.61c.52,1.25,1.02,2.51,1.55,3.75.13.17.27.34.4.52.23.25.5.42.82.53.51.21,1.12.3,1.66.13.42-.14.8-.36,1.12-.65.25-.23.42-.5.53-.82.16-.3.23-.63.22-.98.02-.23.05-.46.08-.69-.03.23-.06.45-.09.68.19-1.42.53-2.81,1.09-4.14-.09.2-.17.41-.26.61.39-.91.87-1.77,1.47-2.55-.13.17-.27.34-.4.52.51-.66,1.1-1.25,1.76-1.77-.17.13-.34.27-.52.4.23-.18.46-.35.69-.53-.17.13-.34.27-.52.4.76-.58,1.58-1.06,2.45-1.43-.2.09-.41.17-.61.26.9-.38,1.84-.64,2.8-.77l-.68.09c.18-.02.36-.04.53-.06.35.01.68-.06.98-.22.32-.1.59-.28.82-.53.44-.44.77-1.17.75-1.8-.03-.66-.25-1.34-.75-1.8-.5-.46-1.11-.74-1.8-.75-.51,0-1.02-.04-1.52-.1l.68.09c-.99-.14-1.96-.4-2.88-.78.2.09.41.17.61.26-.86-.37-1.68-.83-2.42-1.4.17.13.34.27.52.4-.7-.54-1.33-1.17-1.87-1.86.13.17.27.34.4.52-.59-.78-1.14-1.62-1.52-2.52.09.2.17.41.26.61-.37-.88-.59-1.78-.72-2.72l.09.68c-.03-.21-.05-.41-.08-.62.01-.35-.06-.68-.22-.98-.1-.32-.28-.59-.53-.82-.44-.44-1.17-.77-1.8-.75-.66.03-1.34.25-1.8.75-.43.46-.82,1.14-.75,1.8.1.82.18,1.66.37,2.47.19.8.5,1.55.83,2.3.25.56.57,1.1.92,1.61.41.6.84,1.19,1.31,1.74.8.92,1.77,1.71,2.8,2.36,1.02.65,2.17,1.15,3.32,1.5,1.28.39,2.66.58,4,.59v-5.09c-1.32.12-2.61.35-3.84.85-.69.28-1.37.57-2.01.94-.66.38-1.26.84-1.86,1.31.17-.13.34-.27.52-.4-.73.56-1.42,1.13-2.02,1.83-.58.68-1.11,1.4-1.55,2.18-.78,1.38-1.34,2.9-1.68,4.44-.22.97-.35,1.95-.45,2.93,1.58-.43,3.16-.86,4.74-1.28-.03-.08-.06-.15-.1-.23.09.2.17.41.26.61-.88-2.08-1.63-4.23-2.73-6.2-.59-1.06-1.3-2.06-2.1-2.96-.34-.37-.7-.72-1.09-1.04-.58-.47-1.18-.94-1.83-1.3-1.58-.86-3.34-1.28-5.13-1.34.23,1.67.45,3.33.68,5,1.51-.28,2.93-.76,4.34-1.36-.2.09-.41.17-.61.26.81-.3,1.58-.66,2.29-1.15.63-.43,1.23-.91,1.83-1.37.75-.58,1.37-1.38,1.89-2.16.48-.72.83-1.54,1.11-2.36-.09.2-.17.41-.26.61.36-.83.69-1.65.87-2.54.18-.89.29-1.82.27-2.73-.01-.66-.27-1.33-.75-1.8-.44-.44-1.17-.77-1.8-.75-.66.03-1.34.25-1.8.75-.45.49-.76,1.12-.75,1.8Z"/>
    </g>
    <g>
      <path class="cls-8" d="M484.21,75.73c.02.75-.05,1.48-.19,2.19-.15.71-.37,1.4-.66,2.06-.23.68-.53,1.3-.91,1.87-.38.57-.82,1.08-1.32,1.54-1.12.85-2.2,1.75-3.47,2.2-.64.28-1.3.51-1.97.71-.67.19-1.34.35-2.01.47.84.02,1.62.14,2.35.35.87.24,1.64.6,2.33,1.05,3.65,2.4,4.91,6.74,6.54,10.54.36-3.62,1.63-7.42,4.74-9.8.59-.46,1.22-.88,1.89-1.22,1.34-.7,2.82-1.15,4.41-1.29-3.8,0-7.6-1.81-9.75-5.12-.35-.49-.66-1.01-.93-1.55-.39-.82-.68-1.69-.85-2.6-.08-.48-.14-.95-.19-1.42Z"/>
      <path class="cls-8" d="M481.49,75.73c.01.51-.02,1.02-.08,1.53.03-.24.06-.48.1-.72-.12.89-.36,1.74-.7,2.57.09-.22.18-.43.27-.65-.2.47-.37.94-.57,1.41.09-.22.18-.43.27-.65-.27.61-.6,1.19-1.01,1.72.14-.18.28-.37.42-.55-.3.39-.63.75-.98,1.08l.55-.42c-1.01.77-2.01,1.59-3.18,2.09.22-.09.43-.18.65-.27-.34.14-.68.28-1.02.42.22-.09.43-.18.65-.27-1.25.53-2.56.9-3.9,1.14-.35.08-.66.25-.92.49-.3.19-.53.45-.7.76-.09.22-.18.43-.27.65-.11.36-.13.72-.05,1.08,0,.25.06.47.19.69.11.34.3.63.56.87.54.5,1.18.77,1.92.8.37.01.73.04,1.09.09-.24-.03-.48-.06-.72-.1.8.11,1.58.32,2.32.63-.22-.09-.43-.18-.65-.27.68.29,1.3.67,1.89,1.12l-.55-.42c.72.56,1.36,1.22,1.92,1.94l-.42-.55c1.12,1.46,1.91,3.12,2.63,4.81-.09-.22-.18-.43-.27-.65.56,1.33,1.09,2.67,1.65,4l.42.55c.25.26.54.45.87.56.54.23,1.19.32,1.77.14.45-.14.85-.38,1.2-.7.26-.25.45-.54.56-.87.17-.32.25-.67.23-1.05.02-.25.05-.49.09-.73-.03.24-.06.48-.1.72.21-1.51.57-3,1.16-4.41-.09.22-.18.43-.27.65.41-.97.93-1.89,1.57-2.72-.14.18-.28.37-.42.55.55-.7,1.17-1.34,1.87-1.88-.18.14-.37.28-.55.42.24-.19.49-.38.73-.57-.18.14-.37.28-.55.42.81-.62,1.68-1.13,2.62-1.53-.22.09-.43.18-.65.27.96-.4,1.96-.68,2.99-.82-.24.03-.48.06-.72.1.19-.02.38-.05.57-.06.37.01.72-.06,1.05-.23.34-.11.63-.3.87-.56.47-.47.83-1.24.8-1.92-.03-.7-.26-1.43-.8-1.92-.53-.49-1.18-.79-1.92-.8-.54,0-1.09-.04-1.62-.11.24.03.48.06.72.1-1.06-.15-2.09-.43-3.07-.84.22.09.43.18.65.27-.92-.39-1.79-.89-2.58-1.5.18.14.37.28.55.42-.75-.58-1.41-1.24-1.99-1.99.14.18.28.37.42.55-.63-.83-1.21-1.73-1.62-2.69.09.22.18.43.27.65-.39-.94-.63-1.9-.77-2.9.03.24.06.48.1.72-.03-.22-.06-.44-.08-.66.01-.37-.06-.72-.23-1.05-.11-.34-.3-.63-.56-.87-.47-.47-1.24-.83-1.92-.8-.7.03-1.43.26-1.92.8-.45.5-.88,1.22-.8,1.92.1.88.19,1.77.4,2.63.2.85.53,1.66.88,2.45.27.6.61,1.17.98,1.72.44.64.89,1.27,1.4,1.85.85.98,1.89,1.82,2.98,2.51,1.09.69,2.31,1.22,3.54,1.6,1.37.42,2.84.62,4.27.63v-5.43c-1.4.13-2.79.38-4.1.91-.73.3-1.46.61-2.14,1-.7.41-1.34.89-1.98,1.4.18-.14.37-.28.55-.42-.78.6-1.52,1.2-2.15,1.95-.61.72-1.19,1.5-1.66,2.32-.83,1.47-1.43,3.09-1.8,4.74-.23,1.03-.37,2.08-.48,3.13,1.69-.46,3.37-.91,5.06-1.37-.03-.08-.07-.16-.1-.24.09.22.18.43.27.65-.93-2.22-1.74-4.51-2.91-6.62-.63-1.13-1.38-2.2-2.24-3.16-.36-.4-.74-.77-1.16-1.11-.62-.5-1.26-1-1.96-1.38-1.68-.92-3.56-1.37-5.47-1.43.24,1.78.48,3.56.72,5.33,1.61-.3,3.12-.81,4.63-1.45-.22.09-.43.18-.65.27.87-.32,1.68-.71,2.44-1.23.67-.46,1.31-.97,1.95-1.46.8-.62,1.46-1.47,2.01-2.31.51-.77.89-1.64,1.18-2.52-.09.22-.18.43-.27.65.38-.88.74-1.76.93-2.71.19-.95.31-1.94.29-2.91-.01-.71-.29-1.42-.8-1.92-.47-.47-1.24-.83-1.92-.8-.7.03-1.43.26-1.92.8-.48.52-.81,1.19-.8,1.92Z"/>
    </g>
    <g>
      <path class="cls-5" d="M532.1,34.53c.02.7-.05,1.39-.18,2.06s-.34,1.31-.61,1.93c-.21.64-.5,1.22-.85,1.75-.35.53-.77,1.01-1.23,1.45-1.05.79-2.07,1.64-3.26,2.07-.6.26-1.22.48-1.85.66-.63.18-1.26.33-1.88.44.78.02,1.52.14,2.21.33.82.23,1.54.56,2.18.99,3.42,2.25,4.61,6.32,6.13,9.89.34-3.39,1.53-6.96,4.45-9.19.55-.44,1.15-.82,1.78-1.15,1.26-.66,2.65-1.08,4.13-1.21-3.56,0-7.13-1.7-9.14-4.8-.33-.46-.62-.95-.88-1.46-.37-.77-.64-1.58-.8-2.44-.08-.45-.13-.9-.18-1.33Z"/>
      <path class="cls-5" d="M529.55,34.53c.01.48-.02.96-.08,1.43.03-.23.06-.45.09-.68-.11.83-.34,1.64-.66,2.41.09-.2.17-.41.26-.61-.19.44-.35.89-.53,1.32l.26-.61c-.25.58-.57,1.12-.95,1.62.13-.17.27-.34.4-.52-.28.36-.59.7-.92,1.01.17-.13.34-.27.52-.4-.95.72-1.88,1.49-2.99,1.96.2-.09.41-.17.61-.26-.32.13-.64.26-.96.39.2-.09.41-.17.61-.26-1.17.49-2.4.84-3.66,1.07-.33.08-.62.23-.87.46-.28.18-.5.42-.66.71-.09.2-.17.41-.26.61-.11.34-.12.68-.05,1.02,0,.23.06.44.17.64.1.32.28.59.53.82.51.47,1.1.72,1.8.75.34.01.68.04,1.03.08-.23-.03-.45-.06-.68-.09.75.11,1.48.3,2.17.59-.2-.09-.41-.17-.61-.26.63.27,1.22.63,1.77,1.05-.17-.13-.34-.27-.52-.4.68.53,1.27,1.14,1.8,1.82-.13-.17-.27-.34-.4-.52,1.05,1.37,1.79,2.93,2.46,4.51-.09-.2-.17-.41-.26-.61.52,1.25,1.02,2.51,1.55,3.75.13.17.27.34.4.52.23.25.5.42.82.53.51.21,1.12.3,1.66.13.42-.14.8-.36,1.12-.65.25-.23.42-.5.53-.82.16-.3.23-.63.22-.98.02-.23.05-.46.08-.69-.03.23-.06.45-.09.68.19-1.42.53-2.81,1.09-4.14-.09.2-.17.41-.26.61.39-.91.87-1.77,1.47-2.55-.13.17-.27.34-.4.52.51-.66,1.1-1.25,1.76-1.77-.17.13-.34.27-.52.4.23-.18.46-.35.69-.53-.17.13-.34.27-.52.4.76-.58,1.58-1.06,2.45-1.43-.2.09-.41.17-.61.26.9-.38,1.84-.64,2.8-.77-.23.03-.45.06-.68.09.18-.02.36-.04.53-.06.35.01.68-.06.98-.22.32-.1.59-.28.82-.53.44-.44.77-1.17.75-1.8-.03-.66-.25-1.34-.75-1.8-.5-.46-1.11-.74-1.8-.75-.51,0-1.02-.04-1.52-.1l.68.09c-.99-.14-1.96-.4-2.88-.78.2.09.41.17.61.26-.86-.37-1.68-.83-2.42-1.4.17.13.34.27.52.4-.7-.54-1.33-1.17-1.87-1.86.13.17.27.34.4.52-.59-.78-1.14-1.62-1.52-2.52.09.2.17.41.26.61-.37-.88-.59-1.78-.72-2.72l.09.68c-.03-.21-.05-.41-.08-.62.01-.35-.06-.68-.22-.98-.1-.32-.28-.59-.53-.82-.44-.44-1.17-.77-1.8-.75-.66.03-1.34.25-1.8.75-.43.46-.82,1.14-.75,1.8.1.82.18,1.66.37,2.47.19.8.5,1.55.83,2.3.25.56.57,1.1.92,1.61.41.6.84,1.19,1.31,1.74.8.92,1.77,1.71,2.8,2.36,1.02.65,2.17,1.15,3.32,1.5,1.28.39,2.66.58,4,.59v-5.09c-1.32.12-2.61.35-3.84.85-.69.28-1.37.57-2.01.94-.66.38-1.26.84-1.86,1.31.17-.13.34-.27.52-.4-.73.56-1.42,1.13-2.02,1.83-.58.68-1.11,1.4-1.55,2.18-.78,1.38-1.34,2.9-1.68,4.44-.22.97-.35,1.95-.45,2.93,1.58-.43,3.16-.86,4.74-1.28-.03-.08-.06-.15-.1-.23.09.2.17.41.26.61-.88-2.08-1.63-4.23-2.73-6.2-.59-1.06-1.3-2.06-2.1-2.96-.34-.37-.7-.72-1.09-1.04-.58-.47-1.18-.94-1.83-1.3-1.58-.86-3.34-1.28-5.13-1.34.23,1.67.45,3.33.68,5,1.51-.28,2.93-.76,4.34-1.36-.2.09-.41.17-.61.26.81-.3,1.58-.66,2.29-1.15.63-.43,1.23-.91,1.83-1.37.75-.58,1.37-1.38,1.89-2.16.48-.72.83-1.54,1.11-2.36-.09.2-.17.41-.26.61.36-.83.69-1.65.87-2.54.18-.89.29-1.82.27-2.73-.01-.66-.27-1.33-.75-1.8-.44-.44-1.17-.77-1.8-.75-.66.03-1.34.25-1.8.75-.45.49-.76,1.12-.75,1.8Z"/>
    </g>
    <g>
      <path class="cls-2" d="M480.3,26.97c.01.58-.04,1.16-.15,1.71s-.29,1.09-.51,1.61c-.18.53-.42,1.02-.71,1.46-.29.44-.64.84-1.03,1.21-.87.66-1.72,1.37-2.71,1.72-.5.22-1.02.4-1.54.55-.52.15-1.05.27-1.57.37.65.02,1.27.11,1.84.27.68.19,1.28.47,1.82.82,2.85,1.87,3.84,5.27,5.11,8.24.28-2.83,1.27-5.8,3.7-7.65.46-.36.96-.68,1.48-.96,1.05-.55,2.21-.9,3.44-1.01-2.97,0-5.94-1.41-7.62-4-.27-.39-.52-.79-.73-1.21-.3-.64-.53-1.32-.67-2.03-.06-.38-.11-.75-.15-1.11Z"/>
      <path class="cls-2" d="M478.18,26.97c0,.4-.01.8-.06,1.19.03-.19.05-.38.08-.56-.1.69-.28,1.36-.55,2.01l.21-.51c-.15.37-.29.74-.45,1.1.07-.17.14-.34.21-.51-.21.48-.47.93-.79,1.35.11-.14.22-.29.33-.43-.23.3-.49.58-.77.84.14-.11.29-.22.43-.33-.79.6-1.57,1.24-2.49,1.63.17-.07.34-.14.51-.21-.27.11-.53.22-.8.33.17-.07.34-.14.51-.21-.98.41-2,.7-3.05.89-.28.07-.52.19-.72.38-.23.15-.41.35-.55.6-.07.17-.14.34-.21.51-.09.28-.1.56-.04.85,0,.19.05.37.14.54.09.26.23.49.44.68.42.39.92.6,1.5.62.29,0,.57.03.85.07-.19-.03-.38-.05-.56-.08.62.09,1.23.25,1.81.49-.17-.07-.34-.14-.51-.21.53.23,1.02.53,1.47.88l-.43-.33c.56.44,1.06.95,1.5,1.52-.11-.14-.22-.29-.33-.43.88,1.14,1.5,2.44,2.05,3.76-.07-.17-.14-.34-.21-.51.44,1.04.85,2.09,1.29,3.12.11.14.22.29.33.43.19.21.42.35.68.44.42.18.93.25,1.38.11.35-.11.67-.3.94-.55.21-.19.35-.42.44-.68.13-.25.19-.53.18-.82.02-.19.04-.38.07-.57-.03.19-.05.38-.08.56.16-1.18.44-2.34.91-3.45-.07.17-.14.34-.21.51.32-.76.72-1.47,1.22-2.13-.11.14-.22.29-.33.43.43-.55.91-1.04,1.46-1.47-.14.11-.29.22-.43.33.19-.15.38-.3.57-.44-.14.11-.29.22-.43.33.63-.48,1.32-.88,2.04-1.19-.17.07-.34.14-.51.21.75-.31,1.53-.53,2.33-.64-.19.03-.38.05-.56.08.15-.02.3-.04.44-.05.29.01.56-.05.82-.18.26-.09.49-.23.68-.44.37-.37.64-.97.62-1.5-.02-.55-.2-1.12-.62-1.5-.42-.38-.92-.62-1.5-.62-.42,0-.85-.03-1.27-.09.19.03.38.05.56.08-.82-.11-1.63-.33-2.4-.65.17.07.34.14.51.21-.72-.3-1.4-.7-2.02-1.17l.43.33c-.58-.45-1.1-.97-1.56-1.55.11.14.22.29.33.43-.49-.65-.95-1.35-1.27-2.1.07.17.14.34.21.51-.31-.73-.49-1.48-.6-2.27.03.19.05.38.08.56-.02-.17-.04-.34-.06-.51.01-.29-.05-.56-.18-.82-.09-.26-.23-.49-.44-.68-.37-.37-.97-.64-1.5-.62-.55.02-1.12.2-1.5.62-.36.39-.68.95-.62,1.5.08.69.15,1.38.31,2.05.16.66.42,1.29.69,1.92.21.47.47.92.76,1.34.34.5.7.99,1.09,1.45.66.77,1.48,1.42,2.33,1.96.85.54,1.8.96,2.77,1.25,1.07.33,2.22.49,3.33.49v-4.24c-1.1.1-2.18.29-3.2.71-.57.23-1.14.47-1.67.78-.55.32-1.05.7-1.55,1.09l.43-.33c-.61.47-1.19.94-1.68,1.52-.48.57-.93,1.17-1.29,1.82-.65,1.15-1.12,2.42-1.4,3.7-.18.8-.29,1.63-.37,2.44,1.32-.36,2.64-.71,3.95-1.07-.03-.06-.05-.13-.08-.19l.21.51c-.73-1.73-1.36-3.52-2.27-5.17-.49-.88-1.08-1.72-1.75-2.47-.28-.31-.58-.6-.9-.87-.48-.39-.98-.78-1.53-1.08-1.32-.72-2.78-1.07-4.27-1.11.19,1.39.38,2.78.56,4.17,1.26-.23,2.44-.63,3.61-1.13-.17.07-.34.14-.51.21.68-.25,1.31-.55,1.91-.96.52-.36,1.02-.75,1.53-1.14.63-.48,1.14-1.15,1.57-1.8.4-.6.69-1.28.92-1.97l-.21.51c.3-.69.58-1.38.73-2.12.15-.74.24-1.51.23-2.28-.01-.55-.23-1.11-.62-1.5-.37-.37-.97-.64-1.5-.62-.55.02-1.12.2-1.5.62-.38.41-.63.93-.62,1.5Z"/>
    </g>
    <g>
      <path class="cls-3" d="M464.37,270.6c-11.74-102.29-98.11-190.93-205.79-202.27-3.71-.39-7.41-.68-11.09-.88-11.23-22.9-37.06-50.5-52.22-65.61-3.85-3.84-10.48-1.3-10.71,4.14-.99,23.22-9.85,55.71-14.38,71.03-41.88,12.9-79.21,37.63-108.16,69.69-14.41-16.05-30.91-25.12-41.36-29.68-4.51-1.97-9.43,1.76-8.74,6.63,3.23,22.78,6.74,64.85,8.45,86.43-8.79,19.4-14.98,39.93-18.06,61.06-14.49,99.48,41.12,201.28,124.94,242.02,46.2,22.45,89.07,20.56,104.91,19.14,110.42-9.93,248.72-117.87,232.21-261.7Z"/>
      <g>
        <path class="cls-10" d="M616.1,181.49l-.04.05c-4.35,5.95-12.66,7.39-18.73,3.23-4.12-2.81-6.22-7.46-5.96-12.07.09-1.67.49-3.34,1.24-4.92,8.08,4.14,15.91,8.71,23.5,13.72Z"/>
        <path class="cls-2" d="M489.78,140.39c-.1.87-.24,1.73-.44,2.62-1.91,8.91-7.74,16.56-21.55,18.24-25.26,3.05-35.45-5.11-39.35-10.51-1.64-2.29-4.62-3.1-7.26-2.15-5.14,1.83-8.93,1.69-11.69.58,6.27-1.73,12.63-3.24,19.04-4.47,1.38.77,2.59,1.84,3.56,3.15,3.13,4.34,11.8,11.18,34.63,8.37,9.88-1.22,15.34-5.76,17.14-14.3.12-.58.23-1.17.31-1.75,1.85.05,3.73.13,5.6.22Z"/>
        <path class="cls-2" d="M484.19,140.18c-.09.58-.19,1.17-.31,1.75-1.8,8.53-7.26,13.07-17.14,14.3-22.83,2.8-31.5-4.03-34.63-8.37-.97-1.31-2.18-2.38-3.56-3.15,18.13-3.52,36.77-5.05,55.64-4.52Z"/>
        <path class="cls-9" d="M308.24,587.38s42.87,34.24,65.12,41.25c22.25,7.01,49.08-34.39,48.2-43.32s-25.26-24.02-39.32-27.59c-14.06-3.57-74,29.65-74,29.65Z"/>
        <path class="cls-10" d="M596.7,621.46c-39.75,20.68-85.39,31.29-133.36,28.64-36.91-2.04-71.58-11.71-102.58-27.42,14.03-3.99,28.49-9.63,43.37-16.91,2.01-.98,3.79-2.24,5.3-3.71h.02s.01,0,.01,0c.96-.56,45.61-26.62,97.32,1.71,52.26,28.63,48.38-17.74,89.91,17.69Z"/>
        <g>
          <path class="cls-9" d="M735.73,406.69s-2.43,3.07-6.11,5.13c-4.92,2.77-12.04,3.71-18.5-7.01-5.99-9.95-12.82-6.55-15.25-2.21-1.68,3.02-2.25,6.52-2.06,9.97.7,12.38-4.57,21.18-8.73,26.12-2.96,3.5-4.48,8-4.35,12.58,1.15,40.27-12.69,34.9-12.69,34.9-66.38-18.34,21.05-130.39-34.26-170.09-55.33-39.71,2.87-74.76-40.46-100.66-32.7-19.54-28.94-46.5-25.1-58.55,1.19-3.74,2.37-6.04,2.49-6.27v-.02c-21.65-8.33-44.74-13.89-68.87-16.15,0,0,1.56,2.73,2.65,7.1.54,2.12.95,4.62,1.03,7.38.02.33.02.67.02,1.02.02,8.94-3.58,20.4-17.98,30.58-28.9,20.46-28.23,52.65-13.49,78.47,14.76,25.83-8.04,53.26-38.15,44.97-30.14-8.27-35.14,52-13.08,70.11,22.07,18.13,7.21,75.66-53.68,78.58-19.58,31.7-57.84,64.13-111.08,67.29-1.7.11-3.4.18-5.11.21,14.53,25.37,33.25,48.11,55.27,67.22,2.15.05,4.33.04,6.54-.02h.02c21.29-.68,44.83-7.25,70.41-19.68,10.48-5.1,23.09-.75,28.2,9.73,4.12,8.48,2.05,18.32-4.43,24.48h.02c.96-.55,45.66-26.51,97.32,1.93,50.58,27.85,48.6-14.82,86.13,14.8,1.2.96,2.46,1.97,3.74,3.08,22.87-11.83,43.79-26.97,62.09-44.85v-.02c.01-.24.15-2.96.54-7.4,1.41-15.58,6.21-52.1,21.38-73.99,6.39-9.21,20.5-5.93,22.28,5.14.34,2.11.56,4.44.63,6.99.09,3.67-.16,7.8-.85,12.43,19.19-33.61,31.11-72.07,33.48-113.33ZM519.54,517.7c-45,28.86-28.04-10.6-20.06-26.44,1.98-3.97,2.67-8.45,1.89-12.81-3.46-19.8-10.53-76.48,21.58-77.33,38.94-1.06,17.4,31.43,47.44,30.33,30.03-1.09,4.58,50.73-50.85,86.24Z"/>
          <g>
            <path class="cls-10" d="M702.25,520.01c-12,20.99-26.83,40.1-43.96,56.84.05-1.05,2.43-53.3,21.91-81.38,6.39-9.22,20.5-5.94,22.27,5.14.83,5.18.97,11.58-.22,19.41Z"/>
            <path class="cls-10" d="M487.55,180.53c-28.9,20.46-28.23,52.65-13.49,78.47,14.76,25.83-8.04,53.26-38.15,44.97-30.14-8.27-35.14,52-13.08,70.11,22.07,18.13,7.21,75.66-53.68,78.58,16.74-27.08,19.82-53.66,6.93-60.95-33.11-18.76-68.63,26.41-68.63,26.41v.02c-7.51-6.41-18.14-12.09-33.15-15.41-22.18-4.87-38.44-.75-49.78,5.58-1.73.96-3.35,1.98-4.86,3.03-.39-5.43-.62-10.92-.68-16.46,1.72-.56,3.43-1.12,5.12-1.68,98.88-32.97,133.84-78.95,120.01-105.4-11.33-21.69-28.34-16.71-35.41-13.37-1.79.85-3.98.47-5.32-.97-12.17-13.02-34.04,16.2-39.95,24.71-1.05,1.51-2.44,2.72-4.07,3.53l-22.27,11.17-6.89,3.44c25.37-83.22,91.28-147.83,173.65-172.33,1.13,2.05,2.89,4.13,5.67,5.21,2.76,1.12,6.54,1.25,11.69-.58,2.64-.95,5.62-.15,7.26,2.15,3.91,5.41,14.09,13.56,39.35,10.51,13.8-1.68,19.64-9.33,21.55-18.24.19-.88.33-1.75.44-2.62.29-2.3.33-4.57.08-6.79.82.03,1.65.07,2.47.14,3.18.18,6.35.42,9.5.71,0,0,1.56,2.73,2.65,7.1.54,2.12.95,4.62,1.03,7.38.02.35.02.67.02,1.02.02,8.94-3.58,20.4-17.98,30.58Z"/>
            <path class="cls-10" d="M735.73,406.69s-.1.12-.29.33c-.1.12-.23.26-.39.43-.25.28-.58.64-1,1.02-.15.17-.35.35-.54.52-.23.21-.48.41-.75.65-.9.73-1.94,1.51-3.14,2.18-.81.47-1.69.87-2.61,1.17-.2.08-.43.14-.65.2-.74.23-1.51.37-2.3.42-.18.03-.37.03-.55.02-3.92.09-8.28-2.02-12.39-8.82-5.99-9.95-12.82-6.55-15.25-2.21-1.68,3.02-2.25,6.52-2.06,9.97.7,12.38-4.57,21.18-8.73,26.12-2.96,3.5-4.48,8-4.35,12.58,1.15,40.27-12.69,34.9-12.69,34.9-66.38-18.34,21.05-130.39-34.26-170.09-55.33-39.71,2.87-74.76-40.46-100.66-2.96-1.77-5.63-3.61-8-5.47-1.2-.94-2.34-1.9-3.39-2.85-1.06-.97-2.06-1.93-2.99-2.9-.46-.5-.93-.98-1.36-1.48-10.79-12.05-12.55-24.98-11.6-34.95.05-.54.12-1.09.2-1.61.21-1.83.54-3.54.9-5.1.07-.34.15-.67.24-.99.02-.09.05-.18.07-.27.07-.27.14-.52.21-.77s.14-.48.2-.74c.07-.23.13-.47.2-.7.07-.27.14-.5.22-.73,1.19-3.74,2.37-6.04,2.49-6.27,8.81,3.38,17.37,7.24,25.66,11.54l-2.38,3.27c-.55.75-1.01,1.53-1.39,2.35-.74,1.58-1.14,3.25-1.24,4.92-.25,4.61,1.84,9.26,5.96,12.07,6.07,4.16,14.38,2.72,18.73-3.23l.04-.05,3.96-5.43c74.24,49.13,121.13,135.33,115.67,230.63Z"/>
            <path class="cls-10" d="M519.54,517.71c-45.01,28.85-28.04-10.61-20.08-26.44,1.99-3.97,2.67-8.44,1.9-12.8-3.45-19.81-10.54-76.48,21.58-77.34,38.93-1.05,17.4,31.43,47.44,30.34,30.03-1.09,4.58,50.73-50.84,86.24Z"/>
          </g>
        </g>
        <g class="cls-4">
          <path class="cls-7" d="M647.23,310.23c-55.42-39.59,2.71-74.77-40.68-100.58-29.93-17.8-29.39-41.86-26.18-55.08-3.35-1.45-6.72-2.85-10.15-4.16-.49.93-20.11,39.27,22.75,64.77,43.39,25.8-14.74,60.98,40.68,100.58,55.4,39.58-31.8,151.82,34.63,170.01,0,0,5.69,2.18,9.45-6.88-58.53-21.74,23.68-129.95-30.51-168.67Z"/>
        </g>
        <g class="cls-4">
          <path class="cls-7" d="M513.39,488.23c1.98-3.97,2.65-8.45,1.87-12.8-3.04-17.24-8.88-62.39,10.84-74.41-.99-.02-2.02-.02-3.1.01-32.12.92-24.91,57.58-21.42,77.38.78,4.36.11,8.83-1.87,12.8-7.09,14.18-21.34,47.25,7.88,33.38-9.51-3.01.3-25.38,5.8-36.37Z"/>
        </g>
        <g class="cls-4">
          <path class="cls-7" d="M692.79,493.24c.72-1.05,1.55-1.91,2.44-2.64-4.96-2.02-11.14-.84-14.78,4.44-19.43,28.12-21.7,80.38-21.74,81.43,4.63-4.54,9.07-9.27,13.35-14.14,1.87-17.41,7.03-49.25,20.74-69.09Z"/>
          <path class="cls-7" d="M657.91,578.28l.08-1.83c.09-2.18,2.44-53.69,21.87-81.81,4.12-5.97,10.83-6.67,15.66-4.7l1.13.46-.94.77c-.91.75-1.67,1.57-2.31,2.49h0c-13.63,19.73-18.77,51.55-20.61,68.76l-.02.23-.15.17c-4.39,5-8.89,9.77-13.39,14.18l-1.31,1.28ZM691.13,490.42c-3.56-.2-7.43,1.19-10.08,5.04-17.38,25.15-20.93,69.43-21.52,79.19,3.97-3.96,7.95-8.2,11.83-12.61,1.88-17.4,7.08-49.29,20.84-69.2h0c.48-.7,1.03-1.35,1.64-1.95-.86-.25-1.78-.41-2.71-.46Z"/>
        </g>
        <g>
          <g class="cls-4">
            <path class="cls-7" d="M486.54,483.51c.78,4.36.11,8.83-1.87,12.8-7.35,14.71-22.42,49.77,11.37,31.61-12.94-.37-2.19-24.99,3.67-36.71,1.98-3.97,2.65-8.45,1.87-12.8-2.89-16.36-8.29-57.86,8.04-72.31-.54,0-1.09.01-1.66.03-32.12.92-24.91,57.58-21.42,77.38Z"/>
            <path class="cls-7" d="M480.7,533.75c-1.84-.1-3.3-.68-4.39-1.75-6.03-5.86,2.24-25.08,7.71-36.01,1.93-3.88,2.56-8.15,1.81-12.35h0c-2.76-15.66-7.74-53.85,5.7-70.35,4.1-5.04,9.62-7.69,16.41-7.89.57-.02,1.13-.02,1.68-.03h1.93s-1.44,1.27-1.44,1.27c-15.97,14.14-10.78,54.81-7.8,71.65.81,4.51.14,9.1-1.94,13.25-8.31,16.61-11.48,28.79-8.71,33.42.87,1.45,2.32,2.2,4.41,2.24l2.72.08-2.39,1.29c-6.82,3.66-12.01,5.38-15.68,5.18ZM487.26,483.39c.81,4.51.14,9.1-1.94,13.25-9,18.01-11.92,30.52-8,34.32,2.5,2.43,8.16,1.5,16.43-2.66-1.46-.45-2.58-1.32-3.35-2.6-4.15-6.93,3.65-24.78,8.66-34.81,1.93-3.88,2.56-8.15,1.81-12.35-2.93-16.59-7.96-56.05,6.92-71.69-6.26.22-11.35,2.7-15.14,7.34-13.06,16.04-8.13,53.72-5.4,69.18h0Z"/>
          </g>
          <g class="cls-4">
            <path class="cls-7" d="M555.19,155.5h0c-.49.95-20.11,39.29,22.75,64.79,43.39,25.8-14.74,60.98,40.68,100.58,55.4,39.58-31.8,151.82,34.63,170.01,0,0,5.74,2.19,9.49-6.98-55.78-22.96,24.67-129.73-29.08-168.13-55.42-39.59,2.71-74.77-40.68-100.58-42.87-25.5-23.24-63.84-22.75-64.77h0c-21.66-8.3-44.76-13.8-68.9-16.01,0,0,1.61,2.83,2.72,7.34,17.75,2.86,34.85,7.52,51.14,13.75Z"/>
            <path class="cls-7" d="M654.38,491.8c-.84-.05-1.38-.24-1.39-.25-34.67-9.49-28.22-44.04-21.38-80.61,6.48-34.66,13.18-70.5-13.41-89.49-29.86-21.33-27.12-41.57-24.71-59.42,2.12-15.72,3.96-29.3-15.91-41.12-40.59-24.14-26.04-59.38-23.38-65.01-16.21-6.15-33.11-10.66-50.25-13.43l-.47-.08-.11-.47c-1.07-4.35-2.63-7.13-2.65-7.15l-.69-1.21,1.38.13c23.7,2.16,46.94,7.56,69.09,16.04l.49.19-.11.84c-.82,1.57-19.63,38.76,22.48,63.81,20.7,12.31,18.71,27.01,16.61,42.56-2.36,17.45-5.03,37.22,24.12,58.05,27.34,19.53,20.56,55.83,14,90.94-6.33,33.89-12.32,65.89,14.94,77.11l.67.28-.27.67c-2.84,6.94-6.91,7.75-9.03,7.63ZM504.64,141.11c17.34,2.83,34.43,7.44,50.81,13.71l.49.19-.11.84c-.82,1.57-19.63,38.76,22.48,63.81,20.7,12.31,18.71,27.01,16.61,42.56-2.36,17.45-5.03,37.22,24.12,58.05,27.34,19.53,20.56,55.83,14,90.94-6.71,35.9-13.05,69.81,20.4,78.96.26.1,4.94,1.7,8.35-5.9-27.56-11.9-21.52-44.23-15.13-78.43,6.48-34.66,13.17-70.49-13.42-89.49-29.86-21.33-27.12-41.57-24.71-59.42,2.12-15.72,3.96-29.3-15.91-41.12-40.59-24.14-26.04-59.38-23.38-65.01-21.4-8.11-43.81-13.34-66.66-15.54.55,1.19,1.39,3.21,2.07,5.86Z"/>
          </g>
          <g class="cls-4">
            <path class="cls-7" d="M680.06,495.64c-4.94-1.95-11.04-.73-14.65,4.5-19.43,28.12-21.7,80.38-21.74,81.43h0c-14.84,14.56-31.43,27.27-49.36,37.91.78.63,1.57,1.29,2.39,1.98,22.84-11.87,43.73-27.06,62.01-44.97h0c.04-1.05,2.29-52.6,21.35-80.85Z"/>
            <path class="cls-7" d="M596.6,622.33l-.37-.32c-.81-.69-1.6-1.34-2.38-1.97l-.81-.66.9-.53c17.83-10.57,34.32-23.22,49.01-37.59.22-4.64,2.95-54.17,21.86-81.54,4.07-5.91,10.73-6.65,15.52-4.77l.84.33-.51.75c-18.85,27.93-21.14,78.33-21.23,80.46v.29s-.22.21-.22.21c-18.44,18.07-39.36,33.25-62.18,45.1l-.43.22ZM595.57,619.57c.4.33.81.67,1.23,1.02,22.44-11.71,43.03-26.65,61.2-44.42.21-4.55,2.85-52.51,20.95-80.16-4.16-1.27-9.55-.37-12.94,4.54-19.19,27.78-21.52,78.89-21.61,81.05v.29s-.22.21-.22.21c-14.58,14.29-30.93,26.9-48.6,37.47Z"/>
          </g>
        </g>
        <g class="cls-1">
          <path class="cls-5" d="M676.08,557.59c34.34-41.01,56.27-93,59.66-150.46,8.38-142.26-101.32-265.26-243.62-273.11-92.17-5.09-175.71,38.82-225.32,109.03,50.5-60.32,127.83-96.9,212.42-92.24,53.33,2.94,101.98,21.87,141.57,51.86,3.21,2.43,4.96,6.29,4.79,10.31-.52,12.76,8.34,34.05,23.88,54.91,16.09,21.61,34.67,36.48,47.08,38.9,4.04.79,7.39,3.6,8.9,7.43,13.2,33.53,19.58,70.37,17.46,108.71-2.77,50.26-19.75,96.36-46.8,134.64Z"/>
        </g>
        <path class="cls-7" d="M214.66,412.28c-.42-5.55-.67-11.2-.75-16.79l10.18-.13c.07,5.38.31,10.81.72,16.15l-10.15.77Z"/>
        <path class="cls-7" d="M369.57,457.97l-.51-10.17c32.95-1.65,50.65-20.36,56.23-37.32,4.29-13.05,2.01-26.04-5.68-32.33-17.15-14.02-19.55-47.45-10.11-65.77,5.96-11.56,16.01-16.39,27.59-13.23,12.43,3.39,24.41-.02,31.27-8.89,6.3-8.15,6.69-18.87,1.05-28.7-18.5-32.21-12.69-65.65,14.79-85.2,24.81-17.65,13.22-38.54,12.71-39.43l8.83-5.07c.17.3,16.61,29.85-15.64,52.79-27.8,19.78-24.36,50.07-11.86,71.83,7.65,13.32,6.95,28.64-1.82,39.99-9.43,12.2-25.53,16.99-42.01,12.49-2.54-.69-10.26-2.79-15.86,8.07-7.53,14.6-5.5,42.59,7.5,53.22,11.1,9.08,14.6,26.11,8.91,43.4-6.63,20.17-27.3,42.4-65.39,44.3Z"/>
        <path class="cls-7" d="M669.21,491.09c-.92-.05-1.75-.22-2.45-.45-38.42-10.64-31.29-48.74-24.41-85.59,6.23-33.32,12.66-67.77-11.67-85.15-32-22.86-28.95-45.42-26.49-63.56,2.08-15.35,3.58-26.44-13.82-36.79-47.01-27.96-24.87-71.1-24.64-71.53l9.01,4.75c-.74,1.42-17.71,35.1,20.84,58.03,23.18,13.79,20.8,31.38,18.7,46.91-2.41,17.8-4.68,34.62,22.32,53.9,29.61,21.16,22.25,60.55,15.76,95.3-7.66,40.97-10.32,66.4,17.26,73.94.06.02.12.04.18.05h0c.14,0,.5-.03,1.04-.5,1.33-1.17,5.64-6.74,4.94-29.4-.18-5.89,1.78-11.58,5.52-16.03,3.76-4.47,8.1-12.02,7.49-22.57-.27-4.69.65-9.1,2.67-12.73,2.32-4.18,6.48-6.82,10.87-6.9,3.51-.08,8.66,1.43,13.18,8.91,1.68,2.77,4.33,6.13,7.46,6.34,3.7.3,7.7-3.66,8.82-5.05l7.97,6.33c-.76.97-7.73,9.41-17.29,8.89-.04,0-.07,0-.11,0-6.05-.38-11.28-4.16-15.56-11.23-1.8-2.98-3.44-4.06-4.28-4-.71.01-1.63.73-2.15,1.66-1.08,1.94-1.57,4.43-1.41,7.2.81,13.89-4.92,23.82-9.86,29.71-2.13,2.54-3.24,5.79-3.14,9.18.63,20.74-2.47,33.25-9.49,38.22-2.48,1.76-5.12,2.28-7.28,2.16ZM670.11,481.02s0,0,.01,0c0,0,0,0-.01,0ZM670.09,481.02s0,0,0,0c0,0,0,0,0,0Z"/>
        <path class="cls-7" d="M653.62,576.28c.09-2.23,2.41-54.84,22.64-84.13,4.14-6,11.08-8.74,18.12-7.14,6.97,1.57,12.22,7.2,13.38,14.32,1.03,6.33.97,13.39-.17,20.98l-10.07-1.51c.98-6.54,1.05-12.54.19-17.83-.5-3.1-2.58-5.35-5.57-6.02-2.95-.66-5.75.46-7.5,3-18.57,26.88-20.82,78.24-20.84,78.75l-10.17-.41Z"/>
        <path class="cls-7" d="M593.4,625.34c-18.93-16.15-26.32-13.68-36.56-10.26-11.08,3.7-24.86,8.3-52.5-6.85-49.15-26.93-91.85-2.05-92.28-1.79l-5.22-8.74c1.94-1.16,48.19-28.09,102.4,1.6,23.74,13.01,34.24,9.51,44.38,6.12,11.35-3.79,23.09-7.71,46.4,12.18l-6.61,7.75Z"/>
        <path class="cls-7" d="M495.41,533.03c-2.73-.15-4.98-1.06-6.81-2.71-2.41-2.16-9.75-8.75,6.57-41.39,1.51-3.01,1.99-6.34,1.41-9.64-3.57-20.17-7.46-56.58,6.6-73.86,4.94-6.07,11.56-9.27,19.67-9.5,24.26-.72,29.05,11.15,32.56,19.81,2.84,6.99,4.39,10.85,14.89,10.44,12.08-.45,15.99,6.2,17.26,10.21,6.2,19.69-23.55,58.85-64.96,85.51-12.16,7.83-20.94,11.47-27.19,11.12ZM495.41,522.76s4.05,1.93,21.68-9.41c42-27.04,64.38-62.38,60.76-73.89-.29-.91-1.03-3.33-7.15-3.09-17.61.68-21.72-9.42-24.71-16.79-3.16-7.8-5.67-13.95-22.83-13.46-5.09.15-9.04,2.03-12.07,5.76-12.27,15.07-6.53,54.06-4.48,65.65.97,5.46.16,10.98-2.33,15.97h0c-9.39,18.78-10.02,27.83-8.86,29.27h0Z"/>
        <path class="cls-7" d="M406.83,597.7s-26.08,11.37-48.37,29.53l7.18,6.46s34.85-23.3,46.41-27.25l-5.22-8.74Z"/>
        <path class="cls-7" d="M493.92,129.72c-.73-.06-1.47-.1-2.2-.14-2.81-.16-5.61-.27-8.41-.32-26.51-.64-52.26,2.67-76.64,9.43-3.29.91-6.55,1.88-9.78,2.92-101.32,32.34-177.11,124.51-183.32,237.03-8.03,145.6,103.48,270.13,249.06,278.16,145.6,8.03,270.13-103.48,278.16-249.08,7.99-144.85-102.36-268.87-246.88-278.01ZM463.24,645.91c-55.26-3.05-106.83-23.56-148.46-58.54h-.02c-9.22-7.78-17.95-16.21-26.13-25.35-11.73-13.1-21.95-27.2-30.57-42.06-19.79-34-31.26-72.07-33.56-111.66-.29-5.01-.43-10.06-.42-15.12,0-4.63.13-9.28.39-13.95,1.26-22.91,5.53-45.18,12.6-66.39,13.71-41.27,38-78.43,71.27-108.22,27.66-24.77,59.72-42.81,94.2-53.42,2.3-.71,4.63-1.4,6.96-2.04,6.27-1.73,12.63-3.24,19.04-4.47,18.13-3.52,36.77-5.05,55.64-4.52,1.85.05,3.73.13,5.6.22l1.34.07c1.09.06,2.18.12,3.27.2,3.37.22,6.75.52,10.09.88,22.07,2.36,43.45,7.55,63.73,15.33,8.33,3.19,16.47,6.83,24.38,10.89,8.08,4.14,15.91,8.71,23.5,13.72,18.12,11.91,34.81,26.27,49.66,42.86,45.09,50.36,67.88,115.28,64.16,182.78-.09,1.56-.19,3.14-.3,4.7-2.49,33.88-11.56,66.28-26.52,95.78v.02c-11.42,22.55-26.28,43.36-44.29,61.84-4.08,4.22-8.34,8.32-12.77,12.28-16.46,14.73-34.45,27.09-53.61,36.9-39.45,20.26-83.73,29.78-129.19,27.27Z"/>
        <path class="cls-9" d="M365.38,458.43c-20.51,29.75-57.31,58.55-107.32,61.53-16.73-28.75-27.53-60.43-31.83-93.46,23.97,23.03,65.56,30.37,99.09,32.22,20.51,1.13,33.73.31,40.06-.28Z"/>
        <path class="cls-10" d="M372.12,447.62c-.95,1.68-1.93,3.35-2.97,5.04-1.18,1.92-2.43,3.85-3.76,5.77-6.33.6-19.54,1.42-40.06.28-33.53-1.85-75.12-9.19-99.09-32.22-.8-6.02-1.37-12.09-1.73-18.2.21-.12.41-.23.62-.33,11.3-6.15,27.38-10.02,49.16-5.25,15,3.32,25.63,9.01,33.15,15.41v-.02s35.52-45.17,68.63-26.41c12.1,6.84,10.13,30.62-3.96,55.9Z"/>
        <path class="cls-10" d="M224.09,393.18c0-4.63.13-9.28.39-13.95,1.26-22.91,5.53-45.18,12.6-66.39l22.27-11.17c1.63-.8,3.02-2.02,4.07-3.53,5.91-8.51,27.78-37.73,39.95-24.71,1.34,1.44,3.52,1.82,5.32.97,7.07-3.34,24.08-8.32,35.41,13.37,13.84,26.46-21.13,72.44-120.01,105.4Z"/>
        <path class="cls-6" d="M391.55,148.45s-65.89,38.15-95.37,79.1c-29.48,40.95-56.11,68.69-61.3,163.19-5.19,94.5,62.55,164.99,62.55,164.99,0,0,68.94,79.72,169.72,79.93,87.76.11,119.5-23.46,119.5-23.46,0,0-128.45,21.56-220.24-79.96-47.74-52.8-70.86-123.07-67.25-194.15,6.61-130.1,92.39-189.64,92.39-189.64Z"/>
        <path class="cls-7" d="M372.19,447.6l-2.63,10.36c-.57.06-1.94.24-4.18.46-6.33.6-19.54,1.42-40.06.28-33.53-1.85-75.12-9.19-99.09-32.22-5.17-4.95-9.52-10.65-12.8-17.17l9.74-4.89c.61,1.22,1.25,2.38,1.95,3.53,30.58,50.45,143.47,39.98,146.99,39.65.04-.02.06-.02.07-.01Z"/>
        <path class="cls-6" d="M487.15,180.51c-28.87,20.53-28.13,52.73-13.33,78.51,14.8,25.8-7.93,53.26-38.07,45.04-30.14-8.22-35.03,52.06-12.92,70.14,22.09,18.08,7.35,75.63-53.53,78.68.36-.58.7-1.15,1.02-1.73l-103.59-5.33-19.34-16.78c74.49,29.48,127.33,14.13,127.33,14.13,44.98-12.51,54.44-59.66,34.82-75.71-22.11-18.08-17.24-78.36,12.9-70.14,30.16,8.22,52.89-19.24,38.08-45.04-14.8-25.78-15.54-57.98,13.33-78.5,20.3-14.45,19.05-31.36,16.53-40.15l1.43.08c3.18.18,6.35.4,9.5.69,0,0,14.69,25.58-14.18,46.11Z"/>
      </g>
      <path d="M205.7,433.33c-32.33-1.78-54.71-6.96-57.04-7.52-20.01-4.79-32.35-24.89-27.57-44.9,4.78-19.98,24.85-32.32,44.81-27.59h0c1.15.27,115.88,26.25,186.64-31.2,15.98-12.97,39.44-10.53,52.41,5.44,12.97,15.97,10.53,39.44-5.44,52.41-61.75,50.13-141.03,56.28-193.81,53.36Z"/>
      <path class="cls-12" d="M165.57,353.59c4.17-.7,8.55-.6,12.92.44h0c.38.09,15.19,3.44,36.81,4.79"/>
      <path class="cls-12" d="M216.82,433.94c-.64-.03-1.28-.07-1.91-.1-15.11-.83-27.74-2.52-36.55-3.98"/>
      <path d="M298.11,711.54c-37.95-2.09-73.47-13.1-102.73-31.82-83.17-53.23-97.13-156.67-98.45-168.29-1.67-14.69-1.88-29.67-.65-44.53,1.99-23.94,22.36-41.66,46.37-40.33.39.02.77.05,1.16.08,24.23,2.01,42.29,23.35,40.27,47.55-.76,9.13-.63,18.31.39,27.29.33,2.93,8.76,72.25,58.41,104.02,16.61,10.63,37.28,16.9,59.77,18.15,14.57.8,29.26-.54,43.64-3.99,30.57-7.34,55.23-23.7,67.65-44.89,13.59-23.18,12.15-50.72,8.55-69.73-4.52-23.87,11.22-46.96,35.09-51.48,3.52-.67,7.1-.91,10.65-.71,20.26,1.12,37.05,15.84,40.83,35.8,6.4,33.82,8.29,83.94-19.11,130.68-24.83,42.37-68.55,72.91-123.09,86-22.47,5.4-45.6,7.48-68.73,6.21h-.01Z"/>
      <path d="M421.19,191c-6.05-.33-12.08-2.35-17.35-6.18-13.69-9.95-17.38-28.55-9-42.86-9.13-8.35-13.08-21.57-9.03-34.12,5.54-17.15,23.93-26.56,41.08-21.03,10.34,3.34,19.14,9.38,25.45,17.47,15.59,20,14.41,49.45-2.92,73.31-6.76,9.31-17.53,13.99-28.23,13.4Z"/>
      <ellipse class="cls-5" cx="119.02" cy="215.39" rx="26.5" ry="34" transform="translate(-110.3 126.12) rotate(-39.81)"/>
      <ellipse cx="130.36" cy="230.13" rx="14.3" ry="17.44" transform="translate(-120.27 145.65) rotate(-41.84)"/>
      <ellipse class="cls-5" cx="214.43" cy="146.91" rx="26.5" ry="34" transform="translate(-44.35 171.33) rotate(-39.81)"/>
      <ellipse cx="224.39" cy="161.44" rx="14.37" ry="17.53" transform="translate(-50.47 190.85) rotate(-41.84)"/>
      <path class="cls-5" d="M212.56,229.18c-.2-3.07-.4-6.35-.61-9.62-.14-2.15-.19-4.3-.44-6.44-.25-2.17-1.81-2.77-3.7-1.54-.36.23-.7.5-1.04.77-5,3.86-9.99,7.71-14.98,11.58-.89.69-1.98,1.29-1.85,2.68.16,1.63,1.52,1.93,2.73,2.33,3.81,1.26,7.64,2.49,11.45,3.75.8.27,1.57.65,2.55,1.06,1.94,6.98-.19,12.74-5.38,17.4-4.41,3.97-9.71,5.36-15.6,4.15-.98-.2-1.95-.47-2.94-.54-.97-.07-1.91.75-2.22,1.72-.34,1.08-.07,2.08.82,2.68.81.55,1.77.93,2.72,1.18,13.25,3.44,27.38-6.59,28.51-20.23.11-1.28.1-2.57.16-4.04,1.18-.38,2.2.24,3.24.45,9.21,1.81,18.5-2.99,22.28-11.54,1.06-2.4,1.66-4.89,1.48-7.52-.1-1.53-1.01-2.45-2.4-2.55-1.26-.1-2.31.56-2.58,1.78-.25,1.11-.26,2.28-.48,3.4-1.88,9.61-12.95,14.4-21.73,9.11Z"/>
    </g>
    <g>
      <path class="cls-5" d="M601.44,239.14c-7.88-9.51-9.53-27.67,3.12-33.99,8.8-4.68,18.43,3.85,21.18,12.1-2.75-7.43-3.58-15.68-1.1-23.38,4.4-13.75,18.98-25.31,33.56-20.63,17.06,5.23,19.26,26.41,15.96,41.54,2.48-9.08,7.43-24.76,18.98-20.63,8.25,3.03,5.78,14.03,6.88,21.18,4.4-4.95,10.73-8.53,17.61-7.43,5.5,1.1,11.55,4.4,12.38,10.45,2.2,19.81-18.98,30.26-35.76,30.54-4.68,0-9.63-.55-14.31-.83-24.76-.28-51.44,6.6-74.55-6.11-1.27-.83-2.59-1.76-3.95-2.81Z"/>
      <path class="cls-11" d="M604.36,236.22c-.15-.18-.3-.37-.45-.56.22.28.43.56.65.84-1.4-1.81-2.53-3.8-3.42-5.91.14.33.28.66.42.99-.99-2.37-1.68-4.85-2.03-7.39.05.37.1.73.15,1.1-.3-2.26-.34-4.54-.04-6.8-.05.37-.1.73-.15,1.1.24-1.75.68-3.46,1.36-5.09-.14.33-.28.66-.42.99.57-1.34,1.29-2.6,2.18-3.75-.22.28-.43.56-.65.84.83-1.06,1.78-2,2.84-2.82-.28.22-.56.43-.84.65,1.1-.83,2.3-1.53,3.56-2.09-.33.14-.66.28-.99.42.91-.38,1.85-.65,2.82-.8-.37.05-.73.1-1.1.15.99-.13,1.99-.14,2.98-.02-.37-.05-.73-.1-1.1-.15,1.17.16,2.3.48,3.39.93-.33-.14-.66-.28-.99-.42,1.35.57,2.6,1.33,3.77,2.21-.28-.22-.56-.43-.84-.65,1.49,1.15,2.81,2.5,3.97,3.98-.22-.28-.43-.56-.65-.84,1.16,1.51,2.14,3.15,2.88,4.91-.14-.33-.28-.66-.42-.99.18.43.34.87.49,1.31,2.65-.73,5.31-1.46,7.96-2.19-1.05-2.85-1.81-5.8-2.23-8.81.05.37.1.73.15,1.1-.41-3.09-.46-6.21-.05-9.3l-.15,1.1c.37-2.72,1.1-5.36,2.16-7.89-.14.33-.28.66-.42.99,1.13-2.66,2.61-5.15,4.37-7.45-.22.28-.43.56-.65.84,1.74-2.23,3.73-4.24,5.96-5.97-.28.22-.56.43-.84.65,1.96-1.5,4.08-2.77,6.35-3.73-.33.14-.66.28-.99.42,2.02-.84,4.13-1.44,6.3-1.73-.37.05-.73.1-1.1.15,1.96-.25,3.92-.25,5.88.01-.37-.05-.73-.1-1.1-.15,2.03.29,4.01.85,5.9,1.63-.33-.14-.66-.28-.99-.42,1.72.72,3.33,1.65,4.81,2.78-.28-.22-.56-.43-.84-.65,1.49,1.15,2.81,2.49,3.97,3.98-.22-.28-.43-.56-.65-.84,1.39,1.82,2.51,3.82,3.4,5.92-.14-.33-.28-.66-.42-.99,1.25,3,2.03,6.17,2.47,9.39l-.15-1.1c.63,4.73.55,9.54-.08,14.26.05-.37.1-.73.15-1.1-.2,1.48-.46,2.96-.78,4.43-.46,2.1.63,4.56,2.88,5.08,2.18.5,4.47-.65,5.08-2.88.91-3.35,1.93-6.68,3.28-9.88-.14.33-.28.66-.42.99.99-2.34,2.17-4.62,3.71-6.65-.22.28-.43.56-.65.84.79-1.02,1.67-1.96,2.69-2.76-.28.22-.56.43-.84.65.7-.54,1.45-.99,2.27-1.34-.33.14-.66.28-.99.42.7-.29,1.42-.49,2.17-.6-.37.05-.73.1-1.1.15.84-.11,1.69-.1,2.53.01-.37-.05-.73-.1-1.1-.15.96.14,1.89.39,2.79.76-.33-.14-.66-.28-.99-.42.69.3,1.34.67,1.94,1.12-.28-.22-.56-.43-.84-.65.55.43,1.03.92,1.46,1.47-.22-.28-.43-.56-.65-.84.5.66.9,1.38,1.22,2.14-.14-.33-.28-.66-.42-.99.56,1.35.87,2.78,1.06,4.22l-.15-1.1c.57,4.37.24,8.79.89,13.16.21,1.37,1.62,2.54,2.88,2.88,1.36.37,3.05.02,4.01-1.06,1.08-1.2,2.25-2.31,3.52-3.31-.28.22-.56.43-.84.65,1.54-1.19,3.2-2.19,4.99-2.95l-.99.42c1.42-.58,2.89-1,4.41-1.22l-1.1.15c1.42-.19,2.85-.19,4.27,0-.37-.05-.73-.1-1.1-.15,1.62.23,3.22.75,4.72,1.38-.33-.14-.66-.28-.99-.42,1.34.57,2.61,1.28,3.78,2.16-.28-.22-.56-.43-.84-.65.86.66,1.63,1.41,2.3,2.26-.22-.28-.43-.56-.65-.84.52.68.95,1.4,1.29,2.18l-.42-.99c.34.82.58,1.66.7,2.54l-.15-1.1c.22,2,.21,4-.06,5.99.05-.37.1-.73.15-1.1-.27,1.89-.77,3.73-1.5,5.49.14-.33.28-.66.42-.99-.8,1.89-1.85,3.66-3.1,5.29.22-.28.43-.56.65-.84-1.5,1.92-3.25,3.62-5.18,5.12.28-.22.56-.43.84-.65-2.62,2.02-5.52,3.64-8.56,4.94.33-.14.66-.28.99-.42-3.9,1.64-8.02,2.75-12.21,3.31.37-.05.73-.1,1.1-.15-4.23.55-8.43.36-12.67.05-2.61-.19-5.24-.49-7.86-.5-2.35,0-4.71.05-7.06.14-9.56.37-19.09,1.33-28.66,1.47-5.36.08-10.72-.11-16.04-.82l1.1.15c-5.64-.77-11.18-2.14-16.44-4.34.33.14.66.28.99.42-1.59-.67-3.16-1.41-4.68-2.23-1.62-.86-3.1-2.02-4.55-3.13-.79-.61-2.27-.67-3.18-.42-.96.26-1.99,1-2.47,1.9-.51.96-.76,2.12-.42,3.18.35,1.09.99,1.77,1.9,2.47,1.51,1.16,3.06,2.35,4.75,3.24,1.84.97,3.74,1.82,5.67,2.62,3.25,1.34,6.61,2.38,10.03,3.15,7.06,1.58,14.35,2.11,21.57,2.08,7.04-.02,14.07-.54,21.09-.98,3.51-.22,7.02-.43,10.53-.54,1.74-.06,3.47-.09,5.21-.09,1.83,0,3.64.13,5.46.27,3.7.28,7.45.67,11.17.55,2.77-.08,5.55-.43,8.28-.95,5.27-1,10.47-2.88,15.12-5.56,4.72-2.72,8.92-6.4,11.89-11,3.05-4.73,4.5-10.5,4.1-16.11-.14-2.04-.54-3.81-1.36-5.67-.67-1.5-1.68-2.87-2.83-4.03-2.37-2.42-5.47-4.03-8.65-5.08-3.55-1.17-7.27-1.32-10.92-.5-3.72.83-7.05,2.75-10,5.11-1.21.96-2.33,2.03-3.36,3.19,2.3.61,4.6,1.21,6.9,1.82-.02-.13-.04-.27-.06-.4l.15,1.1c-.25-1.91-.28-3.84-.33-5.77-.06-2.35-.19-4.66-.51-6.99-.63-4.51-2.77-9.01-7.01-11.15-4.32-2.17-9.56-2.32-13.71.35-3.56,2.29-6.05,5.89-7.86,9.65-1.94,4.05-3.31,8.33-4.5,12.66,2.65.73,5.31,1.46,7.96,2.19,1.57-7.26,1.88-14.71.69-22.05-1.14-6.99-4.12-14.08-9.46-18.89-6.51-5.86-15.68-8.13-24.19-6.12-8.75,2.07-16.21,8.38-20.85,15.94-2.48,4.03-4.2,8.61-4.85,13.3-.78,5.62-.37,11.27,1.14,16.75.33,1.2.72,2.38,1.15,3.55.38,1.03.92,1.9,1.9,2.47.88.52,2.19.74,3.18.42,2.03-.66,3.62-2.89,2.88-5.08-1.91-5.64-5.8-10.72-10.91-13.81-2.6-1.57-5.57-2.54-8.61-2.65-3.14-.11-6.18.91-8.85,2.51-4.34,2.59-7.4,6.68-8.98,11.45-1.51,4.57-1.46,9.56-.56,14.25,1,5.2,3.35,10.08,6.71,14.16.63.77,1.96,1.21,2.92,1.21,1.01,0,2.22-.45,2.92-1.21.72-.79,1.26-1.82,1.21-2.92-.05-1.15-.48-2.03-1.21-2.92Z"/>
    </g>
    <g>
      <path class="cls-5" d="M277.36,594.97c-3.26-3.28-5.33-7.99-4.96-12.51.75-9.61,9.23-19.03,19.4-18.27,5.65.38,10.17,5.65,10.74,11.3-1-2.64-1.3-5.46-.95-8.19.17-1.36.5-2.7.98-3.98,2.28-5.5,6.9-10.52,12.94-10.8.86-.04,1.75.02,2.67.18,2.64.47,5.04,1.6,6.99,3.25.65.55,1.25,1.16,1.8,1.82.43.66.84,1.34,1.22,2.04.38.7.74,1.42,1.08,2.15,2.66,5.81,5.68,13.72.66,19.23-.62.68-1.35,1.17-2.13,1.28-.78.11-1.62-.15-2.46-.95-1.88-1.76-2.6-4.69-1.8-7.06.4-1.19,1.17-2.23,2.37-2.92,6.03-3.01,14.69-10.93,20.72-4.14,3.58,3.96,1.7,9.61-.19,14.13,2.64-2.83,5.84-6.03,10.08-5.97,1.1.07,2.17.37,3.16.86,1.98.97,3.63,2.66,4.47,4.73,3.39,8.48-3.58,17.14-11.68,19.21-7.52,1.98-14.94,2.39-22.36,2.42-1.06,0-2.12,0-3.18,0-2.15-.15-4.23.22-6.36-.06-.88,0-1.76,0-2.64-.02-.88,0-1.77-.02-2.65-.03-5.31-.08-10.62-.25-15.93-.42-1.65-.14-3.3-.35-4.93-.64-4.91-.86-9.72-2.38-14.12-4.65-.94-.58-1.92-1.24-2.93-1.97Z"/>
      <path class="cls-11" d="M279.36,592.97c-.52-.53-1.01-1.09-1.47-1.67.15.19.29.38.44.57-.94-1.23-1.72-2.56-2.32-3.98.09.22.19.45.28.67-.53-1.27-.9-2.6-1.09-3.96.03.25.07.5.1.75-.17-1.3-.14-2.6.03-3.9l-.1.75c.24-1.78.73-3.5,1.43-5.16l-.28.67c.73-1.71,1.67-3.31,2.8-4.78-.15.19-.29.38-.44.57,1.08-1.39,2.32-2.65,3.71-3.73-.19.15-.38.29-.57.44,1.25-.96,2.6-1.76,4.05-2.38-.22.09-.45.19-.67.28,1.34-.56,2.73-.94,4.17-1.14-.25.03-.5.07-.75.1,1.25-.16,2.53-.18,3.78-.02l-.75-.1c.89.12,1.74.36,2.57.7-.22-.09-.45-.19-.67-.28.9.38,1.73.88,2.51,1.47-.19-.15-.38-.29-.57-.44.85.66,1.6,1.42,2.27,2.27-.15-.19-.29-.38-.44-.57.72.93,1.31,1.94,1.78,3.02-.09-.22-.19-.45-.28-.67.46,1.08.77,2.22.93,3.38l-.1-.75c.02.13.03.26.05.39,1.85-.25,3.7-.5,5.55-.75-.45-1.21-.77-2.45-.94-3.73.03.25.07.5.1.75-.2-1.54-.19-3.09,0-4.63-.03.25-.07.5-.1.75.19-1.33.49-2.69,1.01-3.94-.09.22-.19.45-.28.67.74-1.74,1.68-3.38,2.84-4.88-.15.19-.29.38-.44.57.9-1.16,1.92-2.21,3.08-3.11-.19.15-.38.29-.57.44.93-.71,1.94-1.32,3.02-1.78-.22.09-.45.19-.67.28.97-.4,1.98-.68,3.02-.82-.25.03-.5.07-.75.1,1.03-.13,2.06-.12,3.09.02l-.75-.1c1.3.19,2.57.54,3.78,1.05l-.67-.28c1.16.5,2.26,1.13,3.26,1.91-.19-.15-.38-.29-.57-.44.83.65,1.59,1.38,2.27,2.19-.15-.19-.29-.38-.44-.57,1.29,1.99,2.31,4.13,3.23,6.31-.09-.22-.19-.45-.28-.67,1.03,2.44,1.91,4.97,2.27,7.61-.03-.25-.07-.5-.1-.75.17,1.3.21,2.61.04,3.92.03-.25.07-.5.1-.75-.13.94-.38,1.86-.74,2.73.09-.22.19-.45.28-.67-.34.79-.77,1.52-1.29,2.2.15-.19.29-.38.44-.57-.37.47-.77.92-1.25,1.3.19-.15.38-.29.57-.44-.24.18-.49.32-.76.45.22-.09.45-.19.67-.28-.22.09-.44.15-.67.19l.75-.1c-.24.03-.47.03-.72,0,.25.03.5.07.75.1-.21-.04-.41-.1-.61-.18.22.09.45.19.67.28-.27-.12-.51-.27-.75-.44.19.15.38.29.57.44-.38-.3-.72-.64-1.02-1.02.15.19.29.38.44.57-.36-.47-.66-.97-.9-1.51.09.22.19.45.28.67-.26-.63-.44-1.28-.53-1.96.03.25.07.5.1.75-.07-.58-.07-1.16,0-1.74l-.1.75c.07-.53.21-1.04.41-1.53l-.28.67c.2-.46.44-.88.74-1.27-.15.19-.29.38-.44.57.26-.32.56-.61.88-.87-.19.15-.38.29-.57.44.78-.59,1.72-.99,2.56-1.48.87-.51,1.73-1.04,2.59-1.56,1.81-1.1,3.63-2.18,5.58-3.01-.22.09-.45.19-.67.28,1.17-.49,2.39-.89,3.65-1.08l-.75.1c.78-.1,1.55-.12,2.33-.02-.25-.03-.5-.07-.75-.1.59.09,1.16.24,1.71.46-.22-.09-.45-.19-.67-.28.59.25,1.13.57,1.63.95-.19-.15-.38-.29-.57-.44.61.47,1.15,1.02,1.63,1.62-.15-.19-.29-.38-.44-.57.42.54.76,1.12,1.02,1.75-.09-.22-.19-.45-.28-.67.26.65.44,1.32.54,2.01l-.1-.75c.13,1.02.1,2.04-.03,3.06.03-.25.07-.5.1-.75-.33,2.38-1.17,4.66-2.09,6.87-.03.25-.07.5-.1.75-.01.39.07.75.24,1.09.23.54.62,1.07,1.16,1.35,1.09.57,2.55.5,3.42-.44,1.17-1.25,2.36-2.47,3.71-3.53-.19.15-.38.29-.57.44.88-.68,1.82-1.27,2.84-1.71-.22.09-.45.19-.67.28.73-.3,1.47-.52,2.25-.64-.25.03-.5.07-.75.1.59-.08,1.18-.1,1.77-.03-.25-.03-.5-.07-.75-.1.77.11,1.5.31,2.21.6-.22-.09-.45-.19-.67-.28.72.31,1.38.7,2.01,1.17-.19-.15-.38-.29-.57-.44.64.49,1.21,1.06,1.71,1.69-.15-.19-.29-.38-.44-.57.46.61.85,1.25,1.16,1.95l-.28-.67c.4.96.67,1.98.82,3.01-.03-.25-.07-.5-.1-.75.14,1.07.14,2.15,0,3.22.03-.25.07-.5.1-.75-.16,1.18-.49,2.33-.95,3.43.09-.22.19-.45.28-.67-.53,1.23-1.22,2.37-2.04,3.43.15-.19.29-.38.44-.57-.92,1.18-1.98,2.22-3.16,3.14.19-.15.38-.29.57-.44-1.22.94-2.55,1.72-3.96,2.32.22-.09.45-.19.67-.28-1.52.63-3.11,1.01-4.71,1.37-1.88.42-3.79.75-5.7,1.01l.75-.1c-6.09.81-12.23.89-18.36.8-1.53-.02-3.05.15-4.58.06-1.56-.09-3.11-.1-4.68-.11-3.19-.04-6.37-.11-9.56-.2-3.57-.1-7.16-.08-10.7-.55l.75.1c-4.48-.61-8.88-1.75-13.05-3.5l.67.28c-1.07-.45-2.16-.91-3.18-1.49-1.02-.57-1.98-1.29-2.93-1.97-.56-.41-1.54-.46-2.18-.28-.66.18-1.37.69-1.69,1.3-.35.66-.52,1.45-.28,2.18.24.74.67,1.23,1.3,1.69.91.66,1.83,1.31,2.8,1.89.92.55,1.94.98,2.93,1.41,2.18.94,4.39,1.76,6.67,2.41,2.15.61,4.34,1.07,6.55,1.41,1.3.2,2.61.37,3.93.49,1.21.11,2.43.11,3.64.15,4.74.15,9.49.28,14.23.34,1.15.01,2.29.02,3.44.03.56,0,1.12.08,1.68.1.59.02,1.17,0,1.76-.01,2.3-.08,4.59,0,6.89-.02,4.57-.03,9.14-.21,13.68-.8,2.52-.33,5.03-.74,7.5-1.32,2.01-.47,3.94-1.08,5.79-2.03,3.35-1.73,6.3-4.48,8.18-7.75,2.01-3.47,2.74-7.55,1.84-11.47-1.02-4.46-4.54-8.34-9.12-9.26-2.51-.51-4.92-.04-7.21,1.06-1.82.88-3.42,2.22-4.86,3.62-.62.6-1.22,1.23-1.81,1.87,1.57.92,3.15,1.83,4.72,2.75.81-1.96,1.57-3.97,1.96-6.06.44-2.38.57-4.96-.33-7.26-.94-2.4-2.64-4.51-4.91-5.78-1.88-1.05-4.07-1.46-6.2-1.18-4.22.54-7.9,2.79-11.47,4.96-.79.48-1.58.96-2.38,1.42-1.01.57-1.98,1.05-2.85,1.85-1.92,1.76-2.83,4.58-2.54,7.14.17,1.46.54,2.83,1.28,4.11.71,1.23,1.79,2.47,3.07,3.14,1.69.89,3.52.9,5.24.05,1.34-.66,2.34-1.89,3.18-3.09,2.74-3.91,2.61-8.98,1.43-13.41-.58-2.14-1.41-4.2-2.3-6.23-1.03-2.36-2.13-4.86-3.89-6.77-1.87-2.03-4.25-3.48-6.82-4.45-2.59-.97-5.35-1.22-8.07-.8-4.61.71-8.39,3.94-11.02,7.62-1.36,1.9-2.47,4.08-3.12,6.33-.83,2.88-.95,5.86-.52,8.81.18,1.22.49,2.41.92,3.57.5,1.33,1.63,2.22,3.1,2.02,1.27-.17,2.6-1.38,2.45-2.78-.25-2.42-.94-4.72-2.19-6.82-1.22-2.05-2.87-3.79-4.85-5.13-3.79-2.56-8.75-2.74-13.03-1.42-4.13,1.27-7.82,3.91-10.48,7.3-1.33,1.69-2.47,3.47-3.32,5.45-.95,2.22-1.56,4.44-1.85,6.83-.68,5.62,1.8,11.3,5.71,15.26,1.04,1.05,2.97,1.12,4,0,1.04-1.13,1.11-2.87,0-4Z"/>
    </g>
  </g>
  <path class="cls-12" d="M394.56,142.45c.09-.16.19-.33.28-.49-5.36-4.91-8.94-11.49-10.16-18.63"/>
</svg>