<?xml version="1.0" encoding="UTF-8"?>
<svg id="Layer_1" data-name="Layer 1" xmlns="http://www.w3.org/2000/svg" xmlns:xlink="http://www.w3.org/1999/xlink" viewBox="0 0 709.68 636.95">
  <defs>
    <style>
      .cls-1 {
        fill: #010101;
      }

      .cls-2 {
        fill: #f8d631;
      }

      .cls-3 {
        fill: #fff;
      }

      .cls-4 {
        fill: #da751c;
      }

      .cls-5 {
        fill: #ce6421;
      }

      .cls-6, .cls-7 {
        fill: none;
      }

      .cls-8 {
        fill: #f99c1c;
      }

      .cls-7 {
        stroke: #fff;
        stroke-miterlimit: 10;
        stroke-width: 1.46px;
      }

      .cls-9 {
        fill: #fff16c;
      }

      .cls-10 {
        clip-path: url(#clippath);
      }
    </style>
    <clipPath id="clippath">
      <path class="cls-6" d="M658.48,352.35c0,127.69-103.51,231.2-231.2,231.2-92.09,0-171.61-53.84-208.79-131.77-4.92-10.3-9.09-21.03-12.46-32.11-6.47-21.3-9.96-43.91-9.96-67.32,0-127.69,103.51-231.2,231.2-231.2,65.41,0,124.48,27.16,166.53,70.82,7.16,7.43,13.83,15.34,19.95,23.68,28.12,38.29,44.72,85.55,44.72,136.7Z"/>
    </clipPath>
  </defs>
  <g>
    <path class="cls-1" d="M415.47,242.11c-10.5-91.52-87.78-170.83-184.12-180.97-3.32-.35-6.63-.61-9.92-.79-10.05-20.49-33.16-45.19-46.72-58.7-3.45-3.44-9.38-1.16-9.59,3.71-.89,20.78-8.81,49.85-12.87,63.55-37.47,11.54-70.87,33.67-96.77,62.35-12.89-14.36-27.66-22.47-37.01-26.56-4.03-1.76-8.44,1.57-7.82,5.93,2.89,20.38,6.03,58.03,7.56,77.33-7.87,17.36-13.4,35.73-16.16,54.63-12.97,89.01,36.79,180.09,111.79,216.53,41.34,20.09,79.69,18.4,93.87,17.12,98.79-8.89,222.53-105.46,207.76-234.15Z"/>
    <g>
      <path class="cls-2" d="M658.48,352.35c0,127.69-103.51,231.2-231.2,231.2-92.09,0-171.61-53.84-208.79-131.77-4.92-10.3-9.09-21.03-12.46-32.11-6.47-21.3-9.96-43.91-9.96-67.32,0-17.48,1.94-34.5,5.61-50.87,1.63-7.26,3.6-14.4,5.9-21.38h0c15.46-47.05,45.61-87.43,85.03-115.71h0c6.67-4.79,13.61-9.23,20.78-13.3h0s0,0,0,0c33.61-19.06,72.47-29.94,113.86-29.94,65.41,0,124.48,27.16,166.53,70.82,7.16,7.43,13.83,15.34,19.95,23.68,28.12,38.29,44.72,85.55,44.72,136.7Z"/>
      <g class="cls-10">
        <polygon class="cls-9" points="693.78 264.19 389.67 610.39 418.69 621.64 709.68 279.32 693.78 264.19"/>
      </g>
      <circle class="cls-8" cx="427.28" cy="352.35" r="184.08"/>
      <path class="cls-4" d="M433.66,536.32c-2.12.07-4.24.11-6.38.11-74.9,0-139.36-44.74-168.1-108.95-4.64-10.37-8.36-21.25-11.03-32.54-3.24-13.67-4.95-27.93-4.95-42.59,0-101.66,82.41-184.08,184.08-184.08,2.14,0,4.26.04,6.38.11-98.71,3.36-177.7,84.44-177.7,183.97,0,12.3,1.21,24.32,3.51,35.94,2.27,11.45,5.6,22.52,9.88,33.11,26.56,65.58,89.82,112.38,164.3,114.92Z"/>
      <path class="cls-9" d="M520.3,193.41l31.26-36.05c5.72,3.3,12.27,8.32,20.14,14.44l-31.55,35.13-19.85-13.52Z"/>
      <path class="cls-9" d="M284.93,469.07l-34.95,31.68c6.05,7.46,12,13.8,17.87,19.09l34.93-31.67-17.85-19.09Z"/>
      <g>
        <path class="cls-5" d="M417.11,480.66l-56.85-83.46c-.17-.25-.24-.56-.19-.86l4.69-28.24c.09-.57.59-.99,1.17-.99h34.27c7.43,0,13.81-1.52,19.14-4.56,5.32-3.04,9.6-7.02,12.81-11.95,3.22-4.93,5.32-10.29,6.32-16.08,1.43-8.79.16-16.1-3.81-21.92-3.97-5.83-11.92-8.74-23.85-8.74h-37.73c-.83,0-1.4-.83-1.1-1.61l15.38-39.87c.18-.46.61-.76,1.1-.76h29.31c18.51,0,33.57,2.68,45.19,8.04,11.61,5.36,19.76,13.12,24.44,23.27,4.68,10.15,5.81,22.41,3.38,36.77-2.14,12.51-5.84,23.34-11.1,32.48-5.25,9.15-12.35,16.87-21.28,23.16-8.93,6.29-20.07,11.54-33.42,15.75-.02,0-.04.01-.06.02h0c-.7.27-.98,1.12-.57,1.75l49.33,75.88c.17.26.23.58.17.89l-.13.62c-.12.55-.6.94-1.16.94h-54.48c-.39,0-.76-.19-.98-.52ZM521.85,318.57l-12,29.05c-.18.44-.61.73-1.09.73h-142.92c-.84,0-1.41-.86-1.09-1.63l12-29.05c.18-.44.61-.73,1.09-.73h142.92c.84,0,1.41.86,1.09,1.63ZM531.37,263.26l-12.61,29.69c-.19.44-.61.72-1.09.72l-118.69.21c-.85,0-1.42-.86-1.09-1.64l12.52-29.9c.18-.44.61-.73,1.09-.73h118.79c.85,0,1.42.86,1.09,1.64Z"/>
        <path class="cls-2" d="M498.01,260.97l-26.69.17-69.98.45-4.89.03c-.47,0-.9.29-1.08.73l-12.52,29.91c-.33.78.25,1.64,1.09,1.64l54.73-.1,26.57-.04h7.5s29.89-.07,29.89-.07c.48,0,.91-.29,1.09-.73l12.63-30.45c.32-.78-.25-1.64-1.1-1.64l-17.24.11ZM361.41,318.41l-11,26.64c-.65,1.57.51,3.3,2.21,3.3h141.12c.48,0,.91-.29,1.09-.73l12-29.05c.32-.78-.25-1.63-1.09-1.63h-142.11c-.97,0-1.84.58-2.21,1.48ZM472.74,293.73c-.11-.27-.23-.54-.36-.81-.66-1.42-1.38-2.81-2.18-4.13-3.17-5.33-7.45-9.9-12.82-13.71-2.84-2.03-5.99-3.83-9.44-5.42-11.62-5.36-26.68-8.04-45.19-8.04l-1.41-.03-27.1-.7c-.96-.02-1.84.56-2.18,1.47l-14.56,38.43c-.56,1.49.53,3.08,2.12,3.08h36.16c11.94,0,19.89,2.91,23.86,8.74.03.04.06.09.09.14.89,1.32,1.65,2.72,2.26,4.2,2.06,4.99,2.55,10.86,1.46,17.59-.07.42-.15.84-.24,1.26-.9,4.45-2.47,8.64-4.72,12.57-.43.76-.89,1.51-1.37,2.25-3.21,4.93-7.49,8.92-12.81,11.96-3.51,2-7.48,3.34-11.89,4.02-2.29.36-4.7.54-7.24.54h-32.55c-1.57,0-2.91,1.14-3.17,2.68l-2.63,15.85-1.63,9.8c-.15.88.05,1.77.55,2.51l6.2,9.1,50.14,73.62c.22.32.59.52.98.52h54.49c.56,0,1.04-.39,1.16-.94l.13-.62c.06-.31,0-.63-.17-.89l-49.33-75.88c-.41-.63-.13-1.48.57-1.75h0s.04-.02.06-.02c13.35-4.22,24.49-9.46,33.42-15.75,8.94-6.29,16.03-14.01,21.28-23.15,2.44-4.25,4.54-8.85,6.31-13.83,2.04-5.74,3.64-11.96,4.79-18.66.75-4.46,1.17-8.71,1.23-12.76.15-8.66-1.27-16.4-4.25-23.2Z"/>
        <path class="cls-9" d="M390.01,368.97l-37.06,37.06c-.52.52-1.4.44-1.81-.17l-5.47-8.04c-.45-.66-.62-1.46-.49-2.24l1.59-9.57c.04-.24.16-.47.33-.64l17.92-17.92c.22-.22.52-.35.84-.35h19.33c1.34,0,2.64-.05,3.91-.15,1.1-.09,1.72,1.23.94,2.01Z"/>
        <path class="cls-9" d="M495.14,260.99c1.06,0,1.59,1.27.84,2.02l-25.78,25.78-4.96,4.95-54.26,54.26c-.22.22-.52.35-.84.35h-23.18c-1.05,0-1.58-1.27-.84-2.02l29.05-29.05c.22-.22.52-.35.84-.35h4.12c.87,0,1.46-.92,1.06-1.7-.3-.58-.61-1.15-.96-1.7-.29-.47-.24-1.08.16-1.48l36.98-36.98,13.6-13.6c.22-.22.52-.34.83-.35l23.33-.15Z"/>
      </g>
      <path d="M427.28,125.84c-39.14,0-77.71,10.14-111.55,29.33-6.98,3.96-13.83,8.34-20.37,13.03-38.86,27.89-68.45,68.15-83.32,113.37-2.25,6.85-4.2,13.9-5.78,20.94-3.65,16.25-5.5,33.02-5.5,49.84,0,22.47,3.28,44.67,9.75,65.96,3.26,10.74,7.37,21.33,12.21,31.46,37.42,78.43,117.71,129.1,204.56,129.1,124.9,0,226.51-101.61,226.51-226.51,0-48.58-15.15-94.89-43.81-133.92-5.97-8.13-12.55-15.94-19.55-23.2-43.1-44.75-101.04-69.39-163.16-69.39ZM427.28,588.24c-90.44,0-174.05-52.77-213.02-134.44-5.04-10.55-9.31-21.58-12.71-32.77-6.74-22.18-10.16-45.29-10.16-68.69,0-17.51,1.93-34.97,5.73-51.9,1.65-7.34,3.67-14.68,6.02-21.82,15.48-47.09,46.29-89.02,86.75-118.06,6.81-4.88,13.94-9.45,21.21-13.57,35.25-19.99,75.43-30.55,116.18-30.55,64.68,0,125.02,25.66,169.91,72.26,7.29,7.56,14.13,15.69,20.35,24.16,29.85,40.65,45.63,88.88,45.63,139.47,0,130.07-105.82,235.89-235.89,235.89Z"/>
    </g>
    <path d="M184.04,387.7c-28.92-1.6-48.95-6.23-51.03-6.73-17.91-4.28-28.95-22.27-24.66-40.17,4.28-17.88,22.23-28.92,40.09-24.68h0c1.03.24,103.68,23.49,166.99-27.92,14.29-11.6,35.29-9.42,46.89,4.87,11.61,14.29,9.42,35.29-4.87,46.89-55.25,44.85-126.18,50.35-173.41,47.75Z"/>
    <path class="cls-7" d="M148.14,316.36c3.73-.63,7.65-.54,11.56.39h0c.34.08,13.59,3.08,32.93,4.28"/>
    <path class="cls-7" d="M193.99,388.25c-.57-.03-1.14-.06-1.71-.09-13.52-.75-24.82-2.25-32.7-3.56"/>
    <path d="M266.73,636.62c-33.96-1.87-65.74-11.72-91.91-28.47-74.41-47.63-86.91-140.18-88.09-150.57-1.49-13.15-1.69-26.55-.58-39.84,1.78-21.42,20-37.27,41.49-36.09.35.02.69.04,1.04.07,21.68,1.8,37.83,20.89,36.03,42.55-.68,8.17-.56,16.38.35,24.42.3,2.62,7.84,64.64,52.26,93.07,14.86,9.51,33.35,15.12,53.47,16.23,13.04.72,26.18-.48,39.04-3.57,27.35-6.57,49.41-21.21,60.52-40.16,12.16-20.74,10.87-45.38,7.65-62.39-4.04-21.35,10.04-42.02,31.39-46.06,3.15-.6,6.35-.81,9.53-.63,18.13,1,33.15,14.17,36.53,32.03,5.73,30.26,7.41,75.1-17.1,116.92-22.22,37.91-61.33,65.23-110.13,76.95-20.11,4.83-40.8,6.7-61.5,5.55h0Z"/>
    <path d="M376.84,170.89c-5.42-.3-10.81-2.11-15.52-5.53-12.25-8.9-15.55-25.54-8.05-38.34-8.17-7.47-11.7-19.3-8.08-30.52,4.95-15.35,21.41-23.77,36.75-18.81,9.25,2.99,17.13,8.39,22.77,15.63,13.95,17.89,12.89,44.25-2.61,65.59-6.05,8.33-15.69,12.52-25.26,11.99Z"/>
    <ellipse class="cls-3" cx="106.49" cy="192.71" rx="23.71" ry="30.42" transform="translate(-98.69 112.84) rotate(-39.81)"/>
    <ellipse cx="116.64" cy="205.9" rx="12.79" ry="15.6" transform="translate(-107.61 130.32) rotate(-41.84)"/>
    <ellipse class="cls-3" cx="191.85" cy="131.44" rx="23.71" ry="30.42" transform="translate(-39.68 153.29) rotate(-39.81)"/>
    <ellipse cx="200.76" cy="144.44" rx="12.86" ry="15.69" transform="translate(-45.15 170.76) rotate(-41.84)"/>
    <path class="cls-3" d="M190.18,205.05c-.17-2.75-.36-5.68-.55-8.61-.12-1.92-.17-3.85-.4-5.76-.23-1.94-1.62-2.48-3.31-1.38-.32.21-.62.45-.93.69-4.47,3.45-8.94,6.9-13.4,10.36-.8.62-1.77,1.15-1.65,2.4.14,1.46,1.36,1.73,2.44,2.09,3.41,1.13,6.83,2.22,10.24,3.36.72.24,1.4.58,2.28.95,1.74,6.24-.17,11.4-4.81,15.57-3.95,3.55-8.69,4.8-13.96,3.71-.88-.18-1.75-.42-2.63-.49-.87-.07-1.71.68-1.99,1.54-.31.97-.06,1.86.73,2.4.72.49,1.59.83,2.44,1.06,11.86,3.08,24.49-5.89,25.51-18.1.09-1.14.09-2.3.14-3.62,1.06-.34,1.97.22,2.9.4,8.24,1.62,16.55-2.68,19.94-10.33.95-2.14,1.48-4.38,1.32-6.73-.09-1.37-.91-2.19-2.14-2.28-1.13-.09-2.06.5-2.31,1.59-.22,1-.23,2.04-.43,3.04-1.68,8.6-11.59,12.88-19.44,8.15Z"/>
    <path class="cls-3" d="M185.05,230.86c-2.59-.14-4.38-.54-4.57-.58-1.22-.28-1.98-1.49-1.7-2.71.28-1.22,1.49-1.99,2.71-1.7.18.04,10.71,2.31,17.12-3.07,3.75-3.15,5.47-8.43,5.12-15.7-.06-1.25.9-2.31,2.15-2.37,1.27-.06,2.31.91,2.37,2.15.42,8.78-1.85,15.31-6.76,19.41-5.17,4.33-12,4.83-16.45,4.59Z"/>
  </g>
  <path class="cls-7" d="M353.01,127.45c.08-.15.17-.29.25-.44-4.8-4.39-8-10.28-9.09-16.67"/>
</svg>