<?xml version="1.0" encoding="UTF-8"?>
<svg id="Layer_1" data-name="Layer 1" xmlns="http://www.w3.org/2000/svg" viewBox="0 0 731.58 776.98">
  <defs>
    <style>
      .cls-1 {
        fill: #010101;
      }

      .cls-2 {
        fill: #fff;
      }

      .cls-3 {
        fill: #eb001f;
      }
    </style>
  </defs>
  <g>
    <path class="cls-1" d="M546.38,415.06c29.79-118.36-28.92-252.82-143.6-310.46-3.95-1.99-7.93-3.85-11.94-5.62-2.87-30.1-19.97-71.52-30.46-94.62-2.67-5.87-11.08-5.82-13.62.11-10.82,25.34-34.24,57.67-45.68,72.77-51.84-3.22-103.6,8.59-149.12,32.03-9.27-23.83-23.78-40.8-33.46-50.23-4.18-4.07-11.19-1.99-12.47,3.7-5.95,26.62-19.66,74.75-26.8,99.4-17.87,17.84-33.32,38.02-45.58,60.17-57.71,104.27-38.62,240.45,37.3,320.71,41.85,44.24,90.18,60.08,108.35,65.13,126.62,35.19,325.18-26.65,367.07-193.08Z"/>
    <circle class="cls-2" cx="189.26" cy="211.62" r="37.2"/>
    <circle cx="194.32" cy="226.19" r="20.06"/>
    <circle class="cls-2" cx="323.27" cy="168.02" r="37.2"/>
    <circle cx="327.41" cy="183.09" r="20.06"/>
    <path class="cls-2" d="M291.61,281.5c1.07-3.49,2.21-7.21,3.35-10.93.75-2.44,1.59-4.85,2.2-7.32.63-2.52-.84-3.83-3.46-3.26-.5.11-.98.27-1.47.42-7.15,2.19-14.31,4.37-21.46,6.57-1.28.39-2.74.6-3.17,2.2-.51,1.88.88,2.77,2.05,3.73,3.7,2.99,7.43,5.95,11.13,8.95.78.63,1.47,1.38,2.38,2.24-.77,8.55-5.55,14.05-13.25,17.05-6.55,2.55-13.01,1.89-19.04-1.93-1-.63-1.97-1.34-3.04-1.83-1.04-.49-2.44.04-3.18.98-.83,1.06-.94,2.27-.21,3.32.66.94,1.58,1.78,2.53,2.45,13.26,9.36,33.12,4.15,40.08-10.51.65-1.37,1.19-2.8,1.87-4.42,1.47.07,2.34,1.19,3.41,1.85,9.45,5.86,21.77,4.42,29.55-3.48,2.18-2.21,3.89-4.73,4.79-7.72.53-1.75-.1-3.14-1.59-3.83-1.35-.63-2.79-.35-3.61.9-.74,1.13-1.24,2.42-1.95,3.57-6.11,9.87-20.39,10.55-27.91,1.01Z"/>
    <g>
      <path class="cls-3" d="M727.06,377.17c27.66,145.63-77.71,305.83-149.52,378.41-102.05-3.26-288.74-47-368.87-171.71-28.23-43.93-32.68-102.9-10.6-150.85,22.24-48.27,73.85-82.36,127.41-84.16,40.1-1.35,79.79,15.47,107.28,43.62.58-39.34,17.81-78.85,47.83-105.46,40.1-35.55,101.01-46.32,150.36-26.6,49.02,19.6,86.37,65.46,96.11,116.76Z"/>
      <g>
        <path class="cls-2" d="M603.91,365.6c16.88,7.43,32.1,20.96,42.51,36.58,14.7,21.85,21.4,48.91,17.78,75.15-.24,1.78,1.02,3.41,2.8,3.64,1.53.19,2.95-.72,3.45-2.11,2.17-6.02,3.95-12.26,5.17-18.71,4.67-24.77,1.1-50.9-8.86-74.04-6.27-14.52-14.96-27.95-25.93-39.53-5.1-5.4-10.74-10.45-16.82-15-8.76-6.62-21.23-4.88-27.85,3.88-7.73,9.96-3.79,25.13,7.74,30.14h0Z"/>
        <path class="cls-2" d="M658.98,492.79c-.57,1.68-1.24,3.32-1.99,4.93-.76,1.61-.13,3.5,1.38,4.37.09.05.18.1.28.14,1.74.79,3.79-.02,4.52-1.78.73-1.75,1.38-3.64,1.95-5.77.39-1.43-.24-2.92-1.5-3.64-.09-.05-.19-.1-.29-.15-1.72-.76-3.74.12-4.34,1.9Z"/>
      </g>
    </g>
    <path d="M191.39,487.3c-35.11-15.51-57.76-30.62-60.11-32.21-20.19-13.68-25.47-41.15-11.78-61.34,13.66-20.16,41.09-25.45,61.25-11.85h0c1.16.78,117.54,77.61,220.06,43.49,23.14-7.69,48.15,4.82,55.85,27.97,7.7,23.15-4.82,48.15-27.97,55.85-89.46,29.76-179.97,3.4-237.29-21.92Z"/>
    <path class="cls-2" d="M232.83,409.56c-23.75-10.68-38.81-20.69-38.96-20.79-4.21-2.84-8.85-4.77-13.8-5.74l.37-1.9c5.2,1.02,10.08,3.05,14.5,6.04.14.1,15.07,10.01,38.68,20.63l-.79,1.76Z"/>
    <path class="cls-2" d="M203.08,493.52c-.7-.3-1.39-.61-2.08-.91-16.96-7.49-30.55-14.87-38.96-19.75l.97-1.67c8.37,4.85,21.9,12.2,38.77,19.66.69.3,1.38.61,2.07.91l-.77,1.77Z"/>
    <path d="M531.81,308.71c-6.57-2.9-12.41-7.67-16.66-14.12-11.02-16.76-7.33-38.94,7.95-51.3-6.63-13.09-5.48-29.4,4.26-41.62,13.32-16.71,37.66-19.45,54.36-6.13,10.07,8.03,17.31,18.41,20.92,30.03,8.92,28.7-4.71,60.88-33.92,80.09-11.4,7.5-25.3,8.18-36.92,3.05Z"/>
    <path d="M180.76,752.92c-41.22-18.2-76.01-45.27-100.62-78.28-69.96-93.84-42.17-214.42-38.77-227.86,4.3-16.99,10.33-33.7,17.91-49.66,12.23-25.72,42.23-36.85,68.3-25.33.42.19.84.38,1.25.57,26.03,12.37,37.13,43.59,24.77,69.59-4.66,9.81-8.36,20.05-10.99,30.43-.86,3.39-20.52,83.79,21.25,139.82,13.97,18.74,34.27,34.35,58.69,45.14,15.83,6.99,32.67,11.64,50.07,13.83,36.98,4.65,71.17-3.18,93.81-21.48,24.77-20.03,34.7-51.17,38.66-73.76,4.98-28.36,32.1-47.39,60.46-42.41,4.18.73,8.25,1.97,12.11,3.67,22,9.72,34.46,33.07,30.3,56.79-7.05,40.19-25.94,96.57-75.88,136.94-45.27,36.6-106.54,52.18-172.5,43.88-27.18-3.42-53.71-10.78-78.83-21.88h-.01Z"/>
  </g>
  <path class="cls-2" d="M522.79,244.78l-.55-1.05h0c-3.97-7.83-4.35-16.47-2.67-25.1h0c-1.6,8.21.62,16.78,4.4,24.23l.35.7-.61.49c-.17.14-.75.59-.92.73Z"/>
</svg>