<?xml version="1.0" encoding="UTF-8"?>
<svg id="Layer_1" data-name="Layer 1" xmlns="http://www.w3.org/2000/svg" viewBox="0 0 679.5 453.39">
  <defs>
    <style>
      .cls-1 {
        fill: #010101;
      }

      .cls-2 {
        fill: #fff;
      }

      .cls-3 {
        fill: #fcb813;
      }

      .cls-4 {
        fill: #e5a413;
      }
    </style>
  </defs>
  <g>
    <path class="cls-1" d="M636.23,274.75c-1.89,22.86-7.59,44.67-17.15,65.5-.2.43-.3.9-.45,1.36-1.59.06-3.19.19-4.78.19-125.15.01-250.3.01-375.45,0-1.75,0-3.49-.22-5.24-.34-1.51-.88-3.01-1.8-4.54-2.64-19.27-10.53-36.43-23.7-50.77-40.42-16.29-19-27.41-40.75-34.33-64.71-4.14-14.33-6.62-28.95-7.94-43.8-1.44-16.14-1.33-32.28-.51-48.42.57-11.17,1.76-22.31,3.18-33.42.75-5.89.7-11.81-.6-17.65-2.58-11.51-9.63-19.36-23.91-20.24-6.86-.42-13.31,1.34-19.44,4.35-7.01,3.46-12.81,8.4-17.71,14.44-3.75,4.61-6.79,9.66-9.25,15.08-1.94,4.27-4.49,8.14-7.99,11.27-10.26,9.17-22.08,12.06-35.18,7.74-13.12-4.34-20.9-13.8-23.53-27.26-1.24-6.36-.74-12.84,1.93-18.84C16.43,45.76,37.99,22.08,69.86,8.65,84.8,2.35,100.46-.72,116.66.15c30.8,1.65,56.14,13.98,74.34,39.45,8.2,11.5,13.12,24.44,15.78,38.26,2.79,14.45,2.49,28.94.63,43.46-2.38,18.6-3.31,37.28-2.3,56.01.82,15.21,3.22,30.18,8.43,44.6,6.11,16.91,15.83,31.3,29.86,42.67.99.81,2.03,1.55,3.08,2.27.59.41,1.26-.03,1.28-.78,0-.32-.01-.64-.02-.96-1.21-36.18,6.78-70.24,24.77-101.61,27.98-48.81,69.52-80.18,124.08-94.01,20.47-5.19,41.34-6.46,62.38-4.61,2.04.17,3.21-.33,4.35-2.02,8.47-12.6,17.05-25.14,25.59-37.7.72-1.05,1.38-2.17,2.23-3.12,3.04-3.38,8.18-2.42,9.59,1.89.78,2.42,1.12,4.98,1.6,7.49,2.63,13.98,5.28,27.95,7.84,41.94.38,2.04,1.02,3.44,3.21,4.22,6.93,2.48,13.52,5.74,20.06,9.11,1.74.9,1.88.87,2.99-.92,5.61-9.12,11.2-18.26,16.8-27.39.59-.95,1.19-1.89,1.77-2.85,1.41-2.3,3.46-3.27,6.1-2.81,2.72.47,4.13,2.32,4.62,4.88.75,3.92,1.4,7.87,2.05,11.81,2.35,14.19,4.67,28.38,7.04,42.57.83,4.94.88,4.92,4.5,8.52,12.32,12.25,22.86,25.88,31.56,40.91,12.23,21.12,20.17,43.78,23.84,67.88,2.3,15.07,2.78,30.22,1.52,45.44Z"/>
    <g>
      <path class="cls-2" d="M469.64,198.01c-4.18-8.73-.58-21.21,7.91-28.1,9.43-7.65,22.74-7.88,32.39-.57,9.71,7.36,13.01,20.13,7.82,31.86-16.18-1.07-32.22-2.14-48.12-3.19ZM505.41,194.29c5.2-.04,9.33-4.29,9.29-9.56-.04-5.28-4.2-9.41-9.43-9.37-5.25.04-9.31,4.21-9.28,9.51.03,5.25,4.24,9.46,9.42,9.42Z"/>
      <path class="cls-2" d="M535.48,253.69c1.92-2.84,3.97-5.87,6.02-8.9,1.34-1.99,2.76-3.93,3.99-5.98,1.26-2.09.3-3.68-2.22-3.88-.48-.04-.96-.03-1.44-.03-7.03,0-14.07,0-21.1,0-1.26,0-2.63-.22-3.45,1.11-.97,1.55.03,2.74.82,3.92,2.5,3.71,5.04,7.4,7.54,11.11.53.78.94,1.64,1.53,2.67-3.04,7.47-8.85,11.11-16.6,11.69-6.59.49-12.22-1.88-16.59-6.97-.73-.84-1.41-1.74-2.23-2.48-.8-.72-2.2-.64-3.13,0-1.04.72-1.47,1.79-1.1,2.92.34,1.03.93,2.03,1.6,2.9,9.35,12.07,28.64,12.84,38.93,1.58.96-1.06,1.84-2.19,2.89-3.46,1.3.46,1.78,1.72,2.55,2.6,6.89,7.87,18.36,9.97,27.52,5,2.57-1.39,4.8-3.18,6.43-5.63.95-1.42.77-2.85-.38-3.88-1.04-.94-2.41-1.08-3.49-.19-.98.81-1.78,1.83-2.73,2.67-8.21,7.19-21.24,3.87-25.37-6.77Z"/>
      <path class="cls-2" d="M582.2,203.48c-9.24-.56-18.47-1.14-27.71-1.71-3.66-.23-7.33-.43-10.99-.71-2.32-.17-2.86-.65-3.17-2.76-.47-3.18-.49-6.38.25-9.52,2.36-9.96,11.17-17.11,21.33-17.61,11.08-.54,20.06,6.37,23.16,15.8,1.79,5.46,1.81,10.93-.96,16.38-.97.07-1.45.15-1.92.12ZM567.76,190.16c.08-4.98-4.11-9.07-9.1-9.18-5.26-.12-9.54,3.94-9.63,9.13-.08,5.2,4.08,9.38,9.34,9.39,4.63.2,9.28-3.37,9.38-9.34Z"/>
      <path d="M495.99,184.87c.03,5.25,4.24,9.46,9.42,9.42,5.2-.04,9.33-4.29,9.29-9.56-.04-5.28-4.2-9.41-9.43-9.37-5.25.04-9.31,4.21-9.28,9.51Z"/>
      <path d="M558.38,199.5c4.63.2,9.28-3.37,9.38-9.34.08-4.98-4.11-9.07-9.1-9.18-5.26-.12-9.54,3.94-9.63,9.13-.08,5.2,4.08,9.38,9.34,9.39Z"/>
    </g>
  </g>
  <path class="cls-4" d="M624.7,394.63c-.06,1.92-.16,3.83-.16,5.75-.01,15.66,0,31.33-.01,46.99,0,1.44-.02,2.88-.07,4.31-.03.92-.56,1.48-1.48,1.52-1.6.07-3.19.09-4.79.09-50.51,0-101.03,0-151.54,0-76.89,0-153.78,0-230.67-.03-2.52,0-5.09.49-7.56-.41-1.21-2.58-.56-5.32-.57-7.97-.07-19.34-.04-38.68-.04-58.02,11.04,0,22.08-.02,33.11,0,1.27,0,2.63-.1,3.8.3,2.04.7,4.09.63,6.16.63,12.16.02,24.32,0,36.47.03,1.43,0,2.97-.17,4.28.27,2.21.73,4.41.65,6.64.66,12,.02,24,.01,35.99.03,1.44,0,2.98-.21,4.29.24,2.36.8,4.73.69,7.11.69,11.84.02,23.68,0,35.51.04,1.59,0,3.26-.09,4.75.34,1.9.56,3.78.58,5.69.58,12.16.01,24.32,0,36.47.03,1.59,0,3.27-.14,4.76.31,2.06.62,4.09.62,6.16.62,12.16.01,24.32,0,36.47.03,1.43,0,2.97-.17,4.28.26,2.21.74,4.41.66,6.64.66,12,.02,24,0,35.99.04,1.59,0,3.25-.06,4.75.37,1.9.55,3.78.55,5.69.55,12.16.02,24.32,0,36.47.04,1.59,0,3.26-.1,4.75.33,1.9.55,3.78.58,5.69.59,8.32.05,16.63.09,24.95.13Z"/>
  <path class="cls-3" d="M624.7,394.63c-8.32-.04-16.63-.09-24.95-.13-1.91-.01-3.79-.04-5.69-.59-1.49-.43-3.16-.33-4.75-.33-12.16-.03-24.32-.02-36.47-.04-1.91,0-3.79,0-5.69-.55-1.49-.43-3.16-.37-4.75-.37-12-.03-24-.02-35.99-.04-2.23,0-4.43.07-6.64-.66-1.31-.44-2.85-.26-4.28-.26-12.16-.02-24.32-.02-36.47-.03-2.07,0-4.11,0-6.16-.62-1.48-.45-3.16-.3-4.76-.31-12.16-.03-24.32-.02-36.47-.03-1.91,0-3.79-.03-5.69-.58-1.49-.44-3.16-.34-4.75-.34-11.84-.03-23.68-.01-35.51-.04-2.39,0-4.75.11-7.11-.69-1.3-.44-2.85-.24-4.29-.24-12-.02-24-.01-35.99-.03-2.23,0-4.43.08-6.64-.66-1.31-.44-2.85-.27-4.28-.27-12.16-.02-24.32-.02-36.47-.03-2.07,0-4.12.07-6.16-.63-1.16-.4-2.52-.3-3.8-.3-11.04-.01-22.08,0-33.11,0-6.53-.27-13.06-.61-19.6-.8-6.38-.18-12.77-.2-19.15-.3-.47,0-.98-.13-1.06-.7-.04-.28.05-.65.23-.87.6-.74,1.25-1.45,1.91-2.14,11.46-12.22,22.99-24.39,34.34-36.71,2.2-2.39,4.42-4.01,7.74-3.74.31.02.63-.09.95-.14,1.75.12,3.5.34,5.24.34,125.15.02,250.3.02,375.45,0,1.59,0,3.19-.13,4.78-.2,4.52-.54,7.64,1.65,10.79,4.72,15.53,15.16,31.27,30.1,46.93,45.13,1.12,1.07,2.17,2.22,3.14,3.23-.15.44-.16.63-.27.72-.1.1-.29.12-.45.13-.47.04-.95.09-1.43.09-11.49-.17-22.98-.33-34.47-.53-5.9-.11-11.8-.3-17.7-.46-.16,0-.32,0-.48,0Z"/>
</svg>