<?xml version="1.0" encoding="UTF-8"?>
<svg id="Layer_1" data-name="Layer 1" xmlns="http://www.w3.org/2000/svg" viewBox="0 0 825.19 376.06">
  <defs>
    <style>
      .cls-1 {
        fill: #fff;
      }
    </style>
  </defs>
  <path d="M126.4,277.95c-.16-.27-.62-1.03-.84-1.13-3.26-1.56-6.45-2.91-9.68-4.36-2.04,1.7-3.83,3.59-5.91,5.25-12.56,10.02-22.83,19.35-34.9,29.95-7.55,6.63-15.47,11.74-24.43,16.34-2.8,1.44-5.21,3.12-8.6,3.83-15.76,3.3-30.26-2.85-38.34-17.93-7.38-13.79-3.12-27.8,7.57-39.18,3.17-3.38,6.78-6.42,10.91-8.95,15.73-9.62,29.32-20.21,41.96-33.79,2.61-2.8,4.97-5.96,7.62-8.71-.17-1.09-.32-2.12-.53-3.21-3.35-17.64-4.03-34.24.02-51.67,1.07-4.62,2.53-8.44,3.69-12.79.74-2.77,1.43-5.52,1.97-8.18,4.62-22.65,9.46-45.2,14.99-67.54,1.31-5.29,2.84-10.12,4.39-15.26.39-1.28.66-2.59,1.43-3.67,2.74-3.86,7.05-3.57,9.59.33,1.25,1.92,1.9,4.13,2.78,6.24,2.91,6.92,5.6,13.9,8.45,20.88.23.57.7,1.3,1.02,1.86.8-.59,1.72-1.18,2.45-1.85,3.79-3.48,7.77-6.93,11.63-10.24,2.02-1.73,3.36-3.74,4.63-5.97,8.78-15.47,17.53-31.01,26.45-46.34,3.14-5.4,6.4-10.48,9.68-15.72.62-.99,1.19-2.03,2-2.82,3.35-3.21,8.07-2.06,9.39,2.23s1.74,8.38,2.64,12.63c1.14,5.39,1.91,10.7,2.92,16.12.14.78.56,1.67.83,2.44,1.33-.46,2.6-.85,3.85-1.4,12.78-5.59,23.81-10.44,37.37-15.01,19.07-6.43,35.98-11.28,57.31-15.39,10.74-2.07,21.82-3.56,35.57-4.42,65.55-4.11,121.36,17.17,173.44,56.84,15.18,11.56,30.13,26,43.41,39.85,1.47,1.53,2.71,2.74,4.08,4.16,1.78-1.09,1.51-3.32,2.36-4.75,7.48-12.64,15.56-23.22,26.36-33.82,30.51-29.94,61.18-47.93,105.34-45.96,19.47.87,36.31,5.45,53.2,13.91,34.32,17.19,59.28,45.04,78.15,77.85,3.53,6.15,6.63,12.24,9.32,18.58,3.72,8.78,4.64,17.56.72,26.46-7.48,16.96-23.29,25.63-41.26,22.29-11.9-2.22-18.22-9.01-23.54-19.13-7.72-14.71-15.27-29.76-26.68-42.07-7.83-8.45-16.4-16.4-26.5-21.58-11.03-5.66-21.87-9.15-34.23-8.21-20.07,1.52-33.46,10.84-43.12,28.82-3.37,6.28-5.03,13.49-5.89,21.48-1.98,18.39-6.18,37.89-9.1,56.51-.55,3.48-.94,7.61-2.43,10.82-.53,1.14-1.03,2.43-1.32,3.69,1.31.75,3.07,2.01,4.56,2.54,8.13,2.91,20.07,12.29,26.57,15.81,10.8,5.86,23.12,12.22,29.49,19.41,10.01,11.3,9.78,20.36,3.28,31.84-6.5,11.48-17.13,16.3-30.54,15.73-7.38-.31-13.25-3.24-21.93-6.31-13.13-4.65-30.3-12.56-43.66-19.38-.86-.44-2.09-1.03-2.87-1.45-1.74-.95-3.38-1.34-5.11-.5s-3.17.94-4.24,2.59c1.37.74,2.66,1.61,4.06,2.28,32.39,15.45,64.87,29.44,99.88,37.34,3.57.81,7.96,1.51,10.87,2.04,22.57,4.13,37.51,15.62,31.02,38.98-5.68,20.43-23.02,28.44-42.37,28.88-6.74.15-14.41-2.76-21.63-4.33-23.93-5.2-49.58-15.74-71.26-25.88-23.2-10.86-47.26-23.1-68.48-33.58-29.87-14.75-57.38-26.99-86.74-39.71-15.65-6.78-30.56-12.18-46.48-15.78-11.8-2.67-24.31-5.2-35.46-5.5-21.26-.57-40.29,4.89-56.76,16.46-20.59,14.46-40.07,26.79-60.66,39.71-20.85,13.09-41.87,24.18-64.88,33.3-10.91,4.33-21.77,9.21-34.32,11.83-15.06,3.15-30.61-3.8-37.4-18.94-7.01-15.63-1.33-28.51,11.22-38.94,2.8-2.33,5.25-4.04,8.28-5.46,6.99-3.29,13.65-6.45,20.6-9.75.88-.42,1.91-1.06,2.8-1.54ZM148.83,158.28c2.27,1.43,4.98,2.43,7.62,2.47,11.23.19,20.11-3.08,28.81-10.1,2.02-1.63,3.86-4,5.05-6.38,3.21-6.39,2.15-12.07-3.96-15.95-3.08-1.95-6.32-2.62-9.89-2.72-7.75-.21-14.53,1.85-21.45,5.44-3.79,1.97-6.73,4.91-9.4,8.4-.56.73-1.11,2.39-1.54,3.3,1.87-1.12,4.02-2.71,5.87-3.75,4.2-2.35,8.12-3.13,12.8-2.87,2.16.12,3.98.64,5.71,1.94,2.8,2.11,3.6,5.21,2.2,8.44-.82,1.89-2.18,3.5-3.59,4.96-2.61,2.69-5.56,4.29-9.18,5.28-2.91.8-6.09.99-9.06,1.54ZM91.05,187.81c1.8,1.18,4.47,2.23,6.5,2.15,9.94-.39,17.09-4.24,23.82-11.33,1.84-1.94,3.46-4.49,4.24-7.19,1.81-6.27.35-11.52-5.07-15.21-2.47-1.68-4.95-2.47-7.88-2.53-9.69-.21-17.44,2.67-24.38,9.74-1.59,1.62-3,4.37-3.69,6.66,1.52-.84,3.16-2.21,4.73-2.95,4.49-2.12,8.44-3.24,13.17-1.05,4.73,2.19,5.74,6.64,3.77,11.38-1.18,2.85-3.17,5.16-5.81,7.03-2.64,1.87-6.23,2.67-9.39,3.31ZM151.98,197.32s.07.13.05.15c-4,2.11-8.05,4.19-12.05,6.31-.8.42-1.66.86-2.34,1.4-1.45,1.14-1.69,2.74-.12,3.85,4.31,3.06,8.68,6.01,13.18,8.76,1.65,1.01,2.83.33,3.18-1.63,1.01-5.6,2.03-11.62,2.81-17.27.27-2-.83-2.93-2.64-2.46-.74.19-1.39.63-2.06.89Z"/>
  <path class="cls-1" d="M148.83,158.28c2.97-.55,6.15-.73,9.06-1.54,3.62-.99,6.57-2.59,9.18-5.28,1.42-1.46,2.77-3.07,3.59-4.96,1.4-3.23.61-6.33-2.2-8.44-1.72-1.3-3.55-1.82-5.71-1.94-4.68-.26-8.6.52-12.8,2.87-1.85,1.04-4,2.63-5.87,3.75.43-.9.98-2.56,1.54-3.3,2.67-3.49,5.6-6.43,9.4-8.4,6.91-3.59,13.69-5.65,21.45-5.44,3.57.1,6.81.77,9.89,2.72,6.11,3.88,7.17,9.56,3.96,15.95-1.2,2.38-3.03,4.75-5.05,6.38-8.71,7.03-17.59,10.29-28.81,10.1-2.64-.04-5.35-1.05-7.62-2.47Z"/>
  <path class="cls-1" d="M91.05,187.81c3.16-.64,6.75-1.44,9.39-3.31,2.64-1.87,4.63-4.17,5.81-7.03,1.97-4.75.96-9.19-3.77-11.38-4.73-2.19-8.68-1.07-13.17,1.05-1.57.74-3.2,2.11-4.73,2.95.69-2.29,2.1-5.04,3.69-6.66,6.94-7.06,14.69-9.95,24.38-9.73,2.93.06,5.41.85,7.88,2.53,5.42,3.69,6.88,8.94,5.07,15.21-.78,2.69-2.4,5.25-4.24,7.19-6.73,7.1-13.88,10.95-23.82,11.33-2.03.08-4.7-.97-6.5-2.15Z"/>
  <path class="cls-1" d="M151.98,197.32c.68-.27,1.33-.7,2.06-.89,1.82-.47,2.92.46,2.64,2.46-.78,5.65-1.8,11.68-2.81,17.27-.35,1.97-1.53,2.64-3.18,1.63-4.5-2.74-8.88-5.7-13.18-8.76-1.57-1.11-1.33-2.71.12-3.85.68-.54,1.54-.98,2.34-1.4,3.99-2.12,8.04-4.2,12.05-6.31.03-.03-.09-.13-.05-.15Z"/>
</svg>