<?xml version="1.0" encoding="UTF-8"?>
<svg id="Layer_1" data-name="Layer 1" xmlns="http://www.w3.org/2000/svg" viewBox="0 0 398.2 278.95">
  <defs>
    <style>
      .cls-1 {
        fill: #8b8b8b;
      }

      .cls-2 {
        fill: #fcfcfc;
      }

      .cls-3 {
        fill: #7e7e7e;
      }

      .cls-4 {
        fill: #fff;
      }

      .cls-5 {
        fill: #cecece;
      }

      .cls-6 {
        fill: #606060;
      }

      .cls-7 {
        fill: #878787;
      }

      .cls-8 {
        fill: #9d9d9d;
      }

      .cls-9 {
        fill: #fdfdfd;
      }
    </style>
  </defs>
  <g>
    <path d="M198.1,263.74c2.69,8.72,10.11,14.61,18.8,15.09,9.33.51,17.57-4.95,20.92-13.25.23-.56.38-1.15.57-1.72.31-.91.93-1.27,1.92-1.29,2.9-.04,5.8-.12,8.69-.27,18.05-.95,34.88-6.05,50.62-14.87.32-.18.66-.32.93-.55,1.61-1.38,3.12-1.09,4.87-.07,3.55,2.05,7.18,3.99,10.86,5.79,6.39,3.14,12.87,3.13,19.17-.17,13.3-6.97,15.34-24.93,3.86-34.76-.91-.78-1.91-1.47-2.88-2.2-.27-.84.41-1.29.77-1.86,1.96-3.05,4.01-6.04,5.87-9.14.77-1.28,1.55-1.88,3.13-1.85,5.32.1,25.05-6.34,30.36-6.29,2.33.02,4.6-.27,6.79-.97,10.94-3.53,15.74-13.76,14.7-22.36-1.53-12.68-12.06-18.78-20.15-18.8-.73,0-1.45-.04-2.18-.01-3.74.12-17.58,6.3-17.3,3.28.75-7.96.83-15.94-.02-23.89-2.25-20.98-9.54-40.06-22.01-57.11-1.28-1.75-2.58-3.51-4.02-5.14-1.18-1.33-1.76-2.83-2.05-4.54-1.49-8.93-2.98-17.86-4.5-26.79-.61-3.57-1.29-7.13-1.93-10.69-.09-.48-.12-.96-.23-1.43-.38-1.57-1.39-2.55-2.97-2.79-1.47-.22-2.56.53-3.36,1.7-.48.7-.89,1.43-1.33,2.16-3.32,5.47-6.64,10.95-9.97,16.41-.95,1.56-1.03,1.57-2.49.69-3.52-2.12-7.07-4.18-10.81-5.88-1.25-.57-1.8-1.45-2.04-2.71-.8-4.15-1.66-8.29-2.45-12.44-1.06-5.57-2.07-11.16-3.11-16.74-.13-.71-.29-1.43-.53-2.11-.92-2.59-3.98-3.19-5.8-1.11-.63.72-1.12,1.58-1.66,2.38-4.6,6.81-9.26,13.57-13.75,20.45-1.15,1.76-2.33,2.38-4.42,2.01-5.96-1.07-12-1.46-18.05-1.3-38.14.99-69.01,16.54-92.38,46.66-11.69,15.07-18.82,32.26-21.98,51.05-2.61,15.56-2,31.05,1.57,46.43.08.35.23.69.3,1.04.15.73-.25,1.18-.99,1.06-2.38-.38-4.77-.76-7.14-1.2-12.16-2.24-23.97-5.59-35.19-10.86-8.92-4.18-17.13-9.43-24.26-16.28-7.35-7.06-13.02-15.26-16.16-25.01-4.57-14.19-3-27.9,3.83-41.05,5.07-9.75,12.4-17.49,21.41-23.69,9.17-6.31,19.3-10.42,30.1-12.91,3.64-.84,7.34-1.49,11.04-2.05,9.52-1.44,16.99-9.77,17.57-19.39.64-10.48-6.32-19.29-15.59-21.74-3.35-.88-6.71-.79-10.07-.29-15.88,2.38-31.09,6.9-45.3,14.49-18.42,9.83-33.35,23.41-44.09,41.41C6.13,68.81,1.55,82.36.36,96.91c-2.08,25.33,4.92,48.02,20.51,68.06,9.86,12.67,22.09,22.58,36.01,30.48,13.32,7.56,27.54,12.84,42.35,16.58,11.73,2.96,23.63,4.98,35.69,5.99,4.82.4,9.64.76,14.46,1.07,1.18.08,1.99.5,2.78,1.4,3.15,3.59,3.17,3.57,3.18,8.32.02,9.79.11,19.58.05,29.37-.04,8.31,5.66,17.37,15.46,20.03,10.24,2.78,20.99-2.41,25.06-12.17.41-.99.64-2.07.95-3.11,1.04-.69.99.31,1.26.81Z"/>
    <path class="cls-6" d="M198.1,263.74c-.03-.43.02-.88-.11-1.27-.12-.38-.36-.9-.88-.7-.5.19-.38.72-.27,1.16.42.27.84.54,1.26.81Z"/>
    <path class="cls-9" d="M275.78,116.48c-5.13-1.18-8.55-4.28-10.25-9.23-2.55-7.46,1.76-15.62,9.34-17.76,1.04-.29,2.12-.48,3.17-.72.24-.16.32-.32.24-.48-.08-.16-.15-.25-.23-.25-9.11-2.61-18.67,3.97-19.61,13.4-.86,8.62,4.93,16.2,13.58,17.54,3.08.48,5.98-.14,8.81-1.29-1.23-2.29-3.53-.13-5.05-1.21Z"/>
    <path class="cls-2" d="M322.96,116.28c-1.78.22-3.52.52-5.36.29-4.38-.54-9.09-4.41-9.9-9.62-.86-5.49,1.62-10.58,6.4-12.91.96-.47,2.04-.68,3.06-1.01.36-.55,1.84.16,1.42-1.26-2.17-.26-4.33-.35-6.46.26-7.93,2.27-12.21,10.67-9.36,18.37,2.76,7.49,11.4,11.13,18.78,7.91.77-.34,1.46-.84,2.18-1.27.16-.67.01-1.03-.76-.76Z"/>
    <path class="cls-2" d="M290.59,131.44c.08.22.14.58.32.88,1.73,2.9,3.46,5.81,5.25,8.68.66,1.07,1.62,1.17,2.35.23,2.08-2.67,4.13-5.36,6.11-8.1.79-1.09.21-2.1-1.22-2.21-3.49-.27-6.99-.49-10.49-.72-.48-.03-.99-.06-1.44.07-.45.13-.81.49-.88,1.17Z"/>
    <path class="cls-3" d="M275.78,116.48c.75.82,1.77.58,2.7.68.8.08,1.71-.28,2.35.53.42-.15.86-.28,1.25-.47.17-.08.33-.31.37-.5.07-.29-.12-.42-.42-.41-2.08.06-4.17.12-6.25.18Z"/>
    <path class="cls-1" d="M318.59,91.77c-.47.42-.95.84-1.42,1.26h4.02c-.71-1.08-1.46-1.53-2.59-1.26Z"/>
    <path class="cls-8" d="M322.96,116.28c.25.25.51.51.76.76.86-.1,1.39-.6,1.67-1.39-.31-.35-.65-.38-1.02-.09-.58.02-1.07.23-1.41.72Z"/>
    <path class="cls-5" d="M278.05,88.03c0,.24,0,.49,0,.73.44.01.88.04,1.32.03.09,0,.26-.15.25-.19-.05-.16-.13-.41-.24-.43-.43-.09-.87-.1-1.31-.14Z"/>
    <path class="cls-7" d="M324.37,115.57c.34.03.68.06,1.02.09.12-.15.23-.31.35-.46-.18-.05-.39-.19-.53-.14-.3.12-.56.34-.84.51Z"/>
  </g>
  <path class="cls-4" d="M300.35,139.92c1.02-1.57,2.11-3.23,3.19-4.91.71-1.09,1.47-2.16,2.12-3.29.66-1.15.13-2.01-1.24-2.09-.26-.02-.52,0-.78,0-3.83.07-7.66.13-11.49.2-.68.01-1.43-.09-1.87.63-.51.85.04,1.49.48,2.13,1.4,2,2.82,3.98,4.21,5.98.29.42.53.88.86,1.44-1.59,4.1-4.72,6.13-8.93,6.52-3.59.33-6.67-.91-9.1-3.64-.4-.45-.78-.94-1.24-1.33-.44-.39-1.2-.33-1.71.03-.56.4-.79.99-.57,1.6.19.56.52,1.1.9,1.56,5.2,6.48,15.71,6.72,21.21.49.52-.58.98-1.21,1.54-1.91.71.24.98.92,1.42,1.39,3.82,4.22,10.09,5.25,15.03,2.46,1.38-.78,2.58-1.78,3.45-3.12.51-.78.39-1.56-.24-2.11-.58-.5-1.32-.57-1.9-.07-.52.45-.95,1.02-1.46,1.48-4.4,3.99-11.53,2.31-13.88-3.45Z"/>
</svg>