<?xml version="1.0" encoding="UTF-8"?>
<svg id="Layer_1" data-name="Layer 1" xmlns="http://www.w3.org/2000/svg" viewBox="0 0 1080 564.06">
  <defs>
    <style>
      .cls-1 {
        fill: #fff;
      }
    </style>
  </defs>
  <path d="M866.28,369.03c-3.58,4.08-6.91,7.88-10.59,12.07,2.41.62,4.27.29,6.09.12,9.55-.89,19.12-1.7,28.65-2.8,21.55-2.49,41.67,13.12,44.76,34.94,2.85,20.07-10.63,42.61-35.09,45.97-29.09,3.99-58.33,4.98-87.63,3.65-27.69-1.26-55.09-4.99-82.2-10.79-23.94-5.12-47.51-11.61-70.64-19.67-5.43-1.89-10.76-4.06-16.2-5.92-10.47-3.58-21.22-6.12-32.23-7.18-6.51-.63-13.1-.79-19.64-.73-18.49.19-36.61,3.35-54.54,7.55-18.83,4.41-37.6,9.09-56.37,13.73-18.19,4.49-36.57,7.79-55.18,9.97-24.83,2.92-49.74,4.07-74.72,3.47-16.63-.4-33.22-1.55-49.77-3.45-28.98-3.32-57.49-8.94-85.4-17.46-5.65-1.72-11.31-3.49-16.84-5.56-13.39-5.02-21.96-14.6-25.56-28.4-5.76-22.1,8.51-44.89,30.86-49.65,7.72-1.64,15.25-1.07,22.67,1.52,11.94,4.16,24.07,7.63,36.39,10.48,16.37,3.8,32.91,6.62,49.63,8.35,3.16.33,6.32.66,9.61,1,0-.78.17-1.31-.03-1.62-2.68-4.17-5.41-8.3-8.32-12.72-1.39-.02-2.97-.1-4.55-.07-27.88.56-54.68-4.91-80.71-14.56-16.77-6.22-27.23-22.69-26.46-40.05.75-16.99,12.09-31.91,28.62-37.04,8.85-2.75,17.63-2.33,26.39.66,6.2,2.11,12.44,4.14,18.76,5.83,8.68,2.32,17.55,3.53,26.55,3.6.95,0,1.9,0,3.05,0,.53-1.05,1.09-1.98,1.48-2.98,3.17-8.24,7.16-16.07,12.14-23.36,1.42-2.08,2.03-4.2,2.05-6.7.08-11.37,1.23-22.66,2.81-33.92,1.25-8.92,1.5-17.84-.7-26.7-2.9-11.7-9.61-20.38-20.35-25.94-7.21-3.73-14.93-5.68-22.98-6.29-15.33-1.15-29.92,1.76-43.83,8.24-12.83,5.98-23.69,14.49-32.62,25.47-1.41,1.74-2.75,3.56-4.34,5.12-11.77,11.57-25.82,15.31-41.47,10.45-15.92-4.94-25.37-16.34-28.08-32.75-1.88-11.4,1.02-21.91,8.14-31.13,8.25-10.68,17.62-20.28,28.12-28.76,22.85-18.43,48.65-30.65,77.54-35.92,31.15-5.69,61.6-3.19,90.59,10.11,38.89,17.85,61.92,48.28,70,90.17.39,2.04.62,4.11.99,6.15.16.89.5,1.75.83,2.88,1.46-.55,2.65-.93,3.77-1.44,28.22-12.88,57.7-21.73,88.07-27.78,16.96-3.38,34.05-5.85,51.26-7.32,22.97-1.96,45.98-2.67,69.04-1.55,16.15.79,32.24,2.12,48.25,4.32,8.23,1.13,16.41,2.68,24.61,4.03.76.13,1.54.2,2.3.3.96-1.85.41-3.61.29-5.32-.68-9.73-1.42-19.46-2.1-29.19-.24-3.48,1.07-6.08,3.68-7.18,2.74-1.16,5.32-.76,7.57,1.28.71.64,1.45,1.26,2.15,1.92,3.04,2.84,6.15,5.61,9.09,8.55,13.92,13.91,27.79,27.86,41.68,41.8,2.82,2.83,5.29,6.16,8.51,8.4,3.08,2.15,6.94,3.18,10.45,4.72,3.65,1.6,7.3,3.22,11.25,4.96.36-.97.85-1.77.94-2.61.77-7.8,1.47-15.6,2.2-23.4.28-3.03.6-6.05.91-9.07.31-3.05,2-5.05,4.9-5.84,2.72-.74,5.07.14,6.83,2.36,1.19,1.51,2.34,3.05,3.37,4.67,7.22,11.33,14.57,22.58,21.56,34.05,8.65,14.2,17.03,28.57,25.46,42.91,1.71,2.91,3.61,5.61,5.91,8.11,10.26,11.15,18.71,23.5,24.62,37.52,2.99,7.1,5.08,14.46,6.58,22.12,1.92,1.35,4.22,1.39,6.39,1.48,6.55.29,13.11.57,19.66.52,17.47-.13,34.8-1.89,52.07-4.47,20.89-3.12,42.38,11.78,45.67,34.84,2.75,19.26-9.62,42.03-34.64,45.9-26.3,4.07-52.74,6.08-79.37,5.01-9.93-.4-19.77-1.5-29.49-3.57-.93-.2-1.88-.26-3.1-.42ZM751.05,226.71c-16.96-.01-30.47,13.37-30.62,30.33-.15,17.15,13.41,30.84,30.56,30.86,17.13.02,30.75-13.67,30.63-30.81-.12-16.94-13.63-30.37-30.58-30.38ZM831.54,234.84c-14.82.25-27.06,11.84-26.93,27.32.13,15.37,12.44,26.72,26.92,26.79,14.54.07,27.19-11.28,27.16-27.02-.03-16.19-12.97-27.02-27.15-27.09ZM788.52,309.72s0-.02,0-.03c-.64-.03-1.28,0-1.91-.09-3.57-.48-5.14,1.51-3.06,4.82,3.22,5.12,6.26,10.36,9.39,15.54.33.54.7,1.07,1.13,1.54.76.83,2.17.92,3.03.19.48-.41.92-.88,1.3-1.39,3.57-4.69,7.18-9.35,10.67-14.11,2.36-3.22,1.63-4.84-2.44-5.2-6.03-.53-12.08-.86-18.12-1.28Z"/>
  <path class="cls-1" d="M751.05,226.71c16.95.01,30.46,13.44,30.58,30.38.12,17.13-13.5,30.83-30.63,30.81-17.15-.02-30.71-13.71-30.56-30.86.14-16.96,13.66-30.34,30.62-30.33ZM751.17,275.92c10.22-.08,18.56-8.56,18.48-18.78-.08-10.23-8.54-18.54-18.78-18.47-10.24.07-18.54,8.51-18.46,18.77.08,10.23,8.53,18.55,18.77,18.47Z"/>
  <path class="cls-1" d="M831.54,234.84c14.18.08,27.12,10.91,27.15,27.09.03,15.74-12.62,27.09-27.16,27.02-14.48-.07-26.79-11.42-26.92-26.79-.13-15.48,12.11-27.08,26.93-27.32ZM831.57,278.28c9.17.05,16.56-7.29,16.51-16.38-.05-8.91-7.2-16.21-16.09-16.4-9-.2-16.76,7.19-16.75,16.22.01,9.88,7.79,16.63,16.34,16.56Z"/>
  <path class="cls-1" d="M788.52,309.72c6.04.42,12.09.74,18.12,1.28,4.07.36,4.81,1.98,2.44,5.2-3.49,4.75-7.1,9.41-10.67,14.11-.38.5-.82.98-1.3,1.39-.86.73-2.27.64-3.03-.19-.43-.47-.8-.99-1.13-1.54-3.13-5.18-6.17-10.42-9.39-15.54-2.08-3.31-.51-5.3,3.06-4.82.63.08,1.27.07,1.91.09,0,0,0,.02,0,.03Z"/>
  <path d="M751.17,275.92c-10.24.08-18.69-8.24-18.77-18.47-.08-10.26,8.22-18.7,18.46-18.77,10.24-.07,18.7,8.24,18.78,18.47.08,10.22-8.26,18.7-18.48,18.78Z"/>
  <path d="M831.57,278.28c-8.55.07-16.32-6.68-16.34-16.56-.01-9.04,7.75-16.42,16.75-16.22,8.89.2,16.05,7.49,16.09,16.4.05,9.1-7.34,16.43-16.51,16.38Z"/>
</svg>