<?xml version="1.0" encoding="UTF-8"?>
<svg id="Layer_1" data-name="Layer 1" xmlns="http://www.w3.org/2000/svg" viewBox="0 0 963.62 474.2">
  <defs>
    <style>
      .cls-1 {
        fill: #010101;
      }

      .cls-2 {
        fill: #fff;
      }

      .cls-3 {
        fill: #fdba16;
      }
    </style>
  </defs>
  <path class="cls-1" d="M229.71,252.72c-2.47-8.27-4.7-15.76-6.94-23.25-4.93-16.53-9.98-33.02-14.72-49.6-1.01-3.54-2.89-5.73-5.89-7.59-6.93-4.29-13.7-8.83-20.54-13.27-5.71-3.7-9.7-8.71-11.77-15.23-3.43-10.83.04-22.7,8.76-29.93,8.78-7.28,20.96-8.49,31-3.05,1.54.84,3.01,1.81,4.49,2.77,10.33,6.69,20.65,13.38,30.88,20.01,1.54-.17,1.77-1.41,2.3-2.32,3.4-5.8,7.08-11.42,11.25-16.69,1.36-1.72,2.06-3.56,2.42-5.62,1.63-9.45,3.25-18.9,4.88-28.35.6-3.46,1.17-6.93,1.8-10.39.47-2.56.34-5.02-.3-7.58-2.36-9.45-4.62-18.93-6.75-28.44-3.1-13.83,4.44-27.64,17.54-32.46,15.62-5.75,32.81,3.35,36.73,19.55,3.46,14.27,6.75,28.58,10.15,43.03,49.42-17.51,96.63-12.79,141.37,14.91.55-1.29.07-2.35-.21-3.42-.88-3.4-1.75-6.8-2.66-10.2-3.46-12.97,4.22-29.23,20.18-33.27,14.83-3.76,29.54,4.6,33.73,19.39,3.27,11.52,6.31,23.11,9.29,34.71,1.78,6.91.99,13.64-2.34,20.02-3.26,6.23-6.46,12.49-9.84,18.65-1.06,1.93-.97,3.39.15,5.27,7.52,12.55,13.01,25.96,16.62,40.15,2.33,9.16,3.98,18.45,4.35,27.9.1,2.63,1.2,3.96,3.29,5.23,9.97,6.07,19.85,12.27,29.76,18.43,1.09.67,2.17,1.36,3.21,2.1,1.56,1.12,2.37,2.64,1.94,4.56-.42,1.84-1.53,3.14-3.5,3.5-1.1.2-2.2.45-3.3.6-10.3,1.37-20.6,2.72-30.9,4.07-2.28.3-2.7.52-3.05,2.33-1.05,5.5-2.51,10.89-4.11,16.25-.53,1.76-.38,2.05,1.46,2.94,7.62,3.68,15.27,7.32,22.9,10.98,1.01.48,2.02.95,3.03,1.43,1.89.91,3.11,2.37,2.96,4.51-.14,2.09-1.34,3.54-3.43,4.15-.77.22-1.53.45-2.3.67-12.86,3.81-25.71,7.66-38.59,11.4-2.42.7-4.09,1.95-5.56,4.07-22.47,32.49-52.78,53.82-91.12,63.54-17.21,4.36-34.68,5.46-52.36,3.7-26.65-2.65-50.95-11.61-72.96-26.83-1.58-1.09-3.18-2.05-5.07-2.61-1.82-.54-3.53-1.47-5.27-2.27-17.58-8.06-35.44-15.42-54.04-20.83-10.91-3.17-21.94-5.78-33.3-6.73-8.88-.74-17.56.2-25.95,3.28-5.02,1.84-9.5,4.58-13.17,8.5-4.54,4.85-7.04,10.61-7.44,17.25-.3,4.99.2,9.89,1.66,14.69,2.8,9.2,4.81,18.56,5.67,28.15,1.66,18.47-.25,36.46-8.26,53.38-10.94,23.12-28.86,37.86-53.93,43.51-14.56,3.28-28.95,1.98-43.04-2.59-16.26-5.28-30.35-14.26-42.46-26.22-7.67-7.57-10.15-16.97-7.21-27.35,2.88-10.16,9.71-16.83,19.99-19.41,9.26-2.32,17.75-.3,25.11,5.93,2.44,2.06,4.78,4.26,7.32,6.19,5.66,4.3,11.87,7.48,18.93,8.85,10.91,2.11,20.05-2.48,24.83-12.56,2.15-4.54,3.15-9.38,3.45-14.36.53-8.89-.89-17.53-3.45-26.01-3.41-11.27-5.02-22.78-4.3-34.56,1.66-27.08,13.6-48.59,35.52-64.47,12.25-8.88,26.13-13.97,40.98-16.52,11.91-2.04,23.88-2.35,35.84-.83,6.33.81,12.6,2.13,18.89,3.23,1.54.27,3.07.57,5.39,1ZM485.78,233.97c.15.2.3.39.46.59.04-.19.17-.44.1-.57-.15-.28-.42-.22-.64.11.84-.39.52-.95.22-1.5-5.82-10.48-19.25-13.93-29.39-7.45-7.09,4.53-10.48,11.25-9.73,19.52,1.5,16.49,19.83,24.65,33.34,15.05.53-.38,1.49-.67,1-1.88-1.22,0-2.5.13-3.76-.02-7.5-.9-12.41-7.73-11.11-15.08,1.37-7.74,9.69-11.96,15.88-9.84,1.19.41,2.41.72,3.62,1.07ZM508.86,184.42c-4.58-8.13-12.18-11.6-20.46-9.8-7.38,1.6-13.36,8.24-14.18,15.67-1.09,9.83,4.66,16.48,10.57,19.2,6.77,3.11,14.93,1.85,19.37-3.08-1.14-.18-2.27-.25-3.33-.55-5.81-1.64-9.25-6.97-8.29-12.81.77-4.7,5-9.8,12.1-9.2,1.26.11,2.51.34,4.21.58ZM453.89,191.52c-.07-.71-.55-1.24-1.13-1.38-.75-.18-1.59-.11-2.37-.04-3.02.28-6.05.57-9.06.91-1.11.12-2.22.3-3.3.56-1.03.24-1.56,1.26-1.07,2.23,2.09,4.13,4.21,8.25,6.41,12.32.87,1.61,2.37,1.57,3.26-.09,2.41-4.5,4.74-9.05,7.08-13.6.14-.27.14-.61.2-.92Z"/>
  <path class="cls-3" d="M714.54,328.92c5.19.29,9.96.64,14.74.82,12.78.47,25.57.84,38.35,1.28,11.03.37,22.05.77,33.08,1.16.96.03,1.92.08,2.88.09,5.54.1,9.88-2.17,13.11-6.65,1.03-1.42,2.04-2.88,3.25-4.14,10.03-10.4,26.87-8.98,35.03,2.91.72,1.05,1.32,2.19,2.02,3.26,2.89,4.49,7.02,6.87,12.34,7.14,5.59.28,11.18.54,16.77.73,13.58.47,27.17.88,40.75,1.34,9.91.34,19.81.7,29.72,1.09,1.43.06,2.88.18,4.27.51,1.88.44,2.99,2.17,2.73,3.93-.23,1.63-1.47,2.88-3.19,3.07-.95.11-1.92.08-2.87.05-16.62-.61-33.23-1.23-49.85-1.84-2.4-.09-4.8-.13-7.19-.21-10.39-.35-20.78-.63-31.16-1.1-8.24-.37-14.65-4.08-19.02-11.15-.67-1.09-1.29-2.22-2.08-3.22-6.27-7.91-17.87-7.85-24.08.11-.59.75-1.06,1.6-1.64,2.36-4.69,6.06-10.73,9.5-18.53,9.31-8.47-.2-16.95-.13-25.41-.85-1.75-.15-3.52-.13-5.27-.18-13.74-.45-27.49-.88-41.23-1.36-15.82-.55-31.64-1.13-47.45-1.75-5.61-.22-11.18-1.01-16.47-2.9-22.85-8.14-36.84-24.21-39.98-48.21-4.25-32.48,17.52-57.31,43.27-63.93,32.18-8.27,64.75,11.99,71.55,44.26,5.45,25.86-6.16,48.78-25.23,61.3-1.02.67-2.33,1.02-3.21,2.78Z"/>
  <path class="cls-2" d="M485.78,233.97c-1.21-.35-2.43-.66-3.62-1.07-6.19-2.12-14.51,2.09-15.88,9.84-1.3,7.35,3.61,14.18,11.11,15.08,1.25.15,2.54.02,3.76.02.49,1.21-.47,1.5-1,1.88-13.51,9.6-31.84,1.44-33.34-15.05-.75-8.26,2.64-14.98,9.73-19.52,10.14-6.48,23.57-3.02,29.39,7.45.3.54.62,1.11-.22,1.5l.08-.12Z"/>
  <path class="cls-2" d="M508.86,184.42c-1.71-.24-2.95-.47-4.21-.58-7.09-.59-11.33,4.51-12.1,9.2-.96,5.84,2.48,11.17,8.29,12.81,1.06.3,2.18.36,3.33.55-4.45,4.94-12.6,6.2-19.37,3.08-5.91-2.72-11.66-9.37-10.57-19.2.82-7.43,6.8-14.07,14.18-15.67,8.28-1.8,15.87,1.68,20.46,9.8Z"/>
  <path class="cls-2" d="M453.89,191.52c-.06.31-.06.65-.2.92-2.34,4.54-4.67,9.09-7.08,13.6-.89,1.66-2.39,1.7-3.26.09-2.2-4.07-4.32-8.19-6.41-12.32-.49-.97.04-1.99,1.07-2.23,1.09-.25,2.19-.43,3.3-.56,3.02-.33,6.04-.63,9.06-.91.79-.07,1.62-.14,2.37.04.58.14,1.06.66,1.13,1.38Z"/>
  <path class="cls-2" d="M485.7,234.1c.22-.33.48-.39.64-.11.07.13-.06.38-.1.57-.15-.2-.3-.39-.46-.59,0,0-.08.12-.08.12Z"/>
</svg>