<?xml version="1.0" encoding="UTF-8"?>
<svg id="Layer_1" data-name="Layer 1" xmlns="http://www.w3.org/2000/svg" viewBox="0 0 177.57 462.51">
  <defs>
    <style>
      .cls-1 {
        fill: #010101;
      }

      .cls-2 {
        fill: #fff;
      }
    </style>
  </defs>
  <g>
    <g>
      <path class="cls-1" d="M172.46,44.75c-.41-.86-1.05-1.61-1.59-2.4-8.26-12.16-16.53-24.32-24.8-36.49-.72-1.05-1.41-2.13-2.16-3.16-1.7-2.32-4.01-3.17-6.75-2.45-2.56.68-3.98,2.52-4.44,5.12-.31,1.73-.63,3.46-.96,5.19-3.21,16.95-6.46,33.89-9.58,50.86-.38,2.04-1.45,2.96-3.13,3.81-4.83,2.46-9.62,5.02-14.39,7.63-2.65,1.45-5.22,3.07-8.05,4.75-.92-1.42-1.8-2.73-2.62-4.07-6.02-9.81-12.02-19.63-18.03-29.44-.51-.81-1.03-1.62-1.53-2.44-1.48-2.44-3.62-3.57-6.45-3.12-2.89.46-4.39,2.39-5.07,5.09-.08.31-.12.63-.18.94-.64,3.62-1.31,7.24-1.91,10.86-3.23,19.22-6.47,38.44-9.61,57.68-.55,3.41-1.79,6.25-4,8.98C19.1,156.8,3.57,196.53.49,241.04c-1.4,20.37.22,40.59,4.78,60.52,15.25,66.76,62.35,122.12,125.78,147.98,15.01,6.12,30.52,10.4,46.51,12.97,0-2.23-.02-4.47-.02-6.7v-255.58c0-1.43-.01-2.87-.02-4.31,0-.58-.06-1.15-.31-1.65-.09-.2-.22-.39-.38-.57-.59.74-1.18,1.48-1.76,2.24-12.19,15.85-35.9,14.87-46.77-1.87-.43-.67-.79-1.38-1.18-2.07-.2-.2-.45-.36-.58-.59-.13-.24-.3-.65-.2-.8.34-.48.8-.22,1.13.05.19.15.24.47.36.72,3.36,2.9,7.17,4.62,11.69,4.63,5.34,0,10.24-2.3,13.5-6.19.15-.18.29-.36.44-.55.89-1.16,1.64-2.44,2.23-3.83,1.54-3.69,1.68-7.78.59-11.52-.04-.14-.09-.29-.13-.43-.11-.35-.23-.7-.36-1.04-.17-.45-.36-.9-.57-1.34-.12-.24-.24-.47-.36-.7-.11-.2-.22-.4-.34-.59-.72-1.21-1.6-2.34-2.62-3.35-5.06-5.01-12.39-6.44-18.95-3.63-1.16.5-2.22,1.23-3.33,1.86-.49,1-1.72,2.15-2.31,1.63-.09-.08-.16-.16-.21-.23-.74-.94.33-1.91,1.14-2.67,3.55-5.35,8.29-9.26,14.33-11.48,11.43-4.19,24.28-.58,31.98,8.92,1,1.24,2,2.46,3.01,3.7v-.79c0-24.15,0-48.3.01-72.44-.01-14.78,0-29.56,0-44.33-2.29.56-4.02-.04-5.11-2.26ZM116.15,227.56v-.09c1.75,0,3.5-.07,5.24.03,1.16.06,1.93,1.35,1.56,2.45-.02.06-.04.13-.07.19-.19.52-.45,1.04-.74,1.52-2.93,4.91-5.89,9.82-8.84,14.72-.16.28-.34.54-.53.79-1.24,1.61-2.66,1.73-3.92.1-.46-.59-.92-1.19-1.38-1.78-2.95-3.81-5.86-7.64-8.71-11.52-.32-.42-.64-.85-.94-1.28-.07-.09-.14-.17-.2-.26-1.27-1.73-.34-3.52,1.86-3.7,5.55-.46,11.11-.79,16.67-1.17ZM55.99,197.17s.02-.02.02-.03c0,0-.03.01-.04.01.04-.04.08-.07.12-.11.01-.01.03-.02.03-.02,0,0,0-.02.01-.02.12-.16.25-.31.36-.48.15-.24.3-.21.47.14.71-.1,1.41.27,2.11.54.06.02.13.05.19.07.42.16.86.3,1.31.42,2.11.57,4.26.64,6.48.41.09-.01.17-.02.26-.03,1.39-.17,2.82-.62,4.19-1.3.05-.02.09-.04.14-.07,4.77-2.43,8.84-7.77,8.33-14.91-.5-7.08-6.64-13.76-14.47-13.92-2.6-.05-5.08.33-7.45,1.41-.42.19-.82.26-1.19.17,0,0,0-.01-.01,0-.06.02-.21.05-.23.02-.07-.07-.14-.15-.2-.23l-.03-.03c-.14-.12-.27-.26-.39-.45h0c1.52-.39,2.01-1.89,2.97-2.86,6.86-6.96,15.15-9.51,24.55-7.18,9.25,2.29,15.34,8.37,18.05,17.51,3.29,11.11-1.76,23.06-11.9,28.76-9.96,5.6-22.47,3.73-30.43-4.48-1.08-1.12-1.7-2.69-3.26-3.34Z"/>
      <path class="cls-2" d="M56.01,168.76c1.52-.39,2.01-1.89,2.97-2.86,6.86-6.96,15.15-9.51,24.56-7.18,9.24,2.29,15.34,8.37,18.05,17.52,3.29,11.11-1.76,23.06-11.9,28.76-9.96,5.6-22.47,3.73-30.43-4.48-1.08-1.12-1.7-2.69-3.26-3.34l-.03-.03c1.05-.95,2.08-.35,3.11.06,2.58,1.01,5.23,1.18,7.98.9,6.35-.65,13.59-6.93,12.92-16.3-.5-7.08-6.65-13.77-14.48-13.92-2.6-.05-5.07.33-7.44,1.41-.8.36-1.53.29-2.05-.52h.01Z"/>
      <path class="cls-2" d="M116.15,227.47c1.75,0,3.49-.07,5.23.03,1.16.06,1.93,1.36,1.56,2.45-.2.59-.48,1.17-.81,1.71-2.94,4.91-5.89,9.82-8.84,14.72-.16.27-.34.54-.54.79-1.23,1.6-2.66,1.73-3.92.1-3.8-4.9-7.56-9.84-11.23-14.85-1.27-1.73-.34-3.52,1.87-3.7,5.55-.45,11.11-.79,16.67-1.17,0-.03,0-.06,0-.09Z"/>
      <path class="cls-2" d="M56,168.76c.27.26.9.05.87.68,0,.02-.21.08-.25.04-.22-.23-.41-.47-.61-.71,0,0-.01,0-.01,0Z"/>
      <path class="cls-2" d="M55.99,197.17c.17-.22.35-.43.5-.66.15-.24.31-.2.48.17.02.05-.13.24-.24.28-.24.09-.5.13-.76.18,0,0,.02.02.02.02Z"/>
    </g>
    <path class="cls-2" d="M107.58,245.17c-1.87-2.38-3.87-4.92-5.86-7.46-1.31-1.67-2.68-3.28-3.9-5.01-1.24-1.76-.49-3.22,1.71-3.56.42-.06.84-.09,1.26-.12,6.19-.45,12.39-.9,18.58-1.33,1.11-.08,2.3-.36,3.11.75.95,1.3.15,2.41-.48,3.5-1.97,3.43-3.97,6.83-5.94,10.26-.41.72-.73,1.51-1.18,2.45,3.15,6.39,8.5,9.22,15.36,9.24,5.84.02,10.64-2.43,14.17-7.19.59-.79,1.13-1.62,1.8-2.33.66-.69,1.9-.7,2.76-.19.96.57,1.41,1.48,1.16,2.5-.23.93-.69,1.85-1.22,2.65-7.47,11.22-24.41,13.12-34.19,3.85-.92-.87-1.76-1.82-2.77-2.86-1.12.49-1.46,1.62-2.08,2.45-5.57,7.37-15.54,9.94-23.92,6.14-2.35-1.06-4.43-2.5-6.02-4.55-.93-1.19-.86-2.46.09-3.45.86-.9,2.06-1.1,3.06-.38.91.65,1.68,1.5,2.58,2.18,7.68,5.81,18.95,2.07,21.92-7.57Z"/>
  </g>
  <circle class="cls-2" cx="77.61" cy="183.04" r="25.97"/>
  <path class="cls-2" d="M177.57,163.8v29.87c-.11.2-.23.4-.36.6-5.2,8.42-14.52,14.03-25.15,14.03-13.68,0-25.19-9.28-28.56-21.89-.66-2.44-1.01-5.01-1.01-7.67s.35-5.23,1.01-7.67c3.37-12.61,14.88-21.9,28.56-21.9,10.87,0,20.37,5.87,25.5,14.61t.01.02Z"/>
  <circle class="cls-1" cx="139.35" cy="178.74" r="17.6"/>
  <circle class="cls-1" cx="64.79" cy="182.54" r="15.72"/>
</svg>