<?xml version="1.0" encoding="UTF-8"?>
<svg id="Layer_1" data-name="Layer 1" xmlns="http://www.w3.org/2000/svg" viewBox="0 0 1701.87 695.5">
  <defs>
    <style>
      .cls-1 {
        fill: #fcb816;
      }

      .cls-2 {
        fill: #3da3db;
      }

      .cls-3 {
        fill: #fff;
      }

      .cls-4 {
        fill: none;
      }
    </style>
  </defs>
  <g>
    <path d="M780.6,482.93c-2.35,38.66-15.19,73.45-38.32,104.47-5.64,7.56-11.87,14.62-18.57,21.25-4.58,4.52-3.7,3.09-3.77,9.18-.17,12.6-.18,25.21-.43,37.83-.06,3.5-.37,7.08-1.23,10.47-3.69,14.56-16.64,24.99-31.25,25.84-16.71.96-30.26-9.56-34.91-22.99-.49-1.42-.96-2.85-1.43-4.3-1.8.5-1.47,2.17-1.92,3.31-4.26,11.09-11.94,18.58-23.4,21.85-17.34,4.96-35.4-4.23-41.81-21.07-.41-1.1-.67-2.26-1.15-3.33-.24-.54-.8-.94-1.53-1.76-.67,1.38-1.23,2.34-1.62,3.37-1.85,4.95-4.55,9.33-8.29,13.11-16.86,16.96-47.27,12.34-56.93-12.21-.6-1.53-1.07-3.14-1.79-5.26-.6.84-1.03,1.26-1.24,1.78-.45,1.08-.71,2.25-1.19,3.32-5.86,13.17-16,20.71-30.37,21.52-13.51.75-24.09-5.1-31.38-16.53-3.52-5.53-5.08-11.66-4.99-18.23.13-10.09.19-20.17.28-30.26.07-7.57.15-15.14.23-22.69.02-1.7-.09-3.28-1.32-4.7-6.52-7.49-12.32-15.52-17.45-23.7-1.77-.99-3.27-.4-4.7-.11-13.26,2.76-26.68,3.62-40.14,2.64-28.65-2.09-53.99-12.07-74.47-32.74-15.88-16.05-25.15-35.48-28.72-57.71-2.23-13.93-1.48-27.78.46-41.69,1.56-11.06,1.42-22.14-1.42-33.05-1.41-5.4-3.5-10.51-6.79-15.08-7.05-9.83-17.54-13.63-29.26-10.67-6.13,1.55-11.57,4.47-16.64,8.18-5.59,4.1-10.39,9.03-14.71,14.43-5.36,6.71-12.24,11.02-20.66,12.57-22.37,4.14-40.51-12.79-41.2-32.4-.29-8.4,1.88-16.02,7.04-22.62,13.13-16.8,28.88-30.46,48.17-39.81,16.67-8.09,34.24-11.97,52.77-10.5,22.61,1.79,42.21,10.58,58.63,26.27,14.47,13.84,23.67,30.85,29.04,49.97,5.01,17.83,6.37,36.03,4.59,54.46-.52,5.35-1.2,10.68-1.87,16.02-.7,5.58-.32,11.1.99,16.52,2.49,10.41,8.61,18.08,18.02,23.12,4.17,2.24,8.63,3.7,13.3,4.57,6.32,1.19,12.67,1.57,19.07.85.8-.09,1.57-.41,2.35-.62-8.99-59.47,4.19-113,43.28-158.84,38.93-45.66,89.38-67.48,149.51-68.06.96-1.31,2.07-2.79,3.13-4.29,7.13-10.2,14.24-20.4,21.36-30.6.78-1.1,1.53-2.22,2.38-3.27,1.53-1.92,3.61-2.4,5.9-1.82,2.14.55,3.45,2.05,3.85,4.21,1.01,5.45,1.96,10.92,2.92,16.38,1.45,8.27,2.9,16.53,4.38,24.97,1.15.43,2.19.91,3.29,1.22,19.11,5.2,37.03,13.12,53.71,23.82.56.36,1.16.64,2.02,1.11.74-.87,1.56-1.66,2.15-2.6,5.68-8.93,11.31-17.91,16.96-26.87.71-1.13,1.4-2.3,2.2-3.37,1.42-1.9,3.31-2.88,5.71-2.32,2.32.54,3.89,2.02,4.33,4.4.75,3.96,1.41,7.94,2.03,11.93,2.73,17.6,5.47,35.19,8.11,52.81.41,2.77,1.5,5.03,3.23,7.21,18.73,23.55,31.33,50.04,37.6,79.48,3.63,17.03,4.95,34.21,3.88,51.63Z"/>
    <g>
      <path d="M423.92,344.5c-.81,1.84-2.29,2.81-4.33,2.68-.9-.06-1.79-.32-2.67-.52-14.8-3.37-29.59-6.73-44.38-10.11-.74-.17-1.48-.36-2.17-.66-2.13-.93-3.18-3.01-2.69-5.19.46-2.02,2.49-3.41,4.85-3.24.75.05,1.49.24,2.23.41,14.79,3.39,29.58,6.78,44.37,10.18.88.2,1.81.33,2.63.7,2.23,1.01,3.13,3.53,2.16,5.74Z"/>
      <path d="M790.61,400.47c-3.36-1.68-3.83-5.53-1.35-7.48.82-.64,1.83-1.07,2.82-1.44,14.22-5.41,28.45-10.8,42.69-16.18.85-.32,1.73-.64,2.62-.75,2.03-.24,4,1.09,4.61,2.98.66,2.03-.02,3.97-1.92,5.1-.91.54-1.92.91-2.91,1.29-13.8,5.24-27.6,10.47-41.41,15.7-.85.32-1.71.74-2.59.85-1.01.13-2.06-.04-2.56-.06Z"/>
      <path d="M432.88,319.82c-.46-.39-1.32-1.02-2.08-1.75-10.87-10.42-21.73-20.85-32.58-31.3-.76-.73-1.54-1.5-2.09-2.39-1.09-1.8-.66-4.07.87-5.4,1.5-1.31,3.87-1.48,5.5-.3.86.62,1.61,1.4,2.37,2.14,10.53,10.11,21.07,20.23,31.59,30.36.87.84,1.78,1.69,2.47,2.67,1.1,1.57.91,3.73-.27,5.09-1.44,1.66-3.39,2.05-5.78.88Z"/>
      <path d="M844.57,438.61c-.26.51-1.49,1.36-3.14,1.37-1.2,0-2.42-.22-3.61-.43-14.22-2.53-28.44-5.08-42.65-7.62-1.05-.19-2.11-.33-3.13-.62-2.36-.68-3.73-2.94-3.28-5.28.4-2.05,2.38-3.51,4.77-3.4,1.06.05,2.11.28,3.15.47,14.22,2.55,28.43,5.09,42.65,7.66,1.34.24,2.72.5,3.94,1.07,2.27,1.05,2.97,3.6,1.31,6.78Z"/>
    </g>
    <path class="cls-3" d="M599.71,410.17c-4.4-9.18-.61-22.29,8.32-29.53,9.91-8.04,23.9-8.29,34.05-.6,10.21,7.73,13.68,21.16,8.22,33.49-5.74-2.21-14.01-4.69-24.23-5.46-11-.83-20.14.62-26.35,2.11ZM637.31,406.26c5.46-.04,9.81-4.51,9.77-10.05-.04-5.55-4.41-9.89-9.92-9.85-5.51.04-9.79,4.42-9.76,10,.03,5.52,4.46,9.94,9.91,9.9Z"/>
    <path class="cls-3" d="M650.65,454.23c2.64,3.9,5.31,7.77,7.93,11.68l6,9.13,4.34-6.35,1.76-2.59c1.48-2.21,3.03-4.49,4.57-6.77,1.41-2.09,2.9-4.13,4.19-6.29,1.32-2.2.32-3.87-2.32-4.08-.5-.04-1.01-.03-1.51-.03-7.4,0-14.79-.01-22.18.01-1.32,0-2.76-.23-3.64,1.16-1.02,1.63.03,2.88.86,4.12Z"/>
    <path class="cls-3" d="M721.04,398.57c-3.26-9.92-12.69-17.17-24.33-16.61-10.69.52-19.95,8.04-22.43,18.51-.79,3.36-3.57,9.75-.61,13.05,3.79,4.24,10.71-3.17,24.35-.46,4.93.99,10.63,3.27,20,2.85.14,0,.27-.01.4-.02,1.01-.05,1.91-.67,2.3-1.61,2.2-5.23,2.04-10.48.31-15.72ZM702.72,403.43c-1.72,3.47-5.27,5.41-8.8,5.26-5.53-.01-9.91-4.41-9.82-9.87.01-.4.03-.79.08-1.17.65-4.89,4.9-8.55,10.03-8.43,5.24.12,9.65,4.41,9.56,9.65-.03,1.71-.42,3.25-1.06,4.56Z"/>
    <path d="M627.41,396.36c.03,5.52,4.46,9.94,9.91,9.9,5.46-.04,9.81-4.51,9.77-10.05-.04-5.55-4.41-9.89-9.92-9.85-5.51.04-9.79,4.42-9.76,10Z"/>
    <path d="M703.79,398.87c-.03,1.71-.42,3.25-1.06,4.56-1.72,3.47-5.27,5.41-8.8,5.26-5.53-.01-9.91-4.41-9.82-9.87.01-.4.03-.79.08-1.17.65-4.89,4.9-8.55,10.03-8.43,5.24.12,9.65,4.41,9.56,9.65Z"/>
    <path class="cls-2" d="M688.78,489.53l-23.1,15.94-7.38.1-20.69-14.98s-22.43,15.84-.75,36.18l21.86-14.66,6.71-.1,21.96,15.63s17.02-18.45,1.39-38.12Z"/>
    <polyline class="cls-4" points="670.67 466.1 668.92 468.69 664.58 475.04"/>
    <polyline class="cls-4" points="658.22 465.35 658.57 465.9 664.58 475.04"/>
  </g>
  <g>
    <g>
      <path d="M1699.16,180.65c-4.14-24.54-12.66-47.32-26.73-67.94-28.99-42.34-75.9-64.78-120.22-65.06-31-.22-59.08,8.52-84.09,26.86-22.53,16.52-38.7,38.14-49.64,63.71-12.28,28.74-16.92,58.92-16.39,90.01.06,2.48.53,5.01,1.03,7.46,5.11,24.29,27.52,40.8,52.62,38.33,26.92-2.6,43.81-25.26,44.03-47.35.06-6.17.41-12.38.97-18.52,1.13-12.19,3.92-24.01,9.4-35.07,3.13-6.27,7.11-11.94,12.35-16.67,7.93-7.21,17.24-10.94,27.96-10.94,13.19.03,24.45,4.98,33.91,14.1,7.08,6.86,11.81,15.2,14.98,24.51,4.26,12.66,5.3,25.7,4.36,38.92-.72,10.09-4.83,18.62-12.38,25.39-1.44,1.29-2.82,2.66-4.33,3.85-4.67,3.76-9.43,7.43-14.07,11.19-8.27,6.71-16.7,13.19-24.63,20.25-24.85,22.09-42.09,49.17-52.24,80.83-5.39,16.8-8.74,34-10.62,51.55-1.94,18.11-2.7,36.26-1.66,54.44.97,17.14,2.51,34.29,3.67,51.46.69,10.4.94,20.84-.56,31.25-1.47,10.31-6.42,17.99-15.73,22.91-6.17,3.26-12.6,5.83-19.31,7.8-14.7,4.36-29.77,6.68-45,8.05-9.62.88-19.27,1.47-28.93,1.88-6.74.28-13.48.06-21.66.06,24.13-29.55,41.34-61.65,51.8-97.31,10.47-35.76,13.32-72.14,8.93-109.03-4.39-36.95-16.08-71.52-34.85-103.67-18.77-32.12-43.09-59.36-72.96-81.58-29.84-22.22-62.87-37.7-99.07-46.35-36.2-8.65-72.68-9.46-109.56-3.45-1.32-1.88-2.54-3.57-3.73-5.33-11.09-16.3-22.16-32.59-33.25-48.89-.97-1.44-1.88-2.98-3.04-4.23-4.29-4.7-11.47-3.07-13.38,3.01-.53,1.66-.78,3.38-1.1,5.11-3.64,19.37-7.21,38.74-10.88,58.1-.85,4.51-1.88,9.03-2.73,13.1-10.69,6.05-20.93,11.85-31.21,17.61-.28.19-.72.13-1.32.22-.91-1.35-1.88-2.76-2.79-4.23-7.99-13.01-15.98-26.01-23.97-39.05-.78-1.32-1.54-2.66-2.51-3.89-1.94-2.48-4.54-3.57-7.68-2.91-3.1.66-5.14,2.6-6.08,5.61-.28.91-.38,1.91-.53,2.85-1.44,8.18-2.95,16.36-4.32,24.54-3.57,21.34-7.11,42.69-10.62,64.03-.66,4.11-2.26,7.55-4.92,10.84-37.17,45.91-57.35,98.44-60.77,157.39-1.28,22.28.38,44.44,4.73,66.35,8.74,43.84,27.11,83.21,55.19,118.03,49.36,61.24,123.42,99,203.21,101.13,7.74.19,15.48.09,23.22.09h196.63c25.54.03,50.99-1.22,76.34-4.73,16.67-2.29,33.13-5.61,49.2-10.72,17.05-5.39,33.19-12.69,47.76-23.19,19.15-13.73,33.63-31.21,42.72-53.06,6.46-15.51,9.59-31.78,10.56-48.48,1.1-18.55.13-37.11-1.54-55.6-1.75-19.84-3.13-39.68-1.97-59.64.6-10.06,1.76-19.99,3.79-29.87,4.32-20.93,14.23-38.67,30.68-52.53,2.07-1.76,4.11-3.54,6.24-5.23,6.24-4.89,12.5-9.72,18.74-14.64,7.9-6.21,15.51-12.76,22.56-19.96,23.13-23.69,35.19-52.34,37.55-85.15,1.13-16.23.53-32.44-2.16-48.55ZM1078.95,416.86c-.72,1.35-1.63,2.63-2.6,3.79-14.04,17.02-41.56,16.95-55.5-.09-.97-1.16-1.94-2.29-3.04-3.57-1.44,1.79-2.57,3.29-3.85,4.73-10.59,11.75-29.77,13.41-42.06,3.54-1.94-1.57-3.6-3.51-5.11-5.48-1.32-1.76-.85-3.82.72-5.2,1.54-1.38,3.57-1.41,5.23.03,1,.91,1.82,2.01,2.82,2.95,12.47,11.85,33.22,4.51,36.23-8.71-.78-1.28-1.69-2.76-2.63-4.17-3.35-4.98-6.77-9.9-10.09-14.89-.75-1.1-1.44-2.29-1.91-3.51-.56-1.47.44-3.26,1.97-3.67.91-.25,1.88-.38,2.85-.38,10.22-.03,20.46-.03,30.71,0,1.94,0,4.01-.13,4.98,2.04.85,1.88-.28,3.35-1.25,4.79-3.26,4.8-6.55,9.56-9.78,14.35-1.07,1.6-2.1,3.23-3.1,4.83,1.72,5.67,5.2,9.68,9.87,12.66,11.78,7.49,27.8,4.95,36.76-5.74.88-1.03,1.63-2.16,2.6-3.1,1.32-1.25,3.35-1.32,4.8-.31,1.72,1.19,2.38,3.23,1.38,5.11Z"/>
      <path class="cls-3" d="M1102.47,338.7c-6.93,13.38-22.67,19.96-37.27,16.44-14.87-3.59-25.95-17.47-25.72-33.16.23-15.72,10.85-29.08,26.31-32.71,14.3-3.36,30.07,3.52,36.47,16.24-2.05-.23-3.39-1.51-4.93-2.15-9.88-4.07-21.08-.16-26.11,9.19-4.1,7.63-3.02,16.88,2.71,23.36,5.69,6.43,14.84,8.63,22.86,5.46,1.63-.64,3.18-1.48,5.69-2.67Z"/>
      <path class="cls-3" d="M1011.79,408.83c-.8-1.26-1.69-2.74-2.65-4.17-3.35-4.96-6.75-9.9-10.08-14.87-.74-1.11-1.45-2.29-1.91-3.53-.55-1.47.45-3.25,1.97-3.66.92-.25,1.9-.36,2.85-.36,10.24-.03,20.48-.02,30.72-.01,1.94,0,4.01-.13,4.99,2.05.84,1.86-.27,3.34-1.26,4.79-3.26,4.79-6.54,9.57-9.79,14.37-1.07,1.58-2.08,3.21-3.1,4.8,1.71,5.69,5.19,9.69,9.88,12.67,11.78,7.49,27.78,4.97,36.77-5.72.87-1.03,1.62-2.18,2.59-3.1,1.32-1.27,3.34-1.32,4.8-.31,1.73,1.19,2.36,3.21,1.37,5.08-.72,1.35-1.63,2.63-2.61,3.82-14.05,17-41.55,16.93-55.51-.1-.95-1.16-1.94-2.29-3.02-3.57-1.44,1.76-2.59,3.29-3.86,4.71-10.59,11.77-29.78,13.43-42.07,3.55-1.93-1.55-3.6-3.5-5.09-5.49-1.32-1.75-.86-3.81.7-5.2,1.56-1.38,3.58-1.42,5.25.05,1.01.89,1.83,1.99,2.81,2.92,12.49,11.88,33.23,4.52,36.25-8.71Z"/>
      <path class="cls-3" d="M998.92,344.26c-5.03,10.11-21.27,16.36-34.81,10.97-13.41-5.34-21.55-19.89-18.21-32.91,4.14-1.26,21.36-3.06,28.17-2.91-.17,1.03-.19,2.07-.51,3-3.79,11,5.9,26.17,22.21,22.49.97-.22,1.95-.4,3.15-.64Z"/>
    </g>
    <path class="cls-3" d="M1151.27,313.69c38.94-7.06,77.85-14.22,116.78-21.33,2.17-.4,4.39-.67,6.58-.69,2.36-.03,4.31,1.77,4.68,3.91.38,2.19-.77,4.52-2.99,5.35-1.82.68-3.78,1.03-5.7,1.38-40.86,7.45-81.73,14.87-122.59,22.34-1.62.3-3.16,1.05-4.69,1.57-.37,2.03-.73,3.71-.98,5.41-3.57,24.75-24.74,49.29-56.76,51.06-29.56,1.64-53.9-17.71-61.51-43.31-.63-2.12-1-4.31-1.65-6.42-.25-.81-.97-1.48-1.59-2.36-2.54,2.04-2.2,4.67-2.72,6.96-6.48,28.86-35.19,46.56-63.42,39.88-24.79-5.86-45.88-30.41-39.28-62.55,4.78-23.26,25.25-39.98,48.75-41.12,26.28-1.27,47.03,16.49,52.97,37.58.6,2.12.93,4.32,1.58,6.43.24.78,1.01,1.4,2.04,2.75,1.87-8.21,2.58-15.82,5.81-22.81,3.34-7.24,7.68-13.72,13.37-19.28,5.51-5.39,11.85-9.57,18.96-12.55,7.34-3.07,15.02-4.75,22.97-4.74,13.16,0,25.21,3.74,35.93,11.47,14.29,10.31,22.24,24.54,25.15,41.69,3.13.83,5.76-.14,8.33-.61ZM1031.8,322.14c.06,27.88,22.12,50.62,50.9,50.4,29.53-.22,50.08-23.93,50.27-50.33.2-27.86-22.74-50.83-50.56-50.84-27.23.18-50.66,21.66-50.6,50.77ZM1009.14,326.56c.04-24.27-19.7-42.84-42.61-42.6-23.35.24-42.2,19.08-42.16,42.32.04,23.2,19.06,42.25,42.25,42.3,23.2.05,42.48-18.88,42.52-42.02Z"/>
    <path class="cls-1" d="M1023.83,599.17c-9.29-5.78-26.13-18.04-30.42-22.19,8.63-28.97,17.32-58.15,26.1-87.64-1.41-1.47-2.66-2.94-4.08-4.22-9.89-8.87-19.82-17.69-29.71-26.55-1.79-1.6-3.49-3.31-5.12-4.86.6-2.03,2.04-1.67,3.13-1.71,7.13-.25,14.26-.41,21.39-.6,14.5-.38,29.01-.77,43.51-1.1,1.37-.03,2.74.38,4.66.67-4.49,7.22-9.79,13.02-14.51,19.26-4.6,6.08-9.34,12.04-13.8,17.78-.7,2.96.46,5.2,1.24,7.51,8.43,24.91,16.87,49.81,25.29,74.72.47,1.38.76,2.82,1.1,4.08-3.56,4.42-20.61,19.14-28.77,24.83Z"/>
  </g>
  <g>
    <g>
      <g>
        <path d="M498.49,528.78c-1.84,30.18-11.86,57.34-29.92,81.56-4.41,5.9-9.26,11.41-14.5,16.59-3.58,3.53-2.89,2.41-2.95,7.16-.13,9.84-.14,19.69-.34,29.53-.05,2.73-.29,5.53-.96,8.17-2.88,11.37-12.99,19.51-24.4,20.17-13.05.75-23.62-7.47-27.25-17.95-.39-1.11-.75-2.22-1.12-3.36-1.4.39-1.15,1.69-1.5,2.58-3.32,8.66-9.32,14.51-18.27,17.06-13.54,3.87-27.64-3.3-32.64-16.45-.32-.86-.53-1.76-.89-2.6-.19-.42-.62-.73-1.2-1.37-.53,1.07-.96,1.83-1.26,2.63-1.44,3.86-3.55,7.29-6.47,10.23-13.16,13.24-36.9,9.63-44.44-9.54-.47-1.2-.84-2.45-1.39-4.1-.47.66-.8.98-.97,1.39-.35.85-.56,1.76-.93,2.59-4.58,10.28-12.49,16.17-23.71,16.8-10.54.58-18.81-3.98-24.5-12.91-2.75-4.32-3.96-9.1-3.9-14.23.1-7.88.15-15.75.22-23.62.06-5.91.11-11.82.18-17.72.02-1.33-.07-2.56-1.03-3.67-5.09-5.85-9.62-12.12-13.62-18.5-1.38-.77-2.55-.31-3.67-.08-10.36,2.16-20.83,2.82-31.34,2.06-22.37-1.63-42.15-9.42-58.14-25.56-12.4-12.53-19.64-27.7-22.42-45.06-1.74-10.87-1.16-21.69.36-32.54,1.21-8.63,1.11-17.28-1.11-25.8-1.1-4.22-2.73-8.21-5.3-11.78-5.51-7.67-13.7-10.64-22.84-8.33-4.78,1.21-9.03,3.49-12.99,6.38-4.37,3.2-8.12,7.05-11.49,11.27-4.18,5.24-9.56,8.6-16.13,9.81-17.46,3.23-31.63-9.99-32.17-25.3-.23-6.56,1.47-12.51,5.5-17.66,10.25-13.11,22.55-23.78,37.61-31.08,13.01-6.32,26.73-9.35,41.2-8.2,17.65,1.4,32.95,8.26,45.77,20.51,11.3,10.81,18.48,24.08,22.67,39.01,3.91,13.92,4.97,28.13,3.59,42.51-.4,4.18-.94,8.34-1.46,12.51-.55,4.36-.25,8.67.77,12.9,1.94,8.12,6.72,14.11,14.06,18.05,3.26,1.75,6.74,2.89,10.38,3.57,4.93.93,9.89,1.22,14.89.66.62-.07,1.22-.32,1.84-.48-7.02-46.43,3.27-88.22,33.79-124.01,30.39-35.65,69.78-52.68,116.73-53.13.75-1.03,1.62-2.17,2.45-3.35,5.56-7.96,11.12-15.93,16.67-23.89.61-.86,1.2-1.73,1.85-2.55,1.2-1.5,2.81-1.87,4.6-1.42,1.67.43,2.69,1.6,3,3.29.79,4.26,1.53,8.53,2.28,12.78,1.13,6.46,2.26,12.91,3.42,19.5.89.34,1.71.71,2.57.95,14.92,4.06,28.91,10.24,41.93,18.59.43.28.9.5,1.58.87.57-.68,1.21-1.3,1.68-2.03,4.43-6.97,8.83-13.98,13.24-20.97.56-.89,1.09-1.8,1.72-2.63,1.11-1.49,2.58-2.25,4.46-1.81,1.81.42,3.04,1.58,3.38,3.44.58,3.09,1.1,6.2,1.58,9.31,2.13,13.74,4.27,27.47,6.33,41.23.32,2.17,1.17,3.93,2.52,5.63,14.62,18.39,24.46,39.07,29.35,62.05,2.83,13.29,3.86,26.71,3.03,40.31Z"/>
        <path class="cls-3" d="M423.86,695.5c-11.5,0-22.03-6.39-27.22-16.29-4.02,7.26-10.19,12.12-18.38,14.46-14.31,4.1-29.08-2.6-35.6-15.7-1.45,2.69-3.24,5.11-5.36,7.25-7.24,7.29-17.67,10.38-27.86,8.27-9.09-1.88-16.5-7.52-20.79-15.71-5.39,9.6-13.98,14.97-25.06,15.6-11.64.61-21.17-4.38-27.63-14.51-3.03-4.75-4.52-10.18-4.44-16.15.07-5.31.11-10.62.15-15.93l.25-25.41c.01-1.04-.07-1.22-.18-1.35-4.61-5.3-9.02-11.24-13.12-17.65-.09.02-.18.04-.26.06l-.58.13c-10.55,2.2-21.42,2.91-32.29,2.12-24.34-1.78-44.65-10.72-60.36-26.59-12.55-12.69-20.42-28.48-23.38-46.96-1.58-9.88-1.47-20.55.35-33.58,1.26-8.95.92-16.94-1.03-24.44-1.1-4.23-2.66-7.7-4.76-10.62-4.64-6.46-11.43-8.94-19.17-6.99-3.94.99-7.8,2.9-11.78,5.82-3.78,2.77-7.32,6.25-10.82,10.63-4.79,5.99-10.92,9.71-18.22,11.06-9.04,1.68-17.88-.49-24.88-6.11-6.94-5.57-11.09-13.77-11.4-22.5-.27-7.59,1.83-14.3,6.24-19.93,11.21-14.35,23.91-24.84,38.83-32.07,14.03-6.81,28.5-9.68,43-8.54,18.4,1.46,34.52,8.68,47.9,21.46,11.09,10.6,19.03,24.26,23.62,40.59,3.91,13.92,5.16,28.65,3.7,43.79-.38,3.98-.88,7.94-1.38,11.9l-.09.71c-.48,3.8-.24,7.72.7,11.65,1.7,7.1,5.73,12.26,12.32,15.8,2.81,1.51,5.88,2.56,9.37,3.22,4.26.8,8.26,1.05,12.16.78-6.32-47.22,5.47-88.74,35.06-123.44,29.99-35.17,69.55-53.45,117.6-54.33.45-.61.92-1.25,1.38-1.9l17.01-24.37c.53-.76,1.06-1.51,1.64-2.23,1.97-2.47,4.96-3.43,8.18-2.62,2.98.76,5.01,2.96,5.58,6.03.58,3.13,1.13,6.27,1.68,9.4l3.69,20.98c.13.05.27.09.4.13,14.81,4.03,28.85,10.18,41.73,18.29,2.77-4.37,5.54-8.76,8.31-13.15l4.89-7.76c.48-.77.96-1.54,1.5-2.27,2.01-2.7,4.94-3.85,8.03-3.12,3.23.75,5.43,3.01,6.02,6.2.59,3.12,1.11,6.26,1.6,9.41,2.13,13.75,4.27,27.48,6.34,41.24.21,1.45.77,2.68,1.81,3.99,14.96,18.82,25.07,40.18,30.03,63.49,2.9,13.62,3.94,27.5,3.1,41.24h0c-1.87,30.63-12.16,58.7-30.6,83.43-4.37,5.85-9.36,11.57-14.84,16.99l-.85.84c-.49.47-.84.79-1.08,1.07,0,.22,0,.49.01.82,0,.54.02,1.19.01,2.01-.05,3.87-.09,7.74-.12,11.61-.05,5.98-.1,11.97-.22,17.95-.06,3.45-.41,6.39-1.07,8.96-3.21,12.67-14.55,22.04-27.57,22.79-.6.03-1.19.05-1.78.05ZM399.34,666.41l1.04,3.17c.42,1.3.75,2.3,1.1,3.29,3.39,9.8,13.17,16.25,23.76,15.61,10.02-.58,18.75-7.79,21.22-17.55.52-2.05.8-4.46.85-7.38.12-5.96.17-11.92.22-17.88.03-3.88.07-7.76.12-11.64,0-.73,0-1.32,0-1.8-.06-3.51.51-4.4,3.17-7l.82-.8c5.23-5.17,10-10.62,14.15-16.2,17.62-23.62,27.45-50.43,29.23-79.69h0c.81-13.12-.19-26.36-2.96-39.37-4.73-22.25-14.38-42.64-28.67-60.61-1.81-2.29-2.84-4.61-3.24-7.29-2.07-13.74-4.2-27.47-6.33-41.2-.48-3.08-.99-6.14-1.56-9.2-.06-.33-.1-.54-.74-.69-.26-.06-.43-.09-.88.5-.42.57-.79,1.17-1.16,1.77l-4.92,7.81c-2.9,4.61-5.81,9.22-8.73,13.81-.43.67-.95,1.27-1.48,1.87l-2.31,2.72-3.08-1.68c-.46-.24-.84-.45-1.21-.69-12.6-8.08-26.38-14.19-40.96-18.16-.73-.2-1.41-.47-2.12-.76l-2.62-1-4.37-24.86c-.55-3.11-1.1-6.23-1.67-9.34-.09-.46-.18-.48-.44-.55-.7-.17-.83-.02-1.02.22-.49.61-.93,1.25-1.38,1.89l-17.02,24.38c-.55.78-1.11,1.54-1.65,2.26l-1.87,2.56-1.75.02c-46.73.45-85.12,17.91-114.11,51.91-28.93,33.92-40.03,74.7-33,121.23l.47,3.09-3.47.94c-.62.19-1.23.36-1.87.44-5.16.57-10.36.35-15.94-.7-4.15-.78-7.98-2.1-11.38-3.93-8.33-4.47-13.65-11.3-15.8-20.31-1.14-4.75-1.43-9.51-.84-14.15l.09-.71c.49-3.9.98-7.79,1.36-11.7,1.38-14.28.21-28.15-3.47-41.24-4.3-15.33-11.41-27.57-21.73-37.44-12.2-11.65-26.88-18.23-43.64-19.55-13.24-1.05-26.5,1.59-39.41,7.86-13.94,6.76-25.84,16.61-36.38,30.09-3.42,4.37-4.97,9.4-4.76,15.39.24,6.7,3.44,13.01,8.8,17.31,5.39,4.33,12.23,6,19.25,4.69,5.61-1.04,10.33-3.92,14.05-8.56,3.89-4.87,7.86-8.76,12.15-11.9,4.73-3.46,9.37-5.74,14.2-6.95,10.53-2.67,20.2.86,26.53,9.68,2.61,3.62,4.52,7.85,5.84,12.93,2.19,8.41,2.57,17.29,1.19,27.16-1.72,12.32-1.84,22.33-.37,31.51,2.73,17.01,9.95,31.53,21.46,43.16,14.69,14.84,32.98,22.86,55.92,24.54,10.24.74,20.45.07,30.37-1.99l.41-.09c1.15-.27,3.31-.78,5.67.54l.78.44.47.76c4.14,6.6,8.61,12.68,13.3,18.07,1.94,2.23,1.9,4.78,1.89,6l-.25,25.38c-.04,5.32-.09,10.63-.15,15.96-.06,4.65,1.04,8.68,3.35,12.31,5.1,8,12.31,11.81,21.37,11.3,9.63-.54,16.6-5.5,20.72-14.73.14-.32.25-.67.36-1.02.16-.51.33-1.01.53-1.49.28-.69.68-1.19.99-1.6l.36-.47,3.95-5.55,2.71,8.06c.28.86.52,1.62.81,2.35,3.03,7.71,9.31,13.07,17.22,14.71,7.89,1.63,15.93-.74,21.51-6.36,2.51-2.53,4.37-5.47,5.68-9,.25-.67.57-1.31.95-2.06l2.71-5.53,3.87,4.28c.44.44.98.98,1.36,1.83.28.64.49,1.28.69,1.93.09.3.19.6.29.89,4.39,11.53,16.6,17.7,28.42,14.32,7.73-2.21,12.95-7.1,15.97-14.96.2-1.09.71-3.82,3.81-4.69l3.21-.9Z"/>
      </g>
      <path class="cls-3" d="M357.27,471.98c-3.43-7.17-.48-17.41,6.49-23.06,7.74-6.28,18.66-6.47,26.58-.47,7.97,6.04,10.68,16.52,6.41,26.15-4.48-1.72-10.94-3.66-18.91-4.26-8.59-.65-15.72.48-20.57,1.64ZM386.63,468.92c4.27-.03,7.66-3.52,7.62-7.85-.03-4.33-3.44-7.72-7.74-7.69-4.31.03-7.64,3.45-7.62,7.81.03,4.31,3.48,7.76,7.73,7.73Z"/>
      <path class="cls-3" d="M397.04,506.37c2.06,3.04,4.14,6.06,6.19,9.12l4.69,7.13,3.39-4.96,1.37-2.02c1.16-1.72,2.36-3.5,3.57-5.28,1.1-1.63,2.27-3.23,3.27-4.91,1.03-1.71.25-3.02-1.81-3.18-.39-.03-.79-.02-1.18-.02-5.78,0-11.55,0-17.31,0-1.03,0-2.16-.18-2.84.9-.8,1.27.02,2.25.67,3.22Z"/>
      <path class="cls-3" d="M452,462.92c-2.54-7.75-9.9-13.41-19-12.97-8.35.4-15.57,6.28-17.51,14.45-.62,2.63-2.79,7.61-.48,10.19,2.96,3.31,8.36-2.48,19.01-.36,3.85.77,8.3,2.55,15.62,2.22.11,0,.21,0,.31-.01.79-.04,1.49-.53,1.8-1.26,1.72-4.08,1.59-8.18.24-12.27ZM437.7,466.71c-1.35,2.71-4.11,4.23-6.87,4.1-4.32,0-7.74-3.45-7.66-7.71,0-.31.02-.62.07-.91.51-3.82,3.82-6.67,7.83-6.58,4.09.09,7.53,3.45,7.47,7.53-.02,1.34-.33,2.54-.83,3.56Z"/>
      <path d="M378.9,461.19c.03,4.31,3.48,7.76,7.73,7.73,4.27-.03,7.66-3.52,7.62-7.85-.03-4.33-3.44-7.72-7.74-7.69-4.31.03-7.64,3.45-7.62,7.81Z"/>
      <path d="M438.53,463.15c-.02,1.34-.33,2.54-.83,3.56-1.35,2.71-4.11,4.23-6.87,4.1-4.32,0-7.74-3.45-7.66-7.71,0-.31.02-.62.07-.91.51-3.82,3.82-6.67,7.83-6.58,4.09.09,7.53,3.45,7.47,7.53Z"/>
      <polyline class="cls-4" points="412.67 515.64 411.3 517.66 407.91 522.62"/>
      <polyline class="cls-4" points="402.95 515.05 403.23 515.49 407.91 522.62"/>
    </g>
    <path class="cls-1" d="M400.4,627.69c-5.44-4.18-15.19-12.87-17.61-15.73,7.18-17.55,14.41-35.21,21.71-53.07-.79-1-1.48-2-2.29-2.88-5.62-6.15-11.27-12.26-16.9-18.4-1.02-1.11-1.97-2.28-2.9-3.35.5-1.23,1.38-.91,2.06-.87,4.46.29,8.92.62,13.38.95,9.07.66,18.15,1.31,27.22,2.01.85.07,1.69.41,2.87.71-3.25,4.23-6.92,7.52-10.25,11.12-3.24,3.51-6.57,6.94-9.71,10.24-.62,1.8-.03,3.27.31,4.76,3.72,16.06,7.44,32.12,11.16,48.19.21.89.3,1.8.43,2.62-2.49,2.54-14.05,10.67-19.49,13.71Z"/>
  </g>
  <path d="M476.08,262.81c-11.9-2.31-18.63-11.85-15.96-25.57,1.86-9.59,11.6-15.58,23.5-13.28,11.57,2.24,18.09,10.2,15.75,22.26-2.28,11.74-7.25,19.69-23.28,16.58ZM477.67,183.88c14.22,2.76,23.09,2.08,24.09-3.04.51-2.64-1.4-6.96-9-8.43-6.94-1.35-14-.32-17.46.73-2.76-9.63-5.92-23.45-4.84-26.33,4.97-3.5,16.74-5.84,33.77-2.54,19.84,3.85,35.37,18.36,31.33,39.18-3.85,19.84-18.97,27.02-35.42,26.06l-2.37,7.77c-6.94-.49-16.39-2.15-23.7-4.26-1.1-1.41,1.32-17.41,3.6-29.15Z"/>
  <path d="M260.91,230.9c13.29-5.75,20.24-11.32,18.17-16.11-1.07-2.47-5.08-4.96-12.19-1.88-6.49,2.81-11.73,7.65-14,10.46-7.72-6.39-18.12-16.01-18.86-19,2.12-5.69,10.52-14.27,26.44-21.16,18.54-8.02,39.56-4.82,47.98,14.65,8.02,18.54-.4,33.01-14.52,41.5l2.43,7.75c-6,3.51-14.74,7.48-21.96,9.87-1.7-.55-8.74-15.11-13.49-26.09ZM304.16,296.95c-11.13,4.81-22.06.74-27.61-12.09-3.88-8.96.77-19.41,11.9-24.23,10.82-4.68,20.69-1.8,25.57,9.49,4.75,10.97,5.13,20.35-9.86,26.83Z"/>
  <path d="M347.76,83.91c25.78-3.68,40.47-10.07,39.14-19.36-.69-4.8-6.47-11-20.25-9.03-12.59,1.8-23.98,7.71-29.25,11.52-10.37-14.73-23.86-36.36-23.73-41.88,6.38-8.87,25.01-19.79,55.88-24.2,35.97-5.14,70.91,10.36,76.31,48.13,5.14,35.97-16.31,57.09-44.83,65.14l.56,14.6c-12.08,3.25-29.12,6-42.78,6.73-2.7-1.76-8.01-30.36-11.05-51.65ZM391.54,218.97c-21.58,3.09-38.63-9.16-42.18-34.04-2.49-17.39,10.53-33.32,32.11-36.4,20.98-3,36.74,6.68,39.87,28.56,3.04,21.28-.73,37.73-29.8,41.89Z"/>
</svg>