<?xml version="1.0" encoding="UTF-8"?>
<svg id="Layer_1" data-name="Layer 1" xmlns="http://www.w3.org/2000/svg" viewBox="0 0 1362.05 726.9">
  <defs>
    <style>
      .cls-1 {
        fill: #fff;
      }

      .cls-2 {
        fill: none;
        stroke: #fff;
        stroke-miterlimit: 10;
        stroke-width: 1.41px;
      }
    </style>
  </defs>
  <path d="M1351.92,179.21c-13.18,20.14-39.66,28.39-61.77,18.94-25.09-10.71-38.45-37.67-57.9-55.3-30.51-27.67-84.43-43.52-116.6-9.45-11.91,12.6-17.43,29.85-21.58,46.71-31.45,127.87-5.13,270.91-68.27,386.48-29.65,54.24-78.89,96.67-135.53,120.85-92.91,39.67-205.73,41.48-305.35,38.51-71.16-2.12-140.49-27.62-196.19-71.94-143.16-113.94-166.86-322.36-52.92-465.52,113.93-143.17,322.36-166.86,465.52-52.92,126.37,100.58,159.66,274.75,87.36,412.69,83.45-78.47,69.86-214.1,76.55-317.45,4.46-68.95,21.65-142.43,73.71-187.88,39.83-34.78,95.88-47.92,148.34-41.28,41.72,5.28,83.15,22.97,116.38,48.64,35.49,27.43,78.25,83.01,48.25,128.91Z"/>
  <path d="M313.64,231.48c-4.42-13.13-15.85-49.82-19.1-76.58-1.01-8.28,8.53-13.7,15.13-8.59,10.47,8.09,25.32,17.24,41.17,19.52,1.63.23,2.52,2.02,1.72,3.46l-34.65,62.58c-.99,1.78-3.62,1.55-4.27-.38Z"/>
  <path d="M393.26,142.53c-3.26-13.38-16.19-68.64-16.65-104.55-.11-8.84,10.9-12.99,16.64-6.27,17.53,20.53,47.16,53.06,63.14,58.31,21.11,6.95-45.33,45.79-59.71,53.98-1.35.77-3.06.03-3.42-1.48Z"/>
  <g>
    <path class="cls-1" d="M370.76,401.97c-2.92.36-5.84-.2-8.64-1.56-7.2-3.49-13.65-12.19-17.6-23.68-1.55-4.53-2.7-9.5-3.36-14.75-.54-4.31-.7-8.51-.54-12.52,14.61,1.81,30.86,3.07,48.51,3.29.17,1.04.33,2.09.46,3.15,2.97,23.76-5.46,44.39-18.83,46.06Z"/>
    <path d="M350.29,394.59c-.57.08-1.16.11-1.73.11-7.2-3.49-13.65-12.19-17.6-23.68,1.62-7.36,7.27-13.13,14.61-14.05,9.54-1.19,18.34,6.26,19.64,16.65,1.29,10.39-5.38,19.77-14.92,20.97Z"/>
    <path class="cls-1" d="M452.59,405.91c-1.56.36-3.16.57-4.79.63-12.72.4-24.3-9.17-31.68-24.19-4.16-8.47-6.99-18.65-7.93-29.77,28.85-.88,54.36-4.49,75.73-8.88.03.43.03.86.05,1.29.96,30.76-12.74,56.59-31.37,60.92Z"/>
    <path d="M443.88,390.83c-2.69,5.31-6.7,9.44-11.26,12.05-1.6-.09-3.2-.35-4.77-.76-12.31-3.23-20.7-15.69-23.51-32.19,6.66-12.39,20.57-17.97,31.39-12.49,11.02,5.58,14.67,20.53,8.15,33.39Z"/>
    <path class="cls-1" d="M385.52,413.29h25.44c2.91,0,4.47,3.43,2.55,5.63l-12.72,14.53c-1.35,1.54-3.75,1.54-5.11,0l-12.72-14.53c-1.92-2.19-.36-5.63,2.55-5.63Z"/>
  </g>
  <path d="M127.24,682.37c-23.55,0-47.74-.72-72.52-2.29-32.2-2.04-56.65-29.79-54.61-61.99,2.04-32.2,29.78-56.65,61.99-54.61,147.07,9.31,270.92-15.39,348.92-37.76,85.16-24.42,135.92-51.49,136.42-51.76,28.34-15.42,63.75-4.92,79.18,23.42,15.42,28.34,4.89,63.85-23.45,79.27-8.56,4.66-197.75,105.72-475.93,105.72Z"/>
  <g>
    <path class="cls-2" d="M603.17,576.65c-5.5,2.99-85.65,45.83-216.09,76.04"/>
    <path class="cls-2" d="M302.46,550.41c42.07-7.21,78.68-16.12,108.56-24.69,85.16-24.42,135.92-51.49,136.42-51.76"/>
  </g>
</svg>