<?xml version="1.0" encoding="UTF-8"?>
<svg id="Layer_1" data-name="Layer 1" xmlns="http://www.w3.org/2000/svg" viewBox="0 0 1328.23 800.52">
  <defs>
    <style>
      .cls-1 {
        fill: #fcb816;
      }

      .cls-2 {
        fill: #010101;
      }

      .cls-3 {
        fill: #fff;
      }

      .cls-4 {
        fill: #121112;
      }

      .cls-5 {
        fill: #d99728;
      }
    </style>
  </defs>
  <g>
    <g>
      <g>
        <path class="cls-2" d="M783.09,799.81c-65.81,0-130.85-26.2-176.49-72.64-21.64-22.02-21.34-57.41.68-79.05,22.02-21.64,57.42-21.34,79.06.68,29.29,29.8,75.72,44.5,118.28,37.46,24.24-4.01,56.91-16.62,74.87-53.9,8.19-17,12.89-38.06,17.86-60.37,9.67-43.34,20.63-92.46,60.66-133.68,29.02-29.88,68.6-50.92,111.46-59.24,42.82-8.31,87.37-3.62,125.46,13.19,48.42,21.37,87.85,60.88,111.01,111.23,22.01,47.85,27.97,102.12,16.78,152.79-6.65,30.15-36.49,49.19-66.64,42.54-30.15-6.66-49.19-36.49-42.54-66.64,12.35-55.95-15.66-116.41-63.76-137.64-36.13-15.95-84.09-6.64-111.57,21.66-18,18.54-24.37,47.08-31.74,80.13-5.85,26.22-12.48,55.93-26.25,84.53-29.82,61.91-87.17,104.08-157.34,115.69-13.18,2.18-26.49,3.25-39.77,3.25Z"/>
        <g>
          <g>
            <path class="cls-2" d="M647.96,111.55c-37.29-13.37-75.29-21.54-113.18-24.84-.38-1.28-1.31-2.2-1.92-3.21-11.67-18.84-23.2-37.76-35.18-56.39-3.7-5.77-3.58-11.09-1.16-16.96,2.54-6.2,7.32-9.28,13.77-9.97,6.38-.67,12.53.5,18.52,2.59,11.95,4.14,23.2,9.75,33.79,16.61,23.21,15.04,44.44,32.48,62.7,53.33,5.3,6.06,10.09,12.62,14.71,19.25,4.05,5.84,7,12.25,7.96,19.59Z"/>
            <path class="cls-2" d="M363.1,107.24c.13-.13.3-.28.48-.43-1.44-2.46-2.89-5.04-4.45-7.55-10.89-17.55-21.8-35.1-32.7-52.64-1.11-1.79-2.23-3.57-3.19-5.43-1.68-3.29-2.14-6.82-1.37-10.46.86-4.11,3.13-7.36,7.15-8.5,3.69-1.04,7.62-1.63,11.46-1.62,8.76,0,17.2,2.21,25.39,5.13,20.5,7.27,39.21,17.74,56.24,31.31,7.78,6.2,14.26,13.61,20.97,20.86,3.04,3.3,5.99,6.66,9.19,10.27-30.38,3.35-60.27,9.76-89.18,19.05Z"/>
          </g>
          <path class="cls-2" d="M853.32,530.92c-3.93,14.57-8.82,28.91-14.66,43.06-8.2,19.96-18.31,39.52-30.27,58.65-2.94,4.62-5.99,9.17-9.14,13.65-5.78,8.24-11.91,16.21-18.37,23.93-61.2,73.31-150.82,122.08-251.93,129.36-8.74.64-17.56.95-26.47.95-2.85,0-5.69-.04-8.52-.09-.58-.02-1.18-.04-1.76-.06-94.11-2.94-180.47-41.41-244.26-104.24-5.24-5.17-10.33-10.5-15.26-15.99-2.68-2.98-5.3-6.01-7.88-9.08-32.63-38.88-57.46-85.09-71.8-136.59-.54-1.89-1.05-3.8-1.55-5.71-2.3-8.86-4.27-17.75-5.9-26.68-.32-1.74-.62-3.5-.92-5.26-.19-1.24-.39-2.47-.58-3.71-.22-1.5-.45-3-.65-4.49-1.97-13.7-3.11-27.5-3.41-41.36-.06-2.75-.09-5.52-.11-8.29v-.47c.02-9.38.41-18.76,1.14-28.19,2.25-28.46,7.47-55.7,15.65-81.77,1.12-3.56,2.28-7.1,3.52-10.6,4.27-12.3,9.23-24.34,14.9-36.11.99-2.1,2-4.19,3.07-6.27.28-.56.56-1.12.86-1.68.79-1.54,1.57-3.07,2.4-4.61.64-1.24,1.29-2.47,1.97-3.69,1.09-2,2.19-4.01,3.33-5.99,10.2-17.95,22.09-35.23,35.61-51.86.07-.11.17-.22.26-.34,1.12-1.4,2.04-2.85,2.81-4.38,23.21-27.39,50.43-51.28,80.74-70.78.02.06.06.09.09.15,7.3-4.17,14.15-8.24,21.14-12.08,1.89-1.05,3.78-2.06,5.69-3.07,5.28-2.81,10.67-5.56,16.27-8.5.02-.11.06-.24.07-.36,3.97-1.83,7.96-3.61,12-5.32,24.92-10.52,51.26-18.33,78.67-23.06.06.07.09.13.15.21,1.46-.22,2.9-.43,4.36-.64,11.2-1.57,22.28-2.73,33.27-3.43.77-.07,1.52-.11,2.28-.15,1.31-.07,2.64-.15,3.95-.21,1.31-.07,2.62-.13,3.93-.19,2.62-.09,5.24-.17,7.84-.22,1.31-.02,2.62-.04,3.91-.06.9-.02,1.8-.02,2.7-.02,1.83,0,3.69.02,5.52.04,6.81.07,13.57.34,20.29.79h.02c40.98,2.62,80.41,11.98,118.13,28.57,12.28,5.41,24.38,11.57,36.28,18.52,9.53,5.56,18.93,11.61,28.21,18.18,9.92,7,19.38,14.34,28.38,21.98,1.09.92,2.19,1.87,3.28,2.85,18.46,16.02,34.88,33.4,49.26,52.08,1.48,1.91,2.92,3.84,4.34,5.79,8.67,11.78,16.55,24.06,23.61,36.84.41.73.82,1.46,1.22,2.21,11.85,21.83,21.42,45.08,28.61,69.76,4.02,13.78,7.32,27.99,9.87,42.65,2.58,14.9,4.29,29.62,5.11,44.16.04.26.04.52.06.79,2.12,38-1.74,74.83-11.35,110.44Z"/>
          <path class="cls-2" d="M113.74,298.73c-.47,3.92-2.7,6.6-6.6,7.52-1.72.41-3.54.43-5.32.56-29.76,2.14-59.53,4.27-89.3,6.39-1.48.11-2.99.17-4.46,0-4.55-.53-7.71-3.84-8.03-8.22-.29-4.06,2.74-7.84,7.27-8.88,1.44-.33,2.95-.4,4.44-.5,29.77-2.09,59.54-4.17,89.31-6.25,1.78-.12,3.6-.41,5.35-.18,4.77.62,7.91,4.85,7.35,9.57Z"/>
          <path class="cls-2" d="M835.72,194.04c-7.28-1.24-10.38-8.22-6.82-13.3,1.17-1.67,2.84-3.06,4.48-4.33,23.66-18.33,47.34-36.62,71.04-54.9,1.41-1.09,2.89-2.2,4.5-2.9,3.69-1.61,8.14-.24,10.38,2.96,2.41,3.44,2.24,7.48-.69,10.7-1.4,1.53-3.09,2.82-4.74,4.09-22.96,17.76-45.93,35.51-68.91,53.25-1.42,1.1-2.79,2.36-4.39,3.08-1.83.82-3.9,1.11-4.84,1.35Z"/>
          <path class="cls-2" d="M116.48,247.16c-1.09-.46-3.07-1.16-4.92-2.1-26.42-13.38-52.83-26.79-79.22-40.23-1.85-.94-3.76-1.93-5.29-3.29-3.09-2.76-3.57-7.27-1.46-10.66,2.07-3.32,6.44-5.01,10.18-3.71,1.97.68,3.82,1.71,5.69,2.66,25.61,13,51.22,26,76.81,39.03,2.12,1.08,4.31,2.15,6.18,3.61,2.97,2.32,3.84,6.49,2.4,9.73-1.76,3.94-5.21,5.81-10.36,4.97Z"/>
          <path class="cls-2" d="M959.07,234.9c-.2,1.11-2.03,3.42-5.12,4.37-2.26.7-4.68.98-7.05,1.26-28.2,3.38-56.41,6.73-84.62,10.08-2.08.25-4.16.58-6.25.62-4.84.08-8.71-3.4-9.18-8.05-.42-4.1,2.47-7.97,7.02-9.12,2.02-.51,4.13-.68,6.2-.92,28.21-3.35,56.41-6.71,84.63-10,2.65-.31,5.41-.61,8.02-.24,4.86.68,7.65,5.07,6.34,12Z"/>
          <path class="cls-3" d="M495.54,336.61c3.27,0,6.54-.13,9.8.05,2.18.12,3.62,2.54,2.93,4.59-.38,1.11-.91,2.19-1.51,3.21-5.5,9.2-11.02,18.38-16.55,27.56-.31.51-.64,1.01-1,1.48-2.31,3-4.98,3.24-7.34.19-7.12-9.17-14.16-18.42-21.02-27.79-2.37-3.24-.64-6.59,3.49-6.93,10.39-.85,20.8-1.47,31.2-2.19,0-.05,0-.11,0-.16Z"/>
          <g>
            <path class="cls-3" d="M613.68,234.26c.71,30.38-23.79,59.38-58.97,59.85-32.8.45-59.76-26.15-60.04-58.84-.26-33.4,26.25-60.3,59.48-60.26,35.44.02,60.04,29.28,59.53,59.25Z"/>
            <path class="cls-3" d="M449.96,243.73c.41,27.41-22.3,52.46-52.64,52.36-29.86-.07-52.4-24.86-52.36-52.74.04-25.33,20.01-52.48,52.76-52.33,33.04.15,53,27.67,52.25,52.7Z"/>
            <path class="cls-2" d="M583.61,258.3c.59,16.2-12.35,35.9-35.91,36-23.39.09-36.66-19.47-36.28-36.64.44-19.89,16.44-35.65,36.47-35.49,20.1.17,35.76,16.01,35.72,36.13Z"/>
            <path class="cls-2" d="M396.83,298.95c-17.74.17-32.07-13.79-32.26-31.43-.19-17.57,14-31.84,31.58-32.22,13.53-.29,31.8,9.6,32.19,31.55.34,19.2-15.16,32.23-31.52,32.1Z"/>
          </g>
        </g>
      </g>
      <ellipse class="cls-3" cx="487.78" cy="406.09" rx="26.13" ry="30.27" transform="translate(-40.37 54.1) rotate(-6.1)"/>
    </g>
    <g>
      <path class="cls-5" d="M261.17,412.99l-229.32-.45c-11.99-.02-20.49,11.7-16.73,23.09l108.31,328.27c2.53,7.65,9.93,12.61,17.97,12.03l224.83-16.35c11.44-.83,19.03-12.22,15.41-23.1l-103.82-311.46c-2.39-7.17-9.09-12.01-16.65-12.02Z"/>
      <path class="cls-1" d="M270.66,404.02l-229.32-.45c-11.99-.02-20.49,11.7-16.73,23.09l108.31,328.27c2.53,7.65,9.93,12.61,17.97,12.03l224.83-16.35c11.44-.83,19.03-12.22,15.41-23.1l-103.82-311.46c-2.39-7.17-9.09-12.01-16.65-12.02Z"/>
      <path class="cls-3" d="M263.09,419.33l-205.6-.47c-7.74-.02-13.21,7.55-10.78,14.89l101.99,307.44c1.62,4.89,6.34,8.07,11.49,7.74l203.81-13.24c7.44-.48,12.39-7.9,9.99-14.96l-100.2-293.73c-1.56-4.58-5.86-7.66-10.69-7.67Z"/>
      <g>
        <path class="cls-4" d="M83.82,472.44c-1.76,0-3.2-1.4-3.26-3.17-.05-1.8,1.37-3.3,3.17-3.35l179.97-5.14c1.77-.09,3.3,1.37,3.35,3.16.05,1.8-1.37,3.3-3.17,3.35l-179.97,5.14s-.06,0-.1,0Z"/>
        <path class="cls-4" d="M97.26,516.35c-1.76,0-3.2-1.4-3.26-3.17-.05-1.8,1.37-3.3,3.17-3.35l179.97-5.14c1.73-.1,3.3,1.37,3.35,3.16.05,1.8-1.37,3.3-3.17,3.35l-179.97,5.14s-.06,0-.1,0Z"/>
        <path class="cls-4" d="M110.71,561.44c-1.76,0-3.2-1.4-3.26-3.17-.05-1.8,1.37-3.3,3.17-3.35l179.97-5.14c1.88-.13,3.3,1.37,3.35,3.16.05,1.8-1.37,3.3-3.17,3.35l-179.97,5.14s-.06,0-.1,0Z"/>
        <path class="cls-4" d="M125.74,609.7c-1.76,0-3.2-1.4-3.26-3.17-.05-1.8,1.37-3.3,3.17-3.35l179.97-5.14c1.86-.1,3.3,1.36,3.35,3.16.05,1.8-1.37,3.3-3.17,3.35l-179.97,5.14s-.06,0-.1,0Z"/>
        <path class="cls-4" d="M140.77,658.74c-1.76,0-3.2-1.4-3.26-3.17-.05-1.8,1.37-3.3,3.17-3.35l179.97-5.14c1.86-.06,3.3,1.37,3.35,3.16.05,1.8-1.37,3.3-3.17,3.35l-179.97,5.14s-.06,0-.1,0Z"/>
        <path class="cls-4" d="M159.76,702.25c-1.76,0-3.2-1.4-3.26-3.17-.05-1.8,1.37-3.3,3.17-3.35l179.97-5.14c1.82-.12,3.3,1.37,3.35,3.16.05,1.8-1.37,3.3-3.17,3.35l-179.97,5.14s-.06,0-.1,0Z"/>
      </g>
    </g>
  </g>
  <path class="cls-2" d="M35.29,494.78c30.22-9.97,61.69,2.27,74.12,25.17,15.38,28.33.7,71.31-37.63,85.68-42.23-13.93-65.87-48.32-60.71-76.57,3.19-17.46,16.72-28.96,24.22-34.28Z"/>
</svg>