<?xml version="1.0" encoding="UTF-8"?>
<svg id="Layer_1" data-name="Layer 1" xmlns="http://www.w3.org/2000/svg" viewBox="0 0 637.49 716.72">
  <defs>
    <style>
      .cls-1 {
        fill: #fff;
      }

      .cls-2 {
        fill: #2fb0e5;
      }
    </style>
  </defs>
  <g>
    <path d="M35.37,277.83l28.95,16.25c1.05.59,2.19.87,3.32.87,2.66,0,5.24-1.57,6.33-4.32,1.26-3.19-.23-6.82-3.22-8.5l-28.99-16.28c-3.46-1.94-7.89-.53-9.54,3.19-1.43,3.24.06,7.05,3.15,8.79Z"/>
    <path d="M59.45,328.9c3.26,0,6.18-2.36,6.7-5.78.54-3.57-1.98-6.9-5.5-7.69l-52.39-11.72c-3.65-.82-7.28,1.48-8.1,5.14-.82,3.66,1.48,7.28,5.14,8.1l52.66,11.78c.5.11,1,.16,1.49.16Z"/>
    <path d="M66.92,346.76c-.19-4.06-3.82-6.98-7.75-6.41l-39.65,5.73c-3.66.53-6.47,3.79-6.08,7.46.37,3.52,3.33,6.08,6.74,6.08.32,0,.65-.02.98-.07l39.66-5.73c3.51-.51,6.27-3.52,6.1-7.06Z"/>
    <path d="M556.24,356.15c.65,0,1.32-.09,1.97-.29l40.83-12.39c3.39-1.03,5.67-4.43,4.97-7.9-.8-3.98-4.82-6.32-8.62-5.17l-40.87,12.4c-3.38,1.02-5.62,4.41-4.93,7.86.66,3.31,3.53,5.49,6.66,5.49Z"/>
    <path d="M621.15,375.38h-61.84c-3.54,0-6.71,2.59-7.04,6.12-.39,4.05,2.79,7.45,6.75,7.45h61.84c3.54,0,6.71-2.59,7.04-6.12.39-4.05-2.79-7.45-6.75-7.45Z"/>
    <path d="M598.4,418.7l-40.35-15.93c-3.68-1.45-7.89.54-9.02,4.45-.98,3.41,1.01,6.98,4.31,8.28l40.37,15.94c.82.32,1.66.48,2.49.48,2.87,0,5.57-1.83,6.49-4.8,1.06-3.44-.94-7.1-4.29-8.42Z"/>
    <path d="M538.3,550.78c-14.55-11.85-35.89-9.67-47.73,4.79-20.38,24.91-77.26,83.53-166.02,91.63-25.52,2.35-93.11,8.54-143.11-37.02-21.25-19.34-36.15-44.68-44.16-73.43,2.26,2.35,4.62,4.88,7.14,7.14.17.17.26.44.52.61.61.52,1.22,1.13,1.83,1.66,2.7,2.53,5.57,5.05,8.45,7.49.7.61,1.48,1.22,2.18,1.83,1.39,1.13,2.87,2.35,4.36,3.57.7.52,1.48,1.13,2.26,1.66,2.18,1.74,4.44,3.4,6.71,5.05.78.52,1.57,1.05,2.35,1.57.78.61,1.48,1.13,2.26,1.57.78.61,1.74,1.22,2.7,1.74.7.52,1.39.96,2.09,1.39,1.57,1.13,3.22,2,4.79,3.05.78.44,1.66.96,2.44,1.48.87.44,1.57.87,2.44,1.39,1.66.96,3.31,1.92,4.97,2.7,1.66.96,3.4,1.92,4.97,2.7,1.74.87,3.4,1.74,5.23,2.61,2.44,1.22,5.05,2.35,7.58,3.48h.09c.96.44,1.74.78,2.61,1.22,2.7,1.05,5.31,2.09,8.01,3.14,8.97,3.4,18.12,6.36,27.52,8.54,2.87.7,5.75,1.39,8.54,1.92.96.26,2,.44,2.87.52,8.62,1.74,17.42,2.87,26.31,3.57.26,0,.35.09.61.09,6.18.44,12.46.61,18.73.61h1.83c122.73-1.57,221.94-96.08,231-216.72.09-.96.17-1.92.26-2.87.09-2,.17-4.01.26-6.01.09-3.14.17-6.1.17-9.23v-3.14c-.09-1.83-.09-3.66-.17-5.49-.09-2.87-.17-5.66-.44-8.45-.09-.96-.17-1.92-.26-2.87s-.17-2-.17-2.96c-.26-1.83-.44-3.48-.7-5.31v-.17c-.09-.96-.17-1.83-.35-2.61-.09-1.13-.26-2.18-.35-3.31-.17-.7-.26-1.48-.44-2.26-.17-.96-.26-1.83-.44-2.79-1.13-6.36-2.44-12.72-4.01-18.99-.7-2.61-1.39-5.23-2.18-7.84-.26-.96-.52-1.83-.87-2.79-.52-1.66-1.05-3.4-1.57-5.05-.61-1.74-1.22-3.4-1.83-5.14-.26-.78-.61-1.74-.87-2.53-1.66-4.27-3.31-8.45-5.14-12.54-2.87-6.62-6.1-13.07-9.49-19.25-1.83-3.22-3.57-6.27-5.49-9.32-7.93-12.89-17.16-25-27.35-36.15l12.37-56.44c1.05-4.7-4.44-8.01-8.19-4.97l-37.46,31.62c-1.57-1.13-3.22-2.35-4.96-3.48-4.79-3.48-9.93-6.71-15.07-9.76l-.09-.09c-.87-.52-1.74-1.05-2.61-1.57-.96-.44-1.74-1.05-2.7-1.48-.87-.44-1.74-.96-2.61-1.48-1.74-.87-3.66-1.83-5.4-2.7-.96-.52-1.83-.96-2.7-1.39-.96-.52-1.83-.87-2.79-1.31-.87-.52-1.83-.87-2.79-1.39l-10.1-73.69c-1.05-6.88-10.1-9.06-14.11-3.31l-40.24,58.19c-6.71-.96-13.5-1.66-20.47-2-2.79-.17-5.66-.26-8.45-.35h-4.27c-14.11,0-28.05,1.22-41.46,3.66-1.92.35-3.83.78-5.84,1.13-11.41,2.35-22.56,5.49-33.36,9.49-1.83.61-3.57,1.31-5.4,2-1.74.7-3.48,1.39-5.31,2.18-1.66.7-3.48,1.39-5.14,2.26-8.71,3.92-17.16,8.36-25.17,13.24-1.57.96-3.22,2-4.79,2.96-1.57,1.05-3.14,2.09-4.7,3.14-.78.61-1.57,1.05-2.35,1.57-1.57,1.05-3.05,2.18-4.62,3.31-1.48,1.05-3.05,2.26-4.44,3.4-2.26,1.66-4.53,3.48-6.62,5.23-.7.61-1.48,1.22-2.18,1.83-1.48,1.22-2.87,2.44-4.27,3.66-3.57,3.14-6.97,6.36-10.28,9.76-15.94,15.85-29.62,34.06-40.42,54-.87,1.66-1.83,3.31-2.61,5.05-.87,1.66-1.74,3.31-2.61,5.05-1.57,3.48-3.22,6.97-4.7,10.37-1.83,4.44-3.48,8.88-5.14,13.41-8.54,24.39-13.24,50.69-13.24,77.96v3.57c0,.87.09,1.66.09,2.53,0,1.05.09,2,.09,3.05,0,.96.09,2,.09,2.96,0,.87.09,1.74.17,2.53,0,.96.09,1.92.17,2.79.09.61.09,1.22.17,1.83.09,1.57.17,3.22.35,4.79.17.96.26,1.92.44,2.96,0,.96.17,1.92.26,2.96.17.87.26,1.92.44,2.79v.26c-1.05,2.09-2,4.36-2.61,6.79-24.13,93.99.52,188.32,64.2,246.24,52.61,47.82,116.02,56.36,158.27,56.36,15.68,0,28.4-1.22,36.67-1.92,114.28-10.45,186.58-84.75,212.27-116.2,11.93-14.55,9.76-35.97-4.7-47.82ZM461.82,356.02c-4.79,3.83-9.41,7.4-13.33,12.11-4.09,4.53-7.49,9.23-11.67,14.02-1.22-13.41,10.98-28.05,25-26.13ZM386.22,407.32c10.45,2.09,25.17,4.96,35.36,6.97,5.05.96,6.79,7.23,3.14,10.71l-21.69,20.21c-.7.7-1.48,1.13-2.26,1.39-.35,6.79.35,19.69,6.97,24.83,3.92,3.22,9.93,3.31,17.86.52,1.57-.61,3.48.09,4.27,1.57.96,1.83,0,4.01-1.83,4.7-4.53,1.74-8.71,2.53-12.46,2.53-4.7,0-8.71-1.31-12.11-4.01-5.4-4.27-7.84-11.41-8.88-17.94-3.92,6.79-9.93,14.02-18.12,16.46-7.93,2.35-16.38-.17-25.09-7.49-1.66-1.39-1.57-4.01.35-5.4,1.22-.87,2.96-.7,4.18.26,6.71,5.75,12.98,7.75,18.64,6.1,10.89-3.22,17.42-19.16,19.25-24.22-.26-.35-.44-.61-.61-1.05l-13.85-27.09c-2.26-4.7,1.74-10.1,6.88-9.06ZM379.77,388.16c-1.74-6.45-3.83-12.46-6.79-17.86-9.06-17.07-27.44-25-45.64-29.27,28.83-4.97,56.79,16.72,52.44,47.12Z"/>
    <path class="cls-1" d="M461.82,356.02c-4.79,3.83-9.41,7.4-13.33,12.11-4.09,4.53-7.49,9.23-11.67,14.02-1.22-13.41,10.98-28.05,25-26.13Z"/>
    <path class="cls-1" d="M379.77,388.16c-1.74-6.45-3.83-12.46-6.79-17.86-9.06-17.07-27.44-25-45.64-29.27,28.83-4.97,56.79,16.72,52.44,47.12Z"/>
    <path class="cls-1" d="M428.03,478.23c-4.53,1.74-8.71,2.53-12.46,2.53-4.7,0-8.71-1.31-12.11-4.01-5.4-4.27-7.84-11.41-8.88-17.94-3.92,6.79-9.93,14.02-18.12,16.46-7.93,2.35-16.38-.17-25.09-7.49-1.66-1.39-1.57-4.01.35-5.4,1.22-.87,2.96-.7,4.18.26,6.71,5.75,12.98,7.75,18.64,6.1,10.89-3.22,17.42-19.16,19.25-24.22-.26-.35-.44-.61-.61-1.05l-13.85-27.09c-2.26-4.7,1.74-10.1,6.88-9.06,10.45,2.09,25.17,4.96,35.36,6.97,5.05.96,6.79,7.23,3.14,10.71l-21.69,20.21c-.7.7-1.48,1.13-2.26,1.39-.35,6.79.35,19.69,6.97,24.83,3.92,3.22,9.93,3.31,17.86.52,1.57-.61,3.48.09,4.27,1.57.96,1.83,0,4.01-1.83,4.7Z"/>
  </g>
  <g>
    <path class="cls-2" d="M487.17,118.46c-9.03-1.32-18.14-1.84-27.24-1.53,3.5-2.29,7.2-4.27,11.04-5.89,4.38-1.84,13.87-3.3,11.97-10.16-.23-.84-1.07-1.51-1.96-1.49-10.58.25-21.17.49-31.76.74-2.62.06-2.63,4.13,0,4.07,9.8-.23,19.6-.46,29.4-.68-1.13,1.26-4.05,1.83-5.16,2.22-2.65.94-5.25,2.03-7.77,3.26-5,2.43-9.64,5.45-13.98,8.91-1.36,1.08-.25,3.61,1.44,3.47,10.98-.89,22.04-.59,32.94,1,2.56.38,3.67-3.55,1.08-3.92Z"/>
    <path class="cls-2" d="M547.09,86.86c-14.38-2.12-28.89-2.95-43.4-2.44,5.31-3.46,10.91-6.48,16.71-9,4.43-1.93,9.16-3.12,13.57-5.08,4.37-1.95,7.95-6.5,6.39-11.48-.42-1.34-1.67-2.42-3.13-2.38-16.87.39-33.73.79-50.6,1.18-4.17.1-4.18,6.58,0,6.49,15.62-.36,31.24-.73,46.86-1.09-1.55,1.68-5.16,2.49-6.71,3.01-4.39,1.49-8.7,3.25-12.9,5.24-8.33,3.95-16.09,8.93-23.29,14.68-2.16,1.72-.4,5.76,2.29,5.54,17.48-1.44,35.12-.96,52.48,1.6,1.73.26,3.49-.43,3.99-2.27.42-1.53-.52-3.73-2.27-3.99Z"/>
    <path class="cls-2" d="M634.08,43.77c-20.7-3.06-41.61-4.26-62.49-3.52,4.77-3.1,9.7-5.97,14.75-8.55,4.67-2.4,9.4-4.55,14.24-6.43,5.11-1.99,10.58-3.3,15.51-5.72,5.83-2.86,10.5-9.44,8.28-16.12-.64-1.92-2.38-3.48-4.5-3.43-24.29.57-48.58,1.13-72.88,1.7-2.52.06-4.67,2.1-4.67,4.67s2.14,4.73,4.67,4.67c22.44-.52,44.88-1.04,67.33-1.57-1.29,1.32-3.03,2.13-4.67,2.72-4.77,1.72-9.59,3.23-14.29,5.16-9.77,4.01-19.18,8.81-28.06,14.55-5.05,3.27-9.9,6.83-14.59,10.59-3.1,2.49-.58,8.29,3.3,7.97,25.17-2.08,50.6-1.39,75.59,2.31,2.49.37,5.02-.62,5.75-3.26.6-2.2-.75-5.37-3.26-5.75Z"/>
  </g>
</svg>