<?xml version="1.0" encoding="UTF-8"?>
<svg id="Layer_1" data-name="Layer 1" xmlns="http://www.w3.org/2000/svg" viewBox="0 0 1300.5 431.31">
  <defs>
    <style>
      .cls-1 {
        fill: #eab30a;
      }

      .cls-2 {
        fill: #fff;
      }

      .cls-3 {
        fill: none;
      }

      .cls-4 {
        fill: #2fa6e9;
      }
    </style>
  </defs>
  <g>
    <path d="M239.87,254.12c-8.54-56.58,3.99-107.5,41.18-151.12,37.04-43.44,85.04-64.2,142.25-64.75.92-1.25,1.98-2.65,2.98-4.08,6.78-9.7,13.55-19.41,20.33-29.11.73-1.05,1.46-2.11,2.25-3.1,1.46-1.83,3.44-2.28,5.61-1.73,2.04.52,3.28,1.94,3.66,4.01.95,5.19,1.86,10.38,2.77,15.58,1.38,7.86,2.76,15.73,4.17,23.75,1.09.41,2.09.88,3.13,1.16,18.19,4.96,35.23,12.49,51.1,22.67.53.34,1.11.61,1.92,1.06.7-.83,1.48-1.58,2.05-2.47,5.4-8.51,10.76-17.04,16.14-25.56.68-1.08,1.33-2.19,2.09-3.21,1.35-1.81,3.15-2.74,5.43-2.21,2.21.51,3.7,1.92,4.13,4.19.7,3.77,1.34,7.56,1.93,11.35,2.6,16.74,5.2,33.49,7.72,50.25.4,2.64,1.43,4.79,3.08,6.86,17.81,22.41,29.81,47.6,35.77,75.62,3.45,16.2,4.71,32.55,3.69,49.11-2.25,36.79-14.45,69.88-36.47,99.4-5.37,7.19-11.29,13.91-17.67,20.22-4.36,4.3-3.52,2.95-3.59,8.73-.16,12-.17,23.99-.4,35.99-.07,3.33-.35,6.75-1.17,9.97-3.51,13.85-15.84,23.78-29.74,24.58-15.9.91-28.79-9.1-33.21-21.87-.47-1.35-.9-2.71-1.36-4.09-1.71.48-1.4,2.06-1.82,3.15-4.06,10.55-11.36,17.68-22.26,20.79-16.5,4.72-33.68-4.02-39.78-20.06-.4-1.04-.65-2.15-1.1-3.17-.23-.51-.75-.89-1.46-1.67-.63,1.31-1.17,2.23-1.54,3.21-1.76,4.71-4.33,8.89-7.89,12.47-16.04,16.15-44.98,11.75-54.16-11.61-.58-1.47-1.02-2.99-1.7-5-.57.8-.98,1.2-1.19,1.69-.43,1.03-.68,2.14-1.13,3.16-5.58,12.53-15.21,19.71-28.89,20.47-12.85.72-22.92-4.85-29.86-15.73-3.35-5.25-4.83-11.09-4.75-17.33.12-9.6.19-19.19.28-28.79.07-7.2.14-14.4.22-21.59.02-1.62-.09-3.11-1.26-4.46-6.2-7.13-11.72-14.77-16.6-22.55-1.67-.94-3.1-.38-4.47-.09-12.62,2.63-25.38,3.44-38.19,2.5-27.26-1.99-51.36-11.48-70.85-31.15-15.11-15.26-23.93-33.76-27.32-54.91-2.12-13.25-1.41-26.43.45-39.66,1.47-10.52,1.35-21.06-1.35-31.44-1.34-5.14-3.34-10-6.46-14.35-6.71-9.35-16.7-12.97-27.84-10.15-5.83,1.47-11.01,4.25-15.83,7.78-5.33,3.9-9.9,8.59-14.01,13.74-5.09,6.38-11.65,10.47-19.66,11.96C17.95,176.41.68,160.3.03,141.64c-.28-7.99,1.78-15.24,6.7-21.53,12.49-15.98,27.48-28.97,45.83-37.88,15.86-7.7,32.59-11.39,50.22-9.99,21.5,1.71,40.16,10.08,55.77,24.99,13.78,13.17,22.52,29.34,27.64,47.53,4.77,16.97,6.06,34.28,4.37,51.81-.49,5.09-1.14,10.17-1.78,15.24-.67,5.31-.3,10.56.94,15.72,2.37,9.9,8.19,17.2,17.14,22,3.97,2.13,8.21,3.53,12.65,4.35,6.01,1.12,12.06,1.49,18.14.8.76-.09,1.49-.39,2.24-.59ZM425.86,151.04c-2.03.54-3.74-.09-5.41-.39-25.32-4.59-50.63-9.25-75.95-13.87-1.41-.26-2.85-.43-4.28-.45-1.54-.02-2.81,1.15-3.05,2.54-.25,1.43.5,2.94,1.94,3.48,1.18.44,2.46.67,3.71.9,26.58,4.84,53.15,9.67,79.73,14.53,1.06.19,2.06.68,3.05,1.02.24,1.32.48,2.41.64,3.52,2.32,16.1,16.09,32.05,36.91,33.21,19.22,1.07,35.05-11.52,40-28.17.41-1.38.65-2.81,1.08-4.18.16-.53.63-.96,1.03-1.54,1.65,1.33,1.43,3.04,1.77,4.53,4.21,18.77,22.88,30.28,41.24,25.94,16.12-3.81,29.84-19.77,25.55-40.68-3.11-15.13-16.42-26-31.71-26.74-17.09-.83-30.59,10.72-34.45,24.44-.39,1.38-.61,2.81-1.03,4.18-.15.51-.65.91-1.32,1.79-1.22-5.34-1.68-10.29-3.78-14.84-2.17-4.71-4.99-8.92-8.69-12.54-3.58-3.51-7.71-6.23-12.33-8.16-4.77-2-9.77-3.09-14.94-3.09-8.56,0-16.4,2.43-23.37,7.46-9.3,6.7-14.46,15.96-16.35,27.11ZM501.24,339.9c5.65-3.16,17.63-11.59,20.22-14.22-.14-.84-.23-1.79-.45-2.71-3.85-16.66-7.71-33.32-11.57-49.98-.36-1.55-.97-3.07-.32-4.94,3.26-3.43,6.71-6.98,10.07-10.62,3.45-3.73,7.26-7.15,10.63-11.53-1.22-.31-2.09-.67-2.97-.74-9.41-.72-18.82-1.4-28.23-2.08-4.63-.34-9.25-.69-13.88-.98-.71-.05-1.62-.37-2.14.9.96,1.11,1.95,2.32,3,3.47,5.84,6.37,11.7,12.71,17.52,19.09.84.92,1.55,1.95,2.37,2.99-7.58,18.52-15.07,36.85-22.52,55.04,2.51,2.96,12.62,11.97,18.26,16.31ZM505.49,221.97c1.46,2.17,2.21,3.37,3.05,4.51,6.23,8.38,18.74,10.87,27.52,5.4,1.46-.91,2.75-2.17,3.96-3.42.8-.82.64-2.23-.05-3.1-.82-1.04-2.31-1.41-3.42-.7-1.07.68-2.01,1.58-3.07,2.27-8.59,5.59-20.39.8-22.67-9.35.39-.54.81-1.21,1.33-1.8,2.84-3.25,5.71-6.47,8.55-9.72.62-.71,1.22-1.48,1.67-2.31.54-.98-.11-2.39-1.18-2.74-.45-.15-.93-.24-1.4-.3-6.81-.9-13.62-1.8-20.43-2.69-.63-.08-1.28-.11-1.91-.09-1.67.07-2.62,1.38-2.01,2.98.63,1.63,1.47,3.18,2.24,4.76,1.73,3.57,3.82,6.97,5.15,10.6-1.48,3.23-3.77,5.39-6.64,6.97-8.2,4.51-18.92,2.08-24.43-5.54-.65-.9-1.14-1.93-1.8-2.82-.92-1.24-2.2-1.58-3.35-1.01-1.43.7-2.09,2.14-1.35,3.58.87,1.69,1.84,3.38,3.05,4.84,8.97,10.86,25.84,11.42,35.11,2.52.68-.66,1.14-1.56,2.07-2.87Z"/>
    <path class="cls-2" d="M425.86,151.04c1.89-11.15,7.06-20.41,16.35-27.11,6.97-5.03,14.8-7.46,23.37-7.46,5.17,0,10.16,1.09,14.94,3.09,4.62,1.93,8.75,4.65,12.33,8.16,3.7,3.62,6.52,7.83,8.69,12.54,2.1,4.55,2.56,9.5,3.78,14.84.67-.88,1.17-1.28,1.32-1.79.42-1.37.64-2.8,1.03-4.18,3.86-13.72,17.36-25.26,34.45-24.44,15.28.74,28.6,11.61,31.71,26.74,4.29,20.91-9.42,36.87-25.55,40.68-18.36,4.34-37.03-7.17-41.24-25.94-.34-1.49-.11-3.2-1.77-4.53-.4.58-.87,1.01-1.03,1.54-.43,1.37-.67,2.8-1.08,4.18-4.95,16.65-20.78,29.23-40,28.17-20.82-1.15-34.59-17.11-36.91-33.21-.16-1.1-.39-2.2-.64-3.52-.99-.34-2-.83-3.05-1.02-26.57-4.86-53.15-9.68-79.73-14.53-1.25-.23-2.52-.46-3.71-.9-1.45-.54-2.19-2.05-1.94-3.48.24-1.39,1.51-2.56,3.05-2.54,1.43.02,2.87.19,4.28.45,25.32,4.62,50.62,9.28,75.95,13.87,1.67.3,3.38.94,5.41.39ZM465.24,123.12c-18.09,0-33.01,14.94-32.88,33.06.12,17.17,13.49,32.59,32.69,32.73,18.72.14,33.06-14.65,33.1-32.78.04-18.93-15.2-32.9-32.91-33.02ZM540.53,186.33c15.08-.03,27.45-12.42,27.47-27.51.02-15.12-12.23-27.37-27.42-27.53-14.9-.16-27.73,11.93-27.71,27.71.02,15.05,12.57,27.36,27.65,27.33Z"/>
    <path class="cls-1" d="M501.24,339.9c-5.64-4.34-15.75-13.35-18.26-16.31,7.44-18.2,14.94-36.52,22.52-55.04-.82-1.04-1.53-2.07-2.37-2.99-5.83-6.37-11.69-12.72-17.52-19.09-1.06-1.15-2.05-2.37-3-3.47.52-1.27,1.43-.95,2.14-.9,4.63.3,9.25.65,13.88.98,9.41.69,18.82,1.36,28.23,2.08.89.07,1.75.42,2.97.74-3.37,4.38-7.17,7.8-10.63,11.53-3.36,3.64-6.82,7.19-10.07,10.62-.64,1.87-.04,3.39.32,4.94,3.86,16.66,7.72,33.32,11.57,49.98.21.92.31,1.87.45,2.71-2.59,2.63-14.57,11.06-20.22,14.22Z"/>
    <path class="cls-2" d="M505.49,221.97c-.94,1.31-1.39,2.21-2.07,2.87-9.27,8.9-26.14,8.34-35.11-2.52-1.21-1.46-2.17-3.15-3.05-4.84-.74-1.44-.08-2.88,1.35-3.58,1.16-.57,2.43-.23,3.35,1.01.66.89,1.15,1.92,1.8,2.82,5.51,7.62,16.23,10.06,24.43,5.54,2.87-1.58,5.15-3.74,6.64-6.97-1.33-3.63-3.42-7.04-5.15-10.6-.76-1.58-1.61-3.13-2.24-4.76-.62-1.6.34-2.92,2.01-2.98.64-.03,1.28,0,1.91.09,6.81.88,13.62,1.78,20.43,2.69.47.06.95.15,1.4.3,1.06.35,1.72,1.76,1.18,2.74-.45.83-1.05,1.59-1.67,2.31-2.83,3.25-5.71,6.47-8.55,9.72-.52.59-.94,1.27-1.33,1.8,2.28,10.15,14.07,14.94,22.67,9.35,1.07-.69,2-1.59,3.07-2.27,1.11-.71,2.6-.34,3.42.7.69.87.85,2.28.05,3.1-1.21,1.25-2.49,2.5-3.96,3.42-8.79,5.47-21.29,2.98-27.52-5.4-.84-1.13-1.59-2.34-3.05-4.51Z"/>
    <path d="M465.24,123.12c17.71.12,32.95,14.08,32.91,33.02-.04,18.13-14.39,32.92-33.1,32.78-19.2-.15-32.57-15.56-32.69-32.73-.13-18.12,14.79-33.06,32.88-33.06ZM465.6,144.67c-2.76.07-5.7.63-8.44,2.08-5.6,2.96-9.31,7.61-12,13.2-.14.28-.25.59-.32.9-.28,1.21.3,2.62,1.35,3.34,1.16.79,3.04.75,3.97-.27.74-.81,1.2-1.87,1.87-2.74,1.65-2.13,3.11-4.49,5.08-6.28,5.09-4.63,11.54-4.74,17.04-.61,2.87,2.15,4.88,5,6.49,8.16.5.99.89,2.06,1.48,2.99.85,1.36,2.4,1.86,3.73,1.37,1.56-.57,2.38-2.06,2.09-3.84-.08-.47-.18-.95-.37-1.38-2.51-5.84-6.09-10.82-11.66-14.15-3.08-1.84-6.43-2.73-10.32-2.78Z"/>
    <path d="M540.53,186.33c-15.09.03-27.63-12.28-27.65-27.33-.02-15.78,12.81-27.86,27.71-27.71,15.18.16,27.44,12.41,27.42,27.53-.02,15.09-12.4,27.48-27.47,27.51ZM541.64,147.83c-8.49.04-16.48,6.09-18.78,13.38-.46,1.45.08,3.02,1.29,3.77,1.37.85,3.31.59,4.32-.71.68-.88,1.09-1.97,1.78-2.83,1.29-1.61,2.53-3.33,4.11-4.63,3.74-3.07,8.45-3.08,12.41-.27,2.26,1.6,3.94,3.71,5.22,6.16.52.99.85,2.12,1.53,2.97.55.69,1.43,1.34,2.27,1.53,2.42.53,4.48-1.77,3.59-4.15-2.5-6.72-6.64-12.01-13.7-14.41-1.64-.56-3.42-.68-4.04-.8Z"/>
    <path class="cls-2" d="M465.6,144.67c3.89.05,7.24.93,10.32,2.78,5.57,3.33,9.14,8.3,11.66,14.15.19.43.29.91.37,1.38.29,1.77-.54,3.27-2.09,3.84-1.33.49-2.87-.02-3.73-1.37-.59-.94-.98-2-1.48-2.99-1.61-3.16-3.62-6.01-6.49-8.16-5.5-4.13-11.95-4.02-17.04.61-1.97,1.79-3.43,4.15-5.08,6.28-.68.88-1.13,1.93-1.87,2.74-.93,1.03-2.81,1.07-3.97.27-1.05-.72-1.63-2.13-1.35-3.34.07-.31.18-.61.32-.9,2.69-5.59,6.41-10.25,12-13.2,2.74-1.45,5.69-2.01,8.44-2.08Z"/>
    <path class="cls-2" d="M541.64,147.83c.63.12,2.41.24,4.04.8,7.06,2.39,11.2,7.69,13.7,14.41.89,2.38-1.17,4.69-3.59,4.15-.84-.18-1.73-.84-2.27-1.53-.68-.85-1.01-1.98-1.53-2.97-1.28-2.44-2.96-4.55-5.22-6.16-3.96-2.81-8.67-2.8-12.41.27-1.58,1.29-2.81,3.02-4.11,4.63-.69.86-1.1,1.95-1.78,2.83-1.01,1.31-2.94,1.57-4.32.71-1.21-.75-1.75-2.32-1.29-3.77,2.3-7.28,10.29-13.34,18.78-13.38Z"/>
  </g>
  <path d="M697.26,232.38c2.24,36.78,14.45,69.88,36.46,99.39,5.37,7.19,11.29,13.91,17.67,20.22,4.36,4.3,3.52,2.94,3.59,8.73.16,11.99.17,23.99.41,35.99.06,3.33.35,6.74,1.17,9.96,3.51,13.85,15.83,23.78,29.73,24.58,15.9.91,28.79-9.1,33.21-21.87.47-1.35.91-2.71,1.36-4.09,1.71.48,1.4,2.06,1.83,3.15,4.05,10.55,11.36,17.68,22.26,20.79,16.5,4.72,33.68-4.02,39.78-20.05.39-1.05.64-2.15,1.09-3.17.23-.51.76-.89,1.46-1.67.64,1.31,1.17,2.23,1.54,3.21,1.76,4.71,4.33,8.88,7.89,12.47,16.04,16.14,44.97,11.74,54.16-11.62.57-1.46,1.02-2.99,1.7-5,.57.8.98,1.2,1.18,1.69.43,1.03.68,2.14,1.13,3.16,5.58,12.53,15.22,19.7,28.89,20.47,12.85.71,22.92-4.85,29.86-15.73,3.35-5.26,4.83-11.09,4.75-17.34-.12-9.6-.18-19.19-.27-28.79-.07-7.2-.14-14.4-.22-21.59-.02-1.62.09-3.12,1.26-4.47,6.2-7.13,11.72-14.77,16.6-22.55,1.68-.94,3.11-.38,4.47-.1,12.62,2.63,25.38,3.44,38.19,2.51,27.26-1.99,51.37-11.48,70.85-31.15,15.11-15.27,23.93-33.76,27.32-54.91,2.12-13.25,1.41-26.43-.44-39.66-1.48-10.52-1.35-21.06,1.35-31.44,1.34-5.14,3.33-10,6.46-14.35,6.71-9.35,16.69-12.97,27.84-10.15,5.83,1.47,11.01,4.25,15.83,7.78,5.32,3.9,9.89,8.59,14,13.73,5.1,6.38,11.65,10.48,19.66,11.96,21.28,3.94,38.54-12.17,39.2-30.83.28-7.99-1.79-15.24-6.7-21.52-12.49-15.98-27.48-28.98-45.83-37.88-15.86-7.7-32.58-11.39-50.21-9.99-21.51,1.7-40.16,10.07-55.78,24.99-13.77,13.17-22.52,29.35-27.63,47.54-4.77,16.96-6.06,34.28-4.37,51.81.49,5.09,1.14,10.16,1.78,15.24.67,5.31.3,10.56-.94,15.72-2.37,9.9-8.19,17.2-17.14,22-3.97,2.13-8.21,3.52-12.65,4.35-6.01,1.13-12.05,1.49-18.14.81-.76-.09-1.49-.39-2.24-.59,8.55-56.58-3.99-107.51-41.18-151.12-37.04-43.44-85.04-64.2-142.25-64.75-.91-1.25-1.97-2.65-2.98-4.08-6.78-9.7-13.55-19.41-20.32-29.11-.74-1.05-1.46-2.11-2.26-3.11-1.46-1.83-3.43-2.28-5.61-1.73-2.04.52-3.28,1.95-3.66,4.01-.96,5.19-1.86,10.39-2.78,15.58-1.38,7.87-2.76,15.73-4.17,23.76-1.09.41-2.08.87-3.13,1.16-18.18,4.95-35.23,12.48-51.1,22.66-.53.34-1.1.61-1.92,1.06-.7-.83-1.48-1.58-2.05-2.47-5.4-8.5-10.76-17.04-16.14-25.56-.68-1.08-1.33-2.19-2.09-3.21-1.35-1.81-3.15-2.74-5.43-2.21-2.21.51-3.7,1.92-4.12,4.19-.71,3.77-1.34,7.55-1.93,11.35-2.6,16.74-5.2,33.48-7.72,50.24-.39,2.64-1.43,4.79-3.07,6.86-17.82,22.41-29.81,47.61-35.77,75.62-3.45,16.2-4.71,32.55-3.69,49.12Z"/>
  <g>
    <path d="M1036.61,100.67c.77,1.75,2.18,2.67,4.12,2.55.85-.05,1.7-.3,2.54-.49,14.08-3.2,28.15-6.41,42.23-9.62.7-.16,1.41-.34,2.06-.63,2.03-.89,3.03-2.86,2.56-4.94-.44-1.92-2.37-3.24-4.62-3.08-.71.05-1.42.23-2.12.39-14.07,3.23-28.14,6.46-42.21,9.69-.84.19-1.72.32-2.5.67-2.12.96-2.98,3.36-2.05,5.46Z"/>
    <path d="M687.73,153.93c3.19-1.6,3.65-5.26,1.28-7.12-.78-.61-1.75-1.02-2.68-1.37-13.53-5.15-27.07-10.28-40.61-15.4-.81-.31-1.65-.61-2.49-.71-1.94-.23-3.8,1.04-4.39,2.83-.63,1.93.01,3.78,1.83,4.85.86.51,1.83.87,2.77,1.23,13.13,4.99,26.26,9.96,39.39,14.94.81.31,1.62.7,2.47.8.96.12,1.96-.04,2.43-.05Z"/>
    <path d="M1028.08,77.2c.44-.37,1.26-.97,1.98-1.67,10.34-9.92,20.68-19.84,31-29.78.72-.7,1.47-1.42,1.98-2.27,1.04-1.71.63-3.87-.83-5.14-1.43-1.25-3.69-1.41-5.23-.28-.81.59-1.53,1.33-2.26,2.03-10.02,9.62-20.04,19.25-30.05,28.88-.83.8-1.69,1.6-2.35,2.54-1.05,1.49-.86,3.55.26,4.84,1.37,1.58,3.23,1.95,5.5.84Z"/>
    <path d="M636.39,190.21c.25.48,1.42,1.3,2.99,1.3,1.15,0,2.3-.21,3.44-.41,13.53-2.41,27.06-4.83,40.58-7.25,1-.18,2.01-.32,2.98-.59,2.25-.65,3.55-2.8,3.12-5.02-.38-1.95-2.26-3.34-4.53-3.23-1.01.05-2,.27-3,.45-13.53,2.42-27.05,4.84-40.58,7.29-1.27.23-2.59.48-3.75,1.02-2.16,1-2.83,3.42-1.25,6.45Z"/>
  </g>
  <path class="cls-2" d="M844.28,161.15c-9.72.74-17.59,3.09-23.05,5.2-5.19-11.73-1.89-24.51,7.82-31.86,9.65-7.31,22.96-7.08,32.39.57,8.49,6.89,12.1,19.37,7.91,28.1-5.91-1.42-14.61-2.8-25.07-2ZM843.01,150.01c.03-5.31-4.04-9.47-9.28-9.51-5.24-.04-9.39,4.09-9.43,9.37-.04,5.27,4.09,9.52,9.29,9.56,5.18.04,9.39-4.17,9.42-9.42Z"/>
  <path class="cls-2" d="M820.89,205.07c-2.51,3.71-5.05,7.39-7.54,11.11l-5.71,8.69-4.13-6.04-1.67-2.46c-1.41-2.1-2.88-4.27-4.35-6.44-1.34-1.99-2.76-3.93-3.99-5.98-1.26-2.09-.3-3.68,2.21-3.88.48-.04.96-.03,1.44-.03,7.04,0,14.07,0,21.1.01,1.26,0,2.63-.22,3.46,1.1.97,1.55-.03,2.74-.82,3.92Z"/>
  <path class="cls-2" d="M754.22,167.07c.37.89,1.23,1.49,2.19,1.53.12,0,.25.01.38.02,8.92.4,14.34-1.77,19.03-2.71,12.98-2.58,19.56,4.47,23.17.44,2.82-3.14.17-9.22-.58-12.42-2.36-9.96-11.17-17.12-21.34-17.61-11.08-.54-20.05,6.36-23.15,15.8-1.64,4.98-1.79,9.98.3,14.95ZM770.34,152.4c-.08-4.98,4.11-9.07,9.1-9.18,4.88-.11,8.92,3.37,9.54,8.02.05.36.07.73.08,1.11.09,5.19-4.08,9.38-9.34,9.39-3.36.15-6.73-1.7-8.37-5-.61-1.25-.98-2.71-1.01-4.34Z"/>
  <path d="M843.01,150.01c-.03,5.25-4.24,9.46-9.42,9.42-5.2-.04-9.33-4.29-9.29-9.56.04-5.28,4.2-9.41,9.43-9.37,5.25.04,9.31,4.21,9.28,9.51Z"/>
  <path d="M770.34,152.4c.03,1.63.4,3.09,1.01,4.34,1.64,3.3,5.01,5.15,8.37,5,5.26-.01,9.43-4.2,9.34-9.39-.01-.38-.03-.75-.08-1.11-.62-4.65-4.66-8.13-9.54-8.02-4.99.11-9.18,4.2-9.1,9.18Z"/>
  <path class="cls-4" d="M784.62,238.66l21.98,15.16,7.02.1,19.68-14.25s21.34,15.07.71,34.42l-20.8-13.95-6.39-.09-20.89,14.87s-16.2-17.55-1.32-36.27Z"/>
  <polyline class="cls-3" points="801.84 216.37 803.51 218.83 807.64 224.87"/>
  <polyline class="cls-3" points="813.69 215.65 813.35 216.18 807.64 224.87"/>
</svg>