<?xml version="1.0" encoding="UTF-8"?>
<svg id="Layer_1" data-name="Layer 1" xmlns="http://www.w3.org/2000/svg" viewBox="0 0 847.76 858.67">
  <defs>
    <style>
      .cls-1, .cls-2 {
        fill: #fff;
      }

      .cls-2 {
        opacity: .3;
      }
    </style>
  </defs>
  <g>
    <path class="cls-1" d="M847.71,612.96c-.15-.65-.58-1.2-1.2-1.47L250.38,348.74c-.79-.35-1.71-.18-2.33.44l-141.87,141.69s-.04.05-.08.08l-97.59,108.28c-.45.49-.64,1.19-.48,1.86.15.66.61,1.21,1.24,1.47l616.51,255.96c.19.08.38.12.58.15.65.07,1.32-.18,1.78-.67l219.09-243.18c.45-.49.64-1.18.49-1.84ZM626,854.07L13.61,599.83l95.57-106.03,140.82-140.64,592.17,260.99-216.16,239.92Z"/>
    <polygon class="cls-2" points="842.17 614.16 817.19 641.88 626 854.07 13.61 599.83 99.2 504.87 109.18 493.8 250 353.16 842.17 614.16"/>
  </g>
  <path class="cls-1" d="M42.51,597.96c-.2-.02-.41-.07-.61-.16l-40.63-17.19c-1.07-.45-1.56-1.68-1.11-2.75.45-1.07,1.68-1.57,2.75-1.11l40.63,17.19c1.07.45,1.56,1.68,1.11,2.75-.37.87-1.25,1.36-2.14,1.27Z"/>
  <path class="cls-1" d="M52.45,572.2c-.27-.03-.54-.11-.8-.25l-25.65-14.07c-1.01-.56-1.39-1.83-.83-2.85.56-1.02,1.83-1.39,2.85-.83l25.65,14.07c1.01.56,1.39,1.83.83,2.85-.42.76-1.24,1.16-2.05,1.08Z"/>
  <path class="cls-1" d="M74.89,542.62c-.31-.03-.62-.13-.91-.31l-19.76-12.52c-.98-.62-1.27-1.92-.65-2.89s1.91-1.27,2.89-.65l19.76,12.52c.98.62,1.27,1.92.65,2.89-.44.69-1.22,1.04-1.98.96Z"/>
  <path class="cls-1" d="M98.14,517.58c-.32-.03-.63-.14-.92-.32l-18.84-12.11c-.97-.63-1.26-1.92-.63-2.9.63-.98,1.92-1.26,2.9-.63l18.84,12.11c.97.63,1.26,1.92.63,2.9-.44.69-1.22,1.03-1.98.95Z"/>
  <path class="cls-1" d="M658.85,856.77c-.44-.04-.87-.23-1.21-.55l-30.87-28.62c-.85-.79-.9-2.11-.11-2.96.79-.85,2.11-.9,2.96-.11l30.87,28.62c.85.79.9,2.11.11,2.96-.47.5-1.12.72-1.75.66Z"/>
  <path class="cls-1" d="M679.53,822.55c-.39-.04-.77-.19-1.09-.45l-24.76-19.72c-.91-.72-1.06-2.04-.33-2.95.72-.91,2.04-1.06,2.95-.33l24.76,19.72c.91.72,1.06,2.04.33,2.95-.46.58-1.17.85-1.85.78Z"/>
  <path class="cls-1" d="M707.51,797.99c-.36-.04-.72-.17-1.04-.4l-27.85-20.67c-.93-.69-1.12-2-.43-2.93.69-.93,2-1.13,2.93-.43l27.85,20.67c.93.69,1.12,2,.43,2.93-.46.62-1.19.91-1.9.84Z"/>
  <path class="cls-1" d="M722.95,765.15c-.23-.02-.46-.09-.68-.19l-25.84-12.18c-1.05-.49-1.49-1.74-1-2.79.49-1.05,1.74-1.49,2.79-1l25.84,12.18c1.05.49,1.49,1.74,1,2.79-.39.83-1.25,1.28-2.11,1.19Z"/>
  <path class="cls-1" d="M756.85,745.02c-.37-.04-.74-.18-1.06-.42l-27.79-21.3c-.92-.71-1.09-2.02-.39-2.94.7-.92,2.02-1.09,2.94-.39l27.79,21.3c.92.71,1.09,2.02.39,2.94-.46.6-1.18.88-1.88.81Z"/>
  <path class="cls-1" d="M780.63,705.38c-.22-.02-.44-.08-.65-.18l-20.11-9.08c-1.05-.48-1.52-1.72-1.05-2.77.48-1.05,1.72-1.52,2.77-1.05l20.11,9.08c1.05.48,1.52,1.72,1.05,2.77-.38.84-1.25,1.31-2.12,1.22Z"/>
  <path class="cls-1" d="M809.83,681.34c-.38-.04-.74-.18-1.06-.42l-29.55-22.75c-.92-.71-1.09-2.02-.38-2.94.71-.92,2.02-1.09,2.94-.38l29.55,22.75c.92.71,1.09,2.02.38,2.94-.46.6-1.18.88-1.88.81Z"/>
  <path class="cls-1" d="M833.92,651.14c-.39-.04-.78-.19-1.1-.45l-24.14-19.52c-.9-.73-1.04-2.05-.31-2.95.73-.9,2.05-1.04,2.95-.31l24.14,19.52c.9.73,1.04,2.05.31,2.95-.46.57-1.16.84-1.84.77Z"/>
  <path class="cls-1" d="M56.31,597.02c-.42-.04-.83-.21-1.17-.51-.87-.77-.95-2.09-.19-2.96l37.45-42.5c.77-.87,2.09-.95,2.96-.19.87.77.95,2.09.19,2.96l-37.45,42.5c-.46.53-1.14.77-1.79.7Z"/>
  <path class="cls-1" d="M70.09,603.51c-.4-.04-.79-.2-1.13-.47-.89-.74-1.01-2.06-.27-2.95l17.9-21.55c.74-.89,2.06-1.01,2.95-.27.89.74,1.01,2.06.27,2.95l-17.9,21.55c-.46.56-1.15.81-1.83.75Z"/>
  <path class="cls-1" d="M259.13,653.71c-.36-.04-.71-.16-1.02-.39-.93-.68-1.14-1.99-.46-2.93l19.24-26.32c.68-.93,2-1.14,2.93-.46.93.68,1.14,1.99.46,2.93l-19.24,26.32c-.46.62-1.19.92-1.91.85Z"/>
  <path class="cls-1" d="M272.15,663.53c-.29-.03-.58-.12-.85-.28-1-.59-1.33-1.87-.75-2.87l8.22-14.03c.59-1,1.87-1.33,2.87-.75,1,.59,1.33,1.87.75,2.87l-8.22,14.03c-.43.73-1.23,1.11-2.02,1.03Z"/>
  <path class="cls-1" d="M585.42,791.33c-.34-.03-.67-.15-.97-.36-.95-.65-1.2-1.96-.55-2.91l11.97-17.48c.65-.95,1.96-1.2,2.91-.55.95.65,1.2,1.96.55,2.91l-11.97,17.48c-.45.66-1.2.98-1.94.9Z"/>
  <path class="cls-1" d="M575.88,755.53c-.34-.03-.68-.16-.99-.37-.95-.66-1.18-1.97-.51-2.92l16.39-23.4c.67-.95,1.97-1.18,2.92-.51.95.66,1.18,1.97.51,2.92l-16.39,23.4c-.45.64-1.2.96-1.93.88Z"/>
  <path class="cls-1" d="M538.69,799.65c-.37-.04-.73-.17-1.05-.41-.92-.7-1.11-2.01-.41-2.94l19.42-25.75c.7-.92,2.01-1.11,2.94-.41.92.7,1.11,2.01.41,2.94l-19.42,25.75c-.46.61-1.18.9-1.89.82Z"/>
  <path class="cls-1" d="M741.21,641.73c-.35-.04-.7-.16-1-.38-.94-.67-1.16-1.98-.49-2.92l24.53-34.33c.67-.94,1.98-1.16,2.92-.49.94.67,1.16,1.98.49,2.92l-24.53,34.33c-.45.63-1.19.94-1.92.87Z"/>
  <path class="cls-1" d="M759.45,654.58c-.29-.03-.57-.12-.84-.27-1-.58-1.34-1.86-.76-2.87l9.78-16.87c.58-1,1.86-1.34,2.87-.76,1,.58,1.34,1.86.76,2.87l-9.78,16.87c-.43.74-1.23,1.12-2.03,1.03Z"/>
  <g>
    <path d="M564.69,623.52c-39.4,7.72-78.19-1.31-109.04-22.12,0,0,.01,0,0-.01-23.73-16.01-42.75-39.02-53.71-66.76-3.22-8.14-5.73-16.68-7.47-25.58-6.9-35.27-.4-70.06,15.98-99.08,8.46-15.03,19.58-28.5,32.84-39.7,18.23-15.41,40.54-26.52,65.63-31.43,78.62-15.39,154.82,35.85,170.21,114.47,15.41,78.61-35.84,154.82-114.46,170.22Z"/>
    <path d="M469.75,391.97l-58.23,25.55-1.06-7.54-2.82-19.96-5.31-37.8c-.88-6.25,6.38-10.33,11.26-6.33l29.71,24.39,26.45,21.7Z"/>
    <path d="M574.58,361.75l34.6-56.16c3.31-5.38,11.5-3.88,12.71,2.31l13.84,71.32-61.15-17.47Z"/>
    <path d="M500.1,650.97c-.02-.24-.06-.44-.08-.6h0c-.26-.18-.51-.36-.76-.53-22.93-15.68-41.39-37.94-52.31-64.68-.21-.52-.43-1.03-.63-1.55-.2-.51-.4-1.02-.58-1.54-2.95-7.67-5.26-15.7-6.89-24.05-6.89-35.26-.39-70.05,15.98-99.08l-6.34-45.11c-4.34-2.91-11.02-7.72-18.47-14.41-55.26-49.76-41.88-105.27-75.68-155.2-30.82-45.51-94.43-76.94-153.33-68.12-65.76,9.83-102,65.73-110.76,80.51-42.5,71.63-16.9,149.97-6.14,182.89,19.55,59.8,54.72,98.98,74.95,118.48.97.73,17.08,12.53,34.01,5.47,1.91-.8,10.44-4.35,14.53-12.97,9.54-20.04-14.97-46.47-16.87-48.4,9.13,8.56,56.8,49.59,141.36,58.78,0,0,25.5,37.05,60.09,70.16,10.46,10.02,21.84,18.18,44.61,34.48,9.43,6.75,18.02,12.57,30.45,13.91,5.99.65,19.33,2.09,27.49-7.09,6.79-7.65,5.87-18.09,5.4-21.36ZM189.56,500.95c.34.3.67.64,1.01.99-.19-.18-.69-.66-1.01-.99Z"/>
    <path class="cls-1" d="M401.18,530.53c-.22-.02-.43-.17-.51-.39-3.26-8.24-5.78-16.88-7.51-25.69-6.65-33.96-.98-69.22,15.95-99.32l-6.32-44.9c-.05-.34.19-.65.53-.7.34-.05.65.19.7.53l6.35,45.11c.02.13,0,.27-.07.39-16.87,29.88-22.52,64.91-15.92,98.65,1.71,8.73,4.21,17.3,7.44,25.47.13.32-.03.68-.35.81-.1.04-.19.05-.29.04Z"/>
    <g>
      <path d="M499.26,649.84c-22.93-15.68-41.39-37.94-52.31-64.68,7.56,8.01,15.2,15.63,22.7,22.69,16.81,15.8,26.78,29.93,29.61,42Z"/>
      <path class="cls-1" d="M500.15,650.97s-.03.01-.04,0c-.05.01-.09.02-.15.01-.26-.02-.48-.21-.54-.48-.04-.21-.1-.44-.16-.65-2.83-12.07-12.8-26.2-29.61-42-7.5-7.05-15.14-14.68-22.7-22.69-.36-.37-.72-.75-1.08-1.14-44.03-46.78-74.85-94.44-75.15-94.92-.18-.29-.1-.67.19-.85.29-.19.67-.1.85.18.3.47,30.57,47.29,73.97,93.63.34.37.69.74,1.03,1.11,7.91,8.4,15.89,16.39,23.72,23.75,17.31,16.26,27.45,30.83,30.14,43.29.07.34-.15.67-.48.74Z"/>
    </g>
    <path class="cls-1" d="M189.16,501.25c-.13-.01-.26-.07-.36-.16-.08-.05-.14-.12-.19-.2-.57-.65-24.31-27.89-36.23-64.95-.11-.33.07-.68.4-.78.33-.1.68.08.78.4,11.93,37.08,35.76,64.26,36,64.53.02.01.03.03.05.05.18.13.28.35.25.57-.03.34-.37.56-.69.55h0Z"/>
    <path d="M169.79,225.82c-13.49-1.37-24.75-11.88-26.52-25.92-2.62-20.77-4.83-74.55,31.13-125.36,9.07-12.81,43.34-55.72,103.67-69.94,37.19-8.77,76.56-4.95,113.85,11.06,34.44,14.78,65.06,39.48,86.24,69.55,40.74,57.86,37.02,121.75,33.53,146.53-2.3,16.3-17.34,27.64-33.66,25.35-16.29-2.29-27.64-17.37-25.35-33.66,2.5-17.76,5.25-63.45-23.24-103.91-31.78-45.13-88.4-68.53-137.69-56.91-41,9.67-64.43,40.32-68.71,46.37-23.89,33.75-22.4,69.62-20.65,83.47,2.06,16.33-9.5,31.23-25.83,33.29-2.29.29-4.56.31-6.77.09Z"/>
    <path d="M636.37,633.95c-3.09-.31-6.18-1.17-9.14-2.6-25.37-12.29-43.42-28.6-45.39-30.42-11.09-10.22-11.79-27.5-1.57-38.59,10.21-11.08,27.45-11.79,38.55-1.62.44.4,14.15,12.71,32.23,21.47,13.58,6.57,19.25,22.91,12.68,36.49-5.14,10.61-16.25,16.4-27.34,15.27Z"/>
    <path class="cls-1" d="M597,613.77c-.21-.02-.41-.15-.5-.36-.14-.31,0-.68.31-.82,17.99-8.19,33.85-19.82,47.15-34.55.23-.26.63-.27.88-.05.25.23.27.62.05.88-13.41,14.86-29.41,26.58-47.56,34.85-.1.05-.21.06-.32.05Z"/>
    <g>
      <path class="cls-1" d="M573.27,542.39c2.65-5.23,5.25-10.37,7.86-15.51.24-.48.58-.9.84-1.37.83-1.53-.37-2.81-1.54-3.09-.5-.12-1.07-.04-1.6,0-6.43.51-12.85,1.02-19.28,1.56-1.2.1-2.42.22-3.58.54-1.9.51-2.56,1.92-1.69,3.71.7,1.44,1.52,2.85,2.5,4.11,2.14,2.76,4.42,5.41,6.63,8.11.51.62.99,1.25,1.51,1.92-.32,2.28-1.44,4.1-2.79,5.78-4.45,5.53-11.37,8.37-18.4,7.42-4.58-.62-8.35-2.45-11.24-5.5-.65-.68-1.22-1.45-1.94-2.04-.74-.61-1.65-.94-2.63-.51-.98.44-1.28,1.29-1.34,2.29-.1,1.7.39,3.27,1.54,4.45,1.2,1.24,2.52,2.46,4.02,3.3,6.96,3.9,14.46,4.84,22.23,3.34,3.67-.71,6.7-2.8,9.11-5.61,1.65-1.92,2.97-4.13,4.41-6.22.44-.64.8-1.34,1.15-1.92,1.22,0,1.44.93,1.89,1.5,1.68,2.13,3.54,4.04,5.8,5.54,3.75,2.5,7.81,3.38,12.28,2.57,4-.73,7.85-1.81,11.3-4.03,1.71-1.09,3.3-2.32,4.4-4.07.83-1.31,1.1-2.7.7-4.22-.44-1.69-2.23-2.48-3.68-1.52-.58.38-1.07.96-1.46,1.55-6.54,9.83-22.65,7.16-27-2.09Z"/>
      <path class="cls-1" d="M546.21,487.69c2.55,1.15,5.54-.44,5.69-3.23.13-2.46-.12-4.9-.59-7.34-2.86-14.51-14.2-19.4-23.64-19.81-4.19-.18-8.31.41-12.28,1.92-9.98,3.8-15.9,12.35-15.8,23.02.02,1.87.24,3.76.53,5.62,0,.01,0,.03,0,.04.35,2.21,3,3.25,4.83,1.96.27-.19.54-.37.83-.51.94-.48,1.86-1,2.77-1.52,1.05-.6,1.67-1.76,1.58-2.97-.07-.86-.14-1.7-.26-2.53-1.3-8.93,4.22-15.76,13.3-17.22,2.78-.45,5.6-.2,8.26.74,5.4,1.9,8.72,5.7,9.57,11.3.28,1.86.27,3.76.27,5.75,0,1.52.88,2.9,2.25,3.55.86.41,1.75.82,2.65,1.22.02,0,.03.01.05.02Z"/>
      <path class="cls-1" d="M571.39,481.18c.1,2.01,2.26,3.25,4.02,2.29.62-.34,1.2-.67,1.61-.92,1.87-1.14,3.03-3.14,3.15-5.33.18-3.05,1.08-5.88,3.38-8.29,2.54-2.64,5.74-3.98,9.3-4.31,4-.37,7.74.52,10.89,3.21,2.22,1.9,3.38,4.29,4.01,7.01.48,2.04,1.89,3.73,3.85,4.49l1.52.58c2.05.79,4.2-.88,3.96-3.06-.1-.89-.24-1.7-.36-2.2-2.12-8.66-7.62-13.94-16.27-15.95-6.01-1.4-11.83-.66-17.36,2.05-7.63,3.73-12.14,11.84-11.72,20.32v.11Z"/>
    </g>
    <g>
      <path class="cls-1" d="M692.01,423.19c-1.21-.12-2.36-.77-3.08-1.87-1.27-1.94-.73-4.54,1.2-5.81l22.19-14.57c1.94-1.27,4.54-.73,5.81,1.2,1.27,1.94.73,4.54-1.2,5.81l-22.19,14.57c-.84.55-1.8.76-2.72.67Z"/>
      <path class="cls-1" d="M699.38,442.15c-1.64-.17-3.1-1.3-3.6-2.99-.65-2.22.62-4.55,2.84-5.21l36.83-10.84c2.22-.65,4.55.62,5.21,2.84.65,2.22-.62,4.55-2.84,5.21l-36.83,10.84c-.54.16-1.08.2-1.61.15Z"/>
      <path class="cls-1" d="M702.02,458.71c-2.28-.23-3.96-2.26-3.75-4.55.21-2.31,2.24-4.01,4.55-3.8l26.9,2.42h.05c2.28.24,3.96,2.26,3.75,4.55-.21,2.31-2.24,4.01-4.55,3.8l-26.9-2.42h-.05Z"/>
      <path class="cls-1" d="M376.12,416.08c-.9-.09-1.78-.47-2.48-1.15l-14.93-14.34c-1.67-1.6-1.72-4.26-.12-5.93s4.26-1.72,5.93-.12l14.93,14.34c1.67,1.6,1.72,4.26.12,5.93-.93.97-2.21,1.39-3.45,1.27Z"/>
      <path class="cls-1" d="M366.24,432.26c-.5-.05-1.01-.2-1.49-.44l-29.67-15.22c-2.06-1.06-2.87-3.58-1.82-5.64,1.06-2.06,3.58-2.88,5.64-1.82l29.67,15.22c2.06,1.06,2.87,3.58,1.82,5.64-.81,1.58-2.49,2.43-4.16,2.26Z"/>
      <path class="cls-1" d="M362.5,450.15h-.04s-24.8-2.75-24.8-2.75c-2.3-.25-3.96-2.33-3.71-4.63.25-2.29,2.3-3.94,4.59-3.71h.04s24.8,2.75,24.8,2.75c2.3.25,3.96,2.33,3.71,4.63-.25,2.29-2.3,3.94-4.59,3.71Z"/>
    </g>
  </g>
</svg>